%TF.GenerationSoftware,KiCad,Pcbnew,(6.0.9)*%
%TF.CreationDate,2022-12-27T03:42:51-08:00*%
%TF.ProjectId,panel_pcb,70616e65-6c5f-4706-9362-2e6b69636164,rev?*%
%TF.SameCoordinates,Original*%
%TF.FileFunction,Profile,NP*%
%FSLAX46Y46*%
G04 Gerber Fmt 4.6, Leading zero omitted, Abs format (unit mm)*
G04 Created by KiCad (PCBNEW (6.0.9)) date 2022-12-27 03:42:51*
%MOMM*%
%LPD*%
G01*
G04 APERTURE LIST*
%TA.AperFunction,Profile*%
%ADD10C,0.100000*%
%TD*%
G04 APERTURE END LIST*
D10*
X-6917740Y59682490D02*
X-6764450Y59721940D01*
X6345700Y59923380D02*
X6477600Y59843200D01*
X-12031860Y-61414000D02*
X-12007590Y-61572000D01*
X-6764450Y-59722000D02*
X-6917740Y-59682000D01*
X-15240000Y-64250000D02*
X-15240000Y64250000D01*
X-10603440Y59658220D02*
X-10439930Y59649950D01*
X-10762260Y59682490D02*
X-10603440Y59658220D01*
X5672600Y-60928000D02*
X5648400Y-61087000D01*
X7240100Y-59650000D02*
X7076500Y-59658000D01*
X10915600Y59721940D02*
X11062600Y59775780D01*
X12007600Y60927650D02*
X12031900Y61086420D01*
X-11914300Y61872510D02*
X-11968140Y61725520D01*
X-11334360Y62576650D02*
X-11571220Y62381180D01*
X11766700Y-62144000D02*
X11846900Y-62012000D01*
X-5640120Y61249890D02*
X-5640120Y61249890D01*
X-11062550Y59775780D02*
X-10915560Y59721940D01*
X-11846880Y60487580D02*
X-11766690Y60355660D01*
X5833300Y62012380D02*
X5765900Y61872510D01*
X11202400Y-59843000D02*
X11062600Y-59776000D01*
X11571200Y-60119000D02*
X11334400Y-59923000D01*
X-5765920Y60627420D02*
X-5712090Y60774380D01*
X12007600Y61572220D02*
X11968100Y61725520D01*
X11766700Y-60356000D02*
X11571200Y-60119000D01*
X-11846880Y-60488000D02*
X-11914300Y-60627000D01*
X6617500Y62724260D02*
X6477600Y62656840D01*
X-6917740Y-59682000D02*
X-7076550Y-59658000D01*
X-7076550Y59658220D02*
X-6917740Y59682490D01*
X15240000Y-64250000D02*
X-15240000Y-64250000D01*
X-6764450Y59721940D02*
X-6617480Y59775780D01*
X-5765920Y-60627000D02*
X-5833320Y-60488000D01*
X-5712090Y-60774000D02*
X-5765920Y-60627000D01*
X-5648390Y-61414000D02*
X-5640120Y-61250000D01*
X5913500Y62144320D02*
X5833300Y62012380D01*
X10603400Y-59658000D02*
X10439900Y-59650000D01*
X-5640120Y-61250000D02*
X-5640120Y-61250000D01*
X-5913480Y60355660D02*
X-5833320Y60487580D01*
X-7240060Y-62850000D02*
X-7076550Y-62842000D01*
X-11202420Y59843200D02*
X-11062550Y59775780D01*
X12007600Y-61572000D02*
X12031900Y-61414000D01*
X-12007590Y-60928000D02*
X-12031860Y-61087000D01*
X11766700Y60355660D02*
X11846900Y60487580D01*
X-12031860Y61413400D02*
X-12040130Y61249890D01*
X-10915560Y-62778000D02*
X-10762260Y-62817000D01*
X-11202420Y-59843000D02*
X-11334360Y-59923000D01*
X6477600Y62656840D02*
X6345700Y62576650D01*
X-12007590Y60927650D02*
X-11968140Y60774380D01*
X5672600Y-61572000D02*
X5712100Y-61726000D01*
X-5648390Y61086420D02*
X-5640120Y61249890D01*
X-5833320Y62012380D02*
X-5913480Y62144320D01*
X-5640120Y-61250000D02*
X-5648390Y-61087000D01*
X-6108900Y60118830D02*
X-5913480Y60355660D01*
X-6917740Y62817560D02*
X-7076550Y62841820D01*
X11914300Y-61873000D02*
X11968100Y-61726000D01*
X-10762260Y62817560D02*
X-10915560Y62778100D01*
X5765900Y60627420D02*
X5833300Y60487580D01*
X11062600Y62724260D02*
X10915600Y62778100D01*
X-5640120Y61249890D02*
X-5640120Y61249890D01*
X10762300Y59682490D02*
X10915600Y59721940D01*
X12040100Y-61250000D02*
X12040100Y-61250000D01*
X-11571220Y-60119000D02*
X-11766690Y-60356000D01*
X10915600Y62778100D02*
X10762300Y62817560D01*
X-11334360Y-62577000D02*
X-11202420Y-62657000D01*
X-12031860Y-61087000D02*
X-12040130Y-61250000D01*
X11846900Y-60488000D02*
X11766700Y-60356000D01*
X-5640120Y-61250000D02*
X-5640120Y-61250000D01*
X6477600Y-59843000D02*
X6345700Y-59923000D01*
X7240100Y59649950D02*
X10439900Y59649950D01*
X10603400Y59658220D02*
X10762300Y59682490D01*
X10915600Y-59722000D02*
X10762300Y-59682000D01*
X5913500Y-60356000D02*
X5833300Y-60488000D01*
X6345700Y-59923000D02*
X6108900Y-60119000D01*
X-12007590Y-61572000D02*
X-11968140Y-61726000D01*
X-5672650Y60927650D02*
X-5648390Y61086420D01*
X6764400Y59721940D02*
X6917700Y59682490D01*
X-10915560Y62778100D02*
X-11062550Y62724260D01*
X11846900Y-62012000D02*
X11914300Y-61873000D01*
X6617500Y-62724000D02*
X6764400Y-62778000D01*
X5712100Y-61726000D02*
X5765900Y-61873000D01*
X-11914300Y60627420D02*
X-11846880Y60487580D01*
X-11766690Y-60356000D02*
X-11846880Y-60488000D01*
X6764400Y-59722000D02*
X6617500Y-59776000D01*
X-7240060Y59649950D02*
X-7076550Y59658220D01*
X5648400Y61086420D02*
X5672600Y60927650D01*
X11914300Y60627420D02*
X11968100Y60774380D01*
X10915600Y-62778000D02*
X11062600Y-62724000D01*
X10603400Y62841820D02*
X10439900Y62850090D01*
X6917700Y-59682000D02*
X6764400Y-59722000D01*
X6764400Y-62778000D02*
X6917700Y-62817000D01*
X6477600Y59843200D02*
X6617500Y59775780D01*
X5648400Y-61087000D02*
X5640100Y-61250000D01*
X-11062550Y-62724000D02*
X-10915560Y-62778000D01*
X-10762260Y-62817000D02*
X-10603440Y-62842000D01*
X7240100Y-62850000D02*
X10439900Y-62850000D01*
X5648400Y-61414000D02*
X5672600Y-61572000D01*
X-11766690Y-62144000D02*
X-11571220Y-62381000D01*
X10439900Y-62850000D02*
X10603400Y-62842000D01*
X-12040130Y-61250000D02*
X-12031860Y-61414000D01*
X-5672650Y-61572000D02*
X-5648390Y-61414000D01*
X12007600Y-60928000D02*
X11968100Y-60774000D01*
X-5640120Y61249890D02*
X-5648390Y61413400D01*
X-11202420Y-62657000D02*
X-11062550Y-62724000D01*
X-5765920Y-61873000D02*
X-5712090Y-61726000D01*
X11202400Y59843200D02*
X11334400Y59923380D01*
X-5833320Y-62012000D02*
X-5765920Y-61873000D01*
X5672600Y60927650D02*
X5712100Y60774380D01*
X-11202420Y62656840D02*
X-11334360Y62576650D01*
X5833300Y60487580D02*
X5913500Y60355660D01*
X12040100Y61249890D02*
X12040100Y61249890D01*
X11334400Y62576650D02*
X11202400Y62656840D01*
X5765900Y61872510D02*
X5712100Y61725520D01*
X-10439930Y62850090D02*
X-10603440Y62841820D01*
X6917700Y62817560D02*
X6764400Y62778100D01*
X-11968140Y-61726000D02*
X-11914300Y-61873000D01*
X-6477630Y-59843000D02*
X-6617480Y-59776000D01*
X-7240060Y62850090D02*
X-10439930Y62850090D01*
X12031900Y-61414000D02*
X12040100Y-61250000D01*
X-6477630Y59843200D02*
X-6345710Y59923380D01*
X6345700Y-62577000D02*
X6477600Y-62657000D01*
X-11334360Y-59923000D02*
X-11571220Y-60119000D01*
X5913500Y-62144000D02*
X6108900Y-62381000D01*
X5765900Y-61873000D02*
X5833300Y-62012000D01*
X-5913480Y-62144000D02*
X-5833320Y-62012000D01*
X5672600Y61572220D02*
X5648400Y61413400D01*
X5648400Y61413400D02*
X5640100Y61249890D01*
X-11571220Y-62381000D02*
X-11334360Y-62577000D01*
X7240100Y62850090D02*
X7076500Y62841820D01*
X-6477630Y62656840D02*
X-6617480Y62724260D01*
X6617500Y-59776000D02*
X6477600Y-59843000D01*
X5712100Y-60774000D02*
X5672600Y-60928000D01*
X11968100Y60774380D02*
X12007600Y60927650D01*
X-11968140Y61725520D02*
X-12007590Y61572220D01*
X6764400Y62778100D02*
X6617500Y62724260D01*
X7076500Y-59658000D02*
X6917700Y-59682000D01*
X11846900Y60487580D02*
X11914300Y60627420D01*
X5765900Y-60627000D02*
X5712100Y-60774000D01*
X12040100Y-61250000D02*
X12031900Y-61087000D01*
X11202400Y62656840D02*
X11062600Y62724260D01*
X-10603440Y-59658000D02*
X-10762260Y-59682000D01*
X-6617480Y59775780D02*
X-6477630Y59843200D01*
X-5712090Y-61726000D02*
X-5672650Y-61572000D01*
X11202400Y-62657000D02*
X11334400Y-62577000D01*
X11914300Y61872510D02*
X11846900Y62012380D01*
X11062600Y-62724000D02*
X11202400Y-62657000D01*
X6345700Y62576650D02*
X6108900Y62381180D01*
X-5833320Y-60488000D02*
X-5913480Y-60356000D01*
X5640100Y-61250000D02*
X5648400Y-61414000D01*
X-11968140Y-60774000D02*
X-12007590Y-60928000D01*
X-7240060Y-59650000D02*
X-10439930Y-59650000D01*
X10762300Y-59682000D02*
X10603400Y-59658000D01*
X10439900Y59649950D02*
X10603400Y59658220D01*
X6617500Y59775780D02*
X6764400Y59721940D01*
X11334400Y-59923000D02*
X11202400Y-59843000D01*
X6108900Y62381180D02*
X5913500Y62144320D01*
X-7076550Y-62842000D02*
X-6917740Y-62817000D01*
X5833300Y-62012000D02*
X5913500Y-62144000D01*
X-5833320Y60487580D02*
X-5765920Y60627420D01*
X-10915560Y-59722000D02*
X-11062550Y-59776000D01*
X-5712090Y61725520D02*
X-5765920Y61872510D01*
X-11914300Y-60627000D02*
X-11968140Y-60774000D01*
X-11062550Y62724260D02*
X-11202420Y62656840D01*
X11334400Y59923380D02*
X11571200Y60118830D01*
X7076500Y62841820D02*
X6917700Y62817560D01*
X-5672650Y61572220D02*
X-5712090Y61725520D01*
X-10439930Y-59650000D02*
X-10603440Y-59658000D01*
X-6764450Y-62778000D02*
X-6617480Y-62724000D01*
X-6345710Y-62577000D02*
X-6108900Y-62381000D01*
X-6108900Y62381180D02*
X-6345710Y62576650D01*
X-6345710Y62576650D02*
X-6477630Y62656840D01*
X11571200Y62381180D02*
X11334400Y62576650D01*
X15240000Y64250000D02*
X15240000Y-64250000D01*
X-7076550Y-59658000D02*
X-7240060Y-59650000D01*
X-5648390Y61413400D02*
X-5672650Y61572220D01*
X6108900Y-60119000D02*
X5913500Y-60356000D01*
X11766700Y62144320D02*
X11571200Y62381180D01*
X11968100Y-61726000D02*
X12007600Y-61572000D01*
X-5913480Y-60356000D02*
X-6108900Y-60119000D01*
X-11968140Y60774380D02*
X-11914300Y60627420D01*
X-11766690Y60355660D02*
X-11571220Y60118830D01*
X11914300Y-60627000D02*
X11846900Y-60488000D01*
X12031900Y-61087000D02*
X12007600Y-60928000D01*
X-11846880Y-62012000D02*
X-11766690Y-62144000D01*
X12031900Y61086420D02*
X12040100Y61249890D01*
X6108900Y-62381000D02*
X6345700Y-62577000D01*
X-11766690Y62144320D02*
X-11846880Y62012380D01*
X-12040130Y61249890D02*
X-12031860Y61086420D01*
X-5648390Y-61087000D02*
X-5672650Y-60928000D01*
X-6617480Y-59776000D02*
X-6764450Y-59722000D01*
X11571200Y60118830D02*
X11766700Y60355660D01*
X-12031860Y61086420D02*
X-12007590Y60927650D01*
X-11571220Y62381180D02*
X-11766690Y62144320D01*
X-12007590Y61572220D02*
X-12031860Y61413400D01*
X-15240000Y64250000D02*
X15240000Y64250000D01*
X11062600Y59775780D02*
X11202400Y59843200D01*
X-10915560Y59721940D02*
X-10762260Y59682490D01*
X-5765920Y61872510D02*
X-5833320Y62012380D01*
X11968100Y61725520D02*
X11914300Y61872510D01*
X5913500Y60355660D02*
X6108900Y60118830D01*
X-10603440Y-62842000D02*
X-10439930Y-62850000D01*
X10762300Y62817560D02*
X10603400Y62841820D01*
X-6108900Y-60119000D02*
X-6345710Y-59923000D01*
X-11062550Y-59776000D02*
X-11202420Y-59843000D01*
X-6345710Y59923380D02*
X-6108900Y60118830D01*
X11334400Y-62577000D02*
X11571200Y-62381000D01*
X-5712090Y60774380D02*
X-5672650Y60927650D01*
X12040100Y-61250000D02*
X12040100Y-61250000D01*
X-10439930Y-62850000D02*
X-7240060Y-62850000D01*
X-5672650Y-60928000D02*
X-5712090Y-60774000D01*
X12040100Y61249890D02*
X12040100Y61249890D01*
X-5913480Y62144320D02*
X-6108900Y62381180D01*
X-11334360Y59923380D02*
X-11202420Y59843200D01*
X5640100Y61249890D02*
X5648400Y61086420D01*
X-11846880Y62012380D02*
X-11914300Y61872510D01*
X-6108900Y-62381000D02*
X-5913480Y-62144000D01*
X10439900Y-59650000D02*
X7240100Y-59650000D01*
X11571200Y-62381000D02*
X11766700Y-62144000D01*
X-6764450Y62778100D02*
X-6917740Y62817560D01*
X11968100Y-60774000D02*
X11914300Y-60627000D01*
X5712100Y60774380D02*
X5765900Y60627420D01*
X6477600Y-62657000D02*
X6617500Y-62724000D01*
X7076500Y59658220D02*
X7240100Y59649950D01*
X5833300Y-60488000D02*
X5765900Y-60627000D01*
X10762300Y-62817000D02*
X10915600Y-62778000D01*
X11062600Y-59776000D02*
X10915600Y-59722000D01*
X7076500Y-62842000D02*
X7240100Y-62850000D01*
X5712100Y61725520D02*
X5672600Y61572220D01*
X6917700Y-62817000D02*
X7076500Y-62842000D01*
X12031900Y61413400D02*
X12007600Y61572220D01*
X-6917740Y-62817000D02*
X-6764450Y-62778000D01*
X-10603440Y62841820D02*
X-10762260Y62817560D01*
X10603400Y-62842000D02*
X10762300Y-62817000D01*
X-6617480Y62724260D02*
X-6764450Y62778100D01*
X11846900Y62012380D02*
X11766700Y62144320D01*
X-11571220Y60118830D02*
X-11334360Y59923380D01*
X-6617480Y-62724000D02*
X-6477630Y-62657000D01*
X12040100Y61249890D02*
X12031900Y61413400D01*
X6917700Y59682490D02*
X7076500Y59658220D01*
X-6345710Y-59923000D02*
X-6477630Y-59843000D01*
X-7076550Y62841820D02*
X-7240060Y62850090D01*
X-10439930Y59649950D02*
X-7240060Y59649950D01*
X10439900Y62850090D02*
X7240100Y62850090D01*
X-11914300Y-61873000D02*
X-11846880Y-62012000D01*
X-10762260Y-59682000D02*
X-10915560Y-59722000D01*
X-15240000Y64250000D02*
X-15240000Y64250000D01*
X-6477630Y-62657000D02*
X-6345710Y-62577000D01*
X6108900Y60118830D02*
X6345700Y59923380D01*
M02*
