%TF.GenerationSoftware,KiCad,Pcbnew,(6.0.9)*%
%TF.CreationDate,2022-12-27T03:42:47-08:00*%
%TF.ProjectId,panel_pcb,70616e65-6c5f-4706-9362-2e6b69636164,rev?*%
%TF.SameCoordinates,Original*%
%TF.FileFunction,Drillmap*%
%TF.FilePolarity,Positive*%
%FSLAX45Y45*%
G04 Gerber Fmt 4.5, Leading zero omitted, Abs format (unit mm)*
G04 Created by KiCad (PCBNEW (6.0.9)) date 2022-12-27 03:42:47*
%MOMM*%
%LPD*%
G01*
G04 APERTURE LIST*
%ADD10C,0.100000*%
%ADD11C,0.200000*%
%ADD12C,0.319987*%
%ADD13C,0.610023*%
%ADD14C,0.700000*%
%ADD15C,0.749987*%
G04 APERTURE END LIST*
D10*
X-691774Y5968249D02*
X-676445Y5972194D01*
X634570Y5992338D02*
X647760Y5984320D01*
X-1203186Y-6141400D02*
X-1200759Y-6157200D01*
X-676445Y-5972200D02*
X-691774Y-5968200D01*
X-1524000Y-6425000D02*
X-1524000Y6425000D01*
X-1060344Y5965822D02*
X-1043993Y5964995D01*
X-1076226Y5968249D02*
X-1060344Y5965822D01*
X567260Y-6092800D02*
X564840Y-6108700D01*
X724010Y-5965000D02*
X707650Y-5965800D01*
X1091560Y5972194D02*
X1106260Y5977578D01*
X1200760Y6092765D02*
X1203190Y6108642D01*
X-1191430Y6187251D02*
X-1196814Y6172552D01*
X-1133436Y6257665D02*
X-1157122Y6238118D01*
X1176670Y-6214400D02*
X1184690Y-6201200D01*
X-564012Y6124989D02*
X-564012Y6124989D01*
X-1106255Y5977578D02*
X-1091556Y5972194D01*
X-1184688Y6048758D02*
X-1176669Y6035566D01*
X583330Y6201238D02*
X576590Y6187251D01*
X1120240Y-5984300D02*
X1106260Y-5977600D01*
X1157120Y-6011900D02*
X1133440Y-5992300D01*
X-576592Y6062742D02*
X-571209Y6077438D01*
X1200760Y6157222D02*
X1196810Y6172552D01*
X1176670Y-6035600D02*
X1157120Y-6011900D01*
X-1184688Y-6048800D02*
X-1191430Y-6062700D01*
X661750Y6272426D02*
X647760Y6265684D01*
X-691774Y-5968200D02*
X-707655Y-5965800D01*
X-707655Y5965822D02*
X-691774Y5968249D01*
X1524000Y-6425000D02*
X-1524000Y-6425000D01*
X-676445Y5972194D02*
X-661748Y5977578D01*
X-576592Y-6062700D02*
X-583332Y-6048800D01*
X-571209Y-6077400D02*
X-576592Y-6062700D01*
X-564839Y-6141400D02*
X-564012Y-6125000D01*
X591350Y6214432D02*
X583330Y6201238D01*
X1060340Y-5965800D02*
X1043990Y-5965000D01*
X-564012Y-6125000D02*
X-564012Y-6125000D01*
X-591348Y6035566D02*
X-583332Y6048758D01*
X-724006Y-6285000D02*
X-707655Y-6284200D01*
X-1120242Y5984320D02*
X-1106255Y5977578D01*
X1200760Y-6157200D02*
X1203190Y-6141400D01*
X-1200759Y-6092800D02*
X-1203186Y-6108700D01*
X1176670Y6035566D02*
X1184690Y6048758D01*
X-1203186Y6141340D02*
X-1204013Y6124989D01*
X-1091556Y-6277800D02*
X-1076226Y-6281700D01*
X-1120242Y-5984300D02*
X-1133436Y-5992300D01*
X647760Y6265684D02*
X634570Y6257665D01*
X-1200759Y6092765D02*
X-1196814Y6077438D01*
X567260Y-6157200D02*
X571210Y-6172600D01*
X-564839Y6108642D02*
X-564012Y6124989D01*
X-583332Y6201238D02*
X-591348Y6214432D01*
X-564012Y-6125000D02*
X-564839Y-6108700D01*
X-610890Y6011883D02*
X-591348Y6035566D01*
X-691774Y6281756D02*
X-707655Y6284182D01*
X1191430Y-6187300D02*
X1196810Y-6172600D01*
X-1076226Y6281756D02*
X-1091556Y6277810D01*
X576590Y6062742D02*
X583330Y6048758D01*
X1106260Y6272426D02*
X1091560Y6277810D01*
X-564012Y6124989D02*
X-564012Y6124989D01*
X1076230Y5968249D02*
X1091560Y5972194D01*
X1204010Y-6125000D02*
X1204010Y-6125000D01*
X-1157122Y-6011900D02*
X-1176669Y-6035600D01*
X1091560Y6277810D02*
X1076230Y6281756D01*
X-1133436Y-6257700D02*
X-1120242Y-6265700D01*
X-1203186Y-6108700D02*
X-1204013Y-6125000D01*
X1184690Y-6048800D02*
X1176670Y-6035600D01*
X-564012Y-6125000D02*
X-564012Y-6125000D01*
X647760Y-5984300D02*
X634570Y-5992300D01*
X724010Y5964995D02*
X1043990Y5964995D01*
X1060340Y5965822D02*
X1076230Y5968249D01*
X1091560Y-5972200D02*
X1076230Y-5968200D01*
X591350Y-6035600D02*
X583330Y-6048800D01*
X634570Y-5992300D02*
X610890Y-6011900D01*
X-1200759Y-6157200D02*
X-1196814Y-6172600D01*
X-567265Y6092765D02*
X-564839Y6108642D01*
X676440Y5972194D02*
X691770Y5968249D01*
X-1091556Y6277810D02*
X-1106255Y6272426D01*
X1184690Y-6201200D02*
X1191430Y-6187300D01*
X661750Y-6272400D02*
X676440Y-6277800D01*
X571210Y-6172600D02*
X576590Y-6187300D01*
X-1191430Y6062742D02*
X-1184688Y6048758D01*
X-1176669Y-6035600D02*
X-1184688Y-6048800D01*
X676440Y-5972200D02*
X661750Y-5977600D01*
X-724006Y5964995D02*
X-707655Y5965822D01*
X564840Y6108642D02*
X567260Y6092765D01*
X1191430Y6062742D02*
X1196810Y6077438D01*
X1091560Y-6277800D02*
X1106260Y-6272400D01*
X1060340Y6284182D02*
X1043990Y6285009D01*
X691770Y-5968200D02*
X676440Y-5972200D01*
X676440Y-6277800D02*
X691770Y-6281700D01*
X647760Y5984320D02*
X661750Y5977578D01*
X564840Y-6108700D02*
X564010Y-6125000D01*
X-1106255Y-6272400D02*
X-1091556Y-6277800D01*
X-1076226Y-6281700D02*
X-1060344Y-6284200D01*
X724010Y-6285000D02*
X1043990Y-6285000D01*
X564840Y-6141400D02*
X567260Y-6157200D01*
X-1176669Y-6214400D02*
X-1157122Y-6238100D01*
X1043990Y-6285000D02*
X1060340Y-6284200D01*
X-1204013Y-6125000D02*
X-1203186Y-6141400D01*
X-567265Y-6157200D02*
X-564839Y-6141400D01*
X1200760Y-6092800D02*
X1196810Y-6077400D01*
X-564012Y6124989D02*
X-564839Y6141340D01*
X-1120242Y-6265700D02*
X-1106255Y-6272400D01*
X-576592Y-6187300D02*
X-571209Y-6172600D01*
X1120240Y5984320D02*
X1133440Y5992338D01*
X-583332Y-6201200D02*
X-576592Y-6187300D01*
X567260Y6092765D02*
X571210Y6077438D01*
X-1120242Y6265684D02*
X-1133436Y6257665D01*
X583330Y6048758D02*
X591350Y6035566D01*
X1204010Y6124989D02*
X1204010Y6124989D01*
X1133440Y6257665D02*
X1120240Y6265684D01*
X576590Y6187251D02*
X571210Y6172552D01*
X-1043993Y6285009D02*
X-1060344Y6284182D01*
X691770Y6281756D02*
X676440Y6277810D01*
X-1196814Y-6172600D02*
X-1191430Y-6187300D01*
X-647763Y-5984300D02*
X-661748Y-5977600D01*
X-724006Y6285009D02*
X-1043993Y6285009D01*
X1203190Y-6141400D02*
X1204010Y-6125000D01*
X-647763Y5984320D02*
X-634571Y5992338D01*
X634570Y-6257700D02*
X647760Y-6265700D01*
X-1133436Y-5992300D02*
X-1157122Y-6011900D01*
X591350Y-6214400D02*
X610890Y-6238100D01*
X576590Y-6187300D02*
X583330Y-6201200D01*
X-591348Y-6214400D02*
X-583332Y-6201200D01*
X567260Y6157222D02*
X564840Y6141340D01*
X564840Y6141340D02*
X564010Y6124989D01*
X-1157122Y-6238100D02*
X-1133436Y-6257700D01*
X724010Y6285009D02*
X707650Y6284182D01*
X-647763Y6265684D02*
X-661748Y6272426D01*
X661750Y-5977600D02*
X647760Y-5984300D01*
X571210Y-6077400D02*
X567260Y-6092800D01*
X1196810Y6077438D02*
X1200760Y6092765D01*
X-1196814Y6172552D02*
X-1200759Y6157222D01*
X676440Y6277810D02*
X661750Y6272426D01*
X707650Y-5965800D02*
X691770Y-5968200D01*
X1184690Y6048758D02*
X1191430Y6062742D01*
X576590Y-6062700D02*
X571210Y-6077400D01*
X1204010Y-6125000D02*
X1203190Y-6108700D01*
X1120240Y6265684D02*
X1106260Y6272426D01*
X-1060344Y-5965800D02*
X-1076226Y-5968200D01*
X-661748Y5977578D02*
X-647763Y5984320D01*
X-571209Y-6172600D02*
X-567265Y-6157200D01*
X1120240Y-6265700D02*
X1133440Y-6257700D01*
X1191430Y6187251D02*
X1184690Y6201238D01*
X1106260Y-6272400D02*
X1120240Y-6265700D01*
X634570Y6257665D02*
X610890Y6238118D01*
X-583332Y-6048800D02*
X-591348Y-6035600D01*
X564010Y-6125000D02*
X564840Y-6141400D01*
X-1196814Y-6077400D02*
X-1200759Y-6092800D01*
X-724006Y-5965000D02*
X-1043993Y-5965000D01*
X1076230Y-5968200D02*
X1060340Y-5965800D01*
X1043990Y5964995D02*
X1060340Y5965822D01*
X661750Y5977578D02*
X676440Y5972194D01*
X1133440Y-5992300D02*
X1120240Y-5984300D01*
X610890Y6238118D02*
X591350Y6214432D01*
X-707655Y-6284200D02*
X-691774Y-6281700D01*
X583330Y-6201200D02*
X591350Y-6214400D01*
X-583332Y6048758D02*
X-576592Y6062742D01*
X-1091556Y-5972200D02*
X-1106255Y-5977600D01*
X-571209Y6172552D02*
X-576592Y6187251D01*
X-1191430Y-6062700D02*
X-1196814Y-6077400D01*
X-1106255Y6272426D02*
X-1120242Y6265684D01*
X1133440Y5992338D02*
X1157120Y6011883D01*
X707650Y6284182D02*
X691770Y6281756D01*
X-567265Y6157222D02*
X-571209Y6172552D01*
X-1043993Y-5965000D02*
X-1060344Y-5965800D01*
X-676445Y-6277800D02*
X-661748Y-6272400D01*
X-634571Y-6257700D02*
X-610890Y-6238100D01*
X-610890Y6238118D02*
X-634571Y6257665D01*
X-634571Y6257665D02*
X-647763Y6265684D01*
X1157120Y6238118D02*
X1133440Y6257665D01*
X1524000Y6425000D02*
X1524000Y-6425000D01*
X-707655Y-5965800D02*
X-724006Y-5965000D01*
X-564839Y6141340D02*
X-567265Y6157222D01*
X610890Y-6011900D02*
X591350Y-6035600D01*
X1176670Y6214432D02*
X1157120Y6238118D01*
X1196810Y-6172600D02*
X1200760Y-6157200D01*
X-591348Y-6035600D02*
X-610890Y-6011900D01*
X-1196814Y6077438D02*
X-1191430Y6062742D01*
X-1176669Y6035566D02*
X-1157122Y6011883D01*
X1191430Y-6062700D02*
X1184690Y-6048800D01*
X1203190Y-6108700D02*
X1200760Y-6092800D01*
X-1184688Y-6201200D02*
X-1176669Y-6214400D01*
X1203190Y6108642D02*
X1204010Y6124989D01*
X610890Y-6238100D02*
X634570Y-6257700D01*
X-1176669Y6214432D02*
X-1184688Y6201238D01*
X-1204013Y6124989D02*
X-1203186Y6108642D01*
X-564839Y-6108700D02*
X-567265Y-6092800D01*
X-661748Y-5977600D02*
X-676445Y-5972200D01*
X1157120Y6011883D02*
X1176670Y6035566D01*
X-1203186Y6108642D02*
X-1200759Y6092765D01*
X-1157122Y6238118D02*
X-1176669Y6214432D01*
X-1200759Y6157222D02*
X-1203186Y6141340D01*
X-1524000Y6425000D02*
X1524000Y6425000D01*
X1106260Y5977578D02*
X1120240Y5984320D01*
X-1091556Y5972194D02*
X-1076226Y5968249D01*
X-576592Y6187251D02*
X-583332Y6201238D01*
X1196810Y6172552D02*
X1191430Y6187251D01*
X591350Y6035566D02*
X610890Y6011883D01*
X-1060344Y-6284200D02*
X-1043993Y-6285000D01*
X1076230Y6281756D02*
X1060340Y6284182D01*
X-610890Y-6011900D02*
X-634571Y-5992300D01*
X-1106255Y-5977600D02*
X-1120242Y-5984300D01*
X-634571Y5992338D02*
X-610890Y6011883D01*
X1133440Y-6257700D02*
X1157120Y-6238100D01*
X-571209Y6077438D02*
X-567265Y6092765D01*
X1204010Y-6125000D02*
X1204010Y-6125000D01*
X-1043993Y-6285000D02*
X-724006Y-6285000D01*
X-567265Y-6092800D02*
X-571209Y-6077400D01*
X1204010Y6124989D02*
X1204010Y6124989D01*
X-591348Y6214432D02*
X-610890Y6238118D01*
X-1133436Y5992338D02*
X-1120242Y5984320D01*
X564010Y6124989D02*
X564840Y6108642D01*
X-1184688Y6201238D02*
X-1191430Y6187251D01*
X-610890Y-6238100D02*
X-591348Y-6214400D01*
X1043990Y-5965000D02*
X724010Y-5965000D01*
X1157120Y-6238100D02*
X1176670Y-6214400D01*
X-676445Y6277810D02*
X-691774Y6281756D01*
X1196810Y-6077400D02*
X1191430Y-6062700D01*
X571210Y6077438D02*
X576590Y6062742D01*
X647760Y-6265700D02*
X661750Y-6272400D01*
X707650Y5965822D02*
X724010Y5964995D01*
X583330Y-6048800D02*
X576590Y-6062700D01*
X1076230Y-6281700D02*
X1091560Y-6277800D01*
X1106260Y-5977600D02*
X1091560Y-5972200D01*
X707650Y-6284200D02*
X724010Y-6285000D01*
X571210Y6172552D02*
X567260Y6157222D01*
X691770Y-6281700D02*
X707650Y-6284200D01*
X1203190Y6141340D02*
X1200760Y6157222D01*
X-691774Y-6281700D02*
X-676445Y-6277800D01*
X-1060344Y6284182D02*
X-1076226Y6281756D01*
X1060340Y-6284200D02*
X1076230Y-6281700D01*
X-661748Y6272426D02*
X-676445Y6277810D01*
X1184690Y6201238D02*
X1176670Y6214432D01*
X-1157122Y6011883D02*
X-1133436Y5992338D01*
X-661748Y-6272400D02*
X-647763Y-6265700D01*
X1204010Y6124989D02*
X1203190Y6141340D01*
X691770Y5968249D02*
X707650Y5965822D01*
X-634571Y-5992300D02*
X-647763Y-5984300D01*
X-707655Y6284182D02*
X-724006Y6285009D01*
X-1043993Y5964995D02*
X-724006Y5964995D01*
X1043990Y6285009D02*
X724010Y6285009D01*
X-1191430Y-6187300D02*
X-1184688Y-6201200D01*
X-1076226Y-5968200D02*
X-1091556Y-5972200D01*
X-1524000Y6425000D02*
X-1524000Y6425000D01*
X-647763Y-6265700D02*
X-634571Y-6257700D01*
X610890Y6011883D02*
X634570Y5992338D01*
D11*
D12*
X-160020Y-3138127D02*
X159967Y-3458114D01*
X159967Y-3138127D02*
X-160020Y-3458114D01*
X-160020Y-4154337D02*
X159967Y-4474325D01*
X159967Y-4154337D02*
X-160020Y-4474325D01*
X-159994Y3536993D02*
X159994Y3217006D01*
X159994Y3536993D02*
X-159994Y3217006D01*
X-159994Y899548D02*
X159994Y579561D01*
X159994Y899548D02*
X-159994Y579561D01*
X-159994Y-2122179D02*
X159994Y-2442166D01*
X159994Y-2122179D02*
X-159994Y-2442166D01*
X-159967Y-5171847D02*
X160020Y-5491834D01*
X160020Y-5171847D02*
X-159967Y-5491834D01*
D13*
X-583988Y-4065200D02*
G75*
G03*
X-583988Y-4065200I-305012J0D01*
G01*
X-583988Y-5082708D02*
G75*
G03*
X-583988Y-5082708I-305012J0D01*
G01*
X1193006Y2188995D02*
G75*
G03*
X1193006Y2188995I-305012J0D01*
G01*
X1193006Y739554D02*
G75*
G03*
X1193006Y739554I-305012J0D01*
G01*
X1193006Y-614001D02*
G75*
G03*
X1193006Y-614001I-305012J0D01*
G01*
X1193006Y-2032988D02*
G75*
G03*
X1193006Y-2032988I-305012J0D01*
G01*
X1193006Y-3049200D02*
G75*
G03*
X1193006Y-3049200I-305012J0D01*
G01*
X1193006Y-4065411D02*
G75*
G03*
X1193006Y-4065411I-305012J0D01*
G01*
X1193006Y-5082708D02*
G75*
G03*
X1193006Y-5082708I-305012J0D01*
G01*
D14*
X-889000Y-2221000D02*
X-889000Y-2921000D01*
X-1239000Y-2571000D02*
X-539000Y-2571000D01*
X888000Y3697000D02*
X888000Y2997000D01*
X538000Y3347000D02*
X1238000Y3347000D01*
D15*
X-369837Y1923831D02*
X-369837Y2454158D01*
X-900163Y2454158D01*
X-900163Y1923831D01*
X-369837Y1923831D01*
X-369837Y-879164D02*
X-369837Y-348837D01*
X-900163Y-348837D01*
X-900163Y-879164D01*
X-369837Y-879164D01*
X265163Y4603849D02*
X265163Y5134175D01*
X-265163Y5134175D01*
X-265163Y4603849D01*
X265163Y4603849D01*
D11*
X-1271381Y-6740476D02*
X-1271381Y-6540476D01*
X-1223762Y-6540476D01*
X-1195190Y-6550000D01*
X-1176143Y-6569048D01*
X-1166619Y-6588095D01*
X-1157095Y-6626190D01*
X-1157095Y-6654762D01*
X-1166619Y-6692857D01*
X-1176143Y-6711905D01*
X-1195190Y-6730952D01*
X-1223762Y-6740476D01*
X-1271381Y-6740476D01*
X-1071381Y-6740476D02*
X-1071381Y-6607143D01*
X-1071381Y-6645238D02*
X-1061857Y-6626190D01*
X-1052333Y-6616667D01*
X-1033286Y-6607143D01*
X-1014238Y-6607143D01*
X-947571Y-6740476D02*
X-947571Y-6607143D01*
X-947571Y-6540476D02*
X-957095Y-6550000D01*
X-947571Y-6559524D01*
X-938048Y-6550000D01*
X-947571Y-6540476D01*
X-947571Y-6559524D01*
X-823762Y-6740476D02*
X-842809Y-6730952D01*
X-852333Y-6711905D01*
X-852333Y-6540476D01*
X-719000Y-6740476D02*
X-738048Y-6730952D01*
X-747571Y-6711905D01*
X-747571Y-6540476D01*
X-490428Y-6740476D02*
X-490428Y-6540476D01*
X-423762Y-6683333D01*
X-357095Y-6540476D01*
X-357095Y-6740476D01*
X-176143Y-6740476D02*
X-176143Y-6635714D01*
X-185667Y-6616667D01*
X-204714Y-6607143D01*
X-242809Y-6607143D01*
X-261857Y-6616667D01*
X-176143Y-6730952D02*
X-195190Y-6740476D01*
X-242809Y-6740476D01*
X-261857Y-6730952D01*
X-271381Y-6711905D01*
X-271381Y-6692857D01*
X-261857Y-6673809D01*
X-242809Y-6664286D01*
X-195190Y-6664286D01*
X-176143Y-6654762D01*
X-80905Y-6607143D02*
X-80905Y-6807143D01*
X-80905Y-6616667D02*
X-61857Y-6607143D01*
X-23762Y-6607143D01*
X-4714Y-6616667D01*
X4810Y-6626190D01*
X14333Y-6645238D01*
X14333Y-6702381D01*
X4810Y-6721428D01*
X-4714Y-6730952D01*
X-23762Y-6740476D01*
X-61857Y-6740476D01*
X-80905Y-6730952D01*
X100048Y-6721428D02*
X109571Y-6730952D01*
X100048Y-6740476D01*
X90524Y-6730952D01*
X100048Y-6721428D01*
X100048Y-6740476D01*
X100048Y-6616667D02*
X109571Y-6626190D01*
X100048Y-6635714D01*
X90524Y-6626190D01*
X100048Y-6616667D01*
X100048Y-6635714D01*
X-1729000Y-6970000D02*
X-1529000Y-7170000D01*
X-1529000Y-6970000D02*
X-1729000Y-7170000D01*
X-1290429Y-6960476D02*
X-1166619Y-6960476D01*
X-1233286Y-7036667D01*
X-1204714Y-7036667D01*
X-1185667Y-7046190D01*
X-1176143Y-7055714D01*
X-1166619Y-7074762D01*
X-1166619Y-7122381D01*
X-1176143Y-7141428D01*
X-1185667Y-7150952D01*
X-1204714Y-7160476D01*
X-1261857Y-7160476D01*
X-1280905Y-7150952D01*
X-1290429Y-7141428D01*
X-1080905Y-7141428D02*
X-1071381Y-7150952D01*
X-1080905Y-7160476D01*
X-1090429Y-7150952D01*
X-1080905Y-7141428D01*
X-1080905Y-7160476D01*
X-995190Y-6979524D02*
X-985667Y-6970000D01*
X-966619Y-6960476D01*
X-919000Y-6960476D01*
X-899952Y-6970000D01*
X-890428Y-6979524D01*
X-880905Y-6998571D01*
X-880905Y-7017619D01*
X-890428Y-7046190D01*
X-1004714Y-7160476D01*
X-880905Y-7160476D01*
X-757095Y-6960476D02*
X-738048Y-6960476D01*
X-719000Y-6970000D01*
X-709476Y-6979524D01*
X-699952Y-6998571D01*
X-690429Y-7036667D01*
X-690429Y-7084286D01*
X-699952Y-7122381D01*
X-709476Y-7141428D01*
X-719000Y-7150952D01*
X-738048Y-7160476D01*
X-757095Y-7160476D01*
X-776143Y-7150952D01*
X-785667Y-7141428D01*
X-795190Y-7122381D01*
X-804714Y-7084286D01*
X-804714Y-7036667D01*
X-795190Y-6998571D01*
X-785667Y-6979524D01*
X-776143Y-6970000D01*
X-757095Y-6960476D01*
X-566619Y-6960476D02*
X-547571Y-6960476D01*
X-528524Y-6970000D01*
X-519000Y-6979524D01*
X-509476Y-6998571D01*
X-499952Y-7036667D01*
X-499952Y-7084286D01*
X-509476Y-7122381D01*
X-519000Y-7141428D01*
X-528524Y-7150952D01*
X-547571Y-7160476D01*
X-566619Y-7160476D01*
X-585667Y-7150952D01*
X-595190Y-7141428D01*
X-604714Y-7122381D01*
X-614238Y-7084286D01*
X-614238Y-7036667D01*
X-604714Y-6998571D01*
X-595190Y-6979524D01*
X-585667Y-6970000D01*
X-566619Y-6960476D01*
X-414238Y-7160476D02*
X-414238Y-7027143D01*
X-414238Y-7046190D02*
X-404714Y-7036667D01*
X-385667Y-7027143D01*
X-357095Y-7027143D01*
X-338048Y-7036667D01*
X-328524Y-7055714D01*
X-328524Y-7160476D01*
X-328524Y-7055714D02*
X-319000Y-7036667D01*
X-299952Y-7027143D01*
X-271381Y-7027143D01*
X-252333Y-7036667D01*
X-242809Y-7055714D01*
X-242809Y-7160476D01*
X-147571Y-7160476D02*
X-147571Y-7027143D01*
X-147571Y-7046190D02*
X-138048Y-7036667D01*
X-119000Y-7027143D01*
X-90428Y-7027143D01*
X-71381Y-7036667D01*
X-61857Y-7055714D01*
X-61857Y-7160476D01*
X-61857Y-7055714D02*
X-52333Y-7036667D01*
X-33286Y-7027143D01*
X-4714Y-7027143D01*
X14333Y-7036667D01*
X23857Y-7055714D01*
X23857Y-7160476D01*
X414333Y-6950952D02*
X242905Y-7208095D01*
X671476Y-6960476D02*
X690524Y-6960476D01*
X709571Y-6970000D01*
X719095Y-6979524D01*
X728619Y-6998571D01*
X738143Y-7036667D01*
X738143Y-7084286D01*
X728619Y-7122381D01*
X719095Y-7141428D01*
X709571Y-7150952D01*
X690524Y-7160476D01*
X671476Y-7160476D01*
X652429Y-7150952D01*
X642905Y-7141428D01*
X633381Y-7122381D01*
X623857Y-7084286D01*
X623857Y-7036667D01*
X633381Y-6998571D01*
X642905Y-6979524D01*
X652429Y-6970000D01*
X671476Y-6960476D01*
X823857Y-7141428D02*
X833381Y-7150952D01*
X823857Y-7160476D01*
X814333Y-7150952D01*
X823857Y-7141428D01*
X823857Y-7160476D01*
X1023857Y-7160476D02*
X909571Y-7160476D01*
X966714Y-7160476D02*
X966714Y-6960476D01*
X947667Y-6989048D01*
X928619Y-7008095D01*
X909571Y-7017619D01*
X1100048Y-6979524D02*
X1109571Y-6970000D01*
X1128619Y-6960476D01*
X1176238Y-6960476D01*
X1195286Y-6970000D01*
X1204810Y-6979524D01*
X1214333Y-6998571D01*
X1214333Y-7017619D01*
X1204810Y-7046190D01*
X1090524Y-7160476D01*
X1214333Y-7160476D01*
X1385762Y-6960476D02*
X1347667Y-6960476D01*
X1328619Y-6970000D01*
X1319095Y-6979524D01*
X1300048Y-7008095D01*
X1290524Y-7046190D01*
X1290524Y-7122381D01*
X1300048Y-7141428D01*
X1309571Y-7150952D01*
X1328619Y-7160476D01*
X1366714Y-7160476D01*
X1385762Y-7150952D01*
X1395286Y-7141428D01*
X1404809Y-7122381D01*
X1404809Y-7074762D01*
X1395286Y-7055714D01*
X1385762Y-7046190D01*
X1366714Y-7036667D01*
X1328619Y-7036667D01*
X1309571Y-7046190D01*
X1300048Y-7055714D01*
X1290524Y-7074762D01*
X1528619Y-6960476D02*
X1547667Y-6960476D01*
X1566714Y-6970000D01*
X1576238Y-6979524D01*
X1585762Y-6998571D01*
X1595286Y-7036667D01*
X1595286Y-7084286D01*
X1585762Y-7122381D01*
X1576238Y-7141428D01*
X1566714Y-7150952D01*
X1547667Y-7160476D01*
X1528619Y-7160476D01*
X1509571Y-7150952D01*
X1500048Y-7141428D01*
X1490524Y-7122381D01*
X1481000Y-7084286D01*
X1481000Y-7036667D01*
X1490524Y-6998571D01*
X1500048Y-6979524D01*
X1509571Y-6970000D01*
X1528619Y-6960476D01*
X1671476Y-6960476D02*
X1671476Y-6998571D01*
X1747667Y-6960476D02*
X1747667Y-6998571D01*
X2042905Y-7236667D02*
X2033381Y-7227143D01*
X2014333Y-7198571D01*
X2004809Y-7179524D01*
X1995286Y-7150952D01*
X1985762Y-7103333D01*
X1985762Y-7065238D01*
X1995286Y-7017619D01*
X2004809Y-6989048D01*
X2014333Y-6970000D01*
X2033381Y-6941428D01*
X2042905Y-6931905D01*
X2204810Y-6960476D02*
X2166714Y-6960476D01*
X2147667Y-6970000D01*
X2138143Y-6979524D01*
X2119095Y-7008095D01*
X2109571Y-7046190D01*
X2109571Y-7122381D01*
X2119095Y-7141428D01*
X2128619Y-7150952D01*
X2147667Y-7160476D01*
X2185762Y-7160476D01*
X2204810Y-7150952D01*
X2214333Y-7141428D01*
X2223857Y-7122381D01*
X2223857Y-7074762D01*
X2214333Y-7055714D01*
X2204810Y-7046190D01*
X2185762Y-7036667D01*
X2147667Y-7036667D01*
X2128619Y-7046190D01*
X2119095Y-7055714D01*
X2109571Y-7074762D01*
X2461952Y-7160476D02*
X2461952Y-6960476D01*
X2547667Y-7160476D02*
X2547667Y-7055714D01*
X2538143Y-7036667D01*
X2519095Y-7027143D01*
X2490524Y-7027143D01*
X2471476Y-7036667D01*
X2461952Y-7046190D01*
X2671476Y-7160476D02*
X2652429Y-7150952D01*
X2642905Y-7141428D01*
X2633381Y-7122381D01*
X2633381Y-7065238D01*
X2642905Y-7046190D01*
X2652429Y-7036667D01*
X2671476Y-7027143D01*
X2700048Y-7027143D01*
X2719095Y-7036667D01*
X2728619Y-7046190D01*
X2738143Y-7065238D01*
X2738143Y-7122381D01*
X2728619Y-7141428D01*
X2719095Y-7150952D01*
X2700048Y-7160476D01*
X2671476Y-7160476D01*
X2852428Y-7160476D02*
X2833381Y-7150952D01*
X2823857Y-7131905D01*
X2823857Y-6960476D01*
X3004809Y-7150952D02*
X2985762Y-7160476D01*
X2947667Y-7160476D01*
X2928619Y-7150952D01*
X2919095Y-7131905D01*
X2919095Y-7055714D01*
X2928619Y-7036667D01*
X2947667Y-7027143D01*
X2985762Y-7027143D01*
X3004809Y-7036667D01*
X3014333Y-7055714D01*
X3014333Y-7074762D01*
X2919095Y-7093809D01*
X3090524Y-7150952D02*
X3109571Y-7160476D01*
X3147667Y-7160476D01*
X3166714Y-7150952D01*
X3176238Y-7131905D01*
X3176238Y-7122381D01*
X3166714Y-7103333D01*
X3147667Y-7093809D01*
X3119095Y-7093809D01*
X3100048Y-7084286D01*
X3090524Y-7065238D01*
X3090524Y-7055714D01*
X3100048Y-7036667D01*
X3119095Y-7027143D01*
X3147667Y-7027143D01*
X3166714Y-7036667D01*
X3242905Y-7236667D02*
X3252428Y-7227143D01*
X3271476Y-7198571D01*
X3281000Y-7179524D01*
X3290524Y-7150952D01*
X3300048Y-7103333D01*
X3300048Y-7065238D01*
X3290524Y-7017619D01*
X3281000Y-6989048D01*
X3271476Y-6970000D01*
X3252428Y-6941428D01*
X3242905Y-6931905D01*
X3604809Y-7236667D02*
X3595286Y-7227143D01*
X3576238Y-7198571D01*
X3566714Y-7179524D01*
X3557190Y-7150952D01*
X3547667Y-7103333D01*
X3547667Y-7065238D01*
X3557190Y-7017619D01*
X3566714Y-6989048D01*
X3576238Y-6970000D01*
X3595286Y-6941428D01*
X3604809Y-6931905D01*
X3681000Y-7027143D02*
X3681000Y-7160476D01*
X3681000Y-7046190D02*
X3690524Y-7036667D01*
X3709571Y-7027143D01*
X3738143Y-7027143D01*
X3757190Y-7036667D01*
X3766714Y-7055714D01*
X3766714Y-7160476D01*
X3890524Y-7160476D02*
X3871476Y-7150952D01*
X3861952Y-7141428D01*
X3852428Y-7122381D01*
X3852428Y-7065238D01*
X3861952Y-7046190D01*
X3871476Y-7036667D01*
X3890524Y-7027143D01*
X3919095Y-7027143D01*
X3938143Y-7036667D01*
X3947667Y-7046190D01*
X3957190Y-7065238D01*
X3957190Y-7122381D01*
X3947667Y-7141428D01*
X3938143Y-7150952D01*
X3919095Y-7160476D01*
X3890524Y-7160476D01*
X4014333Y-7027143D02*
X4090524Y-7027143D01*
X4042905Y-6960476D02*
X4042905Y-7131905D01*
X4052428Y-7150952D01*
X4071476Y-7160476D01*
X4090524Y-7160476D01*
X4309571Y-7027143D02*
X4309571Y-7227143D01*
X4309571Y-7036667D02*
X4328619Y-7027143D01*
X4366714Y-7027143D01*
X4385762Y-7036667D01*
X4395286Y-7046190D01*
X4404810Y-7065238D01*
X4404810Y-7122381D01*
X4395286Y-7141428D01*
X4385762Y-7150952D01*
X4366714Y-7160476D01*
X4328619Y-7160476D01*
X4309571Y-7150952D01*
X4519095Y-7160476D02*
X4500048Y-7150952D01*
X4490524Y-7131905D01*
X4490524Y-6960476D01*
X4681000Y-7160476D02*
X4681000Y-7055714D01*
X4671476Y-7036667D01*
X4652429Y-7027143D01*
X4614333Y-7027143D01*
X4595286Y-7036667D01*
X4681000Y-7150952D02*
X4661952Y-7160476D01*
X4614333Y-7160476D01*
X4595286Y-7150952D01*
X4585762Y-7131905D01*
X4585762Y-7112857D01*
X4595286Y-7093809D01*
X4614333Y-7084286D01*
X4661952Y-7084286D01*
X4681000Y-7074762D01*
X4747667Y-7027143D02*
X4823857Y-7027143D01*
X4776238Y-6960476D02*
X4776238Y-7131905D01*
X4785762Y-7150952D01*
X4804810Y-7160476D01*
X4823857Y-7160476D01*
X4966714Y-7150952D02*
X4947667Y-7160476D01*
X4909571Y-7160476D01*
X4890524Y-7150952D01*
X4881000Y-7131905D01*
X4881000Y-7055714D01*
X4890524Y-7036667D01*
X4909571Y-7027143D01*
X4947667Y-7027143D01*
X4966714Y-7036667D01*
X4976238Y-7055714D01*
X4976238Y-7074762D01*
X4881000Y-7093809D01*
X5147667Y-7160476D02*
X5147667Y-6960476D01*
X5147667Y-7150952D02*
X5128619Y-7160476D01*
X5090524Y-7160476D01*
X5071476Y-7150952D01*
X5061952Y-7141428D01*
X5052429Y-7122381D01*
X5052429Y-7065238D01*
X5061952Y-7046190D01*
X5071476Y-7036667D01*
X5090524Y-7027143D01*
X5128619Y-7027143D01*
X5147667Y-7036667D01*
X5223857Y-7236667D02*
X5233381Y-7227143D01*
X5252429Y-7198571D01*
X5261952Y-7179524D01*
X5271476Y-7150952D01*
X5281000Y-7103333D01*
X5281000Y-7065238D01*
X5271476Y-7017619D01*
X5261952Y-6989048D01*
X5252429Y-6970000D01*
X5233381Y-6941428D01*
X5223857Y-6931905D01*
X-1529000Y-7390000D02*
G75*
G03*
X-1529000Y-7390000I-100000J0D01*
G01*
X-1185667Y-7280476D02*
X-1223762Y-7280476D01*
X-1242810Y-7290000D01*
X-1252333Y-7299524D01*
X-1271381Y-7328095D01*
X-1280905Y-7366190D01*
X-1280905Y-7442381D01*
X-1271381Y-7461428D01*
X-1261857Y-7470952D01*
X-1242810Y-7480476D01*
X-1204714Y-7480476D01*
X-1185667Y-7470952D01*
X-1176143Y-7461428D01*
X-1166619Y-7442381D01*
X-1166619Y-7394762D01*
X-1176143Y-7375714D01*
X-1185667Y-7366190D01*
X-1204714Y-7356667D01*
X-1242810Y-7356667D01*
X-1261857Y-7366190D01*
X-1271381Y-7375714D01*
X-1280905Y-7394762D01*
X-1080905Y-7461428D02*
X-1071381Y-7470952D01*
X-1080905Y-7480476D01*
X-1090429Y-7470952D01*
X-1080905Y-7461428D01*
X-1080905Y-7480476D01*
X-880905Y-7480476D02*
X-995190Y-7480476D01*
X-938048Y-7480476D02*
X-938048Y-7280476D01*
X-957095Y-7309048D01*
X-976143Y-7328095D01*
X-995190Y-7337619D01*
X-757095Y-7280476D02*
X-738048Y-7280476D01*
X-719000Y-7290000D01*
X-709476Y-7299524D01*
X-699952Y-7318571D01*
X-690429Y-7356667D01*
X-690429Y-7404286D01*
X-699952Y-7442381D01*
X-709476Y-7461428D01*
X-719000Y-7470952D01*
X-738048Y-7480476D01*
X-757095Y-7480476D01*
X-776143Y-7470952D01*
X-785667Y-7461428D01*
X-795190Y-7442381D01*
X-804714Y-7404286D01*
X-804714Y-7356667D01*
X-795190Y-7318571D01*
X-785667Y-7299524D01*
X-776143Y-7290000D01*
X-757095Y-7280476D01*
X-566619Y-7280476D02*
X-547571Y-7280476D01*
X-528524Y-7290000D01*
X-519000Y-7299524D01*
X-509476Y-7318571D01*
X-499952Y-7356667D01*
X-499952Y-7404286D01*
X-509476Y-7442381D01*
X-519000Y-7461428D01*
X-528524Y-7470952D01*
X-547571Y-7480476D01*
X-566619Y-7480476D01*
X-585667Y-7470952D01*
X-595190Y-7461428D01*
X-604714Y-7442381D01*
X-614238Y-7404286D01*
X-614238Y-7356667D01*
X-604714Y-7318571D01*
X-595190Y-7299524D01*
X-585667Y-7290000D01*
X-566619Y-7280476D01*
X-414238Y-7480476D02*
X-414238Y-7347143D01*
X-414238Y-7366190D02*
X-404714Y-7356667D01*
X-385667Y-7347143D01*
X-357095Y-7347143D01*
X-338048Y-7356667D01*
X-328524Y-7375714D01*
X-328524Y-7480476D01*
X-328524Y-7375714D02*
X-319000Y-7356667D01*
X-299952Y-7347143D01*
X-271381Y-7347143D01*
X-252333Y-7356667D01*
X-242809Y-7375714D01*
X-242809Y-7480476D01*
X-147571Y-7480476D02*
X-147571Y-7347143D01*
X-147571Y-7366190D02*
X-138048Y-7356667D01*
X-119000Y-7347143D01*
X-90428Y-7347143D01*
X-71381Y-7356667D01*
X-61857Y-7375714D01*
X-61857Y-7480476D01*
X-61857Y-7375714D02*
X-52333Y-7356667D01*
X-33286Y-7347143D01*
X-4714Y-7347143D01*
X14333Y-7356667D01*
X23857Y-7375714D01*
X23857Y-7480476D01*
X414333Y-7270952D02*
X242905Y-7528095D01*
X671476Y-7280476D02*
X690524Y-7280476D01*
X709571Y-7290000D01*
X719095Y-7299524D01*
X728619Y-7318571D01*
X738143Y-7356667D01*
X738143Y-7404286D01*
X728619Y-7442381D01*
X719095Y-7461428D01*
X709571Y-7470952D01*
X690524Y-7480476D01*
X671476Y-7480476D01*
X652429Y-7470952D01*
X642905Y-7461428D01*
X633381Y-7442381D01*
X623857Y-7404286D01*
X623857Y-7356667D01*
X633381Y-7318571D01*
X642905Y-7299524D01*
X652429Y-7290000D01*
X671476Y-7280476D01*
X823857Y-7461428D02*
X833381Y-7470952D01*
X823857Y-7480476D01*
X814333Y-7470952D01*
X823857Y-7461428D01*
X823857Y-7480476D01*
X909571Y-7299524D02*
X919095Y-7290000D01*
X938143Y-7280476D01*
X985762Y-7280476D01*
X1004809Y-7290000D01*
X1014333Y-7299524D01*
X1023857Y-7318571D01*
X1023857Y-7337619D01*
X1014333Y-7366190D01*
X900048Y-7480476D01*
X1023857Y-7480476D01*
X1195286Y-7347143D02*
X1195286Y-7480476D01*
X1147667Y-7270952D02*
X1100048Y-7413809D01*
X1223857Y-7413809D01*
X1338143Y-7280476D02*
X1357190Y-7280476D01*
X1376238Y-7290000D01*
X1385762Y-7299524D01*
X1395286Y-7318571D01*
X1404809Y-7356667D01*
X1404809Y-7404286D01*
X1395286Y-7442381D01*
X1385762Y-7461428D01*
X1376238Y-7470952D01*
X1357190Y-7480476D01*
X1338143Y-7480476D01*
X1319095Y-7470952D01*
X1309571Y-7461428D01*
X1300048Y-7442381D01*
X1290524Y-7404286D01*
X1290524Y-7356667D01*
X1300048Y-7318571D01*
X1309571Y-7299524D01*
X1319095Y-7290000D01*
X1338143Y-7280476D01*
X1481000Y-7299524D02*
X1490524Y-7290000D01*
X1509571Y-7280476D01*
X1557190Y-7280476D01*
X1576238Y-7290000D01*
X1585762Y-7299524D01*
X1595286Y-7318571D01*
X1595286Y-7337619D01*
X1585762Y-7366190D01*
X1471476Y-7480476D01*
X1595286Y-7480476D01*
X1671476Y-7280476D02*
X1671476Y-7318571D01*
X1747667Y-7280476D02*
X1747667Y-7318571D01*
X2042905Y-7556667D02*
X2033381Y-7547143D01*
X2014333Y-7518571D01*
X2004809Y-7499524D01*
X1995286Y-7470952D01*
X1985762Y-7423333D01*
X1985762Y-7385238D01*
X1995286Y-7337619D01*
X2004809Y-7309048D01*
X2014333Y-7290000D01*
X2033381Y-7261428D01*
X2042905Y-7251905D01*
X2128619Y-7480476D02*
X2166714Y-7480476D01*
X2185762Y-7470952D01*
X2195286Y-7461428D01*
X2214333Y-7432857D01*
X2223857Y-7394762D01*
X2223857Y-7318571D01*
X2214333Y-7299524D01*
X2204810Y-7290000D01*
X2185762Y-7280476D01*
X2147667Y-7280476D01*
X2128619Y-7290000D01*
X2119095Y-7299524D01*
X2109571Y-7318571D01*
X2109571Y-7366190D01*
X2119095Y-7385238D01*
X2128619Y-7394762D01*
X2147667Y-7404286D01*
X2185762Y-7404286D01*
X2204810Y-7394762D01*
X2214333Y-7385238D01*
X2223857Y-7366190D01*
X2461952Y-7480476D02*
X2461952Y-7280476D01*
X2547667Y-7480476D02*
X2547667Y-7375714D01*
X2538143Y-7356667D01*
X2519095Y-7347143D01*
X2490524Y-7347143D01*
X2471476Y-7356667D01*
X2461952Y-7366190D01*
X2671476Y-7480476D02*
X2652429Y-7470952D01*
X2642905Y-7461428D01*
X2633381Y-7442381D01*
X2633381Y-7385238D01*
X2642905Y-7366190D01*
X2652429Y-7356667D01*
X2671476Y-7347143D01*
X2700048Y-7347143D01*
X2719095Y-7356667D01*
X2728619Y-7366190D01*
X2738143Y-7385238D01*
X2738143Y-7442381D01*
X2728619Y-7461428D01*
X2719095Y-7470952D01*
X2700048Y-7480476D01*
X2671476Y-7480476D01*
X2852428Y-7480476D02*
X2833381Y-7470952D01*
X2823857Y-7451905D01*
X2823857Y-7280476D01*
X3004809Y-7470952D02*
X2985762Y-7480476D01*
X2947667Y-7480476D01*
X2928619Y-7470952D01*
X2919095Y-7451905D01*
X2919095Y-7375714D01*
X2928619Y-7356667D01*
X2947667Y-7347143D01*
X2985762Y-7347143D01*
X3004809Y-7356667D01*
X3014333Y-7375714D01*
X3014333Y-7394762D01*
X2919095Y-7413809D01*
X3090524Y-7470952D02*
X3109571Y-7480476D01*
X3147667Y-7480476D01*
X3166714Y-7470952D01*
X3176238Y-7451905D01*
X3176238Y-7442381D01*
X3166714Y-7423333D01*
X3147667Y-7413809D01*
X3119095Y-7413809D01*
X3100048Y-7404286D01*
X3090524Y-7385238D01*
X3090524Y-7375714D01*
X3100048Y-7356667D01*
X3119095Y-7347143D01*
X3147667Y-7347143D01*
X3166714Y-7356667D01*
X3242905Y-7556667D02*
X3252428Y-7547143D01*
X3271476Y-7518571D01*
X3281000Y-7499524D01*
X3290524Y-7470952D01*
X3300048Y-7423333D01*
X3300048Y-7385238D01*
X3290524Y-7337619D01*
X3281000Y-7309048D01*
X3271476Y-7290000D01*
X3252428Y-7261428D01*
X3242905Y-7251905D01*
X3604809Y-7556667D02*
X3595286Y-7547143D01*
X3576238Y-7518571D01*
X3566714Y-7499524D01*
X3557190Y-7470952D01*
X3547667Y-7423333D01*
X3547667Y-7385238D01*
X3557190Y-7337619D01*
X3566714Y-7309048D01*
X3576238Y-7290000D01*
X3595286Y-7261428D01*
X3604809Y-7251905D01*
X3681000Y-7347143D02*
X3681000Y-7480476D01*
X3681000Y-7366190D02*
X3690524Y-7356667D01*
X3709571Y-7347143D01*
X3738143Y-7347143D01*
X3757190Y-7356667D01*
X3766714Y-7375714D01*
X3766714Y-7480476D01*
X3890524Y-7480476D02*
X3871476Y-7470952D01*
X3861952Y-7461428D01*
X3852428Y-7442381D01*
X3852428Y-7385238D01*
X3861952Y-7366190D01*
X3871476Y-7356667D01*
X3890524Y-7347143D01*
X3919095Y-7347143D01*
X3938143Y-7356667D01*
X3947667Y-7366190D01*
X3957190Y-7385238D01*
X3957190Y-7442381D01*
X3947667Y-7461428D01*
X3938143Y-7470952D01*
X3919095Y-7480476D01*
X3890524Y-7480476D01*
X4014333Y-7347143D02*
X4090524Y-7347143D01*
X4042905Y-7280476D02*
X4042905Y-7451905D01*
X4052428Y-7470952D01*
X4071476Y-7480476D01*
X4090524Y-7480476D01*
X4309571Y-7347143D02*
X4309571Y-7547143D01*
X4309571Y-7356667D02*
X4328619Y-7347143D01*
X4366714Y-7347143D01*
X4385762Y-7356667D01*
X4395286Y-7366190D01*
X4404810Y-7385238D01*
X4404810Y-7442381D01*
X4395286Y-7461428D01*
X4385762Y-7470952D01*
X4366714Y-7480476D01*
X4328619Y-7480476D01*
X4309571Y-7470952D01*
X4519095Y-7480476D02*
X4500048Y-7470952D01*
X4490524Y-7451905D01*
X4490524Y-7280476D01*
X4681000Y-7480476D02*
X4681000Y-7375714D01*
X4671476Y-7356667D01*
X4652429Y-7347143D01*
X4614333Y-7347143D01*
X4595286Y-7356667D01*
X4681000Y-7470952D02*
X4661952Y-7480476D01*
X4614333Y-7480476D01*
X4595286Y-7470952D01*
X4585762Y-7451905D01*
X4585762Y-7432857D01*
X4595286Y-7413809D01*
X4614333Y-7404286D01*
X4661952Y-7404286D01*
X4681000Y-7394762D01*
X4747667Y-7347143D02*
X4823857Y-7347143D01*
X4776238Y-7280476D02*
X4776238Y-7451905D01*
X4785762Y-7470952D01*
X4804810Y-7480476D01*
X4823857Y-7480476D01*
X4966714Y-7470952D02*
X4947667Y-7480476D01*
X4909571Y-7480476D01*
X4890524Y-7470952D01*
X4881000Y-7451905D01*
X4881000Y-7375714D01*
X4890524Y-7356667D01*
X4909571Y-7347143D01*
X4947667Y-7347143D01*
X4966714Y-7356667D01*
X4976238Y-7375714D01*
X4976238Y-7394762D01*
X4881000Y-7413809D01*
X5147667Y-7480476D02*
X5147667Y-7280476D01*
X5147667Y-7470952D02*
X5128619Y-7480476D01*
X5090524Y-7480476D01*
X5071476Y-7470952D01*
X5061952Y-7461428D01*
X5052429Y-7442381D01*
X5052429Y-7385238D01*
X5061952Y-7366190D01*
X5071476Y-7356667D01*
X5090524Y-7347143D01*
X5128619Y-7347143D01*
X5147667Y-7356667D01*
X5223857Y-7556667D02*
X5233381Y-7547143D01*
X5252429Y-7518571D01*
X5261952Y-7499524D01*
X5271476Y-7470952D01*
X5281000Y-7423333D01*
X5281000Y-7385238D01*
X5271476Y-7337619D01*
X5261952Y-7309048D01*
X5252429Y-7290000D01*
X5233381Y-7261428D01*
X5223857Y-7251905D01*
X-1629000Y-7610000D02*
X-1629000Y-7810000D01*
X-1729000Y-7710000D02*
X-1529000Y-7710000D01*
X-1290429Y-7600476D02*
X-1157095Y-7600476D01*
X-1242810Y-7800476D01*
X-1080905Y-7781428D02*
X-1071381Y-7790952D01*
X-1080905Y-7800476D01*
X-1090429Y-7790952D01*
X-1080905Y-7781428D01*
X-1080905Y-7800476D01*
X-947571Y-7600476D02*
X-928524Y-7600476D01*
X-909476Y-7610000D01*
X-899952Y-7619524D01*
X-890428Y-7638571D01*
X-880905Y-7676667D01*
X-880905Y-7724286D01*
X-890428Y-7762381D01*
X-899952Y-7781428D01*
X-909476Y-7790952D01*
X-928524Y-7800476D01*
X-947571Y-7800476D01*
X-966619Y-7790952D01*
X-976143Y-7781428D01*
X-985667Y-7762381D01*
X-995190Y-7724286D01*
X-995190Y-7676667D01*
X-985667Y-7638571D01*
X-976143Y-7619524D01*
X-966619Y-7610000D01*
X-947571Y-7600476D01*
X-757095Y-7600476D02*
X-738048Y-7600476D01*
X-719000Y-7610000D01*
X-709476Y-7619524D01*
X-699952Y-7638571D01*
X-690429Y-7676667D01*
X-690429Y-7724286D01*
X-699952Y-7762381D01*
X-709476Y-7781428D01*
X-719000Y-7790952D01*
X-738048Y-7800476D01*
X-757095Y-7800476D01*
X-776143Y-7790952D01*
X-785667Y-7781428D01*
X-795190Y-7762381D01*
X-804714Y-7724286D01*
X-804714Y-7676667D01*
X-795190Y-7638571D01*
X-785667Y-7619524D01*
X-776143Y-7610000D01*
X-757095Y-7600476D01*
X-566619Y-7600476D02*
X-547571Y-7600476D01*
X-528524Y-7610000D01*
X-519000Y-7619524D01*
X-509476Y-7638571D01*
X-499952Y-7676667D01*
X-499952Y-7724286D01*
X-509476Y-7762381D01*
X-519000Y-7781428D01*
X-528524Y-7790952D01*
X-547571Y-7800476D01*
X-566619Y-7800476D01*
X-585667Y-7790952D01*
X-595190Y-7781428D01*
X-604714Y-7762381D01*
X-614238Y-7724286D01*
X-614238Y-7676667D01*
X-604714Y-7638571D01*
X-595190Y-7619524D01*
X-585667Y-7610000D01*
X-566619Y-7600476D01*
X-414238Y-7800476D02*
X-414238Y-7667143D01*
X-414238Y-7686190D02*
X-404714Y-7676667D01*
X-385667Y-7667143D01*
X-357095Y-7667143D01*
X-338048Y-7676667D01*
X-328524Y-7695714D01*
X-328524Y-7800476D01*
X-328524Y-7695714D02*
X-319000Y-7676667D01*
X-299952Y-7667143D01*
X-271381Y-7667143D01*
X-252333Y-7676667D01*
X-242809Y-7695714D01*
X-242809Y-7800476D01*
X-147571Y-7800476D02*
X-147571Y-7667143D01*
X-147571Y-7686190D02*
X-138048Y-7676667D01*
X-119000Y-7667143D01*
X-90428Y-7667143D01*
X-71381Y-7676667D01*
X-61857Y-7695714D01*
X-61857Y-7800476D01*
X-61857Y-7695714D02*
X-52333Y-7676667D01*
X-33286Y-7667143D01*
X-4714Y-7667143D01*
X14333Y-7676667D01*
X23857Y-7695714D01*
X23857Y-7800476D01*
X414333Y-7590952D02*
X242905Y-7848095D01*
X671476Y-7600476D02*
X690524Y-7600476D01*
X709571Y-7610000D01*
X719095Y-7619524D01*
X728619Y-7638571D01*
X738143Y-7676667D01*
X738143Y-7724286D01*
X728619Y-7762381D01*
X719095Y-7781428D01*
X709571Y-7790952D01*
X690524Y-7800476D01*
X671476Y-7800476D01*
X652429Y-7790952D01*
X642905Y-7781428D01*
X633381Y-7762381D01*
X623857Y-7724286D01*
X623857Y-7676667D01*
X633381Y-7638571D01*
X642905Y-7619524D01*
X652429Y-7610000D01*
X671476Y-7600476D01*
X823857Y-7781428D02*
X833381Y-7790952D01*
X823857Y-7800476D01*
X814333Y-7790952D01*
X823857Y-7781428D01*
X823857Y-7800476D01*
X909571Y-7619524D02*
X919095Y-7610000D01*
X938143Y-7600476D01*
X985762Y-7600476D01*
X1004809Y-7610000D01*
X1014333Y-7619524D01*
X1023857Y-7638571D01*
X1023857Y-7657619D01*
X1014333Y-7686190D01*
X900048Y-7800476D01*
X1023857Y-7800476D01*
X1090524Y-7600476D02*
X1223857Y-7600476D01*
X1138143Y-7800476D01*
X1395286Y-7600476D02*
X1300048Y-7600476D01*
X1290524Y-7695714D01*
X1300048Y-7686190D01*
X1319095Y-7676667D01*
X1366714Y-7676667D01*
X1385762Y-7686190D01*
X1395286Y-7695714D01*
X1404809Y-7714762D01*
X1404809Y-7762381D01*
X1395286Y-7781428D01*
X1385762Y-7790952D01*
X1366714Y-7800476D01*
X1319095Y-7800476D01*
X1300048Y-7790952D01*
X1290524Y-7781428D01*
X1576238Y-7600476D02*
X1538143Y-7600476D01*
X1519095Y-7610000D01*
X1509571Y-7619524D01*
X1490524Y-7648095D01*
X1481000Y-7686190D01*
X1481000Y-7762381D01*
X1490524Y-7781428D01*
X1500048Y-7790952D01*
X1519095Y-7800476D01*
X1557190Y-7800476D01*
X1576238Y-7790952D01*
X1585762Y-7781428D01*
X1595286Y-7762381D01*
X1595286Y-7714762D01*
X1585762Y-7695714D01*
X1576238Y-7686190D01*
X1557190Y-7676667D01*
X1519095Y-7676667D01*
X1500048Y-7686190D01*
X1490524Y-7695714D01*
X1481000Y-7714762D01*
X1671476Y-7600476D02*
X1671476Y-7638571D01*
X1747667Y-7600476D02*
X1747667Y-7638571D01*
X2042905Y-7876667D02*
X2033381Y-7867143D01*
X2014333Y-7838571D01*
X2004809Y-7819524D01*
X1995286Y-7790952D01*
X1985762Y-7743333D01*
X1985762Y-7705238D01*
X1995286Y-7657619D01*
X2004809Y-7629048D01*
X2014333Y-7610000D01*
X2033381Y-7581428D01*
X2042905Y-7571905D01*
X2109571Y-7619524D02*
X2119095Y-7610000D01*
X2138143Y-7600476D01*
X2185762Y-7600476D01*
X2204810Y-7610000D01*
X2214333Y-7619524D01*
X2223857Y-7638571D01*
X2223857Y-7657619D01*
X2214333Y-7686190D01*
X2100048Y-7800476D01*
X2223857Y-7800476D01*
X2461952Y-7800476D02*
X2461952Y-7600476D01*
X2547667Y-7800476D02*
X2547667Y-7695714D01*
X2538143Y-7676667D01*
X2519095Y-7667143D01*
X2490524Y-7667143D01*
X2471476Y-7676667D01*
X2461952Y-7686190D01*
X2671476Y-7800476D02*
X2652429Y-7790952D01*
X2642905Y-7781428D01*
X2633381Y-7762381D01*
X2633381Y-7705238D01*
X2642905Y-7686190D01*
X2652429Y-7676667D01*
X2671476Y-7667143D01*
X2700048Y-7667143D01*
X2719095Y-7676667D01*
X2728619Y-7686190D01*
X2738143Y-7705238D01*
X2738143Y-7762381D01*
X2728619Y-7781428D01*
X2719095Y-7790952D01*
X2700048Y-7800476D01*
X2671476Y-7800476D01*
X2852428Y-7800476D02*
X2833381Y-7790952D01*
X2823857Y-7771905D01*
X2823857Y-7600476D01*
X3004809Y-7790952D02*
X2985762Y-7800476D01*
X2947667Y-7800476D01*
X2928619Y-7790952D01*
X2919095Y-7771905D01*
X2919095Y-7695714D01*
X2928619Y-7676667D01*
X2947667Y-7667143D01*
X2985762Y-7667143D01*
X3004809Y-7676667D01*
X3014333Y-7695714D01*
X3014333Y-7714762D01*
X2919095Y-7733809D01*
X3090524Y-7790952D02*
X3109571Y-7800476D01*
X3147667Y-7800476D01*
X3166714Y-7790952D01*
X3176238Y-7771905D01*
X3176238Y-7762381D01*
X3166714Y-7743333D01*
X3147667Y-7733809D01*
X3119095Y-7733809D01*
X3100048Y-7724286D01*
X3090524Y-7705238D01*
X3090524Y-7695714D01*
X3100048Y-7676667D01*
X3119095Y-7667143D01*
X3147667Y-7667143D01*
X3166714Y-7676667D01*
X3242905Y-7876667D02*
X3252428Y-7867143D01*
X3271476Y-7838571D01*
X3281000Y-7819524D01*
X3290524Y-7790952D01*
X3300048Y-7743333D01*
X3300048Y-7705238D01*
X3290524Y-7657619D01*
X3281000Y-7629048D01*
X3271476Y-7610000D01*
X3252428Y-7581428D01*
X3242905Y-7571905D01*
X3604809Y-7876667D02*
X3595286Y-7867143D01*
X3576238Y-7838571D01*
X3566714Y-7819524D01*
X3557190Y-7790952D01*
X3547667Y-7743333D01*
X3547667Y-7705238D01*
X3557190Y-7657619D01*
X3566714Y-7629048D01*
X3576238Y-7610000D01*
X3595286Y-7581428D01*
X3604809Y-7571905D01*
X3681000Y-7667143D02*
X3681000Y-7800476D01*
X3681000Y-7686190D02*
X3690524Y-7676667D01*
X3709571Y-7667143D01*
X3738143Y-7667143D01*
X3757190Y-7676667D01*
X3766714Y-7695714D01*
X3766714Y-7800476D01*
X3890524Y-7800476D02*
X3871476Y-7790952D01*
X3861952Y-7781428D01*
X3852428Y-7762381D01*
X3852428Y-7705238D01*
X3861952Y-7686190D01*
X3871476Y-7676667D01*
X3890524Y-7667143D01*
X3919095Y-7667143D01*
X3938143Y-7676667D01*
X3947667Y-7686190D01*
X3957190Y-7705238D01*
X3957190Y-7762381D01*
X3947667Y-7781428D01*
X3938143Y-7790952D01*
X3919095Y-7800476D01*
X3890524Y-7800476D01*
X4014333Y-7667143D02*
X4090524Y-7667143D01*
X4042905Y-7600476D02*
X4042905Y-7771905D01*
X4052428Y-7790952D01*
X4071476Y-7800476D01*
X4090524Y-7800476D01*
X4309571Y-7667143D02*
X4309571Y-7867143D01*
X4309571Y-7676667D02*
X4328619Y-7667143D01*
X4366714Y-7667143D01*
X4385762Y-7676667D01*
X4395286Y-7686190D01*
X4404810Y-7705238D01*
X4404810Y-7762381D01*
X4395286Y-7781428D01*
X4385762Y-7790952D01*
X4366714Y-7800476D01*
X4328619Y-7800476D01*
X4309571Y-7790952D01*
X4519095Y-7800476D02*
X4500048Y-7790952D01*
X4490524Y-7771905D01*
X4490524Y-7600476D01*
X4681000Y-7800476D02*
X4681000Y-7695714D01*
X4671476Y-7676667D01*
X4652429Y-7667143D01*
X4614333Y-7667143D01*
X4595286Y-7676667D01*
X4681000Y-7790952D02*
X4661952Y-7800476D01*
X4614333Y-7800476D01*
X4595286Y-7790952D01*
X4585762Y-7771905D01*
X4585762Y-7752857D01*
X4595286Y-7733809D01*
X4614333Y-7724286D01*
X4661952Y-7724286D01*
X4681000Y-7714762D01*
X4747667Y-7667143D02*
X4823857Y-7667143D01*
X4776238Y-7600476D02*
X4776238Y-7771905D01*
X4785762Y-7790952D01*
X4804810Y-7800476D01*
X4823857Y-7800476D01*
X4966714Y-7790952D02*
X4947667Y-7800476D01*
X4909571Y-7800476D01*
X4890524Y-7790952D01*
X4881000Y-7771905D01*
X4881000Y-7695714D01*
X4890524Y-7676667D01*
X4909571Y-7667143D01*
X4947667Y-7667143D01*
X4966714Y-7676667D01*
X4976238Y-7695714D01*
X4976238Y-7714762D01*
X4881000Y-7733809D01*
X5147667Y-7800476D02*
X5147667Y-7600476D01*
X5147667Y-7790952D02*
X5128619Y-7800476D01*
X5090524Y-7800476D01*
X5071476Y-7790952D01*
X5061952Y-7781428D01*
X5052429Y-7762381D01*
X5052429Y-7705238D01*
X5061952Y-7686190D01*
X5071476Y-7676667D01*
X5090524Y-7667143D01*
X5128619Y-7667143D01*
X5147667Y-7676667D01*
X5223857Y-7876667D02*
X5233381Y-7867143D01*
X5252429Y-7838571D01*
X5261952Y-7819524D01*
X5271476Y-7790952D01*
X5281000Y-7743333D01*
X5281000Y-7705238D01*
X5271476Y-7657619D01*
X5261952Y-7629048D01*
X5252429Y-7610000D01*
X5233381Y-7581428D01*
X5223857Y-7571905D01*
X-1558289Y-8100711D02*
X-1558289Y-7959289D01*
X-1699711Y-7959289D01*
X-1699711Y-8100711D01*
X-1558289Y-8100711D01*
X-1290429Y-7920476D02*
X-1157095Y-7920476D01*
X-1242810Y-8120476D01*
X-1080905Y-8101428D02*
X-1071381Y-8110952D01*
X-1080905Y-8120476D01*
X-1090429Y-8110952D01*
X-1080905Y-8101428D01*
X-1080905Y-8120476D01*
X-890428Y-7920476D02*
X-985667Y-7920476D01*
X-995190Y-8015714D01*
X-985667Y-8006190D01*
X-966619Y-7996667D01*
X-919000Y-7996667D01*
X-899952Y-8006190D01*
X-890428Y-8015714D01*
X-880905Y-8034762D01*
X-880905Y-8082381D01*
X-890428Y-8101428D01*
X-899952Y-8110952D01*
X-919000Y-8120476D01*
X-966619Y-8120476D01*
X-985667Y-8110952D01*
X-995190Y-8101428D01*
X-757095Y-7920476D02*
X-738048Y-7920476D01*
X-719000Y-7930000D01*
X-709476Y-7939524D01*
X-699952Y-7958571D01*
X-690429Y-7996667D01*
X-690429Y-8044286D01*
X-699952Y-8082381D01*
X-709476Y-8101428D01*
X-719000Y-8110952D01*
X-738048Y-8120476D01*
X-757095Y-8120476D01*
X-776143Y-8110952D01*
X-785667Y-8101428D01*
X-795190Y-8082381D01*
X-804714Y-8044286D01*
X-804714Y-7996667D01*
X-795190Y-7958571D01*
X-785667Y-7939524D01*
X-776143Y-7930000D01*
X-757095Y-7920476D01*
X-566619Y-7920476D02*
X-547571Y-7920476D01*
X-528524Y-7930000D01*
X-519000Y-7939524D01*
X-509476Y-7958571D01*
X-499952Y-7996667D01*
X-499952Y-8044286D01*
X-509476Y-8082381D01*
X-519000Y-8101428D01*
X-528524Y-8110952D01*
X-547571Y-8120476D01*
X-566619Y-8120476D01*
X-585667Y-8110952D01*
X-595190Y-8101428D01*
X-604714Y-8082381D01*
X-614238Y-8044286D01*
X-614238Y-7996667D01*
X-604714Y-7958571D01*
X-595190Y-7939524D01*
X-585667Y-7930000D01*
X-566619Y-7920476D01*
X-414238Y-8120476D02*
X-414238Y-7987143D01*
X-414238Y-8006190D02*
X-404714Y-7996667D01*
X-385667Y-7987143D01*
X-357095Y-7987143D01*
X-338048Y-7996667D01*
X-328524Y-8015714D01*
X-328524Y-8120476D01*
X-328524Y-8015714D02*
X-319000Y-7996667D01*
X-299952Y-7987143D01*
X-271381Y-7987143D01*
X-252333Y-7996667D01*
X-242809Y-8015714D01*
X-242809Y-8120476D01*
X-147571Y-8120476D02*
X-147571Y-7987143D01*
X-147571Y-8006190D02*
X-138048Y-7996667D01*
X-119000Y-7987143D01*
X-90428Y-7987143D01*
X-71381Y-7996667D01*
X-61857Y-8015714D01*
X-61857Y-8120476D01*
X-61857Y-8015714D02*
X-52333Y-7996667D01*
X-33286Y-7987143D01*
X-4714Y-7987143D01*
X14333Y-7996667D01*
X23857Y-8015714D01*
X23857Y-8120476D01*
X414333Y-7910952D02*
X242905Y-8168095D01*
X671476Y-7920476D02*
X690524Y-7920476D01*
X709571Y-7930000D01*
X719095Y-7939524D01*
X728619Y-7958571D01*
X738143Y-7996667D01*
X738143Y-8044286D01*
X728619Y-8082381D01*
X719095Y-8101428D01*
X709571Y-8110952D01*
X690524Y-8120476D01*
X671476Y-8120476D01*
X652429Y-8110952D01*
X642905Y-8101428D01*
X633381Y-8082381D01*
X623857Y-8044286D01*
X623857Y-7996667D01*
X633381Y-7958571D01*
X642905Y-7939524D01*
X652429Y-7930000D01*
X671476Y-7920476D01*
X823857Y-8101428D02*
X833381Y-8110952D01*
X823857Y-8120476D01*
X814333Y-8110952D01*
X823857Y-8101428D01*
X823857Y-8120476D01*
X909571Y-7939524D02*
X919095Y-7930000D01*
X938143Y-7920476D01*
X985762Y-7920476D01*
X1004809Y-7930000D01*
X1014333Y-7939524D01*
X1023857Y-7958571D01*
X1023857Y-7977619D01*
X1014333Y-8006190D01*
X900048Y-8120476D01*
X1023857Y-8120476D01*
X1119095Y-8120476D02*
X1157190Y-8120476D01*
X1176238Y-8110952D01*
X1185762Y-8101428D01*
X1204810Y-8072857D01*
X1214333Y-8034762D01*
X1214333Y-7958571D01*
X1204810Y-7939524D01*
X1195286Y-7930000D01*
X1176238Y-7920476D01*
X1138143Y-7920476D01*
X1119095Y-7930000D01*
X1109571Y-7939524D01*
X1100048Y-7958571D01*
X1100048Y-8006190D01*
X1109571Y-8025238D01*
X1119095Y-8034762D01*
X1138143Y-8044286D01*
X1176238Y-8044286D01*
X1195286Y-8034762D01*
X1204810Y-8025238D01*
X1214333Y-8006190D01*
X1395286Y-7920476D02*
X1300048Y-7920476D01*
X1290524Y-8015714D01*
X1300048Y-8006190D01*
X1319095Y-7996667D01*
X1366714Y-7996667D01*
X1385762Y-8006190D01*
X1395286Y-8015714D01*
X1404809Y-8034762D01*
X1404809Y-8082381D01*
X1395286Y-8101428D01*
X1385762Y-8110952D01*
X1366714Y-8120476D01*
X1319095Y-8120476D01*
X1300048Y-8110952D01*
X1290524Y-8101428D01*
X1471476Y-7920476D02*
X1595286Y-7920476D01*
X1528619Y-7996667D01*
X1557190Y-7996667D01*
X1576238Y-8006190D01*
X1585762Y-8015714D01*
X1595286Y-8034762D01*
X1595286Y-8082381D01*
X1585762Y-8101428D01*
X1576238Y-8110952D01*
X1557190Y-8120476D01*
X1500048Y-8120476D01*
X1481000Y-8110952D01*
X1471476Y-8101428D01*
X1671476Y-7920476D02*
X1671476Y-7958571D01*
X1747667Y-7920476D02*
X1747667Y-7958571D01*
X2042905Y-8196667D02*
X2033381Y-8187143D01*
X2014333Y-8158571D01*
X2004809Y-8139524D01*
X1995286Y-8110952D01*
X1985762Y-8063333D01*
X1985762Y-8025238D01*
X1995286Y-7977619D01*
X2004809Y-7949048D01*
X2014333Y-7930000D01*
X2033381Y-7901428D01*
X2042905Y-7891905D01*
X2100048Y-7920476D02*
X2223857Y-7920476D01*
X2157190Y-7996667D01*
X2185762Y-7996667D01*
X2204810Y-8006190D01*
X2214333Y-8015714D01*
X2223857Y-8034762D01*
X2223857Y-8082381D01*
X2214333Y-8101428D01*
X2204810Y-8110952D01*
X2185762Y-8120476D01*
X2128619Y-8120476D01*
X2109571Y-8110952D01*
X2100048Y-8101428D01*
X2461952Y-8120476D02*
X2461952Y-7920476D01*
X2547667Y-8120476D02*
X2547667Y-8015714D01*
X2538143Y-7996667D01*
X2519095Y-7987143D01*
X2490524Y-7987143D01*
X2471476Y-7996667D01*
X2461952Y-8006190D01*
X2671476Y-8120476D02*
X2652429Y-8110952D01*
X2642905Y-8101428D01*
X2633381Y-8082381D01*
X2633381Y-8025238D01*
X2642905Y-8006190D01*
X2652429Y-7996667D01*
X2671476Y-7987143D01*
X2700048Y-7987143D01*
X2719095Y-7996667D01*
X2728619Y-8006190D01*
X2738143Y-8025238D01*
X2738143Y-8082381D01*
X2728619Y-8101428D01*
X2719095Y-8110952D01*
X2700048Y-8120476D01*
X2671476Y-8120476D01*
X2852428Y-8120476D02*
X2833381Y-8110952D01*
X2823857Y-8091905D01*
X2823857Y-7920476D01*
X3004809Y-8110952D02*
X2985762Y-8120476D01*
X2947667Y-8120476D01*
X2928619Y-8110952D01*
X2919095Y-8091905D01*
X2919095Y-8015714D01*
X2928619Y-7996667D01*
X2947667Y-7987143D01*
X2985762Y-7987143D01*
X3004809Y-7996667D01*
X3014333Y-8015714D01*
X3014333Y-8034762D01*
X2919095Y-8053809D01*
X3090524Y-8110952D02*
X3109571Y-8120476D01*
X3147667Y-8120476D01*
X3166714Y-8110952D01*
X3176238Y-8091905D01*
X3176238Y-8082381D01*
X3166714Y-8063333D01*
X3147667Y-8053809D01*
X3119095Y-8053809D01*
X3100048Y-8044286D01*
X3090524Y-8025238D01*
X3090524Y-8015714D01*
X3100048Y-7996667D01*
X3119095Y-7987143D01*
X3147667Y-7987143D01*
X3166714Y-7996667D01*
X3242905Y-8196667D02*
X3252428Y-8187143D01*
X3271476Y-8158571D01*
X3281000Y-8139524D01*
X3290524Y-8110952D01*
X3300048Y-8063333D01*
X3300048Y-8025238D01*
X3290524Y-7977619D01*
X3281000Y-7949048D01*
X3271476Y-7930000D01*
X3252428Y-7901428D01*
X3242905Y-7891905D01*
X3604809Y-8196667D02*
X3595286Y-8187143D01*
X3576238Y-8158571D01*
X3566714Y-8139524D01*
X3557190Y-8110952D01*
X3547667Y-8063333D01*
X3547667Y-8025238D01*
X3557190Y-7977619D01*
X3566714Y-7949048D01*
X3576238Y-7930000D01*
X3595286Y-7901428D01*
X3604809Y-7891905D01*
X3681000Y-7987143D02*
X3681000Y-8120476D01*
X3681000Y-8006190D02*
X3690524Y-7996667D01*
X3709571Y-7987143D01*
X3738143Y-7987143D01*
X3757190Y-7996667D01*
X3766714Y-8015714D01*
X3766714Y-8120476D01*
X3890524Y-8120476D02*
X3871476Y-8110952D01*
X3861952Y-8101428D01*
X3852428Y-8082381D01*
X3852428Y-8025238D01*
X3861952Y-8006190D01*
X3871476Y-7996667D01*
X3890524Y-7987143D01*
X3919095Y-7987143D01*
X3938143Y-7996667D01*
X3947667Y-8006190D01*
X3957190Y-8025238D01*
X3957190Y-8082381D01*
X3947667Y-8101428D01*
X3938143Y-8110952D01*
X3919095Y-8120476D01*
X3890524Y-8120476D01*
X4014333Y-7987143D02*
X4090524Y-7987143D01*
X4042905Y-7920476D02*
X4042905Y-8091905D01*
X4052428Y-8110952D01*
X4071476Y-8120476D01*
X4090524Y-8120476D01*
X4309571Y-7987143D02*
X4309571Y-8187143D01*
X4309571Y-7996667D02*
X4328619Y-7987143D01*
X4366714Y-7987143D01*
X4385762Y-7996667D01*
X4395286Y-8006190D01*
X4404810Y-8025238D01*
X4404810Y-8082381D01*
X4395286Y-8101428D01*
X4385762Y-8110952D01*
X4366714Y-8120476D01*
X4328619Y-8120476D01*
X4309571Y-8110952D01*
X4519095Y-8120476D02*
X4500048Y-8110952D01*
X4490524Y-8091905D01*
X4490524Y-7920476D01*
X4681000Y-8120476D02*
X4681000Y-8015714D01*
X4671476Y-7996667D01*
X4652429Y-7987143D01*
X4614333Y-7987143D01*
X4595286Y-7996667D01*
X4681000Y-8110952D02*
X4661952Y-8120476D01*
X4614333Y-8120476D01*
X4595286Y-8110952D01*
X4585762Y-8091905D01*
X4585762Y-8072857D01*
X4595286Y-8053809D01*
X4614333Y-8044286D01*
X4661952Y-8044286D01*
X4681000Y-8034762D01*
X4747667Y-7987143D02*
X4823857Y-7987143D01*
X4776238Y-7920476D02*
X4776238Y-8091905D01*
X4785762Y-8110952D01*
X4804810Y-8120476D01*
X4823857Y-8120476D01*
X4966714Y-8110952D02*
X4947667Y-8120476D01*
X4909571Y-8120476D01*
X4890524Y-8110952D01*
X4881000Y-8091905D01*
X4881000Y-8015714D01*
X4890524Y-7996667D01*
X4909571Y-7987143D01*
X4947667Y-7987143D01*
X4966714Y-7996667D01*
X4976238Y-8015714D01*
X4976238Y-8034762D01*
X4881000Y-8053809D01*
X5147667Y-8120476D02*
X5147667Y-7920476D01*
X5147667Y-8110952D02*
X5128619Y-8120476D01*
X5090524Y-8120476D01*
X5071476Y-8110952D01*
X5061952Y-8101428D01*
X5052429Y-8082381D01*
X5052429Y-8025238D01*
X5061952Y-8006190D01*
X5071476Y-7996667D01*
X5090524Y-7987143D01*
X5128619Y-7987143D01*
X5147667Y-7996667D01*
X5223857Y-8196667D02*
X5233381Y-8187143D01*
X5252429Y-8158571D01*
X5261952Y-8139524D01*
X5271476Y-8110952D01*
X5281000Y-8063333D01*
X5281000Y-8025238D01*
X5271476Y-7977619D01*
X5261952Y-7949048D01*
X5252429Y-7930000D01*
X5233381Y-7901428D01*
X5223857Y-7891905D01*
M02*
