%TF.GenerationSoftware,KiCad,Pcbnew,(6.0.9)*%
%TF.CreationDate,2022-12-27T03:42:47-08:00*%
%TF.ProjectId,panel_pcb,70616e65-6c5f-4706-9362-2e6b69636164,rev?*%
%TF.SameCoordinates,Original*%
%TF.FileFunction,Drillmap*%
%TF.FilePolarity,Positive*%
%FSLAX45Y45*%
G04 Gerber Fmt 4.5, Leading zero omitted, Abs format (unit mm)*
G04 Created by KiCad (PCBNEW (6.0.9)) date 2022-12-27 03:42:47*
%MOMM*%
%LPD*%
G01*
G04 APERTURE LIST*
%ADD10C,0.100000*%
%ADD11C,0.200000*%
G04 APERTURE END LIST*
D10*
X-691774Y5968249D02*
X-676445Y5972194D01*
X634570Y5992338D02*
X647760Y5984320D01*
X-1203186Y-6141400D02*
X-1200759Y-6157200D01*
X-676445Y-5972200D02*
X-691774Y-5968200D01*
X-1524000Y-6425000D02*
X-1524000Y6425000D01*
X-1060344Y5965822D02*
X-1043993Y5964995D01*
X-1076226Y5968249D02*
X-1060344Y5965822D01*
X567260Y-6092800D02*
X564840Y-6108700D01*
X724010Y-5965000D02*
X707650Y-5965800D01*
X1091560Y5972194D02*
X1106260Y5977578D01*
X1200760Y6092765D02*
X1203190Y6108642D01*
X-1191430Y6187251D02*
X-1196814Y6172552D01*
X-1133436Y6257665D02*
X-1157122Y6238118D01*
X1176670Y-6214400D02*
X1184690Y-6201200D01*
X-564012Y6124989D02*
X-564012Y6124989D01*
X-1106255Y5977578D02*
X-1091556Y5972194D01*
X-1184688Y6048758D02*
X-1176669Y6035566D01*
X583330Y6201238D02*
X576590Y6187251D01*
X1120240Y-5984300D02*
X1106260Y-5977600D01*
X1157120Y-6011900D02*
X1133440Y-5992300D01*
X-576592Y6062742D02*
X-571209Y6077438D01*
X1200760Y6157222D02*
X1196810Y6172552D01*
X1176670Y-6035600D02*
X1157120Y-6011900D01*
X-1184688Y-6048800D02*
X-1191430Y-6062700D01*
X661750Y6272426D02*
X647760Y6265684D01*
X-691774Y-5968200D02*
X-707655Y-5965800D01*
X-707655Y5965822D02*
X-691774Y5968249D01*
X1524000Y-6425000D02*
X-1524000Y-6425000D01*
X-676445Y5972194D02*
X-661748Y5977578D01*
X-576592Y-6062700D02*
X-583332Y-6048800D01*
X-571209Y-6077400D02*
X-576592Y-6062700D01*
X-564839Y-6141400D02*
X-564012Y-6125000D01*
X591350Y6214432D02*
X583330Y6201238D01*
X1060340Y-5965800D02*
X1043990Y-5965000D01*
X-564012Y-6125000D02*
X-564012Y-6125000D01*
X-591348Y6035566D02*
X-583332Y6048758D01*
X-724006Y-6285000D02*
X-707655Y-6284200D01*
X-1120242Y5984320D02*
X-1106255Y5977578D01*
X1200760Y-6157200D02*
X1203190Y-6141400D01*
X-1200759Y-6092800D02*
X-1203186Y-6108700D01*
X1176670Y6035566D02*
X1184690Y6048758D01*
X-1203186Y6141340D02*
X-1204013Y6124989D01*
X-1091556Y-6277800D02*
X-1076226Y-6281700D01*
X-1120242Y-5984300D02*
X-1133436Y-5992300D01*
X647760Y6265684D02*
X634570Y6257665D01*
X-1200759Y6092765D02*
X-1196814Y6077438D01*
X567260Y-6157200D02*
X571210Y-6172600D01*
X-564839Y6108642D02*
X-564012Y6124989D01*
X-583332Y6201238D02*
X-591348Y6214432D01*
X-564012Y-6125000D02*
X-564839Y-6108700D01*
X-610890Y6011883D02*
X-591348Y6035566D01*
X-691774Y6281756D02*
X-707655Y6284182D01*
X1191430Y-6187300D02*
X1196810Y-6172600D01*
X-1076226Y6281756D02*
X-1091556Y6277810D01*
X576590Y6062742D02*
X583330Y6048758D01*
X1106260Y6272426D02*
X1091560Y6277810D01*
X-564012Y6124989D02*
X-564012Y6124989D01*
X1076230Y5968249D02*
X1091560Y5972194D01*
X1204010Y-6125000D02*
X1204010Y-6125000D01*
X-1157122Y-6011900D02*
X-1176669Y-6035600D01*
X1091560Y6277810D02*
X1076230Y6281756D01*
X-1133436Y-6257700D02*
X-1120242Y-6265700D01*
X-1203186Y-6108700D02*
X-1204013Y-6125000D01*
X1184690Y-6048800D02*
X1176670Y-6035600D01*
X-564012Y-6125000D02*
X-564012Y-6125000D01*
X647760Y-5984300D02*
X634570Y-5992300D01*
X724010Y5964995D02*
X1043990Y5964995D01*
X1060340Y5965822D02*
X1076230Y5968249D01*
X1091560Y-5972200D02*
X1076230Y-5968200D01*
X591350Y-6035600D02*
X583330Y-6048800D01*
X634570Y-5992300D02*
X610890Y-6011900D01*
X-1200759Y-6157200D02*
X-1196814Y-6172600D01*
X-567265Y6092765D02*
X-564839Y6108642D01*
X676440Y5972194D02*
X691770Y5968249D01*
X-1091556Y6277810D02*
X-1106255Y6272426D01*
X1184690Y-6201200D02*
X1191430Y-6187300D01*
X661750Y-6272400D02*
X676440Y-6277800D01*
X571210Y-6172600D02*
X576590Y-6187300D01*
X-1191430Y6062742D02*
X-1184688Y6048758D01*
X-1176669Y-6035600D02*
X-1184688Y-6048800D01*
X676440Y-5972200D02*
X661750Y-5977600D01*
X-724006Y5964995D02*
X-707655Y5965822D01*
X564840Y6108642D02*
X567260Y6092765D01*
X1191430Y6062742D02*
X1196810Y6077438D01*
X1091560Y-6277800D02*
X1106260Y-6272400D01*
X1060340Y6284182D02*
X1043990Y6285009D01*
X691770Y-5968200D02*
X676440Y-5972200D01*
X676440Y-6277800D02*
X691770Y-6281700D01*
X647760Y5984320D02*
X661750Y5977578D01*
X564840Y-6108700D02*
X564010Y-6125000D01*
X-1106255Y-6272400D02*
X-1091556Y-6277800D01*
X-1076226Y-6281700D02*
X-1060344Y-6284200D01*
X724010Y-6285000D02*
X1043990Y-6285000D01*
X564840Y-6141400D02*
X567260Y-6157200D01*
X-1176669Y-6214400D02*
X-1157122Y-6238100D01*
X1043990Y-6285000D02*
X1060340Y-6284200D01*
X-1204013Y-6125000D02*
X-1203186Y-6141400D01*
X-567265Y-6157200D02*
X-564839Y-6141400D01*
X1200760Y-6092800D02*
X1196810Y-6077400D01*
X-564012Y6124989D02*
X-564839Y6141340D01*
X-1120242Y-6265700D02*
X-1106255Y-6272400D01*
X-576592Y-6187300D02*
X-571209Y-6172600D01*
X1120240Y5984320D02*
X1133440Y5992338D01*
X-583332Y-6201200D02*
X-576592Y-6187300D01*
X567260Y6092765D02*
X571210Y6077438D01*
X-1120242Y6265684D02*
X-1133436Y6257665D01*
X583330Y6048758D02*
X591350Y6035566D01*
X1204010Y6124989D02*
X1204010Y6124989D01*
X1133440Y6257665D02*
X1120240Y6265684D01*
X576590Y6187251D02*
X571210Y6172552D01*
X-1043993Y6285009D02*
X-1060344Y6284182D01*
X691770Y6281756D02*
X676440Y6277810D01*
X-1196814Y-6172600D02*
X-1191430Y-6187300D01*
X-647763Y-5984300D02*
X-661748Y-5977600D01*
X-724006Y6285009D02*
X-1043993Y6285009D01*
X1203190Y-6141400D02*
X1204010Y-6125000D01*
X-647763Y5984320D02*
X-634571Y5992338D01*
X634570Y-6257700D02*
X647760Y-6265700D01*
X-1133436Y-5992300D02*
X-1157122Y-6011900D01*
X591350Y-6214400D02*
X610890Y-6238100D01*
X576590Y-6187300D02*
X583330Y-6201200D01*
X-591348Y-6214400D02*
X-583332Y-6201200D01*
X567260Y6157222D02*
X564840Y6141340D01*
X564840Y6141340D02*
X564010Y6124989D01*
X-1157122Y-6238100D02*
X-1133436Y-6257700D01*
X724010Y6285009D02*
X707650Y6284182D01*
X-647763Y6265684D02*
X-661748Y6272426D01*
X661750Y-5977600D02*
X647760Y-5984300D01*
X571210Y-6077400D02*
X567260Y-6092800D01*
X1196810Y6077438D02*
X1200760Y6092765D01*
X-1196814Y6172552D02*
X-1200759Y6157222D01*
X676440Y6277810D02*
X661750Y6272426D01*
X707650Y-5965800D02*
X691770Y-5968200D01*
X1184690Y6048758D02*
X1191430Y6062742D01*
X576590Y-6062700D02*
X571210Y-6077400D01*
X1204010Y-6125000D02*
X1203190Y-6108700D01*
X1120240Y6265684D02*
X1106260Y6272426D01*
X-1060344Y-5965800D02*
X-1076226Y-5968200D01*
X-661748Y5977578D02*
X-647763Y5984320D01*
X-571209Y-6172600D02*
X-567265Y-6157200D01*
X1120240Y-6265700D02*
X1133440Y-6257700D01*
X1191430Y6187251D02*
X1184690Y6201238D01*
X1106260Y-6272400D02*
X1120240Y-6265700D01*
X634570Y6257665D02*
X610890Y6238118D01*
X-583332Y-6048800D02*
X-591348Y-6035600D01*
X564010Y-6125000D02*
X564840Y-6141400D01*
X-1196814Y-6077400D02*
X-1200759Y-6092800D01*
X-724006Y-5965000D02*
X-1043993Y-5965000D01*
X1076230Y-5968200D02*
X1060340Y-5965800D01*
X1043990Y5964995D02*
X1060340Y5965822D01*
X661750Y5977578D02*
X676440Y5972194D01*
X1133440Y-5992300D02*
X1120240Y-5984300D01*
X610890Y6238118D02*
X591350Y6214432D01*
X-707655Y-6284200D02*
X-691774Y-6281700D01*
X583330Y-6201200D02*
X591350Y-6214400D01*
X-583332Y6048758D02*
X-576592Y6062742D01*
X-1091556Y-5972200D02*
X-1106255Y-5977600D01*
X-571209Y6172552D02*
X-576592Y6187251D01*
X-1191430Y-6062700D02*
X-1196814Y-6077400D01*
X-1106255Y6272426D02*
X-1120242Y6265684D01*
X1133440Y5992338D02*
X1157120Y6011883D01*
X707650Y6284182D02*
X691770Y6281756D01*
X-567265Y6157222D02*
X-571209Y6172552D01*
X-1043993Y-5965000D02*
X-1060344Y-5965800D01*
X-676445Y-6277800D02*
X-661748Y-6272400D01*
X-634571Y-6257700D02*
X-610890Y-6238100D01*
X-610890Y6238118D02*
X-634571Y6257665D01*
X-634571Y6257665D02*
X-647763Y6265684D01*
X1157120Y6238118D02*
X1133440Y6257665D01*
X1524000Y6425000D02*
X1524000Y-6425000D01*
X-707655Y-5965800D02*
X-724006Y-5965000D01*
X-564839Y6141340D02*
X-567265Y6157222D01*
X610890Y-6011900D02*
X591350Y-6035600D01*
X1176670Y6214432D02*
X1157120Y6238118D01*
X1196810Y-6172600D02*
X1200760Y-6157200D01*
X-591348Y-6035600D02*
X-610890Y-6011900D01*
X-1196814Y6077438D02*
X-1191430Y6062742D01*
X-1176669Y6035566D02*
X-1157122Y6011883D01*
X1191430Y-6062700D02*
X1184690Y-6048800D01*
X1203190Y-6108700D02*
X1200760Y-6092800D01*
X-1184688Y-6201200D02*
X-1176669Y-6214400D01*
X1203190Y6108642D02*
X1204010Y6124989D01*
X610890Y-6238100D02*
X634570Y-6257700D01*
X-1176669Y6214432D02*
X-1184688Y6201238D01*
X-1204013Y6124989D02*
X-1203186Y6108642D01*
X-564839Y-6108700D02*
X-567265Y-6092800D01*
X-661748Y-5977600D02*
X-676445Y-5972200D01*
X1157120Y6011883D02*
X1176670Y6035566D01*
X-1203186Y6108642D02*
X-1200759Y6092765D01*
X-1157122Y6238118D02*
X-1176669Y6214432D01*
X-1200759Y6157222D02*
X-1203186Y6141340D01*
X-1524000Y6425000D02*
X1524000Y6425000D01*
X1106260Y5977578D02*
X1120240Y5984320D01*
X-1091556Y5972194D02*
X-1076226Y5968249D01*
X-576592Y6187251D02*
X-583332Y6201238D01*
X1196810Y6172552D02*
X1191430Y6187251D01*
X591350Y6035566D02*
X610890Y6011883D01*
X-1060344Y-6284200D02*
X-1043993Y-6285000D01*
X1076230Y6281756D02*
X1060340Y6284182D01*
X-610890Y-6011900D02*
X-634571Y-5992300D01*
X-1106255Y-5977600D02*
X-1120242Y-5984300D01*
X-634571Y5992338D02*
X-610890Y6011883D01*
X1133440Y-6257700D02*
X1157120Y-6238100D01*
X-571209Y6077438D02*
X-567265Y6092765D01*
X1204010Y-6125000D02*
X1204010Y-6125000D01*
X-1043993Y-6285000D02*
X-724006Y-6285000D01*
X-567265Y-6092800D02*
X-571209Y-6077400D01*
X1204010Y6124989D02*
X1204010Y6124989D01*
X-591348Y6214432D02*
X-610890Y6238118D01*
X-1133436Y5992338D02*
X-1120242Y5984320D01*
X564010Y6124989D02*
X564840Y6108642D01*
X-1184688Y6201238D02*
X-1191430Y6187251D01*
X-610890Y-6238100D02*
X-591348Y-6214400D01*
X1043990Y-5965000D02*
X724010Y-5965000D01*
X1157120Y-6238100D02*
X1176670Y-6214400D01*
X-676445Y6277810D02*
X-691774Y6281756D01*
X1196810Y-6077400D02*
X1191430Y-6062700D01*
X571210Y6077438D02*
X576590Y6062742D01*
X647760Y-6265700D02*
X661750Y-6272400D01*
X707650Y5965822D02*
X724010Y5964995D01*
X583330Y-6048800D02*
X576590Y-6062700D01*
X1076230Y-6281700D02*
X1091560Y-6277800D01*
X1106260Y-5977600D02*
X1091560Y-5972200D01*
X707650Y-6284200D02*
X724010Y-6285000D01*
X571210Y6172552D02*
X567260Y6157222D01*
X691770Y-6281700D02*
X707650Y-6284200D01*
X1203190Y6141340D02*
X1200760Y6157222D01*
X-691774Y-6281700D02*
X-676445Y-6277800D01*
X-1060344Y6284182D02*
X-1076226Y6281756D01*
X1060340Y-6284200D02*
X1076230Y-6281700D01*
X-661748Y6272426D02*
X-676445Y6277810D01*
X1184690Y6201238D02*
X1176670Y6214432D01*
X-1157122Y6011883D02*
X-1133436Y5992338D01*
X-661748Y-6272400D02*
X-647763Y-6265700D01*
X1204010Y6124989D02*
X1203190Y6141340D01*
X691770Y5968249D02*
X707650Y5965822D01*
X-634571Y-5992300D02*
X-647763Y-5984300D01*
X-707655Y6284182D02*
X-724006Y6285009D01*
X-1043993Y5964995D02*
X-724006Y5964995D01*
X1043990Y6285009D02*
X724010Y6285009D01*
X-1191430Y-6187300D02*
X-1184688Y-6201200D01*
X-1076226Y-5968200D02*
X-1091556Y-5972200D01*
X-1524000Y6425000D02*
X-1524000Y6425000D01*
X-647763Y-6265700D02*
X-634571Y-6257700D01*
X610890Y6011883D02*
X634570Y5992338D01*
D11*
X-1271381Y-6740476D02*
X-1271381Y-6540476D01*
X-1223762Y-6540476D01*
X-1195190Y-6550000D01*
X-1176143Y-6569048D01*
X-1166619Y-6588095D01*
X-1157095Y-6626190D01*
X-1157095Y-6654762D01*
X-1166619Y-6692857D01*
X-1176143Y-6711905D01*
X-1195190Y-6730952D01*
X-1223762Y-6740476D01*
X-1271381Y-6740476D01*
X-1071381Y-6740476D02*
X-1071381Y-6607143D01*
X-1071381Y-6645238D02*
X-1061857Y-6626190D01*
X-1052333Y-6616667D01*
X-1033286Y-6607143D01*
X-1014238Y-6607143D01*
X-947571Y-6740476D02*
X-947571Y-6607143D01*
X-947571Y-6540476D02*
X-957095Y-6550000D01*
X-947571Y-6559524D01*
X-938048Y-6550000D01*
X-947571Y-6540476D01*
X-947571Y-6559524D01*
X-823762Y-6740476D02*
X-842809Y-6730952D01*
X-852333Y-6711905D01*
X-852333Y-6540476D01*
X-719000Y-6740476D02*
X-738048Y-6730952D01*
X-747571Y-6711905D01*
X-747571Y-6540476D01*
X-490428Y-6740476D02*
X-490428Y-6540476D01*
X-423762Y-6683333D01*
X-357095Y-6540476D01*
X-357095Y-6740476D01*
X-176143Y-6740476D02*
X-176143Y-6635714D01*
X-185667Y-6616667D01*
X-204714Y-6607143D01*
X-242809Y-6607143D01*
X-261857Y-6616667D01*
X-176143Y-6730952D02*
X-195190Y-6740476D01*
X-242809Y-6740476D01*
X-261857Y-6730952D01*
X-271381Y-6711905D01*
X-271381Y-6692857D01*
X-261857Y-6673809D01*
X-242809Y-6664286D01*
X-195190Y-6664286D01*
X-176143Y-6654762D01*
X-80905Y-6607143D02*
X-80905Y-6807143D01*
X-80905Y-6616667D02*
X-61857Y-6607143D01*
X-23762Y-6607143D01*
X-4714Y-6616667D01*
X4810Y-6626190D01*
X14333Y-6645238D01*
X14333Y-6702381D01*
X4810Y-6721428D01*
X-4714Y-6730952D01*
X-23762Y-6740476D01*
X-61857Y-6740476D01*
X-80905Y-6730952D01*
X100048Y-6721428D02*
X109571Y-6730952D01*
X100048Y-6740476D01*
X90524Y-6730952D01*
X100048Y-6721428D01*
X100048Y-6740476D01*
X100048Y-6616667D02*
X109571Y-6626190D01*
X100048Y-6635714D01*
X90524Y-6626190D01*
X100048Y-6616667D01*
X100048Y-6635714D01*
M02*
