%TF.GenerationSoftware,KiCad,Pcbnew,(6.0.9)*%
%TF.CreationDate,2022-12-27T03:42:51-08:00*%
%TF.ProjectId,panel_pcb,70616e65-6c5f-4706-9362-2e6b69636164,rev?*%
%TF.SameCoordinates,Original*%
%TF.FileFunction,Soldermask,Top*%
%TF.FilePolarity,Negative*%
%FSLAX46Y46*%
G04 Gerber Fmt 4.6, Leading zero omitted, Abs format (unit mm)*
G04 Created by KiCad (PCBNEW (6.0.9)) date 2022-12-27 03:42:51*
%MOMM*%
%LPD*%
G01*
G04 APERTURE LIST*
%ADD10C,0.010000*%
%ADD11C,3.599871*%
%ADD12C,6.100233*%
%ADD13C,6.500233*%
%ADD14C,7.899879*%
%ADD15C,7.400000*%
%ADD16C,7.000000*%
G04 APERTURE END LIST*
%TO.C,G\u002A\u002A\u002A*%
G36*
X9130572Y-35819629D02*
G01*
X9287819Y-35826436D01*
X9380963Y-35834255D01*
X9835554Y-35904303D01*
X10274958Y-36013721D01*
X10697985Y-36161927D01*
X11103446Y-36348338D01*
X11490151Y-36572372D01*
X11856909Y-36833446D01*
X12202532Y-37130979D01*
X12371953Y-37298302D01*
X12669394Y-37635553D01*
X12931399Y-37994273D01*
X13157400Y-38371927D01*
X13346833Y-38765982D01*
X13499131Y-39173903D01*
X13613729Y-39593157D01*
X13690061Y-40021210D01*
X13727561Y-40455528D01*
X13725664Y-40893578D01*
X13683802Y-41332825D01*
X13601412Y-41770735D01*
X13477926Y-42204775D01*
X13471679Y-42223335D01*
X13308243Y-42640406D01*
X13107464Y-43038809D01*
X12870944Y-43416471D01*
X12600286Y-43771318D01*
X12297092Y-44101279D01*
X11962963Y-44404281D01*
X11599502Y-44678250D01*
X11546416Y-44714139D01*
X11208684Y-44916809D01*
X10843623Y-45094398D01*
X10459940Y-45243824D01*
X10066345Y-45362006D01*
X9671546Y-45445861D01*
X9366250Y-45485653D01*
X9328400Y-45487244D01*
X9250603Y-45488869D01*
X9135242Y-45490522D01*
X8984703Y-45492195D01*
X8801371Y-45493880D01*
X8587631Y-45495570D01*
X8345868Y-45497259D01*
X8078467Y-45498939D01*
X7787813Y-45500603D01*
X7476292Y-45502244D01*
X7146287Y-45503854D01*
X6800185Y-45505427D01*
X6440370Y-45506955D01*
X6069228Y-45508431D01*
X5689143Y-45509848D01*
X5302500Y-45511198D01*
X4911685Y-45512475D01*
X4519082Y-45513671D01*
X4127078Y-45514779D01*
X3738056Y-45515792D01*
X3354401Y-45516702D01*
X2978500Y-45517503D01*
X2612736Y-45518188D01*
X2259495Y-45518748D01*
X1921162Y-45519178D01*
X1600122Y-45519469D01*
X1298760Y-45519615D01*
X1019462Y-45519608D01*
X764611Y-45519441D01*
X536594Y-45519108D01*
X337795Y-45518600D01*
X170599Y-45517910D01*
X37392Y-45517033D01*
X-59442Y-45515959D01*
X-117517Y-45514683D01*
X-127000Y-45514261D01*
X-436005Y-45476090D01*
X-734790Y-45398437D01*
X-1019612Y-45283436D01*
X-1286727Y-45133223D01*
X-1532392Y-44949936D01*
X-1752861Y-44735710D01*
X-1944392Y-44492682D01*
X-1961315Y-44467620D01*
X-2077952Y-44270893D01*
X-2180203Y-44056420D01*
X-2260484Y-43841137D01*
X-2292805Y-43727401D01*
X-2346527Y-43423952D01*
X-2359796Y-43115953D01*
X-2333409Y-42808370D01*
X-2268162Y-42506172D01*
X-2164852Y-42214326D01*
X-2024275Y-41937801D01*
X-1999340Y-41896853D01*
X-1925142Y-41791006D01*
X-1827249Y-41670165D01*
X-1715542Y-41545115D01*
X-1599902Y-41426645D01*
X-1490210Y-41325542D01*
X-1434207Y-41279876D01*
X-1398059Y-41255086D01*
X-1327721Y-41209673D01*
X-1225250Y-41144887D01*
X-1092700Y-41061977D01*
X-932128Y-40962193D01*
X-745588Y-40846786D01*
X-535137Y-40717004D01*
X-302829Y-40574099D01*
X-50721Y-40419319D01*
X219132Y-40253914D01*
X504675Y-40079135D01*
X803852Y-39896230D01*
X1114608Y-39706451D01*
X1434887Y-39511047D01*
X1762634Y-39311267D01*
X2095792Y-39108362D01*
X2432308Y-38903581D01*
X2770124Y-38698174D01*
X3107186Y-38493391D01*
X3441438Y-38290481D01*
X3770825Y-38090696D01*
X4093291Y-37895284D01*
X4406781Y-37705495D01*
X4709238Y-37522579D01*
X4998608Y-37347787D01*
X5272835Y-37182367D01*
X5529864Y-37027570D01*
X5767639Y-36884645D01*
X5984104Y-36754843D01*
X6177205Y-36639412D01*
X6344885Y-36539604D01*
X6485089Y-36456667D01*
X6595761Y-36391852D01*
X6674847Y-36346409D01*
X6720290Y-36321587D01*
X6720416Y-36321523D01*
X7135675Y-36135838D01*
X7565501Y-35989877D01*
X8009381Y-35883810D01*
X8106833Y-35866192D01*
X8233878Y-35849358D01*
X8392523Y-35835798D01*
X8572142Y-35825779D01*
X8762107Y-35819567D01*
X8951793Y-35817428D01*
X9130572Y-35819629D01*
G37*
D10*
X9130572Y-35819629D02*
X9287819Y-35826436D01*
X9380963Y-35834255D01*
X9835554Y-35904303D01*
X10274958Y-36013721D01*
X10697985Y-36161927D01*
X11103446Y-36348338D01*
X11490151Y-36572372D01*
X11856909Y-36833446D01*
X12202532Y-37130979D01*
X12371953Y-37298302D01*
X12669394Y-37635553D01*
X12931399Y-37994273D01*
X13157400Y-38371927D01*
X13346833Y-38765982D01*
X13499131Y-39173903D01*
X13613729Y-39593157D01*
X13690061Y-40021210D01*
X13727561Y-40455528D01*
X13725664Y-40893578D01*
X13683802Y-41332825D01*
X13601412Y-41770735D01*
X13477926Y-42204775D01*
X13471679Y-42223335D01*
X13308243Y-42640406D01*
X13107464Y-43038809D01*
X12870944Y-43416471D01*
X12600286Y-43771318D01*
X12297092Y-44101279D01*
X11962963Y-44404281D01*
X11599502Y-44678250D01*
X11546416Y-44714139D01*
X11208684Y-44916809D01*
X10843623Y-45094398D01*
X10459940Y-45243824D01*
X10066345Y-45362006D01*
X9671546Y-45445861D01*
X9366250Y-45485653D01*
X9328400Y-45487244D01*
X9250603Y-45488869D01*
X9135242Y-45490522D01*
X8984703Y-45492195D01*
X8801371Y-45493880D01*
X8587631Y-45495570D01*
X8345868Y-45497259D01*
X8078467Y-45498939D01*
X7787813Y-45500603D01*
X7476292Y-45502244D01*
X7146287Y-45503854D01*
X6800185Y-45505427D01*
X6440370Y-45506955D01*
X6069228Y-45508431D01*
X5689143Y-45509848D01*
X5302500Y-45511198D01*
X4911685Y-45512475D01*
X4519082Y-45513671D01*
X4127078Y-45514779D01*
X3738056Y-45515792D01*
X3354401Y-45516702D01*
X2978500Y-45517503D01*
X2612736Y-45518188D01*
X2259495Y-45518748D01*
X1921162Y-45519178D01*
X1600122Y-45519469D01*
X1298760Y-45519615D01*
X1019462Y-45519608D01*
X764611Y-45519441D01*
X536594Y-45519108D01*
X337795Y-45518600D01*
X170599Y-45517910D01*
X37392Y-45517033D01*
X-59442Y-45515959D01*
X-117517Y-45514683D01*
X-127000Y-45514261D01*
X-436005Y-45476090D01*
X-734790Y-45398437D01*
X-1019612Y-45283436D01*
X-1286727Y-45133223D01*
X-1532392Y-44949936D01*
X-1752861Y-44735710D01*
X-1944392Y-44492682D01*
X-1961315Y-44467620D01*
X-2077952Y-44270893D01*
X-2180203Y-44056420D01*
X-2260484Y-43841137D01*
X-2292805Y-43727401D01*
X-2346527Y-43423952D01*
X-2359796Y-43115953D01*
X-2333409Y-42808370D01*
X-2268162Y-42506172D01*
X-2164852Y-42214326D01*
X-2024275Y-41937801D01*
X-1999340Y-41896853D01*
X-1925142Y-41791006D01*
X-1827249Y-41670165D01*
X-1715542Y-41545115D01*
X-1599902Y-41426645D01*
X-1490210Y-41325542D01*
X-1434207Y-41279876D01*
X-1398059Y-41255086D01*
X-1327721Y-41209673D01*
X-1225250Y-41144887D01*
X-1092700Y-41061977D01*
X-932128Y-40962193D01*
X-745588Y-40846786D01*
X-535137Y-40717004D01*
X-302829Y-40574099D01*
X-50721Y-40419319D01*
X219132Y-40253914D01*
X504675Y-40079135D01*
X803852Y-39896230D01*
X1114608Y-39706451D01*
X1434887Y-39511047D01*
X1762634Y-39311267D01*
X2095792Y-39108362D01*
X2432308Y-38903581D01*
X2770124Y-38698174D01*
X3107186Y-38493391D01*
X3441438Y-38290481D01*
X3770825Y-38090696D01*
X4093291Y-37895284D01*
X4406781Y-37705495D01*
X4709238Y-37522579D01*
X4998608Y-37347787D01*
X5272835Y-37182367D01*
X5529864Y-37027570D01*
X5767639Y-36884645D01*
X5984104Y-36754843D01*
X6177205Y-36639412D01*
X6344885Y-36539604D01*
X6485089Y-36456667D01*
X6595761Y-36391852D01*
X6674847Y-36346409D01*
X6720290Y-36321587D01*
X6720416Y-36321523D01*
X7135675Y-36135838D01*
X7565501Y-35989877D01*
X8009381Y-35883810D01*
X8106833Y-35866192D01*
X8233878Y-35849358D01*
X8392523Y-35835798D01*
X8572142Y-35825779D01*
X8762107Y-35819567D01*
X8951793Y-35817428D01*
X9130572Y-35819629D01*
G36*
X9190502Y-46004074D02*
G01*
X9605683Y-46046505D01*
X9926330Y-46103933D01*
X10218078Y-46179671D01*
X10524429Y-46282607D01*
X10832888Y-46407451D01*
X11130962Y-46548913D01*
X11406155Y-46701704D01*
X11542645Y-46788258D01*
X11909523Y-47057787D01*
X12244988Y-47354055D01*
X12548285Y-47674732D01*
X12818662Y-48017488D01*
X13055367Y-48379992D01*
X13257647Y-48759915D01*
X13424750Y-49154926D01*
X13555923Y-49562695D01*
X13650414Y-49980892D01*
X13707469Y-50407186D01*
X13726337Y-50839248D01*
X13706264Y-51274747D01*
X13646499Y-51711353D01*
X13546288Y-52146735D01*
X13409078Y-52567417D01*
X13236090Y-52968796D01*
X13025892Y-53353000D01*
X12781130Y-53717125D01*
X12504452Y-54058268D01*
X12198503Y-54373523D01*
X11865929Y-54659987D01*
X11509377Y-54914756D01*
X11131492Y-55134925D01*
X11017250Y-55192395D01*
X10647824Y-55356880D01*
X10288595Y-55485376D01*
X9931218Y-55579951D01*
X9567351Y-55642673D01*
X9188651Y-55675612D01*
X9048750Y-55680540D01*
X8967710Y-55681910D01*
X8849416Y-55683227D01*
X8696273Y-55684490D01*
X8510687Y-55685697D01*
X8295064Y-55686846D01*
X8051808Y-55687935D01*
X7783327Y-55688964D01*
X7492026Y-55689929D01*
X7180311Y-55690830D01*
X6850588Y-55691665D01*
X6505262Y-55692431D01*
X6146739Y-55693127D01*
X5777425Y-55693752D01*
X5399726Y-55694304D01*
X5016047Y-55694781D01*
X4628795Y-55695181D01*
X4240375Y-55695502D01*
X3853193Y-55695744D01*
X3469655Y-55695903D01*
X3092167Y-55695979D01*
X2723134Y-55695969D01*
X2364962Y-55695873D01*
X2020057Y-55695687D01*
X1690825Y-55695411D01*
X1379672Y-55695043D01*
X1089003Y-55694581D01*
X821224Y-55694023D01*
X578742Y-55693367D01*
X363961Y-55692613D01*
X179288Y-55691757D01*
X27128Y-55690799D01*
X-90113Y-55689737D01*
X-170029Y-55688568D01*
X-210213Y-55687292D01*
X-211667Y-55687183D01*
X-513313Y-55641843D01*
X-800758Y-55559104D01*
X-1071604Y-55441853D01*
X-1323455Y-55292976D01*
X-1553912Y-55115360D01*
X-1760578Y-54911893D01*
X-1941055Y-54685460D01*
X-2092945Y-54438950D01*
X-2213852Y-54175249D01*
X-2301378Y-53897245D01*
X-2353124Y-53607822D01*
X-2366694Y-53309870D01*
X-2353392Y-53108321D01*
X-2299609Y-52800992D01*
X-2209238Y-52506097D01*
X-2084602Y-52227710D01*
X-1928025Y-51969908D01*
X-1741833Y-51736766D01*
X-1528350Y-51532358D01*
X-1397000Y-51431435D01*
X-1357850Y-51405573D01*
X-1284682Y-51359133D01*
X-1179561Y-51293373D01*
X-1044551Y-51209546D01*
X-881715Y-51108908D01*
X-693118Y-50992717D01*
X-480822Y-50862226D01*
X-246893Y-50718692D01*
X6608Y-50563371D01*
X277614Y-50397518D01*
X564064Y-50222389D01*
X863892Y-50039240D01*
X1175035Y-49849327D01*
X1495430Y-49653904D01*
X1823013Y-49454228D01*
X2155719Y-49251555D01*
X2491485Y-49047141D01*
X2828247Y-48842240D01*
X3163942Y-48638109D01*
X3496505Y-48436003D01*
X3823873Y-48237178D01*
X4143982Y-48042891D01*
X4454768Y-47854396D01*
X4754168Y-47672949D01*
X5040117Y-47499806D01*
X5310552Y-47336223D01*
X5563408Y-47183455D01*
X5796623Y-47042759D01*
X6008132Y-46915389D01*
X6195872Y-46802602D01*
X6357779Y-46705653D01*
X6491788Y-46625798D01*
X6595837Y-46564293D01*
X6667861Y-46522393D01*
X6705391Y-46501559D01*
X6908778Y-46406102D01*
X7136441Y-46312623D01*
X7370611Y-46228030D01*
X7567083Y-46166670D01*
X7951835Y-46076585D01*
X8355825Y-46019319D01*
X8771298Y-45995080D01*
X9190502Y-46004074D01*
G37*
X9190502Y-46004074D02*
X9605683Y-46046505D01*
X9926330Y-46103933D01*
X10218078Y-46179671D01*
X10524429Y-46282607D01*
X10832888Y-46407451D01*
X11130962Y-46548913D01*
X11406155Y-46701704D01*
X11542645Y-46788258D01*
X11909523Y-47057787D01*
X12244988Y-47354055D01*
X12548285Y-47674732D01*
X12818662Y-48017488D01*
X13055367Y-48379992D01*
X13257647Y-48759915D01*
X13424750Y-49154926D01*
X13555923Y-49562695D01*
X13650414Y-49980892D01*
X13707469Y-50407186D01*
X13726337Y-50839248D01*
X13706264Y-51274747D01*
X13646499Y-51711353D01*
X13546288Y-52146735D01*
X13409078Y-52567417D01*
X13236090Y-52968796D01*
X13025892Y-53353000D01*
X12781130Y-53717125D01*
X12504452Y-54058268D01*
X12198503Y-54373523D01*
X11865929Y-54659987D01*
X11509377Y-54914756D01*
X11131492Y-55134925D01*
X11017250Y-55192395D01*
X10647824Y-55356880D01*
X10288595Y-55485376D01*
X9931218Y-55579951D01*
X9567351Y-55642673D01*
X9188651Y-55675612D01*
X9048750Y-55680540D01*
X8967710Y-55681910D01*
X8849416Y-55683227D01*
X8696273Y-55684490D01*
X8510687Y-55685697D01*
X8295064Y-55686846D01*
X8051808Y-55687935D01*
X7783327Y-55688964D01*
X7492026Y-55689929D01*
X7180311Y-55690830D01*
X6850588Y-55691665D01*
X6505262Y-55692431D01*
X6146739Y-55693127D01*
X5777425Y-55693752D01*
X5399726Y-55694304D01*
X5016047Y-55694781D01*
X4628795Y-55695181D01*
X4240375Y-55695502D01*
X3853193Y-55695744D01*
X3469655Y-55695903D01*
X3092167Y-55695979D01*
X2723134Y-55695969D01*
X2364962Y-55695873D01*
X2020057Y-55695687D01*
X1690825Y-55695411D01*
X1379672Y-55695043D01*
X1089003Y-55694581D01*
X821224Y-55694023D01*
X578742Y-55693367D01*
X363961Y-55692613D01*
X179288Y-55691757D01*
X27128Y-55690799D01*
X-90113Y-55689737D01*
X-170029Y-55688568D01*
X-210213Y-55687292D01*
X-211667Y-55687183D01*
X-513313Y-55641843D01*
X-800758Y-55559104D01*
X-1071604Y-55441853D01*
X-1323455Y-55292976D01*
X-1553912Y-55115360D01*
X-1760578Y-54911893D01*
X-1941055Y-54685460D01*
X-2092945Y-54438950D01*
X-2213852Y-54175249D01*
X-2301378Y-53897245D01*
X-2353124Y-53607822D01*
X-2366694Y-53309870D01*
X-2353392Y-53108321D01*
X-2299609Y-52800992D01*
X-2209238Y-52506097D01*
X-2084602Y-52227710D01*
X-1928025Y-51969908D01*
X-1741833Y-51736766D01*
X-1528350Y-51532358D01*
X-1397000Y-51431435D01*
X-1357850Y-51405573D01*
X-1284682Y-51359133D01*
X-1179561Y-51293373D01*
X-1044551Y-51209546D01*
X-881715Y-51108908D01*
X-693118Y-50992717D01*
X-480822Y-50862226D01*
X-246893Y-50718692D01*
X6608Y-50563371D01*
X277614Y-50397518D01*
X564064Y-50222389D01*
X863892Y-50039240D01*
X1175035Y-49849327D01*
X1495430Y-49653904D01*
X1823013Y-49454228D01*
X2155719Y-49251555D01*
X2491485Y-49047141D01*
X2828247Y-48842240D01*
X3163942Y-48638109D01*
X3496505Y-48436003D01*
X3823873Y-48237178D01*
X4143982Y-48042891D01*
X4454768Y-47854396D01*
X4754168Y-47672949D01*
X5040117Y-47499806D01*
X5310552Y-47336223D01*
X5563408Y-47183455D01*
X5796623Y-47042759D01*
X6008132Y-46915389D01*
X6195872Y-46802602D01*
X6357779Y-46705653D01*
X6491788Y-46625798D01*
X6595837Y-46564293D01*
X6667861Y-46522393D01*
X6705391Y-46501559D01*
X6908778Y-46406102D01*
X7136441Y-46312623D01*
X7370611Y-46228030D01*
X7567083Y-46166670D01*
X7951835Y-46076585D01*
X8355825Y-46019319D01*
X8771298Y-45995080D01*
X9190502Y-46004074D01*
G36*
X9271353Y-25668727D02*
G01*
X9662297Y-25714036D01*
X10043700Y-25791622D01*
X10418059Y-25900443D01*
X10835386Y-26060775D01*
X11231258Y-26256441D01*
X11604098Y-26485399D01*
X11952330Y-26745609D01*
X12274375Y-27035027D01*
X12568656Y-27351612D01*
X12833597Y-27693323D01*
X13067620Y-28058116D01*
X13269148Y-28443951D01*
X13436603Y-28848785D01*
X13568409Y-29270577D01*
X13662988Y-29707285D01*
X13718764Y-30156866D01*
X13720195Y-30175486D01*
X13731861Y-30610189D01*
X13702523Y-31043156D01*
X13633490Y-31471391D01*
X13526074Y-31891898D01*
X13381583Y-32301681D01*
X13201328Y-32697743D01*
X12986620Y-33077089D01*
X12738769Y-33436722D01*
X12459084Y-33773646D01*
X12148876Y-34084866D01*
X11927416Y-34275250D01*
X11576474Y-34532532D01*
X11202126Y-34757993D01*
X10809042Y-34949711D01*
X10401892Y-35105763D01*
X9985346Y-35224228D01*
X9564075Y-35303182D01*
X9376833Y-35325061D01*
X9338812Y-35326725D01*
X9260949Y-35328430D01*
X9145614Y-35330168D01*
X8995183Y-35331932D01*
X8812026Y-35333713D01*
X8598518Y-35335504D01*
X8357030Y-35337297D01*
X8089937Y-35339084D01*
X7799610Y-35340858D01*
X7488423Y-35342611D01*
X7158749Y-35344335D01*
X6812960Y-35346023D01*
X6453429Y-35347667D01*
X6082530Y-35349259D01*
X5702634Y-35350791D01*
X5316115Y-35352255D01*
X4925346Y-35353645D01*
X4532700Y-35354951D01*
X4140549Y-35356167D01*
X3751267Y-35357285D01*
X3367226Y-35358297D01*
X2990799Y-35359195D01*
X2624359Y-35359971D01*
X2270279Y-35360619D01*
X1930932Y-35361129D01*
X1608690Y-35361495D01*
X1305927Y-35361708D01*
X1025015Y-35361761D01*
X768327Y-35361647D01*
X538237Y-35361356D01*
X337116Y-35360883D01*
X167339Y-35360218D01*
X31277Y-35359355D01*
X-68697Y-35358285D01*
X-130209Y-35357002D01*
X-148167Y-35356077D01*
X-474956Y-35306464D01*
X-774820Y-35225549D01*
X-1050698Y-35112039D01*
X-1305528Y-34964637D01*
X-1542248Y-34782049D01*
X-1626912Y-34704277D01*
X-1841858Y-34469650D01*
X-2020644Y-34215222D01*
X-2162615Y-33944251D01*
X-2267115Y-33659992D01*
X-2333488Y-33365702D01*
X-2361079Y-33064637D01*
X-2349230Y-32760054D01*
X-2297288Y-32455210D01*
X-2204595Y-32153361D01*
X-2161911Y-32047880D01*
X-2045879Y-31821552D01*
X-1896606Y-31597943D01*
X-1722436Y-31387700D01*
X-1531712Y-31201471D01*
X-1439334Y-31125735D01*
X-1402722Y-31100517D01*
X-1331906Y-31054684D01*
X-1228938Y-30989483D01*
X-1095866Y-30906159D01*
X-934740Y-30805958D01*
X-747610Y-30690126D01*
X-536525Y-30559908D01*
X-303535Y-30416550D01*
X-50690Y-30261298D01*
X219960Y-30095398D01*
X506366Y-29920095D01*
X806479Y-29736635D01*
X1118248Y-29546264D01*
X1439624Y-29350228D01*
X1768558Y-29149772D01*
X2102999Y-28946142D01*
X2440897Y-28740583D01*
X2780204Y-28534342D01*
X3118870Y-28328665D01*
X3454844Y-28124796D01*
X3786078Y-27923982D01*
X4110521Y-27727469D01*
X4426124Y-27536501D01*
X4730837Y-27352326D01*
X5022611Y-27176188D01*
X5299396Y-27009334D01*
X5559142Y-26853008D01*
X5799799Y-26708458D01*
X6019318Y-26576928D01*
X6215650Y-26459665D01*
X6386744Y-26357913D01*
X6530551Y-26272920D01*
X6645021Y-26205929D01*
X6728104Y-26158189D01*
X6777751Y-26130943D01*
X6783916Y-26127855D01*
X7197621Y-25951034D01*
X7621649Y-25815261D01*
X8055728Y-25720598D01*
X8499587Y-25667107D01*
X8860168Y-25654000D01*
X9271353Y-25668727D01*
G37*
X9271353Y-25668727D02*
X9662297Y-25714036D01*
X10043700Y-25791622D01*
X10418059Y-25900443D01*
X10835386Y-26060775D01*
X11231258Y-26256441D01*
X11604098Y-26485399D01*
X11952330Y-26745609D01*
X12274375Y-27035027D01*
X12568656Y-27351612D01*
X12833597Y-27693323D01*
X13067620Y-28058116D01*
X13269148Y-28443951D01*
X13436603Y-28848785D01*
X13568409Y-29270577D01*
X13662988Y-29707285D01*
X13718764Y-30156866D01*
X13720195Y-30175486D01*
X13731861Y-30610189D01*
X13702523Y-31043156D01*
X13633490Y-31471391D01*
X13526074Y-31891898D01*
X13381583Y-32301681D01*
X13201328Y-32697743D01*
X12986620Y-33077089D01*
X12738769Y-33436722D01*
X12459084Y-33773646D01*
X12148876Y-34084866D01*
X11927416Y-34275250D01*
X11576474Y-34532532D01*
X11202126Y-34757993D01*
X10809042Y-34949711D01*
X10401892Y-35105763D01*
X9985346Y-35224228D01*
X9564075Y-35303182D01*
X9376833Y-35325061D01*
X9338812Y-35326725D01*
X9260949Y-35328430D01*
X9145614Y-35330168D01*
X8995183Y-35331932D01*
X8812026Y-35333713D01*
X8598518Y-35335504D01*
X8357030Y-35337297D01*
X8089937Y-35339084D01*
X7799610Y-35340858D01*
X7488423Y-35342611D01*
X7158749Y-35344335D01*
X6812960Y-35346023D01*
X6453429Y-35347667D01*
X6082530Y-35349259D01*
X5702634Y-35350791D01*
X5316115Y-35352255D01*
X4925346Y-35353645D01*
X4532700Y-35354951D01*
X4140549Y-35356167D01*
X3751267Y-35357285D01*
X3367226Y-35358297D01*
X2990799Y-35359195D01*
X2624359Y-35359971D01*
X2270279Y-35360619D01*
X1930932Y-35361129D01*
X1608690Y-35361495D01*
X1305927Y-35361708D01*
X1025015Y-35361761D01*
X768327Y-35361647D01*
X538237Y-35361356D01*
X337116Y-35360883D01*
X167339Y-35360218D01*
X31277Y-35359355D01*
X-68697Y-35358285D01*
X-130209Y-35357002D01*
X-148167Y-35356077D01*
X-474956Y-35306464D01*
X-774820Y-35225549D01*
X-1050698Y-35112039D01*
X-1305528Y-34964637D01*
X-1542248Y-34782049D01*
X-1626912Y-34704277D01*
X-1841858Y-34469650D01*
X-2020644Y-34215222D01*
X-2162615Y-33944251D01*
X-2267115Y-33659992D01*
X-2333488Y-33365702D01*
X-2361079Y-33064637D01*
X-2349230Y-32760054D01*
X-2297288Y-32455210D01*
X-2204595Y-32153361D01*
X-2161911Y-32047880D01*
X-2045879Y-31821552D01*
X-1896606Y-31597943D01*
X-1722436Y-31387700D01*
X-1531712Y-31201471D01*
X-1439334Y-31125735D01*
X-1402722Y-31100517D01*
X-1331906Y-31054684D01*
X-1228938Y-30989483D01*
X-1095866Y-30906159D01*
X-934740Y-30805958D01*
X-747610Y-30690126D01*
X-536525Y-30559908D01*
X-303535Y-30416550D01*
X-50690Y-30261298D01*
X219960Y-30095398D01*
X506366Y-29920095D01*
X806479Y-29736635D01*
X1118248Y-29546264D01*
X1439624Y-29350228D01*
X1768558Y-29149772D01*
X2102999Y-28946142D01*
X2440897Y-28740583D01*
X2780204Y-28534342D01*
X3118870Y-28328665D01*
X3454844Y-28124796D01*
X3786078Y-27923982D01*
X4110521Y-27727469D01*
X4426124Y-27536501D01*
X4730837Y-27352326D01*
X5022611Y-27176188D01*
X5299396Y-27009334D01*
X5559142Y-26853008D01*
X5799799Y-26708458D01*
X6019318Y-26576928D01*
X6215650Y-26459665D01*
X6386744Y-26357913D01*
X6530551Y-26272920D01*
X6645021Y-26205929D01*
X6728104Y-26158189D01*
X6777751Y-26130943D01*
X6783916Y-26127855D01*
X7197621Y-25951034D01*
X7621649Y-25815261D01*
X8055728Y-25720598D01*
X8499587Y-25667107D01*
X8860168Y-25654000D01*
X9271353Y-25668727D01*
G36*
X9300667Y-15511468D02*
G01*
X9740679Y-15569579D01*
X10176186Y-15667662D01*
X10445750Y-15749708D01*
X10630210Y-15818598D01*
X10835317Y-15906918D01*
X11048137Y-16008314D01*
X11255741Y-16116435D01*
X11445196Y-16224928D01*
X11557000Y-16295632D01*
X11914524Y-16557980D01*
X12245717Y-16851073D01*
X12548567Y-17171974D01*
X12821061Y-17517745D01*
X13061188Y-17885449D01*
X13266936Y-18272149D01*
X13436291Y-18674908D01*
X13567243Y-19090790D01*
X13617970Y-19304057D01*
X13656542Y-19495153D01*
X13684996Y-19662035D01*
X13704686Y-19818009D01*
X13716968Y-19976377D01*
X13723198Y-20150444D01*
X13724735Y-20351750D01*
X13707773Y-20783119D01*
X13657199Y-21193516D01*
X13571468Y-21589607D01*
X13449033Y-21978061D01*
X13288349Y-22365543D01*
X13229013Y-22489583D01*
X13012549Y-22881452D01*
X12762986Y-23248564D01*
X12482670Y-23589271D01*
X12173946Y-23901927D01*
X11839159Y-24184883D01*
X11480653Y-24436493D01*
X11100774Y-24655108D01*
X10701865Y-24839083D01*
X10286273Y-24986769D01*
X9856341Y-25096519D01*
X9419166Y-25166154D01*
X9377202Y-25168530D01*
X9295454Y-25170867D01*
X9176287Y-25173159D01*
X9022067Y-25175403D01*
X8835160Y-25177590D01*
X8617930Y-25179718D01*
X8372743Y-25181779D01*
X8101965Y-25183768D01*
X7807961Y-25185681D01*
X7493096Y-25187510D01*
X7159736Y-25189252D01*
X6810247Y-25190899D01*
X6446993Y-25192448D01*
X6072340Y-25193892D01*
X5688654Y-25195225D01*
X5298300Y-25196443D01*
X4903644Y-25197540D01*
X4507050Y-25198510D01*
X4110885Y-25199347D01*
X3717514Y-25200047D01*
X3329302Y-25200604D01*
X2948614Y-25201012D01*
X2577817Y-25201266D01*
X2219275Y-25201360D01*
X1875354Y-25201288D01*
X1548420Y-25201046D01*
X1240837Y-25200628D01*
X954972Y-25200028D01*
X693189Y-25199240D01*
X457855Y-25198260D01*
X251334Y-25197082D01*
X75992Y-25195699D01*
X-65805Y-25194108D01*
X-171693Y-25192301D01*
X-239305Y-25190275D01*
X-262874Y-25188687D01*
X-578538Y-25129764D01*
X-871167Y-25035976D01*
X-1143543Y-24906007D01*
X-1398451Y-24738540D01*
X-1626912Y-24543568D01*
X-1841755Y-24310091D01*
X-2020449Y-24056755D01*
X-2162348Y-23786758D01*
X-2266808Y-23503298D01*
X-2333184Y-23209572D01*
X-2360831Y-22908777D01*
X-2349102Y-22604113D01*
X-2297354Y-22298775D01*
X-2204941Y-21995963D01*
X-2162327Y-21889899D01*
X-2057104Y-21683043D01*
X-1920526Y-21474728D01*
X-1761021Y-21275274D01*
X-1587018Y-21095003D01*
X-1406943Y-20944238D01*
X-1366932Y-20915767D01*
X-1318133Y-20883690D01*
X-1235736Y-20831354D01*
X-1121818Y-20760018D01*
X-978454Y-20670943D01*
X-807718Y-20565390D01*
X-611687Y-20444619D01*
X-392435Y-20309889D01*
X-152037Y-20162463D01*
X107430Y-20003599D01*
X383893Y-19834559D01*
X675275Y-19656603D01*
X979502Y-19470991D01*
X1294498Y-19278983D01*
X1618188Y-19081841D01*
X1948497Y-18880823D01*
X2283349Y-18677192D01*
X2620670Y-18472206D01*
X2958383Y-18267127D01*
X3294414Y-18063215D01*
X3626688Y-17861730D01*
X3953130Y-17663933D01*
X4271663Y-17471083D01*
X4580213Y-17284443D01*
X4876705Y-17105271D01*
X5159063Y-16934828D01*
X5425212Y-16774374D01*
X5673077Y-16625171D01*
X5900582Y-16488478D01*
X6105653Y-16365556D01*
X6286215Y-16257665D01*
X6440191Y-16166065D01*
X6565506Y-16092017D01*
X6660087Y-16036782D01*
X6721856Y-16001619D01*
X6742158Y-15990754D01*
X7143135Y-15813331D01*
X7558483Y-15674652D01*
X7985057Y-15574922D01*
X8419709Y-15514344D01*
X8859295Y-15493125D01*
X9300667Y-15511468D01*
G37*
X9300667Y-15511468D02*
X9740679Y-15569579D01*
X10176186Y-15667662D01*
X10445750Y-15749708D01*
X10630210Y-15818598D01*
X10835317Y-15906918D01*
X11048137Y-16008314D01*
X11255741Y-16116435D01*
X11445196Y-16224928D01*
X11557000Y-16295632D01*
X11914524Y-16557980D01*
X12245717Y-16851073D01*
X12548567Y-17171974D01*
X12821061Y-17517745D01*
X13061188Y-17885449D01*
X13266936Y-18272149D01*
X13436291Y-18674908D01*
X13567243Y-19090790D01*
X13617970Y-19304057D01*
X13656542Y-19495153D01*
X13684996Y-19662035D01*
X13704686Y-19818009D01*
X13716968Y-19976377D01*
X13723198Y-20150444D01*
X13724735Y-20351750D01*
X13707773Y-20783119D01*
X13657199Y-21193516D01*
X13571468Y-21589607D01*
X13449033Y-21978061D01*
X13288349Y-22365543D01*
X13229013Y-22489583D01*
X13012549Y-22881452D01*
X12762986Y-23248564D01*
X12482670Y-23589271D01*
X12173946Y-23901927D01*
X11839159Y-24184883D01*
X11480653Y-24436493D01*
X11100774Y-24655108D01*
X10701865Y-24839083D01*
X10286273Y-24986769D01*
X9856341Y-25096519D01*
X9419166Y-25166154D01*
X9377202Y-25168530D01*
X9295454Y-25170867D01*
X9176287Y-25173159D01*
X9022067Y-25175403D01*
X8835160Y-25177590D01*
X8617930Y-25179718D01*
X8372743Y-25181779D01*
X8101965Y-25183768D01*
X7807961Y-25185681D01*
X7493096Y-25187510D01*
X7159736Y-25189252D01*
X6810247Y-25190899D01*
X6446993Y-25192448D01*
X6072340Y-25193892D01*
X5688654Y-25195225D01*
X5298300Y-25196443D01*
X4903644Y-25197540D01*
X4507050Y-25198510D01*
X4110885Y-25199347D01*
X3717514Y-25200047D01*
X3329302Y-25200604D01*
X2948614Y-25201012D01*
X2577817Y-25201266D01*
X2219275Y-25201360D01*
X1875354Y-25201288D01*
X1548420Y-25201046D01*
X1240837Y-25200628D01*
X954972Y-25200028D01*
X693189Y-25199240D01*
X457855Y-25198260D01*
X251334Y-25197082D01*
X75992Y-25195699D01*
X-65805Y-25194108D01*
X-171693Y-25192301D01*
X-239305Y-25190275D01*
X-262874Y-25188687D01*
X-578538Y-25129764D01*
X-871167Y-25035976D01*
X-1143543Y-24906007D01*
X-1398451Y-24738540D01*
X-1626912Y-24543568D01*
X-1841755Y-24310091D01*
X-2020449Y-24056755D01*
X-2162348Y-23786758D01*
X-2266808Y-23503298D01*
X-2333184Y-23209572D01*
X-2360831Y-22908777D01*
X-2349102Y-22604113D01*
X-2297354Y-22298775D01*
X-2204941Y-21995963D01*
X-2162327Y-21889899D01*
X-2057104Y-21683043D01*
X-1920526Y-21474728D01*
X-1761021Y-21275274D01*
X-1587018Y-21095003D01*
X-1406943Y-20944238D01*
X-1366932Y-20915767D01*
X-1318133Y-20883690D01*
X-1235736Y-20831354D01*
X-1121818Y-20760018D01*
X-978454Y-20670943D01*
X-807718Y-20565390D01*
X-611687Y-20444619D01*
X-392435Y-20309889D01*
X-152037Y-20162463D01*
X107430Y-20003599D01*
X383893Y-19834559D01*
X675275Y-19656603D01*
X979502Y-19470991D01*
X1294498Y-19278983D01*
X1618188Y-19081841D01*
X1948497Y-18880823D01*
X2283349Y-18677192D01*
X2620670Y-18472206D01*
X2958383Y-18267127D01*
X3294414Y-18063215D01*
X3626688Y-17861730D01*
X3953130Y-17663933D01*
X4271663Y-17471083D01*
X4580213Y-17284443D01*
X4876705Y-17105271D01*
X5159063Y-16934828D01*
X5425212Y-16774374D01*
X5673077Y-16625171D01*
X5900582Y-16488478D01*
X6105653Y-16365556D01*
X6286215Y-16257665D01*
X6440191Y-16166065D01*
X6565506Y-16092017D01*
X6660087Y-16036782D01*
X6721856Y-16001619D01*
X6742158Y-15990754D01*
X7143135Y-15813331D01*
X7558483Y-15674652D01*
X7985057Y-15574922D01*
X8419709Y-15514344D01*
X8859295Y-15493125D01*
X9300667Y-15511468D01*
%TD*%
D11*
%TO.C,*%
X0Y7395542D03*
%TD*%
%TO.C,*%
X265Y-53318400D03*
%TD*%
D12*
%TO.C,*%
X-8890000Y-50827080D03*
%TD*%
D11*
%TO.C,*%
X0Y33770000D03*
%TD*%
%TO.C,*%
X0Y-22821724D03*
%TD*%
D13*
%TO.C,*%
X8879946Y21889946D03*
%TD*%
D11*
%TO.C,*%
X-265Y-43143310D03*
%TD*%
D13*
%TO.C,*%
X8879946Y-6140007D03*
%TD*%
D14*
%TO.C,*%
X-6350001Y21889946D03*
%TD*%
D12*
%TO.C,*%
X8879946Y-50827080D03*
%TD*%
%TO.C,*%
X8879946Y-40654110D03*
%TD*%
D14*
%TO.C,*%
X0Y48690120D03*
%TD*%
D15*
%TO.C,*%
X8880001Y33469999D03*
%TD*%
D12*
%TO.C,*%
X8879946Y-30491997D03*
%TD*%
D14*
%TO.C,*%
X-6350001Y-6140007D03*
%TD*%
D13*
%TO.C,*%
X8879946Y7395542D03*
%TD*%
%TO.C,*%
X8879946Y-20329880D03*
%TD*%
D12*
%TO.C,*%
X-8890000Y-40652000D03*
%TD*%
D11*
%TO.C,*%
X-265Y-32981201D03*
%TD*%
D16*
%TO.C,*%
X-8890000Y-25709999D03*
%TD*%
M02*
