G04 #@! TF.GenerationSoftware,KiCad,Pcbnew,(6.0.9)*
G04 #@! TF.CreationDate,2022-11-24T13:13:05-08:00*
G04 #@! TF.ProjectId,vcf-20,7663662d-3230-42e6-9b69-6361645f7063,rev?*
G04 #@! TF.SameCoordinates,Original*
G04 #@! TF.FileFunction,Legend,Bot*
G04 #@! TF.FilePolarity,Positive*
%FSLAX46Y46*%
G04 Gerber Fmt 4.6, Leading zero omitted, Abs format (unit mm)*
G04 Created by KiCad (PCBNEW (6.0.9)) date 2022-11-24 13:13:05*
%MOMM*%
%LPD*%
G01*
G04 APERTURE LIST*
G04 Aperture macros list*
%AMRoundRect*
0 Rectangle with rounded corners*
0 $1 Rounding radius*
0 $2 $3 $4 $5 $6 $7 $8 $9 X,Y pos of 4 corners*
0 Add a 4 corners polygon primitive as box body*
4,1,4,$2,$3,$4,$5,$6,$7,$8,$9,$2,$3,0*
0 Add four circle primitives for the rounded corners*
1,1,$1+$1,$2,$3*
1,1,$1+$1,$4,$5*
1,1,$1+$1,$6,$7*
1,1,$1+$1,$8,$9*
0 Add four rect primitives between the rounded corners*
20,1,$1+$1,$2,$3,$4,$5,0*
20,1,$1+$1,$4,$5,$6,$7,0*
20,1,$1+$1,$6,$7,$8,$9,0*
20,1,$1+$1,$8,$9,$2,$3,0*%
G04 Aperture macros list end*
%ADD10C,0.100000*%
%ADD11C,0.150000*%
%ADD12C,0.120000*%
%ADD13RoundRect,0.151000X0.637500X0.100000X-0.637500X0.100000X-0.637500X-0.100000X0.637500X-0.100000X0*%
%ADD14RoundRect,0.251000X-0.200000X-0.275000X0.200000X-0.275000X0.200000X0.275000X-0.200000X0.275000X0*%
%ADD15RoundRect,0.051000X-0.900000X-0.900000X0.900000X-0.900000X0.900000X0.900000X-0.900000X0.900000X0*%
%ADD16C,1.902000*%
%ADD17C,2.302000*%
%ADD18RoundRect,0.051000X-0.900000X0.900000X-0.900000X-0.900000X0.900000X-0.900000X0.900000X0.900000X0*%
%ADD19O,2.822000X3.342000*%
%ADD20RoundRect,0.051000X0.900000X0.900000X-0.900000X0.900000X-0.900000X-0.900000X0.900000X-0.900000X0*%
%ADD21RoundRect,0.276000X0.225000X0.250000X-0.225000X0.250000X-0.225000X-0.250000X0.225000X-0.250000X0*%
%ADD22RoundRect,0.301000X-1.250000X-0.550000X1.250000X-0.550000X1.250000X0.550000X-1.250000X0.550000X0*%
%ADD23RoundRect,0.301000X-0.550000X1.250000X-0.550000X-1.250000X0.550000X-1.250000X0.550000X1.250000X0*%
%ADD24RoundRect,0.301000X-0.600000X-0.600000X0.600000X-0.600000X0.600000X0.600000X-0.600000X0.600000X0*%
%ADD25C,1.802000*%
%ADD26RoundRect,0.276000X-0.250000X0.225000X-0.250000X-0.225000X0.250000X-0.225000X0.250000X0.225000X0*%
%ADD27RoundRect,0.276000X-0.225000X-0.250000X0.225000X-0.250000X0.225000X0.250000X-0.225000X0.250000X0*%
%ADD28RoundRect,0.276000X0.250000X-0.225000X0.250000X0.225000X-0.250000X0.225000X-0.250000X-0.225000X0*%
%ADD29RoundRect,0.051000X-0.325000X-0.200000X0.325000X-0.200000X0.325000X0.200000X-0.325000X0.200000X0*%
%ADD30RoundRect,0.201000X-0.587500X-0.150000X0.587500X-0.150000X0.587500X0.150000X-0.587500X0.150000X0*%
%ADD31RoundRect,0.251000X0.200000X0.275000X-0.200000X0.275000X-0.200000X-0.275000X0.200000X-0.275000X0*%
%ADD32RoundRect,0.251000X0.275000X-0.200000X0.275000X0.200000X-0.275000X0.200000X-0.275000X-0.200000X0*%
%ADD33RoundRect,0.251000X-0.275000X0.200000X-0.275000X-0.200000X0.275000X-0.200000X0.275000X0.200000X0*%
%ADD34RoundRect,0.051000X0.600000X-0.600000X0.600000X0.600000X-0.600000X0.600000X-0.600000X-0.600000X0*%
%ADD35RoundRect,0.051000X0.800000X-0.750000X0.800000X0.750000X-0.800000X0.750000X-0.800000X-0.750000X0*%
%ADD36RoundRect,0.051000X0.600000X0.600000X-0.600000X0.600000X-0.600000X-0.600000X0.600000X-0.600000X0*%
%ADD37RoundRect,0.051000X0.750000X0.800000X-0.750000X0.800000X-0.750000X-0.800000X0.750000X-0.800000X0*%
%ADD38RoundRect,0.201000X0.150000X-0.825000X0.150000X0.825000X-0.150000X0.825000X-0.150000X-0.825000X0*%
%ADD39RoundRect,0.151000X0.100000X-0.637500X0.100000X0.637500X-0.100000X0.637500X-0.100000X-0.637500X0*%
%ADD40RoundRect,0.151000X-0.100000X0.637500X-0.100000X-0.637500X0.100000X-0.637500X0.100000X0.637500X0*%
G04 APERTURE END LIST*
D10*
G36*
X9906000Y-26162000D02*
G01*
X127000Y-26162000D01*
X127000Y-24892000D01*
X9906000Y-24892000D01*
X9906000Y-26162000D01*
G37*
X9906000Y-26162000D02*
X127000Y-26162000D01*
X127000Y-24892000D01*
X9906000Y-24892000D01*
X9906000Y-26162000D01*
D11*
X27809714Y-46126119D02*
X28619238Y-46126119D01*
X28714476Y-46078500D01*
X28762095Y-46030880D01*
X28809714Y-45935642D01*
X28809714Y-45792785D01*
X28762095Y-45697547D01*
X28428761Y-46126119D02*
X28476380Y-46030880D01*
X28476380Y-45840404D01*
X28428761Y-45745166D01*
X28381142Y-45697547D01*
X28285904Y-45649928D01*
X28000190Y-45649928D01*
X27904952Y-45697547D01*
X27857333Y-45745166D01*
X27809714Y-45840404D01*
X27809714Y-46030880D01*
X27857333Y-46126119D01*
X28476380Y-46602309D02*
X27809714Y-46602309D01*
X27476380Y-46602309D02*
X27524000Y-46554690D01*
X27571619Y-46602309D01*
X27524000Y-46649928D01*
X27476380Y-46602309D01*
X27571619Y-46602309D01*
X27809714Y-46935642D02*
X27809714Y-47316595D01*
X27476380Y-47078500D02*
X28333523Y-47078500D01*
X28428761Y-47126119D01*
X28476380Y-47221357D01*
X28476380Y-47316595D01*
X28476380Y-47649928D02*
X27476380Y-47649928D01*
X28476380Y-48078500D02*
X27952571Y-48078500D01*
X27857333Y-48030880D01*
X27809714Y-47935642D01*
X27809714Y-47792785D01*
X27857333Y-47697547D01*
X27904952Y-47649928D01*
X27809714Y-48983261D02*
X28476380Y-48983261D01*
X27809714Y-48554690D02*
X28333523Y-48554690D01*
X28428761Y-48602309D01*
X28476380Y-48697547D01*
X28476380Y-48840404D01*
X28428761Y-48935642D01*
X28381142Y-48983261D01*
X28476380Y-49459452D02*
X27476380Y-49459452D01*
X27857333Y-49459452D02*
X27809714Y-49554690D01*
X27809714Y-49745166D01*
X27857333Y-49840404D01*
X27904952Y-49888023D01*
X28000190Y-49935642D01*
X28285904Y-49935642D01*
X28381142Y-49888023D01*
X28428761Y-49840404D01*
X28476380Y-49745166D01*
X28476380Y-49554690D01*
X28428761Y-49459452D01*
X28381142Y-50364214D02*
X28428761Y-50411833D01*
X28476380Y-50364214D01*
X28428761Y-50316595D01*
X28381142Y-50364214D01*
X28476380Y-50364214D01*
X28428761Y-51268976D02*
X28476380Y-51173738D01*
X28476380Y-50983261D01*
X28428761Y-50888023D01*
X28381142Y-50840404D01*
X28285904Y-50792785D01*
X28000190Y-50792785D01*
X27904952Y-50840404D01*
X27857333Y-50888023D01*
X27809714Y-50983261D01*
X27809714Y-51173738D01*
X27857333Y-51268976D01*
X28476380Y-51840404D02*
X28428761Y-51745166D01*
X28381142Y-51697547D01*
X28285904Y-51649928D01*
X28000190Y-51649928D01*
X27904952Y-51697547D01*
X27857333Y-51745166D01*
X27809714Y-51840404D01*
X27809714Y-51983261D01*
X27857333Y-52078499D01*
X27904952Y-52126119D01*
X28000190Y-52173738D01*
X28285904Y-52173738D01*
X28381142Y-52126119D01*
X28428761Y-52078499D01*
X28476380Y-51983261D01*
X28476380Y-51840404D01*
X28476380Y-52602309D02*
X27809714Y-52602309D01*
X27904952Y-52602309D02*
X27857333Y-52649928D01*
X27809714Y-52745166D01*
X27809714Y-52888023D01*
X27857333Y-52983261D01*
X27952571Y-53030880D01*
X28476380Y-53030880D01*
X27952571Y-53030880D02*
X27857333Y-53078499D01*
X27809714Y-53173738D01*
X27809714Y-53316595D01*
X27857333Y-53411833D01*
X27952571Y-53459452D01*
X28476380Y-53459452D01*
X27428761Y-54649928D02*
X28714476Y-53792785D01*
X28428761Y-55411833D02*
X28476380Y-55316595D01*
X28476380Y-55126119D01*
X28428761Y-55030880D01*
X28381142Y-54983261D01*
X28285904Y-54935642D01*
X28000190Y-54935642D01*
X27904952Y-54983261D01*
X27857333Y-55030880D01*
X27809714Y-55126119D01*
X27809714Y-55316595D01*
X27857333Y-55411833D01*
X28476380Y-55983261D02*
X28428761Y-55888023D01*
X28381142Y-55840404D01*
X28285904Y-55792785D01*
X28000190Y-55792785D01*
X27904952Y-55840404D01*
X27857333Y-55888023D01*
X27809714Y-55983261D01*
X27809714Y-56126119D01*
X27857333Y-56221357D01*
X27904952Y-56268976D01*
X28000190Y-56316595D01*
X28285904Y-56316595D01*
X28381142Y-56268976D01*
X28428761Y-56221357D01*
X28476380Y-56126119D01*
X28476380Y-55983261D01*
X27809714Y-56649928D02*
X28476380Y-56888023D01*
X27809714Y-57126119D01*
X28428761Y-57888023D02*
X28476380Y-57792785D01*
X28476380Y-57602309D01*
X28428761Y-57507071D01*
X28333523Y-57459452D01*
X27952571Y-57459452D01*
X27857333Y-57507071D01*
X27809714Y-57602309D01*
X27809714Y-57792785D01*
X27857333Y-57888023D01*
X27952571Y-57935642D01*
X28047809Y-57935642D01*
X28143047Y-57459452D01*
X28476380Y-58364214D02*
X27809714Y-58364214D01*
X28000190Y-58364214D02*
X27904952Y-58411833D01*
X27857333Y-58459452D01*
X27809714Y-58554690D01*
X27809714Y-58649928D01*
X27809714Y-58840404D02*
X27809714Y-59221357D01*
X27476380Y-58983261D02*
X28333523Y-58983261D01*
X28428761Y-59030880D01*
X28476380Y-59126119D01*
X28476380Y-59221357D01*
X27809714Y-59554690D02*
X28476380Y-59554690D01*
X27904952Y-59554690D02*
X27857333Y-59602309D01*
X27809714Y-59697547D01*
X27809714Y-59840404D01*
X27857333Y-59935642D01*
X27952571Y-59983261D01*
X28476380Y-59983261D01*
X28428761Y-60840404D02*
X28476380Y-60745166D01*
X28476380Y-60554690D01*
X28428761Y-60459452D01*
X28333523Y-60411833D01*
X27952571Y-60411833D01*
X27857333Y-60459452D01*
X27809714Y-60554690D01*
X27809714Y-60745166D01*
X27857333Y-60840404D01*
X27952571Y-60888023D01*
X28047809Y-60888023D01*
X28143047Y-60411833D01*
X28476380Y-61316595D02*
X27476380Y-61316595D01*
X28095428Y-61411833D02*
X28476380Y-61697547D01*
X27809714Y-61697547D02*
X28190666Y-61316595D01*
X28476380Y-62268976D02*
X28428761Y-62173738D01*
X28381142Y-62126119D01*
X28285904Y-62078499D01*
X28000190Y-62078499D01*
X27904952Y-62126119D01*
X27857333Y-62173738D01*
X27809714Y-62268976D01*
X27809714Y-62411833D01*
X27857333Y-62507071D01*
X27904952Y-62554690D01*
X28000190Y-62602309D01*
X28285904Y-62602309D01*
X28381142Y-62554690D01*
X28428761Y-62507071D01*
X28476380Y-62411833D01*
X28476380Y-62268976D01*
X27428761Y-63745166D02*
X28714476Y-62888023D01*
X28476380Y-64078499D02*
X27476380Y-64078499D01*
X28095428Y-64173738D02*
X28476380Y-64459452D01*
X27809714Y-64459452D02*
X28190666Y-64078499D01*
X28476380Y-64888023D02*
X27809714Y-64888023D01*
X27476380Y-64888023D02*
X27524000Y-64840404D01*
X27571619Y-64888023D01*
X27524000Y-64935642D01*
X27476380Y-64888023D01*
X27571619Y-64888023D01*
X28476380Y-65507071D02*
X28428761Y-65411833D01*
X28333523Y-65364214D01*
X27476380Y-65364214D01*
X27809714Y-65745166D02*
X27809714Y-66126119D01*
X27476380Y-65888023D02*
X28333523Y-65888023D01*
X28428761Y-65935642D01*
X28476380Y-66030880D01*
X28476380Y-66126119D01*
X28428761Y-66840404D02*
X28476380Y-66745166D01*
X28476380Y-66554690D01*
X28428761Y-66459452D01*
X28333523Y-66411833D01*
X27952571Y-66411833D01*
X27857333Y-66459452D01*
X27809714Y-66554690D01*
X27809714Y-66745166D01*
X27857333Y-66840404D01*
X27952571Y-66888023D01*
X28047809Y-66888023D01*
X28143047Y-66411833D01*
X28476380Y-67316595D02*
X27809714Y-67316595D01*
X28000190Y-67316595D02*
X27904952Y-67364214D01*
X27857333Y-67411833D01*
X27809714Y-67507071D01*
X27809714Y-67602309D01*
X29038761Y-52745166D02*
X30324476Y-51888023D01*
X29419714Y-52935642D02*
X29419714Y-53316595D01*
X29086380Y-53078500D02*
X29943523Y-53078500D01*
X30038761Y-53126119D01*
X30086380Y-53221357D01*
X30086380Y-53316595D01*
X30086380Y-53649928D02*
X29419714Y-53649928D01*
X29610190Y-53649928D02*
X29514952Y-53697547D01*
X29467333Y-53745166D01*
X29419714Y-53840404D01*
X29419714Y-53935642D01*
X30038761Y-54649928D02*
X30086380Y-54554690D01*
X30086380Y-54364214D01*
X30038761Y-54268976D01*
X29943523Y-54221357D01*
X29562571Y-54221357D01*
X29467333Y-54268976D01*
X29419714Y-54364214D01*
X29419714Y-54554690D01*
X29467333Y-54649928D01*
X29562571Y-54697547D01*
X29657809Y-54697547D01*
X29753047Y-54221357D01*
X30038761Y-55507071D02*
X30086380Y-55411833D01*
X30086380Y-55221357D01*
X30038761Y-55126119D01*
X29943523Y-55078500D01*
X29562571Y-55078500D01*
X29467333Y-55126119D01*
X29419714Y-55221357D01*
X29419714Y-55411833D01*
X29467333Y-55507071D01*
X29562571Y-55554690D01*
X29657809Y-55554690D01*
X29753047Y-55078500D01*
X29038761Y-56697547D02*
X30324476Y-55840404D01*
X29419714Y-56935642D02*
X30086380Y-57173738D01*
X29419714Y-57411833D01*
X30086380Y-58316595D02*
X30086380Y-57745166D01*
X30086380Y-58030880D02*
X29086380Y-58030880D01*
X29229238Y-57935642D01*
X29324476Y-57840404D01*
X29372095Y-57745166D01*
X29991142Y-58745166D02*
X30038761Y-58792785D01*
X30086380Y-58745166D01*
X30038761Y-58697547D01*
X29991142Y-58745166D01*
X30086380Y-58745166D01*
X29086380Y-59411833D02*
X29086380Y-59507071D01*
X29134000Y-59602309D01*
X29181619Y-59649928D01*
X29276857Y-59697547D01*
X29467333Y-59745166D01*
X29705428Y-59745166D01*
X29895904Y-59697547D01*
X29991142Y-59649928D01*
X30038761Y-59602309D01*
X30086380Y-59507071D01*
X30086380Y-59411833D01*
X30038761Y-59316595D01*
X29991142Y-59268976D01*
X29895904Y-59221357D01*
X29705428Y-59173738D01*
X29467333Y-59173738D01*
X29276857Y-59221357D01*
X29181619Y-59268976D01*
X29134000Y-59316595D01*
X29086380Y-59411833D01*
X29991142Y-60173738D02*
X30038761Y-60221357D01*
X30086380Y-60173738D01*
X30038761Y-60126119D01*
X29991142Y-60173738D01*
X30086380Y-60173738D01*
X29086380Y-60840404D02*
X29086380Y-60935642D01*
X29134000Y-61030880D01*
X29181619Y-61078500D01*
X29276857Y-61126119D01*
X29467333Y-61173738D01*
X29705428Y-61173738D01*
X29895904Y-61126119D01*
X29991142Y-61078500D01*
X30038761Y-61030880D01*
X30086380Y-60935642D01*
X30086380Y-60840404D01*
X30038761Y-60745166D01*
X29991142Y-60697547D01*
X29895904Y-60649928D01*
X29705428Y-60602309D01*
X29467333Y-60602309D01*
X29276857Y-60649928D01*
X29181619Y-60697547D01*
X29134000Y-60745166D01*
X29086380Y-60840404D01*
D10*
X27660533Y-22476666D02*
X27660533Y-23043333D01*
X27627200Y-23110000D01*
X27593866Y-23143333D01*
X27527200Y-23176666D01*
X27393866Y-23176666D01*
X27327200Y-23143333D01*
X27293866Y-23110000D01*
X27260533Y-23043333D01*
X27260533Y-22476666D01*
X26827200Y-22776666D02*
X26893866Y-22743333D01*
X26927200Y-22710000D01*
X26960533Y-22643333D01*
X26960533Y-22610000D01*
X26927200Y-22543333D01*
X26893866Y-22510000D01*
X26827200Y-22476666D01*
X26693866Y-22476666D01*
X26627200Y-22510000D01*
X26593866Y-22543333D01*
X26560533Y-22610000D01*
X26560533Y-22643333D01*
X26593866Y-22710000D01*
X26627200Y-22743333D01*
X26693866Y-22776666D01*
X26827200Y-22776666D01*
X26893866Y-22810000D01*
X26927200Y-22843333D01*
X26960533Y-22910000D01*
X26960533Y-23043333D01*
X26927200Y-23110000D01*
X26893866Y-23143333D01*
X26827200Y-23176666D01*
X26693866Y-23176666D01*
X26627200Y-23143333D01*
X26593866Y-23110000D01*
X26560533Y-23043333D01*
X26560533Y-22910000D01*
X26593866Y-22843333D01*
X26627200Y-22810000D01*
X26693866Y-22776666D01*
X9035200Y-82130066D02*
X9268533Y-81796733D01*
X9435200Y-82130066D02*
X9435200Y-81430066D01*
X9168533Y-81430066D01*
X9101866Y-81463400D01*
X9068533Y-81496733D01*
X9035200Y-81563400D01*
X9035200Y-81663400D01*
X9068533Y-81730066D01*
X9101866Y-81763400D01*
X9168533Y-81796733D01*
X9435200Y-81796733D01*
X8435200Y-81430066D02*
X8568533Y-81430066D01*
X8635200Y-81463400D01*
X8668533Y-81496733D01*
X8735200Y-81596733D01*
X8768533Y-81730066D01*
X8768533Y-81996733D01*
X8735200Y-82063400D01*
X8701866Y-82096733D01*
X8635200Y-82130066D01*
X8501866Y-82130066D01*
X8435200Y-82096733D01*
X8401866Y-82063400D01*
X8368533Y-81996733D01*
X8368533Y-81830066D01*
X8401866Y-81763400D01*
X8435200Y-81730066D01*
X8501866Y-81696733D01*
X8635200Y-81696733D01*
X8701866Y-81730066D01*
X8735200Y-81763400D01*
X8768533Y-81830066D01*
X7701866Y-82130066D02*
X8101866Y-82130066D01*
X7901866Y-82130066D02*
X7901866Y-81430066D01*
X7968533Y-81530066D01*
X8035200Y-81596733D01*
X8101866Y-81630066D01*
X9035200Y-80504466D02*
X9268533Y-80171133D01*
X9435200Y-80504466D02*
X9435200Y-79804466D01*
X9168533Y-79804466D01*
X9101866Y-79837800D01*
X9068533Y-79871133D01*
X9035200Y-79937800D01*
X9035200Y-80037800D01*
X9068533Y-80104466D01*
X9101866Y-80137800D01*
X9168533Y-80171133D01*
X9435200Y-80171133D01*
X8435200Y-79804466D02*
X8568533Y-79804466D01*
X8635200Y-79837800D01*
X8668533Y-79871133D01*
X8735200Y-79971133D01*
X8768533Y-80104466D01*
X8768533Y-80371133D01*
X8735200Y-80437800D01*
X8701866Y-80471133D01*
X8635200Y-80504466D01*
X8501866Y-80504466D01*
X8435200Y-80471133D01*
X8401866Y-80437800D01*
X8368533Y-80371133D01*
X8368533Y-80204466D01*
X8401866Y-80137800D01*
X8435200Y-80104466D01*
X8501866Y-80071133D01*
X8635200Y-80071133D01*
X8701866Y-80104466D01*
X8735200Y-80137800D01*
X8768533Y-80204466D01*
X7935200Y-79804466D02*
X7868533Y-79804466D01*
X7801866Y-79837800D01*
X7768533Y-79871133D01*
X7735200Y-79937800D01*
X7701866Y-80071133D01*
X7701866Y-80237800D01*
X7735200Y-80371133D01*
X7768533Y-80437800D01*
X7801866Y-80471133D01*
X7868533Y-80504466D01*
X7935200Y-80504466D01*
X8001866Y-80471133D01*
X8035200Y-80437800D01*
X8068533Y-80371133D01*
X8101866Y-80237800D01*
X8101866Y-80071133D01*
X8068533Y-79937800D01*
X8035200Y-79871133D01*
X8001866Y-79837800D01*
X7935200Y-79804466D01*
X9811600Y-99124333D02*
X9578266Y-99457666D01*
X9411600Y-99124333D02*
X9411600Y-99824333D01*
X9678266Y-99824333D01*
X9744933Y-99791000D01*
X9778266Y-99757666D01*
X9811600Y-99691000D01*
X9811600Y-99591000D01*
X9778266Y-99524333D01*
X9744933Y-99491000D01*
X9678266Y-99457666D01*
X9411600Y-99457666D01*
X10444933Y-99824333D02*
X10111600Y-99824333D01*
X10078266Y-99491000D01*
X10111600Y-99524333D01*
X10178266Y-99557666D01*
X10344933Y-99557666D01*
X10411600Y-99524333D01*
X10444933Y-99491000D01*
X10478266Y-99424333D01*
X10478266Y-99257666D01*
X10444933Y-99191000D01*
X10411600Y-99157666D01*
X10344933Y-99124333D01*
X10178266Y-99124333D01*
X10111600Y-99157666D01*
X10078266Y-99191000D01*
X10811600Y-99124333D02*
X10944933Y-99124333D01*
X11011600Y-99157666D01*
X11044933Y-99191000D01*
X11111600Y-99291000D01*
X11144933Y-99424333D01*
X11144933Y-99691000D01*
X11111600Y-99757666D01*
X11078266Y-99791000D01*
X11011600Y-99824333D01*
X10878266Y-99824333D01*
X10811600Y-99791000D01*
X10778266Y-99757666D01*
X10744933Y-99691000D01*
X10744933Y-99524333D01*
X10778266Y-99457666D01*
X10811600Y-99424333D01*
X10878266Y-99391000D01*
X11011600Y-99391000D01*
X11078266Y-99424333D01*
X11111600Y-99457666D01*
X11144933Y-99524333D01*
X16690166Y-90991500D02*
X16723500Y-91024833D01*
X16823500Y-91058166D01*
X16890166Y-91058166D01*
X16990166Y-91024833D01*
X17056833Y-90958166D01*
X17090166Y-90891500D01*
X17123500Y-90758166D01*
X17123500Y-90658166D01*
X17090166Y-90524833D01*
X17056833Y-90458166D01*
X16990166Y-90391500D01*
X16890166Y-90358166D01*
X16823500Y-90358166D01*
X16723500Y-90391500D01*
X16690166Y-90424833D01*
X16290166Y-90658166D02*
X16356833Y-90624833D01*
X16390166Y-90591500D01*
X16423500Y-90524833D01*
X16423500Y-90491500D01*
X16390166Y-90424833D01*
X16356833Y-90391500D01*
X16290166Y-90358166D01*
X16156833Y-90358166D01*
X16090166Y-90391500D01*
X16056833Y-90424833D01*
X16023500Y-90491500D01*
X16023500Y-90524833D01*
X16056833Y-90591500D01*
X16090166Y-90624833D01*
X16156833Y-90658166D01*
X16290166Y-90658166D01*
X16356833Y-90691500D01*
X16390166Y-90724833D01*
X16423500Y-90791500D01*
X16423500Y-90924833D01*
X16390166Y-90991500D01*
X16356833Y-91024833D01*
X16290166Y-91058166D01*
X16156833Y-91058166D01*
X16090166Y-91024833D01*
X16056833Y-90991500D01*
X16023500Y-90924833D01*
X16023500Y-90791500D01*
X16056833Y-90724833D01*
X16090166Y-90691500D01*
X16156833Y-90658166D01*
X11292666Y-93214000D02*
X11326000Y-93247333D01*
X11426000Y-93280666D01*
X11492666Y-93280666D01*
X11592666Y-93247333D01*
X11659333Y-93180666D01*
X11692666Y-93114000D01*
X11726000Y-92980666D01*
X11726000Y-92880666D01*
X11692666Y-92747333D01*
X11659333Y-92680666D01*
X11592666Y-92614000D01*
X11492666Y-92580666D01*
X11426000Y-92580666D01*
X11326000Y-92614000D01*
X11292666Y-92647333D01*
X10959333Y-93280666D02*
X10826000Y-93280666D01*
X10759333Y-93247333D01*
X10726000Y-93214000D01*
X10659333Y-93114000D01*
X10626000Y-92980666D01*
X10626000Y-92714000D01*
X10659333Y-92647333D01*
X10692666Y-92614000D01*
X10759333Y-92580666D01*
X10892666Y-92580666D01*
X10959333Y-92614000D01*
X10992666Y-92647333D01*
X11026000Y-92714000D01*
X11026000Y-92880666D01*
X10992666Y-92947333D01*
X10959333Y-92980666D01*
X10892666Y-93014000D01*
X10759333Y-93014000D01*
X10692666Y-92980666D01*
X10659333Y-92947333D01*
X10626000Y-92880666D01*
X14039000Y-109787500D02*
X14072333Y-109820833D01*
X14172333Y-109854166D01*
X14239000Y-109854166D01*
X14339000Y-109820833D01*
X14405666Y-109754166D01*
X14439000Y-109687500D01*
X14472333Y-109554166D01*
X14472333Y-109454166D01*
X14439000Y-109320833D01*
X14405666Y-109254166D01*
X14339000Y-109187500D01*
X14239000Y-109154166D01*
X14172333Y-109154166D01*
X14072333Y-109187500D01*
X14039000Y-109220833D01*
X13372333Y-109854166D02*
X13772333Y-109854166D01*
X13572333Y-109854166D02*
X13572333Y-109154166D01*
X13639000Y-109254166D01*
X13705666Y-109320833D01*
X13772333Y-109354166D01*
X12939000Y-109154166D02*
X12872333Y-109154166D01*
X12805666Y-109187500D01*
X12772333Y-109220833D01*
X12739000Y-109287500D01*
X12705666Y-109420833D01*
X12705666Y-109587500D01*
X12739000Y-109720833D01*
X12772333Y-109787500D01*
X12805666Y-109820833D01*
X12872333Y-109854166D01*
X12939000Y-109854166D01*
X13005666Y-109820833D01*
X13039000Y-109787500D01*
X13072333Y-109720833D01*
X13105666Y-109587500D01*
X13105666Y-109420833D01*
X13072333Y-109287500D01*
X13039000Y-109220833D01*
X13005666Y-109187500D01*
X12939000Y-109154166D01*
X27247000Y-102294500D02*
X27280333Y-102327833D01*
X27380333Y-102361166D01*
X27447000Y-102361166D01*
X27547000Y-102327833D01*
X27613666Y-102261166D01*
X27647000Y-102194500D01*
X27680333Y-102061166D01*
X27680333Y-101961166D01*
X27647000Y-101827833D01*
X27613666Y-101761166D01*
X27547000Y-101694500D01*
X27447000Y-101661166D01*
X27380333Y-101661166D01*
X27280333Y-101694500D01*
X27247000Y-101727833D01*
X26580333Y-102361166D02*
X26980333Y-102361166D01*
X26780333Y-102361166D02*
X26780333Y-101661166D01*
X26847000Y-101761166D01*
X26913666Y-101827833D01*
X26980333Y-101861166D01*
X25913666Y-102361166D02*
X26313666Y-102361166D01*
X26113666Y-102361166D02*
X26113666Y-101661166D01*
X26180333Y-101761166D01*
X26247000Y-101827833D01*
X26313666Y-101861166D01*
X29961666Y-11680000D02*
X29995000Y-11713333D01*
X30095000Y-11746666D01*
X30161666Y-11746666D01*
X30261666Y-11713333D01*
X30328333Y-11646666D01*
X30361666Y-11580000D01*
X30395000Y-11446666D01*
X30395000Y-11346666D01*
X30361666Y-11213333D01*
X30328333Y-11146666D01*
X30261666Y-11080000D01*
X30161666Y-11046666D01*
X30095000Y-11046666D01*
X29995000Y-11080000D01*
X29961666Y-11113333D01*
X29295000Y-11746666D02*
X29695000Y-11746666D01*
X29495000Y-11746666D02*
X29495000Y-11046666D01*
X29561666Y-11146666D01*
X29628333Y-11213333D01*
X29695000Y-11246666D01*
X17515666Y-20021000D02*
X17549000Y-20054333D01*
X17649000Y-20087666D01*
X17715666Y-20087666D01*
X17815666Y-20054333D01*
X17882333Y-19987666D01*
X17915666Y-19921000D01*
X17949000Y-19787666D01*
X17949000Y-19687666D01*
X17915666Y-19554333D01*
X17882333Y-19487666D01*
X17815666Y-19421000D01*
X17715666Y-19387666D01*
X17649000Y-19387666D01*
X17549000Y-19421000D01*
X17515666Y-19454333D01*
X16915666Y-19621000D02*
X16915666Y-20087666D01*
X17082333Y-19354333D02*
X17249000Y-19854333D01*
X16815666Y-19854333D01*
X20627166Y-19554000D02*
X20660500Y-19587333D01*
X20760500Y-19620666D01*
X20827166Y-19620666D01*
X20927166Y-19587333D01*
X20993833Y-19520666D01*
X21027166Y-19454000D01*
X21060500Y-19320666D01*
X21060500Y-19220666D01*
X21027166Y-19087333D01*
X20993833Y-19020666D01*
X20927166Y-18954000D01*
X20827166Y-18920666D01*
X20760500Y-18920666D01*
X20660500Y-18954000D01*
X20627166Y-18987333D01*
X20360500Y-18987333D02*
X20327166Y-18954000D01*
X20260500Y-18920666D01*
X20093833Y-18920666D01*
X20027166Y-18954000D01*
X19993833Y-18987333D01*
X19960500Y-19054000D01*
X19960500Y-19120666D01*
X19993833Y-19220666D01*
X20393833Y-19620666D01*
X19960500Y-19620666D01*
X18087166Y-21395500D02*
X18120500Y-21428833D01*
X18220500Y-21462166D01*
X18287166Y-21462166D01*
X18387166Y-21428833D01*
X18453833Y-21362166D01*
X18487166Y-21295500D01*
X18520500Y-21162166D01*
X18520500Y-21062166D01*
X18487166Y-20928833D01*
X18453833Y-20862166D01*
X18387166Y-20795500D01*
X18287166Y-20762166D01*
X18220500Y-20762166D01*
X18120500Y-20795500D01*
X18087166Y-20828833D01*
X17453833Y-20762166D02*
X17787166Y-20762166D01*
X17820500Y-21095500D01*
X17787166Y-21062166D01*
X17720500Y-21028833D01*
X17553833Y-21028833D01*
X17487166Y-21062166D01*
X17453833Y-21095500D01*
X17420500Y-21162166D01*
X17420500Y-21328833D01*
X17453833Y-21395500D01*
X17487166Y-21428833D01*
X17553833Y-21462166D01*
X17720500Y-21462166D01*
X17787166Y-21428833D01*
X17820500Y-21395500D01*
X20014333Y-11253000D02*
X20247666Y-11253000D01*
X20247666Y-11619666D02*
X20247666Y-10919666D01*
X19914333Y-10919666D01*
X19414333Y-11253000D02*
X19314333Y-11286333D01*
X19281000Y-11319666D01*
X19247666Y-11386333D01*
X19247666Y-11486333D01*
X19281000Y-11553000D01*
X19314333Y-11586333D01*
X19381000Y-11619666D01*
X19647666Y-11619666D01*
X19647666Y-10919666D01*
X19414333Y-10919666D01*
X19347666Y-10953000D01*
X19314333Y-10986333D01*
X19281000Y-11053000D01*
X19281000Y-11119666D01*
X19314333Y-11186333D01*
X19347666Y-11219666D01*
X19414333Y-11253000D01*
X19647666Y-11253000D01*
X18581000Y-11619666D02*
X18981000Y-11619666D01*
X18781000Y-11619666D02*
X18781000Y-10919666D01*
X18847666Y-11019666D01*
X18914333Y-11086333D01*
X18981000Y-11119666D01*
X11937133Y-19914400D02*
X12170466Y-19914400D01*
X12170466Y-20281066D02*
X12170466Y-19581066D01*
X11837133Y-19581066D01*
X11337133Y-19914400D02*
X11237133Y-19947733D01*
X11203800Y-19981066D01*
X11170466Y-20047733D01*
X11170466Y-20147733D01*
X11203800Y-20214400D01*
X11237133Y-20247733D01*
X11303800Y-20281066D01*
X11570466Y-20281066D01*
X11570466Y-19581066D01*
X11337133Y-19581066D01*
X11270466Y-19614400D01*
X11237133Y-19647733D01*
X11203800Y-19714400D01*
X11203800Y-19781066D01*
X11237133Y-19847733D01*
X11270466Y-19881066D01*
X11337133Y-19914400D01*
X11570466Y-19914400D01*
X10903800Y-19647733D02*
X10870466Y-19614400D01*
X10803800Y-19581066D01*
X10637133Y-19581066D01*
X10570466Y-19614400D01*
X10537133Y-19647733D01*
X10503800Y-19714400D01*
X10503800Y-19781066D01*
X10537133Y-19881066D01*
X10937133Y-20281066D01*
X10503800Y-20281066D01*
X1808133Y-30985666D02*
X1808133Y-31485666D01*
X1841466Y-31585666D01*
X1908133Y-31652333D01*
X2008133Y-31685666D01*
X2074800Y-31685666D01*
X1174800Y-30985666D02*
X1308133Y-30985666D01*
X1374800Y-31019000D01*
X1408133Y-31052333D01*
X1474800Y-31152333D01*
X1508133Y-31285666D01*
X1508133Y-31552333D01*
X1474800Y-31619000D01*
X1441466Y-31652333D01*
X1374800Y-31685666D01*
X1241466Y-31685666D01*
X1174800Y-31652333D01*
X1141466Y-31619000D01*
X1108133Y-31552333D01*
X1108133Y-31385666D01*
X1141466Y-31319000D01*
X1174800Y-31285666D01*
X1241466Y-31252333D01*
X1374800Y-31252333D01*
X1441466Y-31285666D01*
X1474800Y-31319000D01*
X1508133Y-31385666D01*
X16690166Y-89216666D02*
X16923500Y-88883333D01*
X17090166Y-89216666D02*
X17090166Y-88516666D01*
X16823500Y-88516666D01*
X16756833Y-88550000D01*
X16723500Y-88583333D01*
X16690166Y-88650000D01*
X16690166Y-88750000D01*
X16723500Y-88816666D01*
X16756833Y-88850000D01*
X16823500Y-88883333D01*
X17090166Y-88883333D01*
X16023500Y-89216666D02*
X16423500Y-89216666D01*
X16223500Y-89216666D02*
X16223500Y-88516666D01*
X16290166Y-88616666D01*
X16356833Y-88683333D01*
X16423500Y-88716666D01*
X645333Y-87380000D02*
X611999Y-87346666D01*
X512000Y-87313333D01*
X445333Y-87313333D01*
X345333Y-87346666D01*
X278666Y-87413333D01*
X245333Y-87480000D01*
X212000Y-87613333D01*
X212000Y-87713333D01*
X245333Y-87846666D01*
X278666Y-87913333D01*
X345333Y-87980000D01*
X445333Y-88013333D01*
X511999Y-88013333D01*
X611999Y-87980000D01*
X645333Y-87946666D01*
X1245333Y-88013333D02*
X1112000Y-88013333D01*
X1045333Y-87980000D01*
X1011999Y-87946666D01*
X945333Y-87846666D01*
X911999Y-87713333D01*
X911999Y-87446666D01*
X945333Y-87380000D01*
X978666Y-87346666D01*
X1045333Y-87313333D01*
X1178666Y-87313333D01*
X1245333Y-87346666D01*
X1278666Y-87380000D01*
X1312000Y-87446666D01*
X1312000Y-87613333D01*
X1278666Y-87680000D01*
X1245333Y-87713333D01*
X1178666Y-87746666D01*
X1045333Y-87746666D01*
X978666Y-87713333D01*
X945333Y-87680000D01*
X911999Y-87613333D01*
X6233333Y-79569500D02*
X6200000Y-79536166D01*
X6100000Y-79502833D01*
X6033333Y-79502833D01*
X5933333Y-79536166D01*
X5866666Y-79602833D01*
X5833333Y-79669500D01*
X5800000Y-79802833D01*
X5800000Y-79902833D01*
X5833333Y-80036166D01*
X5866666Y-80102833D01*
X5933333Y-80169500D01*
X6033333Y-80202833D01*
X6100000Y-80202833D01*
X6200000Y-80169500D01*
X6233333Y-80136166D01*
X6466666Y-80202833D02*
X6933333Y-80202833D01*
X6633333Y-79502833D01*
X18357000Y-65528000D02*
X18390333Y-65561333D01*
X18490333Y-65594666D01*
X18557000Y-65594666D01*
X18657000Y-65561333D01*
X18723666Y-65494666D01*
X18757000Y-65428000D01*
X18790333Y-65294666D01*
X18790333Y-65194666D01*
X18757000Y-65061333D01*
X18723666Y-64994666D01*
X18657000Y-64928000D01*
X18557000Y-64894666D01*
X18490333Y-64894666D01*
X18390333Y-64928000D01*
X18357000Y-64961333D01*
X17690333Y-65594666D02*
X18090333Y-65594666D01*
X17890333Y-65594666D02*
X17890333Y-64894666D01*
X17957000Y-64994666D01*
X18023666Y-65061333D01*
X18090333Y-65094666D01*
X17090333Y-65128000D02*
X17090333Y-65594666D01*
X17257000Y-64861333D02*
X17423666Y-65361333D01*
X16990333Y-65361333D01*
X26358000Y-76424600D02*
X26391333Y-76457933D01*
X26491333Y-76491266D01*
X26558000Y-76491266D01*
X26658000Y-76457933D01*
X26724666Y-76391266D01*
X26758000Y-76324600D01*
X26791333Y-76191266D01*
X26791333Y-76091266D01*
X26758000Y-75957933D01*
X26724666Y-75891266D01*
X26658000Y-75824600D01*
X26558000Y-75791266D01*
X26491333Y-75791266D01*
X26391333Y-75824600D01*
X26358000Y-75857933D01*
X26091333Y-75857933D02*
X26058000Y-75824600D01*
X25991333Y-75791266D01*
X25824666Y-75791266D01*
X25758000Y-75824600D01*
X25724666Y-75857933D01*
X25691333Y-75924600D01*
X25691333Y-75991266D01*
X25724666Y-76091266D01*
X26124666Y-76491266D01*
X25691333Y-76491266D01*
X25091333Y-75791266D02*
X25224666Y-75791266D01*
X25291333Y-75824600D01*
X25324666Y-75857933D01*
X25391333Y-75957933D01*
X25424666Y-76091266D01*
X25424666Y-76357933D01*
X25391333Y-76424600D01*
X25358000Y-76457933D01*
X25291333Y-76491266D01*
X25158000Y-76491266D01*
X25091333Y-76457933D01*
X25058000Y-76424600D01*
X25024666Y-76357933D01*
X25024666Y-76191266D01*
X25058000Y-76124600D01*
X25091333Y-76091266D01*
X25158000Y-76057933D01*
X25291333Y-76057933D01*
X25358000Y-76091266D01*
X25391333Y-76124600D01*
X25424666Y-76191266D01*
X2101000Y-60003500D02*
X2134333Y-60036833D01*
X2234333Y-60070166D01*
X2301000Y-60070166D01*
X2401000Y-60036833D01*
X2467666Y-59970166D01*
X2501000Y-59903500D01*
X2534333Y-59770166D01*
X2534333Y-59670166D01*
X2501000Y-59536833D01*
X2467666Y-59470166D01*
X2401000Y-59403500D01*
X2301000Y-59370166D01*
X2234333Y-59370166D01*
X2134333Y-59403500D01*
X2101000Y-59436833D01*
X1434333Y-60070166D02*
X1834333Y-60070166D01*
X1634333Y-60070166D02*
X1634333Y-59370166D01*
X1701000Y-59470166D01*
X1767666Y-59536833D01*
X1834333Y-59570166D01*
X1167666Y-59436833D02*
X1134333Y-59403500D01*
X1067666Y-59370166D01*
X900999Y-59370166D01*
X834333Y-59403500D01*
X801000Y-59436833D01*
X767666Y-59503500D01*
X767666Y-59570166D01*
X801000Y-59670166D01*
X1201000Y-60070166D01*
X767666Y-60070166D01*
X17341000Y-47113000D02*
X17374333Y-47146333D01*
X17474333Y-47179666D01*
X17541000Y-47179666D01*
X17641000Y-47146333D01*
X17707666Y-47079666D01*
X17741000Y-47013000D01*
X17774333Y-46879666D01*
X17774333Y-46779666D01*
X17741000Y-46646333D01*
X17707666Y-46579666D01*
X17641000Y-46513000D01*
X17541000Y-46479666D01*
X17474333Y-46479666D01*
X17374333Y-46513000D01*
X17341000Y-46546333D01*
X17074333Y-46546333D02*
X17041000Y-46513000D01*
X16974333Y-46479666D01*
X16807666Y-46479666D01*
X16741000Y-46513000D01*
X16707666Y-46546333D01*
X16674333Y-46613000D01*
X16674333Y-46679666D01*
X16707666Y-46779666D01*
X17107666Y-47179666D01*
X16674333Y-47179666D01*
X16441000Y-46479666D02*
X15974333Y-46479666D01*
X16274333Y-47179666D01*
X629500Y-53636000D02*
X596166Y-53602666D01*
X496166Y-53569333D01*
X429500Y-53569333D01*
X329500Y-53602666D01*
X262833Y-53669333D01*
X229500Y-53736000D01*
X196166Y-53869333D01*
X196166Y-53969333D01*
X229500Y-54102666D01*
X262833Y-54169333D01*
X329500Y-54236000D01*
X429500Y-54269333D01*
X496166Y-54269333D01*
X596166Y-54236000D01*
X629500Y-54202666D01*
X1296166Y-53569333D02*
X896166Y-53569333D01*
X1096166Y-53569333D02*
X1096166Y-54269333D01*
X1029500Y-54169333D01*
X962833Y-54102666D01*
X896166Y-54069333D01*
X1929500Y-54269333D02*
X1596166Y-54269333D01*
X1562833Y-53936000D01*
X1596166Y-53969333D01*
X1662833Y-54002666D01*
X1829500Y-54002666D01*
X1896166Y-53969333D01*
X1929500Y-53936000D01*
X1962833Y-53869333D01*
X1962833Y-53702666D01*
X1929500Y-53636000D01*
X1896166Y-53602666D01*
X1829500Y-53569333D01*
X1662833Y-53569333D01*
X1596166Y-53602666D01*
X1562833Y-53636000D01*
X21140000Y-22178200D02*
X21106666Y-22144866D01*
X21006666Y-22111533D01*
X20940000Y-22111533D01*
X20840000Y-22144866D01*
X20773333Y-22211533D01*
X20740000Y-22278200D01*
X20706666Y-22411533D01*
X20706666Y-22511533D01*
X20740000Y-22644866D01*
X20773333Y-22711533D01*
X20840000Y-22778200D01*
X20940000Y-22811533D01*
X21006666Y-22811533D01*
X21106666Y-22778200D01*
X21140000Y-22744866D01*
X21406666Y-22744866D02*
X21440000Y-22778200D01*
X21506666Y-22811533D01*
X21673333Y-22811533D01*
X21740000Y-22778200D01*
X21773333Y-22744866D01*
X21806666Y-22678200D01*
X21806666Y-22611533D01*
X21773333Y-22511533D01*
X21373333Y-22111533D01*
X21806666Y-22111533D01*
X22240000Y-22811533D02*
X22306666Y-22811533D01*
X22373333Y-22778200D01*
X22406666Y-22744866D01*
X22440000Y-22678200D01*
X22473333Y-22544866D01*
X22473333Y-22378200D01*
X22440000Y-22244866D01*
X22406666Y-22178200D01*
X22373333Y-22144866D01*
X22306666Y-22111533D01*
X22240000Y-22111533D01*
X22173333Y-22144866D01*
X22140000Y-22178200D01*
X22106666Y-22244866D01*
X22073333Y-22378200D01*
X22073333Y-22544866D01*
X22106666Y-22678200D01*
X22140000Y-22744866D01*
X22173333Y-22778200D01*
X22240000Y-22811533D01*
X502500Y-67123500D02*
X469166Y-67090166D01*
X369166Y-67056833D01*
X302500Y-67056833D01*
X202500Y-67090166D01*
X135833Y-67156833D01*
X102500Y-67223500D01*
X69166Y-67356833D01*
X69166Y-67456833D01*
X102500Y-67590166D01*
X135833Y-67656833D01*
X202500Y-67723500D01*
X302500Y-67756833D01*
X369166Y-67756833D01*
X469166Y-67723500D01*
X502499Y-67690166D01*
X769166Y-67690166D02*
X802500Y-67723500D01*
X869166Y-67756833D01*
X1035833Y-67756833D01*
X1102500Y-67723500D01*
X1135833Y-67690166D01*
X1169166Y-67623500D01*
X1169166Y-67556833D01*
X1135833Y-67456833D01*
X735833Y-67056833D01*
X1169166Y-67056833D01*
X1569166Y-67456833D02*
X1502500Y-67490166D01*
X1469166Y-67523500D01*
X1435833Y-67590166D01*
X1435833Y-67623500D01*
X1469166Y-67690166D01*
X1502500Y-67723500D01*
X1569166Y-67756833D01*
X1702500Y-67756833D01*
X1769166Y-67723500D01*
X1802500Y-67690166D01*
X1835833Y-67623500D01*
X1835833Y-67590166D01*
X1802500Y-67523500D01*
X1769166Y-67490166D01*
X1702500Y-67456833D01*
X1569166Y-67456833D01*
X1502500Y-67423500D01*
X1469166Y-67390166D01*
X1435833Y-67323500D01*
X1435833Y-67190166D01*
X1469166Y-67123500D01*
X1502500Y-67090166D01*
X1569166Y-67056833D01*
X1702500Y-67056833D01*
X1769166Y-67090166D01*
X1802500Y-67123500D01*
X1835833Y-67190166D01*
X1835833Y-67323500D01*
X1802500Y-67390166D01*
X1769166Y-67423500D01*
X1702500Y-67456833D01*
X11996000Y-55693500D02*
X11962666Y-55660166D01*
X11862666Y-55626833D01*
X11796000Y-55626833D01*
X11696000Y-55660166D01*
X11629333Y-55726833D01*
X11596000Y-55793500D01*
X11562666Y-55926833D01*
X11562666Y-56026833D01*
X11596000Y-56160166D01*
X11629333Y-56226833D01*
X11696000Y-56293500D01*
X11796000Y-56326833D01*
X11862666Y-56326833D01*
X11962666Y-56293500D01*
X11996000Y-56260166D01*
X12662666Y-55626833D02*
X12262666Y-55626833D01*
X12462666Y-55626833D02*
X12462666Y-56326833D01*
X12396000Y-56226833D01*
X12329333Y-56160166D01*
X12262666Y-56126833D01*
X13262666Y-56326833D02*
X13129333Y-56326833D01*
X13062666Y-56293500D01*
X13029333Y-56260166D01*
X12962666Y-56160166D01*
X12929333Y-56026833D01*
X12929333Y-55760166D01*
X12962666Y-55693500D01*
X12996000Y-55660166D01*
X13062666Y-55626833D01*
X13196000Y-55626833D01*
X13262666Y-55660166D01*
X13296000Y-55693500D01*
X13329333Y-55760166D01*
X13329333Y-55926833D01*
X13296000Y-55993500D01*
X13262666Y-56026833D01*
X13196000Y-56060166D01*
X13062666Y-56060166D01*
X12996000Y-56026833D01*
X12962666Y-55993500D01*
X12929333Y-55926833D01*
X18930200Y-26978700D02*
X18896866Y-26945366D01*
X18796866Y-26912033D01*
X18730200Y-26912033D01*
X18630200Y-26945366D01*
X18563533Y-27012033D01*
X18530200Y-27078700D01*
X18496866Y-27212033D01*
X18496866Y-27312033D01*
X18530200Y-27445366D01*
X18563533Y-27512033D01*
X18630200Y-27578700D01*
X18730200Y-27612033D01*
X18796866Y-27612033D01*
X18896866Y-27578700D01*
X18930200Y-27545366D01*
X19196866Y-27545366D02*
X19230200Y-27578700D01*
X19296866Y-27612033D01*
X19463533Y-27612033D01*
X19530200Y-27578700D01*
X19563533Y-27545366D01*
X19596866Y-27478700D01*
X19596866Y-27412033D01*
X19563533Y-27312033D01*
X19163533Y-26912033D01*
X19596866Y-26912033D01*
X20263533Y-26912033D02*
X19863533Y-26912033D01*
X20063533Y-26912033D02*
X20063533Y-27612033D01*
X19996866Y-27512033D01*
X19930200Y-27445366D01*
X19863533Y-27412033D01*
X1466000Y-62861000D02*
X1499333Y-62894333D01*
X1599333Y-62927666D01*
X1666000Y-62927666D01*
X1766000Y-62894333D01*
X1832666Y-62827666D01*
X1865999Y-62761000D01*
X1899333Y-62627666D01*
X1899333Y-62527666D01*
X1865999Y-62394333D01*
X1832666Y-62327666D01*
X1766000Y-62261000D01*
X1666000Y-62227666D01*
X1599333Y-62227666D01*
X1499333Y-62261000D01*
X1466000Y-62294333D01*
X1199333Y-62294333D02*
X1165999Y-62261000D01*
X1099333Y-62227666D01*
X932666Y-62227666D01*
X865999Y-62261000D01*
X832666Y-62294333D01*
X799333Y-62361000D01*
X799333Y-62427666D01*
X832666Y-62527666D01*
X1232666Y-62927666D01*
X799333Y-62927666D01*
X465999Y-62927666D02*
X332666Y-62927666D01*
X265999Y-62894333D01*
X232666Y-62861000D01*
X166000Y-62761000D01*
X132666Y-62627666D01*
X132666Y-62361000D01*
X166000Y-62294333D01*
X199333Y-62261000D01*
X265999Y-62227666D01*
X399333Y-62227666D01*
X465999Y-62261000D01*
X499333Y-62294333D01*
X532666Y-62361000D01*
X532666Y-62527666D01*
X499333Y-62594333D01*
X465999Y-62627666D01*
X399333Y-62661000D01*
X265999Y-62661000D01*
X199333Y-62627666D01*
X166000Y-62594333D01*
X132666Y-62527666D01*
X20134900Y-78024800D02*
X20168233Y-78058133D01*
X20268233Y-78091466D01*
X20334900Y-78091466D01*
X20434900Y-78058133D01*
X20501566Y-77991466D01*
X20534900Y-77924800D01*
X20568233Y-77791466D01*
X20568233Y-77691466D01*
X20534900Y-77558133D01*
X20501566Y-77491466D01*
X20434900Y-77424800D01*
X20334900Y-77391466D01*
X20268233Y-77391466D01*
X20168233Y-77424800D01*
X20134900Y-77458133D01*
X19868233Y-77458133D02*
X19834900Y-77424800D01*
X19768233Y-77391466D01*
X19601566Y-77391466D01*
X19534900Y-77424800D01*
X19501566Y-77458133D01*
X19468233Y-77524800D01*
X19468233Y-77591466D01*
X19501566Y-77691466D01*
X19901566Y-78091466D01*
X19468233Y-78091466D01*
X18868233Y-77624800D02*
X18868233Y-78091466D01*
X19034900Y-77358133D02*
X19201566Y-77858133D01*
X18768233Y-77858133D01*
X14623200Y-84476400D02*
X14656533Y-84509733D01*
X14756533Y-84543066D01*
X14823200Y-84543066D01*
X14923200Y-84509733D01*
X14989866Y-84443066D01*
X15023200Y-84376400D01*
X15056533Y-84243066D01*
X15056533Y-84143066D01*
X15023200Y-84009733D01*
X14989866Y-83943066D01*
X14923200Y-83876400D01*
X14823200Y-83843066D01*
X14756533Y-83843066D01*
X14656533Y-83876400D01*
X14623200Y-83909733D01*
X14356533Y-83909733D02*
X14323200Y-83876400D01*
X14256533Y-83843066D01*
X14089866Y-83843066D01*
X14023200Y-83876400D01*
X13989866Y-83909733D01*
X13956533Y-83976400D01*
X13956533Y-84043066D01*
X13989866Y-84143066D01*
X14389866Y-84543066D01*
X13956533Y-84543066D01*
X13323200Y-83843066D02*
X13656533Y-83843066D01*
X13689866Y-84176400D01*
X13656533Y-84143066D01*
X13589866Y-84109733D01*
X13423200Y-84109733D01*
X13356533Y-84143066D01*
X13323200Y-84176400D01*
X13289866Y-84243066D01*
X13289866Y-84409733D01*
X13323200Y-84476400D01*
X13356533Y-84509733D01*
X13423200Y-84543066D01*
X13589866Y-84543066D01*
X13656533Y-84509733D01*
X13689866Y-84476400D01*
X27140866Y-17080666D02*
X27140866Y-16380666D01*
X26974200Y-16380666D01*
X26874200Y-16414000D01*
X26807533Y-16480666D01*
X26774200Y-16547333D01*
X26740866Y-16680666D01*
X26740866Y-16780666D01*
X26774200Y-16914000D01*
X26807533Y-16980666D01*
X26874200Y-17047333D01*
X26974200Y-17080666D01*
X27140866Y-17080666D01*
X26140866Y-16380666D02*
X26274200Y-16380666D01*
X26340866Y-16414000D01*
X26374200Y-16447333D01*
X26440866Y-16547333D01*
X26474200Y-16680666D01*
X26474200Y-16947333D01*
X26440866Y-17014000D01*
X26407533Y-17047333D01*
X26340866Y-17080666D01*
X26207533Y-17080666D01*
X26140866Y-17047333D01*
X26107533Y-17014000D01*
X26074200Y-16947333D01*
X26074200Y-16780666D01*
X26107533Y-16714000D01*
X26140866Y-16680666D01*
X26207533Y-16647333D01*
X26340866Y-16647333D01*
X26407533Y-16680666D01*
X26440866Y-16714000D01*
X26474200Y-16780666D01*
X19338933Y-75886266D02*
X19272266Y-75919600D01*
X19205600Y-75986266D01*
X19105600Y-76086266D01*
X19038933Y-76119600D01*
X18972266Y-76119600D01*
X19005600Y-75952933D02*
X18938933Y-75986266D01*
X18872266Y-76052933D01*
X18838933Y-76186266D01*
X18838933Y-76419600D01*
X18872266Y-76552933D01*
X18938933Y-76619600D01*
X19005600Y-76652933D01*
X19138933Y-76652933D01*
X19205600Y-76619600D01*
X19272266Y-76552933D01*
X19305600Y-76419600D01*
X19305600Y-76186266D01*
X19272266Y-76052933D01*
X19205600Y-75986266D01*
X19138933Y-75952933D01*
X19005600Y-75952933D01*
X19972266Y-75952933D02*
X19572266Y-75952933D01*
X19772266Y-75952933D02*
X19772266Y-76652933D01*
X19705600Y-76552933D01*
X19638933Y-76486266D01*
X19572266Y-76452933D01*
X23612466Y-35105133D02*
X23679133Y-35071800D01*
X23745800Y-35005133D01*
X23845800Y-34905133D01*
X23912466Y-34871800D01*
X23979133Y-34871800D01*
X23945800Y-35038466D02*
X24012466Y-35005133D01*
X24079133Y-34938466D01*
X24112466Y-34805133D01*
X24112466Y-34571800D01*
X24079133Y-34438466D01*
X24012466Y-34371800D01*
X23945800Y-34338466D01*
X23812466Y-34338466D01*
X23745800Y-34371800D01*
X23679133Y-34438466D01*
X23645800Y-34571800D01*
X23645800Y-34805133D01*
X23679133Y-34938466D01*
X23745800Y-35005133D01*
X23812466Y-35038466D01*
X23945800Y-35038466D01*
X23412466Y-34338466D02*
X22979133Y-34338466D01*
X23212466Y-34605133D01*
X23112466Y-34605133D01*
X23045800Y-34638466D01*
X23012466Y-34671800D01*
X22979133Y-34738466D01*
X22979133Y-34905133D01*
X23012466Y-34971800D01*
X23045800Y-35005133D01*
X23112466Y-35038466D01*
X23312466Y-35038466D01*
X23379133Y-35005133D01*
X23412466Y-34971800D01*
X5577666Y-99757666D02*
X5811000Y-99424333D01*
X5977666Y-99757666D02*
X5977666Y-99057666D01*
X5711000Y-99057666D01*
X5644333Y-99091000D01*
X5611000Y-99124333D01*
X5577666Y-99191000D01*
X5577666Y-99291000D01*
X5611000Y-99357666D01*
X5644333Y-99391000D01*
X5711000Y-99424333D01*
X5977666Y-99424333D01*
X4977666Y-99057666D02*
X5111000Y-99057666D01*
X5177666Y-99091000D01*
X5211000Y-99124333D01*
X5277666Y-99224333D01*
X5311000Y-99357666D01*
X5311000Y-99624333D01*
X5277666Y-99691000D01*
X5244333Y-99724333D01*
X5177666Y-99757666D01*
X5044333Y-99757666D01*
X4977666Y-99724333D01*
X4944333Y-99691000D01*
X4911000Y-99624333D01*
X4911000Y-99457666D01*
X4944333Y-99391000D01*
X4977666Y-99357666D01*
X5044333Y-99324333D01*
X5177666Y-99324333D01*
X5244333Y-99357666D01*
X5277666Y-99391000D01*
X5311000Y-99457666D01*
X5577666Y-103059666D02*
X5811000Y-102726333D01*
X5977666Y-103059666D02*
X5977666Y-102359666D01*
X5711000Y-102359666D01*
X5644333Y-102393000D01*
X5611000Y-102426333D01*
X5577666Y-102493000D01*
X5577666Y-102593000D01*
X5611000Y-102659666D01*
X5644333Y-102693000D01*
X5711000Y-102726333D01*
X5977666Y-102726333D01*
X5344333Y-102359666D02*
X4877666Y-102359666D01*
X5177666Y-103059666D01*
X1234166Y-77913666D02*
X1467500Y-77580333D01*
X1634166Y-77913666D02*
X1634166Y-77213666D01*
X1367500Y-77213666D01*
X1300833Y-77247000D01*
X1267500Y-77280333D01*
X1234166Y-77347000D01*
X1234166Y-77447000D01*
X1267500Y-77513666D01*
X1300833Y-77547000D01*
X1367500Y-77580333D01*
X1634166Y-77580333D01*
X900833Y-77913666D02*
X767500Y-77913666D01*
X700833Y-77880333D01*
X667500Y-77847000D01*
X600833Y-77747000D01*
X567500Y-77613666D01*
X567500Y-77347000D01*
X600833Y-77280333D01*
X634166Y-77247000D01*
X700833Y-77213666D01*
X834166Y-77213666D01*
X900833Y-77247000D01*
X934166Y-77280333D01*
X967500Y-77347000D01*
X967500Y-77513666D01*
X934166Y-77580333D01*
X900833Y-77613666D01*
X834166Y-77647000D01*
X700833Y-77647000D01*
X634166Y-77613666D01*
X600833Y-77580333D01*
X567500Y-77513666D01*
X962833Y-78867833D02*
X729500Y-79201166D01*
X562833Y-78867833D02*
X562833Y-79567833D01*
X829500Y-79567833D01*
X896166Y-79534500D01*
X929500Y-79501166D01*
X962833Y-79434500D01*
X962833Y-79334500D01*
X929500Y-79267833D01*
X896166Y-79234500D01*
X829500Y-79201166D01*
X562833Y-79201166D01*
X1196166Y-79567833D02*
X1629500Y-79567833D01*
X1396166Y-79301166D01*
X1496166Y-79301166D01*
X1562833Y-79267833D01*
X1596166Y-79234500D01*
X1629500Y-79167833D01*
X1629500Y-79001166D01*
X1596166Y-78934500D01*
X1562833Y-78901166D01*
X1496166Y-78867833D01*
X1296166Y-78867833D01*
X1229500Y-78901166D01*
X1196166Y-78934500D01*
X25999266Y-85940066D02*
X26232600Y-85606733D01*
X26399266Y-85940066D02*
X26399266Y-85240066D01*
X26132600Y-85240066D01*
X26065933Y-85273400D01*
X26032600Y-85306733D01*
X25999266Y-85373400D01*
X25999266Y-85473400D01*
X26032600Y-85540066D01*
X26065933Y-85573400D01*
X26132600Y-85606733D01*
X26399266Y-85606733D01*
X25399266Y-85473400D02*
X25399266Y-85940066D01*
X25565933Y-85206733D02*
X25732600Y-85706733D01*
X25299266Y-85706733D01*
X24334033Y-94874500D02*
X24667366Y-95107833D01*
X24334033Y-95274500D02*
X25034033Y-95274500D01*
X25034033Y-95007833D01*
X25000700Y-94941166D01*
X24967366Y-94907833D01*
X24900700Y-94874500D01*
X24800700Y-94874500D01*
X24734033Y-94907833D01*
X24700700Y-94941166D01*
X24667366Y-95007833D01*
X24667366Y-95274500D01*
X24334033Y-94207833D02*
X24334033Y-94607833D01*
X24334033Y-94407833D02*
X25034033Y-94407833D01*
X24934033Y-94474500D01*
X24867366Y-94541166D01*
X24834033Y-94607833D01*
X25034033Y-93774500D02*
X25034033Y-93707833D01*
X25000700Y-93641166D01*
X24967366Y-93607833D01*
X24900700Y-93574500D01*
X24767366Y-93541166D01*
X24600700Y-93541166D01*
X24467366Y-93574500D01*
X24400700Y-93607833D01*
X24367366Y-93641166D01*
X24334033Y-93707833D01*
X24334033Y-93774500D01*
X24367366Y-93841166D01*
X24400700Y-93874500D01*
X24467366Y-93907833D01*
X24600700Y-93941166D01*
X24767366Y-93941166D01*
X24900700Y-93907833D01*
X24967366Y-93874500D01*
X25000700Y-93841166D01*
X25034033Y-93774500D01*
X26410500Y-107569833D02*
X26177166Y-107903166D01*
X26010500Y-107569833D02*
X26010500Y-108269833D01*
X26277166Y-108269833D01*
X26343833Y-108236500D01*
X26377166Y-108203166D01*
X26410500Y-108136500D01*
X26410500Y-108036500D01*
X26377166Y-107969833D01*
X26343833Y-107936500D01*
X26277166Y-107903166D01*
X26010500Y-107903166D01*
X27077166Y-107569833D02*
X26677166Y-107569833D01*
X26877166Y-107569833D02*
X26877166Y-108269833D01*
X26810500Y-108169833D01*
X26743833Y-108103166D01*
X26677166Y-108069833D01*
X27343833Y-108203166D02*
X27377166Y-108236500D01*
X27443833Y-108269833D01*
X27610500Y-108269833D01*
X27677166Y-108236500D01*
X27710500Y-108203166D01*
X27743833Y-108136500D01*
X27743833Y-108069833D01*
X27710500Y-107969833D01*
X27310500Y-107569833D01*
X27743833Y-107569833D01*
X26156500Y-116459833D02*
X25923166Y-116793166D01*
X25756500Y-116459833D02*
X25756500Y-117159833D01*
X26023166Y-117159833D01*
X26089833Y-117126500D01*
X26123166Y-117093166D01*
X26156500Y-117026500D01*
X26156500Y-116926500D01*
X26123166Y-116859833D01*
X26089833Y-116826500D01*
X26023166Y-116793166D01*
X25756500Y-116793166D01*
X26823166Y-116459833D02*
X26423166Y-116459833D01*
X26623166Y-116459833D02*
X26623166Y-117159833D01*
X26556500Y-117059833D01*
X26489833Y-116993166D01*
X26423166Y-116959833D01*
X27423166Y-117159833D02*
X27289833Y-117159833D01*
X27223166Y-117126500D01*
X27189833Y-117093166D01*
X27123166Y-116993166D01*
X27089833Y-116859833D01*
X27089833Y-116593166D01*
X27123166Y-116526500D01*
X27156500Y-116493166D01*
X27223166Y-116459833D01*
X27356500Y-116459833D01*
X27423166Y-116493166D01*
X27456500Y-116526500D01*
X27489833Y-116593166D01*
X27489833Y-116759833D01*
X27456500Y-116826500D01*
X27423166Y-116859833D01*
X27356500Y-116893166D01*
X27223166Y-116893166D01*
X27156500Y-116859833D01*
X27123166Y-116826500D01*
X27089833Y-116759833D01*
X12626166Y-95757166D02*
X12859500Y-95423833D01*
X13026166Y-95757166D02*
X13026166Y-95057166D01*
X12759500Y-95057166D01*
X12692833Y-95090500D01*
X12659500Y-95123833D01*
X12626166Y-95190500D01*
X12626166Y-95290500D01*
X12659500Y-95357166D01*
X12692833Y-95390500D01*
X12759500Y-95423833D01*
X13026166Y-95423833D01*
X11992833Y-95057166D02*
X12326166Y-95057166D01*
X12359500Y-95390500D01*
X12326166Y-95357166D01*
X12259500Y-95323833D01*
X12092833Y-95323833D01*
X12026166Y-95357166D01*
X11992833Y-95390500D01*
X11959500Y-95457166D01*
X11959500Y-95623833D01*
X11992833Y-95690500D01*
X12026166Y-95723833D01*
X12092833Y-95757166D01*
X12259500Y-95757166D01*
X12326166Y-95723833D01*
X12359500Y-95690500D01*
X9213000Y-107885666D02*
X9446333Y-107552333D01*
X9613000Y-107885666D02*
X9613000Y-107185666D01*
X9346333Y-107185666D01*
X9279666Y-107219000D01*
X9246333Y-107252333D01*
X9213000Y-107319000D01*
X9213000Y-107419000D01*
X9246333Y-107485666D01*
X9279666Y-107519000D01*
X9346333Y-107552333D01*
X9613000Y-107552333D01*
X8546333Y-107885666D02*
X8946333Y-107885666D01*
X8746333Y-107885666D02*
X8746333Y-107185666D01*
X8813000Y-107285666D01*
X8879666Y-107352333D01*
X8946333Y-107385666D01*
X7879666Y-107885666D02*
X8279666Y-107885666D01*
X8079666Y-107885666D02*
X8079666Y-107185666D01*
X8146333Y-107285666D01*
X8213000Y-107352333D01*
X8279666Y-107385666D01*
X9276500Y-118045666D02*
X9509833Y-117712333D01*
X9676500Y-118045666D02*
X9676500Y-117345666D01*
X9409833Y-117345666D01*
X9343166Y-117379000D01*
X9309833Y-117412333D01*
X9276500Y-117479000D01*
X9276500Y-117579000D01*
X9309833Y-117645666D01*
X9343166Y-117679000D01*
X9409833Y-117712333D01*
X9676500Y-117712333D01*
X8609833Y-118045666D02*
X9009833Y-118045666D01*
X8809833Y-118045666D02*
X8809833Y-117345666D01*
X8876500Y-117445666D01*
X8943166Y-117512333D01*
X9009833Y-117545666D01*
X8009833Y-117579000D02*
X8009833Y-118045666D01*
X8176500Y-117312333D02*
X8343166Y-117812333D01*
X7909833Y-117812333D01*
X7879500Y-70865166D02*
X8112833Y-70531833D01*
X8279500Y-70865166D02*
X8279500Y-70165166D01*
X8012833Y-70165166D01*
X7946166Y-70198500D01*
X7912833Y-70231833D01*
X7879500Y-70298500D01*
X7879500Y-70398500D01*
X7912833Y-70465166D01*
X7946166Y-70498500D01*
X8012833Y-70531833D01*
X8279500Y-70531833D01*
X7612833Y-70231833D02*
X7579500Y-70198500D01*
X7512833Y-70165166D01*
X7346166Y-70165166D01*
X7279500Y-70198500D01*
X7246166Y-70231833D01*
X7212833Y-70298500D01*
X7212833Y-70365166D01*
X7246166Y-70465166D01*
X7646166Y-70865166D01*
X7212833Y-70865166D01*
X6946166Y-70231833D02*
X6912833Y-70198500D01*
X6846166Y-70165166D01*
X6679500Y-70165166D01*
X6612833Y-70198500D01*
X6579500Y-70231833D01*
X6546166Y-70298500D01*
X6546166Y-70365166D01*
X6579500Y-70465166D01*
X6979500Y-70865166D01*
X6546166Y-70865166D01*
X24135500Y-65594666D02*
X24368833Y-65261333D01*
X24535500Y-65594666D02*
X24535500Y-64894666D01*
X24268833Y-64894666D01*
X24202166Y-64928000D01*
X24168833Y-64961333D01*
X24135500Y-65028000D01*
X24135500Y-65128000D01*
X24168833Y-65194666D01*
X24202166Y-65228000D01*
X24268833Y-65261333D01*
X24535500Y-65261333D01*
X23502166Y-64894666D02*
X23835500Y-64894666D01*
X23868833Y-65228000D01*
X23835500Y-65194666D01*
X23768833Y-65161333D01*
X23602166Y-65161333D01*
X23535500Y-65194666D01*
X23502166Y-65228000D01*
X23468833Y-65294666D01*
X23468833Y-65461333D01*
X23502166Y-65528000D01*
X23535500Y-65561333D01*
X23602166Y-65594666D01*
X23768833Y-65594666D01*
X23835500Y-65561333D01*
X23868833Y-65528000D01*
X22868833Y-64894666D02*
X23002166Y-64894666D01*
X23068833Y-64928000D01*
X23102166Y-64961333D01*
X23168833Y-65061333D01*
X23202166Y-65194666D01*
X23202166Y-65461333D01*
X23168833Y-65528000D01*
X23135500Y-65561333D01*
X23068833Y-65594666D01*
X22935500Y-65594666D01*
X22868833Y-65561333D01*
X22835500Y-65528000D01*
X22802166Y-65461333D01*
X22802166Y-65294666D01*
X22835500Y-65228000D01*
X22868833Y-65194666D01*
X22935500Y-65161333D01*
X23068833Y-65161333D01*
X23135500Y-65194666D01*
X23168833Y-65228000D01*
X23202166Y-65294666D01*
X7968400Y-75602266D02*
X8201733Y-75268933D01*
X8368400Y-75602266D02*
X8368400Y-74902266D01*
X8101733Y-74902266D01*
X8035066Y-74935600D01*
X8001733Y-74968933D01*
X7968400Y-75035600D01*
X7968400Y-75135600D01*
X8001733Y-75202266D01*
X8035066Y-75235600D01*
X8101733Y-75268933D01*
X8368400Y-75268933D01*
X7335066Y-74902266D02*
X7668400Y-74902266D01*
X7701733Y-75235600D01*
X7668400Y-75202266D01*
X7601733Y-75168933D01*
X7435066Y-75168933D01*
X7368400Y-75202266D01*
X7335066Y-75235600D01*
X7301733Y-75302266D01*
X7301733Y-75468933D01*
X7335066Y-75535600D01*
X7368400Y-75568933D01*
X7435066Y-75602266D01*
X7601733Y-75602266D01*
X7668400Y-75568933D01*
X7701733Y-75535600D01*
X7035066Y-74968933D02*
X7001733Y-74935600D01*
X6935066Y-74902266D01*
X6768400Y-74902266D01*
X6701733Y-74935600D01*
X6668400Y-74968933D01*
X6635066Y-75035600D01*
X6635066Y-75102266D01*
X6668400Y-75202266D01*
X7068400Y-75602266D01*
X6635066Y-75602266D01*
X2101000Y-58482666D02*
X2334333Y-58149333D01*
X2501000Y-58482666D02*
X2501000Y-57782666D01*
X2234333Y-57782666D01*
X2167666Y-57816000D01*
X2134333Y-57849333D01*
X2101000Y-57916000D01*
X2101000Y-58016000D01*
X2134333Y-58082666D01*
X2167666Y-58116000D01*
X2234333Y-58149333D01*
X2501000Y-58149333D01*
X1834333Y-57849333D02*
X1800999Y-57816000D01*
X1734333Y-57782666D01*
X1567666Y-57782666D01*
X1501000Y-57816000D01*
X1467666Y-57849333D01*
X1434333Y-57916000D01*
X1434333Y-57982666D01*
X1467666Y-58082666D01*
X1867666Y-58482666D01*
X1434333Y-58482666D01*
X1000999Y-57782666D02*
X934333Y-57782666D01*
X867666Y-57816000D01*
X834333Y-57849333D01*
X801000Y-57916000D01*
X767666Y-58049333D01*
X767666Y-58216000D01*
X801000Y-58349333D01*
X834333Y-58416000D01*
X867666Y-58449333D01*
X934333Y-58482666D01*
X1000999Y-58482666D01*
X1067666Y-58449333D01*
X1101000Y-58416000D01*
X1134333Y-58349333D01*
X1167666Y-58216000D01*
X1167666Y-58049333D01*
X1134333Y-57916000D01*
X1101000Y-57849333D01*
X1067666Y-57816000D01*
X1000999Y-57782666D01*
X16187000Y-50800833D02*
X15953666Y-51134166D01*
X15787000Y-50800833D02*
X15787000Y-51500833D01*
X16053666Y-51500833D01*
X16120333Y-51467500D01*
X16153666Y-51434166D01*
X16187000Y-51367500D01*
X16187000Y-51267500D01*
X16153666Y-51200833D01*
X16120333Y-51167500D01*
X16053666Y-51134166D01*
X15787000Y-51134166D01*
X16420333Y-51500833D02*
X16853666Y-51500833D01*
X16620333Y-51234166D01*
X16720333Y-51234166D01*
X16787000Y-51200833D01*
X16820333Y-51167500D01*
X16853666Y-51100833D01*
X16853666Y-50934166D01*
X16820333Y-50867500D01*
X16787000Y-50834166D01*
X16720333Y-50800833D01*
X16520333Y-50800833D01*
X16453666Y-50834166D01*
X16420333Y-50867500D01*
X17087000Y-51500833D02*
X17553666Y-51500833D01*
X17253666Y-50800833D01*
X17087000Y-49910166D02*
X17320333Y-49576833D01*
X17487000Y-49910166D02*
X17487000Y-49210166D01*
X17220333Y-49210166D01*
X17153666Y-49243500D01*
X17120333Y-49276833D01*
X17087000Y-49343500D01*
X17087000Y-49443500D01*
X17120333Y-49510166D01*
X17153666Y-49543500D01*
X17220333Y-49576833D01*
X17487000Y-49576833D01*
X16853666Y-49210166D02*
X16420333Y-49210166D01*
X16653666Y-49476833D01*
X16553666Y-49476833D01*
X16487000Y-49510166D01*
X16453666Y-49543500D01*
X16420333Y-49610166D01*
X16420333Y-49776833D01*
X16453666Y-49843500D01*
X16487000Y-49876833D01*
X16553666Y-49910166D01*
X16753666Y-49910166D01*
X16820333Y-49876833D01*
X16853666Y-49843500D01*
X16020333Y-49510166D02*
X16087000Y-49476833D01*
X16120333Y-49443500D01*
X16153666Y-49376833D01*
X16153666Y-49343500D01*
X16120333Y-49276833D01*
X16087000Y-49243500D01*
X16020333Y-49210166D01*
X15887000Y-49210166D01*
X15820333Y-49243500D01*
X15787000Y-49276833D01*
X15753666Y-49343500D01*
X15753666Y-49376833D01*
X15787000Y-49443500D01*
X15820333Y-49476833D01*
X15887000Y-49510166D01*
X16020333Y-49510166D01*
X16087000Y-49543500D01*
X16120333Y-49576833D01*
X16153666Y-49643500D01*
X16153666Y-49776833D01*
X16120333Y-49843500D01*
X16087000Y-49876833D01*
X16020333Y-49910166D01*
X15887000Y-49910166D01*
X15820333Y-49876833D01*
X15787000Y-49843500D01*
X15753666Y-49776833D01*
X15753666Y-49643500D01*
X15787000Y-49576833D01*
X15820333Y-49543500D01*
X15887000Y-49510166D01*
X13404000Y-76770666D02*
X13637333Y-76437333D01*
X13804000Y-76770666D02*
X13804000Y-76070666D01*
X13537333Y-76070666D01*
X13470666Y-76104000D01*
X13437333Y-76137333D01*
X13404000Y-76204000D01*
X13404000Y-76304000D01*
X13437333Y-76370666D01*
X13470666Y-76404000D01*
X13537333Y-76437333D01*
X13804000Y-76437333D01*
X12770666Y-76070666D02*
X13104000Y-76070666D01*
X13137333Y-76404000D01*
X13104000Y-76370666D01*
X13037333Y-76337333D01*
X12870666Y-76337333D01*
X12804000Y-76370666D01*
X12770666Y-76404000D01*
X12737333Y-76470666D01*
X12737333Y-76637333D01*
X12770666Y-76704000D01*
X12804000Y-76737333D01*
X12870666Y-76770666D01*
X13037333Y-76770666D01*
X13104000Y-76737333D01*
X13137333Y-76704000D01*
X12504000Y-76070666D02*
X12070666Y-76070666D01*
X12304000Y-76337333D01*
X12204000Y-76337333D01*
X12137333Y-76370666D01*
X12104000Y-76404000D01*
X12070666Y-76470666D01*
X12070666Y-76637333D01*
X12104000Y-76704000D01*
X12137333Y-76737333D01*
X12204000Y-76770666D01*
X12404000Y-76770666D01*
X12470666Y-76737333D01*
X12504000Y-76704000D01*
X8006500Y-74040166D02*
X8239833Y-73706833D01*
X8406500Y-74040166D02*
X8406500Y-73340166D01*
X8139833Y-73340166D01*
X8073166Y-73373500D01*
X8039833Y-73406833D01*
X8006500Y-73473500D01*
X8006500Y-73573500D01*
X8039833Y-73640166D01*
X8073166Y-73673500D01*
X8139833Y-73706833D01*
X8406500Y-73706833D01*
X7739833Y-73406833D02*
X7706500Y-73373500D01*
X7639833Y-73340166D01*
X7473166Y-73340166D01*
X7406500Y-73373500D01*
X7373166Y-73406833D01*
X7339833Y-73473500D01*
X7339833Y-73540166D01*
X7373166Y-73640166D01*
X7773166Y-74040166D01*
X7339833Y-74040166D01*
X6739833Y-73340166D02*
X6873166Y-73340166D01*
X6939833Y-73373500D01*
X6973166Y-73406833D01*
X7039833Y-73506833D01*
X7073166Y-73640166D01*
X7073166Y-73906833D01*
X7039833Y-73973500D01*
X7006500Y-74006833D01*
X6939833Y-74040166D01*
X6806500Y-74040166D01*
X6739833Y-74006833D01*
X6706500Y-73973500D01*
X6673166Y-73906833D01*
X6673166Y-73740166D01*
X6706500Y-73673500D01*
X6739833Y-73640166D01*
X6806500Y-73606833D01*
X6939833Y-73606833D01*
X7006500Y-73640166D01*
X7039833Y-73673500D01*
X7073166Y-73740166D01*
X24135500Y-67182166D02*
X24368833Y-66848833D01*
X24535500Y-67182166D02*
X24535500Y-66482166D01*
X24268833Y-66482166D01*
X24202166Y-66515500D01*
X24168833Y-66548833D01*
X24135500Y-66615500D01*
X24135500Y-66715500D01*
X24168833Y-66782166D01*
X24202166Y-66815500D01*
X24268833Y-66848833D01*
X24535500Y-66848833D01*
X23535500Y-66715500D02*
X23535500Y-67182166D01*
X23702166Y-66448833D02*
X23868833Y-66948833D01*
X23435500Y-66948833D01*
X23235500Y-66482166D02*
X22768833Y-66482166D01*
X23068833Y-67182166D01*
X13404000Y-72909866D02*
X13637333Y-72576533D01*
X13804000Y-72909866D02*
X13804000Y-72209866D01*
X13537333Y-72209866D01*
X13470666Y-72243200D01*
X13437333Y-72276533D01*
X13404000Y-72343200D01*
X13404000Y-72443200D01*
X13437333Y-72509866D01*
X13470666Y-72543200D01*
X13537333Y-72576533D01*
X13804000Y-72576533D01*
X12770666Y-72209866D02*
X13104000Y-72209866D01*
X13137333Y-72543200D01*
X13104000Y-72509866D01*
X13037333Y-72476533D01*
X12870666Y-72476533D01*
X12804000Y-72509866D01*
X12770666Y-72543200D01*
X12737333Y-72609866D01*
X12737333Y-72776533D01*
X12770666Y-72843200D01*
X12804000Y-72876533D01*
X12870666Y-72909866D01*
X13037333Y-72909866D01*
X13104000Y-72876533D01*
X13137333Y-72843200D01*
X12070666Y-72909866D02*
X12470666Y-72909866D01*
X12270666Y-72909866D02*
X12270666Y-72209866D01*
X12337333Y-72309866D01*
X12404000Y-72376533D01*
X12470666Y-72409866D01*
X6979500Y-71819333D02*
X6746166Y-72152666D01*
X6579500Y-71819333D02*
X6579500Y-72519333D01*
X6846166Y-72519333D01*
X6912833Y-72486000D01*
X6946166Y-72452666D01*
X6979500Y-72386000D01*
X6979500Y-72286000D01*
X6946166Y-72219333D01*
X6912833Y-72186000D01*
X6846166Y-72152666D01*
X6579500Y-72152666D01*
X7212833Y-72519333D02*
X7646166Y-72519333D01*
X7412833Y-72252666D01*
X7512833Y-72252666D01*
X7579500Y-72219333D01*
X7612833Y-72186000D01*
X7646166Y-72119333D01*
X7646166Y-71952666D01*
X7612833Y-71886000D01*
X7579500Y-71852666D01*
X7512833Y-71819333D01*
X7312833Y-71819333D01*
X7246166Y-71852666D01*
X7212833Y-71886000D01*
X7879500Y-72519333D02*
X8312833Y-72519333D01*
X8079500Y-72252666D01*
X8179500Y-72252666D01*
X8246166Y-72219333D01*
X8279500Y-72186000D01*
X8312833Y-72119333D01*
X8312833Y-71952666D01*
X8279500Y-71886000D01*
X8246166Y-71852666D01*
X8179500Y-71819333D01*
X7979500Y-71819333D01*
X7912833Y-71852666D01*
X7879500Y-71886000D01*
X7905000Y-69277666D02*
X8138333Y-68944333D01*
X8305000Y-69277666D02*
X8305000Y-68577666D01*
X8038333Y-68577666D01*
X7971666Y-68611000D01*
X7938333Y-68644333D01*
X7905000Y-68711000D01*
X7905000Y-68811000D01*
X7938333Y-68877666D01*
X7971666Y-68911000D01*
X8038333Y-68944333D01*
X8305000Y-68944333D01*
X7671666Y-68577666D02*
X7238333Y-68577666D01*
X7471666Y-68844333D01*
X7371666Y-68844333D01*
X7305000Y-68877666D01*
X7271666Y-68911000D01*
X7238333Y-68977666D01*
X7238333Y-69144333D01*
X7271666Y-69211000D01*
X7305000Y-69244333D01*
X7371666Y-69277666D01*
X7571666Y-69277666D01*
X7638333Y-69244333D01*
X7671666Y-69211000D01*
X6638333Y-68811000D02*
X6638333Y-69277666D01*
X6805000Y-68544333D02*
X6971666Y-69044333D01*
X6538333Y-69044333D01*
X26358000Y-73316266D02*
X26591333Y-72982933D01*
X26758000Y-73316266D02*
X26758000Y-72616266D01*
X26491333Y-72616266D01*
X26424666Y-72649600D01*
X26391333Y-72682933D01*
X26358000Y-72749600D01*
X26358000Y-72849600D01*
X26391333Y-72916266D01*
X26424666Y-72949600D01*
X26491333Y-72982933D01*
X26758000Y-72982933D01*
X25758000Y-72849600D02*
X25758000Y-73316266D01*
X25924666Y-72582933D02*
X26091333Y-73082933D01*
X25658000Y-73082933D01*
X25291333Y-72916266D02*
X25358000Y-72882933D01*
X25391333Y-72849600D01*
X25424666Y-72782933D01*
X25424666Y-72749600D01*
X25391333Y-72682933D01*
X25358000Y-72649600D01*
X25291333Y-72616266D01*
X25158000Y-72616266D01*
X25091333Y-72649600D01*
X25058000Y-72682933D01*
X25024666Y-72749600D01*
X25024666Y-72782933D01*
X25058000Y-72849600D01*
X25091333Y-72882933D01*
X25158000Y-72916266D01*
X25291333Y-72916266D01*
X25358000Y-72949600D01*
X25391333Y-72982933D01*
X25424666Y-73049600D01*
X25424666Y-73182933D01*
X25391333Y-73249600D01*
X25358000Y-73282933D01*
X25291333Y-73316266D01*
X25158000Y-73316266D01*
X25091333Y-73282933D01*
X25058000Y-73249600D01*
X25024666Y-73182933D01*
X25024666Y-73049600D01*
X25058000Y-72982933D01*
X25091333Y-72949600D01*
X25158000Y-72916266D01*
X26358000Y-78091466D02*
X26591333Y-77758133D01*
X26758000Y-78091466D02*
X26758000Y-77391466D01*
X26491333Y-77391466D01*
X26424666Y-77424800D01*
X26391333Y-77458133D01*
X26358000Y-77524800D01*
X26358000Y-77624800D01*
X26391333Y-77691466D01*
X26424666Y-77724800D01*
X26491333Y-77758133D01*
X26758000Y-77758133D01*
X25724666Y-77391466D02*
X26058000Y-77391466D01*
X26091333Y-77724800D01*
X26058000Y-77691466D01*
X25991333Y-77658133D01*
X25824666Y-77658133D01*
X25758000Y-77691466D01*
X25724666Y-77724800D01*
X25691333Y-77791466D01*
X25691333Y-77958133D01*
X25724666Y-78024800D01*
X25758000Y-78058133D01*
X25824666Y-78091466D01*
X25991333Y-78091466D01*
X26058000Y-78058133D01*
X26091333Y-78024800D01*
X25258000Y-77391466D02*
X25191333Y-77391466D01*
X25124666Y-77424800D01*
X25091333Y-77458133D01*
X25058000Y-77524800D01*
X25024666Y-77658133D01*
X25024666Y-77824800D01*
X25058000Y-77958133D01*
X25091333Y-78024800D01*
X25124666Y-78058133D01*
X25191333Y-78091466D01*
X25258000Y-78091466D01*
X25324666Y-78058133D01*
X25358000Y-78024800D01*
X25391333Y-77958133D01*
X25424666Y-77824800D01*
X25424666Y-77658133D01*
X25391333Y-77524800D01*
X25358000Y-77458133D01*
X25324666Y-77424800D01*
X25258000Y-77391466D01*
X18382500Y-67055166D02*
X18615833Y-66721833D01*
X18782500Y-67055166D02*
X18782500Y-66355166D01*
X18515833Y-66355166D01*
X18449166Y-66388500D01*
X18415833Y-66421833D01*
X18382500Y-66488500D01*
X18382500Y-66588500D01*
X18415833Y-66655166D01*
X18449166Y-66688500D01*
X18515833Y-66721833D01*
X18782500Y-66721833D01*
X18115833Y-66421833D02*
X18082500Y-66388500D01*
X18015833Y-66355166D01*
X17849166Y-66355166D01*
X17782500Y-66388500D01*
X17749166Y-66421833D01*
X17715833Y-66488500D01*
X17715833Y-66555166D01*
X17749166Y-66655166D01*
X18149166Y-67055166D01*
X17715833Y-67055166D01*
X17082500Y-66355166D02*
X17415833Y-66355166D01*
X17449166Y-66688500D01*
X17415833Y-66655166D01*
X17349166Y-66621833D01*
X17182500Y-66621833D01*
X17115833Y-66655166D01*
X17082500Y-66688500D01*
X17049166Y-66755166D01*
X17049166Y-66921833D01*
X17082500Y-66988500D01*
X17115833Y-67021833D01*
X17182500Y-67055166D01*
X17349166Y-67055166D01*
X17415833Y-67021833D01*
X17449166Y-66988500D01*
X25458100Y-74257733D02*
X25224766Y-74591066D01*
X25058100Y-74257733D02*
X25058100Y-74957733D01*
X25324766Y-74957733D01*
X25391433Y-74924400D01*
X25424766Y-74891066D01*
X25458100Y-74824400D01*
X25458100Y-74724400D01*
X25424766Y-74657733D01*
X25391433Y-74624400D01*
X25324766Y-74591066D01*
X25058100Y-74591066D01*
X26058100Y-74724400D02*
X26058100Y-74257733D01*
X25891433Y-74991066D02*
X25724766Y-74491066D01*
X26158100Y-74491066D01*
X26358100Y-74957733D02*
X26791433Y-74957733D01*
X26558100Y-74691066D01*
X26658100Y-74691066D01*
X26724766Y-74657733D01*
X26758100Y-74624400D01*
X26791433Y-74557733D01*
X26791433Y-74391066D01*
X26758100Y-74324400D01*
X26724766Y-74291066D01*
X26658100Y-74257733D01*
X26458100Y-74257733D01*
X26391433Y-74291066D01*
X26358100Y-74324400D01*
X12515000Y-58927166D02*
X12748333Y-58593833D01*
X12915000Y-58927166D02*
X12915000Y-58227166D01*
X12648333Y-58227166D01*
X12581666Y-58260500D01*
X12548333Y-58293833D01*
X12515000Y-58360500D01*
X12515000Y-58460500D01*
X12548333Y-58527166D01*
X12581666Y-58560500D01*
X12648333Y-58593833D01*
X12915000Y-58593833D01*
X12248333Y-58293833D02*
X12215000Y-58260500D01*
X12148333Y-58227166D01*
X11981666Y-58227166D01*
X11915000Y-58260500D01*
X11881666Y-58293833D01*
X11848333Y-58360500D01*
X11848333Y-58427166D01*
X11881666Y-58527166D01*
X12281666Y-58927166D01*
X11848333Y-58927166D01*
X11615000Y-58227166D02*
X11148333Y-58227166D01*
X11448333Y-58927166D01*
X16528200Y-26427866D02*
X16761533Y-26094533D01*
X16928200Y-26427866D02*
X16928200Y-25727866D01*
X16661533Y-25727866D01*
X16594866Y-25761200D01*
X16561533Y-25794533D01*
X16528200Y-25861200D01*
X16528200Y-25961200D01*
X16561533Y-26027866D01*
X16594866Y-26061200D01*
X16661533Y-26094533D01*
X16928200Y-26094533D01*
X16294866Y-25727866D02*
X15861533Y-25727866D01*
X16094866Y-25994533D01*
X15994866Y-25994533D01*
X15928200Y-26027866D01*
X15894866Y-26061200D01*
X15861533Y-26127866D01*
X15861533Y-26294533D01*
X15894866Y-26361200D01*
X15928200Y-26394533D01*
X15994866Y-26427866D01*
X16194866Y-26427866D01*
X16261533Y-26394533D01*
X16294866Y-26361200D01*
X15261533Y-25727866D02*
X15394866Y-25727866D01*
X15461533Y-25761200D01*
X15494866Y-25794533D01*
X15561533Y-25894533D01*
X15594866Y-26027866D01*
X15594866Y-26294533D01*
X15561533Y-26361200D01*
X15528200Y-26394533D01*
X15461533Y-26427866D01*
X15328200Y-26427866D01*
X15261533Y-26394533D01*
X15228200Y-26361200D01*
X15194866Y-26294533D01*
X15194866Y-26127866D01*
X15228200Y-26061200D01*
X15261533Y-26027866D01*
X15328200Y-25994533D01*
X15461533Y-25994533D01*
X15528200Y-26027866D01*
X15561533Y-26061200D01*
X15594866Y-26127866D01*
X7054000Y-60133666D02*
X7287333Y-59800333D01*
X7454000Y-60133666D02*
X7454000Y-59433666D01*
X7187333Y-59433666D01*
X7120666Y-59467000D01*
X7087333Y-59500333D01*
X7054000Y-59567000D01*
X7054000Y-59667000D01*
X7087333Y-59733666D01*
X7120666Y-59767000D01*
X7187333Y-59800333D01*
X7454000Y-59800333D01*
X6820666Y-59433666D02*
X6387333Y-59433666D01*
X6620666Y-59700333D01*
X6520666Y-59700333D01*
X6454000Y-59733666D01*
X6420666Y-59767000D01*
X6387333Y-59833666D01*
X6387333Y-60000333D01*
X6420666Y-60067000D01*
X6454000Y-60100333D01*
X6520666Y-60133666D01*
X6720666Y-60133666D01*
X6787333Y-60100333D01*
X6820666Y-60067000D01*
X5954000Y-59433666D02*
X5887333Y-59433666D01*
X5820666Y-59467000D01*
X5787333Y-59500333D01*
X5754000Y-59567000D01*
X5720666Y-59700333D01*
X5720666Y-59867000D01*
X5754000Y-60000333D01*
X5787333Y-60067000D01*
X5820666Y-60100333D01*
X5887333Y-60133666D01*
X5954000Y-60133666D01*
X6020666Y-60100333D01*
X6054000Y-60067000D01*
X6087333Y-60000333D01*
X6120666Y-59867000D01*
X6120666Y-59700333D01*
X6087333Y-59567000D01*
X6054000Y-59500333D01*
X6020666Y-59467000D01*
X5954000Y-59433666D01*
X7054000Y-58482666D02*
X7287333Y-58149333D01*
X7454000Y-58482666D02*
X7454000Y-57782666D01*
X7187333Y-57782666D01*
X7120666Y-57816000D01*
X7087333Y-57849333D01*
X7054000Y-57916000D01*
X7054000Y-58016000D01*
X7087333Y-58082666D01*
X7120666Y-58116000D01*
X7187333Y-58149333D01*
X7454000Y-58149333D01*
X6787333Y-57849333D02*
X6754000Y-57816000D01*
X6687333Y-57782666D01*
X6520666Y-57782666D01*
X6454000Y-57816000D01*
X6420666Y-57849333D01*
X6387333Y-57916000D01*
X6387333Y-57982666D01*
X6420666Y-58082666D01*
X6820666Y-58482666D01*
X6387333Y-58482666D01*
X6054000Y-58482666D02*
X5920666Y-58482666D01*
X5854000Y-58449333D01*
X5820666Y-58416000D01*
X5754000Y-58316000D01*
X5720666Y-58182666D01*
X5720666Y-57916000D01*
X5754000Y-57849333D01*
X5787333Y-57816000D01*
X5854000Y-57782666D01*
X5987333Y-57782666D01*
X6054000Y-57816000D01*
X6087333Y-57849333D01*
X6120666Y-57916000D01*
X6120666Y-58082666D01*
X6087333Y-58149333D01*
X6054000Y-58182666D01*
X5987333Y-58216000D01*
X5854000Y-58216000D01*
X5787333Y-58182666D01*
X5754000Y-58149333D01*
X5720666Y-58082666D01*
X17087000Y-48259166D02*
X17320333Y-47925833D01*
X17487000Y-48259166D02*
X17487000Y-47559166D01*
X17220333Y-47559166D01*
X17153666Y-47592500D01*
X17120333Y-47625833D01*
X17087000Y-47692500D01*
X17087000Y-47792500D01*
X17120333Y-47859166D01*
X17153666Y-47892500D01*
X17220333Y-47925833D01*
X17487000Y-47925833D01*
X16853666Y-47559166D02*
X16420333Y-47559166D01*
X16653666Y-47825833D01*
X16553666Y-47825833D01*
X16487000Y-47859166D01*
X16453666Y-47892500D01*
X16420333Y-47959166D01*
X16420333Y-48125833D01*
X16453666Y-48192500D01*
X16487000Y-48225833D01*
X16553666Y-48259166D01*
X16753666Y-48259166D01*
X16820333Y-48225833D01*
X16853666Y-48192500D01*
X15787000Y-47559166D02*
X16120333Y-47559166D01*
X16153666Y-47892500D01*
X16120333Y-47859166D01*
X16053666Y-47825833D01*
X15887000Y-47825833D01*
X15820333Y-47859166D01*
X15787000Y-47892500D01*
X15753666Y-47959166D01*
X15753666Y-48125833D01*
X15787000Y-48192500D01*
X15820333Y-48225833D01*
X15887000Y-48259166D01*
X16053666Y-48259166D01*
X16120333Y-48225833D01*
X16153666Y-48192500D01*
X21963800Y-39839066D02*
X22197133Y-39505733D01*
X22363800Y-39839066D02*
X22363800Y-39139066D01*
X22097133Y-39139066D01*
X22030466Y-39172400D01*
X21997133Y-39205733D01*
X21963800Y-39272400D01*
X21963800Y-39372400D01*
X21997133Y-39439066D01*
X22030466Y-39472400D01*
X22097133Y-39505733D01*
X22363800Y-39505733D01*
X21363800Y-39372400D02*
X21363800Y-39839066D01*
X21530466Y-39105733D02*
X21697133Y-39605733D01*
X21263800Y-39605733D01*
X20697133Y-39139066D02*
X20830466Y-39139066D01*
X20897133Y-39172400D01*
X20930466Y-39205733D01*
X20997133Y-39305733D01*
X21030466Y-39439066D01*
X21030466Y-39705733D01*
X20997133Y-39772400D01*
X20963800Y-39805733D01*
X20897133Y-39839066D01*
X20763800Y-39839066D01*
X20697133Y-39805733D01*
X20663800Y-39772400D01*
X20630466Y-39705733D01*
X20630466Y-39539066D01*
X20663800Y-39472400D01*
X20697133Y-39439066D01*
X20763800Y-39405733D01*
X20897133Y-39405733D01*
X20963800Y-39439066D01*
X20997133Y-39472400D01*
X21030466Y-39539066D01*
X18484000Y-33971666D02*
X18717333Y-33638333D01*
X18884000Y-33971666D02*
X18884000Y-33271666D01*
X18617333Y-33271666D01*
X18550666Y-33305000D01*
X18517333Y-33338333D01*
X18484000Y-33405000D01*
X18484000Y-33505000D01*
X18517333Y-33571666D01*
X18550666Y-33605000D01*
X18617333Y-33638333D01*
X18884000Y-33638333D01*
X18250666Y-33271666D02*
X17817333Y-33271666D01*
X18050666Y-33538333D01*
X17950666Y-33538333D01*
X17884000Y-33571666D01*
X17850666Y-33605000D01*
X17817333Y-33671666D01*
X17817333Y-33838333D01*
X17850666Y-33905000D01*
X17884000Y-33938333D01*
X17950666Y-33971666D01*
X18150666Y-33971666D01*
X18217333Y-33938333D01*
X18250666Y-33905000D01*
X17484000Y-33971666D02*
X17350666Y-33971666D01*
X17284000Y-33938333D01*
X17250666Y-33905000D01*
X17184000Y-33805000D01*
X17150666Y-33671666D01*
X17150666Y-33405000D01*
X17184000Y-33338333D01*
X17217333Y-33305000D01*
X17284000Y-33271666D01*
X17417333Y-33271666D01*
X17484000Y-33305000D01*
X17517333Y-33338333D01*
X17550666Y-33405000D01*
X17550666Y-33571666D01*
X17517333Y-33638333D01*
X17484000Y-33671666D01*
X17417333Y-33705000D01*
X17284000Y-33705000D01*
X17217333Y-33671666D01*
X17184000Y-33638333D01*
X17150666Y-33571666D01*
X26993000Y-39839066D02*
X27226333Y-39505733D01*
X27393000Y-39839066D02*
X27393000Y-39139066D01*
X27126333Y-39139066D01*
X27059666Y-39172400D01*
X27026333Y-39205733D01*
X26993000Y-39272400D01*
X26993000Y-39372400D01*
X27026333Y-39439066D01*
X27059666Y-39472400D01*
X27126333Y-39505733D01*
X27393000Y-39505733D01*
X26393000Y-39372400D02*
X26393000Y-39839066D01*
X26559666Y-39105733D02*
X26726333Y-39605733D01*
X26293000Y-39605733D01*
X25693000Y-39139066D02*
X26026333Y-39139066D01*
X26059666Y-39472400D01*
X26026333Y-39439066D01*
X25959666Y-39405733D01*
X25793000Y-39405733D01*
X25726333Y-39439066D01*
X25693000Y-39472400D01*
X25659666Y-39539066D01*
X25659666Y-39705733D01*
X25693000Y-39772400D01*
X25726333Y-39805733D01*
X25793000Y-39839066D01*
X25959666Y-39839066D01*
X26026333Y-39805733D01*
X26059666Y-39772400D01*
X15880500Y-61022666D02*
X16113833Y-60689333D01*
X16280500Y-61022666D02*
X16280500Y-60322666D01*
X16013833Y-60322666D01*
X15947166Y-60356000D01*
X15913833Y-60389333D01*
X15880500Y-60456000D01*
X15880500Y-60556000D01*
X15913833Y-60622666D01*
X15947166Y-60656000D01*
X16013833Y-60689333D01*
X16280500Y-60689333D01*
X15613833Y-60389333D02*
X15580500Y-60356000D01*
X15513833Y-60322666D01*
X15347166Y-60322666D01*
X15280500Y-60356000D01*
X15247166Y-60389333D01*
X15213833Y-60456000D01*
X15213833Y-60522666D01*
X15247166Y-60622666D01*
X15647166Y-61022666D01*
X15213833Y-61022666D01*
X14980500Y-60322666D02*
X14547166Y-60322666D01*
X14780500Y-60589333D01*
X14680500Y-60589333D01*
X14613833Y-60622666D01*
X14580500Y-60656000D01*
X14547166Y-60722666D01*
X14547166Y-60889333D01*
X14580500Y-60956000D01*
X14613833Y-60989333D01*
X14680500Y-61022666D01*
X14880500Y-61022666D01*
X14947166Y-60989333D01*
X14980500Y-60956000D01*
X13785000Y-28701166D02*
X14018333Y-28367833D01*
X14185000Y-28701166D02*
X14185000Y-28001166D01*
X13918333Y-28001166D01*
X13851666Y-28034500D01*
X13818333Y-28067833D01*
X13785000Y-28134500D01*
X13785000Y-28234500D01*
X13818333Y-28301166D01*
X13851666Y-28334500D01*
X13918333Y-28367833D01*
X14185000Y-28367833D01*
X13185000Y-28234500D02*
X13185000Y-28701166D01*
X13351666Y-27967833D02*
X13518333Y-28467833D01*
X13085000Y-28467833D01*
X12851666Y-28067833D02*
X12818333Y-28034500D01*
X12751666Y-28001166D01*
X12585000Y-28001166D01*
X12518333Y-28034500D01*
X12485000Y-28067833D01*
X12451666Y-28134500D01*
X12451666Y-28201166D01*
X12485000Y-28301166D01*
X12885000Y-28701166D01*
X12451666Y-28701166D01*
X13785000Y-30288666D02*
X14018333Y-29955333D01*
X14185000Y-30288666D02*
X14185000Y-29588666D01*
X13918333Y-29588666D01*
X13851666Y-29622000D01*
X13818333Y-29655333D01*
X13785000Y-29722000D01*
X13785000Y-29822000D01*
X13818333Y-29888666D01*
X13851666Y-29922000D01*
X13918333Y-29955333D01*
X14185000Y-29955333D01*
X13185000Y-29822000D02*
X13185000Y-30288666D01*
X13351666Y-29555333D02*
X13518333Y-30055333D01*
X13085000Y-30055333D01*
X12451666Y-30288666D02*
X12851666Y-30288666D01*
X12651666Y-30288666D02*
X12651666Y-29588666D01*
X12718333Y-29688666D01*
X12785000Y-29755333D01*
X12851666Y-29788666D01*
X12299000Y-31939666D02*
X12532333Y-31606333D01*
X12699000Y-31939666D02*
X12699000Y-31239666D01*
X12432333Y-31239666D01*
X12365666Y-31273000D01*
X12332333Y-31306333D01*
X12299000Y-31373000D01*
X12299000Y-31473000D01*
X12332333Y-31539666D01*
X12365666Y-31573000D01*
X12432333Y-31606333D01*
X12699000Y-31606333D01*
X11699000Y-31473000D02*
X11699000Y-31939666D01*
X11865666Y-31206333D02*
X12032333Y-31706333D01*
X11599000Y-31706333D01*
X11199000Y-31239666D02*
X11132333Y-31239666D01*
X11065666Y-31273000D01*
X11032333Y-31306333D01*
X10999000Y-31373000D01*
X10965666Y-31506333D01*
X10965666Y-31673000D01*
X10999000Y-31806333D01*
X11032333Y-31873000D01*
X11065666Y-31906333D01*
X11132333Y-31939666D01*
X11199000Y-31939666D01*
X11265666Y-31906333D01*
X11299000Y-31873000D01*
X11332333Y-31806333D01*
X11365666Y-31673000D01*
X11365666Y-31506333D01*
X11332333Y-31373000D01*
X11299000Y-31306333D01*
X11265666Y-31273000D01*
X11199000Y-31239666D01*
X25215000Y-45528666D02*
X25448333Y-45195333D01*
X25615000Y-45528666D02*
X25615000Y-44828666D01*
X25348333Y-44828666D01*
X25281666Y-44862000D01*
X25248333Y-44895333D01*
X25215000Y-44962000D01*
X25215000Y-45062000D01*
X25248333Y-45128666D01*
X25281666Y-45162000D01*
X25348333Y-45195333D01*
X25615000Y-45195333D01*
X24615000Y-45062000D02*
X24615000Y-45528666D01*
X24781666Y-44795333D02*
X24948333Y-45295333D01*
X24515000Y-45295333D01*
X23948333Y-45062000D02*
X23948333Y-45528666D01*
X24115000Y-44795333D02*
X24281666Y-45295333D01*
X23848333Y-45295333D01*
X16441000Y-44831833D02*
X16207666Y-45165166D01*
X16041000Y-44831833D02*
X16041000Y-45531833D01*
X16307666Y-45531833D01*
X16374333Y-45498500D01*
X16407666Y-45465166D01*
X16441000Y-45398500D01*
X16441000Y-45298500D01*
X16407666Y-45231833D01*
X16374333Y-45198500D01*
X16307666Y-45165166D01*
X16041000Y-45165166D01*
X17041000Y-45298500D02*
X17041000Y-44831833D01*
X16874333Y-45565166D02*
X16707666Y-45065166D01*
X17141000Y-45065166D01*
X17441000Y-44831833D02*
X17574333Y-44831833D01*
X17641000Y-44865166D01*
X17674333Y-44898500D01*
X17741000Y-44998500D01*
X17774333Y-45131833D01*
X17774333Y-45398500D01*
X17741000Y-45465166D01*
X17707666Y-45498500D01*
X17641000Y-45531833D01*
X17507666Y-45531833D01*
X17441000Y-45498500D01*
X17407666Y-45465166D01*
X17374333Y-45398500D01*
X17374333Y-45231833D01*
X17407666Y-45165166D01*
X17441000Y-45131833D01*
X17507666Y-45098500D01*
X17641000Y-45098500D01*
X17707666Y-45131833D01*
X17741000Y-45165166D01*
X17774333Y-45231833D01*
X7749433Y-93156933D02*
X7516100Y-93490266D01*
X7349433Y-93156933D02*
X7349433Y-93856933D01*
X7616100Y-93856933D01*
X7682766Y-93823600D01*
X7716100Y-93790266D01*
X7749433Y-93723600D01*
X7749433Y-93623600D01*
X7716100Y-93556933D01*
X7682766Y-93523600D01*
X7616100Y-93490266D01*
X7349433Y-93490266D01*
X7949433Y-93856933D02*
X8182766Y-93156933D01*
X8416100Y-93856933D01*
X9016100Y-93156933D02*
X8616100Y-93156933D01*
X8816100Y-93156933D02*
X8816100Y-93856933D01*
X8749433Y-93756933D01*
X8682766Y-93690266D01*
X8616100Y-93656933D01*
X27467666Y-81456966D02*
X27701000Y-81123633D01*
X27867666Y-81456966D02*
X27867666Y-80756966D01*
X27601000Y-80756966D01*
X27534333Y-80790300D01*
X27501000Y-80823633D01*
X27467666Y-80890300D01*
X27467666Y-80990300D01*
X27501000Y-81056966D01*
X27534333Y-81090300D01*
X27601000Y-81123633D01*
X27867666Y-81123633D01*
X27267666Y-80756966D02*
X27034333Y-81456966D01*
X26801000Y-80756966D01*
X26467666Y-81056966D02*
X26534333Y-81023633D01*
X26567666Y-80990300D01*
X26601000Y-80923633D01*
X26601000Y-80890300D01*
X26567666Y-80823633D01*
X26534333Y-80790300D01*
X26467666Y-80756966D01*
X26334333Y-80756966D01*
X26267666Y-80790300D01*
X26234333Y-80823633D01*
X26201000Y-80890300D01*
X26201000Y-80923633D01*
X26234333Y-80990300D01*
X26267666Y-81023633D01*
X26334333Y-81056966D01*
X26467666Y-81056966D01*
X26534333Y-81090300D01*
X26567666Y-81123633D01*
X26601000Y-81190300D01*
X26601000Y-81323633D01*
X26567666Y-81390300D01*
X26534333Y-81423633D01*
X26467666Y-81456966D01*
X26334333Y-81456966D01*
X26267666Y-81423633D01*
X26234333Y-81390300D01*
X26201000Y-81323633D01*
X26201000Y-81190300D01*
X26234333Y-81123633D01*
X26267666Y-81090300D01*
X26334333Y-81056966D01*
X22411833Y-92072666D02*
X22411833Y-92639333D01*
X22378500Y-92706000D01*
X22345166Y-92739333D01*
X22278500Y-92772666D01*
X22145166Y-92772666D01*
X22078500Y-92739333D01*
X22045166Y-92706000D01*
X22011833Y-92639333D01*
X22011833Y-92072666D01*
X21311833Y-92772666D02*
X21711833Y-92772666D01*
X21511833Y-92772666D02*
X21511833Y-92072666D01*
X21578500Y-92172666D01*
X21645166Y-92239333D01*
X21711833Y-92272666D01*
X17503666Y-82166666D02*
X17503666Y-82733333D01*
X17470333Y-82800000D01*
X17437000Y-82833333D01*
X17370333Y-82866666D01*
X17237000Y-82866666D01*
X17170333Y-82833333D01*
X17137000Y-82800000D01*
X17103666Y-82733333D01*
X17103666Y-82166666D01*
X16403666Y-82866666D02*
X16803666Y-82866666D01*
X16603666Y-82866666D02*
X16603666Y-82166666D01*
X16670333Y-82266666D01*
X16737000Y-82333333D01*
X16803666Y-82366666D01*
X15970333Y-82166666D02*
X15903666Y-82166666D01*
X15837000Y-82200000D01*
X15803666Y-82233333D01*
X15770333Y-82300000D01*
X15737000Y-82433333D01*
X15737000Y-82600000D01*
X15770333Y-82733333D01*
X15803666Y-82800000D01*
X15837000Y-82833333D01*
X15903666Y-82866666D01*
X15970333Y-82866666D01*
X16037000Y-82833333D01*
X16070333Y-82800000D01*
X16103666Y-82733333D01*
X16137000Y-82600000D01*
X16137000Y-82433333D01*
X16103666Y-82300000D01*
X16070333Y-82233333D01*
X16037000Y-82200000D01*
X15970333Y-82166666D01*
X14135166Y-63946833D02*
X14135166Y-63380166D01*
X14168500Y-63313500D01*
X14201833Y-63280166D01*
X14268500Y-63246833D01*
X14401833Y-63246833D01*
X14468500Y-63280166D01*
X14501833Y-63313500D01*
X14535166Y-63380166D01*
X14535166Y-63946833D01*
X15168500Y-63946833D02*
X15035166Y-63946833D01*
X14968500Y-63913500D01*
X14935166Y-63880166D01*
X14868500Y-63780166D01*
X14835166Y-63646833D01*
X14835166Y-63380166D01*
X14868500Y-63313500D01*
X14901833Y-63280166D01*
X14968500Y-63246833D01*
X15101833Y-63246833D01*
X15168500Y-63280166D01*
X15201833Y-63313500D01*
X15235166Y-63380166D01*
X15235166Y-63546833D01*
X15201833Y-63613500D01*
X15168500Y-63646833D01*
X15101833Y-63680166D01*
X14968500Y-63680166D01*
X14901833Y-63646833D01*
X14868500Y-63613500D01*
X14835166Y-63546833D01*
X15036733Y-44955666D02*
X15036733Y-45522333D01*
X15003400Y-45589000D01*
X14970066Y-45622333D01*
X14903400Y-45655666D01*
X14770066Y-45655666D01*
X14703400Y-45622333D01*
X14670066Y-45589000D01*
X14636733Y-45522333D01*
X14636733Y-44955666D01*
X14003400Y-45189000D02*
X14003400Y-45655666D01*
X14170066Y-44922333D02*
X14336733Y-45422333D01*
X13903400Y-45422333D01*
X18865000Y-56831666D02*
X19098333Y-56498333D01*
X19265000Y-56831666D02*
X19265000Y-56131666D01*
X18998333Y-56131666D01*
X18931666Y-56165000D01*
X18898333Y-56198333D01*
X18865000Y-56265000D01*
X18865000Y-56365000D01*
X18898333Y-56431666D01*
X18931666Y-56465000D01*
X18998333Y-56498333D01*
X19265000Y-56498333D01*
X18231666Y-56131666D02*
X18565000Y-56131666D01*
X18598333Y-56465000D01*
X18565000Y-56431666D01*
X18498333Y-56398333D01*
X18331666Y-56398333D01*
X18265000Y-56431666D01*
X18231666Y-56465000D01*
X18198333Y-56531666D01*
X18198333Y-56698333D01*
X18231666Y-56765000D01*
X18265000Y-56798333D01*
X18331666Y-56831666D01*
X18498333Y-56831666D01*
X18565000Y-56798333D01*
X18598333Y-56765000D01*
X17565000Y-56131666D02*
X17898333Y-56131666D01*
X17931666Y-56465000D01*
X17898333Y-56431666D01*
X17831666Y-56398333D01*
X17665000Y-56398333D01*
X17598333Y-56431666D01*
X17565000Y-56465000D01*
X17531666Y-56531666D01*
X17531666Y-56698333D01*
X17565000Y-56765000D01*
X17598333Y-56798333D01*
X17665000Y-56831666D01*
X17831666Y-56831666D01*
X17898333Y-56798333D01*
X17931666Y-56765000D01*
X9403500Y-48259166D02*
X9636833Y-47925833D01*
X9803500Y-48259166D02*
X9803500Y-47559166D01*
X9536833Y-47559166D01*
X9470166Y-47592500D01*
X9436833Y-47625833D01*
X9403500Y-47692500D01*
X9403500Y-47792500D01*
X9436833Y-47859166D01*
X9470166Y-47892500D01*
X9536833Y-47925833D01*
X9803500Y-47925833D01*
X8736833Y-48259166D02*
X9136833Y-48259166D01*
X8936833Y-48259166D02*
X8936833Y-47559166D01*
X9003500Y-47659166D01*
X9070166Y-47725833D01*
X9136833Y-47759166D01*
X8503500Y-47559166D02*
X8070166Y-47559166D01*
X8303500Y-47825833D01*
X8203500Y-47825833D01*
X8136833Y-47859166D01*
X8103500Y-47892500D01*
X8070166Y-47959166D01*
X8070166Y-48125833D01*
X8103500Y-48192500D01*
X8136833Y-48225833D01*
X8203500Y-48259166D01*
X8403500Y-48259166D01*
X8470166Y-48225833D01*
X8503500Y-48192500D01*
X22284833Y-112456166D02*
X22284833Y-113022833D01*
X22251500Y-113089500D01*
X22218166Y-113122833D01*
X22151500Y-113156166D01*
X22018166Y-113156166D01*
X21951500Y-113122833D01*
X21918166Y-113089500D01*
X21884833Y-113022833D01*
X21884833Y-112456166D01*
X21618166Y-112456166D02*
X21184833Y-112456166D01*
X21418166Y-112722833D01*
X21318166Y-112722833D01*
X21251500Y-112756166D01*
X21218166Y-112789500D01*
X21184833Y-112856166D01*
X21184833Y-113022833D01*
X21218166Y-113089500D01*
X21251500Y-113122833D01*
X21318166Y-113156166D01*
X21518166Y-113156166D01*
X21584833Y-113122833D01*
X21618166Y-113089500D01*
X3784666Y-52008833D02*
X3784666Y-51442166D01*
X3818000Y-51375500D01*
X3851333Y-51342166D01*
X3918000Y-51308833D01*
X4051333Y-51308833D01*
X4118000Y-51342166D01*
X4151333Y-51375500D01*
X4184666Y-51442166D01*
X4184666Y-52008833D01*
X4851333Y-52008833D02*
X4518000Y-52008833D01*
X4484666Y-51675500D01*
X4518000Y-51708833D01*
X4584666Y-51742166D01*
X4751333Y-51742166D01*
X4818000Y-51708833D01*
X4851333Y-51675500D01*
X4884666Y-51608833D01*
X4884666Y-51442166D01*
X4851333Y-51375500D01*
X4818000Y-51342166D01*
X4751333Y-51308833D01*
X4584666Y-51308833D01*
X4518000Y-51342166D01*
X4484666Y-51375500D01*
X4561666Y-48192500D02*
X4595000Y-48225833D01*
X4695000Y-48259166D01*
X4761666Y-48259166D01*
X4861666Y-48225833D01*
X4928333Y-48159166D01*
X4961666Y-48092500D01*
X4995000Y-47959166D01*
X4995000Y-47859166D01*
X4961666Y-47725833D01*
X4928333Y-47659166D01*
X4861666Y-47592500D01*
X4761666Y-47559166D01*
X4695000Y-47559166D01*
X4595000Y-47592500D01*
X4561666Y-47625833D01*
X4328333Y-47559166D02*
X3895000Y-47559166D01*
X4128333Y-47825833D01*
X4028333Y-47825833D01*
X3961666Y-47859166D01*
X3928333Y-47892500D01*
X3895000Y-47959166D01*
X3895000Y-48125833D01*
X3928333Y-48192500D01*
X3961666Y-48225833D01*
X4028333Y-48259166D01*
X4228333Y-48259166D01*
X4295000Y-48225833D01*
X4328333Y-48192500D01*
X18484000Y-37270500D02*
X18517333Y-37303833D01*
X18617333Y-37337166D01*
X18684000Y-37337166D01*
X18784000Y-37303833D01*
X18850666Y-37237166D01*
X18884000Y-37170500D01*
X18917333Y-37037166D01*
X18917333Y-36937166D01*
X18884000Y-36803833D01*
X18850666Y-36737166D01*
X18784000Y-36670500D01*
X18684000Y-36637166D01*
X18617333Y-36637166D01*
X18517333Y-36670500D01*
X18484000Y-36703833D01*
X17817333Y-37337166D02*
X18217333Y-37337166D01*
X18017333Y-37337166D02*
X18017333Y-36637166D01*
X18084000Y-36737166D01*
X18150666Y-36803833D01*
X18217333Y-36837166D01*
X17584000Y-36637166D02*
X17150666Y-36637166D01*
X17384000Y-36903833D01*
X17284000Y-36903833D01*
X17217333Y-36937166D01*
X17184000Y-36970500D01*
X17150666Y-37037166D01*
X17150666Y-37203833D01*
X17184000Y-37270500D01*
X17217333Y-37303833D01*
X17284000Y-37337166D01*
X17484000Y-37337166D01*
X17550666Y-37303833D01*
X17584000Y-37270500D01*
X7000066Y-90562866D02*
X7233400Y-90229533D01*
X7400066Y-90562866D02*
X7400066Y-89862866D01*
X7133400Y-89862866D01*
X7066733Y-89896200D01*
X7033400Y-89929533D01*
X7000066Y-89996200D01*
X7000066Y-90096200D01*
X7033400Y-90162866D01*
X7066733Y-90196200D01*
X7133400Y-90229533D01*
X7400066Y-90229533D01*
X6733400Y-89929533D02*
X6700066Y-89896200D01*
X6633400Y-89862866D01*
X6466733Y-89862866D01*
X6400066Y-89896200D01*
X6366733Y-89929533D01*
X6333400Y-89996200D01*
X6333400Y-90062866D01*
X6366733Y-90162866D01*
X6766733Y-90562866D01*
X6333400Y-90562866D01*
X27374000Y-98551166D02*
X27607333Y-98217833D01*
X27774000Y-98551166D02*
X27774000Y-97851166D01*
X27507333Y-97851166D01*
X27440666Y-97884500D01*
X27407333Y-97917833D01*
X27374000Y-97984500D01*
X27374000Y-98084500D01*
X27407333Y-98151166D01*
X27440666Y-98184500D01*
X27507333Y-98217833D01*
X27774000Y-98217833D01*
X26707333Y-98551166D02*
X27107333Y-98551166D01*
X26907333Y-98551166D02*
X26907333Y-97851166D01*
X26974000Y-97951166D01*
X27040666Y-98017833D01*
X27107333Y-98051166D01*
X26474000Y-97851166D02*
X26007333Y-97851166D01*
X26307333Y-98551166D01*
X27374000Y-99757666D02*
X27607333Y-99424333D01*
X27774000Y-99757666D02*
X27774000Y-99057666D01*
X27507333Y-99057666D01*
X27440666Y-99091000D01*
X27407333Y-99124333D01*
X27374000Y-99191000D01*
X27374000Y-99291000D01*
X27407333Y-99357666D01*
X27440666Y-99391000D01*
X27507333Y-99424333D01*
X27774000Y-99424333D01*
X26707333Y-99757666D02*
X27107333Y-99757666D01*
X26907333Y-99757666D02*
X26907333Y-99057666D01*
X26974000Y-99157666D01*
X27040666Y-99224333D01*
X27107333Y-99257666D01*
X26374000Y-99757666D02*
X26240666Y-99757666D01*
X26174000Y-99724333D01*
X26140666Y-99691000D01*
X26074000Y-99591000D01*
X26040666Y-99457666D01*
X26040666Y-99191000D01*
X26074000Y-99124333D01*
X26107333Y-99091000D01*
X26174000Y-99057666D01*
X26307333Y-99057666D01*
X26374000Y-99091000D01*
X26407333Y-99124333D01*
X26440666Y-99191000D01*
X26440666Y-99357666D01*
X26407333Y-99424333D01*
X26374000Y-99457666D01*
X26307333Y-99491000D01*
X26174000Y-99491000D01*
X26107333Y-99457666D01*
X26074000Y-99424333D01*
X26040666Y-99357666D01*
X20736666Y-97281166D02*
X20970000Y-96947833D01*
X21136666Y-97281166D02*
X21136666Y-96581166D01*
X20870000Y-96581166D01*
X20803333Y-96614500D01*
X20770000Y-96647833D01*
X20736666Y-96714500D01*
X20736666Y-96814500D01*
X20770000Y-96881166D01*
X20803333Y-96914500D01*
X20870000Y-96947833D01*
X21136666Y-96947833D01*
X20536666Y-96581166D02*
X20303333Y-97281166D01*
X20070000Y-96581166D01*
X19903333Y-96581166D02*
X19470000Y-96581166D01*
X19703333Y-96847833D01*
X19603333Y-96847833D01*
X19536666Y-96881166D01*
X19503333Y-96914500D01*
X19470000Y-96981166D01*
X19470000Y-97147833D01*
X19503333Y-97214500D01*
X19536666Y-97247833D01*
X19603333Y-97281166D01*
X19803333Y-97281166D01*
X19870000Y-97247833D01*
X19903333Y-97214500D01*
X7181000Y-41020166D02*
X7414333Y-40686833D01*
X7581000Y-41020166D02*
X7581000Y-40320166D01*
X7314333Y-40320166D01*
X7247666Y-40353500D01*
X7214333Y-40386833D01*
X7181000Y-40453500D01*
X7181000Y-40553500D01*
X7214333Y-40620166D01*
X7247666Y-40653500D01*
X7314333Y-40686833D01*
X7581000Y-40686833D01*
X6914333Y-40386833D02*
X6881000Y-40353500D01*
X6814333Y-40320166D01*
X6647666Y-40320166D01*
X6581000Y-40353500D01*
X6547666Y-40386833D01*
X6514333Y-40453500D01*
X6514333Y-40520166D01*
X6547666Y-40620166D01*
X6947666Y-41020166D01*
X6514333Y-41020166D01*
X5847666Y-41020166D02*
X6247666Y-41020166D01*
X6047666Y-41020166D02*
X6047666Y-40320166D01*
X6114333Y-40420166D01*
X6181000Y-40486833D01*
X6247666Y-40520166D01*
X18484000Y-38924666D02*
X18717333Y-38591333D01*
X18884000Y-38924666D02*
X18884000Y-38224666D01*
X18617333Y-38224666D01*
X18550666Y-38258000D01*
X18517333Y-38291333D01*
X18484000Y-38358000D01*
X18484000Y-38458000D01*
X18517333Y-38524666D01*
X18550666Y-38558000D01*
X18617333Y-38591333D01*
X18884000Y-38591333D01*
X18217333Y-38291333D02*
X18184000Y-38258000D01*
X18117333Y-38224666D01*
X17950666Y-38224666D01*
X17884000Y-38258000D01*
X17850666Y-38291333D01*
X17817333Y-38358000D01*
X17817333Y-38424666D01*
X17850666Y-38524666D01*
X18250666Y-38924666D01*
X17817333Y-38924666D01*
X17217333Y-38458000D02*
X17217333Y-38924666D01*
X17384000Y-38191333D02*
X17550666Y-38691333D01*
X17117333Y-38691333D01*
X6431600Y-44322166D02*
X6664933Y-43988833D01*
X6831600Y-44322166D02*
X6831600Y-43622166D01*
X6564933Y-43622166D01*
X6498266Y-43655500D01*
X6464933Y-43688833D01*
X6431600Y-43755500D01*
X6431600Y-43855500D01*
X6464933Y-43922166D01*
X6498266Y-43955500D01*
X6564933Y-43988833D01*
X6831600Y-43988833D01*
X6198266Y-43622166D02*
X5764933Y-43622166D01*
X5998266Y-43888833D01*
X5898266Y-43888833D01*
X5831600Y-43922166D01*
X5798266Y-43955500D01*
X5764933Y-44022166D01*
X5764933Y-44188833D01*
X5798266Y-44255500D01*
X5831600Y-44288833D01*
X5898266Y-44322166D01*
X6098266Y-44322166D01*
X6164933Y-44288833D01*
X6198266Y-44255500D01*
X5098266Y-44322166D02*
X5498266Y-44322166D01*
X5298266Y-44322166D02*
X5298266Y-43622166D01*
X5364933Y-43722166D01*
X5431600Y-43788833D01*
X5498266Y-43822166D01*
X7181000Y-42607666D02*
X7414333Y-42274333D01*
X7581000Y-42607666D02*
X7581000Y-41907666D01*
X7314333Y-41907666D01*
X7247666Y-41941000D01*
X7214333Y-41974333D01*
X7181000Y-42041000D01*
X7181000Y-42141000D01*
X7214333Y-42207666D01*
X7247666Y-42241000D01*
X7314333Y-42274333D01*
X7581000Y-42274333D01*
X6947666Y-41907666D02*
X6514333Y-41907666D01*
X6747666Y-42174333D01*
X6647666Y-42174333D01*
X6581000Y-42207666D01*
X6547666Y-42241000D01*
X6514333Y-42307666D01*
X6514333Y-42474333D01*
X6547666Y-42541000D01*
X6581000Y-42574333D01*
X6647666Y-42607666D01*
X6847666Y-42607666D01*
X6914333Y-42574333D01*
X6947666Y-42541000D01*
X6247666Y-41974333D02*
X6214333Y-41941000D01*
X6147666Y-41907666D01*
X5981000Y-41907666D01*
X5914333Y-41941000D01*
X5881000Y-41974333D01*
X5847666Y-42041000D01*
X5847666Y-42107666D01*
X5881000Y-42207666D01*
X6281000Y-42607666D01*
X5847666Y-42607666D01*
X18865000Y-61594166D02*
X19098333Y-61260833D01*
X19265000Y-61594166D02*
X19265000Y-60894166D01*
X18998333Y-60894166D01*
X18931666Y-60927500D01*
X18898333Y-60960833D01*
X18865000Y-61027500D01*
X18865000Y-61127500D01*
X18898333Y-61194166D01*
X18931666Y-61227500D01*
X18998333Y-61260833D01*
X19265000Y-61260833D01*
X18231666Y-60894166D02*
X18565000Y-60894166D01*
X18598333Y-61227500D01*
X18565000Y-61194166D01*
X18498333Y-61160833D01*
X18331666Y-61160833D01*
X18265000Y-61194166D01*
X18231666Y-61227500D01*
X18198333Y-61294166D01*
X18198333Y-61460833D01*
X18231666Y-61527500D01*
X18265000Y-61560833D01*
X18331666Y-61594166D01*
X18498333Y-61594166D01*
X18565000Y-61560833D01*
X18598333Y-61527500D01*
X17598333Y-61127500D02*
X17598333Y-61594166D01*
X17765000Y-60860833D02*
X17931666Y-61360833D01*
X17498333Y-61360833D01*
X18865000Y-58419166D02*
X19098333Y-58085833D01*
X19265000Y-58419166D02*
X19265000Y-57719166D01*
X18998333Y-57719166D01*
X18931666Y-57752500D01*
X18898333Y-57785833D01*
X18865000Y-57852500D01*
X18865000Y-57952500D01*
X18898333Y-58019166D01*
X18931666Y-58052500D01*
X18998333Y-58085833D01*
X19265000Y-58085833D01*
X18231666Y-57719166D02*
X18565000Y-57719166D01*
X18598333Y-58052500D01*
X18565000Y-58019166D01*
X18498333Y-57985833D01*
X18331666Y-57985833D01*
X18265000Y-58019166D01*
X18231666Y-58052500D01*
X18198333Y-58119166D01*
X18198333Y-58285833D01*
X18231666Y-58352500D01*
X18265000Y-58385833D01*
X18331666Y-58419166D01*
X18498333Y-58419166D01*
X18565000Y-58385833D01*
X18598333Y-58352500D01*
X17965000Y-57719166D02*
X17498333Y-57719166D01*
X17798333Y-58419166D01*
X18865000Y-60006666D02*
X19098333Y-59673333D01*
X19265000Y-60006666D02*
X19265000Y-59306666D01*
X18998333Y-59306666D01*
X18931666Y-59340000D01*
X18898333Y-59373333D01*
X18865000Y-59440000D01*
X18865000Y-59540000D01*
X18898333Y-59606666D01*
X18931666Y-59640000D01*
X18998333Y-59673333D01*
X19265000Y-59673333D01*
X18231666Y-59306666D02*
X18565000Y-59306666D01*
X18598333Y-59640000D01*
X18565000Y-59606666D01*
X18498333Y-59573333D01*
X18331666Y-59573333D01*
X18265000Y-59606666D01*
X18231666Y-59640000D01*
X18198333Y-59706666D01*
X18198333Y-59873333D01*
X18231666Y-59940000D01*
X18265000Y-59973333D01*
X18331666Y-60006666D01*
X18498333Y-60006666D01*
X18565000Y-59973333D01*
X18598333Y-59940000D01*
X17798333Y-59606666D02*
X17865000Y-59573333D01*
X17898333Y-59540000D01*
X17931666Y-59473333D01*
X17931666Y-59440000D01*
X17898333Y-59373333D01*
X17865000Y-59340000D01*
X17798333Y-59306666D01*
X17665000Y-59306666D01*
X17598333Y-59340000D01*
X17565000Y-59373333D01*
X17531666Y-59440000D01*
X17531666Y-59473333D01*
X17565000Y-59540000D01*
X17598333Y-59573333D01*
X17665000Y-59606666D01*
X17798333Y-59606666D01*
X17865000Y-59640000D01*
X17898333Y-59673333D01*
X17931666Y-59740000D01*
X17931666Y-59873333D01*
X17898333Y-59940000D01*
X17865000Y-59973333D01*
X17798333Y-60006666D01*
X17665000Y-60006666D01*
X17598333Y-59973333D01*
X17565000Y-59940000D01*
X17531666Y-59873333D01*
X17531666Y-59740000D01*
X17565000Y-59673333D01*
X17598333Y-59640000D01*
X17665000Y-59606666D01*
X26159266Y-29021933D02*
X25825933Y-28788600D01*
X26159266Y-28621933D02*
X25459266Y-28621933D01*
X25459266Y-28888600D01*
X25492600Y-28955266D01*
X25525933Y-28988600D01*
X25592600Y-29021933D01*
X25692600Y-29021933D01*
X25759266Y-28988600D01*
X25792600Y-28955266D01*
X25825933Y-28888600D01*
X25825933Y-28621933D01*
X25459266Y-29221933D02*
X26159266Y-29455266D01*
X25459266Y-29688600D01*
X25459266Y-30255266D02*
X25459266Y-29921933D01*
X25792600Y-29888600D01*
X25759266Y-29921933D01*
X25725933Y-29988600D01*
X25725933Y-30155266D01*
X25759266Y-30221933D01*
X25792600Y-30255266D01*
X25859266Y-30288600D01*
X26025933Y-30288600D01*
X26092600Y-30255266D01*
X26125933Y-30221933D01*
X26159266Y-30155266D01*
X26159266Y-29988600D01*
X26125933Y-29921933D01*
X26092600Y-29888600D01*
X5599666Y-87251333D02*
X5599666Y-86684666D01*
X5633000Y-86618000D01*
X5666333Y-86584666D01*
X5733000Y-86551333D01*
X5866333Y-86551333D01*
X5933000Y-86584666D01*
X5966333Y-86618000D01*
X5999666Y-86684666D01*
X5999666Y-87251333D01*
X6299666Y-87184666D02*
X6333000Y-87218000D01*
X6399666Y-87251333D01*
X6566333Y-87251333D01*
X6633000Y-87218000D01*
X6666333Y-87184666D01*
X6699666Y-87118000D01*
X6699666Y-87051333D01*
X6666333Y-86951333D01*
X6266333Y-86551333D01*
X6699666Y-86551333D01*
X756500Y-36770500D02*
X723166Y-36737166D01*
X623166Y-36703833D01*
X556500Y-36703833D01*
X456500Y-36737166D01*
X389833Y-36803833D01*
X356500Y-36870500D01*
X323166Y-37003833D01*
X323166Y-37103833D01*
X356500Y-37237166D01*
X389833Y-37303833D01*
X456500Y-37370500D01*
X556500Y-37403833D01*
X623166Y-37403833D01*
X723166Y-37370500D01*
X756500Y-37337166D01*
X1423166Y-36703833D02*
X1023166Y-36703833D01*
X1223166Y-36703833D02*
X1223166Y-37403833D01*
X1156500Y-37303833D01*
X1089833Y-37237166D01*
X1023166Y-37203833D01*
X1823166Y-37103833D02*
X1756500Y-37137166D01*
X1723166Y-37170500D01*
X1689833Y-37237166D01*
X1689833Y-37270500D01*
X1723166Y-37337166D01*
X1756500Y-37370500D01*
X1823166Y-37403833D01*
X1956500Y-37403833D01*
X2023166Y-37370500D01*
X2056500Y-37337166D01*
X2089833Y-37270500D01*
X2089833Y-37237166D01*
X2056500Y-37170500D01*
X2023166Y-37137166D01*
X1956500Y-37103833D01*
X1823166Y-37103833D01*
X1756500Y-37070500D01*
X1723166Y-37037166D01*
X1689833Y-36970500D01*
X1689833Y-36837166D01*
X1723166Y-36770500D01*
X1756500Y-36737166D01*
X1823166Y-36703833D01*
X1956500Y-36703833D01*
X2023166Y-36737166D01*
X2056500Y-36770500D01*
X2089833Y-36837166D01*
X2089833Y-36970500D01*
X2056500Y-37037166D01*
X2023166Y-37070500D01*
X1956500Y-37103833D01*
X756500Y-33405000D02*
X723166Y-33371666D01*
X623166Y-33338333D01*
X556500Y-33338333D01*
X456500Y-33371666D01*
X389833Y-33438333D01*
X356500Y-33505000D01*
X323166Y-33638333D01*
X323166Y-33738333D01*
X356500Y-33871666D01*
X389833Y-33938333D01*
X456500Y-34005000D01*
X556500Y-34038333D01*
X623166Y-34038333D01*
X723166Y-34005000D01*
X756500Y-33971666D01*
X1423166Y-33338333D02*
X1023166Y-33338333D01*
X1223166Y-33338333D02*
X1223166Y-34038333D01*
X1156500Y-33938333D01*
X1089833Y-33871666D01*
X1023166Y-33838333D01*
X1756500Y-33338333D02*
X1889833Y-33338333D01*
X1956500Y-33371666D01*
X1989833Y-33405000D01*
X2056500Y-33505000D01*
X2089833Y-33638333D01*
X2089833Y-33905000D01*
X2056500Y-33971666D01*
X2023166Y-34005000D01*
X1956500Y-34038333D01*
X1823166Y-34038333D01*
X1756500Y-34005000D01*
X1723166Y-33971666D01*
X1689833Y-33905000D01*
X1689833Y-33738333D01*
X1723166Y-33671666D01*
X1756500Y-33638333D01*
X1823166Y-33605000D01*
X1956500Y-33605000D01*
X2023166Y-33638333D01*
X2056500Y-33671666D01*
X2089833Y-33738333D01*
X14135166Y-36197333D02*
X14135166Y-35630666D01*
X14168500Y-35564000D01*
X14201833Y-35530666D01*
X14268500Y-35497333D01*
X14401833Y-35497333D01*
X14468500Y-35530666D01*
X14501833Y-35564000D01*
X14535166Y-35630666D01*
X14535166Y-36197333D01*
X14801833Y-36197333D02*
X15268500Y-36197333D01*
X14968500Y-35497333D01*
X4514000Y-31873000D02*
X4547333Y-31906333D01*
X4647333Y-31939666D01*
X4714000Y-31939666D01*
X4814000Y-31906333D01*
X4880666Y-31839666D01*
X4914000Y-31773000D01*
X4947333Y-31639666D01*
X4947333Y-31539666D01*
X4914000Y-31406333D01*
X4880666Y-31339666D01*
X4814000Y-31273000D01*
X4714000Y-31239666D01*
X4647333Y-31239666D01*
X4547333Y-31273000D01*
X4514000Y-31306333D01*
X3847333Y-31939666D02*
X4247333Y-31939666D01*
X4047333Y-31939666D02*
X4047333Y-31239666D01*
X4114000Y-31339666D01*
X4180666Y-31406333D01*
X4247333Y-31439666D01*
X3614000Y-31239666D02*
X3147333Y-31239666D01*
X3447333Y-31939666D01*
X6393600Y-45909666D02*
X6626933Y-45576333D01*
X6793600Y-45909666D02*
X6793600Y-45209666D01*
X6526933Y-45209666D01*
X6460266Y-45243000D01*
X6426933Y-45276333D01*
X6393600Y-45343000D01*
X6393600Y-45443000D01*
X6426933Y-45509666D01*
X6460266Y-45543000D01*
X6526933Y-45576333D01*
X6793600Y-45576333D01*
X6126933Y-45276333D02*
X6093600Y-45243000D01*
X6026933Y-45209666D01*
X5860266Y-45209666D01*
X5793600Y-45243000D01*
X5760266Y-45276333D01*
X5726933Y-45343000D01*
X5726933Y-45409666D01*
X5760266Y-45509666D01*
X6160266Y-45909666D01*
X5726933Y-45909666D01*
X5326933Y-45509666D02*
X5393600Y-45476333D01*
X5426933Y-45443000D01*
X5460266Y-45376333D01*
X5460266Y-45343000D01*
X5426933Y-45276333D01*
X5393600Y-45243000D01*
X5326933Y-45209666D01*
X5193600Y-45209666D01*
X5126933Y-45243000D01*
X5093600Y-45276333D01*
X5060266Y-45343000D01*
X5060266Y-45376333D01*
X5093600Y-45443000D01*
X5126933Y-45476333D01*
X5193600Y-45509666D01*
X5326933Y-45509666D01*
X5393600Y-45543000D01*
X5426933Y-45576333D01*
X5460266Y-45643000D01*
X5460266Y-45776333D01*
X5426933Y-45843000D01*
X5393600Y-45876333D01*
X5326933Y-45909666D01*
X5193600Y-45909666D01*
X5126933Y-45876333D01*
X5093600Y-45843000D01*
X5060266Y-45776333D01*
X5060266Y-45643000D01*
X5093600Y-45576333D01*
X5126933Y-45543000D01*
X5193600Y-45509666D01*
X5577666Y-101408666D02*
X5811000Y-101075333D01*
X5977666Y-101408666D02*
X5977666Y-100708666D01*
X5711000Y-100708666D01*
X5644333Y-100742000D01*
X5611000Y-100775333D01*
X5577666Y-100842000D01*
X5577666Y-100942000D01*
X5611000Y-101008666D01*
X5644333Y-101042000D01*
X5711000Y-101075333D01*
X5977666Y-101075333D01*
X5177666Y-101008666D02*
X5244333Y-100975333D01*
X5277666Y-100942000D01*
X5311000Y-100875333D01*
X5311000Y-100842000D01*
X5277666Y-100775333D01*
X5244333Y-100742000D01*
X5177666Y-100708666D01*
X5044333Y-100708666D01*
X4977666Y-100742000D01*
X4944333Y-100775333D01*
X4911000Y-100842000D01*
X4911000Y-100875333D01*
X4944333Y-100942000D01*
X4977666Y-100975333D01*
X5044333Y-101008666D01*
X5177666Y-101008666D01*
X5244333Y-101042000D01*
X5277666Y-101075333D01*
X5311000Y-101142000D01*
X5311000Y-101275333D01*
X5277666Y-101342000D01*
X5244333Y-101375333D01*
X5177666Y-101408666D01*
X5044333Y-101408666D01*
X4977666Y-101375333D01*
X4944333Y-101342000D01*
X4911000Y-101275333D01*
X4911000Y-101142000D01*
X4944333Y-101075333D01*
X4977666Y-101042000D01*
X5044333Y-101008666D01*
X25215000Y-47113000D02*
X25248333Y-47146333D01*
X25348333Y-47179666D01*
X25415000Y-47179666D01*
X25515000Y-47146333D01*
X25581666Y-47079666D01*
X25615000Y-47013000D01*
X25648333Y-46879666D01*
X25648333Y-46779666D01*
X25615000Y-46646333D01*
X25581666Y-46579666D01*
X25515000Y-46513000D01*
X25415000Y-46479666D01*
X25348333Y-46479666D01*
X25248333Y-46513000D01*
X25215000Y-46546333D01*
X24948333Y-46546333D02*
X24915000Y-46513000D01*
X24848333Y-46479666D01*
X24681666Y-46479666D01*
X24615000Y-46513000D01*
X24581666Y-46546333D01*
X24548333Y-46613000D01*
X24548333Y-46679666D01*
X24581666Y-46779666D01*
X24981666Y-47179666D01*
X24548333Y-47179666D01*
X24281666Y-46546333D02*
X24248333Y-46513000D01*
X24181666Y-46479666D01*
X24015000Y-46479666D01*
X23948333Y-46513000D01*
X23915000Y-46546333D01*
X23881666Y-46613000D01*
X23881666Y-46679666D01*
X23915000Y-46779666D01*
X24315000Y-47179666D01*
X23881666Y-47179666D01*
X15425000Y-53445500D02*
X15391666Y-53412166D01*
X15291666Y-53378833D01*
X15225000Y-53378833D01*
X15125000Y-53412166D01*
X15058333Y-53478833D01*
X15025000Y-53545500D01*
X14991666Y-53678833D01*
X14991666Y-53778833D01*
X15025000Y-53912166D01*
X15058333Y-53978833D01*
X15125000Y-54045500D01*
X15225000Y-54078833D01*
X15291666Y-54078833D01*
X15391666Y-54045500D01*
X15425000Y-54012166D01*
X15691666Y-54012166D02*
X15725000Y-54045500D01*
X15791666Y-54078833D01*
X15958333Y-54078833D01*
X16025000Y-54045500D01*
X16058333Y-54012166D01*
X16091666Y-53945500D01*
X16091666Y-53878833D01*
X16058333Y-53778833D01*
X15658333Y-53378833D01*
X16091666Y-53378833D01*
X16325000Y-54078833D02*
X16758333Y-54078833D01*
X16525000Y-53812166D01*
X16625000Y-53812166D01*
X16691666Y-53778833D01*
X16725000Y-53745500D01*
X16758333Y-53678833D01*
X16758333Y-53512166D01*
X16725000Y-53445500D01*
X16691666Y-53412166D01*
X16625000Y-53378833D01*
X16425000Y-53378833D01*
X16358333Y-53412166D01*
X16325000Y-53445500D01*
X21691666Y-49024333D02*
X21691666Y-48457666D01*
X21725000Y-48391000D01*
X21758333Y-48357666D01*
X21825000Y-48324333D01*
X21958333Y-48324333D01*
X22025000Y-48357666D01*
X22058333Y-48391000D01*
X22091666Y-48457666D01*
X22091666Y-49024333D01*
X22458333Y-48324333D02*
X22591666Y-48324333D01*
X22658333Y-48357666D01*
X22691666Y-48391000D01*
X22758333Y-48491000D01*
X22791666Y-48624333D01*
X22791666Y-48891000D01*
X22758333Y-48957666D01*
X22725000Y-48991000D01*
X22658333Y-49024333D01*
X22525000Y-49024333D01*
X22458333Y-48991000D01*
X22425000Y-48957666D01*
X22391666Y-48891000D01*
X22391666Y-48724333D01*
X22425000Y-48657666D01*
X22458333Y-48624333D01*
X22525000Y-48591000D01*
X22658333Y-48591000D01*
X22725000Y-48624333D01*
X22758333Y-48657666D01*
X22791666Y-48724333D01*
X25532500Y-113029166D02*
X25765833Y-112695833D01*
X25932500Y-113029166D02*
X25932500Y-112329166D01*
X25665833Y-112329166D01*
X25599166Y-112362500D01*
X25565833Y-112395833D01*
X25532500Y-112462500D01*
X25532500Y-112562500D01*
X25565833Y-112629166D01*
X25599166Y-112662500D01*
X25665833Y-112695833D01*
X25932500Y-112695833D01*
X24865833Y-113029166D02*
X25265833Y-113029166D01*
X25065833Y-113029166D02*
X25065833Y-112329166D01*
X25132500Y-112429166D01*
X25199166Y-112495833D01*
X25265833Y-112529166D01*
X24232500Y-112329166D02*
X24565833Y-112329166D01*
X24599166Y-112662500D01*
X24565833Y-112629166D01*
X24499166Y-112595833D01*
X24332500Y-112595833D01*
X24265833Y-112629166D01*
X24232500Y-112662500D01*
X24199166Y-112729166D01*
X24199166Y-112895833D01*
X24232500Y-112962500D01*
X24265833Y-112995833D01*
X24332500Y-113029166D01*
X24499166Y-113029166D01*
X24565833Y-112995833D01*
X24599166Y-112962500D01*
X27818500Y-110425666D02*
X28051833Y-110092333D01*
X28218500Y-110425666D02*
X28218500Y-109725666D01*
X27951833Y-109725666D01*
X27885166Y-109759000D01*
X27851833Y-109792333D01*
X27818500Y-109859000D01*
X27818500Y-109959000D01*
X27851833Y-110025666D01*
X27885166Y-110059000D01*
X27951833Y-110092333D01*
X28218500Y-110092333D01*
X27151833Y-110425666D02*
X27551833Y-110425666D01*
X27351833Y-110425666D02*
X27351833Y-109725666D01*
X27418500Y-109825666D01*
X27485166Y-109892333D01*
X27551833Y-109925666D01*
X26751833Y-110025666D02*
X26818500Y-109992333D01*
X26851833Y-109959000D01*
X26885166Y-109892333D01*
X26885166Y-109859000D01*
X26851833Y-109792333D01*
X26818500Y-109759000D01*
X26751833Y-109725666D01*
X26618500Y-109725666D01*
X26551833Y-109759000D01*
X26518500Y-109792333D01*
X26485166Y-109859000D01*
X26485166Y-109892333D01*
X26518500Y-109959000D01*
X26551833Y-109992333D01*
X26618500Y-110025666D01*
X26751833Y-110025666D01*
X26818500Y-110059000D01*
X26851833Y-110092333D01*
X26885166Y-110159000D01*
X26885166Y-110292333D01*
X26851833Y-110359000D01*
X26818500Y-110392333D01*
X26751833Y-110425666D01*
X26618500Y-110425666D01*
X26551833Y-110392333D01*
X26518500Y-110359000D01*
X26485166Y-110292333D01*
X26485166Y-110159000D01*
X26518500Y-110092333D01*
X26551833Y-110059000D01*
X26618500Y-110025666D01*
D12*
X24053800Y-26629000D02*
X21853800Y-26629000D01*
X24053800Y-23409000D02*
X27653800Y-23409000D01*
X24053800Y-23409000D02*
X21853800Y-23409000D01*
X24053800Y-26629000D02*
X26253800Y-26629000D01*
X10684742Y-82335900D02*
X11159258Y-82335900D01*
X10684742Y-81290900D02*
X11159258Y-81290900D01*
X10684742Y-80710300D02*
X11159258Y-80710300D01*
X10684742Y-79665300D02*
X11159258Y-79665300D01*
X7687542Y-99963500D02*
X8162058Y-99963500D01*
X7687542Y-98918500D02*
X8162058Y-98918500D01*
X14656580Y-91251500D02*
X14375420Y-91251500D01*
X14656580Y-90231500D02*
X14375420Y-90231500D01*
X13323080Y-93474000D02*
X13041920Y-93474000D01*
X13323080Y-92454000D02*
X13041920Y-92454000D01*
X16117080Y-110047500D02*
X15835920Y-110047500D01*
X16117080Y-109027500D02*
X15835920Y-109027500D01*
X24626080Y-101534500D02*
X24344920Y-101534500D01*
X24626080Y-102554500D02*
X24344920Y-102554500D01*
X24570937Y-15841000D02*
X29026500Y-15841000D01*
X29026500Y-15841000D02*
X29026500Y-14141000D01*
X23506500Y-14776563D02*
X23506500Y-14141000D01*
X22641500Y-14766000D02*
X23266500Y-14766000D01*
X22954000Y-15078500D02*
X22954000Y-14453500D01*
X23506500Y-14776563D02*
X24570937Y-15841000D01*
X29026500Y-10321000D02*
X29026500Y-12021000D01*
X24570937Y-10321000D02*
X29026500Y-10321000D01*
X23506500Y-11385437D02*
X24570937Y-10321000D01*
X23506500Y-11385437D02*
X23506500Y-12021000D01*
X16935563Y-13582000D02*
X16300000Y-13582000D01*
X18000000Y-19102000D02*
X16300000Y-19102000D01*
X18000000Y-14646437D02*
X18000000Y-19102000D01*
X13544437Y-13582000D02*
X12480000Y-14646437D01*
X13544437Y-13582000D02*
X14180000Y-13582000D01*
X12480000Y-19102000D02*
X14180000Y-19102000D01*
X13242500Y-13029500D02*
X13867500Y-13029500D01*
X12480000Y-14646437D02*
X12480000Y-19102000D01*
X16935563Y-13582000D02*
X18000000Y-14646437D01*
X13555000Y-12717000D02*
X13555000Y-13342000D01*
X20651080Y-19810000D02*
X20369920Y-19810000D01*
X20651080Y-20830000D02*
X20369920Y-20830000D01*
X16142580Y-20635500D02*
X15861420Y-20635500D01*
X16142580Y-21655500D02*
X15861420Y-21655500D01*
X19168242Y-12968500D02*
X19642758Y-12968500D01*
X19168242Y-11923500D02*
X19642758Y-11923500D01*
X11675242Y-21668000D02*
X12149758Y-21668000D01*
X11675242Y-20623000D02*
X12149758Y-20623000D01*
X8076000Y-29437000D02*
X8076000Y-11457000D01*
X266000Y-30737000D02*
X9386000Y-30737000D01*
X1576000Y-18397000D02*
X1576000Y-18397000D01*
X9386000Y-30737000D02*
X9386000Y-10157000D01*
X9386000Y-10157000D02*
X266000Y-10157000D01*
X1576000Y-11457000D02*
X1576000Y-18397000D01*
X266000Y-10157000D02*
X266000Y-30737000D01*
X1576000Y-18397000D02*
X266000Y-18397000D01*
X1576000Y-29437000D02*
X8076000Y-29437000D01*
X8076000Y-11457000D02*
X1576000Y-11457000D01*
X1576000Y-22497000D02*
X1576000Y-29437000D01*
X266000Y-22497000D02*
X1576000Y-22497000D01*
X-1124000Y-25027000D02*
X-124000Y-25527000D01*
X-1124000Y-26027000D02*
X-1124000Y-25027000D01*
X-124000Y-25527000D02*
X-1124000Y-26027000D01*
X14304242Y-88568000D02*
X14778758Y-88568000D01*
X14304242Y-89613000D02*
X14778758Y-89613000D01*
X633000Y-85647920D02*
X633000Y-85929080D01*
X1653000Y-85647920D02*
X1653000Y-85929080D01*
X5840000Y-81494920D02*
X5840000Y-81776080D01*
X6860000Y-81494920D02*
X6860000Y-81776080D01*
X15378920Y-65788000D02*
X15660080Y-65788000D01*
X15378920Y-64768000D02*
X15660080Y-64768000D01*
X23481420Y-76684600D02*
X23762580Y-76684600D01*
X23481420Y-75664600D02*
X23762580Y-75664600D01*
X4204580Y-60263500D02*
X3923420Y-60263500D01*
X4204580Y-59243500D02*
X3923420Y-59243500D01*
X19163420Y-46353000D02*
X19444580Y-46353000D01*
X19163420Y-47373000D02*
X19444580Y-47373000D01*
X2093500Y-54788580D02*
X2093500Y-54507420D01*
X3113500Y-54788580D02*
X3113500Y-54507420D01*
X24092780Y-21918200D02*
X23811620Y-21918200D01*
X24092780Y-22938200D02*
X23811620Y-22938200D01*
X3050000Y-66726580D02*
X3050000Y-66445420D01*
X2030000Y-66726580D02*
X2030000Y-66445420D01*
X12956000Y-54306080D02*
X12956000Y-54024920D01*
X11936000Y-54306080D02*
X11936000Y-54024920D01*
X19890200Y-25208620D02*
X19890200Y-25489780D01*
X18870200Y-25208620D02*
X18870200Y-25489780D01*
X2030000Y-63257920D02*
X2030000Y-63539080D01*
X3050000Y-63257920D02*
X3050000Y-63539080D01*
X17387080Y-77264800D02*
X17105920Y-77264800D01*
X17387080Y-78284800D02*
X17105920Y-78284800D01*
X14288280Y-83568000D02*
X14007120Y-83568000D01*
X14288280Y-82548000D02*
X14007120Y-82548000D01*
X25583070Y-20510837D02*
G75*
G03*
X27665161Y-20511000I1041130J1079837D01*
G01*
X28184200Y-18195484D02*
G75*
G03*
X24951865Y-18352392I-1560000J-1235516D01*
G01*
X27665161Y-18351000D02*
G75*
G03*
X25583070Y-18351163I-1040961J-1080000D01*
G01*
X24951865Y-20509608D02*
G75*
G03*
X28184200Y-20666516I1672335J1078608D01*
G01*
X28184200Y-20511000D02*
X28184200Y-20667000D01*
X28184200Y-18195000D02*
X28184200Y-18351000D01*
X20105600Y-75429600D02*
X18205600Y-75429600D01*
X18705600Y-73109600D02*
X20105600Y-73109600D01*
X20853400Y-36281800D02*
X21503400Y-36281800D01*
X20853400Y-36281800D02*
X19178400Y-36281800D01*
X20853400Y-33161800D02*
X21503400Y-33161800D01*
X20853400Y-33161800D02*
X20203400Y-33161800D01*
X3166242Y-99963500D02*
X3640758Y-99963500D01*
X3166242Y-98918500D02*
X3640758Y-98918500D01*
X3166242Y-102220500D02*
X3640758Y-102220500D01*
X3166242Y-103265500D02*
X3640758Y-103265500D01*
X2912242Y-78119500D02*
X3386758Y-78119500D01*
X2912242Y-77074500D02*
X3386758Y-77074500D01*
X2912242Y-78662000D02*
X3386758Y-78662000D01*
X2912242Y-79707000D02*
X3386758Y-79707000D01*
X24062458Y-85100900D02*
X23587942Y-85100900D01*
X24062458Y-86145900D02*
X23587942Y-86145900D01*
X23587942Y-92314500D02*
X24062458Y-92314500D01*
X23587942Y-93359500D02*
X24062458Y-93359500D01*
X29034000Y-108123758D02*
X29034000Y-107649242D01*
X27989000Y-108123758D02*
X27989000Y-107649242D01*
X26084000Y-114824742D02*
X26084000Y-115299258D01*
X27129000Y-114824742D02*
X27129000Y-115299258D01*
X14278742Y-95963000D02*
X14753258Y-95963000D01*
X14278742Y-94918000D02*
X14753258Y-94918000D01*
X10913242Y-108091500D02*
X11387758Y-108091500D01*
X10913242Y-107046500D02*
X11387758Y-107046500D01*
X10913242Y-118251500D02*
X11387758Y-118251500D01*
X10913242Y-117206500D02*
X11387758Y-117206500D01*
X9605242Y-71071000D02*
X10079758Y-71071000D01*
X9605242Y-70026000D02*
X10079758Y-70026000D01*
X21522458Y-64742800D02*
X21047942Y-64742800D01*
X21522458Y-65787800D02*
X21047942Y-65787800D01*
X9605242Y-74763100D02*
X10079758Y-74763100D01*
X9605242Y-75808100D02*
X10079758Y-75808100D01*
X4301258Y-58688500D02*
X3826742Y-58688500D01*
X4301258Y-57643500D02*
X3826742Y-57643500D01*
X14075742Y-50595000D02*
X14550258Y-50595000D01*
X14075742Y-51640000D02*
X14550258Y-51640000D01*
X14562758Y-49007500D02*
X14088242Y-49007500D01*
X14562758Y-50052500D02*
X14088242Y-50052500D01*
X12716742Y-74763100D02*
X13191258Y-74763100D01*
X12716742Y-75808100D02*
X13191258Y-75808100D01*
X9605242Y-74246000D02*
X10079758Y-74246000D01*
X9605242Y-73201000D02*
X10079758Y-73201000D01*
X21522458Y-67362600D02*
X21047942Y-67362600D01*
X21522458Y-66317600D02*
X21047942Y-66317600D01*
X12716742Y-73188300D02*
X13191258Y-73188300D01*
X12716742Y-74233300D02*
X13191258Y-74233300D01*
X9605242Y-72658500D02*
X10079758Y-72658500D01*
X9605242Y-71613500D02*
X10079758Y-71613500D01*
X10079758Y-68438500D02*
X9605242Y-68438500D01*
X10079758Y-69483500D02*
X9605242Y-69483500D01*
X23859258Y-72477100D02*
X23384742Y-72477100D01*
X23859258Y-73522100D02*
X23384742Y-73522100D01*
X23384742Y-77252300D02*
X23859258Y-77252300D01*
X23384742Y-78297300D02*
X23859258Y-78297300D01*
X15282242Y-66343000D02*
X15756758Y-66343000D01*
X15282242Y-67388000D02*
X15756758Y-67388000D01*
X23859258Y-74051900D02*
X23384742Y-74051900D01*
X23859258Y-75096900D02*
X23384742Y-75096900D01*
X12302258Y-60276000D02*
X11827742Y-60276000D01*
X12302258Y-59231000D02*
X11827742Y-59231000D01*
X16315458Y-27802100D02*
X15840942Y-27802100D01*
X16315458Y-26757100D02*
X15840942Y-26757100D01*
X8716242Y-60276000D02*
X9190758Y-60276000D01*
X8716242Y-59231000D02*
X9190758Y-59231000D01*
X9190758Y-57643500D02*
X8716242Y-57643500D01*
X9190758Y-58688500D02*
X8716242Y-58688500D01*
X14562758Y-48465000D02*
X14088242Y-48465000D01*
X14562758Y-47420000D02*
X14088242Y-47420000D01*
X23763500Y-40572458D02*
X23763500Y-40097942D01*
X22718500Y-40572458D02*
X22718500Y-40097942D01*
X15883758Y-33132500D02*
X15409242Y-33132500D01*
X15883758Y-34177500D02*
X15409242Y-34177500D01*
X25363700Y-40097942D02*
X25363700Y-40572458D01*
X24318700Y-40097942D02*
X24318700Y-40572458D01*
X15218742Y-61326500D02*
X15693258Y-61326500D01*
X15218742Y-62371500D02*
X15693258Y-62371500D01*
X10837242Y-27862000D02*
X11311758Y-27862000D01*
X10837242Y-28907000D02*
X11311758Y-28907000D01*
X10837242Y-30494500D02*
X11311758Y-30494500D01*
X10837242Y-29449500D02*
X11311758Y-29449500D01*
X9736758Y-32145500D02*
X9262242Y-32145500D01*
X9736758Y-31100500D02*
X9262242Y-31100500D01*
X22114742Y-45798000D02*
X22589258Y-45798000D01*
X22114742Y-44753000D02*
X22589258Y-44753000D01*
X19541258Y-45798000D02*
X19066742Y-45798000D01*
X19541258Y-44753000D02*
X19066742Y-44753000D01*
X3835600Y-94600600D02*
X3835600Y-91700600D01*
X5635600Y-95700600D02*
X5235600Y-95700600D01*
X7235600Y-95500600D02*
X7235600Y-96200600D01*
X7035600Y-91700600D02*
X6435600Y-91700600D01*
X7035600Y-94600600D02*
X7035600Y-91700600D01*
X3835600Y-91700600D02*
X4435600Y-91700600D01*
X7235600Y-96200600D02*
X6535600Y-96200600D01*
X25471200Y-79353000D02*
X26171200Y-79353000D01*
X24571200Y-82753000D02*
X21671200Y-82753000D01*
X25671200Y-80953000D02*
X25671200Y-81353000D01*
X24571200Y-79553000D02*
X21671200Y-79553000D01*
X21671200Y-79553000D02*
X21671200Y-80153000D01*
X21671200Y-82753000D02*
X21671200Y-82153000D01*
X26171200Y-79353000D02*
X26171200Y-80053000D01*
X21780500Y-86607500D02*
X19580500Y-86607500D01*
X21780500Y-91827500D02*
X23980500Y-91827500D01*
X21780500Y-86607500D02*
X25380500Y-86607500D01*
X21780500Y-91827500D02*
X19580500Y-91827500D01*
X16611600Y-81975600D02*
X18811600Y-81975600D01*
X16611600Y-81975600D02*
X14411600Y-81975600D01*
X16611600Y-78755600D02*
X14411600Y-78755600D01*
X16611600Y-78755600D02*
X20211600Y-78755600D01*
X13759500Y-64325500D02*
X13759500Y-62375500D01*
X3639500Y-64325500D02*
X3639500Y-66275500D01*
X3639500Y-64325500D02*
X3639500Y-62375500D01*
X13759500Y-64325500D02*
X13759500Y-67775500D01*
X11877000Y-46915000D02*
X10202000Y-46915000D01*
X11877000Y-46915000D02*
X12527000Y-46915000D01*
X11877000Y-43795000D02*
X12527000Y-43795000D01*
X11877000Y-43795000D02*
X11227000Y-43795000D01*
X20590742Y-57037500D02*
X21065258Y-57037500D01*
X20590742Y-55992500D02*
X21065258Y-55992500D01*
X11451258Y-47420000D02*
X10976742Y-47420000D01*
X11451258Y-48465000D02*
X10976742Y-48465000D01*
X21780500Y-106927500D02*
X25380500Y-106927500D01*
X21780500Y-106927500D02*
X19580500Y-106927500D01*
X21780500Y-112147500D02*
X19580500Y-112147500D01*
X21780500Y-112147500D02*
X23980500Y-112147500D01*
X7683500Y-57093000D02*
X9883500Y-57093000D01*
X7683500Y-57093000D02*
X5483500Y-57093000D01*
X7683500Y-51873000D02*
X11283500Y-51873000D01*
X7683500Y-51873000D02*
X5483500Y-51873000D01*
X6592080Y-48452500D02*
X6310920Y-48452500D01*
X6592080Y-47432500D02*
X6310920Y-47432500D01*
X15505920Y-36510500D02*
X15787080Y-36510500D01*
X15505920Y-37530500D02*
X15787080Y-37530500D01*
X5063258Y-90768700D02*
X4588742Y-90768700D01*
X5063258Y-89723700D02*
X4588742Y-89723700D01*
X24722758Y-97712000D02*
X24248242Y-97712000D01*
X24722758Y-98757000D02*
X24248242Y-98757000D01*
X24722758Y-99299500D02*
X24248242Y-99299500D01*
X24722758Y-100344500D02*
X24248242Y-100344500D01*
X21256500Y-97650500D02*
X18356500Y-97650500D01*
X21256500Y-100850500D02*
X18356500Y-100850500D01*
X18356500Y-100850500D02*
X18356500Y-100250500D01*
X22156500Y-97450500D02*
X22856500Y-97450500D01*
X22356500Y-99050500D02*
X22356500Y-99450500D01*
X22856500Y-97450500D02*
X22856500Y-98150500D01*
X18356500Y-97650500D02*
X18356500Y-98250500D01*
X9419258Y-40181000D02*
X8944742Y-40181000D01*
X9419258Y-41226000D02*
X8944742Y-41226000D01*
X15409242Y-38085500D02*
X15883758Y-38085500D01*
X15409242Y-39130500D02*
X15883758Y-39130500D01*
X8119342Y-44528000D02*
X8593858Y-44528000D01*
X8119342Y-43483000D02*
X8593858Y-43483000D01*
X8944742Y-41768500D02*
X9419258Y-41768500D01*
X8944742Y-42813500D02*
X9419258Y-42813500D01*
X20590742Y-60755000D02*
X21065258Y-60755000D01*
X20590742Y-61800000D02*
X21065258Y-61800000D01*
X21065258Y-57580000D02*
X20590742Y-57580000D01*
X21065258Y-58625000D02*
X20590742Y-58625000D01*
X20590742Y-60212500D02*
X21065258Y-60212500D01*
X20590742Y-59167500D02*
X21065258Y-59167500D01*
X24942600Y-27538600D02*
X24342600Y-27538600D01*
X23542600Y-31538600D02*
X23142600Y-31538600D01*
X24942600Y-30438600D02*
X24942600Y-27538600D01*
X21742600Y-30438600D02*
X21742600Y-27538600D01*
X25142600Y-32038600D02*
X24442600Y-32038600D01*
X21742600Y-27538600D02*
X22342600Y-27538600D01*
X25142600Y-31338600D02*
X25142600Y-32038600D01*
X5293000Y-83947000D02*
X5293000Y-81747000D01*
X2073000Y-83947000D02*
X2073000Y-86147000D01*
X5293000Y-83947000D02*
X5293000Y-87547000D01*
X2073000Y-83947000D02*
X2073000Y-81747000D01*
X2284000Y-37948580D02*
X2284000Y-37667420D01*
X3304000Y-37948580D02*
X3304000Y-37667420D01*
X2284000Y-34301920D02*
X2284000Y-34583080D01*
X3304000Y-34301920D02*
X3304000Y-34583080D01*
X3766500Y-36131500D02*
X3766500Y-34181500D01*
X13886500Y-36131500D02*
X13886500Y-39581500D01*
X13886500Y-36131500D02*
X13886500Y-34181500D01*
X3766500Y-36131500D02*
X3766500Y-38081500D01*
X6528580Y-32133000D02*
X6247420Y-32133000D01*
X6528580Y-31113000D02*
X6247420Y-31113000D01*
X8593858Y-45070500D02*
X8119342Y-45070500D01*
X8593858Y-46115500D02*
X8119342Y-46115500D01*
X3166242Y-101614500D02*
X3640758Y-101614500D01*
X3166242Y-100569500D02*
X3640758Y-100569500D01*
X22492580Y-47373000D02*
X22211420Y-47373000D01*
X22492580Y-46353000D02*
X22211420Y-46353000D01*
X17016000Y-53861580D02*
X17016000Y-53580420D01*
X18036000Y-53861580D02*
X18036000Y-53580420D01*
X21739500Y-51625500D02*
X21739500Y-53825500D01*
X21739500Y-51625500D02*
X21739500Y-49425500D01*
X18519500Y-51625500D02*
X18519500Y-48025500D01*
X18519500Y-51625500D02*
X18519500Y-53825500D01*
X27605758Y-113235000D02*
X27131242Y-113235000D01*
X27605758Y-112190000D02*
X27131242Y-112190000D01*
X27605758Y-110602500D02*
X27131242Y-110602500D01*
X27605758Y-111647500D02*
X27131242Y-111647500D01*
%LPC*%
D13*
X26916300Y-24044000D03*
X26916300Y-24694000D03*
X26916300Y-25344000D03*
X26916300Y-25994000D03*
X21191300Y-25994000D03*
X21191300Y-25344000D03*
X21191300Y-24694000D03*
X21191300Y-24044000D03*
D14*
X11747000Y-81813400D03*
X10097000Y-81813400D03*
X11747000Y-80187800D03*
X10097000Y-80187800D03*
X8749800Y-99441000D03*
X7099800Y-99441000D03*
D15*
X13970000Y-87189000D03*
D16*
X16510000Y-87189000D03*
D17*
X17640000Y-84540000D03*
X20740000Y-84540000D03*
X29040000Y-84540000D03*
X12830000Y-115080000D03*
X9730000Y-115080000D03*
X1430000Y-115080000D03*
D15*
X13970000Y-97369000D03*
D16*
X16510000Y-97369000D03*
D15*
X13970000Y-107549000D03*
D16*
X16510000Y-107549000D03*
D15*
X13970000Y-117729000D03*
D16*
X16510000Y-117729000D03*
X15240000Y-31750000D03*
D18*
X15240000Y-29210000D03*
D17*
X12830000Y-104900000D03*
X9730000Y-104900000D03*
X1430000Y-104900000D03*
X17640000Y-94720000D03*
X20740000Y-94720000D03*
X29040000Y-94720000D03*
X17640000Y-104900000D03*
X20740000Y-104900000D03*
X29040000Y-104900000D03*
X17640000Y-115080000D03*
X20740000Y-115080000D03*
X29040000Y-115080000D03*
X17640000Y-42360000D03*
X20740000Y-42360000D03*
X29040000Y-42360000D03*
X17640000Y-70390000D03*
X20740000Y-70390000D03*
X29040000Y-70390000D03*
X24120000Y-50370000D03*
X24120000Y-53470000D03*
X24120000Y-61770000D03*
D19*
X1550000Y-90460000D03*
X11150000Y-90460000D03*
D20*
X3850000Y-97460000D03*
D16*
X6350000Y-97460000D03*
X8850000Y-97460000D03*
X11390000Y-77890400D03*
X8890000Y-77890400D03*
D20*
X6390000Y-77890400D03*
D19*
X13690000Y-70390400D03*
X4090000Y-70390400D03*
X20040000Y-15559800D03*
X10440000Y-15559800D03*
D20*
X12740000Y-23059800D03*
D16*
X15240000Y-23059800D03*
X17740000Y-23059800D03*
D19*
X28904000Y-30480000D03*
X19304000Y-30480000D03*
D20*
X21604000Y-37480000D03*
D16*
X24104000Y-37480000D03*
X26604000Y-37480000D03*
X11390000Y-49860000D03*
X8890000Y-49860000D03*
D20*
X6390000Y-49860000D03*
D19*
X13690000Y-42360000D03*
X4090000Y-42360000D03*
D18*
X15240000Y-55575200D03*
D16*
X15240000Y-58115200D03*
D21*
X13741000Y-90741500D03*
X15291000Y-90741500D03*
X13957500Y-92964000D03*
X12407500Y-92964000D03*
X15201500Y-109537500D03*
X16751500Y-109537500D03*
X25260500Y-102044500D03*
X23710500Y-102044500D03*
D22*
X24066500Y-13081000D03*
X28466500Y-13081000D03*
D23*
X15240000Y-18542000D03*
X15240000Y-14142000D03*
D21*
X21285500Y-20320000D03*
X19735500Y-20320000D03*
X15227000Y-21145500D03*
X16777000Y-21145500D03*
D14*
X18580500Y-12446000D03*
X20230500Y-12446000D03*
X12737500Y-21145500D03*
X11087500Y-21145500D03*
D24*
X3556000Y-25527000D03*
D25*
X6096000Y-25527000D03*
X3556000Y-22987000D03*
X6096000Y-22987000D03*
X3556000Y-20447000D03*
X6096000Y-20447000D03*
X3556000Y-17907000D03*
X6096000Y-17907000D03*
X3556000Y-15367000D03*
X6096000Y-15367000D03*
D14*
X13716500Y-89090500D03*
X15366500Y-89090500D03*
D26*
X1143000Y-86563500D03*
X1143000Y-85013500D03*
X6350000Y-80860500D03*
X6350000Y-82410500D03*
D27*
X16294500Y-65278000D03*
X14744500Y-65278000D03*
X22847000Y-76174600D03*
X24397000Y-76174600D03*
D21*
X4839000Y-59753500D03*
X3289000Y-59753500D03*
D27*
X18529000Y-46863000D03*
X20079000Y-46863000D03*
D28*
X2603500Y-53873000D03*
X2603500Y-55423000D03*
D21*
X23177200Y-22428200D03*
X24727200Y-22428200D03*
D28*
X2540000Y-65811000D03*
X2540000Y-67361000D03*
X12446000Y-54940500D03*
X12446000Y-53390500D03*
D26*
X19380200Y-26124200D03*
X19380200Y-24574200D03*
X2540000Y-62623500D03*
X2540000Y-64173500D03*
D21*
X16471500Y-77774800D03*
X18021500Y-77774800D03*
X14922700Y-83058000D03*
X13372700Y-83058000D03*
D16*
X25354200Y-19431000D03*
D20*
X27894200Y-19431000D03*
D29*
X20355600Y-74919600D03*
X20355600Y-74269600D03*
X20355600Y-73619600D03*
X18455600Y-73619600D03*
X18455600Y-74269600D03*
X18455600Y-74919600D03*
D30*
X21790900Y-34721800D03*
X19915900Y-33771800D03*
X19915900Y-35671800D03*
D14*
X2578500Y-99441000D03*
X4228500Y-99441000D03*
X2578500Y-102743000D03*
X4228500Y-102743000D03*
X2324500Y-77597000D03*
X3974500Y-77597000D03*
X2324500Y-79184500D03*
X3974500Y-79184500D03*
D31*
X24650200Y-85623400D03*
X23000200Y-85623400D03*
D14*
X23000200Y-92837000D03*
X24650200Y-92837000D03*
D32*
X28511500Y-108711500D03*
X28511500Y-107061500D03*
D33*
X26606500Y-114237000D03*
X26606500Y-115887000D03*
D14*
X13691000Y-95440500D03*
X15341000Y-95440500D03*
X10325500Y-107569000D03*
X11975500Y-107569000D03*
X10325500Y-117729000D03*
X11975500Y-117729000D03*
X9017500Y-70548500D03*
X10667500Y-70548500D03*
D31*
X22110200Y-65265300D03*
X20460200Y-65265300D03*
D14*
X9017500Y-75285600D03*
X10667500Y-75285600D03*
D31*
X4889000Y-58166000D03*
X3239000Y-58166000D03*
D14*
X13488000Y-51117500D03*
X15138000Y-51117500D03*
D31*
X15150500Y-49530000D03*
X13500500Y-49530000D03*
D14*
X12129000Y-75285600D03*
X13779000Y-75285600D03*
X9017500Y-73723500D03*
X10667500Y-73723500D03*
D31*
X22110200Y-66840100D03*
X20460200Y-66840100D03*
D14*
X12129000Y-73710800D03*
X13779000Y-73710800D03*
X9017500Y-72136000D03*
X10667500Y-72136000D03*
D31*
X10667500Y-68961000D03*
X9017500Y-68961000D03*
X24447000Y-72999600D03*
X22797000Y-72999600D03*
D14*
X24447000Y-77774800D03*
X22797000Y-77774800D03*
X16344500Y-66865500D03*
X14694500Y-66865500D03*
D31*
X24447000Y-74574400D03*
X22797000Y-74574400D03*
X12890000Y-59753500D03*
X11240000Y-59753500D03*
X15253200Y-27279600D03*
X16903200Y-27279600D03*
D14*
X8128500Y-59753500D03*
X9778500Y-59753500D03*
D31*
X9778500Y-58166000D03*
X8128500Y-58166000D03*
X15150500Y-47942500D03*
X13500500Y-47942500D03*
D32*
X23241000Y-41160200D03*
X23241000Y-39510200D03*
D31*
X16471500Y-33655000D03*
X14821500Y-33655000D03*
D33*
X24841200Y-41160200D03*
X24841200Y-39510200D03*
D14*
X16281000Y-61849000D03*
X14631000Y-61849000D03*
X10249500Y-28384500D03*
X11899500Y-28384500D03*
X10249500Y-29972000D03*
X11899500Y-29972000D03*
D31*
X10324500Y-31623000D03*
X8674500Y-31623000D03*
D14*
X21527000Y-45275500D03*
X23177000Y-45275500D03*
D31*
X20129000Y-45275500D03*
X18479000Y-45275500D03*
D34*
X6435600Y-95400600D03*
D35*
X5435600Y-92150600D03*
D34*
X4435600Y-95400600D03*
D36*
X25371200Y-80153000D03*
D37*
X22121200Y-81153000D03*
D36*
X25371200Y-82153000D03*
D13*
X18918000Y-87267500D03*
X18918000Y-87917500D03*
X18918000Y-88567500D03*
X18918000Y-89217500D03*
X18918000Y-89867500D03*
X18918000Y-90517500D03*
X18918000Y-91167500D03*
X24643000Y-91167500D03*
X24643000Y-90517500D03*
X24643000Y-89867500D03*
X24643000Y-89217500D03*
X24643000Y-88567500D03*
X24643000Y-87917500D03*
X24643000Y-87267500D03*
X13749100Y-79390600D03*
X13749100Y-80040600D03*
X13749100Y-80690600D03*
X13749100Y-81340600D03*
X19474100Y-81340600D03*
X19474100Y-80690600D03*
X19474100Y-80040600D03*
X19474100Y-79390600D03*
D38*
X13144500Y-66800500D03*
X11874500Y-66800500D03*
X10604500Y-66800500D03*
X9334500Y-66800500D03*
X8064500Y-66800500D03*
X6794500Y-66800500D03*
X5524500Y-66800500D03*
X4254500Y-66800500D03*
X4254500Y-61850500D03*
X5524500Y-61850500D03*
X6794500Y-61850500D03*
X8064500Y-61850500D03*
X9334500Y-61850500D03*
X10604500Y-61850500D03*
X11874500Y-61850500D03*
X13144500Y-61850500D03*
D30*
X12814500Y-45355000D03*
X10939500Y-44405000D03*
X10939500Y-46305000D03*
D14*
X20003000Y-56515000D03*
X21653000Y-56515000D03*
D31*
X12039000Y-47942500D03*
X10389000Y-47942500D03*
D13*
X18918000Y-107587500D03*
X18918000Y-108237500D03*
X18918000Y-108887500D03*
X18918000Y-109537500D03*
X18918000Y-110187500D03*
X18918000Y-110837500D03*
X18918000Y-111487500D03*
X24643000Y-111487500D03*
X24643000Y-110837500D03*
X24643000Y-110187500D03*
X24643000Y-109537500D03*
X24643000Y-108887500D03*
X24643000Y-108237500D03*
X24643000Y-107587500D03*
X4821000Y-52533000D03*
X4821000Y-53183000D03*
X4821000Y-53833000D03*
X4821000Y-54483000D03*
X4821000Y-55133000D03*
X4821000Y-55783000D03*
X4821000Y-56433000D03*
X10546000Y-56433000D03*
X10546000Y-55783000D03*
X10546000Y-55133000D03*
X10546000Y-54483000D03*
X10546000Y-53833000D03*
X10546000Y-53183000D03*
X10546000Y-52533000D03*
D21*
X7226500Y-47942500D03*
X5676500Y-47942500D03*
D27*
X16421500Y-37020500D03*
X14871500Y-37020500D03*
D31*
X5651000Y-90246200D03*
X4001000Y-90246200D03*
X25310500Y-98234500D03*
X23660500Y-98234500D03*
X25310500Y-99822000D03*
X23660500Y-99822000D03*
D36*
X22056500Y-98250500D03*
D37*
X18806500Y-99250500D03*
D36*
X22056500Y-100250500D03*
D31*
X10007000Y-40703500D03*
X8357000Y-40703500D03*
D14*
X14821500Y-38608000D03*
X16471500Y-38608000D03*
X9181600Y-44005500D03*
X7531600Y-44005500D03*
X8357000Y-42291000D03*
X10007000Y-42291000D03*
X20003000Y-61277500D03*
X21653000Y-61277500D03*
D31*
X21653000Y-58102500D03*
X20003000Y-58102500D03*
D14*
X20003000Y-59690000D03*
X21653000Y-59690000D03*
D34*
X22342600Y-31238600D03*
D35*
X23342600Y-27988600D03*
D34*
X24342600Y-31238600D03*
D39*
X4658000Y-81084500D03*
X4008000Y-81084500D03*
X3358000Y-81084500D03*
X2708000Y-81084500D03*
X2708000Y-86809500D03*
X3358000Y-86809500D03*
X4008000Y-86809500D03*
X4658000Y-86809500D03*
D28*
X2794000Y-37033000D03*
X2794000Y-38583000D03*
D26*
X2794000Y-33667500D03*
X2794000Y-35217500D03*
D38*
X13271500Y-38606500D03*
X12001500Y-38606500D03*
X10731500Y-38606500D03*
X9461500Y-38606500D03*
X8191500Y-38606500D03*
X6921500Y-38606500D03*
X5651500Y-38606500D03*
X4381500Y-38606500D03*
X4381500Y-33656500D03*
X5651500Y-33656500D03*
X6921500Y-33656500D03*
X8191500Y-33656500D03*
X9461500Y-33656500D03*
X10731500Y-33656500D03*
X12001500Y-33656500D03*
X13271500Y-33656500D03*
D21*
X7163000Y-31623000D03*
X5613000Y-31623000D03*
D31*
X7531600Y-45593000D03*
X9181600Y-45593000D03*
D14*
X2578500Y-101092000D03*
X4228500Y-101092000D03*
D21*
X21577000Y-46863000D03*
X23127000Y-46863000D03*
D28*
X17526000Y-54496000D03*
X17526000Y-52946000D03*
D40*
X19154500Y-54488000D03*
X19804500Y-54488000D03*
X20454500Y-54488000D03*
X21104500Y-54488000D03*
X21104500Y-48763000D03*
X20454500Y-48763000D03*
X19804500Y-48763000D03*
X19154500Y-48763000D03*
D31*
X28193500Y-112712500D03*
X26543500Y-112712500D03*
X28193500Y-111125000D03*
X26543500Y-111125000D03*
M02*
