%TF.GenerationSoftware,KiCad,Pcbnew,(6.0.9)*%
%TF.CreationDate,2022-11-24T13:14:17-08:00*%
%TF.ProjectId,vcf-20,7663662d-3230-42e6-9b69-6361645f7063,rev?*%
%TF.SameCoordinates,Original*%
%TF.FileFunction,Drillmap*%
%TF.FilePolarity,Positive*%
%FSLAX45Y45*%
G04 Gerber Fmt 4.5, Leading zero omitted, Abs format (unit mm)*
G04 Created by KiCad (PCBNEW (6.0.9)) date 2022-11-24 13:14:17*
%MOMM*%
%LPD*%
G01*
G04 APERTURE LIST*
%ADD10C,0.050000*%
%ADD11C,0.200000*%
G04 APERTURE END LIST*
D10*
X3048000Y-988500D02*
X3048000Y-11988500D01*
X0Y-11988500D02*
X3048000Y-11988500D01*
X0Y-988500D02*
X0Y-11988500D01*
X0Y-988500D02*
X3048000Y-988500D01*
D11*
X255119Y-12301476D02*
X255119Y-12101476D01*
X302738Y-12101476D01*
X331310Y-12111000D01*
X350357Y-12130048D01*
X359881Y-12149095D01*
X369405Y-12187190D01*
X369405Y-12215762D01*
X359881Y-12253857D01*
X350357Y-12272905D01*
X331310Y-12291952D01*
X302738Y-12301476D01*
X255119Y-12301476D01*
X455119Y-12301476D02*
X455119Y-12168143D01*
X455119Y-12206238D02*
X464643Y-12187190D01*
X474167Y-12177667D01*
X493214Y-12168143D01*
X512262Y-12168143D01*
X578929Y-12301476D02*
X578929Y-12168143D01*
X578929Y-12101476D02*
X569405Y-12111000D01*
X578929Y-12120524D01*
X588452Y-12111000D01*
X578929Y-12101476D01*
X578929Y-12120524D01*
X702738Y-12301476D02*
X683690Y-12291952D01*
X674167Y-12272905D01*
X674167Y-12101476D01*
X807500Y-12301476D02*
X788452Y-12291952D01*
X778928Y-12272905D01*
X778928Y-12101476D01*
X1036071Y-12301476D02*
X1036071Y-12101476D01*
X1102738Y-12244333D01*
X1169405Y-12101476D01*
X1169405Y-12301476D01*
X1350357Y-12301476D02*
X1350357Y-12196714D01*
X1340833Y-12177667D01*
X1321786Y-12168143D01*
X1283690Y-12168143D01*
X1264643Y-12177667D01*
X1350357Y-12291952D02*
X1331310Y-12301476D01*
X1283690Y-12301476D01*
X1264643Y-12291952D01*
X1255119Y-12272905D01*
X1255119Y-12253857D01*
X1264643Y-12234809D01*
X1283690Y-12225286D01*
X1331310Y-12225286D01*
X1350357Y-12215762D01*
X1445595Y-12168143D02*
X1445595Y-12368143D01*
X1445595Y-12177667D02*
X1464643Y-12168143D01*
X1502738Y-12168143D01*
X1521786Y-12177667D01*
X1531309Y-12187190D01*
X1540833Y-12206238D01*
X1540833Y-12263381D01*
X1531309Y-12282428D01*
X1521786Y-12291952D01*
X1502738Y-12301476D01*
X1464643Y-12301476D01*
X1445595Y-12291952D01*
X1626548Y-12282428D02*
X1636071Y-12291952D01*
X1626548Y-12301476D01*
X1617024Y-12291952D01*
X1626548Y-12282428D01*
X1626548Y-12301476D01*
X1626548Y-12177667D02*
X1636071Y-12187190D01*
X1626548Y-12196714D01*
X1617024Y-12187190D01*
X1626548Y-12177667D01*
X1626548Y-12196714D01*
M02*
