G04 #@! TF.GenerationSoftware,KiCad,Pcbnew,(6.0.9)*
G04 #@! TF.CreationDate,2022-11-24T13:13:05-08:00*
G04 #@! TF.ProjectId,vcf-20,7663662d-3230-42e6-9b69-6361645f7063,rev?*
G04 #@! TF.SameCoordinates,Original*
G04 #@! TF.FileFunction,Soldermask,Top*
G04 #@! TF.FilePolarity,Negative*
%FSLAX46Y46*%
G04 Gerber Fmt 4.6, Leading zero omitted, Abs format (unit mm)*
G04 Created by KiCad (PCBNEW (6.0.9)) date 2022-11-24 13:13:05*
%MOMM*%
%LPD*%
G01*
G04 APERTURE LIST*
G04 Aperture macros list*
%AMRoundRect*
0 Rectangle with rounded corners*
0 $1 Rounding radius*
0 $2 $3 $4 $5 $6 $7 $8 $9 X,Y pos of 4 corners*
0 Add a 4 corners polygon primitive as box body*
4,1,4,$2,$3,$4,$5,$6,$7,$8,$9,$2,$3,0*
0 Add four circle primitives for the rounded corners*
1,1,$1+$1,$2,$3*
1,1,$1+$1,$4,$5*
1,1,$1+$1,$6,$7*
1,1,$1+$1,$8,$9*
0 Add four rect primitives between the rounded corners*
20,1,$1+$1,$2,$3,$4,$5,0*
20,1,$1+$1,$4,$5,$6,$7,0*
20,1,$1+$1,$6,$7,$8,$9,0*
20,1,$1+$1,$8,$9,$2,$3,0*%
G04 Aperture macros list end*
%ADD10RoundRect,0.051000X-0.900000X-0.900000X0.900000X-0.900000X0.900000X0.900000X-0.900000X0.900000X0*%
%ADD11C,1.902000*%
%ADD12C,2.302000*%
%ADD13RoundRect,0.051000X-0.900000X0.900000X-0.900000X-0.900000X0.900000X-0.900000X0.900000X0.900000X0*%
%ADD14O,2.822000X3.342000*%
%ADD15RoundRect,0.051000X0.900000X0.900000X-0.900000X0.900000X-0.900000X-0.900000X0.900000X-0.900000X0*%
%ADD16RoundRect,0.301000X-0.600000X-0.600000X0.600000X-0.600000X0.600000X0.600000X-0.600000X0.600000X0*%
%ADD17C,1.802000*%
G04 APERTURE END LIST*
D10*
X13970000Y-87189000D03*
D11*
X16510000Y-87189000D03*
D12*
X17640000Y-84540000D03*
X20740000Y-84540000D03*
X29040000Y-84540000D03*
X12830000Y-115080000D03*
X9730000Y-115080000D03*
X1430000Y-115080000D03*
D10*
X13970000Y-97369000D03*
D11*
X16510000Y-97369000D03*
D10*
X13970000Y-107549000D03*
D11*
X16510000Y-107549000D03*
D10*
X13970000Y-117729000D03*
D11*
X16510000Y-117729000D03*
X15240000Y-31750000D03*
D13*
X15240000Y-29210000D03*
D12*
X12830000Y-104900000D03*
X9730000Y-104900000D03*
X1430000Y-104900000D03*
X17640000Y-94720000D03*
X20740000Y-94720000D03*
X29040000Y-94720000D03*
X17640000Y-104900000D03*
X20740000Y-104900000D03*
X29040000Y-104900000D03*
X17640000Y-115080000D03*
X20740000Y-115080000D03*
X29040000Y-115080000D03*
X17640000Y-42360000D03*
X20740000Y-42360000D03*
X29040000Y-42360000D03*
X17640000Y-70390000D03*
X20740000Y-70390000D03*
X29040000Y-70390000D03*
X24120000Y-50370000D03*
X24120000Y-53470000D03*
X24120000Y-61770000D03*
D14*
X1550000Y-90460000D03*
X11150000Y-90460000D03*
D15*
X3850000Y-97460000D03*
D11*
X6350000Y-97460000D03*
X8850000Y-97460000D03*
X11390000Y-77890400D03*
X8890000Y-77890400D03*
D15*
X6390000Y-77890400D03*
D14*
X13690000Y-70390400D03*
X4090000Y-70390400D03*
X20040000Y-15559800D03*
X10440000Y-15559800D03*
D15*
X12740000Y-23059800D03*
D11*
X15240000Y-23059800D03*
X17740000Y-23059800D03*
D14*
X28904000Y-30480000D03*
X19304000Y-30480000D03*
D15*
X21604000Y-37480000D03*
D11*
X24104000Y-37480000D03*
X26604000Y-37480000D03*
X11390000Y-49860000D03*
X8890000Y-49860000D03*
D15*
X6390000Y-49860000D03*
D14*
X13690000Y-42360000D03*
X4090000Y-42360000D03*
D13*
X15240000Y-55575200D03*
D11*
X15240000Y-58115200D03*
D16*
X3556000Y-25527000D03*
D17*
X6096000Y-25527000D03*
X3556000Y-22987000D03*
X6096000Y-22987000D03*
X3556000Y-20447000D03*
X6096000Y-20447000D03*
X3556000Y-17907000D03*
X6096000Y-17907000D03*
X3556000Y-15367000D03*
X6096000Y-15367000D03*
D11*
X25354200Y-19431000D03*
D15*
X27894200Y-19431000D03*
M02*
