%TF.GenerationSoftware,KiCad,Pcbnew,(6.0.9)*%
%TF.CreationDate,2022-11-24T13:14:17-08:00*%
%TF.ProjectId,vcf-20,7663662d-3230-42e6-9b69-6361645f7063,rev?*%
%TF.SameCoordinates,Original*%
%TF.FileFunction,Drillmap*%
%TF.FilePolarity,Positive*%
%FSLAX45Y45*%
G04 Gerber Fmt 4.5, Leading zero omitted, Abs format (unit mm)*
G04 Created by KiCad (PCBNEW (6.0.9)) date 2022-11-24 13:14:17*
%MOMM*%
%LPD*%
G01*
G04 APERTURE LIST*
%ADD10C,0.050000*%
%ADD11C,0.200000*%
%ADD12C,0.040000*%
%ADD13C,0.090000*%
%ADD14C,0.100000*%
%ADD15C,0.110000*%
%ADD16C,0.120000*%
%ADD17C,0.130000*%
%ADD18C,0.140000*%
G04 APERTURE END LIST*
D10*
X3048000Y-988500D02*
X3048000Y-11988500D01*
X0Y-11988500D02*
X3048000Y-11988500D01*
X0Y-988500D02*
X0Y-11988500D01*
X0Y-988500D02*
X3048000Y-988500D01*
D11*
D12*
X42500Y-8349300D02*
X82500Y-8389300D01*
X82500Y-8349300D02*
X42500Y-8389300D01*
X42503Y-3148650D02*
X82503Y-3188650D01*
X82503Y-3148650D02*
X42503Y-3188650D01*
X68900Y-1059500D02*
X108900Y-1099500D01*
X108900Y-1059500D02*
X68900Y-1099500D01*
X68900Y-1377000D02*
X108900Y-1417000D01*
X108900Y-1377000D02*
X68900Y-1417000D01*
X68900Y-1694500D02*
X108900Y-1734500D01*
X108900Y-1694500D02*
X68900Y-1734500D01*
X68900Y-2012000D02*
X108900Y-2052000D01*
X108900Y-2012000D02*
X68900Y-2052000D01*
X68900Y-2329500D02*
X108900Y-2369500D01*
X108900Y-2329500D02*
X68900Y-2369500D01*
X68900Y-2647000D02*
X108900Y-2687000D01*
X108900Y-2647000D02*
X68900Y-2687000D01*
X68900Y-2964500D02*
X108900Y-3004500D01*
X108900Y-2964500D02*
X68900Y-3004500D01*
X68900Y-9441500D02*
X108900Y-9481500D01*
X108900Y-9441500D02*
X68900Y-9481500D01*
X68900Y-9765350D02*
X108900Y-9805350D01*
X108900Y-9765350D02*
X68900Y-9805350D01*
X68900Y-10076500D02*
X108900Y-10116500D01*
X108900Y-10076500D02*
X68900Y-10116500D01*
X68900Y-10838500D02*
X108900Y-10878500D01*
X108900Y-10838500D02*
X68900Y-10878500D01*
X68900Y-11156000D02*
X108900Y-11196000D01*
X108900Y-11156000D02*
X68900Y-11196000D01*
X68900Y-11886250D02*
X108900Y-11926250D01*
X108900Y-11886250D02*
X68900Y-11926250D01*
X119700Y-7606350D02*
X159700Y-7646350D01*
X159700Y-7606350D02*
X119700Y-7646350D01*
X164150Y-8743000D02*
X204150Y-8783000D01*
X204150Y-8743000D02*
X164150Y-8783000D01*
X208600Y-5237800D02*
X248600Y-5277800D01*
X248600Y-5237800D02*
X208600Y-5277800D01*
X234000Y-6095050D02*
X274000Y-6135050D01*
X274000Y-6095050D02*
X234000Y-6135050D01*
X234000Y-6831650D02*
X274000Y-6871650D01*
X274000Y-6831650D02*
X234000Y-6871650D01*
X239080Y-7447600D02*
X279080Y-7487600D01*
X279080Y-7447600D02*
X239080Y-7487600D01*
X240350Y-5637850D02*
X280350Y-5677850D01*
X280350Y-5637850D02*
X240350Y-5677850D01*
X240350Y-8209600D02*
X280350Y-8249600D01*
X280350Y-8209600D02*
X240350Y-8249600D01*
X259400Y-3955100D02*
X299400Y-3995100D01*
X299400Y-3955100D02*
X259400Y-3995100D01*
X259400Y-4488500D02*
X299400Y-4528500D01*
X299400Y-4488500D02*
X259400Y-4528500D01*
X265750Y-4799650D02*
X305750Y-4839650D01*
X305750Y-4799650D02*
X265750Y-4839650D01*
X284800Y-3218500D02*
X324800Y-3258500D01*
X324800Y-3218500D02*
X284800Y-3258500D01*
X284800Y-4996500D02*
X324800Y-5036500D01*
X324800Y-4996500D02*
X284800Y-5036500D01*
X303850Y-8508050D02*
X343850Y-8548050D01*
X343850Y-8508050D02*
X303850Y-8548050D01*
X305447Y-4647250D02*
X345447Y-4687250D01*
X345447Y-4647250D02*
X305447Y-4687250D01*
X380050Y-1059500D02*
X420050Y-1099500D01*
X420050Y-1059500D02*
X380050Y-1099500D01*
X386400Y-11886250D02*
X426400Y-11926250D01*
X426400Y-11886250D02*
X386400Y-11926250D01*
X405450Y-6418900D02*
X445450Y-6458900D01*
X445450Y-6418900D02*
X405450Y-6458900D01*
X456250Y-8247700D02*
X496250Y-8287700D01*
X496250Y-8247700D02*
X456250Y-8287700D01*
X513400Y-3593150D02*
X553400Y-3633150D01*
X553400Y-3593150D02*
X513400Y-3633150D01*
X513900Y-8088450D02*
X553900Y-8128450D01*
X553900Y-8088450D02*
X513900Y-8128450D01*
X523560Y-9324660D02*
X563560Y-9364660D01*
X563560Y-9324660D02*
X523560Y-9364660D01*
X564200Y-4647250D02*
X604200Y-4687250D01*
X604200Y-4647250D02*
X564200Y-4687250D01*
X573196Y-8823207D02*
X613196Y-8863207D01*
X613196Y-8823207D02*
X573196Y-8863207D01*
X574360Y-7224080D02*
X614360Y-7264080D01*
X614360Y-7224080D02*
X574360Y-7264080D01*
X602300Y-5409250D02*
X642300Y-5449250D01*
X642300Y-5409250D02*
X602300Y-5449250D01*
X602300Y-5580700D02*
X642300Y-5620700D01*
X642300Y-5580700D02*
X602300Y-5620700D01*
X621350Y-5123500D02*
X661350Y-5163500D01*
X661350Y-5123500D02*
X621350Y-5163500D01*
X665800Y-8482650D02*
X705800Y-8522650D01*
X705800Y-8482650D02*
X665800Y-8522650D01*
X672150Y-8349300D02*
X712150Y-8389300D01*
X712150Y-8349300D02*
X672150Y-8389300D01*
X703900Y-11886250D02*
X743900Y-11926250D01*
X743900Y-11886250D02*
X703900Y-11926250D01*
X722950Y-1059500D02*
X762950Y-1099500D01*
X762950Y-1059500D02*
X722950Y-1099500D01*
X761050Y-9517700D02*
X801050Y-9557700D01*
X801050Y-9517700D02*
X761050Y-9557700D01*
X786450Y-9155750D02*
X826450Y-9195750D01*
X826450Y-9155750D02*
X786450Y-9195750D01*
X792800Y-5682300D02*
X832800Y-5722300D01*
X832800Y-5682300D02*
X792800Y-5722300D01*
X799150Y-6952300D02*
X839150Y-6992300D01*
X839150Y-6952300D02*
X799150Y-6992300D01*
X811850Y-5212400D02*
X851850Y-5252400D01*
X851850Y-5212400D02*
X811850Y-5252400D01*
X837250Y-2894650D02*
X877250Y-2934650D01*
X877250Y-2894650D02*
X837250Y-2934650D01*
X837250Y-3593150D02*
X877250Y-3633150D01*
X877250Y-3593150D02*
X837250Y-3633150D01*
X849950Y-8755700D02*
X889950Y-8795700D01*
X889950Y-8755700D02*
X849950Y-8795700D01*
X957900Y-11886250D02*
X997900Y-11926250D01*
X997900Y-11886250D02*
X957900Y-11926250D01*
X964250Y-9409750D02*
X1004250Y-9449750D01*
X1004250Y-9409750D02*
X964250Y-9449750D01*
X976950Y-5150800D02*
X1016950Y-5190800D01*
X1016950Y-5150800D02*
X976950Y-5190800D01*
X1015050Y-10876600D02*
X1055050Y-10916600D01*
X1055050Y-10876600D02*
X1015050Y-10916600D01*
X1053150Y-8755700D02*
X1093150Y-8795700D01*
X1093150Y-8755700D02*
X1053150Y-8795700D01*
X1059500Y-1059500D02*
X1099500Y-1099500D01*
X1099500Y-1059500D02*
X1059500Y-1099500D01*
X1059500Y-8577900D02*
X1099500Y-8617900D01*
X1099500Y-8577900D02*
X1059500Y-8617900D01*
X1065850Y-4310700D02*
X1105850Y-4350700D01*
X1105850Y-4310700D02*
X1065850Y-4350700D01*
X1084900Y-9827580D02*
X1124900Y-9867580D01*
X1124900Y-9827580D02*
X1084900Y-9867580D01*
X1103950Y-10013000D02*
X1143950Y-10053000D01*
X1143950Y-10013000D02*
X1103950Y-10053000D01*
X1154750Y-7187250D02*
X1194750Y-7227250D01*
X1194750Y-7187250D02*
X1154750Y-7227250D01*
X1167450Y-6431600D02*
X1207450Y-6471600D01*
X1207450Y-6431600D02*
X1167450Y-6471600D01*
X1194120Y-8275640D02*
X1234120Y-8315640D01*
X1234120Y-8275640D02*
X1194120Y-8315640D01*
X1195245Y-4666800D02*
X1235245Y-4706800D01*
X1235245Y-4666800D02*
X1195245Y-4706800D01*
X1204871Y-4374826D02*
X1244871Y-4414826D01*
X1244871Y-4374826D02*
X1204871Y-4414826D01*
X1267780Y-2586040D02*
X1307780Y-2626040D01*
X1307780Y-2586040D02*
X1267780Y-2626040D01*
X1281750Y-5764850D02*
X1321750Y-5804850D01*
X1321750Y-5764850D02*
X1281750Y-5804850D01*
X1307151Y-5402900D02*
X1347151Y-5442900D01*
X1347151Y-5402900D02*
X1307151Y-5442900D01*
X1332550Y-6332573D02*
X1372550Y-6372573D01*
X1372550Y-6332573D02*
X1332550Y-6372573D01*
X1338900Y-9905050D02*
X1378900Y-9945050D01*
X1378900Y-9905050D02*
X1338900Y-9945050D01*
X1338900Y-10013000D02*
X1378900Y-10053000D01*
X1378900Y-10013000D02*
X1338900Y-10053000D01*
X1351600Y-9155750D02*
X1391600Y-9195750D01*
X1391600Y-9155750D02*
X1351600Y-9195750D01*
X1377000Y-1059500D02*
X1417000Y-1099500D01*
X1417000Y-1059500D02*
X1377000Y-1099500D01*
X1378530Y-7770180D02*
X1418530Y-7810180D01*
X1418530Y-7770180D02*
X1378530Y-7810180D01*
X1415100Y-5294950D02*
X1455100Y-5334950D01*
X1455100Y-5294950D02*
X1415100Y-5334950D01*
X1421450Y-9409750D02*
X1461450Y-9449750D01*
X1461450Y-9409750D02*
X1421450Y-9449750D01*
X1438520Y-7428933D02*
X1478520Y-7468933D01*
X1478520Y-7428933D02*
X1438520Y-7468933D01*
X1440324Y-7218408D02*
X1480324Y-7258408D01*
X1480324Y-7218408D02*
X1440324Y-7258408D01*
X1484950Y-9200200D02*
X1524950Y-9240200D01*
X1524950Y-9200200D02*
X1484950Y-9240200D01*
X1491300Y-10178100D02*
X1531300Y-10218100D01*
X1531300Y-10178100D02*
X1491300Y-10218100D01*
X1493795Y-4615545D02*
X1533795Y-4655545D01*
X1533795Y-4615545D02*
X1493795Y-4655545D01*
X1498857Y-4375179D02*
X1538857Y-4415179D01*
X1538857Y-4375179D02*
X1498857Y-4415179D01*
X1531985Y-7328265D02*
X1571985Y-7368265D01*
X1571985Y-7328265D02*
X1531985Y-7368265D01*
X1540590Y-6372500D02*
X1580590Y-6412500D01*
X1580590Y-6372500D02*
X1540590Y-6412500D01*
X1580200Y-11048050D02*
X1620200Y-11088050D01*
X1620200Y-11048050D02*
X1580200Y-11088050D01*
X1599250Y-8952550D02*
X1639250Y-8992550D01*
X1639250Y-8952550D02*
X1599250Y-8992550D01*
X1610680Y-6291900D02*
X1650680Y-6331900D01*
X1650680Y-6291900D02*
X1610680Y-6331900D01*
X1624650Y-8114350D02*
X1664650Y-8154350D01*
X1664650Y-8114350D02*
X1624650Y-8154350D01*
X1625920Y-7640640D02*
X1665920Y-7680640D01*
X1665920Y-7640640D02*
X1625920Y-7680640D01*
X1656400Y-5568000D02*
X1696400Y-5608000D01*
X1696400Y-5568000D02*
X1656400Y-5608000D01*
X1656400Y-5764850D02*
X1696400Y-5804850D01*
X1696400Y-5764850D02*
X1656400Y-5804850D01*
X1661480Y-5014280D02*
X1701480Y-5054280D01*
X1701480Y-5014280D02*
X1661480Y-5054280D01*
X1673170Y-7312858D02*
X1713170Y-7352858D01*
X1713170Y-7312858D02*
X1673170Y-7352858D01*
X1679260Y-6002340D02*
X1719260Y-6042340D01*
X1719260Y-6002340D02*
X1679260Y-6042340D01*
X1694500Y-1059500D02*
X1734500Y-1099500D01*
X1734500Y-1059500D02*
X1694500Y-1099500D01*
X1697040Y-3078800D02*
X1737040Y-3118800D01*
X1737040Y-3078800D02*
X1697040Y-3118800D01*
X1699580Y-7216460D02*
X1739580Y-7256460D01*
X1739580Y-7216460D02*
X1699580Y-7256460D01*
X1724336Y-4384809D02*
X1764336Y-4424809D01*
X1764336Y-4384809D02*
X1724336Y-4424809D01*
X1746337Y-5524394D02*
X1786337Y-5564394D01*
X1786337Y-5524394D02*
X1746337Y-5564394D01*
X1758000Y-5167950D02*
X1798000Y-5207950D01*
X1798000Y-5167950D02*
X1758000Y-5207950D01*
X1759530Y-6369205D02*
X1799530Y-6409205D01*
X1799530Y-6369205D02*
X1759530Y-6409205D01*
X1785940Y-2680020D02*
X1825940Y-2720020D01*
X1825940Y-2680020D02*
X1785940Y-2720020D01*
X1796100Y-1770700D02*
X1836100Y-1810700D01*
X1836100Y-1770700D02*
X1796100Y-1810700D01*
X1796100Y-2012000D02*
X1836100Y-2052000D01*
X1836100Y-2012000D02*
X1796100Y-2052000D01*
X1813798Y-4813702D02*
X1853798Y-4853702D01*
X1853798Y-4813702D02*
X1813798Y-4853702D01*
X1821500Y-6196650D02*
X1861500Y-6236650D01*
X1861500Y-6196650D02*
X1821500Y-6236650D01*
X1841820Y-5273360D02*
X1881820Y-5313360D01*
X1881820Y-5273360D02*
X1841820Y-5313360D01*
X1855784Y-6724710D02*
X1895784Y-6764710D01*
X1895784Y-6724710D02*
X1855784Y-6764710D01*
X1890080Y-6396040D02*
X1930080Y-6436040D01*
X1930080Y-6396040D02*
X1890080Y-6436040D01*
X1895403Y-5715563D02*
X1935403Y-5755563D01*
X1935403Y-5715563D02*
X1895403Y-5755563D01*
X1937070Y-6666550D02*
X1977070Y-6706550D01*
X1977070Y-6666550D02*
X1937070Y-6706550D01*
X1953795Y-6259095D02*
X1993795Y-6299095D01*
X1993795Y-6259095D02*
X1953795Y-6299095D01*
X1956120Y-2268540D02*
X1996120Y-2308540D01*
X1996120Y-2268540D02*
X1956120Y-2308540D01*
X1981520Y-5156520D02*
X2021520Y-5196520D01*
X2021520Y-5156520D02*
X1981520Y-5196520D01*
X1992950Y-10798590D02*
X2032950Y-10838590D01*
X2032950Y-10798590D02*
X1992950Y-10838590D01*
X1999300Y-1059500D02*
X2039300Y-1099500D01*
X2039300Y-1059500D02*
X1999300Y-1099500D01*
X1999300Y-11886250D02*
X2039300Y-11926250D01*
X2039300Y-11886250D02*
X1999300Y-11926250D01*
X2031050Y-8908100D02*
X2071050Y-8948100D01*
X2071050Y-8908100D02*
X2031050Y-8948100D01*
X2094551Y-4615500D02*
X2134551Y-4655500D01*
X2134551Y-4615500D02*
X2094551Y-4655500D01*
X2100900Y-7841300D02*
X2140900Y-7881300D01*
X2140900Y-7841300D02*
X2100900Y-7881300D01*
X2107250Y-10711500D02*
X2147250Y-10751500D01*
X2147250Y-10711500D02*
X2107250Y-10751500D01*
X2107250Y-11079800D02*
X2147250Y-11119800D01*
X2147250Y-11079800D02*
X2107250Y-11119800D01*
X2123760Y-7635560D02*
X2163760Y-7675560D01*
X2163760Y-7635560D02*
X2123760Y-7675560D01*
X2133920Y-7437440D02*
X2173920Y-7477440D01*
X2173920Y-7437440D02*
X2133920Y-7477440D01*
X2183450Y-6355400D02*
X2223450Y-6395400D01*
X2223450Y-6355400D02*
X2183450Y-6395400D01*
X2205040Y-7158040D02*
X2245040Y-7198040D01*
X2245040Y-7158040D02*
X2205040Y-7198040D01*
X2221549Y-10794050D02*
X2261549Y-10834050D01*
X2261549Y-10794050D02*
X2221549Y-10834050D01*
X2227900Y-10184450D02*
X2267900Y-10224450D01*
X2267900Y-10184450D02*
X2227900Y-10224450D01*
X2278700Y-8651560D02*
X2318700Y-8691560D01*
X2318700Y-8651560D02*
X2278700Y-8691560D01*
X2281240Y-2365060D02*
X2321240Y-2405060D01*
X2321240Y-2365060D02*
X2281240Y-2405060D01*
X2310450Y-10933750D02*
X2350450Y-10973750D01*
X2350450Y-10933750D02*
X2310450Y-10973750D01*
X2316800Y-1059500D02*
X2356800Y-1099500D01*
X2356800Y-1059500D02*
X2316800Y-1099500D01*
X2316800Y-11886250D02*
X2356800Y-11926250D01*
X2356800Y-11886250D02*
X2316800Y-11926250D01*
X2321880Y-10802940D02*
X2361880Y-10842940D01*
X2361880Y-10802940D02*
X2321880Y-10842940D01*
X2366403Y-9191644D02*
X2406403Y-9231644D01*
X2406403Y-9191644D02*
X2366403Y-9231644D01*
X2372680Y-8085140D02*
X2412680Y-8125140D01*
X2412680Y-8085140D02*
X2372680Y-8125140D01*
X2382840Y-3309940D02*
X2422840Y-3349940D01*
X2422840Y-3309940D02*
X2382840Y-3349940D01*
X2453960Y-2362520D02*
X2493960Y-2402520D01*
X2493960Y-2362520D02*
X2453960Y-2402520D01*
X2516994Y-3813182D02*
X2556994Y-3853182D01*
X2556994Y-3813182D02*
X2516994Y-3853182D01*
X2525080Y-2583500D02*
X2565080Y-2623500D01*
X2565080Y-2583500D02*
X2525080Y-2623500D01*
X2545400Y-5949000D02*
X2585400Y-5989000D01*
X2585400Y-5949000D02*
X2545400Y-5989000D01*
X2583455Y-6662695D02*
X2623455Y-6702695D01*
X2623455Y-6662695D02*
X2583455Y-6702695D01*
X2596200Y-4590100D02*
X2636200Y-4630100D01*
X2636200Y-4590100D02*
X2596200Y-4630100D01*
X2596200Y-4907600D02*
X2636200Y-4947600D01*
X2636200Y-4907600D02*
X2596200Y-4947600D01*
X2602550Y-10095550D02*
X2642550Y-10135550D01*
X2642550Y-10095550D02*
X2602550Y-10135550D01*
X2615250Y-6552250D02*
X2655250Y-6592250D01*
X2655250Y-6552250D02*
X2615250Y-6592250D01*
X2634300Y-1059500D02*
X2674300Y-1099500D01*
X2674300Y-1059500D02*
X2634300Y-1099500D01*
X2634300Y-1567500D02*
X2674300Y-1607500D01*
X2674300Y-1567500D02*
X2634300Y-1607500D01*
X2634300Y-4482150D02*
X2674300Y-4522150D01*
X2674300Y-4482150D02*
X2634300Y-4522150D01*
X2634300Y-11886250D02*
X2674300Y-11926250D01*
X2674300Y-11886250D02*
X2634300Y-11926250D01*
X2640029Y-9995549D02*
X2680029Y-10035549D01*
X2680029Y-9995549D02*
X2640029Y-10035549D01*
X2680020Y-2674940D02*
X2720020Y-2714940D01*
X2720020Y-2674940D02*
X2680020Y-2714940D01*
X2685100Y-6660200D02*
X2725100Y-6700200D01*
X2725100Y-6660200D02*
X2685100Y-6700200D01*
X2701872Y-4907716D02*
X2741872Y-4947716D01*
X2741872Y-4907716D02*
X2701872Y-4947716D01*
X2753680Y-3396300D02*
X2793680Y-3436300D01*
X2793680Y-3396300D02*
X2753680Y-3436300D01*
X2761871Y-6841201D02*
X2801870Y-6881201D01*
X2801870Y-6841201D02*
X2761871Y-6881201D01*
X2824488Y-10074828D02*
X2864488Y-10114828D01*
X2864488Y-10074828D02*
X2824488Y-10114828D01*
X2824800Y-10933750D02*
X2864800Y-10973750D01*
X2864800Y-10933750D02*
X2824800Y-10973750D01*
X2826093Y-10174766D02*
X2866093Y-10214766D01*
X2866093Y-10174766D02*
X2826093Y-10214766D01*
X2951800Y-1059500D02*
X2991800Y-1099500D01*
X2991800Y-1059500D02*
X2951800Y-1099500D01*
X2951800Y-1567500D02*
X2991800Y-1607500D01*
X2991800Y-1567500D02*
X2951800Y-1607500D01*
X2951800Y-3472500D02*
X2991800Y-3512500D01*
X2991800Y-3472500D02*
X2951800Y-3512500D01*
X2951800Y-3853500D02*
X2991800Y-3893500D01*
X2991800Y-3853500D02*
X2951800Y-3893500D01*
X2951800Y-4806000D02*
X2991800Y-4846000D01*
X2991800Y-4806000D02*
X2951800Y-4846000D01*
X2951800Y-5187000D02*
X2991800Y-5227000D01*
X2991800Y-5187000D02*
X2951800Y-5227000D01*
X2951800Y-6330000D02*
X2991800Y-6370000D01*
X2991800Y-6330000D02*
X2951800Y-6370000D01*
X2951800Y-6711000D02*
X2991800Y-6751000D01*
X2991800Y-6711000D02*
X2951800Y-6751000D01*
X2951800Y-7415850D02*
X2991800Y-7455850D01*
X2991800Y-7415850D02*
X2951800Y-7455850D01*
X2951800Y-7727000D02*
X2991800Y-7767000D01*
X2991800Y-7727000D02*
X2951800Y-7767000D01*
X2951800Y-8050850D02*
X2991800Y-8090850D01*
X2991800Y-8050850D02*
X2951800Y-8090850D01*
X2951800Y-8660500D02*
X2991800Y-8700500D01*
X2991800Y-8660500D02*
X2951800Y-8700500D01*
X2951800Y-9060500D02*
X2991800Y-9100500D01*
X2991800Y-9060500D02*
X2951800Y-9100500D01*
X2951800Y-9759000D02*
X2991800Y-9799000D01*
X2991800Y-9759000D02*
X2951800Y-9799000D01*
X2951800Y-10076500D02*
X2991800Y-10116500D01*
X2991800Y-10076500D02*
X2951800Y-10116500D01*
X2951800Y-10838500D02*
X2991800Y-10878500D01*
X2991800Y-10838500D02*
X2951800Y-10878500D01*
X2951800Y-11156000D02*
X2991800Y-11196000D01*
X2991800Y-11156000D02*
X2951800Y-11196000D01*
X2951800Y-11886250D02*
X2991800Y-11926250D01*
X2991800Y-11886250D02*
X2951800Y-11926250D01*
D13*
X1442000Y-8718900D02*
G75*
G03*
X1442000Y-8718900I-45000J0D01*
G01*
X1442000Y-9736900D02*
G75*
G03*
X1442000Y-9736900I-45000J0D01*
G01*
X1442000Y-10754900D02*
G75*
G03*
X1442000Y-10754900I-45000J0D01*
G01*
X1442000Y-11772900D02*
G75*
G03*
X1442000Y-11772900I-45000J0D01*
G01*
X1569000Y-2921000D02*
G75*
G03*
X1569000Y-2921000I-45000J0D01*
G01*
X1569000Y-3175000D02*
G75*
G03*
X1569000Y-3175000I-45000J0D01*
G01*
X1569000Y-5557520D02*
G75*
G03*
X1569000Y-5557520I-45000J0D01*
G01*
X1569000Y-5811520D02*
G75*
G03*
X1569000Y-5811520I-45000J0D01*
G01*
X1696000Y-8718900D02*
G75*
G03*
X1696000Y-8718900I-45000J0D01*
G01*
X1696000Y-9736900D02*
G75*
G03*
X1696000Y-9736900I-45000J0D01*
G01*
X1696000Y-10754900D02*
G75*
G03*
X1696000Y-10754900I-45000J0D01*
G01*
X1696000Y-11772900D02*
G75*
G03*
X1696000Y-11772900I-45000J0D01*
G01*
X2580420Y-1943100D02*
G75*
G03*
X2580420Y-1943100I-45000J0D01*
G01*
X2834420Y-1943100D02*
G75*
G03*
X2834420Y-1943100I-45000J0D01*
G01*
D14*
X355600Y-1486700D02*
X355600Y-1586700D01*
X305600Y-1536700D02*
X405600Y-1536700D01*
X355600Y-1740700D02*
X355600Y-1840700D01*
X305600Y-1790700D02*
X405600Y-1790700D01*
X355600Y-1994700D02*
X355600Y-2094700D01*
X305600Y-2044700D02*
X405600Y-2044700D01*
X355600Y-2248700D02*
X355600Y-2348700D01*
X305600Y-2298700D02*
X405600Y-2298700D01*
X355600Y-2502700D02*
X355600Y-2602700D01*
X305600Y-2552700D02*
X405600Y-2552700D01*
X385000Y-9696000D02*
X385000Y-9796000D01*
X335000Y-9746000D02*
X435000Y-9746000D01*
X609600Y-1486700D02*
X609600Y-1586700D01*
X559600Y-1536700D02*
X659600Y-1536700D01*
X609600Y-1740700D02*
X609600Y-1840700D01*
X559600Y-1790700D02*
X659600Y-1790700D01*
X609600Y-1994700D02*
X609600Y-2094700D01*
X559600Y-2044700D02*
X659600Y-2044700D01*
X609600Y-2248700D02*
X609600Y-2348700D01*
X559600Y-2298700D02*
X659600Y-2298700D01*
X609600Y-2502700D02*
X609600Y-2602700D01*
X559600Y-2552700D02*
X659600Y-2552700D01*
X635000Y-9696000D02*
X635000Y-9796000D01*
X585000Y-9746000D02*
X685000Y-9746000D01*
X639000Y-4936000D02*
X639000Y-5036000D01*
X589000Y-4986000D02*
X689000Y-4986000D01*
X639000Y-7739040D02*
X639000Y-7839040D01*
X589000Y-7789040D02*
X689000Y-7789040D01*
X885000Y-9696000D02*
X885000Y-9796000D01*
X835000Y-9746000D02*
X935000Y-9746000D01*
X889000Y-4936000D02*
X889000Y-5036000D01*
X839000Y-4986000D02*
X939000Y-4986000D01*
X889000Y-7739040D02*
X889000Y-7839040D01*
X839000Y-7789040D02*
X939000Y-7789040D01*
X1139000Y-4936000D02*
X1139000Y-5036000D01*
X1089000Y-4986000D02*
X1189000Y-4986000D01*
X1139000Y-7739040D02*
X1139000Y-7839040D01*
X1089000Y-7789040D02*
X1189000Y-7789040D01*
X1274000Y-2255980D02*
X1274000Y-2355980D01*
X1224000Y-2305980D02*
X1324000Y-2305980D01*
X1524000Y-2255980D02*
X1524000Y-2355980D01*
X1474000Y-2305980D02*
X1574000Y-2305980D01*
X1774000Y-2255980D02*
X1774000Y-2355980D01*
X1724000Y-2305980D02*
X1824000Y-2305980D01*
X2160400Y-3698000D02*
X2160400Y-3798000D01*
X2110400Y-3748000D02*
X2210400Y-3748000D01*
X2410400Y-3698000D02*
X2410400Y-3798000D01*
X2360400Y-3748000D02*
X2460400Y-3748000D01*
X2660400Y-3698000D02*
X2660400Y-3798000D01*
X2610400Y-3748000D02*
X2710400Y-3748000D01*
D15*
X193891Y-9084891D02*
X193891Y-9007109D01*
X116109Y-9007109D01*
X116109Y-9084891D01*
X193891Y-9084891D01*
D11*
X210000Y-9081000D02*
X210000Y-9011000D01*
X100000Y-9081000D02*
X100000Y-9011000D01*
X210000Y-9011000D02*
G75*
G03*
X100000Y-9011000I-55000J0D01*
G01*
X100000Y-9081000D02*
G75*
G03*
X210000Y-9081000I55000J0D01*
G01*
D15*
X1153891Y-9084891D02*
X1153891Y-9007109D01*
X1076109Y-9007109D01*
X1076109Y-9084891D01*
X1153891Y-9084891D01*
D11*
X1170000Y-9081000D02*
X1170000Y-9011000D01*
X1060000Y-9081000D02*
X1060000Y-9011000D01*
X1170000Y-9011000D02*
G75*
G03*
X1060000Y-9011000I-55000J0D01*
G01*
X1060000Y-9081000D02*
G75*
G03*
X1170000Y-9081000I55000J0D01*
G01*
D15*
X1969291Y-3086891D02*
X1969291Y-3009109D01*
X1891509Y-3009109D01*
X1891509Y-3086891D01*
X1969291Y-3086891D01*
D11*
X1985400Y-3083000D02*
X1985400Y-3013000D01*
X1875400Y-3083000D02*
X1875400Y-3013000D01*
X1985400Y-3013000D02*
G75*
G03*
X1875400Y-3013000I-55000J0D01*
G01*
X1875400Y-3083000D02*
G75*
G03*
X1985400Y-3083000I55000J0D01*
G01*
D15*
X2929291Y-3086891D02*
X2929291Y-3009109D01*
X2851509Y-3009109D01*
X2851509Y-3086891D01*
X2929291Y-3086891D01*
D11*
X2945400Y-3083000D02*
X2945400Y-3013000D01*
X2835400Y-3083000D02*
X2835400Y-3013000D01*
X2945400Y-3013000D02*
G75*
G03*
X2835400Y-3013000I-55000J0D01*
G01*
X2835400Y-3083000D02*
G75*
G03*
X2945400Y-3083000I55000J0D01*
G01*
D16*
X143000Y-10550000D02*
X203000Y-10490000D01*
X143000Y-10430000D01*
X83000Y-10490000D01*
X143000Y-10550000D01*
X143000Y-11568000D02*
X203000Y-11508000D01*
X143000Y-11448000D01*
X83000Y-11508000D01*
X143000Y-11568000D01*
X973000Y-10550000D02*
X1033000Y-10490000D01*
X973000Y-10430000D01*
X913000Y-10490000D01*
X973000Y-10550000D01*
X973000Y-11568000D02*
X1033000Y-11508000D01*
X973000Y-11448000D01*
X913000Y-11508000D01*
X973000Y-11568000D01*
X1283000Y-10550000D02*
X1343000Y-10490000D01*
X1283000Y-10430000D01*
X1223000Y-10490000D01*
X1283000Y-10550000D01*
X1283000Y-11568000D02*
X1343000Y-11508000D01*
X1283000Y-11448000D01*
X1223000Y-11508000D01*
X1283000Y-11568000D01*
X1764000Y-4296000D02*
X1824000Y-4236000D01*
X1764000Y-4176000D01*
X1704000Y-4236000D01*
X1764000Y-4296000D01*
X1764000Y-7099000D02*
X1824000Y-7039000D01*
X1764000Y-6979000D01*
X1704000Y-7039000D01*
X1764000Y-7099000D01*
X1764000Y-8514000D02*
X1824000Y-8454000D01*
X1764000Y-8394000D01*
X1704000Y-8454000D01*
X1764000Y-8514000D01*
X1764000Y-9532000D02*
X1824000Y-9472000D01*
X1764000Y-9412000D01*
X1704000Y-9472000D01*
X1764000Y-9532000D01*
X1764000Y-10550000D02*
X1824000Y-10490000D01*
X1764000Y-10430000D01*
X1704000Y-10490000D01*
X1764000Y-10550000D01*
X1764000Y-11568000D02*
X1824000Y-11508000D01*
X1764000Y-11448000D01*
X1704000Y-11508000D01*
X1764000Y-11568000D01*
X2074000Y-4296000D02*
X2134000Y-4236000D01*
X2074000Y-4176000D01*
X2014000Y-4236000D01*
X2074000Y-4296000D01*
X2074000Y-7099000D02*
X2134000Y-7039000D01*
X2074000Y-6979000D01*
X2014000Y-7039000D01*
X2074000Y-7099000D01*
X2074000Y-8514000D02*
X2134000Y-8454000D01*
X2074000Y-8394000D01*
X2014000Y-8454000D01*
X2074000Y-8514000D01*
X2074000Y-9532000D02*
X2134000Y-9472000D01*
X2074000Y-9412000D01*
X2014000Y-9472000D01*
X2074000Y-9532000D01*
X2074000Y-10550000D02*
X2134000Y-10490000D01*
X2074000Y-10430000D01*
X2014000Y-10490000D01*
X2074000Y-10550000D01*
X2074000Y-11568000D02*
X2134000Y-11508000D01*
X2074000Y-11448000D01*
X2014000Y-11508000D01*
X2074000Y-11568000D01*
X2412000Y-5097000D02*
X2472000Y-5037000D01*
X2412000Y-4977000D01*
X2352000Y-5037000D01*
X2412000Y-5097000D01*
X2412000Y-5407000D02*
X2472000Y-5347000D01*
X2412000Y-5287000D01*
X2352000Y-5347000D01*
X2412000Y-5407000D01*
X2412000Y-6237000D02*
X2472000Y-6177000D01*
X2412000Y-6117000D01*
X2352000Y-6177000D01*
X2412000Y-6237000D01*
X2904000Y-4296000D02*
X2964000Y-4236000D01*
X2904000Y-4176000D01*
X2844000Y-4236000D01*
X2904000Y-4296000D01*
X2904000Y-7099000D02*
X2964000Y-7039000D01*
X2904000Y-6979000D01*
X2844000Y-7039000D01*
X2904000Y-7099000D01*
X2904000Y-8514000D02*
X2964000Y-8454000D01*
X2904000Y-8394000D01*
X2844000Y-8454000D01*
X2904000Y-8514000D01*
X2904000Y-9532000D02*
X2964000Y-9472000D01*
X2904000Y-9412000D01*
X2844000Y-9472000D01*
X2904000Y-9532000D01*
X2904000Y-10550000D02*
X2964000Y-10490000D01*
X2904000Y-10430000D01*
X2844000Y-10490000D01*
X2904000Y-10550000D01*
X2904000Y-11568000D02*
X2964000Y-11508000D01*
X2904000Y-11448000D01*
X2844000Y-11508000D01*
X2904000Y-11568000D01*
D17*
X1304000Y-4171000D02*
X1434000Y-4301000D01*
X1434000Y-4171000D02*
X1304000Y-4301000D01*
X1434000Y-4236000D02*
G75*
G03*
X1434000Y-4236000I-65000J0D01*
G01*
D11*
X1434000Y-4276000D02*
X1434000Y-4196000D01*
X1304000Y-4276000D02*
X1304000Y-4196000D01*
X1434000Y-4196000D02*
G75*
G03*
X1304000Y-4196000I-65000J0D01*
G01*
X1304000Y-4276000D02*
G75*
G03*
X1434000Y-4276000I65000J0D01*
G01*
D17*
X1304000Y-6974040D02*
X1434000Y-7104040D01*
X1434000Y-6974040D02*
X1304000Y-7104040D01*
X1434000Y-7039040D02*
G75*
G03*
X1434000Y-7039040I-65000J0D01*
G01*
D11*
X1434000Y-7079040D02*
X1434000Y-6999040D01*
X1304000Y-7079040D02*
X1304000Y-6999040D01*
X1434000Y-6999040D02*
G75*
G03*
X1304000Y-6999040I-65000J0D01*
G01*
X1304000Y-7079040D02*
G75*
G03*
X1434000Y-7079040I65000J0D01*
G01*
D17*
X1939000Y-1490980D02*
X2069000Y-1620980D01*
X2069000Y-1490980D02*
X1939000Y-1620980D01*
X2069000Y-1555980D02*
G75*
G03*
X2069000Y-1555980I-65000J0D01*
G01*
D11*
X2069000Y-1595980D02*
X2069000Y-1515980D01*
X1939000Y-1595980D02*
X1939000Y-1515980D01*
X2069000Y-1515980D02*
G75*
G03*
X1939000Y-1515980I-65000J0D01*
G01*
X1939000Y-1595980D02*
G75*
G03*
X2069000Y-1595980I65000J0D01*
G01*
D18*
X339000Y-4166000D02*
X479000Y-4306000D01*
X479000Y-4166000D02*
X339000Y-4306000D01*
X409000Y-4166000D02*
X409000Y-4306000D01*
X339000Y-4236000D02*
X479000Y-4236000D01*
D11*
X479000Y-4271000D02*
X479000Y-4201000D01*
X339000Y-4271000D02*
X339000Y-4201000D01*
X479000Y-4201000D02*
G75*
G03*
X339000Y-4201000I-70000J0D01*
G01*
X339000Y-4271000D02*
G75*
G03*
X479000Y-4271000I70000J0D01*
G01*
D18*
X339000Y-6969040D02*
X479000Y-7109040D01*
X479000Y-6969040D02*
X339000Y-7109040D01*
X409000Y-6969040D02*
X409000Y-7109040D01*
X339000Y-7039040D02*
X479000Y-7039040D01*
D11*
X479000Y-7074040D02*
X479000Y-7004040D01*
X339000Y-7074040D02*
X339000Y-7004040D01*
X479000Y-7004040D02*
G75*
G03*
X339000Y-7004040I-70000J0D01*
G01*
X339000Y-7074040D02*
G75*
G03*
X479000Y-7074040I70000J0D01*
G01*
D18*
X974000Y-1485980D02*
X1114000Y-1625980D01*
X1114000Y-1485980D02*
X974000Y-1625980D01*
X1044000Y-1485980D02*
X1044000Y-1625980D01*
X974000Y-1555980D02*
X1114000Y-1555980D01*
D11*
X1114000Y-1590980D02*
X1114000Y-1520980D01*
X974000Y-1590980D02*
X974000Y-1520980D01*
X1114000Y-1520980D02*
G75*
G03*
X974000Y-1520980I-70000J0D01*
G01*
X974000Y-1590980D02*
G75*
G03*
X1114000Y-1590980I70000J0D01*
G01*
X255119Y-12301476D02*
X255119Y-12101476D01*
X302738Y-12101476D01*
X331310Y-12111000D01*
X350357Y-12130048D01*
X359881Y-12149095D01*
X369405Y-12187190D01*
X369405Y-12215762D01*
X359881Y-12253857D01*
X350357Y-12272905D01*
X331310Y-12291952D01*
X302738Y-12301476D01*
X255119Y-12301476D01*
X455119Y-12301476D02*
X455119Y-12168143D01*
X455119Y-12206238D02*
X464643Y-12187190D01*
X474167Y-12177667D01*
X493214Y-12168143D01*
X512262Y-12168143D01*
X578929Y-12301476D02*
X578929Y-12168143D01*
X578929Y-12101476D02*
X569405Y-12111000D01*
X578929Y-12120524D01*
X588452Y-12111000D01*
X578929Y-12101476D01*
X578929Y-12120524D01*
X702738Y-12301476D02*
X683690Y-12291952D01*
X674167Y-12272905D01*
X674167Y-12101476D01*
X807500Y-12301476D02*
X788452Y-12291952D01*
X778928Y-12272905D01*
X778928Y-12101476D01*
X1036071Y-12301476D02*
X1036071Y-12101476D01*
X1102738Y-12244333D01*
X1169405Y-12101476D01*
X1169405Y-12301476D01*
X1350357Y-12301476D02*
X1350357Y-12196714D01*
X1340833Y-12177667D01*
X1321786Y-12168143D01*
X1283690Y-12168143D01*
X1264643Y-12177667D01*
X1350357Y-12291952D02*
X1331310Y-12301476D01*
X1283690Y-12301476D01*
X1264643Y-12291952D01*
X1255119Y-12272905D01*
X1255119Y-12253857D01*
X1264643Y-12234809D01*
X1283690Y-12225286D01*
X1331310Y-12225286D01*
X1350357Y-12215762D01*
X1445595Y-12168143D02*
X1445595Y-12368143D01*
X1445595Y-12177667D02*
X1464643Y-12168143D01*
X1502738Y-12168143D01*
X1521786Y-12177667D01*
X1531309Y-12187190D01*
X1540833Y-12206238D01*
X1540833Y-12263381D01*
X1531309Y-12282428D01*
X1521786Y-12291952D01*
X1502738Y-12301476D01*
X1464643Y-12301476D01*
X1445595Y-12291952D01*
X1626548Y-12282428D02*
X1636071Y-12291952D01*
X1626548Y-12301476D01*
X1617024Y-12291952D01*
X1626548Y-12282428D01*
X1626548Y-12301476D01*
X1626548Y-12177667D02*
X1636071Y-12187190D01*
X1626548Y-12196714D01*
X1617024Y-12187190D01*
X1626548Y-12177667D01*
X1626548Y-12196714D01*
D12*
X-42500Y-12611000D02*
X-2500Y-12651000D01*
X-2500Y-12611000D02*
X-42500Y-12651000D01*
D11*
X293214Y-12521476D02*
X312262Y-12521476D01*
X331310Y-12531000D01*
X340833Y-12540524D01*
X350357Y-12559571D01*
X359881Y-12597667D01*
X359881Y-12645286D01*
X350357Y-12683381D01*
X340833Y-12702428D01*
X331310Y-12711952D01*
X312262Y-12721476D01*
X293214Y-12721476D01*
X274167Y-12711952D01*
X264643Y-12702428D01*
X255119Y-12683381D01*
X245595Y-12645286D01*
X245595Y-12597667D01*
X255119Y-12559571D01*
X264643Y-12540524D01*
X274167Y-12531000D01*
X293214Y-12521476D01*
X445595Y-12702428D02*
X455119Y-12711952D01*
X445595Y-12721476D01*
X436071Y-12711952D01*
X445595Y-12702428D01*
X445595Y-12721476D01*
X626548Y-12588143D02*
X626548Y-12721476D01*
X578929Y-12511952D02*
X531310Y-12654809D01*
X655119Y-12654809D01*
X769405Y-12521476D02*
X788452Y-12521476D01*
X807500Y-12531000D01*
X817024Y-12540524D01*
X826548Y-12559571D01*
X836071Y-12597667D01*
X836071Y-12645286D01*
X826548Y-12683381D01*
X817024Y-12702428D01*
X807500Y-12711952D01*
X788452Y-12721476D01*
X769405Y-12721476D01*
X750357Y-12711952D01*
X740833Y-12702428D01*
X731309Y-12683381D01*
X721786Y-12645286D01*
X721786Y-12597667D01*
X731309Y-12559571D01*
X740833Y-12540524D01*
X750357Y-12531000D01*
X769405Y-12521476D01*
X959881Y-12521476D02*
X978928Y-12521476D01*
X997976Y-12531000D01*
X1007500Y-12540524D01*
X1017024Y-12559571D01*
X1026548Y-12597667D01*
X1026548Y-12645286D01*
X1017024Y-12683381D01*
X1007500Y-12702428D01*
X997976Y-12711952D01*
X978928Y-12721476D01*
X959881Y-12721476D01*
X940833Y-12711952D01*
X931309Y-12702428D01*
X921786Y-12683381D01*
X912262Y-12645286D01*
X912262Y-12597667D01*
X921786Y-12559571D01*
X931309Y-12540524D01*
X940833Y-12531000D01*
X959881Y-12521476D01*
X1112262Y-12721476D02*
X1112262Y-12588143D01*
X1112262Y-12607190D02*
X1121786Y-12597667D01*
X1140833Y-12588143D01*
X1169405Y-12588143D01*
X1188452Y-12597667D01*
X1197976Y-12616714D01*
X1197976Y-12721476D01*
X1197976Y-12616714D02*
X1207500Y-12597667D01*
X1226548Y-12588143D01*
X1255119Y-12588143D01*
X1274167Y-12597667D01*
X1283690Y-12616714D01*
X1283690Y-12721476D01*
X1378929Y-12721476D02*
X1378929Y-12588143D01*
X1378929Y-12607190D02*
X1388452Y-12597667D01*
X1407500Y-12588143D01*
X1436071Y-12588143D01*
X1455119Y-12597667D01*
X1464643Y-12616714D01*
X1464643Y-12721476D01*
X1464643Y-12616714D02*
X1474167Y-12597667D01*
X1493214Y-12588143D01*
X1521786Y-12588143D01*
X1540833Y-12597667D01*
X1550357Y-12616714D01*
X1550357Y-12721476D01*
X1940833Y-12511952D02*
X1769405Y-12769095D01*
X2197976Y-12521476D02*
X2217024Y-12521476D01*
X2236071Y-12531000D01*
X2245595Y-12540524D01*
X2255119Y-12559571D01*
X2264643Y-12597667D01*
X2264643Y-12645286D01*
X2255119Y-12683381D01*
X2245595Y-12702428D01*
X2236071Y-12711952D01*
X2217024Y-12721476D01*
X2197976Y-12721476D01*
X2178929Y-12711952D01*
X2169405Y-12702428D01*
X2159881Y-12683381D01*
X2150357Y-12645286D01*
X2150357Y-12597667D01*
X2159881Y-12559571D01*
X2169405Y-12540524D01*
X2178929Y-12531000D01*
X2197976Y-12521476D01*
X2350357Y-12702428D02*
X2359881Y-12711952D01*
X2350357Y-12721476D01*
X2340833Y-12711952D01*
X2350357Y-12702428D01*
X2350357Y-12721476D01*
X2483690Y-12521476D02*
X2502738Y-12521476D01*
X2521786Y-12531000D01*
X2531310Y-12540524D01*
X2540833Y-12559571D01*
X2550357Y-12597667D01*
X2550357Y-12645286D01*
X2540833Y-12683381D01*
X2531310Y-12702428D01*
X2521786Y-12711952D01*
X2502738Y-12721476D01*
X2483690Y-12721476D01*
X2464643Y-12711952D01*
X2455119Y-12702428D01*
X2445595Y-12683381D01*
X2436071Y-12645286D01*
X2436071Y-12597667D01*
X2445595Y-12559571D01*
X2455119Y-12540524D01*
X2464643Y-12531000D01*
X2483690Y-12521476D01*
X2740833Y-12721476D02*
X2626548Y-12721476D01*
X2683690Y-12721476D02*
X2683690Y-12521476D01*
X2664643Y-12550048D01*
X2645595Y-12569095D01*
X2626548Y-12578619D01*
X2921786Y-12521476D02*
X2826548Y-12521476D01*
X2817024Y-12616714D01*
X2826548Y-12607190D01*
X2845595Y-12597667D01*
X2893214Y-12597667D01*
X2912262Y-12607190D01*
X2921786Y-12616714D01*
X2931309Y-12635762D01*
X2931309Y-12683381D01*
X2921786Y-12702428D01*
X2912262Y-12711952D01*
X2893214Y-12721476D01*
X2845595Y-12721476D01*
X2826548Y-12711952D01*
X2817024Y-12702428D01*
X2997976Y-12521476D02*
X3131309Y-12521476D01*
X3045595Y-12721476D01*
X3197976Y-12521476D02*
X3197976Y-12559571D01*
X3274167Y-12521476D02*
X3274167Y-12559571D01*
X3569405Y-12797667D02*
X3559881Y-12788143D01*
X3540833Y-12759571D01*
X3531309Y-12740524D01*
X3521786Y-12711952D01*
X3512262Y-12664333D01*
X3512262Y-12626238D01*
X3521786Y-12578619D01*
X3531309Y-12550048D01*
X3540833Y-12531000D01*
X3559881Y-12502428D01*
X3569405Y-12492905D01*
X3750357Y-12721476D02*
X3636071Y-12721476D01*
X3693214Y-12721476D02*
X3693214Y-12521476D01*
X3674167Y-12550048D01*
X3655119Y-12569095D01*
X3636071Y-12578619D01*
X3864643Y-12607190D02*
X3845595Y-12597667D01*
X3836071Y-12588143D01*
X3826548Y-12569095D01*
X3826548Y-12559571D01*
X3836071Y-12540524D01*
X3845595Y-12531000D01*
X3864643Y-12521476D01*
X3902738Y-12521476D01*
X3921786Y-12531000D01*
X3931309Y-12540524D01*
X3940833Y-12559571D01*
X3940833Y-12569095D01*
X3931309Y-12588143D01*
X3921786Y-12597667D01*
X3902738Y-12607190D01*
X3864643Y-12607190D01*
X3845595Y-12616714D01*
X3836071Y-12626238D01*
X3826548Y-12645286D01*
X3826548Y-12683381D01*
X3836071Y-12702428D01*
X3845595Y-12711952D01*
X3864643Y-12721476D01*
X3902738Y-12721476D01*
X3921786Y-12711952D01*
X3931309Y-12702428D01*
X3940833Y-12683381D01*
X3940833Y-12645286D01*
X3931309Y-12626238D01*
X3921786Y-12616714D01*
X3902738Y-12607190D01*
X4017024Y-12540524D02*
X4026548Y-12531000D01*
X4045595Y-12521476D01*
X4093214Y-12521476D01*
X4112262Y-12531000D01*
X4121786Y-12540524D01*
X4131309Y-12559571D01*
X4131309Y-12578619D01*
X4121786Y-12607190D01*
X4007500Y-12721476D01*
X4131309Y-12721476D01*
X4369405Y-12721476D02*
X4369405Y-12521476D01*
X4455119Y-12721476D02*
X4455119Y-12616714D01*
X4445595Y-12597667D01*
X4426548Y-12588143D01*
X4397976Y-12588143D01*
X4378929Y-12597667D01*
X4369405Y-12607190D01*
X4578929Y-12721476D02*
X4559881Y-12711952D01*
X4550357Y-12702428D01*
X4540833Y-12683381D01*
X4540833Y-12626238D01*
X4550357Y-12607190D01*
X4559881Y-12597667D01*
X4578929Y-12588143D01*
X4607500Y-12588143D01*
X4626548Y-12597667D01*
X4636071Y-12607190D01*
X4645595Y-12626238D01*
X4645595Y-12683381D01*
X4636071Y-12702428D01*
X4626548Y-12711952D01*
X4607500Y-12721476D01*
X4578929Y-12721476D01*
X4759881Y-12721476D02*
X4740833Y-12711952D01*
X4731310Y-12692905D01*
X4731310Y-12521476D01*
X4912262Y-12711952D02*
X4893214Y-12721476D01*
X4855119Y-12721476D01*
X4836071Y-12711952D01*
X4826548Y-12692905D01*
X4826548Y-12616714D01*
X4836071Y-12597667D01*
X4855119Y-12588143D01*
X4893214Y-12588143D01*
X4912262Y-12597667D01*
X4921786Y-12616714D01*
X4921786Y-12635762D01*
X4826548Y-12654809D01*
X4997976Y-12711952D02*
X5017024Y-12721476D01*
X5055119Y-12721476D01*
X5074167Y-12711952D01*
X5083690Y-12692905D01*
X5083690Y-12683381D01*
X5074167Y-12664333D01*
X5055119Y-12654809D01*
X5026548Y-12654809D01*
X5007500Y-12645286D01*
X4997976Y-12626238D01*
X4997976Y-12616714D01*
X5007500Y-12597667D01*
X5026548Y-12588143D01*
X5055119Y-12588143D01*
X5074167Y-12597667D01*
X5150357Y-12797667D02*
X5159881Y-12788143D01*
X5178929Y-12759571D01*
X5188452Y-12740524D01*
X5197976Y-12711952D01*
X5207500Y-12664333D01*
X5207500Y-12626238D01*
X5197976Y-12578619D01*
X5188452Y-12550048D01*
X5178929Y-12531000D01*
X5159881Y-12502428D01*
X5150357Y-12492905D01*
D13*
X-2500Y-12895000D02*
G75*
G03*
X-2500Y-12895000I-45000J0D01*
G01*
D11*
X293214Y-12785476D02*
X312262Y-12785476D01*
X331310Y-12795000D01*
X340833Y-12804524D01*
X350357Y-12823571D01*
X359881Y-12861667D01*
X359881Y-12909286D01*
X350357Y-12947381D01*
X340833Y-12966428D01*
X331310Y-12975952D01*
X312262Y-12985476D01*
X293214Y-12985476D01*
X274167Y-12975952D01*
X264643Y-12966428D01*
X255119Y-12947381D01*
X245595Y-12909286D01*
X245595Y-12861667D01*
X255119Y-12823571D01*
X264643Y-12804524D01*
X274167Y-12795000D01*
X293214Y-12785476D01*
X445595Y-12966428D02*
X455119Y-12975952D01*
X445595Y-12985476D01*
X436071Y-12975952D01*
X445595Y-12966428D01*
X445595Y-12985476D01*
X550357Y-12985476D02*
X588452Y-12985476D01*
X607500Y-12975952D01*
X617024Y-12966428D01*
X636071Y-12937857D01*
X645595Y-12899762D01*
X645595Y-12823571D01*
X636071Y-12804524D01*
X626548Y-12795000D01*
X607500Y-12785476D01*
X569405Y-12785476D01*
X550357Y-12795000D01*
X540833Y-12804524D01*
X531310Y-12823571D01*
X531310Y-12871190D01*
X540833Y-12890238D01*
X550357Y-12899762D01*
X569405Y-12909286D01*
X607500Y-12909286D01*
X626548Y-12899762D01*
X636071Y-12890238D01*
X645595Y-12871190D01*
X769405Y-12785476D02*
X788452Y-12785476D01*
X807500Y-12795000D01*
X817024Y-12804524D01*
X826548Y-12823571D01*
X836071Y-12861667D01*
X836071Y-12909286D01*
X826548Y-12947381D01*
X817024Y-12966428D01*
X807500Y-12975952D01*
X788452Y-12985476D01*
X769405Y-12985476D01*
X750357Y-12975952D01*
X740833Y-12966428D01*
X731309Y-12947381D01*
X721786Y-12909286D01*
X721786Y-12861667D01*
X731309Y-12823571D01*
X740833Y-12804524D01*
X750357Y-12795000D01*
X769405Y-12785476D01*
X959881Y-12785476D02*
X978928Y-12785476D01*
X997976Y-12795000D01*
X1007500Y-12804524D01*
X1017024Y-12823571D01*
X1026548Y-12861667D01*
X1026548Y-12909286D01*
X1017024Y-12947381D01*
X1007500Y-12966428D01*
X997976Y-12975952D01*
X978928Y-12985476D01*
X959881Y-12985476D01*
X940833Y-12975952D01*
X931309Y-12966428D01*
X921786Y-12947381D01*
X912262Y-12909286D01*
X912262Y-12861667D01*
X921786Y-12823571D01*
X931309Y-12804524D01*
X940833Y-12795000D01*
X959881Y-12785476D01*
X1112262Y-12985476D02*
X1112262Y-12852143D01*
X1112262Y-12871190D02*
X1121786Y-12861667D01*
X1140833Y-12852143D01*
X1169405Y-12852143D01*
X1188452Y-12861667D01*
X1197976Y-12880714D01*
X1197976Y-12985476D01*
X1197976Y-12880714D02*
X1207500Y-12861667D01*
X1226548Y-12852143D01*
X1255119Y-12852143D01*
X1274167Y-12861667D01*
X1283690Y-12880714D01*
X1283690Y-12985476D01*
X1378929Y-12985476D02*
X1378929Y-12852143D01*
X1378929Y-12871190D02*
X1388452Y-12861667D01*
X1407500Y-12852143D01*
X1436071Y-12852143D01*
X1455119Y-12861667D01*
X1464643Y-12880714D01*
X1464643Y-12985476D01*
X1464643Y-12880714D02*
X1474167Y-12861667D01*
X1493214Y-12852143D01*
X1521786Y-12852143D01*
X1540833Y-12861667D01*
X1550357Y-12880714D01*
X1550357Y-12985476D01*
X1940833Y-12775952D02*
X1769405Y-13033095D01*
X2197976Y-12785476D02*
X2217024Y-12785476D01*
X2236071Y-12795000D01*
X2245595Y-12804524D01*
X2255119Y-12823571D01*
X2264643Y-12861667D01*
X2264643Y-12909286D01*
X2255119Y-12947381D01*
X2245595Y-12966428D01*
X2236071Y-12975952D01*
X2217024Y-12985476D01*
X2197976Y-12985476D01*
X2178929Y-12975952D01*
X2169405Y-12966428D01*
X2159881Y-12947381D01*
X2150357Y-12909286D01*
X2150357Y-12861667D01*
X2159881Y-12823571D01*
X2169405Y-12804524D01*
X2178929Y-12795000D01*
X2197976Y-12785476D01*
X2350357Y-12966428D02*
X2359881Y-12975952D01*
X2350357Y-12985476D01*
X2340833Y-12975952D01*
X2350357Y-12966428D01*
X2350357Y-12985476D01*
X2483690Y-12785476D02*
X2502738Y-12785476D01*
X2521786Y-12795000D01*
X2531310Y-12804524D01*
X2540833Y-12823571D01*
X2550357Y-12861667D01*
X2550357Y-12909286D01*
X2540833Y-12947381D01*
X2531310Y-12966428D01*
X2521786Y-12975952D01*
X2502738Y-12985476D01*
X2483690Y-12985476D01*
X2464643Y-12975952D01*
X2455119Y-12966428D01*
X2445595Y-12947381D01*
X2436071Y-12909286D01*
X2436071Y-12861667D01*
X2445595Y-12823571D01*
X2455119Y-12804524D01*
X2464643Y-12795000D01*
X2483690Y-12785476D01*
X2617024Y-12785476D02*
X2740833Y-12785476D01*
X2674167Y-12861667D01*
X2702738Y-12861667D01*
X2721786Y-12871190D01*
X2731310Y-12880714D01*
X2740833Y-12899762D01*
X2740833Y-12947381D01*
X2731310Y-12966428D01*
X2721786Y-12975952D01*
X2702738Y-12985476D01*
X2645595Y-12985476D01*
X2626548Y-12975952D01*
X2617024Y-12966428D01*
X2921786Y-12785476D02*
X2826548Y-12785476D01*
X2817024Y-12880714D01*
X2826548Y-12871190D01*
X2845595Y-12861667D01*
X2893214Y-12861667D01*
X2912262Y-12871190D01*
X2921786Y-12880714D01*
X2931309Y-12899762D01*
X2931309Y-12947381D01*
X2921786Y-12966428D01*
X2912262Y-12975952D01*
X2893214Y-12985476D01*
X2845595Y-12985476D01*
X2826548Y-12975952D01*
X2817024Y-12966428D01*
X3102738Y-12852143D02*
X3102738Y-12985476D01*
X3055119Y-12775952D02*
X3007500Y-12918809D01*
X3131309Y-12918809D01*
X3197976Y-12785476D02*
X3197976Y-12823571D01*
X3274167Y-12785476D02*
X3274167Y-12823571D01*
X3569405Y-13061667D02*
X3559881Y-13052143D01*
X3540833Y-13023571D01*
X3531309Y-13004524D01*
X3521786Y-12975952D01*
X3512262Y-12928333D01*
X3512262Y-12890238D01*
X3521786Y-12842619D01*
X3531309Y-12814048D01*
X3540833Y-12795000D01*
X3559881Y-12766428D01*
X3569405Y-12756905D01*
X3750357Y-12985476D02*
X3636071Y-12985476D01*
X3693214Y-12985476D02*
X3693214Y-12785476D01*
X3674167Y-12814048D01*
X3655119Y-12833095D01*
X3636071Y-12842619D01*
X3921786Y-12852143D02*
X3921786Y-12985476D01*
X3874167Y-12775952D02*
X3826548Y-12918809D01*
X3950357Y-12918809D01*
X4178928Y-12985476D02*
X4178928Y-12785476D01*
X4264643Y-12985476D02*
X4264643Y-12880714D01*
X4255119Y-12861667D01*
X4236071Y-12852143D01*
X4207500Y-12852143D01*
X4188452Y-12861667D01*
X4178928Y-12871190D01*
X4388452Y-12985476D02*
X4369405Y-12975952D01*
X4359881Y-12966428D01*
X4350357Y-12947381D01*
X4350357Y-12890238D01*
X4359881Y-12871190D01*
X4369405Y-12861667D01*
X4388452Y-12852143D01*
X4417024Y-12852143D01*
X4436071Y-12861667D01*
X4445595Y-12871190D01*
X4455119Y-12890238D01*
X4455119Y-12947381D01*
X4445595Y-12966428D01*
X4436071Y-12975952D01*
X4417024Y-12985476D01*
X4388452Y-12985476D01*
X4569405Y-12985476D02*
X4550357Y-12975952D01*
X4540833Y-12956905D01*
X4540833Y-12785476D01*
X4721786Y-12975952D02*
X4702738Y-12985476D01*
X4664643Y-12985476D01*
X4645595Y-12975952D01*
X4636071Y-12956905D01*
X4636071Y-12880714D01*
X4645595Y-12861667D01*
X4664643Y-12852143D01*
X4702738Y-12852143D01*
X4721786Y-12861667D01*
X4731310Y-12880714D01*
X4731310Y-12899762D01*
X4636071Y-12918809D01*
X4807500Y-12975952D02*
X4826548Y-12985476D01*
X4864643Y-12985476D01*
X4883690Y-12975952D01*
X4893214Y-12956905D01*
X4893214Y-12947381D01*
X4883690Y-12928333D01*
X4864643Y-12918809D01*
X4836071Y-12918809D01*
X4817024Y-12909286D01*
X4807500Y-12890238D01*
X4807500Y-12880714D01*
X4817024Y-12861667D01*
X4836071Y-12852143D01*
X4864643Y-12852143D01*
X4883690Y-12861667D01*
X4959881Y-13061667D02*
X4969405Y-13052143D01*
X4988452Y-13023571D01*
X4997976Y-13004524D01*
X5007500Y-12975952D01*
X5017024Y-12928333D01*
X5017024Y-12890238D01*
X5007500Y-12842619D01*
X4997976Y-12814048D01*
X4988452Y-12795000D01*
X4969405Y-12766428D01*
X4959881Y-12756905D01*
D14*
X-52500Y-13109000D02*
X-52500Y-13209000D01*
X-102500Y-13159000D02*
X-2500Y-13159000D01*
D11*
X359881Y-13249476D02*
X245595Y-13249476D01*
X302738Y-13249476D02*
X302738Y-13049476D01*
X283690Y-13078048D01*
X264643Y-13097095D01*
X245595Y-13106619D01*
X445595Y-13230428D02*
X455119Y-13239952D01*
X445595Y-13249476D01*
X436071Y-13239952D01*
X445595Y-13230428D01*
X445595Y-13249476D01*
X578929Y-13049476D02*
X597976Y-13049476D01*
X617024Y-13059000D01*
X626548Y-13068524D01*
X636071Y-13087571D01*
X645595Y-13125667D01*
X645595Y-13173286D01*
X636071Y-13211381D01*
X626548Y-13230428D01*
X617024Y-13239952D01*
X597976Y-13249476D01*
X578929Y-13249476D01*
X559881Y-13239952D01*
X550357Y-13230428D01*
X540833Y-13211381D01*
X531310Y-13173286D01*
X531310Y-13125667D01*
X540833Y-13087571D01*
X550357Y-13068524D01*
X559881Y-13059000D01*
X578929Y-13049476D01*
X769405Y-13049476D02*
X788452Y-13049476D01*
X807500Y-13059000D01*
X817024Y-13068524D01*
X826548Y-13087571D01*
X836071Y-13125667D01*
X836071Y-13173286D01*
X826548Y-13211381D01*
X817024Y-13230428D01*
X807500Y-13239952D01*
X788452Y-13249476D01*
X769405Y-13249476D01*
X750357Y-13239952D01*
X740833Y-13230428D01*
X731309Y-13211381D01*
X721786Y-13173286D01*
X721786Y-13125667D01*
X731309Y-13087571D01*
X740833Y-13068524D01*
X750357Y-13059000D01*
X769405Y-13049476D01*
X959881Y-13049476D02*
X978928Y-13049476D01*
X997976Y-13059000D01*
X1007500Y-13068524D01*
X1017024Y-13087571D01*
X1026548Y-13125667D01*
X1026548Y-13173286D01*
X1017024Y-13211381D01*
X1007500Y-13230428D01*
X997976Y-13239952D01*
X978928Y-13249476D01*
X959881Y-13249476D01*
X940833Y-13239952D01*
X931309Y-13230428D01*
X921786Y-13211381D01*
X912262Y-13173286D01*
X912262Y-13125667D01*
X921786Y-13087571D01*
X931309Y-13068524D01*
X940833Y-13059000D01*
X959881Y-13049476D01*
X1112262Y-13249476D02*
X1112262Y-13116143D01*
X1112262Y-13135190D02*
X1121786Y-13125667D01*
X1140833Y-13116143D01*
X1169405Y-13116143D01*
X1188452Y-13125667D01*
X1197976Y-13144714D01*
X1197976Y-13249476D01*
X1197976Y-13144714D02*
X1207500Y-13125667D01*
X1226548Y-13116143D01*
X1255119Y-13116143D01*
X1274167Y-13125667D01*
X1283690Y-13144714D01*
X1283690Y-13249476D01*
X1378929Y-13249476D02*
X1378929Y-13116143D01*
X1378929Y-13135190D02*
X1388452Y-13125667D01*
X1407500Y-13116143D01*
X1436071Y-13116143D01*
X1455119Y-13125667D01*
X1464643Y-13144714D01*
X1464643Y-13249476D01*
X1464643Y-13144714D02*
X1474167Y-13125667D01*
X1493214Y-13116143D01*
X1521786Y-13116143D01*
X1540833Y-13125667D01*
X1550357Y-13144714D01*
X1550357Y-13249476D01*
X1940833Y-13039952D02*
X1769405Y-13297095D01*
X2197976Y-13049476D02*
X2217024Y-13049476D01*
X2236071Y-13059000D01*
X2245595Y-13068524D01*
X2255119Y-13087571D01*
X2264643Y-13125667D01*
X2264643Y-13173286D01*
X2255119Y-13211381D01*
X2245595Y-13230428D01*
X2236071Y-13239952D01*
X2217024Y-13249476D01*
X2197976Y-13249476D01*
X2178929Y-13239952D01*
X2169405Y-13230428D01*
X2159881Y-13211381D01*
X2150357Y-13173286D01*
X2150357Y-13125667D01*
X2159881Y-13087571D01*
X2169405Y-13068524D01*
X2178929Y-13059000D01*
X2197976Y-13049476D01*
X2350357Y-13230428D02*
X2359881Y-13239952D01*
X2350357Y-13249476D01*
X2340833Y-13239952D01*
X2350357Y-13230428D01*
X2350357Y-13249476D01*
X2483690Y-13049476D02*
X2502738Y-13049476D01*
X2521786Y-13059000D01*
X2531310Y-13068524D01*
X2540833Y-13087571D01*
X2550357Y-13125667D01*
X2550357Y-13173286D01*
X2540833Y-13211381D01*
X2531310Y-13230428D01*
X2521786Y-13239952D01*
X2502738Y-13249476D01*
X2483690Y-13249476D01*
X2464643Y-13239952D01*
X2455119Y-13230428D01*
X2445595Y-13211381D01*
X2436071Y-13173286D01*
X2436071Y-13125667D01*
X2445595Y-13087571D01*
X2455119Y-13068524D01*
X2464643Y-13059000D01*
X2483690Y-13049476D01*
X2617024Y-13049476D02*
X2740833Y-13049476D01*
X2674167Y-13125667D01*
X2702738Y-13125667D01*
X2721786Y-13135190D01*
X2731310Y-13144714D01*
X2740833Y-13163762D01*
X2740833Y-13211381D01*
X2731310Y-13230428D01*
X2721786Y-13239952D01*
X2702738Y-13249476D01*
X2645595Y-13249476D01*
X2626548Y-13239952D01*
X2617024Y-13230428D01*
X2836071Y-13249476D02*
X2874167Y-13249476D01*
X2893214Y-13239952D01*
X2902738Y-13230428D01*
X2921786Y-13201857D01*
X2931309Y-13163762D01*
X2931309Y-13087571D01*
X2921786Y-13068524D01*
X2912262Y-13059000D01*
X2893214Y-13049476D01*
X2855119Y-13049476D01*
X2836071Y-13059000D01*
X2826548Y-13068524D01*
X2817024Y-13087571D01*
X2817024Y-13135190D01*
X2826548Y-13154238D01*
X2836071Y-13163762D01*
X2855119Y-13173286D01*
X2893214Y-13173286D01*
X2912262Y-13163762D01*
X2921786Y-13154238D01*
X2931309Y-13135190D01*
X3102738Y-13116143D02*
X3102738Y-13249476D01*
X3055119Y-13039952D02*
X3007500Y-13182809D01*
X3131309Y-13182809D01*
X3197976Y-13049476D02*
X3197976Y-13087571D01*
X3274167Y-13049476D02*
X3274167Y-13087571D01*
X3569405Y-13325667D02*
X3559881Y-13316143D01*
X3540833Y-13287571D01*
X3531309Y-13268524D01*
X3521786Y-13239952D01*
X3512262Y-13192333D01*
X3512262Y-13154238D01*
X3521786Y-13106619D01*
X3531309Y-13078048D01*
X3540833Y-13059000D01*
X3559881Y-13030428D01*
X3569405Y-13020905D01*
X3636071Y-13068524D02*
X3645595Y-13059000D01*
X3664643Y-13049476D01*
X3712262Y-13049476D01*
X3731309Y-13059000D01*
X3740833Y-13068524D01*
X3750357Y-13087571D01*
X3750357Y-13106619D01*
X3740833Y-13135190D01*
X3626548Y-13249476D01*
X3750357Y-13249476D01*
X3931309Y-13049476D02*
X3836071Y-13049476D01*
X3826548Y-13144714D01*
X3836071Y-13135190D01*
X3855119Y-13125667D01*
X3902738Y-13125667D01*
X3921786Y-13135190D01*
X3931309Y-13144714D01*
X3940833Y-13163762D01*
X3940833Y-13211381D01*
X3931309Y-13230428D01*
X3921786Y-13239952D01*
X3902738Y-13249476D01*
X3855119Y-13249476D01*
X3836071Y-13239952D01*
X3826548Y-13230428D01*
X4178928Y-13249476D02*
X4178928Y-13049476D01*
X4264643Y-13249476D02*
X4264643Y-13144714D01*
X4255119Y-13125667D01*
X4236071Y-13116143D01*
X4207500Y-13116143D01*
X4188452Y-13125667D01*
X4178928Y-13135190D01*
X4388452Y-13249476D02*
X4369405Y-13239952D01*
X4359881Y-13230428D01*
X4350357Y-13211381D01*
X4350357Y-13154238D01*
X4359881Y-13135190D01*
X4369405Y-13125667D01*
X4388452Y-13116143D01*
X4417024Y-13116143D01*
X4436071Y-13125667D01*
X4445595Y-13135190D01*
X4455119Y-13154238D01*
X4455119Y-13211381D01*
X4445595Y-13230428D01*
X4436071Y-13239952D01*
X4417024Y-13249476D01*
X4388452Y-13249476D01*
X4569405Y-13249476D02*
X4550357Y-13239952D01*
X4540833Y-13220905D01*
X4540833Y-13049476D01*
X4721786Y-13239952D02*
X4702738Y-13249476D01*
X4664643Y-13249476D01*
X4645595Y-13239952D01*
X4636071Y-13220905D01*
X4636071Y-13144714D01*
X4645595Y-13125667D01*
X4664643Y-13116143D01*
X4702738Y-13116143D01*
X4721786Y-13125667D01*
X4731310Y-13144714D01*
X4731310Y-13163762D01*
X4636071Y-13182809D01*
X4807500Y-13239952D02*
X4826548Y-13249476D01*
X4864643Y-13249476D01*
X4883690Y-13239952D01*
X4893214Y-13220905D01*
X4893214Y-13211381D01*
X4883690Y-13192333D01*
X4864643Y-13182809D01*
X4836071Y-13182809D01*
X4817024Y-13173286D01*
X4807500Y-13154238D01*
X4807500Y-13144714D01*
X4817024Y-13125667D01*
X4836071Y-13116143D01*
X4864643Y-13116143D01*
X4883690Y-13125667D01*
X4959881Y-13325667D02*
X4969405Y-13316143D01*
X4988452Y-13287571D01*
X4997976Y-13268524D01*
X5007500Y-13239952D01*
X5017024Y-13192333D01*
X5017024Y-13154238D01*
X5007500Y-13106619D01*
X4997976Y-13078048D01*
X4988452Y-13059000D01*
X4969405Y-13030428D01*
X4959881Y-13020905D01*
D15*
X-18609Y-13461891D02*
X-18609Y-13384109D01*
X-96391Y-13384109D01*
X-96391Y-13461891D01*
X-18609Y-13461891D01*
D11*
X359881Y-13513476D02*
X245595Y-13513476D01*
X302738Y-13513476D02*
X302738Y-13313476D01*
X283690Y-13342048D01*
X264643Y-13361095D01*
X245595Y-13370619D01*
X445595Y-13494428D02*
X455119Y-13503952D01*
X445595Y-13513476D01*
X436071Y-13503952D01*
X445595Y-13494428D01*
X445595Y-13513476D01*
X645595Y-13513476D02*
X531310Y-13513476D01*
X588452Y-13513476D02*
X588452Y-13313476D01*
X569405Y-13342048D01*
X550357Y-13361095D01*
X531310Y-13370619D01*
X769405Y-13313476D02*
X788452Y-13313476D01*
X807500Y-13323000D01*
X817024Y-13332524D01*
X826548Y-13351571D01*
X836071Y-13389667D01*
X836071Y-13437286D01*
X826548Y-13475381D01*
X817024Y-13494428D01*
X807500Y-13503952D01*
X788452Y-13513476D01*
X769405Y-13513476D01*
X750357Y-13503952D01*
X740833Y-13494428D01*
X731309Y-13475381D01*
X721786Y-13437286D01*
X721786Y-13389667D01*
X731309Y-13351571D01*
X740833Y-13332524D01*
X750357Y-13323000D01*
X769405Y-13313476D01*
X959881Y-13313476D02*
X978928Y-13313476D01*
X997976Y-13323000D01*
X1007500Y-13332524D01*
X1017024Y-13351571D01*
X1026548Y-13389667D01*
X1026548Y-13437286D01*
X1017024Y-13475381D01*
X1007500Y-13494428D01*
X997976Y-13503952D01*
X978928Y-13513476D01*
X959881Y-13513476D01*
X940833Y-13503952D01*
X931309Y-13494428D01*
X921786Y-13475381D01*
X912262Y-13437286D01*
X912262Y-13389667D01*
X921786Y-13351571D01*
X931309Y-13332524D01*
X940833Y-13323000D01*
X959881Y-13313476D01*
X1112262Y-13513476D02*
X1112262Y-13380143D01*
X1112262Y-13399190D02*
X1121786Y-13389667D01*
X1140833Y-13380143D01*
X1169405Y-13380143D01*
X1188452Y-13389667D01*
X1197976Y-13408714D01*
X1197976Y-13513476D01*
X1197976Y-13408714D02*
X1207500Y-13389667D01*
X1226548Y-13380143D01*
X1255119Y-13380143D01*
X1274167Y-13389667D01*
X1283690Y-13408714D01*
X1283690Y-13513476D01*
X1378929Y-13513476D02*
X1378929Y-13380143D01*
X1378929Y-13399190D02*
X1388452Y-13389667D01*
X1407500Y-13380143D01*
X1436071Y-13380143D01*
X1455119Y-13389667D01*
X1464643Y-13408714D01*
X1464643Y-13513476D01*
X1464643Y-13408714D02*
X1474167Y-13389667D01*
X1493214Y-13380143D01*
X1521786Y-13380143D01*
X1540833Y-13389667D01*
X1550357Y-13408714D01*
X1550357Y-13513476D01*
X1940833Y-13303952D02*
X1769405Y-13561095D01*
X2197976Y-13313476D02*
X2217024Y-13313476D01*
X2236071Y-13323000D01*
X2245595Y-13332524D01*
X2255119Y-13351571D01*
X2264643Y-13389667D01*
X2264643Y-13437286D01*
X2255119Y-13475381D01*
X2245595Y-13494428D01*
X2236071Y-13503952D01*
X2217024Y-13513476D01*
X2197976Y-13513476D01*
X2178929Y-13503952D01*
X2169405Y-13494428D01*
X2159881Y-13475381D01*
X2150357Y-13437286D01*
X2150357Y-13389667D01*
X2159881Y-13351571D01*
X2169405Y-13332524D01*
X2178929Y-13323000D01*
X2197976Y-13313476D01*
X2350357Y-13494428D02*
X2359881Y-13503952D01*
X2350357Y-13513476D01*
X2340833Y-13503952D01*
X2350357Y-13494428D01*
X2350357Y-13513476D01*
X2483690Y-13313476D02*
X2502738Y-13313476D01*
X2521786Y-13323000D01*
X2531310Y-13332524D01*
X2540833Y-13351571D01*
X2550357Y-13389667D01*
X2550357Y-13437286D01*
X2540833Y-13475381D01*
X2531310Y-13494428D01*
X2521786Y-13503952D01*
X2502738Y-13513476D01*
X2483690Y-13513476D01*
X2464643Y-13503952D01*
X2455119Y-13494428D01*
X2445595Y-13475381D01*
X2436071Y-13437286D01*
X2436071Y-13389667D01*
X2445595Y-13351571D01*
X2455119Y-13332524D01*
X2464643Y-13323000D01*
X2483690Y-13313476D01*
X2721786Y-13380143D02*
X2721786Y-13513476D01*
X2674167Y-13303952D02*
X2626548Y-13446809D01*
X2750357Y-13446809D01*
X2807500Y-13313476D02*
X2931309Y-13313476D01*
X2864643Y-13389667D01*
X2893214Y-13389667D01*
X2912262Y-13399190D01*
X2921786Y-13408714D01*
X2931309Y-13427762D01*
X2931309Y-13475381D01*
X2921786Y-13494428D01*
X2912262Y-13503952D01*
X2893214Y-13513476D01*
X2836071Y-13513476D01*
X2817024Y-13503952D01*
X2807500Y-13494428D01*
X2997976Y-13313476D02*
X3121786Y-13313476D01*
X3055119Y-13389667D01*
X3083690Y-13389667D01*
X3102738Y-13399190D01*
X3112262Y-13408714D01*
X3121786Y-13427762D01*
X3121786Y-13475381D01*
X3112262Y-13494428D01*
X3102738Y-13503952D01*
X3083690Y-13513476D01*
X3026548Y-13513476D01*
X3007500Y-13503952D01*
X2997976Y-13494428D01*
X3197976Y-13313476D02*
X3197976Y-13351571D01*
X3274167Y-13313476D02*
X3274167Y-13351571D01*
X3569405Y-13589667D02*
X3559881Y-13580143D01*
X3540833Y-13551571D01*
X3531309Y-13532524D01*
X3521786Y-13503952D01*
X3512262Y-13456333D01*
X3512262Y-13418238D01*
X3521786Y-13370619D01*
X3531309Y-13342048D01*
X3540833Y-13323000D01*
X3559881Y-13294428D01*
X3569405Y-13284905D01*
X3683690Y-13313476D02*
X3702738Y-13313476D01*
X3721786Y-13323000D01*
X3731309Y-13332524D01*
X3740833Y-13351571D01*
X3750357Y-13389667D01*
X3750357Y-13437286D01*
X3740833Y-13475381D01*
X3731309Y-13494428D01*
X3721786Y-13503952D01*
X3702738Y-13513476D01*
X3683690Y-13513476D01*
X3664643Y-13503952D01*
X3655119Y-13494428D01*
X3645595Y-13475381D01*
X3636071Y-13437286D01*
X3636071Y-13389667D01*
X3645595Y-13351571D01*
X3655119Y-13332524D01*
X3664643Y-13323000D01*
X3683690Y-13313476D01*
X3988452Y-13513476D02*
X3988452Y-13313476D01*
X4074167Y-13513476D02*
X4074167Y-13408714D01*
X4064643Y-13389667D01*
X4045595Y-13380143D01*
X4017024Y-13380143D01*
X3997976Y-13389667D01*
X3988452Y-13399190D01*
X4197976Y-13513476D02*
X4178928Y-13503952D01*
X4169405Y-13494428D01*
X4159881Y-13475381D01*
X4159881Y-13418238D01*
X4169405Y-13399190D01*
X4178928Y-13389667D01*
X4197976Y-13380143D01*
X4226548Y-13380143D01*
X4245595Y-13389667D01*
X4255119Y-13399190D01*
X4264643Y-13418238D01*
X4264643Y-13475381D01*
X4255119Y-13494428D01*
X4245595Y-13503952D01*
X4226548Y-13513476D01*
X4197976Y-13513476D01*
X4378929Y-13513476D02*
X4359881Y-13503952D01*
X4350357Y-13484905D01*
X4350357Y-13313476D01*
X4531310Y-13503952D02*
X4512262Y-13513476D01*
X4474167Y-13513476D01*
X4455119Y-13503952D01*
X4445595Y-13484905D01*
X4445595Y-13408714D01*
X4455119Y-13389667D01*
X4474167Y-13380143D01*
X4512262Y-13380143D01*
X4531310Y-13389667D01*
X4540833Y-13408714D01*
X4540833Y-13427762D01*
X4445595Y-13446809D01*
X4617024Y-13503952D02*
X4636071Y-13513476D01*
X4674167Y-13513476D01*
X4693214Y-13503952D01*
X4702738Y-13484905D01*
X4702738Y-13475381D01*
X4693214Y-13456333D01*
X4674167Y-13446809D01*
X4645595Y-13446809D01*
X4626548Y-13437286D01*
X4617024Y-13418238D01*
X4617024Y-13408714D01*
X4626548Y-13389667D01*
X4645595Y-13380143D01*
X4674167Y-13380143D01*
X4693214Y-13389667D01*
X4940833Y-13437286D02*
X5093214Y-13437286D01*
X5017024Y-13513476D02*
X5017024Y-13361095D01*
X5426548Y-13380143D02*
X5426548Y-13513476D01*
X5378929Y-13303952D02*
X5331310Y-13446809D01*
X5455119Y-13446809D01*
X5674167Y-13503952D02*
X5693214Y-13513476D01*
X5731309Y-13513476D01*
X5750357Y-13503952D01*
X5759881Y-13484905D01*
X5759881Y-13475381D01*
X5750357Y-13456333D01*
X5731309Y-13446809D01*
X5702738Y-13446809D01*
X5683690Y-13437286D01*
X5674167Y-13418238D01*
X5674167Y-13408714D01*
X5683690Y-13389667D01*
X5702738Y-13380143D01*
X5731309Y-13380143D01*
X5750357Y-13389667D01*
X5874167Y-13513476D02*
X5855119Y-13503952D01*
X5845595Y-13484905D01*
X5845595Y-13313476D01*
X5978928Y-13513476D02*
X5959881Y-13503952D01*
X5950357Y-13494428D01*
X5940833Y-13475381D01*
X5940833Y-13418238D01*
X5950357Y-13399190D01*
X5959881Y-13389667D01*
X5978928Y-13380143D01*
X6007500Y-13380143D01*
X6026548Y-13389667D01*
X6036071Y-13399190D01*
X6045595Y-13418238D01*
X6045595Y-13475381D01*
X6036071Y-13494428D01*
X6026548Y-13503952D01*
X6007500Y-13513476D01*
X5978928Y-13513476D01*
X6102738Y-13380143D02*
X6178928Y-13380143D01*
X6131309Y-13313476D02*
X6131309Y-13484905D01*
X6140833Y-13503952D01*
X6159881Y-13513476D01*
X6178928Y-13513476D01*
X6236071Y-13503952D02*
X6255119Y-13513476D01*
X6293214Y-13513476D01*
X6312262Y-13503952D01*
X6321786Y-13484905D01*
X6321786Y-13475381D01*
X6312262Y-13456333D01*
X6293214Y-13446809D01*
X6264643Y-13446809D01*
X6245595Y-13437286D01*
X6236071Y-13418238D01*
X6236071Y-13408714D01*
X6245595Y-13389667D01*
X6264643Y-13380143D01*
X6293214Y-13380143D01*
X6312262Y-13389667D01*
X6388452Y-13589667D02*
X6397976Y-13580143D01*
X6417024Y-13551571D01*
X6426548Y-13532524D01*
X6436071Y-13503952D01*
X6445595Y-13456333D01*
X6445595Y-13418238D01*
X6436071Y-13370619D01*
X6426548Y-13342048D01*
X6417024Y-13323000D01*
X6397976Y-13294428D01*
X6388452Y-13284905D01*
D16*
X-62500Y-13747000D02*
X-2500Y-13687000D01*
X-62500Y-13627000D01*
X-122500Y-13687000D01*
X-62500Y-13747000D01*
D11*
X359881Y-13777476D02*
X245595Y-13777476D01*
X302738Y-13777476D02*
X302738Y-13577476D01*
X283690Y-13606048D01*
X264643Y-13625095D01*
X245595Y-13634619D01*
X445595Y-13758428D02*
X455119Y-13767952D01*
X445595Y-13777476D01*
X436071Y-13767952D01*
X445595Y-13758428D01*
X445595Y-13777476D01*
X531310Y-13596524D02*
X540833Y-13587000D01*
X559881Y-13577476D01*
X607500Y-13577476D01*
X626548Y-13587000D01*
X636071Y-13596524D01*
X645595Y-13615571D01*
X645595Y-13634619D01*
X636071Y-13663190D01*
X521786Y-13777476D01*
X645595Y-13777476D01*
X769405Y-13577476D02*
X788452Y-13577476D01*
X807500Y-13587000D01*
X817024Y-13596524D01*
X826548Y-13615571D01*
X836071Y-13653667D01*
X836071Y-13701286D01*
X826548Y-13739381D01*
X817024Y-13758428D01*
X807500Y-13767952D01*
X788452Y-13777476D01*
X769405Y-13777476D01*
X750357Y-13767952D01*
X740833Y-13758428D01*
X731309Y-13739381D01*
X721786Y-13701286D01*
X721786Y-13653667D01*
X731309Y-13615571D01*
X740833Y-13596524D01*
X750357Y-13587000D01*
X769405Y-13577476D01*
X959881Y-13577476D02*
X978928Y-13577476D01*
X997976Y-13587000D01*
X1007500Y-13596524D01*
X1017024Y-13615571D01*
X1026548Y-13653667D01*
X1026548Y-13701286D01*
X1017024Y-13739381D01*
X1007500Y-13758428D01*
X997976Y-13767952D01*
X978928Y-13777476D01*
X959881Y-13777476D01*
X940833Y-13767952D01*
X931309Y-13758428D01*
X921786Y-13739381D01*
X912262Y-13701286D01*
X912262Y-13653667D01*
X921786Y-13615571D01*
X931309Y-13596524D01*
X940833Y-13587000D01*
X959881Y-13577476D01*
X1112262Y-13777476D02*
X1112262Y-13644143D01*
X1112262Y-13663190D02*
X1121786Y-13653667D01*
X1140833Y-13644143D01*
X1169405Y-13644143D01*
X1188452Y-13653667D01*
X1197976Y-13672714D01*
X1197976Y-13777476D01*
X1197976Y-13672714D02*
X1207500Y-13653667D01*
X1226548Y-13644143D01*
X1255119Y-13644143D01*
X1274167Y-13653667D01*
X1283690Y-13672714D01*
X1283690Y-13777476D01*
X1378929Y-13777476D02*
X1378929Y-13644143D01*
X1378929Y-13663190D02*
X1388452Y-13653667D01*
X1407500Y-13644143D01*
X1436071Y-13644143D01*
X1455119Y-13653667D01*
X1464643Y-13672714D01*
X1464643Y-13777476D01*
X1464643Y-13672714D02*
X1474167Y-13653667D01*
X1493214Y-13644143D01*
X1521786Y-13644143D01*
X1540833Y-13653667D01*
X1550357Y-13672714D01*
X1550357Y-13777476D01*
X1940833Y-13567952D02*
X1769405Y-13825095D01*
X2197976Y-13577476D02*
X2217024Y-13577476D01*
X2236071Y-13587000D01*
X2245595Y-13596524D01*
X2255119Y-13615571D01*
X2264643Y-13653667D01*
X2264643Y-13701286D01*
X2255119Y-13739381D01*
X2245595Y-13758428D01*
X2236071Y-13767952D01*
X2217024Y-13777476D01*
X2197976Y-13777476D01*
X2178929Y-13767952D01*
X2169405Y-13758428D01*
X2159881Y-13739381D01*
X2150357Y-13701286D01*
X2150357Y-13653667D01*
X2159881Y-13615571D01*
X2169405Y-13596524D01*
X2178929Y-13587000D01*
X2197976Y-13577476D01*
X2350357Y-13758428D02*
X2359881Y-13767952D01*
X2350357Y-13777476D01*
X2340833Y-13767952D01*
X2350357Y-13758428D01*
X2350357Y-13777476D01*
X2483690Y-13577476D02*
X2502738Y-13577476D01*
X2521786Y-13587000D01*
X2531310Y-13596524D01*
X2540833Y-13615571D01*
X2550357Y-13653667D01*
X2550357Y-13701286D01*
X2540833Y-13739381D01*
X2531310Y-13758428D01*
X2521786Y-13767952D01*
X2502738Y-13777476D01*
X2483690Y-13777476D01*
X2464643Y-13767952D01*
X2455119Y-13758428D01*
X2445595Y-13739381D01*
X2436071Y-13701286D01*
X2436071Y-13653667D01*
X2445595Y-13615571D01*
X2455119Y-13596524D01*
X2464643Y-13587000D01*
X2483690Y-13577476D01*
X2721786Y-13644143D02*
X2721786Y-13777476D01*
X2674167Y-13567952D02*
X2626548Y-13710809D01*
X2750357Y-13710809D01*
X2807500Y-13577476D02*
X2940833Y-13577476D01*
X2855119Y-13777476D01*
X3007500Y-13596524D02*
X3017024Y-13587000D01*
X3036071Y-13577476D01*
X3083690Y-13577476D01*
X3102738Y-13587000D01*
X3112262Y-13596524D01*
X3121786Y-13615571D01*
X3121786Y-13634619D01*
X3112262Y-13663190D01*
X2997976Y-13777476D01*
X3121786Y-13777476D01*
X3197976Y-13577476D02*
X3197976Y-13615571D01*
X3274167Y-13577476D02*
X3274167Y-13615571D01*
X3569405Y-13853667D02*
X3559881Y-13844143D01*
X3540833Y-13815571D01*
X3531309Y-13796524D01*
X3521786Y-13767952D01*
X3512262Y-13720333D01*
X3512262Y-13682238D01*
X3521786Y-13634619D01*
X3531309Y-13606048D01*
X3540833Y-13587000D01*
X3559881Y-13558428D01*
X3569405Y-13548905D01*
X3636071Y-13596524D02*
X3645595Y-13587000D01*
X3664643Y-13577476D01*
X3712262Y-13577476D01*
X3731309Y-13587000D01*
X3740833Y-13596524D01*
X3750357Y-13615571D01*
X3750357Y-13634619D01*
X3740833Y-13663190D01*
X3626548Y-13777476D01*
X3750357Y-13777476D01*
X3817024Y-13577476D02*
X3950357Y-13577476D01*
X3864643Y-13777476D01*
X4178928Y-13777476D02*
X4178928Y-13577476D01*
X4264643Y-13777476D02*
X4264643Y-13672714D01*
X4255119Y-13653667D01*
X4236071Y-13644143D01*
X4207500Y-13644143D01*
X4188452Y-13653667D01*
X4178928Y-13663190D01*
X4388452Y-13777476D02*
X4369405Y-13767952D01*
X4359881Y-13758428D01*
X4350357Y-13739381D01*
X4350357Y-13682238D01*
X4359881Y-13663190D01*
X4369405Y-13653667D01*
X4388452Y-13644143D01*
X4417024Y-13644143D01*
X4436071Y-13653667D01*
X4445595Y-13663190D01*
X4455119Y-13682238D01*
X4455119Y-13739381D01*
X4445595Y-13758428D01*
X4436071Y-13767952D01*
X4417024Y-13777476D01*
X4388452Y-13777476D01*
X4569405Y-13777476D02*
X4550357Y-13767952D01*
X4540833Y-13748905D01*
X4540833Y-13577476D01*
X4721786Y-13767952D02*
X4702738Y-13777476D01*
X4664643Y-13777476D01*
X4645595Y-13767952D01*
X4636071Y-13748905D01*
X4636071Y-13672714D01*
X4645595Y-13653667D01*
X4664643Y-13644143D01*
X4702738Y-13644143D01*
X4721786Y-13653667D01*
X4731310Y-13672714D01*
X4731310Y-13691762D01*
X4636071Y-13710809D01*
X4807500Y-13767952D02*
X4826548Y-13777476D01*
X4864643Y-13777476D01*
X4883690Y-13767952D01*
X4893214Y-13748905D01*
X4893214Y-13739381D01*
X4883690Y-13720333D01*
X4864643Y-13710809D01*
X4836071Y-13710809D01*
X4817024Y-13701286D01*
X4807500Y-13682238D01*
X4807500Y-13672714D01*
X4817024Y-13653667D01*
X4836071Y-13644143D01*
X4864643Y-13644143D01*
X4883690Y-13653667D01*
X4959881Y-13853667D02*
X4969405Y-13844143D01*
X4988452Y-13815571D01*
X4997976Y-13796524D01*
X5007500Y-13767952D01*
X5017024Y-13720333D01*
X5017024Y-13682238D01*
X5007500Y-13634619D01*
X4997976Y-13606048D01*
X4988452Y-13587000D01*
X4969405Y-13558428D01*
X4959881Y-13548905D01*
D17*
X-132500Y-13886000D02*
X-2500Y-14016000D01*
X-2500Y-13886000D02*
X-132500Y-14016000D01*
X-2500Y-13951000D02*
G75*
G03*
X-2500Y-13951000I-65000J0D01*
G01*
D11*
X359881Y-14041476D02*
X245595Y-14041476D01*
X302738Y-14041476D02*
X302738Y-13841476D01*
X283690Y-13870048D01*
X264643Y-13889095D01*
X245595Y-13898619D01*
X445595Y-14022428D02*
X455119Y-14031952D01*
X445595Y-14041476D01*
X436071Y-14031952D01*
X445595Y-14022428D01*
X445595Y-14041476D01*
X521786Y-13841476D02*
X645595Y-13841476D01*
X578929Y-13917667D01*
X607500Y-13917667D01*
X626548Y-13927190D01*
X636071Y-13936714D01*
X645595Y-13955762D01*
X645595Y-14003381D01*
X636071Y-14022428D01*
X626548Y-14031952D01*
X607500Y-14041476D01*
X550357Y-14041476D01*
X531310Y-14031952D01*
X521786Y-14022428D01*
X769405Y-13841476D02*
X788452Y-13841476D01*
X807500Y-13851000D01*
X817024Y-13860524D01*
X826548Y-13879571D01*
X836071Y-13917667D01*
X836071Y-13965286D01*
X826548Y-14003381D01*
X817024Y-14022428D01*
X807500Y-14031952D01*
X788452Y-14041476D01*
X769405Y-14041476D01*
X750357Y-14031952D01*
X740833Y-14022428D01*
X731309Y-14003381D01*
X721786Y-13965286D01*
X721786Y-13917667D01*
X731309Y-13879571D01*
X740833Y-13860524D01*
X750357Y-13851000D01*
X769405Y-13841476D01*
X959881Y-13841476D02*
X978928Y-13841476D01*
X997976Y-13851000D01*
X1007500Y-13860524D01*
X1017024Y-13879571D01*
X1026548Y-13917667D01*
X1026548Y-13965286D01*
X1017024Y-14003381D01*
X1007500Y-14022428D01*
X997976Y-14031952D01*
X978928Y-14041476D01*
X959881Y-14041476D01*
X940833Y-14031952D01*
X931309Y-14022428D01*
X921786Y-14003381D01*
X912262Y-13965286D01*
X912262Y-13917667D01*
X921786Y-13879571D01*
X931309Y-13860524D01*
X940833Y-13851000D01*
X959881Y-13841476D01*
X1112262Y-14041476D02*
X1112262Y-13908143D01*
X1112262Y-13927190D02*
X1121786Y-13917667D01*
X1140833Y-13908143D01*
X1169405Y-13908143D01*
X1188452Y-13917667D01*
X1197976Y-13936714D01*
X1197976Y-14041476D01*
X1197976Y-13936714D02*
X1207500Y-13917667D01*
X1226548Y-13908143D01*
X1255119Y-13908143D01*
X1274167Y-13917667D01*
X1283690Y-13936714D01*
X1283690Y-14041476D01*
X1378929Y-14041476D02*
X1378929Y-13908143D01*
X1378929Y-13927190D02*
X1388452Y-13917667D01*
X1407500Y-13908143D01*
X1436071Y-13908143D01*
X1455119Y-13917667D01*
X1464643Y-13936714D01*
X1464643Y-14041476D01*
X1464643Y-13936714D02*
X1474167Y-13917667D01*
X1493214Y-13908143D01*
X1521786Y-13908143D01*
X1540833Y-13917667D01*
X1550357Y-13936714D01*
X1550357Y-14041476D01*
X1940833Y-13831952D02*
X1769405Y-14089095D01*
X2197976Y-13841476D02*
X2217024Y-13841476D01*
X2236071Y-13851000D01*
X2245595Y-13860524D01*
X2255119Y-13879571D01*
X2264643Y-13917667D01*
X2264643Y-13965286D01*
X2255119Y-14003381D01*
X2245595Y-14022428D01*
X2236071Y-14031952D01*
X2217024Y-14041476D01*
X2197976Y-14041476D01*
X2178929Y-14031952D01*
X2169405Y-14022428D01*
X2159881Y-14003381D01*
X2150357Y-13965286D01*
X2150357Y-13917667D01*
X2159881Y-13879571D01*
X2169405Y-13860524D01*
X2178929Y-13851000D01*
X2197976Y-13841476D01*
X2350357Y-14022428D02*
X2359881Y-14031952D01*
X2350357Y-14041476D01*
X2340833Y-14031952D01*
X2350357Y-14022428D01*
X2350357Y-14041476D01*
X2483690Y-13841476D02*
X2502738Y-13841476D01*
X2521786Y-13851000D01*
X2531310Y-13860524D01*
X2540833Y-13879571D01*
X2550357Y-13917667D01*
X2550357Y-13965286D01*
X2540833Y-14003381D01*
X2531310Y-14022428D01*
X2521786Y-14031952D01*
X2502738Y-14041476D01*
X2483690Y-14041476D01*
X2464643Y-14031952D01*
X2455119Y-14022428D01*
X2445595Y-14003381D01*
X2436071Y-13965286D01*
X2436071Y-13917667D01*
X2445595Y-13879571D01*
X2455119Y-13860524D01*
X2464643Y-13851000D01*
X2483690Y-13841476D01*
X2731310Y-13841476D02*
X2636071Y-13841476D01*
X2626548Y-13936714D01*
X2636071Y-13927190D01*
X2655119Y-13917667D01*
X2702738Y-13917667D01*
X2721786Y-13927190D01*
X2731310Y-13936714D01*
X2740833Y-13955762D01*
X2740833Y-14003381D01*
X2731310Y-14022428D01*
X2721786Y-14031952D01*
X2702738Y-14041476D01*
X2655119Y-14041476D01*
X2636071Y-14031952D01*
X2626548Y-14022428D01*
X2931309Y-14041476D02*
X2817024Y-14041476D01*
X2874167Y-14041476D02*
X2874167Y-13841476D01*
X2855119Y-13870048D01*
X2836071Y-13889095D01*
X2817024Y-13898619D01*
X3007500Y-13860524D02*
X3017024Y-13851000D01*
X3036071Y-13841476D01*
X3083690Y-13841476D01*
X3102738Y-13851000D01*
X3112262Y-13860524D01*
X3121786Y-13879571D01*
X3121786Y-13898619D01*
X3112262Y-13927190D01*
X2997976Y-14041476D01*
X3121786Y-14041476D01*
X3197976Y-13841476D02*
X3197976Y-13879571D01*
X3274167Y-13841476D02*
X3274167Y-13879571D01*
X3569405Y-14117667D02*
X3559881Y-14108143D01*
X3540833Y-14079571D01*
X3531309Y-14060524D01*
X3521786Y-14031952D01*
X3512262Y-13984333D01*
X3512262Y-13946238D01*
X3521786Y-13898619D01*
X3531309Y-13870048D01*
X3540833Y-13851000D01*
X3559881Y-13822428D01*
X3569405Y-13812905D01*
X3683690Y-13841476D02*
X3702738Y-13841476D01*
X3721786Y-13851000D01*
X3731309Y-13860524D01*
X3740833Y-13879571D01*
X3750357Y-13917667D01*
X3750357Y-13965286D01*
X3740833Y-14003381D01*
X3731309Y-14022428D01*
X3721786Y-14031952D01*
X3702738Y-14041476D01*
X3683690Y-14041476D01*
X3664643Y-14031952D01*
X3655119Y-14022428D01*
X3645595Y-14003381D01*
X3636071Y-13965286D01*
X3636071Y-13917667D01*
X3645595Y-13879571D01*
X3655119Y-13860524D01*
X3664643Y-13851000D01*
X3683690Y-13841476D01*
X3988452Y-14041476D02*
X3988452Y-13841476D01*
X4074167Y-14041476D02*
X4074167Y-13936714D01*
X4064643Y-13917667D01*
X4045595Y-13908143D01*
X4017024Y-13908143D01*
X3997976Y-13917667D01*
X3988452Y-13927190D01*
X4197976Y-14041476D02*
X4178928Y-14031952D01*
X4169405Y-14022428D01*
X4159881Y-14003381D01*
X4159881Y-13946238D01*
X4169405Y-13927190D01*
X4178928Y-13917667D01*
X4197976Y-13908143D01*
X4226548Y-13908143D01*
X4245595Y-13917667D01*
X4255119Y-13927190D01*
X4264643Y-13946238D01*
X4264643Y-14003381D01*
X4255119Y-14022428D01*
X4245595Y-14031952D01*
X4226548Y-14041476D01*
X4197976Y-14041476D01*
X4378929Y-14041476D02*
X4359881Y-14031952D01*
X4350357Y-14012905D01*
X4350357Y-13841476D01*
X4531310Y-14031952D02*
X4512262Y-14041476D01*
X4474167Y-14041476D01*
X4455119Y-14031952D01*
X4445595Y-14012905D01*
X4445595Y-13936714D01*
X4455119Y-13917667D01*
X4474167Y-13908143D01*
X4512262Y-13908143D01*
X4531310Y-13917667D01*
X4540833Y-13936714D01*
X4540833Y-13955762D01*
X4445595Y-13974809D01*
X4617024Y-14031952D02*
X4636071Y-14041476D01*
X4674167Y-14041476D01*
X4693214Y-14031952D01*
X4702738Y-14012905D01*
X4702738Y-14003381D01*
X4693214Y-13984333D01*
X4674167Y-13974809D01*
X4645595Y-13974809D01*
X4626548Y-13965286D01*
X4617024Y-13946238D01*
X4617024Y-13936714D01*
X4626548Y-13917667D01*
X4645595Y-13908143D01*
X4674167Y-13908143D01*
X4693214Y-13917667D01*
X4940833Y-13965286D02*
X5093214Y-13965286D01*
X5017024Y-14041476D02*
X5017024Y-13889095D01*
X5321786Y-13841476D02*
X5445595Y-13841476D01*
X5378929Y-13917667D01*
X5407500Y-13917667D01*
X5426548Y-13927190D01*
X5436071Y-13936714D01*
X5445595Y-13955762D01*
X5445595Y-14003381D01*
X5436071Y-14022428D01*
X5426548Y-14031952D01*
X5407500Y-14041476D01*
X5350357Y-14041476D01*
X5331310Y-14031952D01*
X5321786Y-14022428D01*
X5674167Y-14031952D02*
X5693214Y-14041476D01*
X5731309Y-14041476D01*
X5750357Y-14031952D01*
X5759881Y-14012905D01*
X5759881Y-14003381D01*
X5750357Y-13984333D01*
X5731309Y-13974809D01*
X5702738Y-13974809D01*
X5683690Y-13965286D01*
X5674167Y-13946238D01*
X5674167Y-13936714D01*
X5683690Y-13917667D01*
X5702738Y-13908143D01*
X5731309Y-13908143D01*
X5750357Y-13917667D01*
X5874167Y-14041476D02*
X5855119Y-14031952D01*
X5845595Y-14012905D01*
X5845595Y-13841476D01*
X5978928Y-14041476D02*
X5959881Y-14031952D01*
X5950357Y-14022428D01*
X5940833Y-14003381D01*
X5940833Y-13946238D01*
X5950357Y-13927190D01*
X5959881Y-13917667D01*
X5978928Y-13908143D01*
X6007500Y-13908143D01*
X6026548Y-13917667D01*
X6036071Y-13927190D01*
X6045595Y-13946238D01*
X6045595Y-14003381D01*
X6036071Y-14022428D01*
X6026548Y-14031952D01*
X6007500Y-14041476D01*
X5978928Y-14041476D01*
X6102738Y-13908143D02*
X6178928Y-13908143D01*
X6131309Y-13841476D02*
X6131309Y-14012905D01*
X6140833Y-14031952D01*
X6159881Y-14041476D01*
X6178928Y-14041476D01*
X6236071Y-14031952D02*
X6255119Y-14041476D01*
X6293214Y-14041476D01*
X6312262Y-14031952D01*
X6321786Y-14012905D01*
X6321786Y-14003381D01*
X6312262Y-13984333D01*
X6293214Y-13974809D01*
X6264643Y-13974809D01*
X6245595Y-13965286D01*
X6236071Y-13946238D01*
X6236071Y-13936714D01*
X6245595Y-13917667D01*
X6264643Y-13908143D01*
X6293214Y-13908143D01*
X6312262Y-13917667D01*
X6388452Y-14117667D02*
X6397976Y-14108143D01*
X6417024Y-14079571D01*
X6426548Y-14060524D01*
X6436071Y-14031952D01*
X6445595Y-13984333D01*
X6445595Y-13946238D01*
X6436071Y-13898619D01*
X6426548Y-13870048D01*
X6417024Y-13851000D01*
X6397976Y-13822428D01*
X6388452Y-13812905D01*
D18*
X-142500Y-14145000D02*
X-2500Y-14285000D01*
X-2500Y-14145000D02*
X-142500Y-14285000D01*
X-72500Y-14145000D02*
X-72500Y-14285000D01*
X-142500Y-14215000D02*
X-2500Y-14215000D01*
D11*
X359881Y-14305476D02*
X245595Y-14305476D01*
X302738Y-14305476D02*
X302738Y-14105476D01*
X283690Y-14134048D01*
X264643Y-14153095D01*
X245595Y-14162619D01*
X445595Y-14286428D02*
X455119Y-14295952D01*
X445595Y-14305476D01*
X436071Y-14295952D01*
X445595Y-14286428D01*
X445595Y-14305476D01*
X626548Y-14172143D02*
X626548Y-14305476D01*
X578929Y-14095952D02*
X531310Y-14238809D01*
X655119Y-14238809D01*
X769405Y-14105476D02*
X788452Y-14105476D01*
X807500Y-14115000D01*
X817024Y-14124524D01*
X826548Y-14143571D01*
X836071Y-14181667D01*
X836071Y-14229286D01*
X826548Y-14267381D01*
X817024Y-14286428D01*
X807500Y-14295952D01*
X788452Y-14305476D01*
X769405Y-14305476D01*
X750357Y-14295952D01*
X740833Y-14286428D01*
X731309Y-14267381D01*
X721786Y-14229286D01*
X721786Y-14181667D01*
X731309Y-14143571D01*
X740833Y-14124524D01*
X750357Y-14115000D01*
X769405Y-14105476D01*
X959881Y-14105476D02*
X978928Y-14105476D01*
X997976Y-14115000D01*
X1007500Y-14124524D01*
X1017024Y-14143571D01*
X1026548Y-14181667D01*
X1026548Y-14229286D01*
X1017024Y-14267381D01*
X1007500Y-14286428D01*
X997976Y-14295952D01*
X978928Y-14305476D01*
X959881Y-14305476D01*
X940833Y-14295952D01*
X931309Y-14286428D01*
X921786Y-14267381D01*
X912262Y-14229286D01*
X912262Y-14181667D01*
X921786Y-14143571D01*
X931309Y-14124524D01*
X940833Y-14115000D01*
X959881Y-14105476D01*
X1112262Y-14305476D02*
X1112262Y-14172143D01*
X1112262Y-14191190D02*
X1121786Y-14181667D01*
X1140833Y-14172143D01*
X1169405Y-14172143D01*
X1188452Y-14181667D01*
X1197976Y-14200714D01*
X1197976Y-14305476D01*
X1197976Y-14200714D02*
X1207500Y-14181667D01*
X1226548Y-14172143D01*
X1255119Y-14172143D01*
X1274167Y-14181667D01*
X1283690Y-14200714D01*
X1283690Y-14305476D01*
X1378929Y-14305476D02*
X1378929Y-14172143D01*
X1378929Y-14191190D02*
X1388452Y-14181667D01*
X1407500Y-14172143D01*
X1436071Y-14172143D01*
X1455119Y-14181667D01*
X1464643Y-14200714D01*
X1464643Y-14305476D01*
X1464643Y-14200714D02*
X1474167Y-14181667D01*
X1493214Y-14172143D01*
X1521786Y-14172143D01*
X1540833Y-14181667D01*
X1550357Y-14200714D01*
X1550357Y-14305476D01*
X1940833Y-14095952D02*
X1769405Y-14353095D01*
X2197976Y-14105476D02*
X2217024Y-14105476D01*
X2236071Y-14115000D01*
X2245595Y-14124524D01*
X2255119Y-14143571D01*
X2264643Y-14181667D01*
X2264643Y-14229286D01*
X2255119Y-14267381D01*
X2245595Y-14286428D01*
X2236071Y-14295952D01*
X2217024Y-14305476D01*
X2197976Y-14305476D01*
X2178929Y-14295952D01*
X2169405Y-14286428D01*
X2159881Y-14267381D01*
X2150357Y-14229286D01*
X2150357Y-14181667D01*
X2159881Y-14143571D01*
X2169405Y-14124524D01*
X2178929Y-14115000D01*
X2197976Y-14105476D01*
X2350357Y-14286428D02*
X2359881Y-14295952D01*
X2350357Y-14305476D01*
X2340833Y-14295952D01*
X2350357Y-14286428D01*
X2350357Y-14305476D01*
X2483690Y-14105476D02*
X2502738Y-14105476D01*
X2521786Y-14115000D01*
X2531310Y-14124524D01*
X2540833Y-14143571D01*
X2550357Y-14181667D01*
X2550357Y-14229286D01*
X2540833Y-14267381D01*
X2531310Y-14286428D01*
X2521786Y-14295952D01*
X2502738Y-14305476D01*
X2483690Y-14305476D01*
X2464643Y-14295952D01*
X2455119Y-14286428D01*
X2445595Y-14267381D01*
X2436071Y-14229286D01*
X2436071Y-14181667D01*
X2445595Y-14143571D01*
X2455119Y-14124524D01*
X2464643Y-14115000D01*
X2483690Y-14105476D01*
X2731310Y-14105476D02*
X2636071Y-14105476D01*
X2626548Y-14200714D01*
X2636071Y-14191190D01*
X2655119Y-14181667D01*
X2702738Y-14181667D01*
X2721786Y-14191190D01*
X2731310Y-14200714D01*
X2740833Y-14219762D01*
X2740833Y-14267381D01*
X2731310Y-14286428D01*
X2721786Y-14295952D01*
X2702738Y-14305476D01*
X2655119Y-14305476D01*
X2636071Y-14295952D01*
X2626548Y-14286428D01*
X2921786Y-14105476D02*
X2826548Y-14105476D01*
X2817024Y-14200714D01*
X2826548Y-14191190D01*
X2845595Y-14181667D01*
X2893214Y-14181667D01*
X2912262Y-14191190D01*
X2921786Y-14200714D01*
X2931309Y-14219762D01*
X2931309Y-14267381D01*
X2921786Y-14286428D01*
X2912262Y-14295952D01*
X2893214Y-14305476D01*
X2845595Y-14305476D01*
X2826548Y-14295952D01*
X2817024Y-14286428D01*
X3121786Y-14305476D02*
X3007500Y-14305476D01*
X3064643Y-14305476D02*
X3064643Y-14105476D01*
X3045595Y-14134048D01*
X3026548Y-14153095D01*
X3007500Y-14162619D01*
X3197976Y-14105476D02*
X3197976Y-14143571D01*
X3274167Y-14105476D02*
X3274167Y-14143571D01*
X3569405Y-14381667D02*
X3559881Y-14372143D01*
X3540833Y-14343571D01*
X3531309Y-14324524D01*
X3521786Y-14295952D01*
X3512262Y-14248333D01*
X3512262Y-14210238D01*
X3521786Y-14162619D01*
X3531309Y-14134048D01*
X3540833Y-14115000D01*
X3559881Y-14086428D01*
X3569405Y-14076905D01*
X3683690Y-14105476D02*
X3702738Y-14105476D01*
X3721786Y-14115000D01*
X3731309Y-14124524D01*
X3740833Y-14143571D01*
X3750357Y-14181667D01*
X3750357Y-14229286D01*
X3740833Y-14267381D01*
X3731309Y-14286428D01*
X3721786Y-14295952D01*
X3702738Y-14305476D01*
X3683690Y-14305476D01*
X3664643Y-14295952D01*
X3655119Y-14286428D01*
X3645595Y-14267381D01*
X3636071Y-14229286D01*
X3636071Y-14181667D01*
X3645595Y-14143571D01*
X3655119Y-14124524D01*
X3664643Y-14115000D01*
X3683690Y-14105476D01*
X3988452Y-14305476D02*
X3988452Y-14105476D01*
X4074167Y-14305476D02*
X4074167Y-14200714D01*
X4064643Y-14181667D01*
X4045595Y-14172143D01*
X4017024Y-14172143D01*
X3997976Y-14181667D01*
X3988452Y-14191190D01*
X4197976Y-14305476D02*
X4178928Y-14295952D01*
X4169405Y-14286428D01*
X4159881Y-14267381D01*
X4159881Y-14210238D01*
X4169405Y-14191190D01*
X4178928Y-14181667D01*
X4197976Y-14172143D01*
X4226548Y-14172143D01*
X4245595Y-14181667D01*
X4255119Y-14191190D01*
X4264643Y-14210238D01*
X4264643Y-14267381D01*
X4255119Y-14286428D01*
X4245595Y-14295952D01*
X4226548Y-14305476D01*
X4197976Y-14305476D01*
X4378929Y-14305476D02*
X4359881Y-14295952D01*
X4350357Y-14276905D01*
X4350357Y-14105476D01*
X4531310Y-14295952D02*
X4512262Y-14305476D01*
X4474167Y-14305476D01*
X4455119Y-14295952D01*
X4445595Y-14276905D01*
X4445595Y-14200714D01*
X4455119Y-14181667D01*
X4474167Y-14172143D01*
X4512262Y-14172143D01*
X4531310Y-14181667D01*
X4540833Y-14200714D01*
X4540833Y-14219762D01*
X4445595Y-14238809D01*
X4617024Y-14295952D02*
X4636071Y-14305476D01*
X4674167Y-14305476D01*
X4693214Y-14295952D01*
X4702738Y-14276905D01*
X4702738Y-14267381D01*
X4693214Y-14248333D01*
X4674167Y-14238809D01*
X4645595Y-14238809D01*
X4626548Y-14229286D01*
X4617024Y-14210238D01*
X4617024Y-14200714D01*
X4626548Y-14181667D01*
X4645595Y-14172143D01*
X4674167Y-14172143D01*
X4693214Y-14181667D01*
X4940833Y-14229286D02*
X5093214Y-14229286D01*
X5017024Y-14305476D02*
X5017024Y-14153095D01*
X5321786Y-14105476D02*
X5445595Y-14105476D01*
X5378929Y-14181667D01*
X5407500Y-14181667D01*
X5426548Y-14191190D01*
X5436071Y-14200714D01*
X5445595Y-14219762D01*
X5445595Y-14267381D01*
X5436071Y-14286428D01*
X5426548Y-14295952D01*
X5407500Y-14305476D01*
X5350357Y-14305476D01*
X5331310Y-14295952D01*
X5321786Y-14286428D01*
X5674167Y-14295952D02*
X5693214Y-14305476D01*
X5731309Y-14305476D01*
X5750357Y-14295952D01*
X5759881Y-14276905D01*
X5759881Y-14267381D01*
X5750357Y-14248333D01*
X5731309Y-14238809D01*
X5702738Y-14238809D01*
X5683690Y-14229286D01*
X5674167Y-14210238D01*
X5674167Y-14200714D01*
X5683690Y-14181667D01*
X5702738Y-14172143D01*
X5731309Y-14172143D01*
X5750357Y-14181667D01*
X5874167Y-14305476D02*
X5855119Y-14295952D01*
X5845595Y-14276905D01*
X5845595Y-14105476D01*
X5978928Y-14305476D02*
X5959881Y-14295952D01*
X5950357Y-14286428D01*
X5940833Y-14267381D01*
X5940833Y-14210238D01*
X5950357Y-14191190D01*
X5959881Y-14181667D01*
X5978928Y-14172143D01*
X6007500Y-14172143D01*
X6026548Y-14181667D01*
X6036071Y-14191190D01*
X6045595Y-14210238D01*
X6045595Y-14267381D01*
X6036071Y-14286428D01*
X6026548Y-14295952D01*
X6007500Y-14305476D01*
X5978928Y-14305476D01*
X6102738Y-14172143D02*
X6178928Y-14172143D01*
X6131309Y-14105476D02*
X6131309Y-14276905D01*
X6140833Y-14295952D01*
X6159881Y-14305476D01*
X6178928Y-14305476D01*
X6236071Y-14295952D02*
X6255119Y-14305476D01*
X6293214Y-14305476D01*
X6312262Y-14295952D01*
X6321786Y-14276905D01*
X6321786Y-14267381D01*
X6312262Y-14248333D01*
X6293214Y-14238809D01*
X6264643Y-14238809D01*
X6245595Y-14229286D01*
X6236071Y-14210238D01*
X6236071Y-14200714D01*
X6245595Y-14181667D01*
X6264643Y-14172143D01*
X6293214Y-14172143D01*
X6312262Y-14181667D01*
X6388452Y-14381667D02*
X6397976Y-14372143D01*
X6417024Y-14343571D01*
X6426548Y-14324524D01*
X6436071Y-14295952D01*
X6445595Y-14248333D01*
X6445595Y-14210238D01*
X6436071Y-14162619D01*
X6426548Y-14134048D01*
X6417024Y-14115000D01*
X6397976Y-14086428D01*
X6388452Y-14076905D01*
M02*
