M48
; DRILL file {KiCad (6.0.9)} date Thu 24 Nov 2022 01:14:05 PM
; FORMAT={-:-/ absolute / metric / decimal}
; #@! TF.CreationDate,2022-11-24T13:14:05-08:00
; #@! TF.GenerationSoftware,Kicad,Pcbnew,(6.0.9)
; #@! TF.FileFunction,Plated,1,2,PTH
FMAT,2
METRIC
; #@! TA.AperFunction,Plated,PTH,ViaDrill
T1C0.400
; #@! TA.AperFunction,Plated,PTH,ComponentDrill
T2C0.900
; #@! TA.AperFunction,Plated,PTH,ComponentDrill
T3C1.000
; #@! TA.AperFunction,Plated,PTH,ComponentDrill
T4C1.100
; #@! TA.AperFunction,Plated,PTH,ComponentDrill
T5C1.200
; #@! TA.AperFunction,Plated,PTH,ComponentDrill
T6C1.300
; #@! TA.AperFunction,Plated,PTH,ComponentDrill
T7C1.400
%
G90
G05
T1
X0.625Y-83.693
X0.625Y-31.686
X0.889Y-10.795
X0.889Y-13.97
X0.889Y-17.145
X0.889Y-20.32
X0.889Y-23.495
X0.889Y-26.67
X0.889Y-29.845
X0.889Y-94.615
X0.889Y-97.853
X0.889Y-100.965
X0.889Y-108.585
X0.889Y-111.76
X0.889Y-119.062
X1.397Y-76.263
X1.841Y-87.63
X2.286Y-52.578
X2.54Y-61.15
X2.54Y-68.516
X2.591Y-74.676
X2.603Y-56.578
X2.603Y-82.296
X2.794Y-39.751
X2.794Y-45.085
X2.857Y-48.197
X3.048Y-32.385
X3.048Y-50.165
X3.238Y-85.28
X3.254Y-46.672
X4.0Y-10.795
X4.064Y-119.062
X4.255Y-64.389
X4.763Y-82.677
X5.334Y-36.131
X5.339Y-81.084
X5.436Y-93.447
X5.842Y-46.672
X5.932Y-88.432
X5.944Y-72.441
X6.223Y-54.292
X6.223Y-56.007
X6.413Y-51.435
X6.858Y-85.026
X6.921Y-83.693
X7.239Y-119.062
X7.429Y-10.795
X7.81Y-95.377
X8.064Y-91.757
X8.128Y-57.023
X8.191Y-69.723
X8.319Y-52.324
X8.572Y-29.146
X8.572Y-36.131
X8.699Y-87.757
X9.779Y-119.062
X9.842Y-94.297
X9.97Y-51.708
X10.351Y-108.966
X10.731Y-87.757
X10.795Y-10.795
X10.795Y-85.979
X10.858Y-43.307
X11.049Y-98.476
X11.239Y-100.33
X11.747Y-72.072
X11.874Y-64.516
X12.141Y-82.956
X12.152Y-46.868
X12.249Y-43.948
X12.878Y-26.06
X13.018Y-57.848
X13.272Y-54.229
X13.525Y-63.526
X13.589Y-99.251
X13.589Y-100.33
X13.716Y-91.757
X13.97Y-10.795
X13.985Y-77.902
X14.351Y-53.149
X14.414Y-94.297
X14.585Y-74.489
X14.603Y-72.384
X15.05Y-92.202
X15.113Y-101.981
X15.138Y-46.355
X15.189Y-43.952
X15.52Y-73.483
X15.606Y-63.925
X16.002Y-110.68
X16.192Y-89.725
X16.307Y-63.119
X16.447Y-81.343
X16.459Y-76.606
X16.764Y-55.88
X16.764Y-57.848
X16.815Y-50.343
X16.932Y-73.329
X16.993Y-60.223
X17.145Y-10.795
X17.17Y-30.988
X17.196Y-72.365
X17.443Y-44.048
X17.663Y-55.444
X17.78Y-51.88
X17.795Y-63.892
X18.059Y-27.0
X18.161Y-17.907
X18.161Y-20.32
X18.338Y-48.337
X18.415Y-62.166
X18.618Y-52.934
X18.758Y-67.447
X19.101Y-64.16
X19.154Y-57.356
X19.571Y-66.865
X19.738Y-62.791
X19.761Y-22.885
X20.015Y-51.765
X20.13Y-108.186
X20.193Y-10.795
X20.193Y-119.062
X20.511Y-89.281
X21.146Y-46.355
X21.209Y-78.613
X21.272Y-107.315
X21.272Y-110.998
X21.438Y-76.556
X21.539Y-74.574
X22.034Y-63.754
X22.25Y-71.78
X22.415Y-108.14
X22.479Y-102.044
X22.987Y-86.716
X23.012Y-23.851
X23.304Y-109.537
X23.368Y-10.795
X23.368Y-119.062
X23.419Y-108.229
X23.864Y-92.116
X23.927Y-81.051
X24.028Y-33.299
X24.74Y-23.825
X25.37Y-38.332
X25.451Y-26.035
X25.654Y-59.69
X26.035Y-66.827
X26.162Y-46.101
X26.162Y-49.276
X26.226Y-101.155
X26.352Y-65.722
X26.543Y-10.795
X26.543Y-15.875
X26.543Y-45.021
X26.543Y-119.062
X26.6Y-100.155
X27.0Y-26.949
X27.051Y-66.802
X27.219Y-49.277
X27.737Y-34.163
X27.819Y-68.612
X28.445Y-100.948
X28.448Y-109.537
X28.461Y-101.948
X29.718Y-10.795
X29.718Y-15.875
X29.718Y-34.925
X29.718Y-38.735
X29.718Y-48.26
X29.718Y-52.07
X29.718Y-63.5
X29.718Y-67.31
X29.718Y-74.358
X29.718Y-77.47
X29.718Y-80.709
X29.718Y-86.805
X29.718Y-90.805
X29.718Y-97.79
X29.718Y-100.965
X29.718Y-108.585
X29.718Y-111.76
X29.718Y-119.062
T2
X13.97Y-87.189
X13.97Y-97.369
X13.97Y-107.549
X13.97Y-117.729
X15.24Y-29.21
X15.24Y-31.75
X15.24Y-55.575
X15.24Y-58.115
X16.51Y-87.189
X16.51Y-97.369
X16.51Y-107.549
X16.51Y-117.729
X25.354Y-19.431
X27.894Y-19.431
T3
X3.556Y-15.367
X3.556Y-17.907
X3.556Y-20.447
X3.556Y-22.987
X3.556Y-25.527
X3.85Y-97.46
X6.096Y-15.367
X6.096Y-17.907
X6.096Y-20.447
X6.096Y-22.987
X6.096Y-25.527
X6.35Y-97.46
X6.39Y-49.86
X6.39Y-77.89
X8.85Y-97.46
X8.89Y-49.86
X8.89Y-77.89
X11.39Y-49.86
X11.39Y-77.89
X12.74Y-23.06
X15.24Y-23.06
X17.74Y-23.06
X21.604Y-37.48
X24.104Y-37.48
X26.604Y-37.48
T5
X1.43Y-104.9
X1.43Y-115.08
X9.73Y-104.9
X9.73Y-115.08
X12.83Y-104.9
X12.83Y-115.08
X17.64Y-42.36
X17.64Y-70.39
X17.64Y-84.54
X17.64Y-94.72
X17.64Y-104.9
X17.64Y-115.08
X20.74Y-42.36
X20.74Y-70.39
X20.74Y-84.54
X20.74Y-94.72
X20.74Y-104.9
X20.74Y-115.08
X24.12Y-50.37
X24.12Y-53.47
X24.12Y-61.77
X29.04Y-42.36
X29.04Y-70.39
X29.04Y-84.54
X29.04Y-94.72
X29.04Y-104.9
X29.04Y-115.08
T4
X1.55Y-90.81G85X1.55Y-90.11
G05
X11.15Y-90.81G85X11.15Y-90.11
G05
X19.304Y-30.83G85X19.304Y-30.13
G05
X28.904Y-30.83G85X28.904Y-30.13
G05
T6
X13.69Y-42.76G85X13.69Y-41.96
G05
X13.69Y-70.79G85X13.69Y-69.99
G05
X20.04Y-15.96G85X20.04Y-15.16
G05
T7
X4.09Y-42.71G85X4.09Y-42.01
G05
X4.09Y-70.74G85X4.09Y-70.04
G05
X10.44Y-15.91G85X10.44Y-15.21
G05
T0
M30
