G04 #@! TF.GenerationSoftware,KiCad,Pcbnew,(5.1.5)-3*
G04 #@! TF.CreationDate,2020-07-23T18:35:05-07:00*
G04 #@! TF.ProjectId,vcf-20,7663662d-3230-42e6-9b69-6361645f7063,rev?*
G04 #@! TF.SameCoordinates,Original*
G04 #@! TF.FileFunction,Legend,Top*
G04 #@! TF.FilePolarity,Positive*
%FSLAX46Y46*%
G04 Gerber Fmt 4.6, Leading zero omitted, Abs format (unit mm)*
G04 Created by KiCad (PCBNEW (5.1.5)-3) date 2020-07-23 18:35:05*
%MOMM*%
%LPD*%
G04 APERTURE LIST*
%ADD10C,0.120000*%
%ADD11C,0.200000*%
%ADD12C,0.100000*%
G04 APERTURE END LIST*
D10*
X16281130Y-108628837D02*
G75*
G02X14199039Y-108629000I-1041130J1079837D01*
G01*
X16281130Y-106469163D02*
G75*
G03X14199039Y-106469000I-1041130J-1079837D01*
G01*
X16912335Y-108627608D02*
G75*
G02X13680000Y-108784516I-1672335J1078608D01*
G01*
X16912335Y-106470392D02*
G75*
G03X13680000Y-106313484I-1672335J-1078608D01*
G01*
X13680000Y-108629000D02*
X13680000Y-108785000D01*
X13680000Y-106313000D02*
X13680000Y-106469000D01*
D11*
X17740000Y-112880000D02*
G75*
G02X17740000Y-112780000I0J50000D01*
G01*
X17740000Y-112780000D02*
G75*
G02X17740000Y-112880000I0J-50000D01*
G01*
X17740000Y-112880000D02*
G75*
G02X17740000Y-112780000I0J50000D01*
G01*
X17740000Y-112780000D02*
X17740000Y-112780000D01*
X17740000Y-112880000D02*
X17740000Y-112880000D01*
X17740000Y-112780000D02*
X17740000Y-112780000D01*
D12*
X30120000Y-119580000D02*
X30120000Y-119580000D01*
X30120000Y-116580000D02*
X30120000Y-119580000D01*
X30120000Y-116580000D02*
X30120000Y-116580000D01*
X30120000Y-119580000D02*
X30120000Y-116580000D01*
X30120000Y-119580000D02*
X19620000Y-119580000D01*
X30120000Y-119580000D02*
X30120000Y-119580000D01*
X19620000Y-119580000D02*
X30120000Y-119580000D01*
X19620000Y-119580000D02*
X19620000Y-119580000D01*
X19640000Y-116830000D02*
X19640000Y-116830000D01*
X19640000Y-119580000D02*
X19640000Y-116830000D01*
X19640000Y-119580000D02*
X19640000Y-119580000D01*
X19640000Y-116830000D02*
X19640000Y-119580000D01*
X19620000Y-110580000D02*
X19620000Y-110580000D01*
X19620000Y-113330000D02*
X19620000Y-110580000D01*
X19620000Y-113330000D02*
X19620000Y-113330000D01*
X19620000Y-110580000D02*
X19620000Y-113330000D01*
X19620000Y-110580000D02*
X30120000Y-110580000D01*
X19620000Y-110580000D02*
X19620000Y-110580000D01*
X30120000Y-110580000D02*
X19620000Y-110580000D01*
X30120000Y-110580000D02*
X30120000Y-110580000D01*
X30120000Y-113580000D02*
X30120000Y-113580000D01*
X30120000Y-110580000D02*
X30120000Y-113580000D01*
X30120000Y-110580000D02*
X30120000Y-110580000D01*
X30120000Y-113580000D02*
X30120000Y-110580000D01*
D10*
X10550000Y-77010400D02*
X9720000Y-77010400D01*
X8100000Y-77010400D02*
X7570000Y-77010400D01*
X5200000Y-77010400D02*
X4020000Y-77010400D01*
X13760000Y-77010400D02*
X13760000Y-72290400D01*
X4020000Y-68480400D02*
X4020000Y-65420400D01*
X4010000Y-77010400D02*
X4010000Y-72290400D01*
X13760000Y-68480400D02*
X13760000Y-65420400D01*
X13760000Y-77010400D02*
X12270000Y-77010400D01*
X13760000Y-65420400D02*
X4020000Y-65420400D01*
D11*
X12730000Y-107100000D02*
G75*
G02X12730000Y-107200000I0J-50000D01*
G01*
X12730000Y-107200000D02*
G75*
G02X12730000Y-107100000I0J50000D01*
G01*
X12730000Y-107100000D02*
G75*
G02X12730000Y-107200000I0J-50000D01*
G01*
X12730000Y-107200000D02*
X12730000Y-107200000D01*
X12730000Y-107100000D02*
X12730000Y-107100000D01*
X12730000Y-107200000D02*
X12730000Y-107200000D01*
D12*
X350000Y-100400000D02*
X350000Y-100400000D01*
X350000Y-103400000D02*
X350000Y-100400000D01*
X350000Y-103400000D02*
X350000Y-103400000D01*
X350000Y-100400000D02*
X350000Y-103400000D01*
X350000Y-100400000D02*
X10850000Y-100400000D01*
X350000Y-100400000D02*
X350000Y-100400000D01*
X10850000Y-100400000D02*
X350000Y-100400000D01*
X10850000Y-100400000D02*
X10850000Y-100400000D01*
X10830000Y-103150000D02*
X10830000Y-103150000D01*
X10830000Y-100400000D02*
X10830000Y-103150000D01*
X10830000Y-100400000D02*
X10830000Y-100400000D01*
X10830000Y-103150000D02*
X10830000Y-100400000D01*
X10850000Y-109400000D02*
X10850000Y-109400000D01*
X10850000Y-106650000D02*
X10850000Y-109400000D01*
X10850000Y-106650000D02*
X10850000Y-106650000D01*
X10850000Y-109400000D02*
X10850000Y-106650000D01*
X10850000Y-109400000D02*
X350000Y-109400000D01*
X10850000Y-109400000D02*
X10850000Y-109400000D01*
X350000Y-109400000D02*
X10850000Y-109400000D01*
X350000Y-109400000D02*
X350000Y-109400000D01*
X350000Y-106400000D02*
X350000Y-106400000D01*
X350000Y-109400000D02*
X350000Y-106400000D01*
X350000Y-109400000D02*
X350000Y-109400000D01*
X350000Y-106400000D02*
X350000Y-109400000D01*
D11*
X26320000Y-50470000D02*
G75*
G02X26420000Y-50470000I50000J0D01*
G01*
X26420000Y-50470000D02*
G75*
G02X26320000Y-50470000I-50000J0D01*
G01*
X26320000Y-50470000D02*
G75*
G02X26420000Y-50470000I50000J0D01*
G01*
X26420000Y-50470000D02*
X26420000Y-50470000D01*
X26320000Y-50470000D02*
X26320000Y-50470000D01*
X26420000Y-50470000D02*
X26420000Y-50470000D01*
D12*
X19620000Y-62850000D02*
X19620000Y-62850000D01*
X22620000Y-62850000D02*
X19620000Y-62850000D01*
X22620000Y-62850000D02*
X22620000Y-62850000D01*
X19620000Y-62850000D02*
X22620000Y-62850000D01*
X19620000Y-62850000D02*
X19620000Y-52350000D01*
X19620000Y-62850000D02*
X19620000Y-62850000D01*
X19620000Y-52350000D02*
X19620000Y-62850000D01*
X19620000Y-52350000D02*
X19620000Y-52350000D01*
X22370000Y-52370000D02*
X22370000Y-52370000D01*
X19620000Y-52370000D02*
X22370000Y-52370000D01*
X19620000Y-52370000D02*
X19620000Y-52370000D01*
X22370000Y-52370000D02*
X19620000Y-52370000D01*
X28620000Y-52350000D02*
X28620000Y-52350000D01*
X25870000Y-52350000D02*
X28620000Y-52350000D01*
X25870000Y-52350000D02*
X25870000Y-52350000D01*
X28620000Y-52350000D02*
X25870000Y-52350000D01*
X28620000Y-52350000D02*
X28620000Y-62850000D01*
X28620000Y-52350000D02*
X28620000Y-52350000D01*
X28620000Y-62850000D02*
X28620000Y-52350000D01*
X28620000Y-62850000D02*
X28620000Y-62850000D01*
X25620000Y-62850000D02*
X25620000Y-62850000D01*
X28620000Y-62850000D02*
X25620000Y-62850000D01*
X28620000Y-62850000D02*
X28620000Y-62850000D01*
X25620000Y-62850000D02*
X28620000Y-62850000D01*
D10*
X10550000Y-48980000D02*
X9720000Y-48980000D01*
X8100000Y-48980000D02*
X7570000Y-48980000D01*
X5200000Y-48980000D02*
X4020000Y-48980000D01*
X13760000Y-48980000D02*
X13760000Y-44260000D01*
X4020000Y-40450000D02*
X4020000Y-37390000D01*
X4010000Y-48980000D02*
X4010000Y-44260000D01*
X13760000Y-40450000D02*
X13760000Y-37390000D01*
X13760000Y-48980000D02*
X12270000Y-48980000D01*
X13760000Y-37390000D02*
X4020000Y-37390000D01*
X14160163Y-57886330D02*
G75*
G02X14160000Y-55804239I1079837J1041130D01*
G01*
X16319837Y-57886330D02*
G75*
G03X16320000Y-55804239I-1079837J1041130D01*
G01*
X14161392Y-58517535D02*
G75*
G02X14004484Y-55285200I1078608J1672335D01*
G01*
X16318608Y-58517535D02*
G75*
G03X16475516Y-55285200I-1078608J1672335D01*
G01*
X14160000Y-55285200D02*
X14004000Y-55285200D01*
X16476000Y-55285200D02*
X16320000Y-55285200D01*
X16281130Y-118808837D02*
G75*
G02X14199039Y-118809000I-1041130J1079837D01*
G01*
X16281130Y-116649163D02*
G75*
G03X14199039Y-116649000I-1041130J-1079837D01*
G01*
X16912335Y-118807608D02*
G75*
G02X13680000Y-118964516I-1672335J1078608D01*
G01*
X16912335Y-116650392D02*
G75*
G03X13680000Y-116493484I-1672335J-1078608D01*
G01*
X13680000Y-118809000D02*
X13680000Y-118965000D01*
X13680000Y-116493000D02*
X13680000Y-116649000D01*
X16281130Y-98448837D02*
G75*
G02X14199039Y-98449000I-1041130J1079837D01*
G01*
X16281130Y-96289163D02*
G75*
G03X14199039Y-96289000I-1041130J-1079837D01*
G01*
X16912335Y-98447608D02*
G75*
G02X13680000Y-98604516I-1672335J1078608D01*
G01*
X16912335Y-96290392D02*
G75*
G03X13680000Y-96133484I-1672335J-1078608D01*
G01*
X13680000Y-98449000D02*
X13680000Y-98605000D01*
X13680000Y-96133000D02*
X13680000Y-96289000D01*
X16281130Y-88268837D02*
G75*
G02X14199039Y-88269000I-1041130J1079837D01*
G01*
X16281130Y-86109163D02*
G75*
G03X14199039Y-86109000I-1041130J-1079837D01*
G01*
X16912335Y-88267608D02*
G75*
G02X13680000Y-88424516I-1672335J1078608D01*
G01*
X16912335Y-86110392D02*
G75*
G03X13680000Y-85953484I-1672335J-1078608D01*
G01*
X13680000Y-88269000D02*
X13680000Y-88425000D01*
X13680000Y-85953000D02*
X13680000Y-86109000D01*
X14160000Y-28920000D02*
X14004000Y-28920000D01*
X16476000Y-28920000D02*
X16320000Y-28920000D01*
X14160163Y-31521130D02*
G75*
G02X14160000Y-29439039I1079837J1041130D01*
G01*
X16319837Y-31521130D02*
G75*
G03X16320000Y-29439039I-1079837J1041130D01*
G01*
X14161392Y-32152335D02*
G75*
G02X14004484Y-28920000I1078608J1672335D01*
G01*
X16318608Y-32152335D02*
G75*
G03X16475516Y-28920000I-1078608J1672335D01*
G01*
X22460000Y-24160000D02*
X23290000Y-24160000D01*
X24910000Y-24160000D02*
X25440000Y-24160000D01*
X27810000Y-24160000D02*
X28990000Y-24160000D01*
X19250000Y-24160000D02*
X19250000Y-28880000D01*
X28990000Y-32690000D02*
X28990000Y-35750000D01*
X29000000Y-24160000D02*
X29000000Y-28880000D01*
X19250000Y-32690000D02*
X19250000Y-35750000D01*
X19250000Y-24160000D02*
X20740000Y-24160000D01*
X19250000Y-35750000D02*
X28990000Y-35750000D01*
X16900000Y-22179800D02*
X16070000Y-22179800D01*
X14450000Y-22179800D02*
X13920000Y-22179800D01*
X11550000Y-22179800D02*
X10370000Y-22179800D01*
X20110000Y-22179800D02*
X20110000Y-17459800D01*
X10370000Y-13649800D02*
X10370000Y-10589800D01*
X10360000Y-22179800D02*
X10360000Y-17459800D01*
X20110000Y-13649800D02*
X20110000Y-10589800D01*
X20110000Y-22179800D02*
X18620000Y-22179800D01*
X20110000Y-10589800D02*
X10370000Y-10589800D01*
X8010000Y-96580000D02*
X7180000Y-96580000D01*
X5560000Y-96580000D02*
X5030000Y-96580000D01*
X2660000Y-96580000D02*
X1480000Y-96580000D01*
X11220000Y-96580000D02*
X11220000Y-91860000D01*
X1480000Y-88050000D02*
X1480000Y-84990000D01*
X1470000Y-96580000D02*
X1470000Y-91860000D01*
X11220000Y-88050000D02*
X11220000Y-84990000D01*
X11220000Y-96580000D02*
X9730000Y-96580000D01*
X11220000Y-84990000D02*
X1480000Y-84990000D01*
D11*
X17740000Y-68190000D02*
G75*
G02X17740000Y-68090000I0J50000D01*
G01*
X17740000Y-68090000D02*
G75*
G02X17740000Y-68190000I0J-50000D01*
G01*
X17740000Y-68190000D02*
G75*
G02X17740000Y-68090000I0J50000D01*
G01*
X17740000Y-68090000D02*
X17740000Y-68090000D01*
X17740000Y-68190000D02*
X17740000Y-68190000D01*
X17740000Y-68090000D02*
X17740000Y-68090000D01*
D12*
X30120000Y-74890000D02*
X30120000Y-74890000D01*
X30120000Y-71890000D02*
X30120000Y-74890000D01*
X30120000Y-71890000D02*
X30120000Y-71890000D01*
X30120000Y-74890000D02*
X30120000Y-71890000D01*
X30120000Y-74890000D02*
X19620000Y-74890000D01*
X30120000Y-74890000D02*
X30120000Y-74890000D01*
X19620000Y-74890000D02*
X30120000Y-74890000D01*
X19620000Y-74890000D02*
X19620000Y-74890000D01*
X19640000Y-72140000D02*
X19640000Y-72140000D01*
X19640000Y-74890000D02*
X19640000Y-72140000D01*
X19640000Y-74890000D02*
X19640000Y-74890000D01*
X19640000Y-72140000D02*
X19640000Y-74890000D01*
X19620000Y-65890000D02*
X19620000Y-65890000D01*
X19620000Y-68640000D02*
X19620000Y-65890000D01*
X19620000Y-68640000D02*
X19620000Y-68640000D01*
X19620000Y-65890000D02*
X19620000Y-68640000D01*
X19620000Y-65890000D02*
X30120000Y-65890000D01*
X19620000Y-65890000D02*
X19620000Y-65890000D01*
X30120000Y-65890000D02*
X19620000Y-65890000D01*
X30120000Y-65890000D02*
X30120000Y-65890000D01*
X30120000Y-68890000D02*
X30120000Y-68890000D01*
X30120000Y-65890000D02*
X30120000Y-68890000D01*
X30120000Y-65890000D02*
X30120000Y-65890000D01*
X30120000Y-68890000D02*
X30120000Y-65890000D01*
D11*
X17740000Y-40160000D02*
G75*
G02X17740000Y-40060000I0J50000D01*
G01*
X17740000Y-40060000D02*
G75*
G02X17740000Y-40160000I0J-50000D01*
G01*
X17740000Y-40160000D02*
G75*
G02X17740000Y-40060000I0J50000D01*
G01*
X17740000Y-40060000D02*
X17740000Y-40060000D01*
X17740000Y-40160000D02*
X17740000Y-40160000D01*
X17740000Y-40060000D02*
X17740000Y-40060000D01*
D12*
X30120000Y-46860000D02*
X30120000Y-46860000D01*
X30120000Y-43860000D02*
X30120000Y-46860000D01*
X30120000Y-43860000D02*
X30120000Y-43860000D01*
X30120000Y-46860000D02*
X30120000Y-43860000D01*
X30120000Y-46860000D02*
X19620000Y-46860000D01*
X30120000Y-46860000D02*
X30120000Y-46860000D01*
X19620000Y-46860000D02*
X30120000Y-46860000D01*
X19620000Y-46860000D02*
X19620000Y-46860000D01*
X19640000Y-44110000D02*
X19640000Y-44110000D01*
X19640000Y-46860000D02*
X19640000Y-44110000D01*
X19640000Y-46860000D02*
X19640000Y-46860000D01*
X19640000Y-44110000D02*
X19640000Y-46860000D01*
X19620000Y-37860000D02*
X19620000Y-37860000D01*
X19620000Y-40610000D02*
X19620000Y-37860000D01*
X19620000Y-40610000D02*
X19620000Y-40610000D01*
X19620000Y-37860000D02*
X19620000Y-40610000D01*
X19620000Y-37860000D02*
X30120000Y-37860000D01*
X19620000Y-37860000D02*
X19620000Y-37860000D01*
X30120000Y-37860000D02*
X19620000Y-37860000D01*
X30120000Y-37860000D02*
X30120000Y-37860000D01*
X30120000Y-40860000D02*
X30120000Y-40860000D01*
X30120000Y-37860000D02*
X30120000Y-40860000D01*
X30120000Y-37860000D02*
X30120000Y-37860000D01*
X30120000Y-40860000D02*
X30120000Y-37860000D01*
D11*
X17740000Y-102700000D02*
G75*
G02X17740000Y-102600000I0J50000D01*
G01*
X17740000Y-102600000D02*
G75*
G02X17740000Y-102700000I0J-50000D01*
G01*
X17740000Y-102700000D02*
G75*
G02X17740000Y-102600000I0J50000D01*
G01*
X17740000Y-102600000D02*
X17740000Y-102600000D01*
X17740000Y-102700000D02*
X17740000Y-102700000D01*
X17740000Y-102600000D02*
X17740000Y-102600000D01*
D12*
X30120000Y-109400000D02*
X30120000Y-109400000D01*
X30120000Y-106400000D02*
X30120000Y-109400000D01*
X30120000Y-106400000D02*
X30120000Y-106400000D01*
X30120000Y-109400000D02*
X30120000Y-106400000D01*
X30120000Y-109400000D02*
X19620000Y-109400000D01*
X30120000Y-109400000D02*
X30120000Y-109400000D01*
X19620000Y-109400000D02*
X30120000Y-109400000D01*
X19620000Y-109400000D02*
X19620000Y-109400000D01*
X19640000Y-106650000D02*
X19640000Y-106650000D01*
X19640000Y-109400000D02*
X19640000Y-106650000D01*
X19640000Y-109400000D02*
X19640000Y-109400000D01*
X19640000Y-106650000D02*
X19640000Y-109400000D01*
X19620000Y-100400000D02*
X19620000Y-100400000D01*
X19620000Y-103150000D02*
X19620000Y-100400000D01*
X19620000Y-103150000D02*
X19620000Y-103150000D01*
X19620000Y-100400000D02*
X19620000Y-103150000D01*
X19620000Y-100400000D02*
X30120000Y-100400000D01*
X19620000Y-100400000D02*
X19620000Y-100400000D01*
X30120000Y-100400000D02*
X19620000Y-100400000D01*
X30120000Y-100400000D02*
X30120000Y-100400000D01*
X30120000Y-103400000D02*
X30120000Y-103400000D01*
X30120000Y-100400000D02*
X30120000Y-103400000D01*
X30120000Y-100400000D02*
X30120000Y-100400000D01*
X30120000Y-103400000D02*
X30120000Y-100400000D01*
D11*
X17740000Y-92520000D02*
G75*
G02X17740000Y-92420000I0J50000D01*
G01*
X17740000Y-92420000D02*
G75*
G02X17740000Y-92520000I0J-50000D01*
G01*
X17740000Y-92520000D02*
G75*
G02X17740000Y-92420000I0J50000D01*
G01*
X17740000Y-92420000D02*
X17740000Y-92420000D01*
X17740000Y-92520000D02*
X17740000Y-92520000D01*
X17740000Y-92420000D02*
X17740000Y-92420000D01*
D12*
X30120000Y-99220000D02*
X30120000Y-99220000D01*
X30120000Y-96220000D02*
X30120000Y-99220000D01*
X30120000Y-96220000D02*
X30120000Y-96220000D01*
X30120000Y-99220000D02*
X30120000Y-96220000D01*
X30120000Y-99220000D02*
X19620000Y-99220000D01*
X30120000Y-99220000D02*
X30120000Y-99220000D01*
X19620000Y-99220000D02*
X30120000Y-99220000D01*
X19620000Y-99220000D02*
X19620000Y-99220000D01*
X19640000Y-96470000D02*
X19640000Y-96470000D01*
X19640000Y-99220000D02*
X19640000Y-96470000D01*
X19640000Y-99220000D02*
X19640000Y-99220000D01*
X19640000Y-96470000D02*
X19640000Y-99220000D01*
X19620000Y-90220000D02*
X19620000Y-90220000D01*
X19620000Y-92970000D02*
X19620000Y-90220000D01*
X19620000Y-92970000D02*
X19620000Y-92970000D01*
X19620000Y-90220000D02*
X19620000Y-92970000D01*
X19620000Y-90220000D02*
X30120000Y-90220000D01*
X19620000Y-90220000D02*
X19620000Y-90220000D01*
X30120000Y-90220000D02*
X19620000Y-90220000D01*
X30120000Y-90220000D02*
X30120000Y-90220000D01*
X30120000Y-93220000D02*
X30120000Y-93220000D01*
X30120000Y-90220000D02*
X30120000Y-93220000D01*
X30120000Y-90220000D02*
X30120000Y-90220000D01*
X30120000Y-93220000D02*
X30120000Y-90220000D01*
D11*
X12730000Y-117280000D02*
G75*
G02X12730000Y-117380000I0J-50000D01*
G01*
X12730000Y-117380000D02*
G75*
G02X12730000Y-117280000I0J50000D01*
G01*
X12730000Y-117280000D02*
G75*
G02X12730000Y-117380000I0J-50000D01*
G01*
X12730000Y-117380000D02*
X12730000Y-117380000D01*
X12730000Y-117280000D02*
X12730000Y-117280000D01*
X12730000Y-117380000D02*
X12730000Y-117380000D01*
D12*
X350000Y-110580000D02*
X350000Y-110580000D01*
X350000Y-113580000D02*
X350000Y-110580000D01*
X350000Y-113580000D02*
X350000Y-113580000D01*
X350000Y-110580000D02*
X350000Y-113580000D01*
X350000Y-110580000D02*
X10850000Y-110580000D01*
X350000Y-110580000D02*
X350000Y-110580000D01*
X10850000Y-110580000D02*
X350000Y-110580000D01*
X10850000Y-110580000D02*
X10850000Y-110580000D01*
X10830000Y-113330000D02*
X10830000Y-113330000D01*
X10830000Y-110580000D02*
X10830000Y-113330000D01*
X10830000Y-110580000D02*
X10830000Y-110580000D01*
X10830000Y-113330000D02*
X10830000Y-110580000D01*
X10850000Y-119580000D02*
X10850000Y-119580000D01*
X10850000Y-116830000D02*
X10850000Y-119580000D01*
X10850000Y-116830000D02*
X10850000Y-116830000D01*
X10850000Y-119580000D02*
X10850000Y-116830000D01*
X10850000Y-119580000D02*
X350000Y-119580000D01*
X10850000Y-119580000D02*
X10850000Y-119580000D01*
X350000Y-119580000D02*
X10850000Y-119580000D01*
X350000Y-119580000D02*
X350000Y-119580000D01*
X350000Y-116580000D02*
X350000Y-116580000D01*
X350000Y-119580000D02*
X350000Y-116580000D01*
X350000Y-119580000D02*
X350000Y-119580000D01*
X350000Y-116580000D02*
X350000Y-119580000D01*
D11*
X17740000Y-82340000D02*
G75*
G02X17740000Y-82240000I0J50000D01*
G01*
X17740000Y-82240000D02*
G75*
G02X17740000Y-82340000I0J-50000D01*
G01*
X17740000Y-82340000D02*
G75*
G02X17740000Y-82240000I0J50000D01*
G01*
X17740000Y-82240000D02*
X17740000Y-82240000D01*
X17740000Y-82340000D02*
X17740000Y-82340000D01*
X17740000Y-82240000D02*
X17740000Y-82240000D01*
D12*
X30120000Y-89040000D02*
X30120000Y-89040000D01*
X30120000Y-86040000D02*
X30120000Y-89040000D01*
X30120000Y-86040000D02*
X30120000Y-86040000D01*
X30120000Y-89040000D02*
X30120000Y-86040000D01*
X30120000Y-89040000D02*
X19620000Y-89040000D01*
X30120000Y-89040000D02*
X30120000Y-89040000D01*
X19620000Y-89040000D02*
X30120000Y-89040000D01*
X19620000Y-89040000D02*
X19620000Y-89040000D01*
X19640000Y-86290000D02*
X19640000Y-86290000D01*
X19640000Y-89040000D02*
X19640000Y-86290000D01*
X19640000Y-89040000D02*
X19640000Y-89040000D01*
X19640000Y-86290000D02*
X19640000Y-89040000D01*
X19620000Y-80040000D02*
X19620000Y-80040000D01*
X19620000Y-82790000D02*
X19620000Y-80040000D01*
X19620000Y-82790000D02*
X19620000Y-82790000D01*
X19620000Y-80040000D02*
X19620000Y-82790000D01*
X19620000Y-80040000D02*
X30120000Y-80040000D01*
X19620000Y-80040000D02*
X19620000Y-80040000D01*
X30120000Y-80040000D02*
X19620000Y-80040000D01*
X30120000Y-80040000D02*
X30120000Y-80040000D01*
X30120000Y-83040000D02*
X30120000Y-83040000D01*
X30120000Y-80040000D02*
X30120000Y-83040000D01*
X30120000Y-80040000D02*
X30120000Y-80040000D01*
X30120000Y-83040000D02*
X30120000Y-80040000D01*
X14723333Y-110679666D02*
X14723333Y-109979666D01*
X14890000Y-109979666D01*
X14990000Y-110013000D01*
X15056666Y-110079666D01*
X15090000Y-110146333D01*
X15123333Y-110279666D01*
X15123333Y-110379666D01*
X15090000Y-110513000D01*
X15056666Y-110579666D01*
X14990000Y-110646333D01*
X14890000Y-110679666D01*
X14723333Y-110679666D01*
X15356666Y-109979666D02*
X15790000Y-109979666D01*
X15556666Y-110246333D01*
X15656666Y-110246333D01*
X15723333Y-110279666D01*
X15756666Y-110313000D01*
X15790000Y-110379666D01*
X15790000Y-110546333D01*
X15756666Y-110613000D01*
X15723333Y-110646333D01*
X15656666Y-110679666D01*
X15456666Y-110679666D01*
X15390000Y-110646333D01*
X15356666Y-110613000D01*
X18549666Y-112263666D02*
X18549666Y-112763666D01*
X18516333Y-112863666D01*
X18449666Y-112930333D01*
X18349666Y-112963666D01*
X18283000Y-112963666D01*
X18816333Y-112263666D02*
X19283000Y-112263666D01*
X18983000Y-112963666D01*
X3647333Y-78334066D02*
X3414000Y-78000733D01*
X3247333Y-78334066D02*
X3247333Y-77634066D01*
X3514000Y-77634066D01*
X3580666Y-77667400D01*
X3614000Y-77700733D01*
X3647333Y-77767400D01*
X3647333Y-77867400D01*
X3614000Y-77934066D01*
X3580666Y-77967400D01*
X3514000Y-78000733D01*
X3247333Y-78000733D01*
X3847333Y-77634066D02*
X4080666Y-78334066D01*
X4314000Y-77634066D01*
X4480666Y-77634066D02*
X4914000Y-77634066D01*
X4680666Y-77900733D01*
X4780666Y-77900733D01*
X4847333Y-77934066D01*
X4880666Y-77967400D01*
X4914000Y-78034066D01*
X4914000Y-78200733D01*
X4880666Y-78267400D01*
X4847333Y-78300733D01*
X4780666Y-78334066D01*
X4580666Y-78334066D01*
X4514000Y-78300733D01*
X4480666Y-78267400D01*
X11453666Y-101849666D02*
X11453666Y-102349666D01*
X11420333Y-102449666D01*
X11353666Y-102516333D01*
X11253666Y-102549666D01*
X11187000Y-102549666D01*
X11753666Y-101916333D02*
X11787000Y-101883000D01*
X11853666Y-101849666D01*
X12020333Y-101849666D01*
X12087000Y-101883000D01*
X12120333Y-101916333D01*
X12153666Y-101983000D01*
X12153666Y-102049666D01*
X12120333Y-102149666D01*
X11720333Y-102549666D01*
X12153666Y-102549666D01*
X27109333Y-50116666D02*
X27109333Y-50616666D01*
X27076000Y-50716666D01*
X27009333Y-50783333D01*
X26909333Y-50816666D01*
X26842666Y-50816666D01*
X27809333Y-50816666D02*
X27409333Y-50816666D01*
X27609333Y-50816666D02*
X27609333Y-50116666D01*
X27542666Y-50216666D01*
X27476000Y-50283333D01*
X27409333Y-50316666D01*
X28242666Y-50116666D02*
X28309333Y-50116666D01*
X28376000Y-50150000D01*
X28409333Y-50183333D01*
X28442666Y-50250000D01*
X28476000Y-50383333D01*
X28476000Y-50550000D01*
X28442666Y-50683333D01*
X28409333Y-50750000D01*
X28376000Y-50783333D01*
X28309333Y-50816666D01*
X28242666Y-50816666D01*
X28176000Y-50783333D01*
X28142666Y-50750000D01*
X28109333Y-50683333D01*
X28076000Y-50550000D01*
X28076000Y-50383333D01*
X28109333Y-50250000D01*
X28142666Y-50183333D01*
X28176000Y-50150000D01*
X28242666Y-50116666D01*
X13299333Y-50296666D02*
X13066000Y-49963333D01*
X12899333Y-50296666D02*
X12899333Y-49596666D01*
X13166000Y-49596666D01*
X13232666Y-49630000D01*
X13266000Y-49663333D01*
X13299333Y-49730000D01*
X13299333Y-49830000D01*
X13266000Y-49896666D01*
X13232666Y-49930000D01*
X13166000Y-49963333D01*
X12899333Y-49963333D01*
X13499333Y-49596666D02*
X13732666Y-50296666D01*
X13966000Y-49596666D01*
X14132666Y-49596666D02*
X14599333Y-49596666D01*
X14299333Y-50296666D01*
X14596333Y-54113866D02*
X14596333Y-53413866D01*
X14763000Y-53413866D01*
X14863000Y-53447200D01*
X14929666Y-53513866D01*
X14963000Y-53580533D01*
X14996333Y-53713866D01*
X14996333Y-53813866D01*
X14963000Y-53947200D01*
X14929666Y-54013866D01*
X14863000Y-54080533D01*
X14763000Y-54113866D01*
X14596333Y-54113866D01*
X15229666Y-53413866D02*
X15696333Y-53413866D01*
X15396333Y-54113866D01*
X12310333Y-119569666D02*
X12310333Y-118869666D01*
X12477000Y-118869666D01*
X12577000Y-118903000D01*
X12643666Y-118969666D01*
X12677000Y-119036333D01*
X12710333Y-119169666D01*
X12710333Y-119269666D01*
X12677000Y-119403000D01*
X12643666Y-119469666D01*
X12577000Y-119536333D01*
X12477000Y-119569666D01*
X12310333Y-119569666D01*
X13310333Y-119103000D02*
X13310333Y-119569666D01*
X13143666Y-118836333D02*
X12977000Y-119336333D01*
X13410333Y-119336333D01*
X14850333Y-100519666D02*
X14850333Y-99819666D01*
X15017000Y-99819666D01*
X15117000Y-99853000D01*
X15183666Y-99919666D01*
X15217000Y-99986333D01*
X15250333Y-100119666D01*
X15250333Y-100219666D01*
X15217000Y-100353000D01*
X15183666Y-100419666D01*
X15117000Y-100486333D01*
X15017000Y-100519666D01*
X14850333Y-100519666D01*
X15517000Y-99886333D02*
X15550333Y-99853000D01*
X15617000Y-99819666D01*
X15783666Y-99819666D01*
X15850333Y-99853000D01*
X15883666Y-99886333D01*
X15917000Y-99953000D01*
X15917000Y-100019666D01*
X15883666Y-100119666D01*
X15483666Y-100519666D01*
X15917000Y-100519666D01*
X14850333Y-90359666D02*
X14850333Y-89659666D01*
X15017000Y-89659666D01*
X15117000Y-89693000D01*
X15183666Y-89759666D01*
X15217000Y-89826333D01*
X15250333Y-89959666D01*
X15250333Y-90059666D01*
X15217000Y-90193000D01*
X15183666Y-90259666D01*
X15117000Y-90326333D01*
X15017000Y-90359666D01*
X14850333Y-90359666D01*
X15917000Y-90359666D02*
X15517000Y-90359666D01*
X15717000Y-90359666D02*
X15717000Y-89659666D01*
X15650333Y-89759666D01*
X15583666Y-89826333D01*
X15517000Y-89859666D01*
X14596333Y-28002666D02*
X14596333Y-27302666D01*
X14763000Y-27302666D01*
X14863000Y-27336000D01*
X14929666Y-27402666D01*
X14963000Y-27469333D01*
X14996333Y-27602666D01*
X14996333Y-27702666D01*
X14963000Y-27836000D01*
X14929666Y-27902666D01*
X14863000Y-27969333D01*
X14763000Y-28002666D01*
X14596333Y-28002666D01*
X15629666Y-27302666D02*
X15296333Y-27302666D01*
X15263000Y-27636000D01*
X15296333Y-27602666D01*
X15363000Y-27569333D01*
X15529666Y-27569333D01*
X15596333Y-27602666D01*
X15629666Y-27636000D01*
X15663000Y-27702666D01*
X15663000Y-27869333D01*
X15629666Y-27936000D01*
X15596333Y-27969333D01*
X15529666Y-28002666D01*
X15363000Y-28002666D01*
X15296333Y-27969333D01*
X15263000Y-27936000D01*
X28529333Y-23723666D02*
X28296000Y-23390333D01*
X28129333Y-23723666D02*
X28129333Y-23023666D01*
X28396000Y-23023666D01*
X28462666Y-23057000D01*
X28496000Y-23090333D01*
X28529333Y-23157000D01*
X28529333Y-23257000D01*
X28496000Y-23323666D01*
X28462666Y-23357000D01*
X28396000Y-23390333D01*
X28129333Y-23390333D01*
X28729333Y-23023666D02*
X28962666Y-23723666D01*
X29196000Y-23023666D01*
X29729333Y-23023666D02*
X29596000Y-23023666D01*
X29529333Y-23057000D01*
X29496000Y-23090333D01*
X29429333Y-23190333D01*
X29396000Y-23323666D01*
X29396000Y-23590333D01*
X29429333Y-23657000D01*
X29462666Y-23690333D01*
X29529333Y-23723666D01*
X29662666Y-23723666D01*
X29729333Y-23690333D01*
X29762666Y-23657000D01*
X29796000Y-23590333D01*
X29796000Y-23423666D01*
X29762666Y-23357000D01*
X29729333Y-23323666D01*
X29662666Y-23290333D01*
X29529333Y-23290333D01*
X29462666Y-23323666D01*
X29429333Y-23357000D01*
X29396000Y-23423666D01*
X10124333Y-23376466D02*
X9891000Y-23043133D01*
X9724333Y-23376466D02*
X9724333Y-22676466D01*
X9991000Y-22676466D01*
X10057666Y-22709800D01*
X10091000Y-22743133D01*
X10124333Y-22809800D01*
X10124333Y-22909800D01*
X10091000Y-22976466D01*
X10057666Y-23009800D01*
X9991000Y-23043133D01*
X9724333Y-23043133D01*
X10324333Y-22676466D02*
X10557666Y-23376466D01*
X10791000Y-22676466D01*
X11324333Y-22909800D02*
X11324333Y-23376466D01*
X11157666Y-22643133D02*
X10991000Y-23143133D01*
X11424333Y-23143133D01*
X1107333Y-97776666D02*
X874000Y-97443333D01*
X707333Y-97776666D02*
X707333Y-97076666D01*
X974000Y-97076666D01*
X1040666Y-97110000D01*
X1074000Y-97143333D01*
X1107333Y-97210000D01*
X1107333Y-97310000D01*
X1074000Y-97376666D01*
X1040666Y-97410000D01*
X974000Y-97443333D01*
X707333Y-97443333D01*
X1307333Y-97076666D02*
X1540666Y-97776666D01*
X1773999Y-97076666D01*
X2374000Y-97776666D02*
X1974000Y-97776666D01*
X2174000Y-97776666D02*
X2174000Y-97076666D01*
X2107333Y-97176666D01*
X2040666Y-97243333D01*
X1974000Y-97276666D01*
X18549666Y-67599666D02*
X18549666Y-68099666D01*
X18516333Y-68199666D01*
X18449666Y-68266333D01*
X18349666Y-68299666D01*
X18283000Y-68299666D01*
X18916333Y-68299666D02*
X19049666Y-68299666D01*
X19116333Y-68266333D01*
X19149666Y-68233000D01*
X19216333Y-68133000D01*
X19249666Y-67999666D01*
X19249666Y-67733000D01*
X19216333Y-67666333D01*
X19183000Y-67633000D01*
X19116333Y-67599666D01*
X18983000Y-67599666D01*
X18916333Y-67633000D01*
X18883000Y-67666333D01*
X18849666Y-67733000D01*
X18849666Y-67899666D01*
X18883000Y-67966333D01*
X18916333Y-67999666D01*
X18983000Y-68033000D01*
X19116333Y-68033000D01*
X19183000Y-67999666D01*
X19216333Y-67966333D01*
X19249666Y-67899666D01*
X18552666Y-39690666D02*
X18552666Y-40190666D01*
X18519333Y-40290666D01*
X18452666Y-40357333D01*
X18352666Y-40390666D01*
X18286000Y-40390666D01*
X18986000Y-39990666D02*
X18919333Y-39957333D01*
X18886000Y-39924000D01*
X18852666Y-39857333D01*
X18852666Y-39824000D01*
X18886000Y-39757333D01*
X18919333Y-39724000D01*
X18986000Y-39690666D01*
X19119333Y-39690666D01*
X19186000Y-39724000D01*
X19219333Y-39757333D01*
X19252666Y-39824000D01*
X19252666Y-39857333D01*
X19219333Y-39924000D01*
X19186000Y-39957333D01*
X19119333Y-39990666D01*
X18986000Y-39990666D01*
X18919333Y-40024000D01*
X18886000Y-40057333D01*
X18852666Y-40124000D01*
X18852666Y-40257333D01*
X18886000Y-40324000D01*
X18919333Y-40357333D01*
X18986000Y-40390666D01*
X19119333Y-40390666D01*
X19186000Y-40357333D01*
X19219333Y-40324000D01*
X19252666Y-40257333D01*
X19252666Y-40124000D01*
X19219333Y-40057333D01*
X19186000Y-40024000D01*
X19119333Y-39990666D01*
X18549666Y-101849666D02*
X18549666Y-102349666D01*
X18516333Y-102449666D01*
X18449666Y-102516333D01*
X18349666Y-102549666D01*
X18283000Y-102549666D01*
X19183000Y-101849666D02*
X19049666Y-101849666D01*
X18983000Y-101883000D01*
X18949666Y-101916333D01*
X18883000Y-102016333D01*
X18849666Y-102149666D01*
X18849666Y-102416333D01*
X18883000Y-102483000D01*
X18916333Y-102516333D01*
X18983000Y-102549666D01*
X19116333Y-102549666D01*
X19183000Y-102516333D01*
X19216333Y-102483000D01*
X19249666Y-102416333D01*
X19249666Y-102249666D01*
X19216333Y-102183000D01*
X19183000Y-102149666D01*
X19116333Y-102116333D01*
X18983000Y-102116333D01*
X18916333Y-102149666D01*
X18883000Y-102183000D01*
X18849666Y-102249666D01*
X18549666Y-91943666D02*
X18549666Y-92443666D01*
X18516333Y-92543666D01*
X18449666Y-92610333D01*
X18349666Y-92643666D01*
X18283000Y-92643666D01*
X19216333Y-91943666D02*
X18883000Y-91943666D01*
X18849666Y-92277000D01*
X18883000Y-92243666D01*
X18949666Y-92210333D01*
X19116333Y-92210333D01*
X19183000Y-92243666D01*
X19216333Y-92277000D01*
X19249666Y-92343666D01*
X19249666Y-92510333D01*
X19216333Y-92577000D01*
X19183000Y-92610333D01*
X19116333Y-92643666D01*
X18949666Y-92643666D01*
X18883000Y-92610333D01*
X18849666Y-92577000D01*
X11453666Y-112263666D02*
X11453666Y-112763666D01*
X11420333Y-112863666D01*
X11353666Y-112930333D01*
X11253666Y-112963666D01*
X11187000Y-112963666D01*
X12153666Y-112963666D02*
X11753666Y-112963666D01*
X11953666Y-112963666D02*
X11953666Y-112263666D01*
X11887000Y-112363666D01*
X11820333Y-112430333D01*
X11753666Y-112463666D01*
X18549666Y-81783666D02*
X18549666Y-82283666D01*
X18516333Y-82383666D01*
X18449666Y-82450333D01*
X18349666Y-82483666D01*
X18283000Y-82483666D01*
X19183000Y-82017000D02*
X19183000Y-82483666D01*
X19016333Y-81750333D02*
X18849666Y-82250333D01*
X19283000Y-82250333D01*
M02*
