G04 #@! TF.GenerationSoftware,KiCad,Pcbnew,(5.1.5)-3*
G04 #@! TF.CreationDate,2020-07-23T18:35:05-07:00*
G04 #@! TF.ProjectId,vcf-20,7663662d-3230-42e6-9b69-6361645f7063,rev?*
G04 #@! TF.SameCoordinates,Original*
G04 #@! TF.FileFunction,Legend,Bot*
G04 #@! TF.FilePolarity,Positive*
%FSLAX46Y46*%
G04 Gerber Fmt 4.6, Leading zero omitted, Abs format (unit mm)*
G04 Created by KiCad (PCBNEW (5.1.5)-3) date 2020-07-23 18:35:05*
%MOMM*%
%LPD*%
G04 APERTURE LIST*
%ADD10C,0.150000*%
%ADD11C,0.100000*%
%ADD12C,0.120000*%
G04 APERTURE END LIST*
D10*
X801714Y-42015095D02*
X1611238Y-42015095D01*
X1706476Y-41967476D01*
X1754095Y-41919857D01*
X1801714Y-41824619D01*
X1801714Y-41681761D01*
X1754095Y-41586523D01*
X1420761Y-42015095D02*
X1468380Y-41919857D01*
X1468380Y-41729380D01*
X1420761Y-41634142D01*
X1373142Y-41586523D01*
X1277904Y-41538904D01*
X992190Y-41538904D01*
X896952Y-41586523D01*
X849333Y-41634142D01*
X801714Y-41729380D01*
X801714Y-41919857D01*
X849333Y-42015095D01*
X1468380Y-42491285D02*
X801714Y-42491285D01*
X468380Y-42491285D02*
X516000Y-42443666D01*
X563619Y-42491285D01*
X516000Y-42538904D01*
X468380Y-42491285D01*
X563619Y-42491285D01*
X801714Y-42824619D02*
X801714Y-43205571D01*
X468380Y-42967476D02*
X1325523Y-42967476D01*
X1420761Y-43015095D01*
X1468380Y-43110333D01*
X1468380Y-43205571D01*
X1468380Y-43538904D02*
X468380Y-43538904D01*
X1468380Y-43967476D02*
X944571Y-43967476D01*
X849333Y-43919857D01*
X801714Y-43824619D01*
X801714Y-43681761D01*
X849333Y-43586523D01*
X896952Y-43538904D01*
X801714Y-44872238D02*
X1468380Y-44872238D01*
X801714Y-44443666D02*
X1325523Y-44443666D01*
X1420761Y-44491285D01*
X1468380Y-44586523D01*
X1468380Y-44729380D01*
X1420761Y-44824619D01*
X1373142Y-44872238D01*
X1468380Y-45348428D02*
X468380Y-45348428D01*
X849333Y-45348428D02*
X801714Y-45443666D01*
X801714Y-45634142D01*
X849333Y-45729380D01*
X896952Y-45776999D01*
X992190Y-45824619D01*
X1277904Y-45824619D01*
X1373142Y-45776999D01*
X1420761Y-45729380D01*
X1468380Y-45634142D01*
X1468380Y-45443666D01*
X1420761Y-45348428D01*
X1373142Y-46253190D02*
X1420761Y-46300809D01*
X1468380Y-46253190D01*
X1420761Y-46205571D01*
X1373142Y-46253190D01*
X1468380Y-46253190D01*
X1420761Y-47157952D02*
X1468380Y-47062714D01*
X1468380Y-46872238D01*
X1420761Y-46776999D01*
X1373142Y-46729380D01*
X1277904Y-46681761D01*
X992190Y-46681761D01*
X896952Y-46729380D01*
X849333Y-46776999D01*
X801714Y-46872238D01*
X801714Y-47062714D01*
X849333Y-47157952D01*
X1468380Y-47729380D02*
X1420761Y-47634142D01*
X1373142Y-47586523D01*
X1277904Y-47538904D01*
X992190Y-47538904D01*
X896952Y-47586523D01*
X849333Y-47634142D01*
X801714Y-47729380D01*
X801714Y-47872238D01*
X849333Y-47967476D01*
X896952Y-48015095D01*
X992190Y-48062714D01*
X1277904Y-48062714D01*
X1373142Y-48015095D01*
X1420761Y-47967476D01*
X1468380Y-47872238D01*
X1468380Y-47729380D01*
X1468380Y-48491285D02*
X801714Y-48491285D01*
X896952Y-48491285D02*
X849333Y-48538904D01*
X801714Y-48634142D01*
X801714Y-48776999D01*
X849333Y-48872238D01*
X944571Y-48919857D01*
X1468380Y-48919857D01*
X944571Y-48919857D02*
X849333Y-48967476D01*
X801714Y-49062714D01*
X801714Y-49205571D01*
X849333Y-49300809D01*
X944571Y-49348428D01*
X1468380Y-49348428D01*
X420761Y-50538904D02*
X1706476Y-49681761D01*
X1420761Y-51300809D02*
X1468380Y-51205571D01*
X1468380Y-51015095D01*
X1420761Y-50919857D01*
X1373142Y-50872238D01*
X1277904Y-50824619D01*
X992190Y-50824619D01*
X896952Y-50872238D01*
X849333Y-50919857D01*
X801714Y-51015095D01*
X801714Y-51205571D01*
X849333Y-51300809D01*
X1468380Y-51872238D02*
X1420761Y-51776999D01*
X1373142Y-51729380D01*
X1277904Y-51681761D01*
X992190Y-51681761D01*
X896952Y-51729380D01*
X849333Y-51776999D01*
X801714Y-51872238D01*
X801714Y-52015095D01*
X849333Y-52110333D01*
X896952Y-52157952D01*
X992190Y-52205571D01*
X1277904Y-52205571D01*
X1373142Y-52157952D01*
X1420761Y-52110333D01*
X1468380Y-52015095D01*
X1468380Y-51872238D01*
X801714Y-52538904D02*
X1468380Y-52776999D01*
X801714Y-53015095D01*
X1420761Y-53776999D02*
X1468380Y-53681761D01*
X1468380Y-53491285D01*
X1420761Y-53396047D01*
X1325523Y-53348428D01*
X944571Y-53348428D01*
X849333Y-53396047D01*
X801714Y-53491285D01*
X801714Y-53681761D01*
X849333Y-53776999D01*
X944571Y-53824619D01*
X1039809Y-53824619D01*
X1135047Y-53348428D01*
X1468380Y-54253190D02*
X801714Y-54253190D01*
X992190Y-54253190D02*
X896952Y-54300809D01*
X849333Y-54348428D01*
X801714Y-54443666D01*
X801714Y-54538904D01*
X801714Y-54729380D02*
X801714Y-55110333D01*
X468380Y-54872238D02*
X1325523Y-54872238D01*
X1420761Y-54919857D01*
X1468380Y-55015095D01*
X1468380Y-55110333D01*
X801714Y-55443666D02*
X1468380Y-55443666D01*
X896952Y-55443666D02*
X849333Y-55491285D01*
X801714Y-55586523D01*
X801714Y-55729380D01*
X849333Y-55824619D01*
X944571Y-55872238D01*
X1468380Y-55872238D01*
X1420761Y-56729380D02*
X1468380Y-56634142D01*
X1468380Y-56443666D01*
X1420761Y-56348428D01*
X1325523Y-56300809D01*
X944571Y-56300809D01*
X849333Y-56348428D01*
X801714Y-56443666D01*
X801714Y-56634142D01*
X849333Y-56729380D01*
X944571Y-56776999D01*
X1039809Y-56776999D01*
X1135047Y-56300809D01*
X1468380Y-57205571D02*
X468380Y-57205571D01*
X1087428Y-57300809D02*
X1468380Y-57586523D01*
X801714Y-57586523D02*
X1182666Y-57205571D01*
X1468380Y-58157952D02*
X1420761Y-58062714D01*
X1373142Y-58015095D01*
X1277904Y-57967476D01*
X992190Y-57967476D01*
X896952Y-58015095D01*
X849333Y-58062714D01*
X801714Y-58157952D01*
X801714Y-58300809D01*
X849333Y-58396047D01*
X896952Y-58443666D01*
X992190Y-58491285D01*
X1277904Y-58491285D01*
X1373142Y-58443666D01*
X1420761Y-58396047D01*
X1468380Y-58300809D01*
X1468380Y-58157952D01*
X420761Y-59634142D02*
X1706476Y-58776999D01*
X801714Y-59872238D02*
X1468380Y-60110333D01*
X801714Y-60348428D01*
X1420761Y-61157952D02*
X1468380Y-61062714D01*
X1468380Y-60872238D01*
X1420761Y-60776999D01*
X1373142Y-60729380D01*
X1277904Y-60681761D01*
X992190Y-60681761D01*
X896952Y-60729380D01*
X849333Y-60776999D01*
X801714Y-60872238D01*
X801714Y-61062714D01*
X849333Y-61157952D01*
X801714Y-61443666D02*
X801714Y-61824619D01*
X1468380Y-61586523D02*
X611238Y-61586523D01*
X515999Y-61634142D01*
X468380Y-61729380D01*
X468380Y-61824619D01*
X1087428Y-62157952D02*
X1087428Y-62919857D01*
X563619Y-63348428D02*
X515999Y-63396047D01*
X468380Y-63491285D01*
X468380Y-63729380D01*
X515999Y-63824619D01*
X563619Y-63872238D01*
X658857Y-63919857D01*
X754095Y-63919857D01*
X896952Y-63872238D01*
X1468380Y-63300809D01*
X1468380Y-63919857D01*
X468380Y-64538904D02*
X468380Y-64634142D01*
X515999Y-64729380D01*
X563619Y-64776999D01*
X658857Y-64824619D01*
X849333Y-64872238D01*
X1087428Y-64872238D01*
X1277904Y-64824619D01*
X1373142Y-64776999D01*
X1420761Y-64729380D01*
X1468380Y-64634142D01*
X1468380Y-64538904D01*
X1420761Y-64443666D01*
X1373142Y-64396047D01*
X1277904Y-64348428D01*
X1087428Y-64300809D01*
X849333Y-64300809D01*
X658857Y-64348428D01*
X563619Y-64396047D01*
X515999Y-64443666D01*
X468380Y-64538904D01*
X420761Y-66015095D02*
X1706476Y-65157952D01*
X801714Y-66205571D02*
X801714Y-66586523D01*
X468380Y-66348428D02*
X1325523Y-66348428D01*
X1420761Y-66396047D01*
X1468380Y-66491285D01*
X1468380Y-66586523D01*
X1468380Y-66919857D02*
X801714Y-66919857D01*
X992190Y-66919857D02*
X896952Y-66967476D01*
X849333Y-67015095D01*
X801714Y-67110333D01*
X801714Y-67205571D01*
X1420761Y-67919857D02*
X1468380Y-67824619D01*
X1468380Y-67634142D01*
X1420761Y-67538904D01*
X1325523Y-67491285D01*
X944571Y-67491285D01*
X849333Y-67538904D01*
X801714Y-67634142D01*
X801714Y-67824619D01*
X849333Y-67919857D01*
X944571Y-67967476D01*
X1039809Y-67967476D01*
X1135047Y-67491285D01*
X1420761Y-68776999D02*
X1468380Y-68681761D01*
X1468380Y-68491285D01*
X1420761Y-68396047D01*
X1325523Y-68348428D01*
X944571Y-68348428D01*
X849333Y-68396047D01*
X801714Y-68491285D01*
X801714Y-68681761D01*
X849333Y-68776999D01*
X944571Y-68824619D01*
X1039809Y-68824619D01*
X1135047Y-68348428D01*
X420761Y-69967476D02*
X1706476Y-69110333D01*
X801714Y-70205571D02*
X1468380Y-70443666D01*
X801714Y-70681761D01*
X468380Y-71253190D02*
X468380Y-71348428D01*
X515999Y-71443666D01*
X563619Y-71491285D01*
X658857Y-71538904D01*
X849333Y-71586523D01*
X1087428Y-71586523D01*
X1277904Y-71538904D01*
X1373142Y-71491285D01*
X1420761Y-71443666D01*
X1468380Y-71348428D01*
X1468380Y-71253190D01*
X1420761Y-71157952D01*
X1373142Y-71110333D01*
X1277904Y-71062714D01*
X1087428Y-71015095D01*
X849333Y-71015095D01*
X658857Y-71062714D01*
X563619Y-71110333D01*
X515999Y-71157952D01*
X468380Y-71253190D01*
X1373142Y-72015095D02*
X1420761Y-72062714D01*
X1468380Y-72015095D01*
X1420761Y-71967476D01*
X1373142Y-72015095D01*
X1468380Y-72015095D01*
X1468380Y-73015095D02*
X1468380Y-72443666D01*
X1468380Y-72729380D02*
X468380Y-72729380D01*
X611238Y-72634142D01*
X706476Y-72538904D01*
X754095Y-72443666D01*
D11*
G36*
X9906000Y-26162000D02*
G01*
X127000Y-26162000D01*
X127000Y-24892000D01*
X9906000Y-24892000D01*
X9906000Y-26162000D01*
G37*
X9906000Y-26162000D02*
X127000Y-26162000D01*
X127000Y-24892000D01*
X9906000Y-24892000D01*
X9906000Y-26162000D01*
D10*
X17043000Y-53838000D02*
X17043000Y-52488000D01*
X22168000Y-53838000D02*
X22168000Y-58488000D01*
X16918000Y-53838000D02*
X16918000Y-58488000D01*
X22168000Y-53838000D02*
X21943000Y-53838000D01*
X22168000Y-58488000D02*
X21943000Y-58488000D01*
X16918000Y-58488000D02*
X17143000Y-58488000D01*
X16918000Y-53838000D02*
X17043000Y-53838000D01*
D12*
X20157221Y-72388000D02*
X20482779Y-72388000D01*
X20157221Y-73408000D02*
X20482779Y-73408000D01*
X19593779Y-61470000D02*
X19268221Y-61470000D01*
X19593779Y-60450000D02*
X19268221Y-60450000D01*
X28357000Y-20384000D02*
X28357000Y-20540000D01*
X28357000Y-18068000D02*
X28357000Y-18224000D01*
X25755870Y-20383837D02*
G75*
G03X27837961Y-20384000I1041130J1079837D01*
G01*
X25755870Y-18224163D02*
G75*
G02X27837961Y-18224000I1041130J-1079837D01*
G01*
X25124665Y-20382608D02*
G75*
G03X28357000Y-20539516I1672335J1078608D01*
G01*
X25124665Y-18225392D02*
G75*
G02X28357000Y-18068484I1672335J-1078608D01*
G01*
D10*
X11390000Y-70944000D02*
X11390000Y-72294000D01*
X6265000Y-70944000D02*
X6265000Y-66294000D01*
X11515000Y-70944000D02*
X11515000Y-66294000D01*
X6265000Y-70944000D02*
X6490000Y-70944000D01*
X6265000Y-66294000D02*
X6490000Y-66294000D01*
X11515000Y-66294000D02*
X11290000Y-66294000D01*
X11515000Y-70944000D02*
X11390000Y-70944000D01*
D12*
X13464000Y-66918721D02*
X13464000Y-67244279D01*
X12444000Y-66918721D02*
X12444000Y-67244279D01*
X15365000Y-52994779D02*
X15365000Y-52669221D01*
X16385000Y-52994779D02*
X16385000Y-52669221D01*
X15750000Y-60543221D02*
X15750000Y-60868779D01*
X14730000Y-60543221D02*
X14730000Y-60868779D01*
X29085000Y-79364721D02*
X29085000Y-79690279D01*
X28065000Y-79364721D02*
X28065000Y-79690279D01*
X24513000Y-26096279D02*
X24513000Y-25770721D01*
X23493000Y-26096279D02*
X23493000Y-25770721D01*
X28065000Y-75727779D02*
X28065000Y-75402221D01*
X29085000Y-75727779D02*
X29085000Y-75402221D01*
X24445279Y-36959000D02*
X24119721Y-36959000D01*
X24445279Y-35939000D02*
X24119721Y-35939000D01*
X8126000Y-63307279D02*
X8126000Y-62981721D01*
X9146000Y-63307279D02*
X9146000Y-62981721D01*
X21046221Y-35939000D02*
X21371779Y-35939000D01*
X21046221Y-36959000D02*
X21371779Y-36959000D01*
X15783779Y-77472000D02*
X15458221Y-77472000D01*
X15783779Y-76452000D02*
X15458221Y-76452000D01*
X18049779Y-62101000D02*
X17724221Y-62101000D01*
X18049779Y-63121000D02*
X17724221Y-63121000D01*
X15783779Y-79123000D02*
X15458221Y-79123000D01*
X15783779Y-78103000D02*
X15458221Y-78103000D01*
X16291779Y-113413000D02*
X15966221Y-113413000D01*
X16291779Y-112393000D02*
X15966221Y-112393000D01*
X16291779Y-111889000D02*
X15966221Y-111889000D01*
X16291779Y-110869000D02*
X15966221Y-110869000D01*
X16291779Y-92966000D02*
X15966221Y-92966000D01*
X16291779Y-91946000D02*
X15966221Y-91946000D01*
X16266279Y-91442000D02*
X15940721Y-91442000D01*
X16266279Y-90422000D02*
X15940721Y-90422000D01*
X9904000Y-29626779D02*
X9904000Y-29301221D01*
X10924000Y-29626779D02*
X10924000Y-29301221D01*
X2829779Y-39880000D02*
X2504221Y-39880000D01*
X2829779Y-38860000D02*
X2504221Y-38860000D01*
X4409221Y-89914000D02*
X4734779Y-89914000D01*
X4409221Y-90934000D02*
X4734779Y-90934000D01*
X8925779Y-96141000D02*
X8600221Y-96141000D01*
X8925779Y-95121000D02*
X8600221Y-95121000D01*
X13878779Y-20957000D02*
X13553221Y-20957000D01*
X13878779Y-19937000D02*
X13553221Y-19937000D01*
X22921179Y-18290000D02*
X22595621Y-18290000D01*
X22921179Y-17270000D02*
X22595621Y-17270000D01*
X27523221Y-109472000D02*
X27848779Y-109472000D01*
X27523221Y-110492000D02*
X27848779Y-110492000D01*
X16291779Y-109984000D02*
X15966221Y-109984000D01*
X16291779Y-108964000D02*
X15966221Y-108964000D01*
X27523221Y-89787000D02*
X27848779Y-89787000D01*
X27523221Y-90807000D02*
X27848779Y-90807000D01*
X16291779Y-89664000D02*
X15966221Y-89664000D01*
X16291779Y-88644000D02*
X15966221Y-88644000D01*
X6221000Y-61305221D02*
X6221000Y-61630779D01*
X7241000Y-61305221D02*
X7241000Y-61630779D01*
X6733000Y-46217721D02*
X6733000Y-46543279D01*
X5713000Y-46217721D02*
X5713000Y-46543279D01*
X14226000Y-52643721D02*
X14226000Y-52969279D01*
X13206000Y-52643721D02*
X13206000Y-52969279D01*
X16139279Y-35943000D02*
X15813721Y-35943000D01*
X16139279Y-34923000D02*
X15813721Y-34923000D01*
X28056521Y-39241000D02*
X28382079Y-39241000D01*
X28056521Y-40261000D02*
X28382079Y-40261000D01*
X7711221Y-42162000D02*
X8036779Y-42162000D01*
X7711221Y-43182000D02*
X8036779Y-43182000D01*
X7711221Y-40511000D02*
X8036779Y-40511000D01*
X7711221Y-41531000D02*
X8036779Y-41531000D01*
X7711221Y-38860000D02*
X8036779Y-38860000D01*
X7711221Y-39880000D02*
X8036779Y-39880000D01*
X15783779Y-74170000D02*
X15458221Y-74170000D01*
X15783779Y-73150000D02*
X15458221Y-73150000D01*
X21046221Y-37590000D02*
X21371779Y-37590000D01*
X21046221Y-38610000D02*
X21371779Y-38610000D01*
X14099000Y-38851721D02*
X14099000Y-39177279D01*
X13079000Y-38851721D02*
X13079000Y-39177279D01*
X21371779Y-40261000D02*
X21046221Y-40261000D01*
X21371779Y-39241000D02*
X21046221Y-39241000D01*
X16164779Y-34292000D02*
X15839221Y-34292000D01*
X16164779Y-33272000D02*
X15839221Y-33272000D01*
X15783779Y-75821000D02*
X15458221Y-75821000D01*
X15783779Y-74801000D02*
X15458221Y-74801000D01*
X23332221Y-72388000D02*
X23657779Y-72388000D01*
X23332221Y-73408000D02*
X23657779Y-73408000D01*
X21854279Y-25656000D02*
X21528721Y-25656000D01*
X21854279Y-24636000D02*
X21528721Y-24636000D01*
X27650221Y-24636000D02*
X27975779Y-24636000D01*
X27650221Y-25656000D02*
X27975779Y-25656000D01*
X27975779Y-27180000D02*
X27650221Y-27180000D01*
X27975779Y-26160000D02*
X27650221Y-26160000D01*
X15783779Y-82425000D02*
X15458221Y-82425000D01*
X15783779Y-81405000D02*
X15458221Y-81405000D01*
X17724221Y-63625000D02*
X18049779Y-63625000D01*
X17724221Y-64645000D02*
X18049779Y-64645000D01*
X22768779Y-64645000D02*
X22443221Y-64645000D01*
X22768779Y-63625000D02*
X22443221Y-63625000D01*
X15758279Y-80774000D02*
X15432721Y-80774000D01*
X15758279Y-79754000D02*
X15432721Y-79754000D01*
X23332221Y-81659000D02*
X23657779Y-81659000D01*
X23332221Y-82679000D02*
X23657779Y-82679000D01*
X20990779Y-49147000D02*
X20665221Y-49147000D01*
X20990779Y-50167000D02*
X20665221Y-50167000D01*
X26418000Y-39588221D02*
X26418000Y-39913779D01*
X25398000Y-39588221D02*
X25398000Y-39913779D01*
X6030279Y-64391000D02*
X5704721Y-64391000D01*
X6030279Y-63371000D02*
X5704721Y-63371000D01*
X20157221Y-81659000D02*
X20482779Y-81659000D01*
X20157221Y-82679000D02*
X20482779Y-82679000D01*
X20665221Y-50798000D02*
X20990779Y-50798000D01*
X20665221Y-51818000D02*
X20990779Y-51818000D01*
X5463000Y-61630779D02*
X5463000Y-61305221D01*
X4443000Y-61630779D02*
X4443000Y-61305221D01*
X11440279Y-64391000D02*
X11114721Y-64391000D01*
X11440279Y-63371000D02*
X11114721Y-63371000D01*
X7122279Y-75567000D02*
X6796721Y-75567000D01*
X7122279Y-74547000D02*
X6796721Y-74547000D01*
X10412000Y-74457779D02*
X10412000Y-74132221D01*
X11432000Y-74457779D02*
X11432000Y-74132221D01*
X25906000Y-48016279D02*
X25906000Y-47690721D01*
X26926000Y-48016279D02*
X26926000Y-47690721D01*
X20703000Y-63535779D02*
X20703000Y-63210221D01*
X19683000Y-63535779D02*
X19683000Y-63210221D01*
X6822221Y-72896000D02*
X7147779Y-72896000D01*
X6822221Y-73916000D02*
X7147779Y-73916000D01*
X10987721Y-117219000D02*
X11313279Y-117219000D01*
X10987721Y-118239000D02*
X11313279Y-118239000D01*
X10987721Y-107059000D02*
X11313279Y-107059000D01*
X10987721Y-108079000D02*
X11313279Y-108079000D01*
X14869279Y-95760000D02*
X14543721Y-95760000D01*
X14869279Y-94740000D02*
X14543721Y-94740000D01*
X27548721Y-112266000D02*
X27874279Y-112266000D01*
X27548721Y-113286000D02*
X27874279Y-113286000D01*
X27523221Y-106678000D02*
X27848779Y-106678000D01*
X27523221Y-107698000D02*
X27848779Y-107698000D01*
X27548721Y-91692000D02*
X27874279Y-91692000D01*
X27548721Y-92712000D02*
X27874279Y-92712000D01*
X27497721Y-86358000D02*
X27823279Y-86358000D01*
X27497721Y-87378000D02*
X27823279Y-87378000D01*
X633000Y-94244279D02*
X633000Y-93918721D01*
X1653000Y-94244279D02*
X1653000Y-93918721D01*
X633000Y-97017721D02*
X633000Y-97343279D01*
X1653000Y-97017721D02*
X1653000Y-97343279D01*
X4328279Y-95121000D02*
X4002721Y-95121000D01*
X4328279Y-96141000D02*
X4002721Y-96141000D01*
X2097721Y-100455000D02*
X2423279Y-100455000D01*
X2097721Y-101475000D02*
X2423279Y-101475000D01*
X2423279Y-101979000D02*
X2097721Y-101979000D01*
X2423279Y-102999000D02*
X2097721Y-102999000D01*
X10793000Y-100649721D02*
X10793000Y-100975279D01*
X11813000Y-100649721D02*
X11813000Y-100975279D01*
X13878779Y-85727000D02*
X13553221Y-85727000D01*
X13878779Y-84707000D02*
X13553221Y-84707000D01*
X10225721Y-19937000D02*
X10551279Y-19937000D01*
X10225721Y-20957000D02*
X10551279Y-20957000D01*
X19242721Y-11936000D02*
X19568279Y-11936000D01*
X19242721Y-12956000D02*
X19568279Y-12956000D01*
D10*
X24325000Y-107482000D02*
X25675000Y-107482000D01*
X24325000Y-112607000D02*
X19675000Y-112607000D01*
X24325000Y-107357000D02*
X19675000Y-107357000D01*
X24325000Y-112607000D02*
X24325000Y-112382000D01*
X19675000Y-112607000D02*
X19675000Y-112382000D01*
X19675000Y-107357000D02*
X19675000Y-107582000D01*
X24325000Y-107357000D02*
X24325000Y-107482000D01*
D12*
X10394000Y-34798000D02*
X10394000Y-38248000D01*
X10394000Y-34798000D02*
X10394000Y-32848000D01*
X274000Y-34798000D02*
X274000Y-36748000D01*
X274000Y-34798000D02*
X274000Y-32848000D01*
X7310000Y-45849000D02*
X7310000Y-47309000D01*
X10470000Y-45849000D02*
X10470000Y-48009000D01*
X10470000Y-45849000D02*
X9540000Y-45849000D01*
X7310000Y-45849000D02*
X8240000Y-45849000D01*
X26984000Y-65002000D02*
X26984000Y-65702000D01*
X26284000Y-65002000D02*
X26984000Y-65002000D01*
X22484000Y-68402000D02*
X22484000Y-67802000D01*
X25384000Y-68402000D02*
X22484000Y-68402000D01*
X22484000Y-65202000D02*
X22484000Y-65802000D01*
X25384000Y-65202000D02*
X22484000Y-65202000D01*
X26484000Y-66602000D02*
X26484000Y-67002000D01*
X9646000Y-100384000D02*
X9646000Y-100784000D01*
X8546000Y-98984000D02*
X5646000Y-98984000D01*
X5646000Y-98984000D02*
X5646000Y-99584000D01*
X8546000Y-102184000D02*
X5646000Y-102184000D01*
X5646000Y-102184000D02*
X5646000Y-101584000D01*
X9446000Y-98784000D02*
X10146000Y-98784000D01*
X10146000Y-98784000D02*
X10146000Y-99484000D01*
X7896000Y-58734000D02*
X7196000Y-58734000D01*
X7896000Y-58034000D02*
X7896000Y-58734000D01*
X4496000Y-54234000D02*
X5096000Y-54234000D01*
X4496000Y-57134000D02*
X4496000Y-54234000D01*
X7696000Y-54234000D02*
X7096000Y-54234000D01*
X7696000Y-57134000D02*
X7696000Y-54234000D01*
X6296000Y-58234000D02*
X5896000Y-58234000D01*
X25005000Y-45063000D02*
X25005000Y-45763000D01*
X24305000Y-45063000D02*
X25005000Y-45063000D01*
X20505000Y-48463000D02*
X20505000Y-47863000D01*
X23405000Y-48463000D02*
X20505000Y-48463000D01*
X20505000Y-45263000D02*
X20505000Y-45863000D01*
X23405000Y-45263000D02*
X20505000Y-45263000D01*
X24505000Y-46663000D02*
X24505000Y-47063000D01*
X17419000Y-77532000D02*
X17419000Y-74082000D01*
X17419000Y-77532000D02*
X17419000Y-79482000D01*
X27539000Y-77532000D02*
X27539000Y-75582000D01*
X27539000Y-77532000D02*
X27539000Y-79482000D01*
D10*
X21712000Y-29200000D02*
X21712000Y-27850000D01*
X26837000Y-29200000D02*
X26837000Y-33850000D01*
X21587000Y-29200000D02*
X21587000Y-33850000D01*
X26837000Y-29200000D02*
X26612000Y-29200000D01*
X26837000Y-33850000D02*
X26612000Y-33850000D01*
X21587000Y-33850000D02*
X21812000Y-33850000D01*
X21587000Y-29200000D02*
X21712000Y-29200000D01*
X24325000Y-87050000D02*
X25675000Y-87050000D01*
X24325000Y-92175000D02*
X19675000Y-92175000D01*
X24325000Y-86925000D02*
X19675000Y-86925000D01*
X24325000Y-92175000D02*
X24325000Y-91950000D01*
X19675000Y-92175000D02*
X19675000Y-91950000D01*
X19675000Y-86925000D02*
X19675000Y-87150000D01*
X24325000Y-86925000D02*
X24325000Y-87050000D01*
X8646000Y-91495000D02*
X9996000Y-91495000D01*
X8646000Y-94645000D02*
X3996000Y-94645000D01*
X8646000Y-91395000D02*
X3996000Y-91395000D01*
X8646000Y-94645000D02*
X8646000Y-94445000D01*
X3996000Y-94645000D02*
X3996000Y-94445000D01*
X3996000Y-91395000D02*
X3996000Y-91595000D01*
X8646000Y-91395000D02*
X8646000Y-91495000D01*
D12*
X15385000Y-40315000D02*
X16845000Y-40315000D01*
X15385000Y-37155000D02*
X17545000Y-37155000D01*
X15385000Y-37155000D02*
X15385000Y-38085000D01*
X15385000Y-40315000D02*
X15385000Y-39385000D01*
X14750000Y-68382000D02*
X14750000Y-67452000D01*
X14750000Y-65222000D02*
X14750000Y-66152000D01*
X14750000Y-65222000D02*
X16910000Y-65222000D01*
X14750000Y-68382000D02*
X16210000Y-68382000D01*
X19921000Y-65222000D02*
X19921000Y-66152000D01*
X19921000Y-68382000D02*
X19921000Y-67452000D01*
X19921000Y-68382000D02*
X17761000Y-68382000D01*
X19921000Y-65222000D02*
X18461000Y-65222000D01*
X-99000Y-31127000D02*
X2441000Y-31127000D01*
X-99000Y-31127000D02*
X-99000Y-28587000D01*
X151000Y-30877000D02*
X9501000Y-30877000D01*
X151000Y-10017000D02*
X151000Y-30877000D01*
X9501000Y-10017000D02*
X151000Y-10017000D01*
X9501000Y-30877000D02*
X9501000Y-10017000D01*
X12607500Y-12308500D02*
X13232500Y-12308500D01*
X12920000Y-11996000D02*
X12920000Y-12621000D01*
X16300563Y-12861000D02*
X17365000Y-13925437D01*
X12909437Y-12861000D02*
X11845000Y-13925437D01*
X12909437Y-12861000D02*
X13545000Y-12861000D01*
X16300563Y-12861000D02*
X15665000Y-12861000D01*
X17365000Y-13925437D02*
X17365000Y-18381000D01*
X11845000Y-13925437D02*
X11845000Y-18381000D01*
X11845000Y-18381000D02*
X13545000Y-18381000D01*
X17365000Y-18381000D02*
X15665000Y-18381000D01*
X21960500Y-15078500D02*
X21960500Y-14453500D01*
X21648000Y-14766000D02*
X22273000Y-14766000D01*
X22513000Y-11385437D02*
X23577437Y-10321000D01*
X22513000Y-14776563D02*
X23577437Y-15841000D01*
X22513000Y-14776563D02*
X22513000Y-14141000D01*
X22513000Y-11385437D02*
X22513000Y-12021000D01*
X23577437Y-10321000D02*
X28033000Y-10321000D01*
X23577437Y-15841000D02*
X28033000Y-15841000D01*
X28033000Y-15841000D02*
X28033000Y-14141000D01*
X28033000Y-10321000D02*
X28033000Y-12021000D01*
D11*
X23139333Y-58798666D02*
X23139333Y-59365333D01*
X23106000Y-59432000D01*
X23072666Y-59465333D01*
X23006000Y-59498666D01*
X22872666Y-59498666D01*
X22806000Y-59465333D01*
X22772666Y-59432000D01*
X22739333Y-59365333D01*
X22739333Y-58798666D01*
X22472666Y-58798666D02*
X22006000Y-58798666D01*
X22306000Y-59498666D01*
X18484000Y-73214666D02*
X18717333Y-72881333D01*
X18884000Y-73214666D02*
X18884000Y-72514666D01*
X18617333Y-72514666D01*
X18550666Y-72548000D01*
X18517333Y-72581333D01*
X18484000Y-72648000D01*
X18484000Y-72748000D01*
X18517333Y-72814666D01*
X18550666Y-72848000D01*
X18617333Y-72881333D01*
X18884000Y-72881333D01*
X18250666Y-72514666D02*
X17817333Y-72514666D01*
X18050666Y-72781333D01*
X17950666Y-72781333D01*
X17884000Y-72814666D01*
X17850666Y-72848000D01*
X17817333Y-72914666D01*
X17817333Y-73081333D01*
X17850666Y-73148000D01*
X17884000Y-73181333D01*
X17950666Y-73214666D01*
X18150666Y-73214666D01*
X18217333Y-73181333D01*
X18250666Y-73148000D01*
X17417333Y-72814666D02*
X17484000Y-72781333D01*
X17517333Y-72748000D01*
X17550666Y-72681333D01*
X17550666Y-72648000D01*
X17517333Y-72581333D01*
X17484000Y-72548000D01*
X17417333Y-72514666D01*
X17284000Y-72514666D01*
X17217333Y-72548000D01*
X17184000Y-72581333D01*
X17150666Y-72648000D01*
X17150666Y-72681333D01*
X17184000Y-72748000D01*
X17217333Y-72781333D01*
X17284000Y-72814666D01*
X17417333Y-72814666D01*
X17484000Y-72848000D01*
X17517333Y-72881333D01*
X17550666Y-72948000D01*
X17550666Y-73081333D01*
X17517333Y-73148000D01*
X17484000Y-73181333D01*
X17417333Y-73214666D01*
X17284000Y-73214666D01*
X17217333Y-73181333D01*
X17184000Y-73148000D01*
X17150666Y-73081333D01*
X17150666Y-72948000D01*
X17184000Y-72881333D01*
X17217333Y-72848000D01*
X17284000Y-72814666D01*
X17493500Y-61276666D02*
X17726833Y-60943333D01*
X17893500Y-61276666D02*
X17893500Y-60576666D01*
X17626833Y-60576666D01*
X17560166Y-60610000D01*
X17526833Y-60643333D01*
X17493500Y-60710000D01*
X17493500Y-60810000D01*
X17526833Y-60876666D01*
X17560166Y-60910000D01*
X17626833Y-60943333D01*
X17893500Y-60943333D01*
X17260166Y-60576666D02*
X16826833Y-60576666D01*
X17060166Y-60843333D01*
X16960166Y-60843333D01*
X16893500Y-60876666D01*
X16860166Y-60910000D01*
X16826833Y-60976666D01*
X16826833Y-61143333D01*
X16860166Y-61210000D01*
X16893500Y-61243333D01*
X16960166Y-61276666D01*
X17160166Y-61276666D01*
X17226833Y-61243333D01*
X17260166Y-61210000D01*
X16593500Y-60576666D02*
X16126833Y-60576666D01*
X16426833Y-61276666D01*
X27313666Y-16953666D02*
X27313666Y-16253666D01*
X27147000Y-16253666D01*
X27047000Y-16287000D01*
X26980333Y-16353666D01*
X26947000Y-16420333D01*
X26913666Y-16553666D01*
X26913666Y-16653666D01*
X26947000Y-16787000D01*
X26980333Y-16853666D01*
X27047000Y-16920333D01*
X27147000Y-16953666D01*
X27313666Y-16953666D01*
X26313666Y-16253666D02*
X26447000Y-16253666D01*
X26513666Y-16287000D01*
X26547000Y-16320333D01*
X26613666Y-16420333D01*
X26647000Y-16553666D01*
X26647000Y-16820333D01*
X26613666Y-16887000D01*
X26580333Y-16920333D01*
X26513666Y-16953666D01*
X26380333Y-16953666D01*
X26313666Y-16920333D01*
X26280333Y-16887000D01*
X26247000Y-16820333D01*
X26247000Y-16653666D01*
X26280333Y-16587000D01*
X26313666Y-16553666D01*
X26380333Y-16520333D01*
X26513666Y-16520333D01*
X26580333Y-16553666D01*
X26613666Y-16587000D01*
X26647000Y-16653666D01*
D10*
X11892380Y-67857095D02*
X12701904Y-67857095D01*
X12797142Y-67904714D01*
X12844761Y-67952333D01*
X12892380Y-68047571D01*
X12892380Y-68238047D01*
X12844761Y-68333285D01*
X12797142Y-68380904D01*
X12701904Y-68428523D01*
X11892380Y-68428523D01*
X11892380Y-69380904D02*
X11892380Y-68904714D01*
X12368571Y-68857095D01*
X12320952Y-68904714D01*
X12273333Y-68999952D01*
X12273333Y-69238047D01*
X12320952Y-69333285D01*
X12368571Y-69380904D01*
X12463809Y-69428523D01*
X12701904Y-69428523D01*
X12797142Y-69380904D01*
X12844761Y-69333285D01*
X12892380Y-69238047D01*
X12892380Y-68999952D01*
X12844761Y-68904714D01*
X12797142Y-68857095D01*
D11*
X13404000Y-65401000D02*
X13437333Y-65434333D01*
X13537333Y-65467666D01*
X13604000Y-65467666D01*
X13704000Y-65434333D01*
X13770666Y-65367666D01*
X13804000Y-65301000D01*
X13837333Y-65167666D01*
X13837333Y-65067666D01*
X13804000Y-64934333D01*
X13770666Y-64867666D01*
X13704000Y-64801000D01*
X13604000Y-64767666D01*
X13537333Y-64767666D01*
X13437333Y-64801000D01*
X13404000Y-64834333D01*
X13137333Y-64834333D02*
X13104000Y-64801000D01*
X13037333Y-64767666D01*
X12870666Y-64767666D01*
X12804000Y-64801000D01*
X12770666Y-64834333D01*
X12737333Y-64901000D01*
X12737333Y-64967666D01*
X12770666Y-65067666D01*
X13170666Y-65467666D01*
X12737333Y-65467666D01*
X12137333Y-64767666D02*
X12270666Y-64767666D01*
X12337333Y-64801000D01*
X12370666Y-64834333D01*
X12437333Y-64934333D01*
X12470666Y-65067666D01*
X12470666Y-65334333D01*
X12437333Y-65401000D01*
X12404000Y-65434333D01*
X12337333Y-65467666D01*
X12204000Y-65467666D01*
X12137333Y-65434333D01*
X12104000Y-65401000D01*
X12070666Y-65334333D01*
X12070666Y-65167666D01*
X12104000Y-65101000D01*
X12137333Y-65067666D01*
X12204000Y-65034333D01*
X12337333Y-65034333D01*
X12404000Y-65067666D01*
X12437333Y-65101000D01*
X12470666Y-65167666D01*
X16325000Y-51177000D02*
X16358333Y-51210333D01*
X16458333Y-51243666D01*
X16525000Y-51243666D01*
X16625000Y-51210333D01*
X16691666Y-51143666D01*
X16725000Y-51077000D01*
X16758333Y-50943666D01*
X16758333Y-50843666D01*
X16725000Y-50710333D01*
X16691666Y-50643666D01*
X16625000Y-50577000D01*
X16525000Y-50543666D01*
X16458333Y-50543666D01*
X16358333Y-50577000D01*
X16325000Y-50610333D01*
X16091666Y-50543666D02*
X15658333Y-50543666D01*
X15891666Y-50810333D01*
X15791666Y-50810333D01*
X15725000Y-50843666D01*
X15691666Y-50877000D01*
X15658333Y-50943666D01*
X15658333Y-51110333D01*
X15691666Y-51177000D01*
X15725000Y-51210333D01*
X15791666Y-51243666D01*
X15991666Y-51243666D01*
X16058333Y-51210333D01*
X16091666Y-51177000D01*
X15225000Y-50543666D02*
X15158333Y-50543666D01*
X15091666Y-50577000D01*
X15058333Y-50610333D01*
X15025000Y-50677000D01*
X14991666Y-50810333D01*
X14991666Y-50977000D01*
X15025000Y-51110333D01*
X15058333Y-51177000D01*
X15091666Y-51210333D01*
X15158333Y-51243666D01*
X15225000Y-51243666D01*
X15291666Y-51210333D01*
X15325000Y-51177000D01*
X15358333Y-51110333D01*
X15391666Y-50977000D01*
X15391666Y-50810333D01*
X15358333Y-50677000D01*
X15325000Y-50610333D01*
X15291666Y-50577000D01*
X15225000Y-50543666D01*
X14039000Y-60956000D02*
X14072333Y-60989333D01*
X14172333Y-61022666D01*
X14239000Y-61022666D01*
X14339000Y-60989333D01*
X14405666Y-60922666D01*
X14439000Y-60856000D01*
X14472333Y-60722666D01*
X14472333Y-60622666D01*
X14439000Y-60489333D01*
X14405666Y-60422666D01*
X14339000Y-60356000D01*
X14239000Y-60322666D01*
X14172333Y-60322666D01*
X14072333Y-60356000D01*
X14039000Y-60389333D01*
X13772333Y-60389333D02*
X13739000Y-60356000D01*
X13672333Y-60322666D01*
X13505666Y-60322666D01*
X13439000Y-60356000D01*
X13405666Y-60389333D01*
X13372333Y-60456000D01*
X13372333Y-60522666D01*
X13405666Y-60622666D01*
X13805666Y-61022666D01*
X13372333Y-61022666D01*
X13039000Y-61022666D02*
X12905666Y-61022666D01*
X12839000Y-60989333D01*
X12805666Y-60956000D01*
X12739000Y-60856000D01*
X12705666Y-60722666D01*
X12705666Y-60456000D01*
X12739000Y-60389333D01*
X12772333Y-60356000D01*
X12839000Y-60322666D01*
X12972333Y-60322666D01*
X13039000Y-60356000D01*
X13072333Y-60389333D01*
X13105666Y-60456000D01*
X13105666Y-60622666D01*
X13072333Y-60689333D01*
X13039000Y-60722666D01*
X12972333Y-60756000D01*
X12839000Y-60756000D01*
X12772333Y-60722666D01*
X12739000Y-60689333D01*
X12705666Y-60622666D01*
X29025000Y-81657000D02*
X29058333Y-81690333D01*
X29158333Y-81723666D01*
X29225000Y-81723666D01*
X29325000Y-81690333D01*
X29391666Y-81623666D01*
X29425000Y-81557000D01*
X29458333Y-81423666D01*
X29458333Y-81323666D01*
X29425000Y-81190333D01*
X29391666Y-81123666D01*
X29325000Y-81057000D01*
X29225000Y-81023666D01*
X29158333Y-81023666D01*
X29058333Y-81057000D01*
X29025000Y-81090333D01*
X28758333Y-81090333D02*
X28725000Y-81057000D01*
X28658333Y-81023666D01*
X28491666Y-81023666D01*
X28425000Y-81057000D01*
X28391666Y-81090333D01*
X28358333Y-81157000D01*
X28358333Y-81223666D01*
X28391666Y-81323666D01*
X28791666Y-81723666D01*
X28358333Y-81723666D01*
X27958333Y-81323666D02*
X28025000Y-81290333D01*
X28058333Y-81257000D01*
X28091666Y-81190333D01*
X28091666Y-81157000D01*
X28058333Y-81090333D01*
X28025000Y-81057000D01*
X27958333Y-81023666D01*
X27825000Y-81023666D01*
X27758333Y-81057000D01*
X27725000Y-81090333D01*
X27691666Y-81157000D01*
X27691666Y-81190333D01*
X27725000Y-81257000D01*
X27758333Y-81290333D01*
X27825000Y-81323666D01*
X27958333Y-81323666D01*
X28025000Y-81357000D01*
X28058333Y-81390333D01*
X28091666Y-81457000D01*
X28091666Y-81590333D01*
X28058333Y-81657000D01*
X28025000Y-81690333D01*
X27958333Y-81723666D01*
X27825000Y-81723666D01*
X27758333Y-81690333D01*
X27725000Y-81657000D01*
X27691666Y-81590333D01*
X27691666Y-81457000D01*
X27725000Y-81390333D01*
X27758333Y-81357000D01*
X27825000Y-81323666D01*
X22802000Y-27047000D02*
X22835333Y-27080333D01*
X22935333Y-27113666D01*
X23002000Y-27113666D01*
X23102000Y-27080333D01*
X23168666Y-27013666D01*
X23202000Y-26947000D01*
X23235333Y-26813666D01*
X23235333Y-26713666D01*
X23202000Y-26580333D01*
X23168666Y-26513666D01*
X23102000Y-26447000D01*
X23002000Y-26413666D01*
X22935333Y-26413666D01*
X22835333Y-26447000D01*
X22802000Y-26480333D01*
X22535333Y-26480333D02*
X22502000Y-26447000D01*
X22435333Y-26413666D01*
X22268666Y-26413666D01*
X22202000Y-26447000D01*
X22168666Y-26480333D01*
X22135333Y-26547000D01*
X22135333Y-26613666D01*
X22168666Y-26713666D01*
X22568666Y-27113666D01*
X22135333Y-27113666D01*
X21902000Y-26413666D02*
X21435333Y-26413666D01*
X21735333Y-27113666D01*
X29025000Y-74037000D02*
X29058333Y-74070333D01*
X29158333Y-74103666D01*
X29225000Y-74103666D01*
X29325000Y-74070333D01*
X29391666Y-74003666D01*
X29425000Y-73937000D01*
X29458333Y-73803666D01*
X29458333Y-73703666D01*
X29425000Y-73570333D01*
X29391666Y-73503666D01*
X29325000Y-73437000D01*
X29225000Y-73403666D01*
X29158333Y-73403666D01*
X29058333Y-73437000D01*
X29025000Y-73470333D01*
X28758333Y-73470333D02*
X28725000Y-73437000D01*
X28658333Y-73403666D01*
X28491666Y-73403666D01*
X28425000Y-73437000D01*
X28391666Y-73470333D01*
X28358333Y-73537000D01*
X28358333Y-73603666D01*
X28391666Y-73703666D01*
X28791666Y-74103666D01*
X28358333Y-74103666D01*
X27725000Y-73403666D02*
X28058333Y-73403666D01*
X28091666Y-73737000D01*
X28058333Y-73703666D01*
X27991666Y-73670333D01*
X27825000Y-73670333D01*
X27758333Y-73703666D01*
X27725000Y-73737000D01*
X27691666Y-73803666D01*
X27691666Y-73970333D01*
X27725000Y-74037000D01*
X27758333Y-74070333D01*
X27825000Y-74103666D01*
X27991666Y-74103666D01*
X28058333Y-74070333D01*
X28091666Y-74037000D01*
X27272400Y-36724400D02*
X27305733Y-36757733D01*
X27405733Y-36791066D01*
X27472400Y-36791066D01*
X27572400Y-36757733D01*
X27639066Y-36691066D01*
X27672400Y-36624400D01*
X27705733Y-36491066D01*
X27705733Y-36391066D01*
X27672400Y-36257733D01*
X27639066Y-36191066D01*
X27572400Y-36124400D01*
X27472400Y-36091066D01*
X27405733Y-36091066D01*
X27305733Y-36124400D01*
X27272400Y-36157733D01*
X27005733Y-36157733D02*
X26972400Y-36124400D01*
X26905733Y-36091066D01*
X26739066Y-36091066D01*
X26672400Y-36124400D01*
X26639066Y-36157733D01*
X26605733Y-36224400D01*
X26605733Y-36291066D01*
X26639066Y-36391066D01*
X27039066Y-36791066D01*
X26605733Y-36791066D01*
X26005733Y-36324400D02*
X26005733Y-36791066D01*
X26172400Y-36057733D02*
X26339066Y-36557733D01*
X25905733Y-36557733D01*
X9086000Y-61464000D02*
X9119333Y-61497333D01*
X9219333Y-61530666D01*
X9286000Y-61530666D01*
X9386000Y-61497333D01*
X9452666Y-61430666D01*
X9486000Y-61364000D01*
X9519333Y-61230666D01*
X9519333Y-61130666D01*
X9486000Y-60997333D01*
X9452666Y-60930666D01*
X9386000Y-60864000D01*
X9286000Y-60830666D01*
X9219333Y-60830666D01*
X9119333Y-60864000D01*
X9086000Y-60897333D01*
X8819333Y-60897333D02*
X8786000Y-60864000D01*
X8719333Y-60830666D01*
X8552666Y-60830666D01*
X8486000Y-60864000D01*
X8452666Y-60897333D01*
X8419333Y-60964000D01*
X8419333Y-61030666D01*
X8452666Y-61130666D01*
X8852666Y-61530666D01*
X8419333Y-61530666D01*
X8186000Y-60830666D02*
X7752666Y-60830666D01*
X7986000Y-61097333D01*
X7886000Y-61097333D01*
X7819333Y-61130666D01*
X7786000Y-61164000D01*
X7752666Y-61230666D01*
X7752666Y-61397333D01*
X7786000Y-61464000D01*
X7819333Y-61497333D01*
X7886000Y-61530666D01*
X8086000Y-61530666D01*
X8152666Y-61497333D01*
X8186000Y-61464000D01*
X19246000Y-36699000D02*
X19279333Y-36732333D01*
X19379333Y-36765666D01*
X19446000Y-36765666D01*
X19546000Y-36732333D01*
X19612666Y-36665666D01*
X19646000Y-36599000D01*
X19679333Y-36465666D01*
X19679333Y-36365666D01*
X19646000Y-36232333D01*
X19612666Y-36165666D01*
X19546000Y-36099000D01*
X19446000Y-36065666D01*
X19379333Y-36065666D01*
X19279333Y-36099000D01*
X19246000Y-36132333D01*
X18979333Y-36132333D02*
X18946000Y-36099000D01*
X18879333Y-36065666D01*
X18712666Y-36065666D01*
X18646000Y-36099000D01*
X18612666Y-36132333D01*
X18579333Y-36199000D01*
X18579333Y-36265666D01*
X18612666Y-36365666D01*
X19012666Y-36765666D01*
X18579333Y-36765666D01*
X18312666Y-36132333D02*
X18279333Y-36099000D01*
X18212666Y-36065666D01*
X18046000Y-36065666D01*
X17979333Y-36099000D01*
X17946000Y-36132333D01*
X17912666Y-36199000D01*
X17912666Y-36265666D01*
X17946000Y-36365666D01*
X18346000Y-36765666D01*
X17912666Y-36765666D01*
X13658000Y-77212000D02*
X13691333Y-77245333D01*
X13791333Y-77278666D01*
X13858000Y-77278666D01*
X13958000Y-77245333D01*
X14024666Y-77178666D01*
X14058000Y-77112000D01*
X14091333Y-76978666D01*
X14091333Y-76878666D01*
X14058000Y-76745333D01*
X14024666Y-76678666D01*
X13958000Y-76612000D01*
X13858000Y-76578666D01*
X13791333Y-76578666D01*
X13691333Y-76612000D01*
X13658000Y-76645333D01*
X13391333Y-76645333D02*
X13358000Y-76612000D01*
X13291333Y-76578666D01*
X13124666Y-76578666D01*
X13058000Y-76612000D01*
X13024666Y-76645333D01*
X12991333Y-76712000D01*
X12991333Y-76778666D01*
X13024666Y-76878666D01*
X13424666Y-77278666D01*
X12991333Y-77278666D01*
X12324666Y-77278666D02*
X12724666Y-77278666D01*
X12524666Y-77278666D02*
X12524666Y-76578666D01*
X12591333Y-76678666D01*
X12658000Y-76745333D01*
X12724666Y-76778666D01*
X15944000Y-62861000D02*
X15977333Y-62894333D01*
X16077333Y-62927666D01*
X16144000Y-62927666D01*
X16244000Y-62894333D01*
X16310666Y-62827666D01*
X16344000Y-62761000D01*
X16377333Y-62627666D01*
X16377333Y-62527666D01*
X16344000Y-62394333D01*
X16310666Y-62327666D01*
X16244000Y-62261000D01*
X16144000Y-62227666D01*
X16077333Y-62227666D01*
X15977333Y-62261000D01*
X15944000Y-62294333D01*
X15677333Y-62294333D02*
X15644000Y-62261000D01*
X15577333Y-62227666D01*
X15410666Y-62227666D01*
X15344000Y-62261000D01*
X15310666Y-62294333D01*
X15277333Y-62361000D01*
X15277333Y-62427666D01*
X15310666Y-62527666D01*
X15710666Y-62927666D01*
X15277333Y-62927666D01*
X14844000Y-62227666D02*
X14777333Y-62227666D01*
X14710666Y-62261000D01*
X14677333Y-62294333D01*
X14644000Y-62361000D01*
X14610666Y-62494333D01*
X14610666Y-62661000D01*
X14644000Y-62794333D01*
X14677333Y-62861000D01*
X14710666Y-62894333D01*
X14777333Y-62927666D01*
X14844000Y-62927666D01*
X14910666Y-62894333D01*
X14944000Y-62861000D01*
X14977333Y-62794333D01*
X15010666Y-62661000D01*
X15010666Y-62494333D01*
X14977333Y-62361000D01*
X14944000Y-62294333D01*
X14910666Y-62261000D01*
X14844000Y-62227666D01*
X13683500Y-78863000D02*
X13716833Y-78896333D01*
X13816833Y-78929666D01*
X13883500Y-78929666D01*
X13983500Y-78896333D01*
X14050166Y-78829666D01*
X14083500Y-78763000D01*
X14116833Y-78629666D01*
X14116833Y-78529666D01*
X14083500Y-78396333D01*
X14050166Y-78329666D01*
X13983500Y-78263000D01*
X13883500Y-78229666D01*
X13816833Y-78229666D01*
X13716833Y-78263000D01*
X13683500Y-78296333D01*
X13016833Y-78929666D02*
X13416833Y-78929666D01*
X13216833Y-78929666D02*
X13216833Y-78229666D01*
X13283500Y-78329666D01*
X13350166Y-78396333D01*
X13416833Y-78429666D01*
X12683500Y-78929666D02*
X12550166Y-78929666D01*
X12483500Y-78896333D01*
X12450166Y-78863000D01*
X12383500Y-78763000D01*
X12350166Y-78629666D01*
X12350166Y-78363000D01*
X12383500Y-78296333D01*
X12416833Y-78263000D01*
X12483500Y-78229666D01*
X12616833Y-78229666D01*
X12683500Y-78263000D01*
X12716833Y-78296333D01*
X12750166Y-78363000D01*
X12750166Y-78529666D01*
X12716833Y-78596333D01*
X12683500Y-78629666D01*
X12616833Y-78663000D01*
X12483500Y-78663000D01*
X12416833Y-78629666D01*
X12383500Y-78596333D01*
X12350166Y-78529666D01*
X14166000Y-113153000D02*
X14199333Y-113186333D01*
X14299333Y-113219666D01*
X14366000Y-113219666D01*
X14466000Y-113186333D01*
X14532666Y-113119666D01*
X14566000Y-113053000D01*
X14599333Y-112919666D01*
X14599333Y-112819666D01*
X14566000Y-112686333D01*
X14532666Y-112619666D01*
X14466000Y-112553000D01*
X14366000Y-112519666D01*
X14299333Y-112519666D01*
X14199333Y-112553000D01*
X14166000Y-112586333D01*
X13499333Y-113219666D02*
X13899333Y-113219666D01*
X13699333Y-113219666D02*
X13699333Y-112519666D01*
X13766000Y-112619666D01*
X13832666Y-112686333D01*
X13899333Y-112719666D01*
X13099333Y-112819666D02*
X13166000Y-112786333D01*
X13199333Y-112753000D01*
X13232666Y-112686333D01*
X13232666Y-112653000D01*
X13199333Y-112586333D01*
X13166000Y-112553000D01*
X13099333Y-112519666D01*
X12966000Y-112519666D01*
X12899333Y-112553000D01*
X12866000Y-112586333D01*
X12832666Y-112653000D01*
X12832666Y-112686333D01*
X12866000Y-112753000D01*
X12899333Y-112786333D01*
X12966000Y-112819666D01*
X13099333Y-112819666D01*
X13166000Y-112853000D01*
X13199333Y-112886333D01*
X13232666Y-112953000D01*
X13232666Y-113086333D01*
X13199333Y-113153000D01*
X13166000Y-113186333D01*
X13099333Y-113219666D01*
X12966000Y-113219666D01*
X12899333Y-113186333D01*
X12866000Y-113153000D01*
X12832666Y-113086333D01*
X12832666Y-112953000D01*
X12866000Y-112886333D01*
X12899333Y-112853000D01*
X12966000Y-112819666D01*
X14166000Y-111629000D02*
X14199333Y-111662333D01*
X14299333Y-111695666D01*
X14366000Y-111695666D01*
X14466000Y-111662333D01*
X14532666Y-111595666D01*
X14566000Y-111529000D01*
X14599333Y-111395666D01*
X14599333Y-111295666D01*
X14566000Y-111162333D01*
X14532666Y-111095666D01*
X14466000Y-111029000D01*
X14366000Y-110995666D01*
X14299333Y-110995666D01*
X14199333Y-111029000D01*
X14166000Y-111062333D01*
X13499333Y-111695666D02*
X13899333Y-111695666D01*
X13699333Y-111695666D02*
X13699333Y-110995666D01*
X13766000Y-111095666D01*
X13832666Y-111162333D01*
X13899333Y-111195666D01*
X13266000Y-110995666D02*
X12799333Y-110995666D01*
X13099333Y-111695666D01*
X14166000Y-92706000D02*
X14199333Y-92739333D01*
X14299333Y-92772666D01*
X14366000Y-92772666D01*
X14466000Y-92739333D01*
X14532666Y-92672666D01*
X14566000Y-92606000D01*
X14599333Y-92472666D01*
X14599333Y-92372666D01*
X14566000Y-92239333D01*
X14532666Y-92172666D01*
X14466000Y-92106000D01*
X14366000Y-92072666D01*
X14299333Y-92072666D01*
X14199333Y-92106000D01*
X14166000Y-92139333D01*
X13499333Y-92772666D02*
X13899333Y-92772666D01*
X13699333Y-92772666D02*
X13699333Y-92072666D01*
X13766000Y-92172666D01*
X13832666Y-92239333D01*
X13899333Y-92272666D01*
X12899333Y-92072666D02*
X13032666Y-92072666D01*
X13099333Y-92106000D01*
X13132666Y-92139333D01*
X13199333Y-92239333D01*
X13232666Y-92372666D01*
X13232666Y-92639333D01*
X13199333Y-92706000D01*
X13166000Y-92739333D01*
X13099333Y-92772666D01*
X12966000Y-92772666D01*
X12899333Y-92739333D01*
X12866000Y-92706000D01*
X12832666Y-92639333D01*
X12832666Y-92472666D01*
X12866000Y-92406000D01*
X12899333Y-92372666D01*
X12966000Y-92339333D01*
X13099333Y-92339333D01*
X13166000Y-92372666D01*
X13199333Y-92406000D01*
X13232666Y-92472666D01*
X14166000Y-91182000D02*
X14199333Y-91215333D01*
X14299333Y-91248666D01*
X14366000Y-91248666D01*
X14466000Y-91215333D01*
X14532666Y-91148666D01*
X14566000Y-91082000D01*
X14599333Y-90948666D01*
X14599333Y-90848666D01*
X14566000Y-90715333D01*
X14532666Y-90648666D01*
X14466000Y-90582000D01*
X14366000Y-90548666D01*
X14299333Y-90548666D01*
X14199333Y-90582000D01*
X14166000Y-90615333D01*
X13499333Y-91248666D02*
X13899333Y-91248666D01*
X13699333Y-91248666D02*
X13699333Y-90548666D01*
X13766000Y-90648666D01*
X13832666Y-90715333D01*
X13899333Y-90748666D01*
X12866000Y-90548666D02*
X13199333Y-90548666D01*
X13232666Y-90882000D01*
X13199333Y-90848666D01*
X13132666Y-90815333D01*
X12966000Y-90815333D01*
X12899333Y-90848666D01*
X12866000Y-90882000D01*
X12832666Y-90948666D01*
X12832666Y-91115333D01*
X12866000Y-91182000D01*
X12899333Y-91215333D01*
X12966000Y-91248666D01*
X13132666Y-91248666D01*
X13199333Y-91215333D01*
X13232666Y-91182000D01*
X10530666Y-27682000D02*
X10564000Y-27715333D01*
X10664000Y-27748666D01*
X10730666Y-27748666D01*
X10830666Y-27715333D01*
X10897333Y-27648666D01*
X10930666Y-27582000D01*
X10964000Y-27448666D01*
X10964000Y-27348666D01*
X10930666Y-27215333D01*
X10897333Y-27148666D01*
X10830666Y-27082000D01*
X10730666Y-27048666D01*
X10664000Y-27048666D01*
X10564000Y-27082000D01*
X10530666Y-27115333D01*
X10197333Y-27748666D02*
X10064000Y-27748666D01*
X9997333Y-27715333D01*
X9964000Y-27682000D01*
X9897333Y-27582000D01*
X9864000Y-27448666D01*
X9864000Y-27182000D01*
X9897333Y-27115333D01*
X9930666Y-27082000D01*
X9997333Y-27048666D01*
X10130666Y-27048666D01*
X10197333Y-27082000D01*
X10230666Y-27115333D01*
X10264000Y-27182000D01*
X10264000Y-27348666D01*
X10230666Y-27415333D01*
X10197333Y-27448666D01*
X10130666Y-27482000D01*
X9997333Y-27482000D01*
X9930666Y-27448666D01*
X9897333Y-27415333D01*
X9864000Y-27348666D01*
X4815666Y-39620000D02*
X4849000Y-39653333D01*
X4949000Y-39686666D01*
X5015666Y-39686666D01*
X5115666Y-39653333D01*
X5182333Y-39586666D01*
X5215666Y-39520000D01*
X5249000Y-39386666D01*
X5249000Y-39286666D01*
X5215666Y-39153333D01*
X5182333Y-39086666D01*
X5115666Y-39020000D01*
X5015666Y-38986666D01*
X4949000Y-38986666D01*
X4849000Y-39020000D01*
X4815666Y-39053333D01*
X4582333Y-38986666D02*
X4115666Y-38986666D01*
X4415666Y-39686666D01*
X4688666Y-89658000D02*
X4722000Y-89691333D01*
X4822000Y-89724666D01*
X4888666Y-89724666D01*
X4988666Y-89691333D01*
X5055333Y-89624666D01*
X5088666Y-89558000D01*
X5122000Y-89424666D01*
X5122000Y-89324666D01*
X5088666Y-89191333D01*
X5055333Y-89124666D01*
X4988666Y-89058000D01*
X4888666Y-89024666D01*
X4822000Y-89024666D01*
X4722000Y-89058000D01*
X4688666Y-89091333D01*
X4088666Y-89258000D02*
X4088666Y-89724666D01*
X4255333Y-88991333D02*
X4422000Y-89491333D01*
X3988666Y-89491333D01*
X10911666Y-95881000D02*
X10945000Y-95914333D01*
X11045000Y-95947666D01*
X11111666Y-95947666D01*
X11211666Y-95914333D01*
X11278333Y-95847666D01*
X11311666Y-95781000D01*
X11345000Y-95647666D01*
X11345000Y-95547666D01*
X11311666Y-95414333D01*
X11278333Y-95347666D01*
X11211666Y-95281000D01*
X11111666Y-95247666D01*
X11045000Y-95247666D01*
X10945000Y-95281000D01*
X10911666Y-95314333D01*
X10245000Y-95947666D02*
X10645000Y-95947666D01*
X10445000Y-95947666D02*
X10445000Y-95247666D01*
X10511666Y-95347666D01*
X10578333Y-95414333D01*
X10645000Y-95447666D01*
X13832666Y-21840000D02*
X13866000Y-21873333D01*
X13966000Y-21906666D01*
X14032666Y-21906666D01*
X14132666Y-21873333D01*
X14199333Y-21806666D01*
X14232666Y-21740000D01*
X14266000Y-21606666D01*
X14266000Y-21506666D01*
X14232666Y-21373333D01*
X14199333Y-21306666D01*
X14132666Y-21240000D01*
X14032666Y-21206666D01*
X13966000Y-21206666D01*
X13866000Y-21240000D01*
X13832666Y-21273333D01*
X13232666Y-21206666D02*
X13366000Y-21206666D01*
X13432666Y-21240000D01*
X13466000Y-21273333D01*
X13532666Y-21373333D01*
X13566000Y-21506666D01*
X13566000Y-21773333D01*
X13532666Y-21840000D01*
X13499333Y-21873333D01*
X13432666Y-21906666D01*
X13299333Y-21906666D01*
X13232666Y-21873333D01*
X13199333Y-21840000D01*
X13166000Y-21773333D01*
X13166000Y-21606666D01*
X13199333Y-21540000D01*
X13232666Y-21506666D01*
X13299333Y-21473333D01*
X13432666Y-21473333D01*
X13499333Y-21506666D01*
X13532666Y-21540000D01*
X13566000Y-21606666D01*
X22849666Y-19300000D02*
X22883000Y-19333333D01*
X22983000Y-19366666D01*
X23049666Y-19366666D01*
X23149666Y-19333333D01*
X23216333Y-19266666D01*
X23249666Y-19200000D01*
X23283000Y-19066666D01*
X23283000Y-18966666D01*
X23249666Y-18833333D01*
X23216333Y-18766666D01*
X23149666Y-18700000D01*
X23049666Y-18666666D01*
X22983000Y-18666666D01*
X22883000Y-18700000D01*
X22849666Y-18733333D01*
X22216333Y-18666666D02*
X22549666Y-18666666D01*
X22583000Y-19000000D01*
X22549666Y-18966666D01*
X22483000Y-18933333D01*
X22316333Y-18933333D01*
X22249666Y-18966666D01*
X22216333Y-19000000D01*
X22183000Y-19066666D01*
X22183000Y-19233333D01*
X22216333Y-19300000D01*
X22249666Y-19333333D01*
X22316333Y-19366666D01*
X22483000Y-19366666D01*
X22549666Y-19333333D01*
X22583000Y-19300000D01*
X28136000Y-109216000D02*
X28169333Y-109249333D01*
X28269333Y-109282666D01*
X28336000Y-109282666D01*
X28436000Y-109249333D01*
X28502666Y-109182666D01*
X28536000Y-109116000D01*
X28569333Y-108982666D01*
X28569333Y-108882666D01*
X28536000Y-108749333D01*
X28502666Y-108682666D01*
X28436000Y-108616000D01*
X28336000Y-108582666D01*
X28269333Y-108582666D01*
X28169333Y-108616000D01*
X28136000Y-108649333D01*
X27469333Y-109282666D02*
X27869333Y-109282666D01*
X27669333Y-109282666D02*
X27669333Y-108582666D01*
X27736000Y-108682666D01*
X27802666Y-108749333D01*
X27869333Y-108782666D01*
X26869333Y-108816000D02*
X26869333Y-109282666D01*
X27036000Y-108549333D02*
X27202666Y-109049333D01*
X26769333Y-109049333D01*
X14191500Y-109724000D02*
X14224833Y-109757333D01*
X14324833Y-109790666D01*
X14391500Y-109790666D01*
X14491500Y-109757333D01*
X14558166Y-109690666D01*
X14591500Y-109624000D01*
X14624833Y-109490666D01*
X14624833Y-109390666D01*
X14591500Y-109257333D01*
X14558166Y-109190666D01*
X14491500Y-109124000D01*
X14391500Y-109090666D01*
X14324833Y-109090666D01*
X14224833Y-109124000D01*
X14191500Y-109157333D01*
X13524833Y-109790666D02*
X13924833Y-109790666D01*
X13724833Y-109790666D02*
X13724833Y-109090666D01*
X13791500Y-109190666D01*
X13858166Y-109257333D01*
X13924833Y-109290666D01*
X13291500Y-109090666D02*
X12858166Y-109090666D01*
X13091500Y-109357333D01*
X12991500Y-109357333D01*
X12924833Y-109390666D01*
X12891500Y-109424000D01*
X12858166Y-109490666D01*
X12858166Y-109657333D01*
X12891500Y-109724000D01*
X12924833Y-109757333D01*
X12991500Y-109790666D01*
X13191500Y-109790666D01*
X13258166Y-109757333D01*
X13291500Y-109724000D01*
X28136000Y-89277000D02*
X28169333Y-89310333D01*
X28269333Y-89343666D01*
X28336000Y-89343666D01*
X28436000Y-89310333D01*
X28502666Y-89243666D01*
X28536000Y-89177000D01*
X28569333Y-89043666D01*
X28569333Y-88943666D01*
X28536000Y-88810333D01*
X28502666Y-88743666D01*
X28436000Y-88677000D01*
X28336000Y-88643666D01*
X28269333Y-88643666D01*
X28169333Y-88677000D01*
X28136000Y-88710333D01*
X27469333Y-89343666D02*
X27869333Y-89343666D01*
X27669333Y-89343666D02*
X27669333Y-88643666D01*
X27736000Y-88743666D01*
X27802666Y-88810333D01*
X27869333Y-88843666D01*
X27202666Y-88710333D02*
X27169333Y-88677000D01*
X27102666Y-88643666D01*
X26936000Y-88643666D01*
X26869333Y-88677000D01*
X26836000Y-88710333D01*
X26802666Y-88777000D01*
X26802666Y-88843666D01*
X26836000Y-88943666D01*
X27236000Y-89343666D01*
X26802666Y-89343666D01*
X14166000Y-89404000D02*
X14199333Y-89437333D01*
X14299333Y-89470666D01*
X14366000Y-89470666D01*
X14466000Y-89437333D01*
X14532666Y-89370666D01*
X14566000Y-89304000D01*
X14599333Y-89170666D01*
X14599333Y-89070666D01*
X14566000Y-88937333D01*
X14532666Y-88870666D01*
X14466000Y-88804000D01*
X14366000Y-88770666D01*
X14299333Y-88770666D01*
X14199333Y-88804000D01*
X14166000Y-88837333D01*
X13499333Y-89470666D02*
X13899333Y-89470666D01*
X13699333Y-89470666D02*
X13699333Y-88770666D01*
X13766000Y-88870666D01*
X13832666Y-88937333D01*
X13899333Y-88970666D01*
X13066000Y-88770666D02*
X12999333Y-88770666D01*
X12932666Y-88804000D01*
X12899333Y-88837333D01*
X12866000Y-88904000D01*
X12832666Y-89037333D01*
X12832666Y-89204000D01*
X12866000Y-89337333D01*
X12899333Y-89404000D01*
X12932666Y-89437333D01*
X12999333Y-89470666D01*
X13066000Y-89470666D01*
X13132666Y-89437333D01*
X13166000Y-89404000D01*
X13199333Y-89337333D01*
X13232666Y-89204000D01*
X13232666Y-89037333D01*
X13199333Y-88904000D01*
X13166000Y-88837333D01*
X13132666Y-88804000D01*
X13066000Y-88770666D01*
X7308000Y-59879666D02*
X7541333Y-59546333D01*
X7708000Y-59879666D02*
X7708000Y-59179666D01*
X7441333Y-59179666D01*
X7374666Y-59213000D01*
X7341333Y-59246333D01*
X7308000Y-59313000D01*
X7308000Y-59413000D01*
X7341333Y-59479666D01*
X7374666Y-59513000D01*
X7441333Y-59546333D01*
X7708000Y-59546333D01*
X7041333Y-59246333D02*
X7008000Y-59213000D01*
X6941333Y-59179666D01*
X6774666Y-59179666D01*
X6708000Y-59213000D01*
X6674666Y-59246333D01*
X6641333Y-59313000D01*
X6641333Y-59379666D01*
X6674666Y-59479666D01*
X7074666Y-59879666D01*
X6641333Y-59879666D01*
X6374666Y-59246333D02*
X6341333Y-59213000D01*
X6274666Y-59179666D01*
X6108000Y-59179666D01*
X6041333Y-59213000D01*
X6008000Y-59246333D01*
X5974666Y-59313000D01*
X5974666Y-59379666D01*
X6008000Y-59479666D01*
X6408000Y-59879666D01*
X5974666Y-59879666D01*
X6673000Y-44639666D02*
X6906333Y-44306333D01*
X7073000Y-44639666D02*
X7073000Y-43939666D01*
X6806333Y-43939666D01*
X6739666Y-43973000D01*
X6706333Y-44006333D01*
X6673000Y-44073000D01*
X6673000Y-44173000D01*
X6706333Y-44239666D01*
X6739666Y-44273000D01*
X6806333Y-44306333D01*
X7073000Y-44306333D01*
X6039666Y-43939666D02*
X6373000Y-43939666D01*
X6406333Y-44273000D01*
X6373000Y-44239666D01*
X6306333Y-44206333D01*
X6139666Y-44206333D01*
X6073000Y-44239666D01*
X6039666Y-44273000D01*
X6006333Y-44339666D01*
X6006333Y-44506333D01*
X6039666Y-44573000D01*
X6073000Y-44606333D01*
X6139666Y-44639666D01*
X6306333Y-44639666D01*
X6373000Y-44606333D01*
X6406333Y-44573000D01*
X5773000Y-43939666D02*
X5339666Y-43939666D01*
X5573000Y-44206333D01*
X5473000Y-44206333D01*
X5406333Y-44239666D01*
X5373000Y-44273000D01*
X5339666Y-44339666D01*
X5339666Y-44506333D01*
X5373000Y-44573000D01*
X5406333Y-44606333D01*
X5473000Y-44639666D01*
X5673000Y-44639666D01*
X5739666Y-44606333D01*
X5773000Y-44573000D01*
X14166000Y-51243666D02*
X14399333Y-50910333D01*
X14566000Y-51243666D02*
X14566000Y-50543666D01*
X14299333Y-50543666D01*
X14232666Y-50577000D01*
X14199333Y-50610333D01*
X14166000Y-50677000D01*
X14166000Y-50777000D01*
X14199333Y-50843666D01*
X14232666Y-50877000D01*
X14299333Y-50910333D01*
X14566000Y-50910333D01*
X13532666Y-50543666D02*
X13866000Y-50543666D01*
X13899333Y-50877000D01*
X13866000Y-50843666D01*
X13799333Y-50810333D01*
X13632666Y-50810333D01*
X13566000Y-50843666D01*
X13532666Y-50877000D01*
X13499333Y-50943666D01*
X13499333Y-51110333D01*
X13532666Y-51177000D01*
X13566000Y-51210333D01*
X13632666Y-51243666D01*
X13799333Y-51243666D01*
X13866000Y-51210333D01*
X13899333Y-51177000D01*
X13232666Y-50610333D02*
X13199333Y-50577000D01*
X13132666Y-50543666D01*
X12966000Y-50543666D01*
X12899333Y-50577000D01*
X12866000Y-50610333D01*
X12832666Y-50677000D01*
X12832666Y-50743666D01*
X12866000Y-50843666D01*
X13266000Y-51243666D01*
X12832666Y-51243666D01*
X14013500Y-35749666D02*
X14246833Y-35416333D01*
X14413500Y-35749666D02*
X14413500Y-35049666D01*
X14146833Y-35049666D01*
X14080166Y-35083000D01*
X14046833Y-35116333D01*
X14013500Y-35183000D01*
X14013500Y-35283000D01*
X14046833Y-35349666D01*
X14080166Y-35383000D01*
X14146833Y-35416333D01*
X14413500Y-35416333D01*
X13380166Y-35049666D02*
X13713500Y-35049666D01*
X13746833Y-35383000D01*
X13713500Y-35349666D01*
X13646833Y-35316333D01*
X13480166Y-35316333D01*
X13413500Y-35349666D01*
X13380166Y-35383000D01*
X13346833Y-35449666D01*
X13346833Y-35616333D01*
X13380166Y-35683000D01*
X13413500Y-35716333D01*
X13480166Y-35749666D01*
X13646833Y-35749666D01*
X13713500Y-35716333D01*
X13746833Y-35683000D01*
X12680166Y-35749666D02*
X13080166Y-35749666D01*
X12880166Y-35749666D02*
X12880166Y-35049666D01*
X12946833Y-35149666D01*
X13013500Y-35216333D01*
X13080166Y-35249666D01*
X28644000Y-38873866D02*
X28877333Y-38540533D01*
X29044000Y-38873866D02*
X29044000Y-38173866D01*
X28777333Y-38173866D01*
X28710666Y-38207200D01*
X28677333Y-38240533D01*
X28644000Y-38307200D01*
X28644000Y-38407200D01*
X28677333Y-38473866D01*
X28710666Y-38507200D01*
X28777333Y-38540533D01*
X29044000Y-38540533D01*
X28010666Y-38173866D02*
X28344000Y-38173866D01*
X28377333Y-38507200D01*
X28344000Y-38473866D01*
X28277333Y-38440533D01*
X28110666Y-38440533D01*
X28044000Y-38473866D01*
X28010666Y-38507200D01*
X27977333Y-38573866D01*
X27977333Y-38740533D01*
X28010666Y-38807200D01*
X28044000Y-38840533D01*
X28110666Y-38873866D01*
X28277333Y-38873866D01*
X28344000Y-38840533D01*
X28377333Y-38807200D01*
X27544000Y-38173866D02*
X27477333Y-38173866D01*
X27410666Y-38207200D01*
X27377333Y-38240533D01*
X27344000Y-38307200D01*
X27310666Y-38440533D01*
X27310666Y-38607200D01*
X27344000Y-38740533D01*
X27377333Y-38807200D01*
X27410666Y-38840533D01*
X27477333Y-38873866D01*
X27544000Y-38873866D01*
X27610666Y-38840533D01*
X27644000Y-38807200D01*
X27677333Y-38740533D01*
X27710666Y-38607200D01*
X27710666Y-38440533D01*
X27677333Y-38307200D01*
X27644000Y-38240533D01*
X27610666Y-38207200D01*
X27544000Y-38173866D01*
X10737000Y-42988666D02*
X10970333Y-42655333D01*
X11137000Y-42988666D02*
X11137000Y-42288666D01*
X10870333Y-42288666D01*
X10803666Y-42322000D01*
X10770333Y-42355333D01*
X10737000Y-42422000D01*
X10737000Y-42522000D01*
X10770333Y-42588666D01*
X10803666Y-42622000D01*
X10870333Y-42655333D01*
X11137000Y-42655333D01*
X10137000Y-42522000D02*
X10137000Y-42988666D01*
X10303666Y-42255333D02*
X10470333Y-42755333D01*
X10037000Y-42755333D01*
X9737000Y-42988666D02*
X9603666Y-42988666D01*
X9537000Y-42955333D01*
X9503666Y-42922000D01*
X9437000Y-42822000D01*
X9403666Y-42688666D01*
X9403666Y-42422000D01*
X9437000Y-42355333D01*
X9470333Y-42322000D01*
X9537000Y-42288666D01*
X9670333Y-42288666D01*
X9737000Y-42322000D01*
X9770333Y-42355333D01*
X9803666Y-42422000D01*
X9803666Y-42588666D01*
X9770333Y-42655333D01*
X9737000Y-42688666D01*
X9670333Y-42722000D01*
X9537000Y-42722000D01*
X9470333Y-42688666D01*
X9437000Y-42655333D01*
X9403666Y-42588666D01*
X10737000Y-41337666D02*
X10970333Y-41004333D01*
X11137000Y-41337666D02*
X11137000Y-40637666D01*
X10870333Y-40637666D01*
X10803666Y-40671000D01*
X10770333Y-40704333D01*
X10737000Y-40771000D01*
X10737000Y-40871000D01*
X10770333Y-40937666D01*
X10803666Y-40971000D01*
X10870333Y-41004333D01*
X11137000Y-41004333D01*
X10137000Y-40871000D02*
X10137000Y-41337666D01*
X10303666Y-40604333D02*
X10470333Y-41104333D01*
X10037000Y-41104333D01*
X9670333Y-40937666D02*
X9737000Y-40904333D01*
X9770333Y-40871000D01*
X9803666Y-40804333D01*
X9803666Y-40771000D01*
X9770333Y-40704333D01*
X9737000Y-40671000D01*
X9670333Y-40637666D01*
X9537000Y-40637666D01*
X9470333Y-40671000D01*
X9437000Y-40704333D01*
X9403666Y-40771000D01*
X9403666Y-40804333D01*
X9437000Y-40871000D01*
X9470333Y-40904333D01*
X9537000Y-40937666D01*
X9670333Y-40937666D01*
X9737000Y-40971000D01*
X9770333Y-41004333D01*
X9803666Y-41071000D01*
X9803666Y-41204333D01*
X9770333Y-41271000D01*
X9737000Y-41304333D01*
X9670333Y-41337666D01*
X9537000Y-41337666D01*
X9470333Y-41304333D01*
X9437000Y-41271000D01*
X9403666Y-41204333D01*
X9403666Y-41071000D01*
X9437000Y-41004333D01*
X9470333Y-40971000D01*
X9537000Y-40937666D01*
X10737000Y-39686666D02*
X10970333Y-39353333D01*
X11137000Y-39686666D02*
X11137000Y-38986666D01*
X10870333Y-38986666D01*
X10803666Y-39020000D01*
X10770333Y-39053333D01*
X10737000Y-39120000D01*
X10737000Y-39220000D01*
X10770333Y-39286666D01*
X10803666Y-39320000D01*
X10870333Y-39353333D01*
X11137000Y-39353333D01*
X10137000Y-39220000D02*
X10137000Y-39686666D01*
X10303666Y-38953333D02*
X10470333Y-39453333D01*
X10037000Y-39453333D01*
X9837000Y-38986666D02*
X9370333Y-38986666D01*
X9670333Y-39686666D01*
X13658000Y-73976666D02*
X13891333Y-73643333D01*
X14058000Y-73976666D02*
X14058000Y-73276666D01*
X13791333Y-73276666D01*
X13724666Y-73310000D01*
X13691333Y-73343333D01*
X13658000Y-73410000D01*
X13658000Y-73510000D01*
X13691333Y-73576666D01*
X13724666Y-73610000D01*
X13791333Y-73643333D01*
X14058000Y-73643333D01*
X13058000Y-73510000D02*
X13058000Y-73976666D01*
X13224666Y-73243333D02*
X13391333Y-73743333D01*
X12958000Y-73743333D01*
X12391333Y-73276666D02*
X12524666Y-73276666D01*
X12591333Y-73310000D01*
X12624666Y-73343333D01*
X12691333Y-73443333D01*
X12724666Y-73576666D01*
X12724666Y-73843333D01*
X12691333Y-73910000D01*
X12658000Y-73943333D01*
X12591333Y-73976666D01*
X12458000Y-73976666D01*
X12391333Y-73943333D01*
X12358000Y-73910000D01*
X12324666Y-73843333D01*
X12324666Y-73676666D01*
X12358000Y-73610000D01*
X12391333Y-73576666D01*
X12458000Y-73543333D01*
X12591333Y-73543333D01*
X12658000Y-73576666D01*
X12691333Y-73610000D01*
X12724666Y-73676666D01*
X19246000Y-38416666D02*
X19479333Y-38083333D01*
X19646000Y-38416666D02*
X19646000Y-37716666D01*
X19379333Y-37716666D01*
X19312666Y-37750000D01*
X19279333Y-37783333D01*
X19246000Y-37850000D01*
X19246000Y-37950000D01*
X19279333Y-38016666D01*
X19312666Y-38050000D01*
X19379333Y-38083333D01*
X19646000Y-38083333D01*
X18646000Y-37950000D02*
X18646000Y-38416666D01*
X18812666Y-37683333D02*
X18979333Y-38183333D01*
X18546000Y-38183333D01*
X17946000Y-37716666D02*
X18279333Y-37716666D01*
X18312666Y-38050000D01*
X18279333Y-38016666D01*
X18212666Y-37983333D01*
X18046000Y-37983333D01*
X17979333Y-38016666D01*
X17946000Y-38050000D01*
X17912666Y-38116666D01*
X17912666Y-38283333D01*
X17946000Y-38350000D01*
X17979333Y-38383333D01*
X18046000Y-38416666D01*
X18212666Y-38416666D01*
X18279333Y-38383333D01*
X18312666Y-38350000D01*
X14039000Y-37273666D02*
X14272333Y-36940333D01*
X14439000Y-37273666D02*
X14439000Y-36573666D01*
X14172333Y-36573666D01*
X14105666Y-36607000D01*
X14072333Y-36640333D01*
X14039000Y-36707000D01*
X14039000Y-36807000D01*
X14072333Y-36873666D01*
X14105666Y-36907000D01*
X14172333Y-36940333D01*
X14439000Y-36940333D01*
X13439000Y-36807000D02*
X13439000Y-37273666D01*
X13605666Y-36540333D02*
X13772333Y-37040333D01*
X13339000Y-37040333D01*
X12772333Y-36807000D02*
X12772333Y-37273666D01*
X12939000Y-36540333D02*
X13105666Y-37040333D01*
X12672333Y-37040333D01*
X19246000Y-40067666D02*
X19479333Y-39734333D01*
X19646000Y-40067666D02*
X19646000Y-39367666D01*
X19379333Y-39367666D01*
X19312666Y-39401000D01*
X19279333Y-39434333D01*
X19246000Y-39501000D01*
X19246000Y-39601000D01*
X19279333Y-39667666D01*
X19312666Y-39701000D01*
X19379333Y-39734333D01*
X19646000Y-39734333D01*
X18646000Y-39601000D02*
X18646000Y-40067666D01*
X18812666Y-39334333D02*
X18979333Y-39834333D01*
X18546000Y-39834333D01*
X18346000Y-39367666D02*
X17912666Y-39367666D01*
X18146000Y-39634333D01*
X18046000Y-39634333D01*
X17979333Y-39667666D01*
X17946000Y-39701000D01*
X17912666Y-39767666D01*
X17912666Y-39934333D01*
X17946000Y-40001000D01*
X17979333Y-40034333D01*
X18046000Y-40067666D01*
X18246000Y-40067666D01*
X18312666Y-40034333D01*
X18346000Y-40001000D01*
X14039000Y-34098666D02*
X14272333Y-33765333D01*
X14439000Y-34098666D02*
X14439000Y-33398666D01*
X14172333Y-33398666D01*
X14105666Y-33432000D01*
X14072333Y-33465333D01*
X14039000Y-33532000D01*
X14039000Y-33632000D01*
X14072333Y-33698666D01*
X14105666Y-33732000D01*
X14172333Y-33765333D01*
X14439000Y-33765333D01*
X13439000Y-33632000D02*
X13439000Y-34098666D01*
X13605666Y-33365333D02*
X13772333Y-33865333D01*
X13339000Y-33865333D01*
X13105666Y-33465333D02*
X13072333Y-33432000D01*
X13005666Y-33398666D01*
X12839000Y-33398666D01*
X12772333Y-33432000D01*
X12739000Y-33465333D01*
X12705666Y-33532000D01*
X12705666Y-33598666D01*
X12739000Y-33698666D01*
X13139000Y-34098666D01*
X12705666Y-34098666D01*
X13658000Y-75627666D02*
X13891333Y-75294333D01*
X14058000Y-75627666D02*
X14058000Y-74927666D01*
X13791333Y-74927666D01*
X13724666Y-74961000D01*
X13691333Y-74994333D01*
X13658000Y-75061000D01*
X13658000Y-75161000D01*
X13691333Y-75227666D01*
X13724666Y-75261000D01*
X13791333Y-75294333D01*
X14058000Y-75294333D01*
X13058000Y-75161000D02*
X13058000Y-75627666D01*
X13224666Y-74894333D02*
X13391333Y-75394333D01*
X12958000Y-75394333D01*
X12324666Y-75627666D02*
X12724666Y-75627666D01*
X12524666Y-75627666D02*
X12524666Y-74927666D01*
X12591333Y-75027666D01*
X12658000Y-75094333D01*
X12724666Y-75127666D01*
X26358000Y-73214666D02*
X26591333Y-72881333D01*
X26758000Y-73214666D02*
X26758000Y-72514666D01*
X26491333Y-72514666D01*
X26424666Y-72548000D01*
X26391333Y-72581333D01*
X26358000Y-72648000D01*
X26358000Y-72748000D01*
X26391333Y-72814666D01*
X26424666Y-72848000D01*
X26491333Y-72881333D01*
X26758000Y-72881333D01*
X25758000Y-72748000D02*
X25758000Y-73214666D01*
X25924666Y-72481333D02*
X26091333Y-72981333D01*
X25658000Y-72981333D01*
X25258000Y-72514666D02*
X25191333Y-72514666D01*
X25124666Y-72548000D01*
X25091333Y-72581333D01*
X25058000Y-72648000D01*
X25024666Y-72781333D01*
X25024666Y-72948000D01*
X25058000Y-73081333D01*
X25091333Y-73148000D01*
X25124666Y-73181333D01*
X25191333Y-73214666D01*
X25258000Y-73214666D01*
X25324666Y-73181333D01*
X25358000Y-73148000D01*
X25391333Y-73081333D01*
X25424666Y-72948000D01*
X25424666Y-72781333D01*
X25391333Y-72648000D01*
X25358000Y-72581333D01*
X25324666Y-72548000D01*
X25258000Y-72514666D01*
X19754000Y-25462666D02*
X19987333Y-25129333D01*
X20154000Y-25462666D02*
X20154000Y-24762666D01*
X19887333Y-24762666D01*
X19820666Y-24796000D01*
X19787333Y-24829333D01*
X19754000Y-24896000D01*
X19754000Y-24996000D01*
X19787333Y-25062666D01*
X19820666Y-25096000D01*
X19887333Y-25129333D01*
X20154000Y-25129333D01*
X19520666Y-24762666D02*
X19087333Y-24762666D01*
X19320666Y-25029333D01*
X19220666Y-25029333D01*
X19154000Y-25062666D01*
X19120666Y-25096000D01*
X19087333Y-25162666D01*
X19087333Y-25329333D01*
X19120666Y-25396000D01*
X19154000Y-25429333D01*
X19220666Y-25462666D01*
X19420666Y-25462666D01*
X19487333Y-25429333D01*
X19520666Y-25396000D01*
X18754000Y-25462666D02*
X18620666Y-25462666D01*
X18554000Y-25429333D01*
X18520666Y-25396000D01*
X18454000Y-25296000D01*
X18420666Y-25162666D01*
X18420666Y-24896000D01*
X18454000Y-24829333D01*
X18487333Y-24796000D01*
X18554000Y-24762666D01*
X18687333Y-24762666D01*
X18754000Y-24796000D01*
X18787333Y-24829333D01*
X18820666Y-24896000D01*
X18820666Y-25062666D01*
X18787333Y-25129333D01*
X18754000Y-25162666D01*
X18687333Y-25196000D01*
X18554000Y-25196000D01*
X18487333Y-25162666D01*
X18454000Y-25129333D01*
X18420666Y-25062666D01*
X25977000Y-25462666D02*
X26210333Y-25129333D01*
X26377000Y-25462666D02*
X26377000Y-24762666D01*
X26110333Y-24762666D01*
X26043666Y-24796000D01*
X26010333Y-24829333D01*
X25977000Y-24896000D01*
X25977000Y-24996000D01*
X26010333Y-25062666D01*
X26043666Y-25096000D01*
X26110333Y-25129333D01*
X26377000Y-25129333D01*
X25743666Y-24762666D02*
X25310333Y-24762666D01*
X25543666Y-25029333D01*
X25443666Y-25029333D01*
X25377000Y-25062666D01*
X25343666Y-25096000D01*
X25310333Y-25162666D01*
X25310333Y-25329333D01*
X25343666Y-25396000D01*
X25377000Y-25429333D01*
X25443666Y-25462666D01*
X25643666Y-25462666D01*
X25710333Y-25429333D01*
X25743666Y-25396000D01*
X24710333Y-24762666D02*
X24843666Y-24762666D01*
X24910333Y-24796000D01*
X24943666Y-24829333D01*
X25010333Y-24929333D01*
X25043666Y-25062666D01*
X25043666Y-25329333D01*
X25010333Y-25396000D01*
X24977000Y-25429333D01*
X24910333Y-25462666D01*
X24777000Y-25462666D01*
X24710333Y-25429333D01*
X24677000Y-25396000D01*
X24643666Y-25329333D01*
X24643666Y-25162666D01*
X24677000Y-25096000D01*
X24710333Y-25062666D01*
X24777000Y-25029333D01*
X24910333Y-25029333D01*
X24977000Y-25062666D01*
X25010333Y-25096000D01*
X25043666Y-25162666D01*
X25977000Y-27113666D02*
X26210333Y-26780333D01*
X26377000Y-27113666D02*
X26377000Y-26413666D01*
X26110333Y-26413666D01*
X26043666Y-26447000D01*
X26010333Y-26480333D01*
X25977000Y-26547000D01*
X25977000Y-26647000D01*
X26010333Y-26713666D01*
X26043666Y-26747000D01*
X26110333Y-26780333D01*
X26377000Y-26780333D01*
X25743666Y-26413666D02*
X25310333Y-26413666D01*
X25543666Y-26680333D01*
X25443666Y-26680333D01*
X25377000Y-26713666D01*
X25343666Y-26747000D01*
X25310333Y-26813666D01*
X25310333Y-26980333D01*
X25343666Y-27047000D01*
X25377000Y-27080333D01*
X25443666Y-27113666D01*
X25643666Y-27113666D01*
X25710333Y-27080333D01*
X25743666Y-27047000D01*
X24677000Y-26413666D02*
X25010333Y-26413666D01*
X25043666Y-26747000D01*
X25010333Y-26713666D01*
X24943666Y-26680333D01*
X24777000Y-26680333D01*
X24710333Y-26713666D01*
X24677000Y-26747000D01*
X24643666Y-26813666D01*
X24643666Y-26980333D01*
X24677000Y-27047000D01*
X24710333Y-27080333D01*
X24777000Y-27113666D01*
X24943666Y-27113666D01*
X25010333Y-27080333D01*
X25043666Y-27047000D01*
X13658000Y-82358666D02*
X13891333Y-82025333D01*
X14058000Y-82358666D02*
X14058000Y-81658666D01*
X13791333Y-81658666D01*
X13724666Y-81692000D01*
X13691333Y-81725333D01*
X13658000Y-81792000D01*
X13658000Y-81892000D01*
X13691333Y-81958666D01*
X13724666Y-81992000D01*
X13791333Y-82025333D01*
X14058000Y-82025333D01*
X13424666Y-81658666D02*
X12991333Y-81658666D01*
X13224666Y-81925333D01*
X13124666Y-81925333D01*
X13058000Y-81958666D01*
X13024666Y-81992000D01*
X12991333Y-82058666D01*
X12991333Y-82225333D01*
X13024666Y-82292000D01*
X13058000Y-82325333D01*
X13124666Y-82358666D01*
X13324666Y-82358666D01*
X13391333Y-82325333D01*
X13424666Y-82292000D01*
X12391333Y-81892000D02*
X12391333Y-82358666D01*
X12558000Y-81625333D02*
X12724666Y-82125333D01*
X12291333Y-82125333D01*
X15924000Y-64451666D02*
X16157333Y-64118333D01*
X16324000Y-64451666D02*
X16324000Y-63751666D01*
X16057333Y-63751666D01*
X15990666Y-63785000D01*
X15957333Y-63818333D01*
X15924000Y-63885000D01*
X15924000Y-63985000D01*
X15957333Y-64051666D01*
X15990666Y-64085000D01*
X16057333Y-64118333D01*
X16324000Y-64118333D01*
X15690666Y-63751666D02*
X15257333Y-63751666D01*
X15490666Y-64018333D01*
X15390666Y-64018333D01*
X15324000Y-64051666D01*
X15290666Y-64085000D01*
X15257333Y-64151666D01*
X15257333Y-64318333D01*
X15290666Y-64385000D01*
X15324000Y-64418333D01*
X15390666Y-64451666D01*
X15590666Y-64451666D01*
X15657333Y-64418333D01*
X15690666Y-64385000D01*
X15024000Y-63751666D02*
X14590666Y-63751666D01*
X14824000Y-64018333D01*
X14724000Y-64018333D01*
X14657333Y-64051666D01*
X14624000Y-64085000D01*
X14590666Y-64151666D01*
X14590666Y-64318333D01*
X14624000Y-64385000D01*
X14657333Y-64418333D01*
X14724000Y-64451666D01*
X14924000Y-64451666D01*
X14990666Y-64418333D01*
X15024000Y-64385000D01*
X25342000Y-64451666D02*
X25575333Y-64118333D01*
X25742000Y-64451666D02*
X25742000Y-63751666D01*
X25475333Y-63751666D01*
X25408666Y-63785000D01*
X25375333Y-63818333D01*
X25342000Y-63885000D01*
X25342000Y-63985000D01*
X25375333Y-64051666D01*
X25408666Y-64085000D01*
X25475333Y-64118333D01*
X25742000Y-64118333D01*
X25108666Y-63751666D02*
X24675333Y-63751666D01*
X24908666Y-64018333D01*
X24808666Y-64018333D01*
X24742000Y-64051666D01*
X24708666Y-64085000D01*
X24675333Y-64151666D01*
X24675333Y-64318333D01*
X24708666Y-64385000D01*
X24742000Y-64418333D01*
X24808666Y-64451666D01*
X25008666Y-64451666D01*
X25075333Y-64418333D01*
X25108666Y-64385000D01*
X24408666Y-63818333D02*
X24375333Y-63785000D01*
X24308666Y-63751666D01*
X24142000Y-63751666D01*
X24075333Y-63785000D01*
X24042000Y-63818333D01*
X24008666Y-63885000D01*
X24008666Y-63951666D01*
X24042000Y-64051666D01*
X24442000Y-64451666D01*
X24008666Y-64451666D01*
X13658000Y-80580666D02*
X13891333Y-80247333D01*
X14058000Y-80580666D02*
X14058000Y-79880666D01*
X13791333Y-79880666D01*
X13724666Y-79914000D01*
X13691333Y-79947333D01*
X13658000Y-80014000D01*
X13658000Y-80114000D01*
X13691333Y-80180666D01*
X13724666Y-80214000D01*
X13791333Y-80247333D01*
X14058000Y-80247333D01*
X13424666Y-79880666D02*
X12991333Y-79880666D01*
X13224666Y-80147333D01*
X13124666Y-80147333D01*
X13058000Y-80180666D01*
X13024666Y-80214000D01*
X12991333Y-80280666D01*
X12991333Y-80447333D01*
X13024666Y-80514000D01*
X13058000Y-80547333D01*
X13124666Y-80580666D01*
X13324666Y-80580666D01*
X13391333Y-80547333D01*
X13424666Y-80514000D01*
X12324666Y-80580666D02*
X12724666Y-80580666D01*
X12524666Y-80580666D02*
X12524666Y-79880666D01*
X12591333Y-79980666D01*
X12658000Y-80047333D01*
X12724666Y-80080666D01*
X26358000Y-82485666D02*
X26591333Y-82152333D01*
X26758000Y-82485666D02*
X26758000Y-81785666D01*
X26491333Y-81785666D01*
X26424666Y-81819000D01*
X26391333Y-81852333D01*
X26358000Y-81919000D01*
X26358000Y-82019000D01*
X26391333Y-82085666D01*
X26424666Y-82119000D01*
X26491333Y-82152333D01*
X26758000Y-82152333D01*
X26124666Y-81785666D02*
X25691333Y-81785666D01*
X25924666Y-82052333D01*
X25824666Y-82052333D01*
X25758000Y-82085666D01*
X25724666Y-82119000D01*
X25691333Y-82185666D01*
X25691333Y-82352333D01*
X25724666Y-82419000D01*
X25758000Y-82452333D01*
X25824666Y-82485666D01*
X26024666Y-82485666D01*
X26091333Y-82452333D01*
X26124666Y-82419000D01*
X25258000Y-81785666D02*
X25191333Y-81785666D01*
X25124666Y-81819000D01*
X25091333Y-81852333D01*
X25058000Y-81919000D01*
X25024666Y-82052333D01*
X25024666Y-82219000D01*
X25058000Y-82352333D01*
X25091333Y-82419000D01*
X25124666Y-82452333D01*
X25191333Y-82485666D01*
X25258000Y-82485666D01*
X25324666Y-82452333D01*
X25358000Y-82419000D01*
X25391333Y-82352333D01*
X25424666Y-82219000D01*
X25424666Y-82052333D01*
X25391333Y-81919000D01*
X25358000Y-81852333D01*
X25324666Y-81819000D01*
X25258000Y-81785666D01*
X18865000Y-49973666D02*
X19098333Y-49640333D01*
X19265000Y-49973666D02*
X19265000Y-49273666D01*
X18998333Y-49273666D01*
X18931666Y-49307000D01*
X18898333Y-49340333D01*
X18865000Y-49407000D01*
X18865000Y-49507000D01*
X18898333Y-49573666D01*
X18931666Y-49607000D01*
X18998333Y-49640333D01*
X19265000Y-49640333D01*
X18598333Y-49340333D02*
X18565000Y-49307000D01*
X18498333Y-49273666D01*
X18331666Y-49273666D01*
X18265000Y-49307000D01*
X18231666Y-49340333D01*
X18198333Y-49407000D01*
X18198333Y-49473666D01*
X18231666Y-49573666D01*
X18631666Y-49973666D01*
X18198333Y-49973666D01*
X17865000Y-49973666D02*
X17731666Y-49973666D01*
X17665000Y-49940333D01*
X17631666Y-49907000D01*
X17565000Y-49807000D01*
X17531666Y-49673666D01*
X17531666Y-49407000D01*
X17565000Y-49340333D01*
X17598333Y-49307000D01*
X17665000Y-49273666D01*
X17798333Y-49273666D01*
X17865000Y-49307000D01*
X17898333Y-49340333D01*
X17931666Y-49407000D01*
X17931666Y-49573666D01*
X17898333Y-49640333D01*
X17865000Y-49673666D01*
X17798333Y-49707000D01*
X17665000Y-49707000D01*
X17598333Y-49673666D01*
X17565000Y-49640333D01*
X17531666Y-49573666D01*
X26307200Y-38111866D02*
X26540533Y-37778533D01*
X26707200Y-38111866D02*
X26707200Y-37411866D01*
X26440533Y-37411866D01*
X26373866Y-37445200D01*
X26340533Y-37478533D01*
X26307200Y-37545200D01*
X26307200Y-37645200D01*
X26340533Y-37711866D01*
X26373866Y-37745200D01*
X26440533Y-37778533D01*
X26707200Y-37778533D01*
X26040533Y-37478533D02*
X26007200Y-37445200D01*
X25940533Y-37411866D01*
X25773866Y-37411866D01*
X25707200Y-37445200D01*
X25673866Y-37478533D01*
X25640533Y-37545200D01*
X25640533Y-37611866D01*
X25673866Y-37711866D01*
X26073866Y-38111866D01*
X25640533Y-38111866D01*
X25240533Y-37711866D02*
X25307200Y-37678533D01*
X25340533Y-37645200D01*
X25373866Y-37578533D01*
X25373866Y-37545200D01*
X25340533Y-37478533D01*
X25307200Y-37445200D01*
X25240533Y-37411866D01*
X25107200Y-37411866D01*
X25040533Y-37445200D01*
X25007200Y-37478533D01*
X24973866Y-37545200D01*
X24973866Y-37578533D01*
X25007200Y-37645200D01*
X25040533Y-37678533D01*
X25107200Y-37711866D01*
X25240533Y-37711866D01*
X25307200Y-37745200D01*
X25340533Y-37778533D01*
X25373866Y-37845200D01*
X25373866Y-37978533D01*
X25340533Y-38045200D01*
X25307200Y-38078533D01*
X25240533Y-38111866D01*
X25107200Y-38111866D01*
X25040533Y-38078533D01*
X25007200Y-38045200D01*
X24973866Y-37978533D01*
X24973866Y-37845200D01*
X25007200Y-37778533D01*
X25040533Y-37745200D01*
X25107200Y-37711866D01*
X3827500Y-64197666D02*
X4060833Y-63864333D01*
X4227500Y-64197666D02*
X4227500Y-63497666D01*
X3960833Y-63497666D01*
X3894166Y-63531000D01*
X3860833Y-63564333D01*
X3827500Y-63631000D01*
X3827500Y-63731000D01*
X3860833Y-63797666D01*
X3894166Y-63831000D01*
X3960833Y-63864333D01*
X4227500Y-63864333D01*
X3560833Y-63564333D02*
X3527500Y-63531000D01*
X3460833Y-63497666D01*
X3294166Y-63497666D01*
X3227500Y-63531000D01*
X3194166Y-63564333D01*
X3160833Y-63631000D01*
X3160833Y-63697666D01*
X3194166Y-63797666D01*
X3594166Y-64197666D01*
X3160833Y-64197666D01*
X2927500Y-63497666D02*
X2460833Y-63497666D01*
X2760833Y-64197666D01*
X18484000Y-82485666D02*
X18717333Y-82152333D01*
X18884000Y-82485666D02*
X18884000Y-81785666D01*
X18617333Y-81785666D01*
X18550666Y-81819000D01*
X18517333Y-81852333D01*
X18484000Y-81919000D01*
X18484000Y-82019000D01*
X18517333Y-82085666D01*
X18550666Y-82119000D01*
X18617333Y-82152333D01*
X18884000Y-82152333D01*
X18217333Y-81852333D02*
X18184000Y-81819000D01*
X18117333Y-81785666D01*
X17950666Y-81785666D01*
X17884000Y-81819000D01*
X17850666Y-81852333D01*
X17817333Y-81919000D01*
X17817333Y-81985666D01*
X17850666Y-82085666D01*
X18250666Y-82485666D01*
X17817333Y-82485666D01*
X17217333Y-81785666D02*
X17350666Y-81785666D01*
X17417333Y-81819000D01*
X17450666Y-81852333D01*
X17517333Y-81952333D01*
X17550666Y-82085666D01*
X17550666Y-82352333D01*
X17517333Y-82419000D01*
X17484000Y-82452333D01*
X17417333Y-82485666D01*
X17284000Y-82485666D01*
X17217333Y-82452333D01*
X17184000Y-82419000D01*
X17150666Y-82352333D01*
X17150666Y-82185666D01*
X17184000Y-82119000D01*
X17217333Y-82085666D01*
X17284000Y-82052333D01*
X17417333Y-82052333D01*
X17484000Y-82085666D01*
X17517333Y-82119000D01*
X17550666Y-82185666D01*
X18865000Y-51624666D02*
X19098333Y-51291333D01*
X19265000Y-51624666D02*
X19265000Y-50924666D01*
X18998333Y-50924666D01*
X18931666Y-50958000D01*
X18898333Y-50991333D01*
X18865000Y-51058000D01*
X18865000Y-51158000D01*
X18898333Y-51224666D01*
X18931666Y-51258000D01*
X18998333Y-51291333D01*
X19265000Y-51291333D01*
X18598333Y-50991333D02*
X18565000Y-50958000D01*
X18498333Y-50924666D01*
X18331666Y-50924666D01*
X18265000Y-50958000D01*
X18231666Y-50991333D01*
X18198333Y-51058000D01*
X18198333Y-51124666D01*
X18231666Y-51224666D01*
X18631666Y-51624666D01*
X18198333Y-51624666D01*
X17565000Y-50924666D02*
X17898333Y-50924666D01*
X17931666Y-51258000D01*
X17898333Y-51224666D01*
X17831666Y-51191333D01*
X17665000Y-51191333D01*
X17598333Y-51224666D01*
X17565000Y-51258000D01*
X17531666Y-51324666D01*
X17531666Y-51491333D01*
X17565000Y-51558000D01*
X17598333Y-51591333D01*
X17665000Y-51624666D01*
X17831666Y-51624666D01*
X17898333Y-51591333D01*
X17931666Y-51558000D01*
X5326000Y-59879666D02*
X5559333Y-59546333D01*
X5726000Y-59879666D02*
X5726000Y-59179666D01*
X5459333Y-59179666D01*
X5392666Y-59213000D01*
X5359333Y-59246333D01*
X5326000Y-59313000D01*
X5326000Y-59413000D01*
X5359333Y-59479666D01*
X5392666Y-59513000D01*
X5459333Y-59546333D01*
X5726000Y-59546333D01*
X5059333Y-59246333D02*
X5026000Y-59213000D01*
X4959333Y-59179666D01*
X4792666Y-59179666D01*
X4726000Y-59213000D01*
X4692666Y-59246333D01*
X4659333Y-59313000D01*
X4659333Y-59379666D01*
X4692666Y-59479666D01*
X5092666Y-59879666D01*
X4659333Y-59879666D01*
X4426000Y-59179666D02*
X3992666Y-59179666D01*
X4226000Y-59446333D01*
X4126000Y-59446333D01*
X4059333Y-59479666D01*
X4026000Y-59513000D01*
X3992666Y-59579666D01*
X3992666Y-59746333D01*
X4026000Y-59813000D01*
X4059333Y-59846333D01*
X4126000Y-59879666D01*
X4326000Y-59879666D01*
X4392666Y-59846333D01*
X4426000Y-59813000D01*
X11753000Y-63054666D02*
X11986333Y-62721333D01*
X12153000Y-63054666D02*
X12153000Y-62354666D01*
X11886333Y-62354666D01*
X11819666Y-62388000D01*
X11786333Y-62421333D01*
X11753000Y-62488000D01*
X11753000Y-62588000D01*
X11786333Y-62654666D01*
X11819666Y-62688000D01*
X11886333Y-62721333D01*
X12153000Y-62721333D01*
X11486333Y-62421333D02*
X11453000Y-62388000D01*
X11386333Y-62354666D01*
X11219666Y-62354666D01*
X11153000Y-62388000D01*
X11119666Y-62421333D01*
X11086333Y-62488000D01*
X11086333Y-62554666D01*
X11119666Y-62654666D01*
X11519666Y-63054666D01*
X11086333Y-63054666D01*
X10419666Y-63054666D02*
X10819666Y-63054666D01*
X10619666Y-63054666D02*
X10619666Y-62354666D01*
X10686333Y-62454666D01*
X10753000Y-62521333D01*
X10819666Y-62554666D01*
X7435000Y-76516666D02*
X7668333Y-76183333D01*
X7835000Y-76516666D02*
X7835000Y-75816666D01*
X7568333Y-75816666D01*
X7501666Y-75850000D01*
X7468333Y-75883333D01*
X7435000Y-75950000D01*
X7435000Y-76050000D01*
X7468333Y-76116666D01*
X7501666Y-76150000D01*
X7568333Y-76183333D01*
X7835000Y-76183333D01*
X7168333Y-75883333D02*
X7135000Y-75850000D01*
X7068333Y-75816666D01*
X6901666Y-75816666D01*
X6835000Y-75850000D01*
X6801666Y-75883333D01*
X6768333Y-75950000D01*
X6768333Y-76016666D01*
X6801666Y-76116666D01*
X7201666Y-76516666D01*
X6768333Y-76516666D01*
X6335000Y-75816666D02*
X6268333Y-75816666D01*
X6201666Y-75850000D01*
X6168333Y-75883333D01*
X6135000Y-75950000D01*
X6101666Y-76083333D01*
X6101666Y-76250000D01*
X6135000Y-76383333D01*
X6168333Y-76450000D01*
X6201666Y-76483333D01*
X6268333Y-76516666D01*
X6335000Y-76516666D01*
X6401666Y-76483333D01*
X6435000Y-76450000D01*
X6468333Y-76383333D01*
X6501666Y-76250000D01*
X6501666Y-76083333D01*
X6468333Y-75950000D01*
X6435000Y-75883333D01*
X6401666Y-75850000D01*
X6335000Y-75816666D01*
X11372000Y-76516666D02*
X11605333Y-76183333D01*
X11772000Y-76516666D02*
X11772000Y-75816666D01*
X11505333Y-75816666D01*
X11438666Y-75850000D01*
X11405333Y-75883333D01*
X11372000Y-75950000D01*
X11372000Y-76050000D01*
X11405333Y-76116666D01*
X11438666Y-76150000D01*
X11505333Y-76183333D01*
X11772000Y-76183333D01*
X10705333Y-76516666D02*
X11105333Y-76516666D01*
X10905333Y-76516666D02*
X10905333Y-75816666D01*
X10972000Y-75916666D01*
X11038666Y-75983333D01*
X11105333Y-76016666D01*
X10305333Y-76116666D02*
X10372000Y-76083333D01*
X10405333Y-76050000D01*
X10438666Y-75983333D01*
X10438666Y-75950000D01*
X10405333Y-75883333D01*
X10372000Y-75850000D01*
X10305333Y-75816666D01*
X10172000Y-75816666D01*
X10105333Y-75850000D01*
X10072000Y-75883333D01*
X10038666Y-75950000D01*
X10038666Y-75983333D01*
X10072000Y-76050000D01*
X10105333Y-76083333D01*
X10172000Y-76116666D01*
X10305333Y-76116666D01*
X10372000Y-76150000D01*
X10405333Y-76183333D01*
X10438666Y-76250000D01*
X10438666Y-76383333D01*
X10405333Y-76450000D01*
X10372000Y-76483333D01*
X10305333Y-76516666D01*
X10172000Y-76516666D01*
X10105333Y-76483333D01*
X10072000Y-76450000D01*
X10038666Y-76383333D01*
X10038666Y-76250000D01*
X10072000Y-76183333D01*
X10105333Y-76150000D01*
X10172000Y-76116666D01*
X26866000Y-46265166D02*
X27099333Y-45931833D01*
X27266000Y-46265166D02*
X27266000Y-45565166D01*
X26999333Y-45565166D01*
X26932666Y-45598500D01*
X26899333Y-45631833D01*
X26866000Y-45698500D01*
X26866000Y-45798500D01*
X26899333Y-45865166D01*
X26932666Y-45898500D01*
X26999333Y-45931833D01*
X27266000Y-45931833D01*
X26199333Y-46265166D02*
X26599333Y-46265166D01*
X26399333Y-46265166D02*
X26399333Y-45565166D01*
X26466000Y-45665166D01*
X26532666Y-45731833D01*
X26599333Y-45765166D01*
X25966000Y-45565166D02*
X25499333Y-45565166D01*
X25799333Y-46265166D01*
X22167000Y-62927666D02*
X22400333Y-62594333D01*
X22567000Y-62927666D02*
X22567000Y-62227666D01*
X22300333Y-62227666D01*
X22233666Y-62261000D01*
X22200333Y-62294333D01*
X22167000Y-62361000D01*
X22167000Y-62461000D01*
X22200333Y-62527666D01*
X22233666Y-62561000D01*
X22300333Y-62594333D01*
X22567000Y-62594333D01*
X21500333Y-62927666D02*
X21900333Y-62927666D01*
X21700333Y-62927666D02*
X21700333Y-62227666D01*
X21767000Y-62327666D01*
X21833666Y-62394333D01*
X21900333Y-62427666D01*
X20900333Y-62227666D02*
X21033666Y-62227666D01*
X21100333Y-62261000D01*
X21133666Y-62294333D01*
X21200333Y-62394333D01*
X21233666Y-62527666D01*
X21233666Y-62794333D01*
X21200333Y-62861000D01*
X21167000Y-62894333D01*
X21100333Y-62927666D01*
X20967000Y-62927666D01*
X20900333Y-62894333D01*
X20867000Y-62861000D01*
X20833666Y-62794333D01*
X20833666Y-62627666D01*
X20867000Y-62561000D01*
X20900333Y-62527666D01*
X20967000Y-62494333D01*
X21100333Y-62494333D01*
X21167000Y-62527666D01*
X21200333Y-62561000D01*
X21233666Y-62627666D01*
X5022000Y-73722666D02*
X5255333Y-73389333D01*
X5422000Y-73722666D02*
X5422000Y-73022666D01*
X5155333Y-73022666D01*
X5088666Y-73056000D01*
X5055333Y-73089333D01*
X5022000Y-73156000D01*
X5022000Y-73256000D01*
X5055333Y-73322666D01*
X5088666Y-73356000D01*
X5155333Y-73389333D01*
X5422000Y-73389333D01*
X4355333Y-73722666D02*
X4755333Y-73722666D01*
X4555333Y-73722666D02*
X4555333Y-73022666D01*
X4622000Y-73122666D01*
X4688666Y-73189333D01*
X4755333Y-73222666D01*
X3722000Y-73022666D02*
X4055333Y-73022666D01*
X4088666Y-73356000D01*
X4055333Y-73322666D01*
X3988666Y-73289333D01*
X3822000Y-73289333D01*
X3755333Y-73322666D01*
X3722000Y-73356000D01*
X3688666Y-73422666D01*
X3688666Y-73589333D01*
X3722000Y-73656000D01*
X3755333Y-73689333D01*
X3822000Y-73722666D01*
X3988666Y-73722666D01*
X4055333Y-73689333D01*
X4088666Y-73656000D01*
X11600500Y-119315666D02*
X11833833Y-118982333D01*
X12000500Y-119315666D02*
X12000500Y-118615666D01*
X11733833Y-118615666D01*
X11667166Y-118649000D01*
X11633833Y-118682333D01*
X11600500Y-118749000D01*
X11600500Y-118849000D01*
X11633833Y-118915666D01*
X11667166Y-118949000D01*
X11733833Y-118982333D01*
X12000500Y-118982333D01*
X10933833Y-119315666D02*
X11333833Y-119315666D01*
X11133833Y-119315666D02*
X11133833Y-118615666D01*
X11200500Y-118715666D01*
X11267166Y-118782333D01*
X11333833Y-118815666D01*
X10333833Y-118849000D02*
X10333833Y-119315666D01*
X10500500Y-118582333D02*
X10667166Y-119082333D01*
X10233833Y-119082333D01*
X11600500Y-109155666D02*
X11833833Y-108822333D01*
X12000500Y-109155666D02*
X12000500Y-108455666D01*
X11733833Y-108455666D01*
X11667166Y-108489000D01*
X11633833Y-108522333D01*
X11600500Y-108589000D01*
X11600500Y-108689000D01*
X11633833Y-108755666D01*
X11667166Y-108789000D01*
X11733833Y-108822333D01*
X12000500Y-108822333D01*
X10933833Y-109155666D02*
X11333833Y-109155666D01*
X11133833Y-109155666D02*
X11133833Y-108455666D01*
X11200500Y-108555666D01*
X11267166Y-108622333D01*
X11333833Y-108655666D01*
X10700500Y-108455666D02*
X10267166Y-108455666D01*
X10500500Y-108722333D01*
X10400500Y-108722333D01*
X10333833Y-108755666D01*
X10300500Y-108789000D01*
X10267166Y-108855666D01*
X10267166Y-109022333D01*
X10300500Y-109089000D01*
X10333833Y-109122333D01*
X10400500Y-109155666D01*
X10600500Y-109155666D01*
X10667166Y-109122333D01*
X10700500Y-109089000D01*
X15156500Y-94296666D02*
X15389833Y-93963333D01*
X15556500Y-94296666D02*
X15556500Y-93596666D01*
X15289833Y-93596666D01*
X15223166Y-93630000D01*
X15189833Y-93663333D01*
X15156500Y-93730000D01*
X15156500Y-93830000D01*
X15189833Y-93896666D01*
X15223166Y-93930000D01*
X15289833Y-93963333D01*
X15556500Y-93963333D01*
X14489833Y-94296666D02*
X14889833Y-94296666D01*
X14689833Y-94296666D02*
X14689833Y-93596666D01*
X14756500Y-93696666D01*
X14823166Y-93763333D01*
X14889833Y-93796666D01*
X14223166Y-93663333D02*
X14189833Y-93630000D01*
X14123166Y-93596666D01*
X13956500Y-93596666D01*
X13889833Y-93630000D01*
X13856500Y-93663333D01*
X13823166Y-93730000D01*
X13823166Y-93796666D01*
X13856500Y-93896666D01*
X14256500Y-94296666D01*
X13823166Y-94296666D01*
X28136000Y-111949666D02*
X28369333Y-111616333D01*
X28536000Y-111949666D02*
X28536000Y-111249666D01*
X28269333Y-111249666D01*
X28202666Y-111283000D01*
X28169333Y-111316333D01*
X28136000Y-111383000D01*
X28136000Y-111483000D01*
X28169333Y-111549666D01*
X28202666Y-111583000D01*
X28269333Y-111616333D01*
X28536000Y-111616333D01*
X27469333Y-111949666D02*
X27869333Y-111949666D01*
X27669333Y-111949666D02*
X27669333Y-111249666D01*
X27736000Y-111349666D01*
X27802666Y-111416333D01*
X27869333Y-111449666D01*
X27036000Y-111249666D02*
X26969333Y-111249666D01*
X26902666Y-111283000D01*
X26869333Y-111316333D01*
X26836000Y-111383000D01*
X26802666Y-111516333D01*
X26802666Y-111683000D01*
X26836000Y-111816333D01*
X26869333Y-111883000D01*
X26902666Y-111916333D01*
X26969333Y-111949666D01*
X27036000Y-111949666D01*
X27102666Y-111916333D01*
X27136000Y-111883000D01*
X27169333Y-111816333D01*
X27202666Y-111683000D01*
X27202666Y-111516333D01*
X27169333Y-111383000D01*
X27136000Y-111316333D01*
X27102666Y-111283000D01*
X27036000Y-111249666D01*
X27040666Y-106234666D02*
X27274000Y-105901333D01*
X27440666Y-106234666D02*
X27440666Y-105534666D01*
X27174000Y-105534666D01*
X27107333Y-105568000D01*
X27074000Y-105601333D01*
X27040666Y-105668000D01*
X27040666Y-105768000D01*
X27074000Y-105834666D01*
X27107333Y-105868000D01*
X27174000Y-105901333D01*
X27440666Y-105901333D01*
X26707333Y-106234666D02*
X26574000Y-106234666D01*
X26507333Y-106201333D01*
X26474000Y-106168000D01*
X26407333Y-106068000D01*
X26374000Y-105934666D01*
X26374000Y-105668000D01*
X26407333Y-105601333D01*
X26440666Y-105568000D01*
X26507333Y-105534666D01*
X26640666Y-105534666D01*
X26707333Y-105568000D01*
X26740666Y-105601333D01*
X26774000Y-105668000D01*
X26774000Y-105834666D01*
X26740666Y-105901333D01*
X26707333Y-105934666D01*
X26640666Y-105968000D01*
X26507333Y-105968000D01*
X26440666Y-105934666D01*
X26407333Y-105901333D01*
X26374000Y-105834666D01*
X29834666Y-92518666D02*
X30068000Y-92185333D01*
X30234666Y-92518666D02*
X30234666Y-91818666D01*
X29968000Y-91818666D01*
X29901333Y-91852000D01*
X29868000Y-91885333D01*
X29834666Y-91952000D01*
X29834666Y-92052000D01*
X29868000Y-92118666D01*
X29901333Y-92152000D01*
X29968000Y-92185333D01*
X30234666Y-92185333D01*
X29434666Y-92118666D02*
X29501333Y-92085333D01*
X29534666Y-92052000D01*
X29568000Y-91985333D01*
X29568000Y-91952000D01*
X29534666Y-91885333D01*
X29501333Y-91852000D01*
X29434666Y-91818666D01*
X29301333Y-91818666D01*
X29234666Y-91852000D01*
X29201333Y-91885333D01*
X29168000Y-91952000D01*
X29168000Y-91985333D01*
X29201333Y-92052000D01*
X29234666Y-92085333D01*
X29301333Y-92118666D01*
X29434666Y-92118666D01*
X29501333Y-92152000D01*
X29534666Y-92185333D01*
X29568000Y-92252000D01*
X29568000Y-92385333D01*
X29534666Y-92452000D01*
X29501333Y-92485333D01*
X29434666Y-92518666D01*
X29301333Y-92518666D01*
X29234666Y-92485333D01*
X29201333Y-92452000D01*
X29168000Y-92385333D01*
X29168000Y-92252000D01*
X29201333Y-92185333D01*
X29234666Y-92152000D01*
X29301333Y-92118666D01*
X29834666Y-87184666D02*
X30068000Y-86851333D01*
X30234666Y-87184666D02*
X30234666Y-86484666D01*
X29968000Y-86484666D01*
X29901333Y-86518000D01*
X29868000Y-86551333D01*
X29834666Y-86618000D01*
X29834666Y-86718000D01*
X29868000Y-86784666D01*
X29901333Y-86818000D01*
X29968000Y-86851333D01*
X30234666Y-86851333D01*
X29601333Y-86484666D02*
X29134666Y-86484666D01*
X29434666Y-87184666D01*
X1259666Y-92645666D02*
X1493000Y-92312333D01*
X1659666Y-92645666D02*
X1659666Y-91945666D01*
X1393000Y-91945666D01*
X1326333Y-91979000D01*
X1293000Y-92012333D01*
X1259666Y-92079000D01*
X1259666Y-92179000D01*
X1293000Y-92245666D01*
X1326333Y-92279000D01*
X1393000Y-92312333D01*
X1659666Y-92312333D01*
X659666Y-91945666D02*
X793000Y-91945666D01*
X859666Y-91979000D01*
X893000Y-92012333D01*
X959666Y-92112333D01*
X993000Y-92245666D01*
X993000Y-92512333D01*
X959666Y-92579000D01*
X926333Y-92612333D01*
X859666Y-92645666D01*
X726333Y-92645666D01*
X659666Y-92612333D01*
X626333Y-92579000D01*
X593000Y-92512333D01*
X593000Y-92345666D01*
X626333Y-92279000D01*
X659666Y-92245666D01*
X726333Y-92212333D01*
X859666Y-92212333D01*
X926333Y-92245666D01*
X959666Y-92279000D01*
X993000Y-92345666D01*
X1259666Y-99376666D02*
X1493000Y-99043333D01*
X1659666Y-99376666D02*
X1659666Y-98676666D01*
X1393000Y-98676666D01*
X1326333Y-98710000D01*
X1293000Y-98743333D01*
X1259666Y-98810000D01*
X1259666Y-98910000D01*
X1293000Y-98976666D01*
X1326333Y-99010000D01*
X1393000Y-99043333D01*
X1659666Y-99043333D01*
X626333Y-98676666D02*
X959666Y-98676666D01*
X993000Y-99010000D01*
X959666Y-98976666D01*
X893000Y-98943333D01*
X726333Y-98943333D01*
X659666Y-98976666D01*
X626333Y-99010000D01*
X593000Y-99076666D01*
X593000Y-99243333D01*
X626333Y-99310000D01*
X659666Y-99343333D01*
X726333Y-99376666D01*
X893000Y-99376666D01*
X959666Y-99343333D01*
X993000Y-99310000D01*
X6314166Y-95947666D02*
X6547500Y-95614333D01*
X6714166Y-95947666D02*
X6714166Y-95247666D01*
X6447500Y-95247666D01*
X6380833Y-95281000D01*
X6347500Y-95314333D01*
X6314166Y-95381000D01*
X6314166Y-95481000D01*
X6347500Y-95547666D01*
X6380833Y-95581000D01*
X6447500Y-95614333D01*
X6714166Y-95614333D01*
X5714166Y-95481000D02*
X5714166Y-95947666D01*
X5880833Y-95214333D02*
X6047500Y-95714333D01*
X5614166Y-95714333D01*
X4434666Y-101281666D02*
X4668000Y-100948333D01*
X4834666Y-101281666D02*
X4834666Y-100581666D01*
X4568000Y-100581666D01*
X4501333Y-100615000D01*
X4468000Y-100648333D01*
X4434666Y-100715000D01*
X4434666Y-100815000D01*
X4468000Y-100881666D01*
X4501333Y-100915000D01*
X4568000Y-100948333D01*
X4834666Y-100948333D01*
X4201333Y-100581666D02*
X3768000Y-100581666D01*
X4001333Y-100848333D01*
X3901333Y-100848333D01*
X3834666Y-100881666D01*
X3801333Y-100915000D01*
X3768000Y-100981666D01*
X3768000Y-101148333D01*
X3801333Y-101215000D01*
X3834666Y-101248333D01*
X3901333Y-101281666D01*
X4101333Y-101281666D01*
X4168000Y-101248333D01*
X4201333Y-101215000D01*
X4434666Y-102805666D02*
X4668000Y-102472333D01*
X4834666Y-102805666D02*
X4834666Y-102105666D01*
X4568000Y-102105666D01*
X4501333Y-102139000D01*
X4468000Y-102172333D01*
X4434666Y-102239000D01*
X4434666Y-102339000D01*
X4468000Y-102405666D01*
X4501333Y-102439000D01*
X4568000Y-102472333D01*
X4834666Y-102472333D01*
X4168000Y-102172333D02*
X4134666Y-102139000D01*
X4068000Y-102105666D01*
X3901333Y-102105666D01*
X3834666Y-102139000D01*
X3801333Y-102172333D01*
X3768000Y-102239000D01*
X3768000Y-102305666D01*
X3801333Y-102405666D01*
X4201333Y-102805666D01*
X3768000Y-102805666D01*
X11419666Y-99249666D02*
X11653000Y-98916333D01*
X11819666Y-99249666D02*
X11819666Y-98549666D01*
X11553000Y-98549666D01*
X11486333Y-98583000D01*
X11453000Y-98616333D01*
X11419666Y-98683000D01*
X11419666Y-98783000D01*
X11453000Y-98849666D01*
X11486333Y-98883000D01*
X11553000Y-98916333D01*
X11819666Y-98916333D01*
X10753000Y-99249666D02*
X11153000Y-99249666D01*
X10953000Y-99249666D02*
X10953000Y-98549666D01*
X11019666Y-98649666D01*
X11086333Y-98716333D01*
X11153000Y-98749666D01*
X11753000Y-85533666D02*
X11986333Y-85200333D01*
X12153000Y-85533666D02*
X12153000Y-84833666D01*
X11886333Y-84833666D01*
X11819666Y-84867000D01*
X11786333Y-84900333D01*
X11753000Y-84967000D01*
X11753000Y-85067000D01*
X11786333Y-85133666D01*
X11819666Y-85167000D01*
X11886333Y-85200333D01*
X12153000Y-85200333D01*
X11086333Y-85533666D02*
X11486333Y-85533666D01*
X11286333Y-85533666D02*
X11286333Y-84833666D01*
X11353000Y-84933666D01*
X11419666Y-85000333D01*
X11486333Y-85033666D01*
X10419666Y-85533666D02*
X10819666Y-85533666D01*
X10619666Y-85533666D02*
X10619666Y-84833666D01*
X10686333Y-84933666D01*
X10753000Y-85000333D01*
X10819666Y-85033666D01*
X10997333Y-21540000D02*
X11230666Y-21540000D01*
X11230666Y-21906666D02*
X11230666Y-21206666D01*
X10897333Y-21206666D01*
X10397333Y-21540000D02*
X10297333Y-21573333D01*
X10264000Y-21606666D01*
X10230666Y-21673333D01*
X10230666Y-21773333D01*
X10264000Y-21840000D01*
X10297333Y-21873333D01*
X10364000Y-21906666D01*
X10630666Y-21906666D01*
X10630666Y-21206666D01*
X10397333Y-21206666D01*
X10330666Y-21240000D01*
X10297333Y-21273333D01*
X10264000Y-21340000D01*
X10264000Y-21406666D01*
X10297333Y-21473333D01*
X10330666Y-21506666D01*
X10397333Y-21540000D01*
X10630666Y-21540000D01*
X9964000Y-21273333D02*
X9930666Y-21240000D01*
X9864000Y-21206666D01*
X9697333Y-21206666D01*
X9630666Y-21240000D01*
X9597333Y-21273333D01*
X9564000Y-21340000D01*
X9564000Y-21406666D01*
X9597333Y-21506666D01*
X9997333Y-21906666D01*
X9564000Y-21906666D01*
X20014333Y-11253000D02*
X20247666Y-11253000D01*
X20247666Y-11619666D02*
X20247666Y-10919666D01*
X19914333Y-10919666D01*
X19414333Y-11253000D02*
X19314333Y-11286333D01*
X19281000Y-11319666D01*
X19247666Y-11386333D01*
X19247666Y-11486333D01*
X19281000Y-11553000D01*
X19314333Y-11586333D01*
X19381000Y-11619666D01*
X19647666Y-11619666D01*
X19647666Y-10919666D01*
X19414333Y-10919666D01*
X19347666Y-10953000D01*
X19314333Y-10986333D01*
X19281000Y-11053000D01*
X19281000Y-11119666D01*
X19314333Y-11186333D01*
X19347666Y-11219666D01*
X19414333Y-11253000D01*
X19647666Y-11253000D01*
X18581000Y-11619666D02*
X18981000Y-11619666D01*
X18781000Y-11619666D02*
X18781000Y-10919666D01*
X18847666Y-11019666D01*
X18914333Y-11086333D01*
X18981000Y-11119666D01*
X22504333Y-106423666D02*
X22504333Y-106990333D01*
X22471000Y-107057000D01*
X22437666Y-107090333D01*
X22371000Y-107123666D01*
X22237666Y-107123666D01*
X22171000Y-107090333D01*
X22137666Y-107057000D01*
X22104333Y-106990333D01*
X22104333Y-106423666D01*
X21471000Y-106657000D02*
X21471000Y-107123666D01*
X21637666Y-106390333D02*
X21804333Y-106890333D01*
X21371000Y-106890333D01*
X11836333Y-35049666D02*
X11836333Y-35616333D01*
X11803000Y-35683000D01*
X11769666Y-35716333D01*
X11703000Y-35749666D01*
X11569666Y-35749666D01*
X11503000Y-35716333D01*
X11469666Y-35683000D01*
X11436333Y-35616333D01*
X11436333Y-35049666D01*
X11136333Y-35116333D02*
X11103000Y-35083000D01*
X11036333Y-35049666D01*
X10869666Y-35049666D01*
X10803000Y-35083000D01*
X10769666Y-35116333D01*
X10736333Y-35183000D01*
X10736333Y-35249666D01*
X10769666Y-35349666D01*
X11169666Y-35749666D01*
X10736333Y-35749666D01*
X9423333Y-43939666D02*
X9423333Y-44506333D01*
X9390000Y-44573000D01*
X9356666Y-44606333D01*
X9290000Y-44639666D01*
X9156666Y-44639666D01*
X9090000Y-44606333D01*
X9056666Y-44573000D01*
X9023333Y-44506333D01*
X9023333Y-43939666D01*
X8656666Y-44639666D02*
X8523333Y-44639666D01*
X8456666Y-44606333D01*
X8423333Y-44573000D01*
X8356666Y-44473000D01*
X8323333Y-44339666D01*
X8323333Y-44073000D01*
X8356666Y-44006333D01*
X8390000Y-43973000D01*
X8456666Y-43939666D01*
X8590000Y-43939666D01*
X8656666Y-43973000D01*
X8690000Y-44006333D01*
X8723333Y-44073000D01*
X8723333Y-44239666D01*
X8690000Y-44306333D01*
X8656666Y-44339666D01*
X8590000Y-44373000D01*
X8456666Y-44373000D01*
X8390000Y-44339666D01*
X8356666Y-44306333D01*
X8323333Y-44239666D01*
X28229666Y-67118666D02*
X28463000Y-66785333D01*
X28629666Y-67118666D02*
X28629666Y-66418666D01*
X28363000Y-66418666D01*
X28296333Y-66452000D01*
X28263000Y-66485333D01*
X28229666Y-66552000D01*
X28229666Y-66652000D01*
X28263000Y-66718666D01*
X28296333Y-66752000D01*
X28363000Y-66785333D01*
X28629666Y-66785333D01*
X28029666Y-66418666D02*
X27796333Y-67118666D01*
X27563000Y-66418666D01*
X26996333Y-66418666D02*
X27329666Y-66418666D01*
X27363000Y-66752000D01*
X27329666Y-66718666D01*
X27263000Y-66685333D01*
X27096333Y-66685333D01*
X27029666Y-66718666D01*
X26996333Y-66752000D01*
X26963000Y-66818666D01*
X26963000Y-66985333D01*
X26996333Y-67052000D01*
X27029666Y-67085333D01*
X27096333Y-67118666D01*
X27263000Y-67118666D01*
X27329666Y-67085333D01*
X27363000Y-67052000D01*
X4988666Y-99503666D02*
X5222000Y-99170333D01*
X5388666Y-99503666D02*
X5388666Y-98803666D01*
X5122000Y-98803666D01*
X5055333Y-98837000D01*
X5022000Y-98870333D01*
X4988666Y-98937000D01*
X4988666Y-99037000D01*
X5022000Y-99103666D01*
X5055333Y-99137000D01*
X5122000Y-99170333D01*
X5388666Y-99170333D01*
X4788666Y-98803666D02*
X4555333Y-99503666D01*
X4322000Y-98803666D01*
X4122000Y-98870333D02*
X4088666Y-98837000D01*
X4022000Y-98803666D01*
X3855333Y-98803666D01*
X3788666Y-98837000D01*
X3755333Y-98870333D01*
X3722000Y-98937000D01*
X3722000Y-99003666D01*
X3755333Y-99103666D01*
X4155333Y-99503666D01*
X3722000Y-99503666D01*
X6512666Y-53656666D02*
X6746000Y-53323333D01*
X6912666Y-53656666D02*
X6912666Y-52956666D01*
X6646000Y-52956666D01*
X6579333Y-52990000D01*
X6546000Y-53023333D01*
X6512666Y-53090000D01*
X6512666Y-53190000D01*
X6546000Y-53256666D01*
X6579333Y-53290000D01*
X6646000Y-53323333D01*
X6912666Y-53323333D01*
X6312666Y-52956666D02*
X6079333Y-53656666D01*
X5846000Y-52956666D01*
X5579333Y-53656666D02*
X5446000Y-53656666D01*
X5379333Y-53623333D01*
X5346000Y-53590000D01*
X5279333Y-53490000D01*
X5246000Y-53356666D01*
X5246000Y-53090000D01*
X5279333Y-53023333D01*
X5312666Y-52990000D01*
X5379333Y-52956666D01*
X5512666Y-52956666D01*
X5579333Y-52990000D01*
X5612666Y-53023333D01*
X5646000Y-53090000D01*
X5646000Y-53256666D01*
X5612666Y-53323333D01*
X5579333Y-53356666D01*
X5512666Y-53390000D01*
X5379333Y-53390000D01*
X5312666Y-53356666D01*
X5279333Y-53323333D01*
X5246000Y-53256666D01*
X19466666Y-47179666D02*
X19700000Y-46846333D01*
X19866666Y-47179666D02*
X19866666Y-46479666D01*
X19600000Y-46479666D01*
X19533333Y-46513000D01*
X19500000Y-46546333D01*
X19466666Y-46613000D01*
X19466666Y-46713000D01*
X19500000Y-46779666D01*
X19533333Y-46813000D01*
X19600000Y-46846333D01*
X19866666Y-46846333D01*
X19266666Y-46479666D02*
X19033333Y-47179666D01*
X18800000Y-46479666D01*
X18466666Y-46779666D02*
X18533333Y-46746333D01*
X18566666Y-46713000D01*
X18600000Y-46646333D01*
X18600000Y-46613000D01*
X18566666Y-46546333D01*
X18533333Y-46513000D01*
X18466666Y-46479666D01*
X18333333Y-46479666D01*
X18266666Y-46513000D01*
X18233333Y-46546333D01*
X18200000Y-46613000D01*
X18200000Y-46646333D01*
X18233333Y-46713000D01*
X18266666Y-46746333D01*
X18333333Y-46779666D01*
X18466666Y-46779666D01*
X18533333Y-46813000D01*
X18566666Y-46846333D01*
X18600000Y-46913000D01*
X18600000Y-47046333D01*
X18566666Y-47113000D01*
X18533333Y-47146333D01*
X18466666Y-47179666D01*
X18333333Y-47179666D01*
X18266666Y-47146333D01*
X18233333Y-47113000D01*
X18200000Y-47046333D01*
X18200000Y-46913000D01*
X18233333Y-46846333D01*
X18266666Y-46813000D01*
X18333333Y-46779666D01*
X28981333Y-77213666D02*
X28981333Y-77780333D01*
X28948000Y-77847000D01*
X28914666Y-77880333D01*
X28848000Y-77913666D01*
X28714666Y-77913666D01*
X28648000Y-77880333D01*
X28614666Y-77847000D01*
X28581333Y-77780333D01*
X28581333Y-77213666D01*
X28148000Y-77513666D02*
X28214666Y-77480333D01*
X28248000Y-77447000D01*
X28281333Y-77380333D01*
X28281333Y-77347000D01*
X28248000Y-77280333D01*
X28214666Y-77247000D01*
X28148000Y-77213666D01*
X28014666Y-77213666D01*
X27948000Y-77247000D01*
X27914666Y-77280333D01*
X27881333Y-77347000D01*
X27881333Y-77380333D01*
X27914666Y-77447000D01*
X27948000Y-77480333D01*
X28014666Y-77513666D01*
X28148000Y-77513666D01*
X28214666Y-77547000D01*
X28248000Y-77580333D01*
X28281333Y-77647000D01*
X28281333Y-77780333D01*
X28248000Y-77847000D01*
X28214666Y-77880333D01*
X28148000Y-77913666D01*
X28014666Y-77913666D01*
X27948000Y-77880333D01*
X27914666Y-77847000D01*
X27881333Y-77780333D01*
X27881333Y-77647000D01*
X27914666Y-77580333D01*
X27948000Y-77547000D01*
X28014666Y-77513666D01*
X27711333Y-28191666D02*
X27711333Y-28758333D01*
X27678000Y-28825000D01*
X27644666Y-28858333D01*
X27578000Y-28891666D01*
X27444666Y-28891666D01*
X27378000Y-28858333D01*
X27344666Y-28825000D01*
X27311333Y-28758333D01*
X27311333Y-28191666D01*
X26678000Y-28191666D02*
X26811333Y-28191666D01*
X26878000Y-28225000D01*
X26911333Y-28258333D01*
X26978000Y-28358333D01*
X27011333Y-28491666D01*
X27011333Y-28758333D01*
X26978000Y-28825000D01*
X26944666Y-28858333D01*
X26878000Y-28891666D01*
X26744666Y-28891666D01*
X26678000Y-28858333D01*
X26644666Y-28825000D01*
X26611333Y-28758333D01*
X26611333Y-28591666D01*
X26644666Y-28525000D01*
X26678000Y-28491666D01*
X26744666Y-28458333D01*
X26878000Y-28458333D01*
X26944666Y-28491666D01*
X26978000Y-28525000D01*
X27011333Y-28591666D01*
X22631333Y-85976666D02*
X22631333Y-86543333D01*
X22598000Y-86610000D01*
X22564666Y-86643333D01*
X22498000Y-86676666D01*
X22364666Y-86676666D01*
X22298000Y-86643333D01*
X22264666Y-86610000D01*
X22231333Y-86543333D01*
X22231333Y-85976666D01*
X21964666Y-85976666D02*
X21531333Y-85976666D01*
X21764666Y-86243333D01*
X21664666Y-86243333D01*
X21598000Y-86276666D01*
X21564666Y-86310000D01*
X21531333Y-86376666D01*
X21531333Y-86543333D01*
X21564666Y-86610000D01*
X21598000Y-86643333D01*
X21664666Y-86676666D01*
X21864666Y-86676666D01*
X21931333Y-86643333D01*
X21964666Y-86610000D01*
X7518333Y-90294666D02*
X7518333Y-90861333D01*
X7485000Y-90928000D01*
X7451666Y-90961333D01*
X7385000Y-90994666D01*
X7251666Y-90994666D01*
X7185000Y-90961333D01*
X7151666Y-90928000D01*
X7118333Y-90861333D01*
X7118333Y-90294666D01*
X6418333Y-90994666D02*
X6818333Y-90994666D01*
X6618333Y-90994666D02*
X6618333Y-90294666D01*
X6685000Y-90394666D01*
X6751666Y-90461333D01*
X6818333Y-90494666D01*
X16195666Y-41277333D02*
X16262333Y-41244000D01*
X16329000Y-41177333D01*
X16429000Y-41077333D01*
X16495666Y-41044000D01*
X16562333Y-41044000D01*
X16529000Y-41210666D02*
X16595666Y-41177333D01*
X16662333Y-41110666D01*
X16695666Y-40977333D01*
X16695666Y-40744000D01*
X16662333Y-40610666D01*
X16595666Y-40544000D01*
X16529000Y-40510666D01*
X16395666Y-40510666D01*
X16329000Y-40544000D01*
X16262333Y-40610666D01*
X16229000Y-40744000D01*
X16229000Y-40977333D01*
X16262333Y-41110666D01*
X16329000Y-41177333D01*
X16395666Y-41210666D01*
X16529000Y-41210666D01*
X15995666Y-40510666D02*
X15562333Y-40510666D01*
X15795666Y-40777333D01*
X15695666Y-40777333D01*
X15629000Y-40810666D01*
X15595666Y-40844000D01*
X15562333Y-40910666D01*
X15562333Y-41077333D01*
X15595666Y-41144000D01*
X15629000Y-41177333D01*
X15695666Y-41210666D01*
X15895666Y-41210666D01*
X15962333Y-41177333D01*
X15995666Y-41144000D01*
X15941666Y-69344333D02*
X16008333Y-69311000D01*
X16075000Y-69244333D01*
X16175000Y-69144333D01*
X16241666Y-69111000D01*
X16308333Y-69111000D01*
X16275000Y-69277666D02*
X16341666Y-69244333D01*
X16408333Y-69177666D01*
X16441666Y-69044333D01*
X16441666Y-68811000D01*
X16408333Y-68677666D01*
X16341666Y-68611000D01*
X16275000Y-68577666D01*
X16141666Y-68577666D01*
X16075000Y-68611000D01*
X16008333Y-68677666D01*
X15975000Y-68811000D01*
X15975000Y-69044333D01*
X16008333Y-69177666D01*
X16075000Y-69244333D01*
X16141666Y-69277666D01*
X16275000Y-69277666D01*
X15708333Y-68644333D02*
X15675000Y-68611000D01*
X15608333Y-68577666D01*
X15441666Y-68577666D01*
X15375000Y-68611000D01*
X15341666Y-68644333D01*
X15308333Y-68711000D01*
X15308333Y-68777666D01*
X15341666Y-68877666D01*
X15741666Y-69277666D01*
X15308333Y-69277666D01*
X18973666Y-69344333D02*
X19040333Y-69311000D01*
X19107000Y-69244333D01*
X19207000Y-69144333D01*
X19273666Y-69111000D01*
X19340333Y-69111000D01*
X19307000Y-69277666D02*
X19373666Y-69244333D01*
X19440333Y-69177666D01*
X19473666Y-69044333D01*
X19473666Y-68811000D01*
X19440333Y-68677666D01*
X19373666Y-68611000D01*
X19307000Y-68577666D01*
X19173666Y-68577666D01*
X19107000Y-68611000D01*
X19040333Y-68677666D01*
X19007000Y-68811000D01*
X19007000Y-69044333D01*
X19040333Y-69177666D01*
X19107000Y-69244333D01*
X19173666Y-69277666D01*
X19307000Y-69277666D01*
X18340333Y-69277666D02*
X18740333Y-69277666D01*
X18540333Y-69277666D02*
X18540333Y-68577666D01*
X18607000Y-68677666D01*
X18673666Y-68744333D01*
X18740333Y-68777666D01*
X995333Y-29969666D02*
X995333Y-30469666D01*
X1028666Y-30569666D01*
X1095333Y-30636333D01*
X1195333Y-30669666D01*
X1262000Y-30669666D01*
X728666Y-29969666D02*
X295333Y-29969666D01*
X528666Y-30236333D01*
X428666Y-30236333D01*
X362000Y-30269666D01*
X328666Y-30303000D01*
X295333Y-30369666D01*
X295333Y-30536333D01*
X328666Y-30603000D01*
X362000Y-30636333D01*
X428666Y-30669666D01*
X628666Y-30669666D01*
X695333Y-30636333D01*
X728666Y-30603000D01*
X16880666Y-19300000D02*
X16914000Y-19333333D01*
X17014000Y-19366666D01*
X17080666Y-19366666D01*
X17180666Y-19333333D01*
X17247333Y-19266666D01*
X17280666Y-19200000D01*
X17314000Y-19066666D01*
X17314000Y-18966666D01*
X17280666Y-18833333D01*
X17247333Y-18766666D01*
X17180666Y-18700000D01*
X17080666Y-18666666D01*
X17014000Y-18666666D01*
X16914000Y-18700000D01*
X16880666Y-18733333D01*
X16647333Y-18666666D02*
X16214000Y-18666666D01*
X16447333Y-18933333D01*
X16347333Y-18933333D01*
X16280666Y-18966666D01*
X16247333Y-19000000D01*
X16214000Y-19066666D01*
X16214000Y-19233333D01*
X16247333Y-19300000D01*
X16280666Y-19333333D01*
X16347333Y-19366666D01*
X16547333Y-19366666D01*
X16614000Y-19333333D01*
X16647333Y-19300000D01*
X29072666Y-11680000D02*
X29106000Y-11713333D01*
X29206000Y-11746666D01*
X29272666Y-11746666D01*
X29372666Y-11713333D01*
X29439333Y-11646666D01*
X29472666Y-11580000D01*
X29506000Y-11446666D01*
X29506000Y-11346666D01*
X29472666Y-11213333D01*
X29439333Y-11146666D01*
X29372666Y-11080000D01*
X29272666Y-11046666D01*
X29206000Y-11046666D01*
X29106000Y-11080000D01*
X29072666Y-11113333D01*
X28806000Y-11113333D02*
X28772666Y-11080000D01*
X28706000Y-11046666D01*
X28539333Y-11046666D01*
X28472666Y-11080000D01*
X28439333Y-11113333D01*
X28406000Y-11180000D01*
X28406000Y-11246666D01*
X28439333Y-11346666D01*
X28839333Y-11746666D01*
X28406000Y-11746666D01*
M02*
