G04 #@! TF.GenerationSoftware,KiCad,Pcbnew,(5.1.5)-3*
G04 #@! TF.CreationDate,2020-07-23T18:35:02-07:00*
G04 #@! TF.ProjectId,vcf-20,7663662d-3230-42e6-9b69-6361645f7063,rev?*
G04 #@! TF.SameCoordinates,Original*
G04 #@! TF.FileFunction,Copper,L1,Top*
G04 #@! TF.FilePolarity,Positive*
%FSLAX46Y46*%
G04 Gerber Fmt 4.6, Leading zero omitted, Abs format (unit mm)*
G04 Created by KiCad (PCBNEW (5.1.5)-3) date 2020-07-23 18:35:02*
%MOMM*%
%LPD*%
G04 APERTURE LIST*
%ADD10C,1.800000*%
%ADD11R,1.800000X1.800000*%
%ADD12C,2.670000*%
%ADD13C,2.730000*%
%ADD14C,2.445000*%
%ADD15O,2.720000X3.240000*%
%ADD16O,1.727200X1.727200*%
%ADD17R,1.727200X1.727200*%
%ADD18C,0.800000*%
%ADD19C,0.254000*%
%ADD20C,0.203200*%
%ADD21C,0.381000*%
G04 APERTURE END LIST*
D10*
X16510000Y-107549000D03*
D11*
X13970000Y-107549000D03*
D12*
X29040000Y-115080000D03*
D13*
X20740000Y-115080000D03*
D14*
X17640000Y-115080000D03*
D15*
X4090000Y-70390400D03*
X13690000Y-70390400D03*
D10*
X11390000Y-77890400D03*
X8890000Y-77890400D03*
D11*
X6390000Y-77890400D03*
D12*
X1430000Y-104900000D03*
D13*
X9730000Y-104900000D03*
D14*
X12830000Y-104900000D03*
D12*
X24120000Y-61770000D03*
D13*
X24120000Y-53470000D03*
D14*
X24120000Y-50370000D03*
D15*
X4090000Y-42360000D03*
X13690000Y-42360000D03*
D10*
X11390000Y-49860000D03*
X8890000Y-49860000D03*
D11*
X6390000Y-49860000D03*
D10*
X15240000Y-58115200D03*
D11*
X15240000Y-55575200D03*
D10*
X16510000Y-117729000D03*
D11*
X13970000Y-117729000D03*
D10*
X16510000Y-97369000D03*
D11*
X13970000Y-97369000D03*
D10*
X16510000Y-87189000D03*
D11*
X13970000Y-87189000D03*
D10*
X25527000Y-19304000D03*
D11*
X28067000Y-19304000D03*
D10*
X15240000Y-31750000D03*
D11*
X15240000Y-29210000D03*
D15*
X28920000Y-30780000D03*
X19320000Y-30780000D03*
D10*
X21620000Y-23280000D03*
X24120000Y-23280000D03*
D11*
X26620000Y-23280000D03*
D15*
X10440000Y-15559800D03*
X20040000Y-15559800D03*
D10*
X17740000Y-23059800D03*
X15240000Y-23059800D03*
D11*
X12740000Y-23059800D03*
D15*
X1550000Y-89960000D03*
X11150000Y-89960000D03*
D10*
X8850000Y-97460000D03*
X6350000Y-97460000D03*
D11*
X3850000Y-97460000D03*
D12*
X29040000Y-70390000D03*
D13*
X20740000Y-70390000D03*
D14*
X17640000Y-70390000D03*
D12*
X29040000Y-42360000D03*
D13*
X20740000Y-42360000D03*
D14*
X17640000Y-42360000D03*
D12*
X29040000Y-104900000D03*
D13*
X20740000Y-104900000D03*
D14*
X17640000Y-104900000D03*
D12*
X29040000Y-94720000D03*
D13*
X20740000Y-94720000D03*
D14*
X17640000Y-94720000D03*
D12*
X1430000Y-115080000D03*
D13*
X9730000Y-115080000D03*
D14*
X12830000Y-115080000D03*
D12*
X29040000Y-84540000D03*
D13*
X20740000Y-84540000D03*
D14*
X17640000Y-84540000D03*
D16*
X6096000Y-15367000D03*
X3556000Y-15367000D03*
X6096000Y-17907000D03*
X3556000Y-17907000D03*
X6096000Y-20447000D03*
X3556000Y-20447000D03*
X6096000Y-22987000D03*
X3556000Y-22987000D03*
X6096000Y-25527000D03*
D17*
X3556000Y-25527000D03*
D18*
X15621000Y-20447000D03*
X24638000Y-16891000D03*
X28702000Y-14732000D03*
X16256000Y-12192000D03*
X24003000Y-37973000D03*
X9779000Y-41783000D03*
X18288000Y-33782000D03*
X25527000Y-25908000D03*
X28702000Y-35306000D03*
X9144000Y-29337000D03*
X23028634Y-32790966D03*
X24638000Y-29900002D03*
X24638000Y-30988000D03*
X20193000Y-57531000D03*
X13970000Y-81153000D03*
X13335000Y-83820000D03*
X12255863Y-67246862D03*
X8763000Y-67310000D03*
X15621000Y-64770000D03*
X6350000Y-80264000D03*
X15494000Y-88392002D03*
X26311001Y-64135000D03*
X29718000Y-90297000D03*
X22322229Y-83374760D03*
X2413000Y-40640000D03*
X27686000Y-72771000D03*
X29718006Y-109982000D03*
X28194000Y-48641000D03*
X28829000Y-64135000D03*
X28956000Y-99822000D03*
X14224000Y-77597000D03*
X16510000Y-72517000D03*
X14859000Y-52070000D03*
X6096000Y-88773000D03*
X7051600Y-95377000D03*
X2286000Y-99568000D03*
X21717000Y-89027000D03*
X21717000Y-109383600D03*
X21717000Y-107980400D03*
X21717000Y-89027000D03*
X21717000Y-87503000D03*
X23057865Y-91502454D03*
X25781000Y-86486980D03*
X29419610Y-77851000D03*
X16703600Y-68826458D03*
X17198059Y-64901246D03*
X4064000Y-35051984D03*
X2667000Y-29717988D03*
X10287000Y-57023000D03*
X8509000Y-58674000D03*
X8001000Y-94488000D03*
X12766600Y-94488000D03*
X26162000Y-82930992D03*
X24892000Y-76327000D03*
X19685000Y-54737000D03*
X16891000Y-54737000D03*
X9391777Y-69082814D03*
X13751516Y-65887362D03*
X625024Y-41021000D03*
X889000Y-35052000D03*
X13801558Y-63414442D03*
X12954000Y-58547000D03*
X11823527Y-59677473D03*
X27178000Y-99822000D03*
X26907999Y-85471000D03*
X4774393Y-91993400D03*
X13589000Y-100711000D03*
X25220001Y-100711000D03*
X24892000Y-78740000D03*
X23038607Y-111938607D03*
X21730793Y-110630793D03*
X21717000Y-90170000D03*
X23726354Y-90758716D03*
X4064000Y-74295006D03*
X5334000Y-76200006D03*
X11430000Y-57023000D03*
X7874000Y-60325000D03*
X9128003Y-90678000D03*
X12065000Y-92075000D03*
X7740933Y-67316067D03*
X4064000Y-66675000D03*
X8128000Y-90678000D03*
X11357892Y-92782108D03*
X12319000Y-72644000D03*
X14146686Y-72619094D03*
X12400210Y-74422000D03*
X15494000Y-72263000D03*
X11459059Y-68421233D03*
X10160000Y-69723000D03*
X2031990Y-74295000D03*
X3956932Y-75292478D03*
X15113000Y-47625000D03*
X20808136Y-54717136D03*
X17272000Y-50419000D03*
X2032000Y-79120994D03*
X7747000Y-53594000D03*
X11430000Y-53594000D03*
X17907000Y-54737000D03*
D19*
X12105000Y-23622000D02*
X12284641Y-23622000D01*
X15823792Y-24638000D02*
X23028634Y-31842842D01*
X23028634Y-31842842D02*
X23028634Y-32790966D01*
X12740000Y-23059800D02*
X14318200Y-24638000D01*
X14318200Y-24638000D02*
X15823792Y-24638000D01*
X17740000Y-24332592D02*
X17740000Y-23059800D01*
X17740000Y-24657962D02*
X17740000Y-24332592D01*
X22982040Y-29900002D02*
X17740000Y-24657962D01*
X24638000Y-29900002D02*
X22982040Y-29900002D01*
D20*
X15240000Y-23059800D02*
X23168200Y-30988000D01*
X23168200Y-30988000D02*
X24638000Y-30988000D01*
X22821601Y-22078399D02*
X22519999Y-22380001D01*
X22519999Y-22380001D02*
X21620000Y-23280000D01*
X26395801Y-22078399D02*
X22821601Y-22078399D01*
X28067000Y-20407200D02*
X26395801Y-22078399D01*
X28067000Y-19304000D02*
X28067000Y-20407200D01*
X6350000Y-78486000D02*
X6350000Y-78613000D01*
D19*
X21717000Y-89027000D02*
X21717000Y-87503000D01*
X21717000Y-109383600D02*
X21717000Y-107980400D01*
X22492180Y-91502454D02*
X23057865Y-91502454D01*
X21779454Y-91502454D02*
X22492180Y-91502454D01*
X21717000Y-89027000D02*
X21336000Y-89027000D01*
X20828000Y-89535000D02*
X20828000Y-90551000D01*
X21336000Y-89027000D02*
X20828000Y-89535000D01*
X20828000Y-90551000D02*
X21779454Y-91502454D01*
D21*
X17272000Y-64975187D02*
X17198059Y-64901246D01*
X16703600Y-68826458D02*
X17272000Y-68258058D01*
X17272000Y-68258058D02*
X17272000Y-64975187D01*
X2667000Y-33654984D02*
X2667000Y-29717988D01*
X4064000Y-35051984D02*
X2667000Y-33654984D01*
D19*
X8509000Y-58547000D02*
X8509000Y-58674000D01*
X10287000Y-57023000D02*
X10033000Y-57023000D01*
X10033000Y-57023000D02*
X8509000Y-58547000D01*
X8001000Y-94488000D02*
X12766600Y-94488000D01*
X26180999Y-82949991D02*
X26162000Y-82930992D01*
X26180999Y-86086981D02*
X26180999Y-82949991D01*
X25781000Y-86486980D02*
X26180999Y-86086981D01*
X27895610Y-76327000D02*
X24892000Y-76327000D01*
X29419610Y-77851000D02*
X27895610Y-76327000D01*
X17618001Y-53882999D02*
X16891000Y-54610000D01*
X19211999Y-53882999D02*
X17618001Y-53882999D01*
X19685000Y-54737000D02*
X19685000Y-54356000D01*
X16891000Y-54610000D02*
X16891000Y-54737000D01*
X19685000Y-54356000D02*
X19211999Y-53882999D01*
X9391777Y-69082814D02*
X12587229Y-65887362D01*
X12587229Y-65887362D02*
X13751516Y-65887362D01*
D21*
X889000Y-40757024D02*
X889000Y-35052000D01*
X625024Y-41021000D02*
X889000Y-40757024D01*
D19*
X13751516Y-65887362D02*
X13751516Y-63464484D01*
X13751516Y-63464484D02*
X13801558Y-63414442D01*
X12954000Y-58547000D02*
X11823527Y-59677473D01*
D21*
X26289000Y-100711000D02*
X27178000Y-99822000D01*
X25220001Y-100711000D02*
X26289000Y-100711000D01*
X10140501Y-100183501D02*
X10668000Y-100711000D01*
X4774393Y-91993400D02*
X4774393Y-94269735D01*
X6674157Y-96169499D02*
X9469441Y-96169499D01*
X4774393Y-94269735D02*
X6674157Y-96169499D01*
X9469441Y-96169499D02*
X10140501Y-96840559D01*
X10668000Y-100711000D02*
X13589000Y-100711000D01*
X10140501Y-96840559D02*
X10140501Y-100183501D01*
D19*
X26907999Y-85471000D02*
X26907999Y-80755999D01*
X26907999Y-80755999D02*
X24892000Y-78740000D01*
D20*
X23038607Y-111938607D02*
X21730793Y-110630793D01*
X21717000Y-90170000D02*
X23137638Y-90170000D01*
X23137638Y-90170000D02*
X23726354Y-90758716D01*
X5334000Y-75565006D02*
X5334000Y-76200006D01*
X4064000Y-74295006D02*
X5334000Y-75565006D01*
X8128000Y-60325000D02*
X7874000Y-60325000D01*
X11430000Y-57023000D02*
X8128000Y-60325000D01*
X9128003Y-90678000D02*
X10525003Y-92075000D01*
X10525003Y-92075000D02*
X12065000Y-92075000D01*
X4705067Y-67316067D02*
X4064000Y-66675000D01*
X7740933Y-67316067D02*
X4705067Y-67316067D01*
X8128000Y-90678000D02*
X10232108Y-92782108D01*
X10232108Y-92782108D02*
X11357892Y-92782108D01*
X14121780Y-72644000D02*
X14146686Y-72619094D01*
X12319000Y-72644000D02*
X14121780Y-72644000D01*
X15494000Y-72310150D02*
X15494000Y-72263000D01*
X13382150Y-74422000D02*
X15494000Y-72310150D01*
X12400210Y-74422000D02*
X13382150Y-74422000D01*
X11459059Y-68423941D02*
X11459059Y-68421233D01*
X10160000Y-69723000D02*
X11459059Y-68423941D01*
X2959454Y-74295000D02*
X3956932Y-75292478D01*
X2031990Y-74295000D02*
X2959454Y-74295000D01*
X14097000Y-48641000D02*
X15113000Y-47625000D01*
X8890000Y-49860000D02*
X10109000Y-48641000D01*
X10109000Y-48641000D02*
X14097000Y-48641000D01*
X20808136Y-53955136D02*
X20808136Y-54717136D01*
X17272000Y-50419000D02*
X20808136Y-53955136D01*
X7659406Y-79120994D02*
X2032000Y-79120994D01*
X8890000Y-77890400D02*
X7659406Y-79120994D01*
X7747000Y-53594000D02*
X11430000Y-53594000D01*
X15240000Y-58115200D02*
X17907000Y-55448200D01*
X17907000Y-55448200D02*
X17907000Y-54737000D01*
D19*
G36*
X29820000Y-28738955D02*
G01*
X29687146Y-28667943D01*
X29311087Y-28553867D01*
X28920000Y-28515348D01*
X28528912Y-28553867D01*
X28152853Y-28667943D01*
X27806275Y-28853193D01*
X27502497Y-29102497D01*
X27253193Y-29406275D01*
X27067943Y-29752854D01*
X26953867Y-30128913D01*
X26925000Y-30422003D01*
X26925000Y-31137998D01*
X26953867Y-31431088D01*
X27067943Y-31807147D01*
X27253193Y-32153725D01*
X27502498Y-32457503D01*
X27806276Y-32706807D01*
X28152854Y-32892057D01*
X28528913Y-33006133D01*
X28920000Y-33044652D01*
X29311088Y-33006133D01*
X29687147Y-32892057D01*
X29820000Y-32821045D01*
X29820000Y-40550774D01*
X29614628Y-40465706D01*
X29234028Y-40390000D01*
X28845972Y-40390000D01*
X28465372Y-40465706D01*
X28106855Y-40614209D01*
X27784198Y-40829801D01*
X27509801Y-41104198D01*
X27294209Y-41426855D01*
X27145706Y-41785372D01*
X27070000Y-42165972D01*
X27070000Y-42554028D01*
X27145706Y-42934628D01*
X27294209Y-43293145D01*
X27509801Y-43615802D01*
X27784198Y-43890199D01*
X28106855Y-44105791D01*
X28465372Y-44254294D01*
X28845972Y-44330000D01*
X29234028Y-44330000D01*
X29614628Y-44254294D01*
X29820000Y-44169226D01*
X29820001Y-68580774D01*
X29614628Y-68495706D01*
X29234028Y-68420000D01*
X28845972Y-68420000D01*
X28465372Y-68495706D01*
X28106855Y-68644209D01*
X27784198Y-68859801D01*
X27509801Y-69134198D01*
X27294209Y-69456855D01*
X27145706Y-69815372D01*
X27070000Y-70195972D01*
X27070000Y-70584028D01*
X27145706Y-70964628D01*
X27294209Y-71323145D01*
X27509801Y-71645802D01*
X27784198Y-71920199D01*
X28106855Y-72135791D01*
X28465372Y-72284294D01*
X28845972Y-72360000D01*
X29234028Y-72360000D01*
X29614628Y-72284294D01*
X29820001Y-72199226D01*
X29820001Y-76896571D01*
X29721508Y-76855774D01*
X29521549Y-76816000D01*
X29462241Y-76816000D01*
X28460894Y-75814654D01*
X28437032Y-75785578D01*
X28321002Y-75690355D01*
X28188625Y-75619598D01*
X28044988Y-75576026D01*
X27933036Y-75565000D01*
X27933033Y-75565000D01*
X27895610Y-75561314D01*
X27858187Y-75565000D01*
X25593711Y-75565000D01*
X25551774Y-75523063D01*
X25382256Y-75409795D01*
X25193898Y-75331774D01*
X24993939Y-75292000D01*
X24790061Y-75292000D01*
X24590102Y-75331774D01*
X24401744Y-75409795D01*
X24232226Y-75523063D01*
X24088063Y-75667226D01*
X23974795Y-75836744D01*
X23896774Y-76025102D01*
X23857000Y-76225061D01*
X23857000Y-76428939D01*
X23896774Y-76628898D01*
X23974795Y-76817256D01*
X24088063Y-76986774D01*
X24232226Y-77130937D01*
X24401744Y-77244205D01*
X24590102Y-77322226D01*
X24790061Y-77362000D01*
X24993939Y-77362000D01*
X25193898Y-77322226D01*
X25382256Y-77244205D01*
X25551774Y-77130937D01*
X25593711Y-77089000D01*
X27579980Y-77089000D01*
X28384610Y-77893631D01*
X28384610Y-77952939D01*
X28424384Y-78152898D01*
X28502405Y-78341256D01*
X28615673Y-78510774D01*
X28759836Y-78654937D01*
X28929354Y-78768205D01*
X29117712Y-78846226D01*
X29317671Y-78886000D01*
X29521549Y-78886000D01*
X29721508Y-78846226D01*
X29820001Y-78805429D01*
X29820001Y-82730774D01*
X29614628Y-82645706D01*
X29234028Y-82570000D01*
X28845972Y-82570000D01*
X28465372Y-82645706D01*
X28106855Y-82794209D01*
X27784198Y-83009801D01*
X27669999Y-83124000D01*
X27669999Y-80793421D01*
X27673685Y-80755998D01*
X27669999Y-80718573D01*
X27658973Y-80606621D01*
X27615401Y-80462984D01*
X27544644Y-80330607D01*
X27449421Y-80214577D01*
X27420351Y-80190720D01*
X25927000Y-78697370D01*
X25927000Y-78638061D01*
X25887226Y-78438102D01*
X25809205Y-78249744D01*
X25695937Y-78080226D01*
X25551774Y-77936063D01*
X25382256Y-77822795D01*
X25193898Y-77744774D01*
X24993939Y-77705000D01*
X24790061Y-77705000D01*
X24590102Y-77744774D01*
X24401744Y-77822795D01*
X24232226Y-77936063D01*
X24088063Y-78080226D01*
X23974795Y-78249744D01*
X23896774Y-78438102D01*
X23857000Y-78638061D01*
X23857000Y-78841939D01*
X23896774Y-79041898D01*
X23974795Y-79230256D01*
X24088063Y-79399774D01*
X24232226Y-79543937D01*
X24401744Y-79657205D01*
X24590102Y-79735226D01*
X24790061Y-79775000D01*
X24849370Y-79775000D01*
X26146000Y-81071631D01*
X26146000Y-81895992D01*
X26060061Y-81895992D01*
X25860102Y-81935766D01*
X25671744Y-82013787D01*
X25502226Y-82127055D01*
X25358063Y-82271218D01*
X25244795Y-82440736D01*
X25166774Y-82629094D01*
X25159295Y-82666692D01*
X25131302Y-82647988D01*
X24742756Y-82487047D01*
X24330279Y-82405000D01*
X23909721Y-82405000D01*
X23497244Y-82487047D01*
X23108698Y-82647988D01*
X22759017Y-82881637D01*
X22461637Y-83179017D01*
X22348818Y-83347862D01*
X22293501Y-83265074D01*
X22014926Y-82986499D01*
X21687355Y-82767623D01*
X21323378Y-82616859D01*
X20936983Y-82540000D01*
X20543017Y-82540000D01*
X20156622Y-82616859D01*
X19792645Y-82767623D01*
X19465074Y-82986499D01*
X19186499Y-83265074D01*
X19047008Y-83473836D01*
X18934012Y-83425593D01*
X17819605Y-84540000D01*
X18934012Y-85654407D01*
X19047008Y-85606164D01*
X19186499Y-85814926D01*
X19465074Y-86093501D01*
X19792645Y-86312377D01*
X20156622Y-86463141D01*
X20543017Y-86540000D01*
X20936983Y-86540000D01*
X21323378Y-86463141D01*
X21687355Y-86312377D01*
X22014926Y-86093501D01*
X22293501Y-85814926D01*
X22348818Y-85732138D01*
X22461637Y-85900983D01*
X22759017Y-86198363D01*
X23108698Y-86432012D01*
X23497244Y-86592953D01*
X23909721Y-86675000D01*
X24330279Y-86675000D01*
X24742756Y-86592953D01*
X24746494Y-86591405D01*
X24785774Y-86788878D01*
X24863795Y-86977236D01*
X24977063Y-87146754D01*
X25121226Y-87290917D01*
X25290744Y-87404185D01*
X25479102Y-87482206D01*
X25679061Y-87521980D01*
X25882939Y-87521980D01*
X26082898Y-87482206D01*
X26271256Y-87404185D01*
X26440774Y-87290917D01*
X26584937Y-87146754D01*
X26698205Y-86977236D01*
X26776226Y-86788878D01*
X26816000Y-86588919D01*
X26816000Y-86514376D01*
X26817644Y-86512373D01*
X26821050Y-86506000D01*
X27009938Y-86506000D01*
X27209897Y-86466226D01*
X27398255Y-86388205D01*
X27567773Y-86274937D01*
X27711936Y-86130774D01*
X27765143Y-86051144D01*
X27784198Y-86070199D01*
X28106855Y-86285791D01*
X28465372Y-86434294D01*
X28845972Y-86510000D01*
X29234028Y-86510000D01*
X29614628Y-86434294D01*
X29820001Y-86349226D01*
X29820001Y-92910774D01*
X29614628Y-92825706D01*
X29234028Y-92750000D01*
X28845972Y-92750000D01*
X28465372Y-92825706D01*
X28106855Y-92974209D01*
X27784198Y-93189801D01*
X27509801Y-93464198D01*
X27294209Y-93786855D01*
X27145706Y-94145372D01*
X27070000Y-94525972D01*
X27070000Y-94914028D01*
X27145706Y-95294628D01*
X27294209Y-95653145D01*
X27509801Y-95975802D01*
X27784198Y-96250199D01*
X28106855Y-96465791D01*
X28465372Y-96614294D01*
X28845972Y-96690000D01*
X29234028Y-96690000D01*
X29614628Y-96614294D01*
X29820001Y-96529226D01*
X29820001Y-103090774D01*
X29614628Y-103005706D01*
X29234028Y-102930000D01*
X28845972Y-102930000D01*
X28465372Y-103005706D01*
X28106855Y-103154209D01*
X27784198Y-103369801D01*
X27509801Y-103644198D01*
X27294209Y-103966855D01*
X27145706Y-104325372D01*
X27070000Y-104705972D01*
X27070000Y-105094028D01*
X27145706Y-105474628D01*
X27294209Y-105833145D01*
X27509801Y-106155802D01*
X27784198Y-106430199D01*
X28106855Y-106645791D01*
X28465372Y-106794294D01*
X28845972Y-106870000D01*
X29234028Y-106870000D01*
X29614628Y-106794294D01*
X29820001Y-106709226D01*
X29820001Y-113270774D01*
X29614628Y-113185706D01*
X29234028Y-113110000D01*
X28845972Y-113110000D01*
X28465372Y-113185706D01*
X28106855Y-113334209D01*
X27784198Y-113549801D01*
X27509801Y-113824198D01*
X27294209Y-114146855D01*
X27145706Y-114505372D01*
X27070000Y-114885972D01*
X27070000Y-115274028D01*
X27145706Y-115654628D01*
X27294209Y-116013145D01*
X27509801Y-116335802D01*
X27784198Y-116610199D01*
X28106855Y-116825791D01*
X28465372Y-116974294D01*
X28845972Y-117050000D01*
X29234028Y-117050000D01*
X29614628Y-116974294D01*
X29820001Y-116889226D01*
X29820001Y-119225000D01*
X16857251Y-119225000D01*
X16957743Y-119205011D01*
X17237095Y-119089299D01*
X17488505Y-118921312D01*
X17702312Y-118707505D01*
X17870299Y-118456095D01*
X17986011Y-118176743D01*
X18045000Y-117880184D01*
X18045000Y-117577816D01*
X17986011Y-117281257D01*
X17870299Y-117001905D01*
X17821829Y-116929365D01*
X18056744Y-116899369D01*
X18403677Y-116783108D01*
X18631806Y-116661170D01*
X18754407Y-116374012D01*
X17640000Y-115259605D01*
X17625858Y-115273748D01*
X17446253Y-115094143D01*
X17460395Y-115080000D01*
X17819605Y-115080000D01*
X18934012Y-116194407D01*
X19047008Y-116146164D01*
X19186499Y-116354926D01*
X19465074Y-116633501D01*
X19792645Y-116852377D01*
X20156622Y-117003141D01*
X20543017Y-117080000D01*
X20936983Y-117080000D01*
X21323378Y-117003141D01*
X21687355Y-116852377D01*
X22014926Y-116633501D01*
X22293501Y-116354926D01*
X22348818Y-116272138D01*
X22461637Y-116440983D01*
X22759017Y-116738363D01*
X23108698Y-116972012D01*
X23497244Y-117132953D01*
X23909721Y-117215000D01*
X24330279Y-117215000D01*
X24742756Y-117132953D01*
X25131302Y-116972012D01*
X25480983Y-116738363D01*
X25778363Y-116440983D01*
X26012012Y-116091302D01*
X26172953Y-115702756D01*
X26255000Y-115290279D01*
X26255000Y-114869721D01*
X26172953Y-114457244D01*
X26012012Y-114068698D01*
X25778363Y-113719017D01*
X25480983Y-113421637D01*
X25131302Y-113187988D01*
X24742756Y-113027047D01*
X24330279Y-112945000D01*
X23909721Y-112945000D01*
X23497244Y-113027047D01*
X23108698Y-113187988D01*
X22759017Y-113421637D01*
X22461637Y-113719017D01*
X22348818Y-113887862D01*
X22293501Y-113805074D01*
X22014926Y-113526499D01*
X21687355Y-113307623D01*
X21323378Y-113156859D01*
X20936983Y-113080000D01*
X20543017Y-113080000D01*
X20156622Y-113156859D01*
X19792645Y-113307623D01*
X19465074Y-113526499D01*
X19186499Y-113805074D01*
X19047008Y-114013836D01*
X18934012Y-113965593D01*
X17819605Y-115080000D01*
X17460395Y-115080000D01*
X16345988Y-113965593D01*
X16058830Y-114088194D01*
X15895720Y-114415722D01*
X15799641Y-114768778D01*
X15774287Y-115133795D01*
X15820631Y-115496744D01*
X15936892Y-115843677D01*
X16058830Y-116071806D01*
X16345986Y-116194406D01*
X16343307Y-116197085D01*
X16062257Y-116252989D01*
X15782905Y-116368701D01*
X15531495Y-116536688D01*
X15465056Y-116603127D01*
X15459502Y-116584820D01*
X15400537Y-116474506D01*
X15321185Y-116377815D01*
X15224494Y-116298463D01*
X15114180Y-116239498D01*
X14994482Y-116203188D01*
X14870000Y-116190928D01*
X14132161Y-116190928D01*
X14411170Y-116071806D01*
X14574280Y-115744278D01*
X14670359Y-115391222D01*
X14695713Y-115026205D01*
X14649369Y-114663256D01*
X14533108Y-114316323D01*
X14411170Y-114088194D01*
X14124012Y-113965593D01*
X13009605Y-115080000D01*
X13023748Y-115094143D01*
X12844143Y-115273748D01*
X12830000Y-115259605D01*
X11715593Y-116374012D01*
X11838194Y-116661170D01*
X12165722Y-116824280D01*
X12431928Y-116896724D01*
X12431928Y-118629000D01*
X12444188Y-118753482D01*
X12480498Y-118873180D01*
X12539463Y-118983494D01*
X12618815Y-119080185D01*
X12715506Y-119159537D01*
X12825820Y-119218502D01*
X12847241Y-119225000D01*
X660000Y-119225000D01*
X660000Y-116893368D01*
X855372Y-116974294D01*
X1235972Y-117050000D01*
X1624028Y-117050000D01*
X2004628Y-116974294D01*
X2363145Y-116825791D01*
X2685802Y-116610199D01*
X2960199Y-116335802D01*
X3175791Y-116013145D01*
X3324294Y-115654628D01*
X3400000Y-115274028D01*
X3400000Y-114885972D01*
X3396768Y-114869721D01*
X4215000Y-114869721D01*
X4215000Y-115290279D01*
X4297047Y-115702756D01*
X4457988Y-116091302D01*
X4691637Y-116440983D01*
X4989017Y-116738363D01*
X5338698Y-116972012D01*
X5727244Y-117132953D01*
X6139721Y-117215000D01*
X6560279Y-117215000D01*
X6972756Y-117132953D01*
X7361302Y-116972012D01*
X7710983Y-116738363D01*
X7973825Y-116475521D01*
X8514084Y-116475521D01*
X8653848Y-116777262D01*
X9005645Y-116954597D01*
X9385279Y-117059891D01*
X9778160Y-117089100D01*
X10169190Y-117041101D01*
X10543343Y-116917737D01*
X10806152Y-116777262D01*
X10945916Y-116475521D01*
X9730000Y-115259605D01*
X8514084Y-116475521D01*
X7973825Y-116475521D01*
X8008363Y-116440983D01*
X8159461Y-116214849D01*
X8334479Y-116295916D01*
X9550395Y-115080000D01*
X9909605Y-115080000D01*
X11125521Y-116295916D01*
X11427262Y-116156152D01*
X11430649Y-116149433D01*
X11535988Y-116194407D01*
X12650395Y-115080000D01*
X11535988Y-113965593D01*
X11430815Y-114010496D01*
X11427262Y-114003848D01*
X11125521Y-113864084D01*
X9909605Y-115080000D01*
X9550395Y-115080000D01*
X8334479Y-113864084D01*
X8159461Y-113945151D01*
X8008363Y-113719017D01*
X7973825Y-113684479D01*
X8514084Y-113684479D01*
X9730000Y-114900395D01*
X10844407Y-113785988D01*
X11715593Y-113785988D01*
X12830000Y-114900395D01*
X13944407Y-113785988D01*
X16525593Y-113785988D01*
X17640000Y-114900395D01*
X18754407Y-113785988D01*
X18631806Y-113498830D01*
X18304278Y-113335720D01*
X17951222Y-113239641D01*
X17586205Y-113214287D01*
X17223256Y-113260631D01*
X16876323Y-113376892D01*
X16648194Y-113498830D01*
X16525593Y-113785988D01*
X13944407Y-113785988D01*
X13821806Y-113498830D01*
X13494278Y-113335720D01*
X13141222Y-113239641D01*
X12776205Y-113214287D01*
X12413256Y-113260631D01*
X12066323Y-113376892D01*
X11838194Y-113498830D01*
X11715593Y-113785988D01*
X10844407Y-113785988D01*
X10945916Y-113684479D01*
X10806152Y-113382738D01*
X10454355Y-113205403D01*
X10074721Y-113100109D01*
X9681840Y-113070900D01*
X9290810Y-113118899D01*
X8916657Y-113242263D01*
X8653848Y-113382738D01*
X8514084Y-113684479D01*
X7973825Y-113684479D01*
X7710983Y-113421637D01*
X7361302Y-113187988D01*
X6972756Y-113027047D01*
X6560279Y-112945000D01*
X6139721Y-112945000D01*
X5727244Y-113027047D01*
X5338698Y-113187988D01*
X4989017Y-113421637D01*
X4691637Y-113719017D01*
X4457988Y-114068698D01*
X4297047Y-114457244D01*
X4215000Y-114869721D01*
X3396768Y-114869721D01*
X3324294Y-114505372D01*
X3175791Y-114146855D01*
X2960199Y-113824198D01*
X2685802Y-113549801D01*
X2363145Y-113334209D01*
X2004628Y-113185706D01*
X1624028Y-113110000D01*
X1235972Y-113110000D01*
X855372Y-113185706D01*
X660000Y-113266632D01*
X660000Y-106713368D01*
X855372Y-106794294D01*
X1235972Y-106870000D01*
X1624028Y-106870000D01*
X2004628Y-106794294D01*
X2363145Y-106645791D01*
X2685802Y-106430199D01*
X2960199Y-106155802D01*
X3175791Y-105833145D01*
X3324294Y-105474628D01*
X3400000Y-105094028D01*
X3400000Y-104705972D01*
X3396768Y-104689721D01*
X4215000Y-104689721D01*
X4215000Y-105110279D01*
X4297047Y-105522756D01*
X4457988Y-105911302D01*
X4691637Y-106260983D01*
X4989017Y-106558363D01*
X5338698Y-106792012D01*
X5727244Y-106952953D01*
X6139721Y-107035000D01*
X6560279Y-107035000D01*
X6972756Y-106952953D01*
X7361302Y-106792012D01*
X7710983Y-106558363D01*
X7973825Y-106295521D01*
X8514084Y-106295521D01*
X8653848Y-106597262D01*
X9005645Y-106774597D01*
X9385279Y-106879891D01*
X9778160Y-106909100D01*
X10169190Y-106861101D01*
X10543343Y-106737737D01*
X10806152Y-106597262D01*
X10945916Y-106295521D01*
X10844407Y-106194012D01*
X11715593Y-106194012D01*
X11838194Y-106481170D01*
X12165722Y-106644280D01*
X12431928Y-106716724D01*
X12431928Y-108449000D01*
X12444188Y-108573482D01*
X12480498Y-108693180D01*
X12539463Y-108803494D01*
X12618815Y-108900185D01*
X12715506Y-108979537D01*
X12825820Y-109038502D01*
X12945518Y-109074812D01*
X13070000Y-109087072D01*
X14870000Y-109087072D01*
X14994482Y-109074812D01*
X15114180Y-109038502D01*
X15224494Y-108979537D01*
X15321185Y-108900185D01*
X15400537Y-108803494D01*
X15459502Y-108693180D01*
X15465056Y-108674873D01*
X15531495Y-108741312D01*
X15782905Y-108909299D01*
X16062257Y-109025011D01*
X16358816Y-109084000D01*
X16661184Y-109084000D01*
X16957743Y-109025011D01*
X17237095Y-108909299D01*
X17488505Y-108741312D01*
X17702312Y-108527505D01*
X17870299Y-108276095D01*
X17986011Y-107996743D01*
X18009538Y-107878461D01*
X20682000Y-107878461D01*
X20682000Y-108082339D01*
X20721774Y-108282298D01*
X20799795Y-108470656D01*
X20913063Y-108640174D01*
X20954889Y-108682000D01*
X20913063Y-108723826D01*
X20799795Y-108893344D01*
X20721774Y-109081702D01*
X20682000Y-109281661D01*
X20682000Y-109485539D01*
X20721774Y-109685498D01*
X20799795Y-109873856D01*
X20895787Y-110017518D01*
X20813588Y-110140537D01*
X20735567Y-110328895D01*
X20695793Y-110528854D01*
X20695793Y-110732732D01*
X20735567Y-110932691D01*
X20813588Y-111121049D01*
X20926856Y-111290567D01*
X21071019Y-111434730D01*
X21240537Y-111547998D01*
X21428895Y-111626019D01*
X21628854Y-111665793D01*
X21724084Y-111665793D01*
X22003607Y-111945317D01*
X22003607Y-112040546D01*
X22043381Y-112240505D01*
X22121402Y-112428863D01*
X22234670Y-112598381D01*
X22378833Y-112742544D01*
X22548351Y-112855812D01*
X22736709Y-112933833D01*
X22936668Y-112973607D01*
X23140546Y-112973607D01*
X23340505Y-112933833D01*
X23528863Y-112855812D01*
X23698381Y-112742544D01*
X23842544Y-112598381D01*
X23955812Y-112428863D01*
X24033833Y-112240505D01*
X24073607Y-112040546D01*
X24073607Y-111836668D01*
X24033833Y-111636709D01*
X23955812Y-111448351D01*
X23842544Y-111278833D01*
X23698381Y-111134670D01*
X23528863Y-111021402D01*
X23340505Y-110943381D01*
X23140546Y-110903607D01*
X23045317Y-110903607D01*
X22765793Y-110624084D01*
X22765793Y-110528854D01*
X22726019Y-110328895D01*
X22647998Y-110140537D01*
X22552006Y-109996875D01*
X22634205Y-109873856D01*
X22712226Y-109685498D01*
X22752000Y-109485539D01*
X22752000Y-109281661D01*
X22712226Y-109081702D01*
X22634205Y-108893344D01*
X22520937Y-108723826D01*
X22479111Y-108682000D01*
X22520937Y-108640174D01*
X22634205Y-108470656D01*
X22712226Y-108282298D01*
X22752000Y-108082339D01*
X22752000Y-107878461D01*
X22712226Y-107678502D01*
X22634205Y-107490144D01*
X22520937Y-107320626D01*
X22376774Y-107176463D01*
X22207256Y-107063195D01*
X22018898Y-106985174D01*
X21818939Y-106945400D01*
X21615061Y-106945400D01*
X21415102Y-106985174D01*
X21226744Y-107063195D01*
X21057226Y-107176463D01*
X20913063Y-107320626D01*
X20799795Y-107490144D01*
X20721774Y-107678502D01*
X20682000Y-107878461D01*
X18009538Y-107878461D01*
X18045000Y-107700184D01*
X18045000Y-107397816D01*
X17986011Y-107101257D01*
X17870299Y-106821905D01*
X17821829Y-106749365D01*
X18056744Y-106719369D01*
X18403677Y-106603108D01*
X18631806Y-106481170D01*
X18754407Y-106194012D01*
X17640000Y-105079605D01*
X17625858Y-105093748D01*
X17446253Y-104914143D01*
X17460395Y-104900000D01*
X17819605Y-104900000D01*
X18934012Y-106014407D01*
X19047008Y-105966164D01*
X19186499Y-106174926D01*
X19465074Y-106453501D01*
X19792645Y-106672377D01*
X20156622Y-106823141D01*
X20543017Y-106900000D01*
X20936983Y-106900000D01*
X21323378Y-106823141D01*
X21687355Y-106672377D01*
X22014926Y-106453501D01*
X22293501Y-106174926D01*
X22348818Y-106092138D01*
X22461637Y-106260983D01*
X22759017Y-106558363D01*
X23108698Y-106792012D01*
X23497244Y-106952953D01*
X23909721Y-107035000D01*
X24330279Y-107035000D01*
X24742756Y-106952953D01*
X25131302Y-106792012D01*
X25480983Y-106558363D01*
X25778363Y-106260983D01*
X26012012Y-105911302D01*
X26172953Y-105522756D01*
X26255000Y-105110279D01*
X26255000Y-104689721D01*
X26172953Y-104277244D01*
X26012012Y-103888698D01*
X25778363Y-103539017D01*
X25480983Y-103241637D01*
X25131302Y-103007988D01*
X24742756Y-102847047D01*
X24330279Y-102765000D01*
X23909721Y-102765000D01*
X23497244Y-102847047D01*
X23108698Y-103007988D01*
X22759017Y-103241637D01*
X22461637Y-103539017D01*
X22348818Y-103707862D01*
X22293501Y-103625074D01*
X22014926Y-103346499D01*
X21687355Y-103127623D01*
X21323378Y-102976859D01*
X20936983Y-102900000D01*
X20543017Y-102900000D01*
X20156622Y-102976859D01*
X19792645Y-103127623D01*
X19465074Y-103346499D01*
X19186499Y-103625074D01*
X19047008Y-103833836D01*
X18934012Y-103785593D01*
X17819605Y-104900000D01*
X17460395Y-104900000D01*
X16345988Y-103785593D01*
X16058830Y-103908194D01*
X15895720Y-104235722D01*
X15799641Y-104588778D01*
X15774287Y-104953795D01*
X15820631Y-105316744D01*
X15936892Y-105663677D01*
X16058830Y-105891806D01*
X16345986Y-106014406D01*
X16343307Y-106017085D01*
X16062257Y-106072989D01*
X15782905Y-106188701D01*
X15531495Y-106356688D01*
X15465056Y-106423127D01*
X15459502Y-106404820D01*
X15400537Y-106294506D01*
X15321185Y-106197815D01*
X15224494Y-106118463D01*
X15114180Y-106059498D01*
X14994482Y-106023188D01*
X14870000Y-106010928D01*
X14132161Y-106010928D01*
X14411170Y-105891806D01*
X14574280Y-105564278D01*
X14670359Y-105211222D01*
X14695713Y-104846205D01*
X14649369Y-104483256D01*
X14533108Y-104136323D01*
X14411170Y-103908194D01*
X14124012Y-103785593D01*
X13009605Y-104900000D01*
X13023748Y-104914143D01*
X12844143Y-105093748D01*
X12830000Y-105079605D01*
X11715593Y-106194012D01*
X10844407Y-106194012D01*
X9730000Y-105079605D01*
X8514084Y-106295521D01*
X7973825Y-106295521D01*
X8008363Y-106260983D01*
X8159461Y-106034849D01*
X8334479Y-106115916D01*
X9550395Y-104900000D01*
X9909605Y-104900000D01*
X11125521Y-106115916D01*
X11427262Y-105976152D01*
X11430649Y-105969433D01*
X11535988Y-106014407D01*
X12650395Y-104900000D01*
X11535988Y-103785593D01*
X11430815Y-103830496D01*
X11427262Y-103823848D01*
X11125521Y-103684084D01*
X9909605Y-104900000D01*
X9550395Y-104900000D01*
X8334479Y-103684084D01*
X8159461Y-103765151D01*
X8008363Y-103539017D01*
X7973825Y-103504479D01*
X8514084Y-103504479D01*
X9730000Y-104720395D01*
X10844407Y-103605988D01*
X11715593Y-103605988D01*
X12830000Y-104720395D01*
X13944407Y-103605988D01*
X16525593Y-103605988D01*
X17640000Y-104720395D01*
X18754407Y-103605988D01*
X18631806Y-103318830D01*
X18304278Y-103155720D01*
X17951222Y-103059641D01*
X17586205Y-103034287D01*
X17223256Y-103080631D01*
X16876323Y-103196892D01*
X16648194Y-103318830D01*
X16525593Y-103605988D01*
X13944407Y-103605988D01*
X13821806Y-103318830D01*
X13494278Y-103155720D01*
X13141222Y-103059641D01*
X12776205Y-103034287D01*
X12413256Y-103080631D01*
X12066323Y-103196892D01*
X11838194Y-103318830D01*
X11715593Y-103605988D01*
X10844407Y-103605988D01*
X10945916Y-103504479D01*
X10806152Y-103202738D01*
X10454355Y-103025403D01*
X10074721Y-102920109D01*
X9681840Y-102890900D01*
X9290810Y-102938899D01*
X8916657Y-103062263D01*
X8653848Y-103202738D01*
X8514084Y-103504479D01*
X7973825Y-103504479D01*
X7710983Y-103241637D01*
X7361302Y-103007988D01*
X6972756Y-102847047D01*
X6560279Y-102765000D01*
X6139721Y-102765000D01*
X5727244Y-102847047D01*
X5338698Y-103007988D01*
X4989017Y-103241637D01*
X4691637Y-103539017D01*
X4457988Y-103888698D01*
X4297047Y-104277244D01*
X4215000Y-104689721D01*
X3396768Y-104689721D01*
X3324294Y-104325372D01*
X3175791Y-103966855D01*
X2960199Y-103644198D01*
X2685802Y-103369801D01*
X2363145Y-103154209D01*
X2004628Y-103005706D01*
X1624028Y-102930000D01*
X1235972Y-102930000D01*
X855372Y-103005706D01*
X660000Y-103086632D01*
X660000Y-98360000D01*
X2311928Y-98360000D01*
X2324188Y-98484482D01*
X2360498Y-98604180D01*
X2419463Y-98714494D01*
X2498815Y-98811185D01*
X2595506Y-98890537D01*
X2705820Y-98949502D01*
X2825518Y-98985812D01*
X2950000Y-98998072D01*
X3564250Y-98995000D01*
X3723000Y-98836250D01*
X3723000Y-97587000D01*
X2473750Y-97587000D01*
X2315000Y-97745750D01*
X2311928Y-98360000D01*
X660000Y-98360000D01*
X660000Y-96560000D01*
X2311928Y-96560000D01*
X2315000Y-97174250D01*
X2473750Y-97333000D01*
X3723000Y-97333000D01*
X3723000Y-96083750D01*
X3564250Y-95925000D01*
X2950000Y-95921928D01*
X2825518Y-95934188D01*
X2705820Y-95970498D01*
X2595506Y-96029463D01*
X2498815Y-96108815D01*
X2419463Y-96205506D01*
X2360498Y-96315820D01*
X2324188Y-96435518D01*
X2311928Y-96560000D01*
X660000Y-96560000D01*
X660000Y-92006391D01*
X782853Y-92072057D01*
X1158912Y-92186133D01*
X1550000Y-92224652D01*
X1941087Y-92186133D01*
X2317146Y-92072057D01*
X2655017Y-91891461D01*
X3739393Y-91891461D01*
X3739393Y-92095339D01*
X3779167Y-92295298D01*
X3857188Y-92483656D01*
X3948893Y-92620903D01*
X3948894Y-94229175D01*
X3944899Y-94269735D01*
X3960838Y-94431561D01*
X4008040Y-94587168D01*
X4084694Y-94730577D01*
X4126088Y-94781015D01*
X4187853Y-94856276D01*
X4219354Y-94882128D01*
X5511419Y-96174194D01*
X5371495Y-96267688D01*
X5333880Y-96305303D01*
X5280537Y-96205506D01*
X5201185Y-96108815D01*
X5104494Y-96029463D01*
X4994180Y-95970498D01*
X4874482Y-95934188D01*
X4750000Y-95921928D01*
X4135750Y-95925000D01*
X3977000Y-96083750D01*
X3977000Y-97333000D01*
X3997000Y-97333000D01*
X3997000Y-97587000D01*
X3977000Y-97587000D01*
X3977000Y-98836250D01*
X4135750Y-98995000D01*
X4750000Y-98998072D01*
X4874482Y-98985812D01*
X4994180Y-98949502D01*
X5104494Y-98890537D01*
X5201185Y-98811185D01*
X5280537Y-98714494D01*
X5333880Y-98614697D01*
X5371495Y-98652312D01*
X5622905Y-98820299D01*
X5902257Y-98936011D01*
X6198816Y-98995000D01*
X6501184Y-98995000D01*
X6797743Y-98936011D01*
X7077095Y-98820299D01*
X7328505Y-98652312D01*
X7542312Y-98438505D01*
X7600000Y-98352169D01*
X7657688Y-98438505D01*
X7871495Y-98652312D01*
X8122905Y-98820299D01*
X8402257Y-98936011D01*
X8698816Y-98995000D01*
X9001184Y-98995000D01*
X9297743Y-98936011D01*
X9315002Y-98928862D01*
X9315002Y-100142941D01*
X9311007Y-100183501D01*
X9326946Y-100345327D01*
X9374148Y-100500934D01*
X9450802Y-100644343D01*
X9505506Y-100710999D01*
X9553961Y-100770042D01*
X9585462Y-100795894D01*
X10055602Y-101266034D01*
X10081459Y-101297541D01*
X10169927Y-101370145D01*
X10207157Y-101400699D01*
X10257111Y-101427399D01*
X10350566Y-101477353D01*
X10506174Y-101524556D01*
X10627447Y-101536500D01*
X10627449Y-101536500D01*
X10667999Y-101540494D01*
X10708550Y-101536500D01*
X12961497Y-101536500D01*
X13098744Y-101628205D01*
X13287102Y-101706226D01*
X13487061Y-101746000D01*
X13690939Y-101746000D01*
X13890898Y-101706226D01*
X14079256Y-101628205D01*
X14248774Y-101514937D01*
X14392937Y-101370774D01*
X14506205Y-101201256D01*
X14584226Y-101012898D01*
X14624000Y-100812939D01*
X14624000Y-100609061D01*
X24185001Y-100609061D01*
X24185001Y-100812939D01*
X24224775Y-101012898D01*
X24302796Y-101201256D01*
X24416064Y-101370774D01*
X24560227Y-101514937D01*
X24729745Y-101628205D01*
X24918103Y-101706226D01*
X25118062Y-101746000D01*
X25321940Y-101746000D01*
X25521899Y-101706226D01*
X25710257Y-101628205D01*
X25847504Y-101536500D01*
X26248450Y-101536500D01*
X26289000Y-101540494D01*
X26329550Y-101536500D01*
X26329553Y-101536500D01*
X26450826Y-101524556D01*
X26606434Y-101477353D01*
X26749842Y-101400699D01*
X26875541Y-101297541D01*
X26901397Y-101266035D01*
X27318005Y-100849428D01*
X27479898Y-100817226D01*
X27668256Y-100739205D01*
X27837774Y-100625937D01*
X27981937Y-100481774D01*
X28095205Y-100312256D01*
X28173226Y-100123898D01*
X28213000Y-99923939D01*
X28213000Y-99720061D01*
X28173226Y-99520102D01*
X28095205Y-99331744D01*
X27981937Y-99162226D01*
X27837774Y-99018063D01*
X27668256Y-98904795D01*
X27479898Y-98826774D01*
X27279939Y-98787000D01*
X27076061Y-98787000D01*
X26876102Y-98826774D01*
X26687744Y-98904795D01*
X26518226Y-99018063D01*
X26374063Y-99162226D01*
X26260795Y-99331744D01*
X26182774Y-99520102D01*
X26150572Y-99681995D01*
X25947067Y-99885500D01*
X25847504Y-99885500D01*
X25710257Y-99793795D01*
X25521899Y-99715774D01*
X25321940Y-99676000D01*
X25118062Y-99676000D01*
X24918103Y-99715774D01*
X24729745Y-99793795D01*
X24560227Y-99907063D01*
X24416064Y-100051226D01*
X24302796Y-100220744D01*
X24224775Y-100409102D01*
X24185001Y-100609061D01*
X14624000Y-100609061D01*
X14584226Y-100409102D01*
X14506205Y-100220744D01*
X14392937Y-100051226D01*
X14248774Y-99907063D01*
X14079256Y-99793795D01*
X13890898Y-99715774D01*
X13690939Y-99676000D01*
X13487061Y-99676000D01*
X13287102Y-99715774D01*
X13098744Y-99793795D01*
X12961497Y-99885500D01*
X11009932Y-99885500D01*
X10966001Y-99841569D01*
X10966001Y-96881109D01*
X10969995Y-96840558D01*
X10964217Y-96781890D01*
X10954057Y-96678733D01*
X10906854Y-96523125D01*
X10877924Y-96469000D01*
X12431928Y-96469000D01*
X12431928Y-98269000D01*
X12444188Y-98393482D01*
X12480498Y-98513180D01*
X12539463Y-98623494D01*
X12618815Y-98720185D01*
X12715506Y-98799537D01*
X12825820Y-98858502D01*
X12945518Y-98894812D01*
X13070000Y-98907072D01*
X14870000Y-98907072D01*
X14994482Y-98894812D01*
X15114180Y-98858502D01*
X15224494Y-98799537D01*
X15321185Y-98720185D01*
X15400537Y-98623494D01*
X15459502Y-98513180D01*
X15465056Y-98494873D01*
X15531495Y-98561312D01*
X15782905Y-98729299D01*
X16062257Y-98845011D01*
X16358816Y-98904000D01*
X16661184Y-98904000D01*
X16957743Y-98845011D01*
X17237095Y-98729299D01*
X17488505Y-98561312D01*
X17702312Y-98347505D01*
X17870299Y-98096095D01*
X17986011Y-97816743D01*
X18045000Y-97520184D01*
X18045000Y-97217816D01*
X17986011Y-96921257D01*
X17870299Y-96641905D01*
X17821829Y-96569365D01*
X18056744Y-96539369D01*
X18403677Y-96423108D01*
X18631806Y-96301170D01*
X18754407Y-96014012D01*
X17640000Y-94899605D01*
X17625858Y-94913748D01*
X17446253Y-94734143D01*
X17460395Y-94720000D01*
X17819605Y-94720000D01*
X18934012Y-95834407D01*
X19047008Y-95786164D01*
X19186499Y-95994926D01*
X19465074Y-96273501D01*
X19792645Y-96492377D01*
X20156622Y-96643141D01*
X20543017Y-96720000D01*
X20936983Y-96720000D01*
X21323378Y-96643141D01*
X21687355Y-96492377D01*
X22014926Y-96273501D01*
X22293501Y-95994926D01*
X22348818Y-95912138D01*
X22461637Y-96080983D01*
X22759017Y-96378363D01*
X23108698Y-96612012D01*
X23497244Y-96772953D01*
X23909721Y-96855000D01*
X24330279Y-96855000D01*
X24742756Y-96772953D01*
X25131302Y-96612012D01*
X25480983Y-96378363D01*
X25778363Y-96080983D01*
X26012012Y-95731302D01*
X26172953Y-95342756D01*
X26255000Y-94930279D01*
X26255000Y-94509721D01*
X26172953Y-94097244D01*
X26012012Y-93708698D01*
X25778363Y-93359017D01*
X25480983Y-93061637D01*
X25131302Y-92827988D01*
X24742756Y-92667047D01*
X24330279Y-92585000D01*
X23909721Y-92585000D01*
X23497244Y-92667047D01*
X23108698Y-92827988D01*
X22759017Y-93061637D01*
X22461637Y-93359017D01*
X22348818Y-93527862D01*
X22293501Y-93445074D01*
X22014926Y-93166499D01*
X21687355Y-92947623D01*
X21323378Y-92796859D01*
X20936983Y-92720000D01*
X20543017Y-92720000D01*
X20156622Y-92796859D01*
X19792645Y-92947623D01*
X19465074Y-93166499D01*
X19186499Y-93445074D01*
X19047008Y-93653836D01*
X18934012Y-93605593D01*
X17819605Y-94720000D01*
X17460395Y-94720000D01*
X16345988Y-93605593D01*
X16058830Y-93728194D01*
X15895720Y-94055722D01*
X15799641Y-94408778D01*
X15774287Y-94773795D01*
X15820631Y-95136744D01*
X15936892Y-95483677D01*
X16058830Y-95711806D01*
X16345986Y-95834406D01*
X16343307Y-95837085D01*
X16062257Y-95892989D01*
X15782905Y-96008701D01*
X15531495Y-96176688D01*
X15465056Y-96243127D01*
X15459502Y-96224820D01*
X15400537Y-96114506D01*
X15321185Y-96017815D01*
X15224494Y-95938463D01*
X15114180Y-95879498D01*
X14994482Y-95843188D01*
X14870000Y-95830928D01*
X13070000Y-95830928D01*
X12945518Y-95843188D01*
X12825820Y-95879498D01*
X12715506Y-95938463D01*
X12618815Y-96017815D01*
X12539463Y-96114506D01*
X12480498Y-96224820D01*
X12444188Y-96344518D01*
X12431928Y-96469000D01*
X10877924Y-96469000D01*
X10876208Y-96465791D01*
X10830200Y-96379716D01*
X10752892Y-96285517D01*
X10727042Y-96254018D01*
X10695541Y-96228166D01*
X10081839Y-95614465D01*
X10055982Y-95582958D01*
X9930283Y-95479800D01*
X9786875Y-95403146D01*
X9631267Y-95355943D01*
X9509994Y-95343999D01*
X9509991Y-95343999D01*
X9469441Y-95340005D01*
X9428891Y-95343999D01*
X8582858Y-95343999D01*
X8660774Y-95291937D01*
X8702711Y-95250000D01*
X12064889Y-95250000D01*
X12106826Y-95291937D01*
X12276344Y-95405205D01*
X12464702Y-95483226D01*
X12664661Y-95523000D01*
X12868539Y-95523000D01*
X13068498Y-95483226D01*
X13256856Y-95405205D01*
X13426374Y-95291937D01*
X13570537Y-95147774D01*
X13683805Y-94978256D01*
X13761826Y-94789898D01*
X13801600Y-94589939D01*
X13801600Y-94386061D01*
X13761826Y-94186102D01*
X13683805Y-93997744D01*
X13570537Y-93828226D01*
X13426374Y-93684063D01*
X13256856Y-93570795D01*
X13068498Y-93492774D01*
X12868539Y-93453000D01*
X12664661Y-93453000D01*
X12464702Y-93492774D01*
X12276344Y-93570795D01*
X12106826Y-93684063D01*
X12064889Y-93726000D01*
X11783720Y-93726000D01*
X11848148Y-93699313D01*
X12017666Y-93586045D01*
X12161829Y-93441882D01*
X12172449Y-93425988D01*
X16525593Y-93425988D01*
X17640000Y-94540395D01*
X18754407Y-93425988D01*
X18631806Y-93138830D01*
X18304278Y-92975720D01*
X17951222Y-92879641D01*
X17586205Y-92854287D01*
X17223256Y-92900631D01*
X16876323Y-93016892D01*
X16648194Y-93138830D01*
X16525593Y-93425988D01*
X12172449Y-93425988D01*
X12275097Y-93272364D01*
X12353118Y-93084006D01*
X12355404Y-93072512D01*
X12366898Y-93070226D01*
X12555256Y-92992205D01*
X12724774Y-92878937D01*
X12868937Y-92734774D01*
X12982205Y-92565256D01*
X13060226Y-92376898D01*
X13100000Y-92176939D01*
X13100000Y-91973061D01*
X13060226Y-91773102D01*
X12982205Y-91584744D01*
X12868937Y-91415226D01*
X12803568Y-91349857D01*
X12816807Y-91333725D01*
X13002057Y-90987147D01*
X13116133Y-90611088D01*
X13145000Y-90317998D01*
X13145000Y-89602003D01*
X13138401Y-89535000D01*
X20062314Y-89535000D01*
X20066000Y-89572424D01*
X20066001Y-90513567D01*
X20062314Y-90551000D01*
X20077027Y-90700378D01*
X20120599Y-90844015D01*
X20191355Y-90976392D01*
X20260475Y-91060614D01*
X20286579Y-91092422D01*
X20315649Y-91116279D01*
X21214175Y-92014805D01*
X21238032Y-92043876D01*
X21354062Y-92139099D01*
X21486439Y-92209856D01*
X21630076Y-92253428D01*
X21742028Y-92264454D01*
X21742030Y-92264454D01*
X21779453Y-92268140D01*
X21816876Y-92264454D01*
X22356154Y-92264454D01*
X22398091Y-92306391D01*
X22567609Y-92419659D01*
X22755967Y-92497680D01*
X22955926Y-92537454D01*
X23159804Y-92537454D01*
X23359763Y-92497680D01*
X23548121Y-92419659D01*
X23717639Y-92306391D01*
X23861802Y-92162228D01*
X23975070Y-91992710D01*
X24053091Y-91804352D01*
X24066249Y-91738203D01*
X24216610Y-91675921D01*
X24386128Y-91562653D01*
X24530291Y-91418490D01*
X24643559Y-91248972D01*
X24721580Y-91060614D01*
X24761354Y-90860655D01*
X24761354Y-90656777D01*
X24721580Y-90456818D01*
X24643559Y-90268460D01*
X24530291Y-90098942D01*
X24386128Y-89954779D01*
X24216610Y-89841511D01*
X24028252Y-89763490D01*
X23828293Y-89723716D01*
X23733063Y-89723716D01*
X23684083Y-89674736D01*
X23661013Y-89646625D01*
X23548851Y-89554576D01*
X23420887Y-89486178D01*
X23282037Y-89444058D01*
X23173824Y-89433400D01*
X23173821Y-89433400D01*
X23137638Y-89429836D01*
X23101455Y-89433400D01*
X22668940Y-89433400D01*
X22712226Y-89328898D01*
X22752000Y-89128939D01*
X22752000Y-88925061D01*
X22712226Y-88725102D01*
X22634205Y-88536744D01*
X22520937Y-88367226D01*
X22479000Y-88325289D01*
X22479000Y-88204711D01*
X22520937Y-88162774D01*
X22634205Y-87993256D01*
X22712226Y-87804898D01*
X22752000Y-87604939D01*
X22752000Y-87401061D01*
X22712226Y-87201102D01*
X22634205Y-87012744D01*
X22520937Y-86843226D01*
X22376774Y-86699063D01*
X22207256Y-86585795D01*
X22018898Y-86507774D01*
X21818939Y-86468000D01*
X21615061Y-86468000D01*
X21415102Y-86507774D01*
X21226744Y-86585795D01*
X21057226Y-86699063D01*
X20913063Y-86843226D01*
X20799795Y-87012744D01*
X20721774Y-87201102D01*
X20682000Y-87401061D01*
X20682000Y-87604939D01*
X20721774Y-87804898D01*
X20799795Y-87993256D01*
X20913063Y-88162774D01*
X20955001Y-88204712D01*
X20955000Y-88325289D01*
X20913063Y-88367226D01*
X20881826Y-88413976D01*
X20794578Y-88485578D01*
X20770716Y-88514654D01*
X20315654Y-88969716D01*
X20286578Y-88993578D01*
X20259150Y-89027000D01*
X20191355Y-89109608D01*
X20181023Y-89128939D01*
X20120598Y-89241986D01*
X20077026Y-89385623D01*
X20066000Y-89497574D01*
X20062314Y-89535000D01*
X13138401Y-89535000D01*
X13116133Y-89308913D01*
X13002057Y-88932853D01*
X12873899Y-88693087D01*
X12945518Y-88714812D01*
X13070000Y-88727072D01*
X14870000Y-88727072D01*
X14994482Y-88714812D01*
X15114180Y-88678502D01*
X15224494Y-88619537D01*
X15321185Y-88540185D01*
X15400537Y-88443494D01*
X15459502Y-88333180D01*
X15465056Y-88314873D01*
X15531495Y-88381312D01*
X15782905Y-88549299D01*
X16062257Y-88665011D01*
X16358816Y-88724000D01*
X16661184Y-88724000D01*
X16957743Y-88665011D01*
X17237095Y-88549299D01*
X17488505Y-88381312D01*
X17702312Y-88167505D01*
X17870299Y-87916095D01*
X17986011Y-87636743D01*
X18045000Y-87340184D01*
X18045000Y-87037816D01*
X17986011Y-86741257D01*
X17870299Y-86461905D01*
X17821829Y-86389365D01*
X18056744Y-86359369D01*
X18403677Y-86243108D01*
X18631806Y-86121170D01*
X18754407Y-85834012D01*
X17640000Y-84719605D01*
X17625858Y-84733748D01*
X17446253Y-84554143D01*
X17460395Y-84540000D01*
X16345988Y-83425593D01*
X16058830Y-83548194D01*
X15895720Y-83875722D01*
X15799641Y-84228778D01*
X15774287Y-84593795D01*
X15820631Y-84956744D01*
X15936892Y-85303677D01*
X16058830Y-85531806D01*
X16345986Y-85654406D01*
X16343307Y-85657085D01*
X16062257Y-85712989D01*
X15782905Y-85828701D01*
X15531495Y-85996688D01*
X15465056Y-86063127D01*
X15459502Y-86044820D01*
X15400537Y-85934506D01*
X15321185Y-85837815D01*
X15224494Y-85758463D01*
X15114180Y-85699498D01*
X14994482Y-85663188D01*
X14870000Y-85650928D01*
X13070000Y-85650928D01*
X12945518Y-85663188D01*
X12825820Y-85699498D01*
X12715506Y-85758463D01*
X12618815Y-85837815D01*
X12539463Y-85934506D01*
X12480498Y-86044820D01*
X12444188Y-86164518D01*
X12431928Y-86289000D01*
X12431928Y-88089000D01*
X12440739Y-88178465D01*
X12263725Y-88033193D01*
X11917147Y-87847943D01*
X11541088Y-87733867D01*
X11150000Y-87695348D01*
X10758913Y-87733867D01*
X10382854Y-87847943D01*
X10036276Y-88033193D01*
X9732498Y-88282497D01*
X9483193Y-88586275D01*
X9297943Y-88932853D01*
X9183867Y-89308912D01*
X9155000Y-89602002D01*
X9155000Y-89643000D01*
X9026064Y-89643000D01*
X8826105Y-89682774D01*
X8637747Y-89760795D01*
X8628002Y-89767307D01*
X8618256Y-89760795D01*
X8429898Y-89682774D01*
X8229939Y-89643000D01*
X8026061Y-89643000D01*
X7826102Y-89682774D01*
X7637744Y-89760795D01*
X7468226Y-89874063D01*
X7324063Y-90018226D01*
X7210795Y-90187744D01*
X7132774Y-90376102D01*
X7093000Y-90576061D01*
X7093000Y-90779939D01*
X7132774Y-90979898D01*
X7210795Y-91168256D01*
X7324063Y-91337774D01*
X7468226Y-91481937D01*
X7637744Y-91595205D01*
X7826102Y-91673226D01*
X8026061Y-91713000D01*
X8121291Y-91713000D01*
X9685667Y-93277377D01*
X9708733Y-93305483D01*
X9820895Y-93397532D01*
X9948859Y-93465930D01*
X10087709Y-93508050D01*
X10195922Y-93518708D01*
X10195931Y-93518708D01*
X10232107Y-93522271D01*
X10268283Y-93518708D01*
X10630781Y-93518708D01*
X10698118Y-93586045D01*
X10867636Y-93699313D01*
X10932064Y-93726000D01*
X8702711Y-93726000D01*
X8660774Y-93684063D01*
X8491256Y-93570795D01*
X8302898Y-93492774D01*
X8102939Y-93453000D01*
X7899061Y-93453000D01*
X7699102Y-93492774D01*
X7510744Y-93570795D01*
X7341226Y-93684063D01*
X7197063Y-93828226D01*
X7083795Y-93997744D01*
X7005774Y-94186102D01*
X6966000Y-94386061D01*
X6966000Y-94589939D01*
X7005774Y-94789898D01*
X7083795Y-94978256D01*
X7197063Y-95147774D01*
X7341226Y-95291937D01*
X7419142Y-95343999D01*
X7016090Y-95343999D01*
X5599893Y-93927803D01*
X5599893Y-92620903D01*
X5691598Y-92483656D01*
X5769619Y-92295298D01*
X5809393Y-92095339D01*
X5809393Y-91891461D01*
X5769619Y-91691502D01*
X5691598Y-91503144D01*
X5578330Y-91333626D01*
X5434167Y-91189463D01*
X5264649Y-91076195D01*
X5076291Y-90998174D01*
X4876332Y-90958400D01*
X4672454Y-90958400D01*
X4472495Y-90998174D01*
X4284137Y-91076195D01*
X4114619Y-91189463D01*
X3970456Y-91333626D01*
X3857188Y-91503144D01*
X3779167Y-91691502D01*
X3739393Y-91891461D01*
X2655017Y-91891461D01*
X2663725Y-91886807D01*
X2967503Y-91637503D01*
X3216807Y-91333725D01*
X3402057Y-90987147D01*
X3516133Y-90611088D01*
X3545000Y-90317998D01*
X3545000Y-89602003D01*
X3516133Y-89308913D01*
X3402057Y-88932853D01*
X3216807Y-88586275D01*
X2967503Y-88282497D01*
X2663725Y-88033193D01*
X2317147Y-87847943D01*
X1941088Y-87733867D01*
X1550000Y-87695348D01*
X1158913Y-87733867D01*
X782854Y-87847943D01*
X660000Y-87913610D01*
X660000Y-83245988D01*
X16525593Y-83245988D01*
X17640000Y-84360395D01*
X18754407Y-83245988D01*
X18631806Y-82958830D01*
X18304278Y-82795720D01*
X17951222Y-82699641D01*
X17586205Y-82674287D01*
X17223256Y-82720631D01*
X16876323Y-82836892D01*
X16648194Y-82958830D01*
X16525593Y-83245988D01*
X660000Y-83245988D01*
X660000Y-79019055D01*
X997000Y-79019055D01*
X997000Y-79222933D01*
X1036774Y-79422892D01*
X1114795Y-79611250D01*
X1228063Y-79780768D01*
X1372226Y-79924931D01*
X1541744Y-80038199D01*
X1730102Y-80116220D01*
X1930061Y-80155994D01*
X2133939Y-80155994D01*
X2333898Y-80116220D01*
X2522256Y-80038199D01*
X2691774Y-79924931D01*
X2759111Y-79857594D01*
X7623223Y-79857594D01*
X7659406Y-79861158D01*
X7695589Y-79857594D01*
X7695592Y-79857594D01*
X7803805Y-79846936D01*
X7942655Y-79804816D01*
X8070619Y-79736418D01*
X8182781Y-79644369D01*
X8205851Y-79616258D01*
X8453468Y-79368641D01*
X8738816Y-79425400D01*
X9041184Y-79425400D01*
X9337743Y-79366411D01*
X9617095Y-79250699D01*
X9868505Y-79082712D01*
X10082312Y-78868905D01*
X10140000Y-78782569D01*
X10197688Y-78868905D01*
X10411495Y-79082712D01*
X10662905Y-79250699D01*
X10942257Y-79366411D01*
X11238816Y-79425400D01*
X11541184Y-79425400D01*
X11837743Y-79366411D01*
X12117095Y-79250699D01*
X12368505Y-79082712D01*
X12582312Y-78868905D01*
X12750299Y-78617495D01*
X12866011Y-78338143D01*
X12925000Y-78041584D01*
X12925000Y-77739216D01*
X12866011Y-77442657D01*
X12750299Y-77163305D01*
X12582312Y-76911895D01*
X12368505Y-76698088D01*
X12117095Y-76530101D01*
X11837743Y-76414389D01*
X11541184Y-76355400D01*
X11238816Y-76355400D01*
X10942257Y-76414389D01*
X10662905Y-76530101D01*
X10411495Y-76698088D01*
X10197688Y-76911895D01*
X10140000Y-76998231D01*
X10082312Y-76911895D01*
X9868505Y-76698088D01*
X9617095Y-76530101D01*
X9337743Y-76414389D01*
X9041184Y-76355400D01*
X8738816Y-76355400D01*
X8442257Y-76414389D01*
X8162905Y-76530101D01*
X7911495Y-76698088D01*
X7873880Y-76735703D01*
X7820537Y-76635906D01*
X7741185Y-76539215D01*
X7644494Y-76459863D01*
X7534180Y-76400898D01*
X7414482Y-76364588D01*
X7290000Y-76352328D01*
X6675750Y-76355400D01*
X6517000Y-76514150D01*
X6517000Y-77763400D01*
X6537000Y-77763400D01*
X6537000Y-78017400D01*
X6517000Y-78017400D01*
X6517000Y-78037400D01*
X6263000Y-78037400D01*
X6263000Y-78017400D01*
X5013750Y-78017400D01*
X4855000Y-78176150D01*
X4853959Y-78384394D01*
X2759111Y-78384394D01*
X2691774Y-78317057D01*
X2522256Y-78203789D01*
X2333898Y-78125768D01*
X2133939Y-78085994D01*
X1930061Y-78085994D01*
X1730102Y-78125768D01*
X1541744Y-78203789D01*
X1372226Y-78317057D01*
X1228063Y-78461220D01*
X1114795Y-78630738D01*
X1036774Y-78819096D01*
X997000Y-79019055D01*
X660000Y-79019055D01*
X660000Y-74193061D01*
X996990Y-74193061D01*
X996990Y-74396939D01*
X1036764Y-74596898D01*
X1114785Y-74785256D01*
X1228053Y-74954774D01*
X1372216Y-75098937D01*
X1541734Y-75212205D01*
X1730092Y-75290226D01*
X1930051Y-75330000D01*
X2133929Y-75330000D01*
X2333888Y-75290226D01*
X2522246Y-75212205D01*
X2691764Y-75098937D01*
X2706723Y-75083978D01*
X2921932Y-75299187D01*
X2921932Y-75394417D01*
X2961706Y-75594376D01*
X3039727Y-75782734D01*
X3152995Y-75952252D01*
X3297158Y-76096415D01*
X3466676Y-76209683D01*
X3655034Y-76287704D01*
X3854993Y-76327478D01*
X4058871Y-76327478D01*
X4258830Y-76287704D01*
X4299000Y-76271065D01*
X4299000Y-76301945D01*
X4338774Y-76501904D01*
X4416795Y-76690262D01*
X4530063Y-76859780D01*
X4674226Y-77003943D01*
X4843744Y-77117211D01*
X4852581Y-77120871D01*
X4855000Y-77604650D01*
X5013750Y-77763400D01*
X6263000Y-77763400D01*
X6263000Y-76661787D01*
X6329226Y-76501904D01*
X6369000Y-76301945D01*
X6369000Y-76098067D01*
X6329226Y-75898108D01*
X6251205Y-75709750D01*
X6137937Y-75540232D01*
X6064490Y-75466785D01*
X6059942Y-75420607D01*
X6017822Y-75281757D01*
X5949424Y-75153793D01*
X5910055Y-75105822D01*
X5880442Y-75069738D01*
X5880437Y-75069733D01*
X5857374Y-75041631D01*
X5829273Y-75018569D01*
X5099000Y-74288297D01*
X5099000Y-74193067D01*
X5059226Y-73993108D01*
X4981205Y-73804750D01*
X4867937Y-73635232D01*
X4723774Y-73491069D01*
X4554256Y-73377801D01*
X4365898Y-73299780D01*
X4165939Y-73260006D01*
X3962061Y-73260006D01*
X3762102Y-73299780D01*
X3573744Y-73377801D01*
X3404226Y-73491069D01*
X3269691Y-73625604D01*
X3242703Y-73611178D01*
X3103853Y-73569058D01*
X2995640Y-73558400D01*
X2995637Y-73558400D01*
X2959454Y-73554836D01*
X2923271Y-73558400D01*
X2759101Y-73558400D01*
X2691764Y-73491063D01*
X2522246Y-73377795D01*
X2333888Y-73299774D01*
X2133929Y-73260000D01*
X1930051Y-73260000D01*
X1730092Y-73299774D01*
X1541734Y-73377795D01*
X1372216Y-73491063D01*
X1228053Y-73635226D01*
X1114785Y-73804744D01*
X1036764Y-73993102D01*
X996990Y-74193061D01*
X660000Y-74193061D01*
X660000Y-70032402D01*
X2095000Y-70032402D01*
X2095000Y-70748397D01*
X2123867Y-71041487D01*
X2237943Y-71417546D01*
X2423193Y-71764125D01*
X2672497Y-72067903D01*
X2976275Y-72317207D01*
X3322853Y-72502457D01*
X3698912Y-72616533D01*
X4090000Y-72655052D01*
X4481087Y-72616533D01*
X4857146Y-72502457D01*
X5203725Y-72317207D01*
X5507503Y-72067903D01*
X5756807Y-71764125D01*
X5942057Y-71417547D01*
X6056133Y-71041488D01*
X6085000Y-70748398D01*
X6085000Y-70032403D01*
X6056133Y-69739313D01*
X5942057Y-69363253D01*
X5756807Y-69016675D01*
X5727427Y-68980875D01*
X8356777Y-68980875D01*
X8356777Y-69184753D01*
X8396551Y-69384712D01*
X8474572Y-69573070D01*
X8587840Y-69742588D01*
X8732003Y-69886751D01*
X8901521Y-70000019D01*
X9089879Y-70078040D01*
X9195488Y-70099047D01*
X9242795Y-70213256D01*
X9356063Y-70382774D01*
X9500226Y-70526937D01*
X9669744Y-70640205D01*
X9858102Y-70718226D01*
X10058061Y-70758000D01*
X10261939Y-70758000D01*
X10461898Y-70718226D01*
X10650256Y-70640205D01*
X10819774Y-70526937D01*
X10963937Y-70382774D01*
X11077205Y-70213256D01*
X11155226Y-70024898D01*
X11195000Y-69824939D01*
X11195000Y-69729709D01*
X11468477Y-69456233D01*
X11560998Y-69456233D01*
X11760957Y-69416459D01*
X11830547Y-69387634D01*
X11723867Y-69739312D01*
X11695000Y-70032402D01*
X11695000Y-70748397D01*
X11723867Y-71041487D01*
X11837943Y-71417546D01*
X11971609Y-71667618D01*
X11828744Y-71726795D01*
X11659226Y-71840063D01*
X11515063Y-71984226D01*
X11401795Y-72153744D01*
X11323774Y-72342102D01*
X11284000Y-72542061D01*
X11284000Y-72745939D01*
X11323774Y-72945898D01*
X11401795Y-73134256D01*
X11515063Y-73303774D01*
X11659226Y-73447937D01*
X11827137Y-73560131D01*
X11740436Y-73618063D01*
X11596273Y-73762226D01*
X11483005Y-73931744D01*
X11404984Y-74120102D01*
X11365210Y-74320061D01*
X11365210Y-74523939D01*
X11404984Y-74723898D01*
X11483005Y-74912256D01*
X11596273Y-75081774D01*
X11740436Y-75225937D01*
X11909954Y-75339205D01*
X12098312Y-75417226D01*
X12298271Y-75457000D01*
X12502149Y-75457000D01*
X12702108Y-75417226D01*
X12890466Y-75339205D01*
X13059984Y-75225937D01*
X13127321Y-75158600D01*
X13345967Y-75158600D01*
X13382150Y-75162164D01*
X13418333Y-75158600D01*
X13418336Y-75158600D01*
X13526549Y-75147942D01*
X13665399Y-75105822D01*
X13793363Y-75037424D01*
X13905525Y-74945375D01*
X13928595Y-74917264D01*
X15547860Y-73298000D01*
X15595939Y-73298000D01*
X15795898Y-73258226D01*
X15984256Y-73180205D01*
X16153774Y-73066937D01*
X16297937Y-72922774D01*
X16411205Y-72753256D01*
X16489226Y-72564898D01*
X16529000Y-72364939D01*
X16529000Y-72161061D01*
X16489226Y-71961102D01*
X16418720Y-71790888D01*
X16525594Y-71684014D01*
X16648194Y-71971170D01*
X16975722Y-72134280D01*
X17328778Y-72230359D01*
X17693795Y-72255713D01*
X18056744Y-72209369D01*
X18403677Y-72093108D01*
X18631806Y-71971170D01*
X18711068Y-71785521D01*
X19524084Y-71785521D01*
X19663848Y-72087262D01*
X20015645Y-72264597D01*
X20395279Y-72369891D01*
X20788160Y-72399100D01*
X21179190Y-72351101D01*
X21553343Y-72227737D01*
X21816152Y-72087262D01*
X21955916Y-71785521D01*
X20740000Y-70569605D01*
X19524084Y-71785521D01*
X18711068Y-71785521D01*
X18754407Y-71684012D01*
X17640000Y-70569605D01*
X17625858Y-70583748D01*
X17446253Y-70404143D01*
X17460395Y-70390000D01*
X17819605Y-70390000D01*
X18934012Y-71504407D01*
X19039185Y-71459504D01*
X19042738Y-71466152D01*
X19344479Y-71605916D01*
X20560395Y-70390000D01*
X20919605Y-70390000D01*
X22135521Y-71605916D01*
X22310539Y-71524849D01*
X22461637Y-71750983D01*
X22759017Y-72048363D01*
X23108698Y-72282012D01*
X23497244Y-72442953D01*
X23909721Y-72525000D01*
X24330279Y-72525000D01*
X24742756Y-72442953D01*
X25131302Y-72282012D01*
X25480983Y-72048363D01*
X25778363Y-71750983D01*
X26012012Y-71401302D01*
X26172953Y-71012756D01*
X26255000Y-70600279D01*
X26255000Y-70179721D01*
X26172953Y-69767244D01*
X26012012Y-69378698D01*
X25778363Y-69029017D01*
X25480983Y-68731637D01*
X25131302Y-68497988D01*
X24742756Y-68337047D01*
X24330279Y-68255000D01*
X23909721Y-68255000D01*
X23497244Y-68337047D01*
X23108698Y-68497988D01*
X22759017Y-68731637D01*
X22461637Y-69029017D01*
X22310539Y-69255151D01*
X22135521Y-69174084D01*
X20919605Y-70390000D01*
X20560395Y-70390000D01*
X19344479Y-69174084D01*
X19042738Y-69313848D01*
X19039351Y-69320567D01*
X18934012Y-69275593D01*
X17819605Y-70390000D01*
X17460395Y-70390000D01*
X17446253Y-70375858D01*
X17625858Y-70196253D01*
X17640000Y-70210395D01*
X18754407Y-69095988D01*
X18711069Y-68994479D01*
X19524084Y-68994479D01*
X20740000Y-70210395D01*
X21955916Y-68994479D01*
X21816152Y-68692738D01*
X21464355Y-68515403D01*
X21084721Y-68410109D01*
X20691840Y-68380900D01*
X20300810Y-68428899D01*
X19926657Y-68552263D01*
X19663848Y-68692738D01*
X19524084Y-68994479D01*
X18711069Y-68994479D01*
X18631806Y-68808830D01*
X18304278Y-68645720D01*
X18038953Y-68573516D01*
X18039879Y-68570463D01*
X18085556Y-68419884D01*
X18097500Y-68298611D01*
X18097500Y-68298609D01*
X18101494Y-68258058D01*
X18097500Y-68217508D01*
X18097500Y-65418088D01*
X18115264Y-65391502D01*
X18193285Y-65203144D01*
X18233059Y-65003185D01*
X18233059Y-64799307D01*
X18193285Y-64599348D01*
X18115264Y-64410990D01*
X18001996Y-64241472D01*
X17857833Y-64097309D01*
X17688315Y-63984041D01*
X17499957Y-63906020D01*
X17299998Y-63866246D01*
X17096120Y-63866246D01*
X16896161Y-63906020D01*
X16707803Y-63984041D01*
X16538285Y-64097309D01*
X16394122Y-64241472D01*
X16280854Y-64410990D01*
X16202833Y-64599348D01*
X16163059Y-64799307D01*
X16163059Y-65003185D01*
X16202833Y-65203144D01*
X16280854Y-65391502D01*
X16394122Y-65561020D01*
X16446501Y-65613399D01*
X16446500Y-67822321D01*
X16401702Y-67831232D01*
X16213344Y-67909253D01*
X16043826Y-68022521D01*
X15899663Y-68166684D01*
X15786395Y-68336202D01*
X15708374Y-68524560D01*
X15668600Y-68724519D01*
X15668600Y-68928397D01*
X15708374Y-69128356D01*
X15786395Y-69316714D01*
X15899663Y-69486232D01*
X15976648Y-69563217D01*
X15895720Y-69725722D01*
X15799641Y-70078778D01*
X15774287Y-70443795D01*
X15820631Y-70806744D01*
X15936892Y-71153677D01*
X16058830Y-71381806D01*
X16345986Y-71504406D01*
X16272552Y-71577841D01*
X16153774Y-71459063D01*
X15984256Y-71345795D01*
X15795898Y-71267774D01*
X15599350Y-71228678D01*
X15656133Y-71041488D01*
X15685000Y-70748398D01*
X15685000Y-70032403D01*
X15656133Y-69739313D01*
X15542057Y-69363253D01*
X15356807Y-69016675D01*
X15107503Y-68712897D01*
X14803725Y-68463593D01*
X14457147Y-68278343D01*
X14081088Y-68164267D01*
X13690000Y-68125748D01*
X13298913Y-68164267D01*
X12922854Y-68278343D01*
X12576276Y-68463593D01*
X12492182Y-68532607D01*
X12494059Y-68523172D01*
X12494059Y-68319294D01*
X12454285Y-68119335D01*
X12376264Y-67930977D01*
X12262996Y-67761459D01*
X12118833Y-67617296D01*
X12008588Y-67543633D01*
X12902859Y-66649362D01*
X13049805Y-66649362D01*
X13091742Y-66691299D01*
X13261260Y-66804567D01*
X13449618Y-66882588D01*
X13649577Y-66922362D01*
X13853455Y-66922362D01*
X14053414Y-66882588D01*
X14241772Y-66804567D01*
X14411290Y-66691299D01*
X14555453Y-66547136D01*
X14668721Y-66377618D01*
X14746742Y-66189260D01*
X14786516Y-65989301D01*
X14786516Y-65785423D01*
X14746742Y-65585464D01*
X14668721Y-65397106D01*
X14555453Y-65227588D01*
X14513516Y-65185651D01*
X14513516Y-64166195D01*
X14605495Y-64074216D01*
X14718763Y-63904698D01*
X14796784Y-63716340D01*
X14836558Y-63516381D01*
X14836558Y-63312503D01*
X14796784Y-63112544D01*
X14718763Y-62924186D01*
X14605495Y-62754668D01*
X14461332Y-62610505D01*
X14291814Y-62497237D01*
X14103456Y-62419216D01*
X13903497Y-62379442D01*
X13699619Y-62379442D01*
X13499660Y-62419216D01*
X13311302Y-62497237D01*
X13141784Y-62610505D01*
X12997621Y-62754668D01*
X12884353Y-62924186D01*
X12806332Y-63112544D01*
X12766558Y-63312503D01*
X12766558Y-63516381D01*
X12806332Y-63716340D01*
X12884353Y-63904698D01*
X12989517Y-64062087D01*
X12989516Y-65125362D01*
X12624652Y-65125362D01*
X12587229Y-65121676D01*
X12549806Y-65125362D01*
X12549803Y-65125362D01*
X12437851Y-65136388D01*
X12294214Y-65179960D01*
X12250840Y-65203144D01*
X12161836Y-65250717D01*
X12119448Y-65285505D01*
X12045807Y-65345940D01*
X12021945Y-65375016D01*
X9349147Y-68047814D01*
X9289838Y-68047814D01*
X9089879Y-68087588D01*
X8901521Y-68165609D01*
X8732003Y-68278877D01*
X8587840Y-68423040D01*
X8474572Y-68592558D01*
X8396551Y-68780916D01*
X8356777Y-68980875D01*
X5727427Y-68980875D01*
X5507503Y-68712897D01*
X5203725Y-68463593D01*
X4857147Y-68278343D01*
X4481088Y-68164267D01*
X4090000Y-68125748D01*
X3698913Y-68164267D01*
X3322854Y-68278343D01*
X2976276Y-68463593D01*
X2672498Y-68712897D01*
X2423193Y-69016675D01*
X2237943Y-69363253D01*
X2123867Y-69739312D01*
X2095000Y-70032402D01*
X660000Y-70032402D01*
X660000Y-66573061D01*
X3029000Y-66573061D01*
X3029000Y-66776939D01*
X3068774Y-66976898D01*
X3146795Y-67165256D01*
X3260063Y-67334774D01*
X3404226Y-67478937D01*
X3573744Y-67592205D01*
X3762102Y-67670226D01*
X3962061Y-67710000D01*
X4057290Y-67710000D01*
X4158626Y-67811336D01*
X4181692Y-67839442D01*
X4209798Y-67862508D01*
X4209799Y-67862509D01*
X4252872Y-67897858D01*
X4293854Y-67931491D01*
X4421818Y-67999889D01*
X4560668Y-68042009D01*
X4705067Y-68056231D01*
X4741253Y-68052667D01*
X7013822Y-68052667D01*
X7081159Y-68120004D01*
X7250677Y-68233272D01*
X7439035Y-68311293D01*
X7638994Y-68351067D01*
X7842872Y-68351067D01*
X8042831Y-68311293D01*
X8231189Y-68233272D01*
X8400707Y-68120004D01*
X8544870Y-67975841D01*
X8658138Y-67806323D01*
X8736159Y-67617965D01*
X8775933Y-67418006D01*
X8775933Y-67214128D01*
X8736159Y-67014169D01*
X8658138Y-66825811D01*
X8544870Y-66656293D01*
X8400707Y-66512130D01*
X8231189Y-66398862D01*
X8042831Y-66320841D01*
X7842872Y-66281067D01*
X7638994Y-66281067D01*
X7439035Y-66320841D01*
X7250677Y-66398862D01*
X7081159Y-66512130D01*
X7013822Y-66579467D01*
X5099000Y-66579467D01*
X5099000Y-66573061D01*
X5059226Y-66373102D01*
X4981205Y-66184744D01*
X4867937Y-66015226D01*
X4723774Y-65871063D01*
X4554256Y-65757795D01*
X4365898Y-65679774D01*
X4165939Y-65640000D01*
X3962061Y-65640000D01*
X3762102Y-65679774D01*
X3573744Y-65757795D01*
X3404226Y-65871063D01*
X3260063Y-66015226D01*
X3146795Y-66184744D01*
X3068774Y-66373102D01*
X3029000Y-66573061D01*
X660000Y-66573061D01*
X660000Y-61575972D01*
X22150000Y-61575972D01*
X22150000Y-61964028D01*
X22225706Y-62344628D01*
X22374209Y-62703145D01*
X22589801Y-63025802D01*
X22864198Y-63300199D01*
X23186855Y-63515791D01*
X23545372Y-63664294D01*
X23925972Y-63740000D01*
X24314028Y-63740000D01*
X24694628Y-63664294D01*
X25053145Y-63515791D01*
X25375802Y-63300199D01*
X25650199Y-63025802D01*
X25865791Y-62703145D01*
X26014294Y-62344628D01*
X26090000Y-61964028D01*
X26090000Y-61575972D01*
X26014294Y-61195372D01*
X25865791Y-60836855D01*
X25650199Y-60514198D01*
X25375802Y-60239801D01*
X25053145Y-60024209D01*
X24694628Y-59875706D01*
X24314028Y-59800000D01*
X23925972Y-59800000D01*
X23545372Y-59875706D01*
X23186855Y-60024209D01*
X22864198Y-60239801D01*
X22589801Y-60514198D01*
X22374209Y-60836855D01*
X22225706Y-61195372D01*
X22150000Y-61575972D01*
X660000Y-61575972D01*
X660000Y-60223061D01*
X6839000Y-60223061D01*
X6839000Y-60426939D01*
X6878774Y-60626898D01*
X6956795Y-60815256D01*
X7070063Y-60984774D01*
X7214226Y-61128937D01*
X7383744Y-61242205D01*
X7572102Y-61320226D01*
X7772061Y-61360000D01*
X7975939Y-61360000D01*
X8175898Y-61320226D01*
X8364256Y-61242205D01*
X8533774Y-61128937D01*
X8677937Y-60984774D01*
X8791205Y-60815256D01*
X8869226Y-60626898D01*
X8869577Y-60625132D01*
X9919175Y-59575534D01*
X10788527Y-59575534D01*
X10788527Y-59779412D01*
X10828301Y-59979371D01*
X10906322Y-60167729D01*
X11019590Y-60337247D01*
X11163753Y-60481410D01*
X11333271Y-60594678D01*
X11521629Y-60672699D01*
X11721588Y-60712473D01*
X11925466Y-60712473D01*
X12125425Y-60672699D01*
X12313783Y-60594678D01*
X12483301Y-60481410D01*
X12627464Y-60337247D01*
X12740732Y-60167729D01*
X12818753Y-59979371D01*
X12858527Y-59779412D01*
X12858527Y-59720103D01*
X12996631Y-59582000D01*
X13055939Y-59582000D01*
X13255898Y-59542226D01*
X13444256Y-59464205D01*
X13613774Y-59350937D01*
X13757937Y-59206774D01*
X13871205Y-59037256D01*
X13924308Y-58909054D01*
X14047688Y-59093705D01*
X14261495Y-59307512D01*
X14512905Y-59475499D01*
X14792257Y-59591211D01*
X15088816Y-59650200D01*
X15391184Y-59650200D01*
X15687743Y-59591211D01*
X15967095Y-59475499D01*
X16218505Y-59307512D01*
X16432312Y-59093705D01*
X16600299Y-58842295D01*
X16716011Y-58562943D01*
X16775000Y-58266384D01*
X16775000Y-57964016D01*
X16718241Y-57678668D01*
X17757188Y-56639721D01*
X21985000Y-56639721D01*
X21985000Y-57060279D01*
X22067047Y-57472756D01*
X22227988Y-57861302D01*
X22461637Y-58210983D01*
X22759017Y-58508363D01*
X23108698Y-58742012D01*
X23497244Y-58902953D01*
X23909721Y-58985000D01*
X24330279Y-58985000D01*
X24742756Y-58902953D01*
X25131302Y-58742012D01*
X25480983Y-58508363D01*
X25778363Y-58210983D01*
X26012012Y-57861302D01*
X26172953Y-57472756D01*
X26255000Y-57060279D01*
X26255000Y-56639721D01*
X26172953Y-56227244D01*
X26012012Y-55838698D01*
X25778363Y-55489017D01*
X25480983Y-55191637D01*
X25254849Y-55040539D01*
X25335916Y-54865521D01*
X24120000Y-53649605D01*
X22904084Y-54865521D01*
X22985151Y-55040539D01*
X22759017Y-55191637D01*
X22461637Y-55489017D01*
X22227988Y-55838698D01*
X22067047Y-56227244D01*
X21985000Y-56639721D01*
X17757188Y-56639721D01*
X18402273Y-55994637D01*
X18430374Y-55971575D01*
X18453437Y-55943473D01*
X18453442Y-55943468D01*
X18522424Y-55859413D01*
X18569147Y-55772000D01*
X18590822Y-55731449D01*
X18632942Y-55592599D01*
X18643600Y-55484386D01*
X18643600Y-55484385D01*
X18645815Y-55461896D01*
X18710937Y-55396774D01*
X18796000Y-55269468D01*
X18881063Y-55396774D01*
X19025226Y-55540937D01*
X19194744Y-55654205D01*
X19383102Y-55732226D01*
X19583061Y-55772000D01*
X19786939Y-55772000D01*
X19986898Y-55732226D01*
X20175256Y-55654205D01*
X20261432Y-55596624D01*
X20317880Y-55634341D01*
X20506238Y-55712362D01*
X20706197Y-55752136D01*
X20910075Y-55752136D01*
X21110034Y-55712362D01*
X21298392Y-55634341D01*
X21467910Y-55521073D01*
X21612073Y-55376910D01*
X21725341Y-55207392D01*
X21803362Y-55019034D01*
X21843136Y-54819075D01*
X21843136Y-54615197D01*
X21803362Y-54415238D01*
X21725341Y-54226880D01*
X21612073Y-54057362D01*
X21544851Y-53990140D01*
X21548299Y-53955135D01*
X21544736Y-53918959D01*
X21544736Y-53918950D01*
X21534078Y-53810737D01*
X21491958Y-53671887D01*
X21423560Y-53543923D01*
X21402417Y-53518160D01*
X22110900Y-53518160D01*
X22158899Y-53909190D01*
X22282263Y-54283343D01*
X22422738Y-54546152D01*
X22724479Y-54685916D01*
X23940395Y-53470000D01*
X24299605Y-53470000D01*
X25515521Y-54685916D01*
X25817262Y-54546152D01*
X25994597Y-54194355D01*
X26099891Y-53814721D01*
X26129100Y-53421840D01*
X26081101Y-53030810D01*
X25957737Y-52656657D01*
X25817262Y-52393848D01*
X25515521Y-52254084D01*
X24299605Y-53470000D01*
X23940395Y-53470000D01*
X22724479Y-52254084D01*
X22422738Y-52393848D01*
X22245403Y-52745645D01*
X22140109Y-53125279D01*
X22110900Y-53518160D01*
X21402417Y-53518160D01*
X21331510Y-53431761D01*
X21303404Y-53408695D01*
X19969188Y-52074479D01*
X22904084Y-52074479D01*
X24120000Y-53290395D01*
X25335916Y-52074479D01*
X25196152Y-51772738D01*
X25189433Y-51769351D01*
X25234407Y-51664012D01*
X24120000Y-50549605D01*
X23005593Y-51664012D01*
X23050496Y-51769185D01*
X23043848Y-51772738D01*
X22904084Y-52074479D01*
X19969188Y-52074479D01*
X18318504Y-50423795D01*
X22254287Y-50423795D01*
X22300631Y-50786744D01*
X22416892Y-51133677D01*
X22538830Y-51361806D01*
X22825988Y-51484407D01*
X23940395Y-50370000D01*
X24299605Y-50370000D01*
X25414012Y-51484407D01*
X25701170Y-51361806D01*
X25864280Y-51034278D01*
X25960359Y-50681222D01*
X25985713Y-50316205D01*
X25939369Y-49953256D01*
X25823108Y-49606323D01*
X25701170Y-49378194D01*
X25414012Y-49255593D01*
X24299605Y-50370000D01*
X23940395Y-50370000D01*
X22825988Y-49255593D01*
X22538830Y-49378194D01*
X22375720Y-49705722D01*
X22279641Y-50058778D01*
X22254287Y-50423795D01*
X18318504Y-50423795D01*
X18307000Y-50412291D01*
X18307000Y-50317061D01*
X18267226Y-50117102D01*
X18189205Y-49928744D01*
X18075937Y-49759226D01*
X17931774Y-49615063D01*
X17762256Y-49501795D01*
X17573898Y-49423774D01*
X17373939Y-49384000D01*
X17170061Y-49384000D01*
X16970102Y-49423774D01*
X16781744Y-49501795D01*
X16612226Y-49615063D01*
X16468063Y-49759226D01*
X16354795Y-49928744D01*
X16276774Y-50117102D01*
X16237000Y-50317061D01*
X16237000Y-50520939D01*
X16276774Y-50720898D01*
X16354795Y-50909256D01*
X16468063Y-51078774D01*
X16612226Y-51222937D01*
X16781744Y-51336205D01*
X16970102Y-51414226D01*
X17170061Y-51454000D01*
X17265291Y-51454000D01*
X18932290Y-53120999D01*
X17655424Y-53120999D01*
X17618001Y-53117313D01*
X17580578Y-53120999D01*
X17580575Y-53120999D01*
X17468623Y-53132025D01*
X17324986Y-53175597D01*
X17263365Y-53208534D01*
X17192608Y-53246354D01*
X17162195Y-53271314D01*
X17076579Y-53341577D01*
X17052717Y-53370653D01*
X16704562Y-53718808D01*
X16589102Y-53741774D01*
X16400744Y-53819795D01*
X16231226Y-53933063D01*
X16127161Y-54037128D01*
X14340000Y-54037128D01*
X14215518Y-54049388D01*
X14095820Y-54085698D01*
X13985506Y-54144663D01*
X13888815Y-54224015D01*
X13809463Y-54320706D01*
X13750498Y-54431020D01*
X13714188Y-54550718D01*
X13701928Y-54675200D01*
X13701928Y-56475200D01*
X13714188Y-56599682D01*
X13750498Y-56719380D01*
X13809463Y-56829694D01*
X13888815Y-56926385D01*
X13985506Y-57005737D01*
X14095820Y-57064702D01*
X14114127Y-57070256D01*
X14047688Y-57136695D01*
X13879701Y-57388105D01*
X13763989Y-57667457D01*
X13726523Y-57855812D01*
X13613774Y-57743063D01*
X13444256Y-57629795D01*
X13255898Y-57551774D01*
X13055939Y-57512000D01*
X12852061Y-57512000D01*
X12652102Y-57551774D01*
X12463744Y-57629795D01*
X12294226Y-57743063D01*
X12150063Y-57887226D01*
X12036795Y-58056744D01*
X11958774Y-58245102D01*
X11919000Y-58445061D01*
X11919000Y-58504369D01*
X11780897Y-58642473D01*
X11721588Y-58642473D01*
X11521629Y-58682247D01*
X11333271Y-58760268D01*
X11163753Y-58873536D01*
X11019590Y-59017699D01*
X10906322Y-59187217D01*
X10828301Y-59375575D01*
X10788527Y-59575534D01*
X9919175Y-59575534D01*
X11436710Y-58058000D01*
X11531939Y-58058000D01*
X11731898Y-58018226D01*
X11920256Y-57940205D01*
X12089774Y-57826937D01*
X12233937Y-57682774D01*
X12347205Y-57513256D01*
X12425226Y-57324898D01*
X12465000Y-57124939D01*
X12465000Y-56921061D01*
X12425226Y-56721102D01*
X12347205Y-56532744D01*
X12233937Y-56363226D01*
X12089774Y-56219063D01*
X11920256Y-56105795D01*
X11731898Y-56027774D01*
X11531939Y-55988000D01*
X11328061Y-55988000D01*
X11128102Y-56027774D01*
X10939744Y-56105795D01*
X10858500Y-56160080D01*
X10777256Y-56105795D01*
X10588898Y-56027774D01*
X10388939Y-55988000D01*
X10185061Y-55988000D01*
X9985102Y-56027774D01*
X9796744Y-56105795D01*
X9627226Y-56219063D01*
X9483063Y-56363226D01*
X9369795Y-56532744D01*
X9316174Y-56662195D01*
X8322562Y-57655808D01*
X8207102Y-57678774D01*
X8018744Y-57756795D01*
X7849226Y-57870063D01*
X7705063Y-58014226D01*
X7591795Y-58183744D01*
X7513774Y-58372102D01*
X7474000Y-58572061D01*
X7474000Y-58775939D01*
X7513774Y-58975898D01*
X7591795Y-59164256D01*
X7687105Y-59306899D01*
X7572102Y-59329774D01*
X7383744Y-59407795D01*
X7214226Y-59521063D01*
X7070063Y-59665226D01*
X6956795Y-59834744D01*
X6878774Y-60023102D01*
X6839000Y-60223061D01*
X660000Y-60223061D01*
X660000Y-53492061D01*
X6712000Y-53492061D01*
X6712000Y-53695939D01*
X6751774Y-53895898D01*
X6829795Y-54084256D01*
X6943063Y-54253774D01*
X7087226Y-54397937D01*
X7256744Y-54511205D01*
X7445102Y-54589226D01*
X7645061Y-54629000D01*
X7848939Y-54629000D01*
X8048898Y-54589226D01*
X8237256Y-54511205D01*
X8406774Y-54397937D01*
X8474111Y-54330600D01*
X10702889Y-54330600D01*
X10770226Y-54397937D01*
X10939744Y-54511205D01*
X11128102Y-54589226D01*
X11328061Y-54629000D01*
X11531939Y-54629000D01*
X11731898Y-54589226D01*
X11920256Y-54511205D01*
X12089774Y-54397937D01*
X12233937Y-54253774D01*
X12347205Y-54084256D01*
X12425226Y-53895898D01*
X12465000Y-53695939D01*
X12465000Y-53492061D01*
X12425226Y-53292102D01*
X12347205Y-53103744D01*
X12233937Y-52934226D01*
X12089774Y-52790063D01*
X11920256Y-52676795D01*
X11731898Y-52598774D01*
X11531939Y-52559000D01*
X11328061Y-52559000D01*
X11128102Y-52598774D01*
X10939744Y-52676795D01*
X10770226Y-52790063D01*
X10702889Y-52857400D01*
X8474111Y-52857400D01*
X8406774Y-52790063D01*
X8237256Y-52676795D01*
X8048898Y-52598774D01*
X7848939Y-52559000D01*
X7645061Y-52559000D01*
X7445102Y-52598774D01*
X7256744Y-52676795D01*
X7087226Y-52790063D01*
X6943063Y-52934226D01*
X6829795Y-53103744D01*
X6751774Y-53292102D01*
X6712000Y-53492061D01*
X660000Y-53492061D01*
X660000Y-50760000D01*
X4851928Y-50760000D01*
X4864188Y-50884482D01*
X4900498Y-51004180D01*
X4959463Y-51114494D01*
X5038815Y-51211185D01*
X5135506Y-51290537D01*
X5245820Y-51349502D01*
X5365518Y-51385812D01*
X5490000Y-51398072D01*
X6104250Y-51395000D01*
X6263000Y-51236250D01*
X6263000Y-49987000D01*
X5013750Y-49987000D01*
X4855000Y-50145750D01*
X4851928Y-50760000D01*
X660000Y-50760000D01*
X660000Y-48960000D01*
X4851928Y-48960000D01*
X4855000Y-49574250D01*
X5013750Y-49733000D01*
X6263000Y-49733000D01*
X6263000Y-48483750D01*
X6517000Y-48483750D01*
X6517000Y-49733000D01*
X6537000Y-49733000D01*
X6537000Y-49987000D01*
X6517000Y-49987000D01*
X6517000Y-51236250D01*
X6675750Y-51395000D01*
X7290000Y-51398072D01*
X7414482Y-51385812D01*
X7534180Y-51349502D01*
X7644494Y-51290537D01*
X7741185Y-51211185D01*
X7820537Y-51114494D01*
X7873880Y-51014697D01*
X7911495Y-51052312D01*
X8162905Y-51220299D01*
X8442257Y-51336011D01*
X8738816Y-51395000D01*
X9041184Y-51395000D01*
X9337743Y-51336011D01*
X9617095Y-51220299D01*
X9868505Y-51052312D01*
X10082312Y-50838505D01*
X10140000Y-50752169D01*
X10197688Y-50838505D01*
X10411495Y-51052312D01*
X10662905Y-51220299D01*
X10942257Y-51336011D01*
X11238816Y-51395000D01*
X11541184Y-51395000D01*
X11837743Y-51336011D01*
X12117095Y-51220299D01*
X12368505Y-51052312D01*
X12582312Y-50838505D01*
X12750299Y-50587095D01*
X12866011Y-50307743D01*
X12925000Y-50011184D01*
X12925000Y-49708816D01*
X12866011Y-49412257D01*
X12851656Y-49377600D01*
X14060817Y-49377600D01*
X14097000Y-49381164D01*
X14133183Y-49377600D01*
X14133186Y-49377600D01*
X14241399Y-49366942D01*
X14380249Y-49324822D01*
X14508213Y-49256424D01*
X14620375Y-49164375D01*
X14643445Y-49136264D01*
X14703721Y-49075988D01*
X23005593Y-49075988D01*
X24120000Y-50190395D01*
X25234407Y-49075988D01*
X25111806Y-48788830D01*
X24784278Y-48625720D01*
X24431222Y-48529641D01*
X24066205Y-48504287D01*
X23703256Y-48550631D01*
X23356323Y-48666892D01*
X23128194Y-48788830D01*
X23005593Y-49075988D01*
X14703721Y-49075988D01*
X15119709Y-48660000D01*
X15214939Y-48660000D01*
X15414898Y-48620226D01*
X15603256Y-48542205D01*
X15772774Y-48428937D01*
X15916937Y-48284774D01*
X16030205Y-48115256D01*
X16108226Y-47926898D01*
X16148000Y-47726939D01*
X16148000Y-47523061D01*
X16108226Y-47323102D01*
X16030205Y-47134744D01*
X15916937Y-46965226D01*
X15772774Y-46821063D01*
X15603256Y-46707795D01*
X15414898Y-46629774D01*
X15214939Y-46590000D01*
X15011061Y-46590000D01*
X14811102Y-46629774D01*
X14622744Y-46707795D01*
X14453226Y-46821063D01*
X14309063Y-46965226D01*
X14195795Y-47134744D01*
X14117774Y-47323102D01*
X14078000Y-47523061D01*
X14078000Y-47618291D01*
X13791891Y-47904400D01*
X10145175Y-47904400D01*
X10108999Y-47900837D01*
X10072823Y-47904400D01*
X10072814Y-47904400D01*
X9964601Y-47915058D01*
X9825751Y-47957178D01*
X9697787Y-48025576D01*
X9585625Y-48117625D01*
X9562554Y-48145737D01*
X9326532Y-48381759D01*
X9041184Y-48325000D01*
X8738816Y-48325000D01*
X8442257Y-48383989D01*
X8162905Y-48499701D01*
X7911495Y-48667688D01*
X7873880Y-48705303D01*
X7820537Y-48605506D01*
X7741185Y-48508815D01*
X7644494Y-48429463D01*
X7534180Y-48370498D01*
X7414482Y-48334188D01*
X7290000Y-48321928D01*
X6675750Y-48325000D01*
X6517000Y-48483750D01*
X6263000Y-48483750D01*
X6104250Y-48325000D01*
X5490000Y-48321928D01*
X5365518Y-48334188D01*
X5245820Y-48370498D01*
X5135506Y-48429463D01*
X5038815Y-48508815D01*
X4959463Y-48605506D01*
X4900498Y-48715820D01*
X4864188Y-48835518D01*
X4851928Y-48960000D01*
X660000Y-48960000D01*
X660000Y-42056000D01*
X726963Y-42056000D01*
X926922Y-42016226D01*
X961261Y-42002002D01*
X2095000Y-42002002D01*
X2095000Y-42717997D01*
X2123867Y-43011087D01*
X2237943Y-43387146D01*
X2423193Y-43733725D01*
X2672497Y-44037503D01*
X2976275Y-44286807D01*
X3322853Y-44472057D01*
X3698912Y-44586133D01*
X4090000Y-44624652D01*
X4481087Y-44586133D01*
X4857146Y-44472057D01*
X5203725Y-44286807D01*
X5507503Y-44037503D01*
X5756807Y-43733725D01*
X5942057Y-43387147D01*
X6056133Y-43011088D01*
X6085000Y-42717998D01*
X6085000Y-42002003D01*
X6085000Y-42002002D01*
X11695000Y-42002002D01*
X11695000Y-42717997D01*
X11723867Y-43011087D01*
X11837943Y-43387146D01*
X12023193Y-43733725D01*
X12272497Y-44037503D01*
X12576275Y-44286807D01*
X12922853Y-44472057D01*
X13298912Y-44586133D01*
X13690000Y-44624652D01*
X14081087Y-44586133D01*
X14457146Y-44472057D01*
X14803725Y-44286807D01*
X15107503Y-44037503D01*
X15356807Y-43733725D01*
X15399414Y-43654012D01*
X16525593Y-43654012D01*
X16648194Y-43941170D01*
X16975722Y-44104280D01*
X17328778Y-44200359D01*
X17693795Y-44225713D01*
X18056744Y-44179369D01*
X18403677Y-44063108D01*
X18631806Y-43941170D01*
X18711068Y-43755521D01*
X19524084Y-43755521D01*
X19663848Y-44057262D01*
X20015645Y-44234597D01*
X20395279Y-44339891D01*
X20788160Y-44369100D01*
X21179190Y-44321101D01*
X21553343Y-44197737D01*
X21816152Y-44057262D01*
X21955916Y-43755521D01*
X20740000Y-42539605D01*
X19524084Y-43755521D01*
X18711068Y-43755521D01*
X18754407Y-43654012D01*
X17640000Y-42539605D01*
X16525593Y-43654012D01*
X15399414Y-43654012D01*
X15542057Y-43387147D01*
X15656133Y-43011088D01*
X15685000Y-42717998D01*
X15685000Y-42413795D01*
X15774287Y-42413795D01*
X15820631Y-42776744D01*
X15936892Y-43123677D01*
X16058830Y-43351806D01*
X16345988Y-43474407D01*
X17460395Y-42360000D01*
X17819605Y-42360000D01*
X18934012Y-43474407D01*
X19039185Y-43429504D01*
X19042738Y-43436152D01*
X19344479Y-43575916D01*
X20560395Y-42360000D01*
X20919605Y-42360000D01*
X22135521Y-43575916D01*
X22310539Y-43494849D01*
X22461637Y-43720983D01*
X22759017Y-44018363D01*
X23108698Y-44252012D01*
X23497244Y-44412953D01*
X23909721Y-44495000D01*
X24330279Y-44495000D01*
X24742756Y-44412953D01*
X25131302Y-44252012D01*
X25480983Y-44018363D01*
X25778363Y-43720983D01*
X26012012Y-43371302D01*
X26172953Y-42982756D01*
X26255000Y-42570279D01*
X26255000Y-42149721D01*
X26172953Y-41737244D01*
X26012012Y-41348698D01*
X25778363Y-40999017D01*
X25480983Y-40701637D01*
X25131302Y-40467988D01*
X24742756Y-40307047D01*
X24330279Y-40225000D01*
X23909721Y-40225000D01*
X23497244Y-40307047D01*
X23108698Y-40467988D01*
X22759017Y-40701637D01*
X22461637Y-40999017D01*
X22310539Y-41225151D01*
X22135521Y-41144084D01*
X20919605Y-42360000D01*
X20560395Y-42360000D01*
X19344479Y-41144084D01*
X19042738Y-41283848D01*
X19039351Y-41290567D01*
X18934012Y-41245593D01*
X17819605Y-42360000D01*
X17460395Y-42360000D01*
X16345988Y-41245593D01*
X16058830Y-41368194D01*
X15895720Y-41695722D01*
X15799641Y-42048778D01*
X15774287Y-42413795D01*
X15685000Y-42413795D01*
X15685000Y-42002003D01*
X15656133Y-41708913D01*
X15542057Y-41332853D01*
X15399415Y-41065988D01*
X16525593Y-41065988D01*
X17640000Y-42180395D01*
X18754407Y-41065988D01*
X18711069Y-40964479D01*
X19524084Y-40964479D01*
X20740000Y-42180395D01*
X21955916Y-40964479D01*
X21816152Y-40662738D01*
X21464355Y-40485403D01*
X21084721Y-40380109D01*
X20691840Y-40350900D01*
X20300810Y-40398899D01*
X19926657Y-40522263D01*
X19663848Y-40662738D01*
X19524084Y-40964479D01*
X18711069Y-40964479D01*
X18631806Y-40778830D01*
X18304278Y-40615720D01*
X17951222Y-40519641D01*
X17586205Y-40494287D01*
X17223256Y-40540631D01*
X16876323Y-40656892D01*
X16648194Y-40778830D01*
X16525593Y-41065988D01*
X15399415Y-41065988D01*
X15356807Y-40986275D01*
X15107503Y-40682497D01*
X14803725Y-40433193D01*
X14457147Y-40247943D01*
X14081088Y-40133867D01*
X13690000Y-40095348D01*
X13298913Y-40133867D01*
X12922854Y-40247943D01*
X12576276Y-40433193D01*
X12272498Y-40682497D01*
X12023193Y-40986275D01*
X11837943Y-41332853D01*
X11723867Y-41708912D01*
X11695000Y-42002002D01*
X6085000Y-42002002D01*
X6056133Y-41708913D01*
X5942057Y-41332853D01*
X5756807Y-40986275D01*
X5507503Y-40682497D01*
X5203725Y-40433193D01*
X4857147Y-40247943D01*
X4481088Y-40133867D01*
X4090000Y-40095348D01*
X3698913Y-40133867D01*
X3322854Y-40247943D01*
X2976276Y-40433193D01*
X2672498Y-40682497D01*
X2423193Y-40986275D01*
X2237943Y-41332853D01*
X2123867Y-41708912D01*
X2095000Y-42002002D01*
X961261Y-42002002D01*
X1115280Y-41938205D01*
X1284798Y-41824937D01*
X1428961Y-41680774D01*
X1542229Y-41511256D01*
X1620250Y-41322898D01*
X1660024Y-41122939D01*
X1660024Y-41059060D01*
X1702556Y-40918850D01*
X1714500Y-40797577D01*
X1714500Y-40797568D01*
X1718493Y-40757025D01*
X1714500Y-40716482D01*
X1714500Y-35679503D01*
X1806205Y-35542256D01*
X1884226Y-35353898D01*
X1924000Y-35153939D01*
X1924000Y-34950061D01*
X1884226Y-34750102D01*
X1806205Y-34561744D01*
X1692937Y-34392226D01*
X1548774Y-34248063D01*
X1379256Y-34134795D01*
X1190898Y-34056774D01*
X990939Y-34017000D01*
X787061Y-34017000D01*
X660000Y-34042274D01*
X660000Y-29616049D01*
X1632000Y-29616049D01*
X1632000Y-29819927D01*
X1671774Y-30019886D01*
X1749795Y-30208244D01*
X1841501Y-30345492D01*
X1841500Y-33614433D01*
X1837506Y-33654984D01*
X1841500Y-33695534D01*
X1841500Y-33695536D01*
X1853444Y-33816809D01*
X1856222Y-33825966D01*
X1900647Y-33972417D01*
X1977301Y-34115826D01*
X1992856Y-34134779D01*
X2080459Y-34241525D01*
X2111966Y-34267382D01*
X3036572Y-35191988D01*
X3068774Y-35353882D01*
X3146795Y-35542240D01*
X3260063Y-35711758D01*
X3404226Y-35855921D01*
X3573744Y-35969189D01*
X3762102Y-36047210D01*
X3962061Y-36086984D01*
X4165939Y-36086984D01*
X4365898Y-36047210D01*
X4554256Y-35969189D01*
X4723774Y-35855921D01*
X4867937Y-35711758D01*
X4981205Y-35542240D01*
X5059226Y-35353882D01*
X5099000Y-35153923D01*
X5099000Y-34950045D01*
X5059226Y-34750086D01*
X4981205Y-34561728D01*
X4867937Y-34392210D01*
X4723774Y-34248047D01*
X4554256Y-34134779D01*
X4365898Y-34056758D01*
X4204004Y-34024556D01*
X3492500Y-33313052D01*
X3492500Y-30345491D01*
X3584205Y-30208244D01*
X3662226Y-30019886D01*
X3702000Y-29819927D01*
X3702000Y-29616049D01*
X3662226Y-29416090D01*
X3584205Y-29227732D01*
X3470937Y-29058214D01*
X3326774Y-28914051D01*
X3157256Y-28800783D01*
X2968898Y-28722762D01*
X2768939Y-28682988D01*
X2565061Y-28682988D01*
X2365102Y-28722762D01*
X2176744Y-28800783D01*
X2007226Y-28914051D01*
X1863063Y-29058214D01*
X1749795Y-29227732D01*
X1671774Y-29416090D01*
X1632000Y-29616049D01*
X660000Y-29616049D01*
X660000Y-28310000D01*
X13701928Y-28310000D01*
X13701928Y-30110000D01*
X13714188Y-30234482D01*
X13750498Y-30354180D01*
X13809463Y-30464494D01*
X13888815Y-30561185D01*
X13985506Y-30640537D01*
X14095820Y-30699502D01*
X14114127Y-30705056D01*
X14047688Y-30771495D01*
X13879701Y-31022905D01*
X13763989Y-31302257D01*
X13705000Y-31598816D01*
X13705000Y-31901184D01*
X13763989Y-32197743D01*
X13879701Y-32477095D01*
X14047688Y-32728505D01*
X14261495Y-32942312D01*
X14512905Y-33110299D01*
X14792257Y-33226011D01*
X15088816Y-33285000D01*
X15391184Y-33285000D01*
X15687743Y-33226011D01*
X15967095Y-33110299D01*
X16218505Y-32942312D01*
X16432312Y-32728505D01*
X16600299Y-32477095D01*
X16716011Y-32197743D01*
X16775000Y-31901184D01*
X16775000Y-31598816D01*
X16716011Y-31302257D01*
X16600299Y-31022905D01*
X16432312Y-30771495D01*
X16365873Y-30705056D01*
X16384180Y-30699502D01*
X16494494Y-30640537D01*
X16591185Y-30561185D01*
X16670537Y-30464494D01*
X16729502Y-30354180D01*
X16765812Y-30234482D01*
X16778072Y-30110000D01*
X16778072Y-28310000D01*
X16765812Y-28185518D01*
X16729502Y-28065820D01*
X16670537Y-27955506D01*
X16591185Y-27858815D01*
X16494494Y-27779463D01*
X16384180Y-27720498D01*
X16264482Y-27684188D01*
X16140000Y-27671928D01*
X14340000Y-27671928D01*
X14215518Y-27684188D01*
X14095820Y-27720498D01*
X13985506Y-27779463D01*
X13888815Y-27858815D01*
X13809463Y-27955506D01*
X13750498Y-28065820D01*
X13714188Y-28185518D01*
X13701928Y-28310000D01*
X660000Y-28310000D01*
X660000Y-24663400D01*
X2054328Y-24663400D01*
X2054328Y-26390600D01*
X2066588Y-26515082D01*
X2102898Y-26634780D01*
X2161863Y-26745094D01*
X2241215Y-26841785D01*
X2337906Y-26921137D01*
X2448220Y-26980102D01*
X2567918Y-27016412D01*
X2692400Y-27028672D01*
X4419600Y-27028672D01*
X4544082Y-27016412D01*
X4663780Y-26980102D01*
X4774094Y-26921137D01*
X4870785Y-26841785D01*
X4950137Y-26745094D01*
X5009102Y-26634780D01*
X5026636Y-26576977D01*
X5140698Y-26691039D01*
X5386147Y-26855042D01*
X5658875Y-26968010D01*
X5948401Y-27025600D01*
X6243599Y-27025600D01*
X6533125Y-26968010D01*
X6805853Y-26855042D01*
X7051302Y-26691039D01*
X7260039Y-26482302D01*
X7424042Y-26236853D01*
X7537010Y-25964125D01*
X7594600Y-25674599D01*
X7594600Y-25379401D01*
X7537010Y-25089875D01*
X7424042Y-24817147D01*
X7260039Y-24571698D01*
X7051302Y-24362961D01*
X6885897Y-24252441D01*
X6984488Y-24193817D01*
X7202854Y-23997293D01*
X7378684Y-23761944D01*
X7505222Y-23496814D01*
X7550958Y-23346026D01*
X7429817Y-23114000D01*
X6223000Y-23114000D01*
X6223000Y-23134000D01*
X5969000Y-23134000D01*
X5969000Y-23114000D01*
X3683000Y-23114000D01*
X3683000Y-23134000D01*
X3429000Y-23134000D01*
X3429000Y-23114000D01*
X2222183Y-23114000D01*
X2101042Y-23346026D01*
X2146778Y-23496814D01*
X2273316Y-23761944D01*
X2449146Y-23997293D01*
X2512574Y-24054376D01*
X2448220Y-24073898D01*
X2337906Y-24132863D01*
X2241215Y-24212215D01*
X2161863Y-24308906D01*
X2102898Y-24419220D01*
X2066588Y-24538918D01*
X2054328Y-24663400D01*
X660000Y-24663400D01*
X660000Y-20806026D01*
X2101042Y-20806026D01*
X2146778Y-20956814D01*
X2273316Y-21221944D01*
X2449146Y-21457293D01*
X2667512Y-21653817D01*
X2773770Y-21717000D01*
X2667512Y-21780183D01*
X2449146Y-21976707D01*
X2273316Y-22212056D01*
X2146778Y-22477186D01*
X2101042Y-22627974D01*
X2222183Y-22860000D01*
X3429000Y-22860000D01*
X3429000Y-20574000D01*
X3683000Y-20574000D01*
X3683000Y-22860000D01*
X5969000Y-22860000D01*
X5969000Y-20574000D01*
X6223000Y-20574000D01*
X6223000Y-22860000D01*
X7429817Y-22860000D01*
X7550958Y-22627974D01*
X7505222Y-22477186D01*
X7378684Y-22212056D01*
X7339644Y-22159800D01*
X11201928Y-22159800D01*
X11201928Y-23959800D01*
X11214188Y-24084282D01*
X11250498Y-24203980D01*
X11309463Y-24314294D01*
X11388815Y-24410985D01*
X11485506Y-24490337D01*
X11595820Y-24549302D01*
X11715518Y-24585612D01*
X11840000Y-24597872D01*
X13200441Y-24597872D01*
X13752920Y-25150351D01*
X13776778Y-25179422D01*
X13805848Y-25203279D01*
X13892807Y-25274645D01*
X13930154Y-25294607D01*
X14025185Y-25345402D01*
X14168822Y-25388974D01*
X14280774Y-25400000D01*
X14280777Y-25400000D01*
X14318200Y-25403686D01*
X14355623Y-25400000D01*
X15508162Y-25400000D01*
X18724144Y-28615983D01*
X18552853Y-28667943D01*
X18206275Y-28853193D01*
X17902497Y-29102497D01*
X17653193Y-29406275D01*
X17467943Y-29752854D01*
X17353867Y-30128913D01*
X17325000Y-30422003D01*
X17325000Y-31137998D01*
X17353867Y-31431088D01*
X17467943Y-31807147D01*
X17653193Y-32153725D01*
X17902498Y-32457503D01*
X18206276Y-32706807D01*
X18552854Y-32892057D01*
X18928913Y-33006133D01*
X19320000Y-33044652D01*
X19711088Y-33006133D01*
X20087147Y-32892057D01*
X20433725Y-32706807D01*
X20737503Y-32457503D01*
X20986807Y-32153725D01*
X21172057Y-31807147D01*
X21286133Y-31431087D01*
X21308828Y-31200666D01*
X22232025Y-32123864D01*
X22224697Y-32131192D01*
X22111429Y-32300710D01*
X22033408Y-32489068D01*
X21993634Y-32689027D01*
X21993634Y-32892905D01*
X22033408Y-33092864D01*
X22111429Y-33281222D01*
X22224697Y-33450740D01*
X22368860Y-33594903D01*
X22538378Y-33708171D01*
X22726736Y-33786192D01*
X22926695Y-33825966D01*
X23130573Y-33825966D01*
X23330532Y-33786192D01*
X23518890Y-33708171D01*
X23688408Y-33594903D01*
X23832571Y-33450740D01*
X23945839Y-33281222D01*
X24023860Y-33092864D01*
X24063634Y-32892905D01*
X24063634Y-32689027D01*
X24023860Y-32489068D01*
X23945839Y-32300710D01*
X23832571Y-32131192D01*
X23790634Y-32089255D01*
X23790634Y-31880264D01*
X23794320Y-31842841D01*
X23789306Y-31791937D01*
X23782675Y-31724600D01*
X23910889Y-31724600D01*
X23978226Y-31791937D01*
X24147744Y-31905205D01*
X24336102Y-31983226D01*
X24536061Y-32023000D01*
X24739939Y-32023000D01*
X24939898Y-31983226D01*
X25128256Y-31905205D01*
X25297774Y-31791937D01*
X25441937Y-31647774D01*
X25555205Y-31478256D01*
X25633226Y-31289898D01*
X25673000Y-31089939D01*
X25673000Y-30886061D01*
X25633226Y-30686102D01*
X25555205Y-30497744D01*
X25519295Y-30444001D01*
X25555205Y-30390258D01*
X25633226Y-30201900D01*
X25673000Y-30001941D01*
X25673000Y-29798063D01*
X25633226Y-29598104D01*
X25555205Y-29409746D01*
X25441937Y-29240228D01*
X25297774Y-29096065D01*
X25128256Y-28982797D01*
X24939898Y-28904776D01*
X24739939Y-28865002D01*
X24536061Y-28865002D01*
X24336102Y-28904776D01*
X24147744Y-28982797D01*
X23978226Y-29096065D01*
X23936289Y-29138002D01*
X23297671Y-29138002D01*
X18534637Y-24374969D01*
X18718505Y-24252112D01*
X18932312Y-24038305D01*
X19100299Y-23786895D01*
X19216011Y-23507543D01*
X19275000Y-23210984D01*
X19275000Y-23128816D01*
X20085000Y-23128816D01*
X20085000Y-23431184D01*
X20143989Y-23727743D01*
X20259701Y-24007095D01*
X20427688Y-24258505D01*
X20641495Y-24472312D01*
X20892905Y-24640299D01*
X21172257Y-24756011D01*
X21468816Y-24815000D01*
X21771184Y-24815000D01*
X22067743Y-24756011D01*
X22347095Y-24640299D01*
X22598505Y-24472312D01*
X22812312Y-24258505D01*
X22870000Y-24172169D01*
X22927688Y-24258505D01*
X23141495Y-24472312D01*
X23392905Y-24640299D01*
X23672257Y-24756011D01*
X23968816Y-24815000D01*
X24271184Y-24815000D01*
X24567743Y-24756011D01*
X24847095Y-24640299D01*
X25098505Y-24472312D01*
X25136120Y-24434697D01*
X25189463Y-24534494D01*
X25268815Y-24631185D01*
X25365506Y-24710537D01*
X25475820Y-24769502D01*
X25595518Y-24805812D01*
X25720000Y-24818072D01*
X27520000Y-24818072D01*
X27644482Y-24805812D01*
X27764180Y-24769502D01*
X27874494Y-24710537D01*
X27971185Y-24631185D01*
X28050537Y-24534494D01*
X28109502Y-24424180D01*
X28145812Y-24304482D01*
X28158072Y-24180000D01*
X28158072Y-22380000D01*
X28145812Y-22255518D01*
X28109502Y-22135820D01*
X28050537Y-22025506D01*
X27971185Y-21928815D01*
X27874494Y-21849463D01*
X27764180Y-21790498D01*
X27734435Y-21781475D01*
X28562269Y-20953641D01*
X28590375Y-20930575D01*
X28663008Y-20842072D01*
X28967000Y-20842072D01*
X29091482Y-20829812D01*
X29211180Y-20793502D01*
X29321494Y-20734537D01*
X29418185Y-20655185D01*
X29497537Y-20558494D01*
X29556502Y-20448180D01*
X29592812Y-20328482D01*
X29605072Y-20204000D01*
X29605072Y-18404000D01*
X29592812Y-18279518D01*
X29556502Y-18159820D01*
X29497537Y-18049506D01*
X29418185Y-17952815D01*
X29321494Y-17873463D01*
X29211180Y-17814498D01*
X29091482Y-17778188D01*
X28967000Y-17765928D01*
X27167000Y-17765928D01*
X27042518Y-17778188D01*
X26922820Y-17814498D01*
X26812506Y-17873463D01*
X26715815Y-17952815D01*
X26636463Y-18049506D01*
X26577498Y-18159820D01*
X26571944Y-18178127D01*
X26505505Y-18111688D01*
X26254095Y-17943701D01*
X25974743Y-17827989D01*
X25678184Y-17769000D01*
X25375816Y-17769000D01*
X25079257Y-17827989D01*
X24799905Y-17943701D01*
X24548495Y-18111688D01*
X24334688Y-18325495D01*
X24166701Y-18576905D01*
X24050989Y-18856257D01*
X23992000Y-19152816D01*
X23992000Y-19455184D01*
X24050989Y-19751743D01*
X24166701Y-20031095D01*
X24334688Y-20282505D01*
X24548495Y-20496312D01*
X24799905Y-20664299D01*
X25079257Y-20780011D01*
X25375816Y-20839000D01*
X25678184Y-20839000D01*
X25974743Y-20780011D01*
X26254095Y-20664299D01*
X26505505Y-20496312D01*
X26571944Y-20429873D01*
X26577498Y-20448180D01*
X26636463Y-20558494D01*
X26715815Y-20655185D01*
X26749588Y-20682902D01*
X26090692Y-21341799D01*
X22857787Y-21341799D01*
X22821601Y-21338235D01*
X22785415Y-21341799D01*
X22677202Y-21352457D01*
X22538352Y-21394577D01*
X22410388Y-21462975D01*
X22298226Y-21555024D01*
X22275155Y-21583136D01*
X22056532Y-21801759D01*
X21771184Y-21745000D01*
X21468816Y-21745000D01*
X21172257Y-21803989D01*
X20892905Y-21919701D01*
X20641495Y-22087688D01*
X20427688Y-22301495D01*
X20259701Y-22552905D01*
X20143989Y-22832257D01*
X20085000Y-23128816D01*
X19275000Y-23128816D01*
X19275000Y-22908616D01*
X19216011Y-22612057D01*
X19100299Y-22332705D01*
X18932312Y-22081295D01*
X18718505Y-21867488D01*
X18467095Y-21699501D01*
X18187743Y-21583789D01*
X17891184Y-21524800D01*
X17588816Y-21524800D01*
X17292257Y-21583789D01*
X17012905Y-21699501D01*
X16761495Y-21867488D01*
X16547688Y-22081295D01*
X16490000Y-22167631D01*
X16432312Y-22081295D01*
X16218505Y-21867488D01*
X15967095Y-21699501D01*
X15687743Y-21583789D01*
X15391184Y-21524800D01*
X15088816Y-21524800D01*
X14792257Y-21583789D01*
X14512905Y-21699501D01*
X14261495Y-21867488D01*
X14223880Y-21905103D01*
X14170537Y-21805306D01*
X14091185Y-21708615D01*
X13994494Y-21629263D01*
X13884180Y-21570298D01*
X13764482Y-21533988D01*
X13640000Y-21521728D01*
X11840000Y-21521728D01*
X11715518Y-21533988D01*
X11595820Y-21570298D01*
X11485506Y-21629263D01*
X11388815Y-21708615D01*
X11309463Y-21805306D01*
X11250498Y-21915620D01*
X11214188Y-22035318D01*
X11201928Y-22159800D01*
X7339644Y-22159800D01*
X7202854Y-21976707D01*
X6984488Y-21780183D01*
X6878230Y-21717000D01*
X6984488Y-21653817D01*
X7202854Y-21457293D01*
X7378684Y-21221944D01*
X7505222Y-20956814D01*
X7550958Y-20806026D01*
X7429817Y-20574000D01*
X6223000Y-20574000D01*
X5969000Y-20574000D01*
X3683000Y-20574000D01*
X3429000Y-20574000D01*
X2222183Y-20574000D01*
X2101042Y-20806026D01*
X660000Y-20806026D01*
X660000Y-18266026D01*
X2101042Y-18266026D01*
X2146778Y-18416814D01*
X2273316Y-18681944D01*
X2449146Y-18917293D01*
X2667512Y-19113817D01*
X2773770Y-19177000D01*
X2667512Y-19240183D01*
X2449146Y-19436707D01*
X2273316Y-19672056D01*
X2146778Y-19937186D01*
X2101042Y-20087974D01*
X2222183Y-20320000D01*
X3429000Y-20320000D01*
X3429000Y-18034000D01*
X3683000Y-18034000D01*
X3683000Y-20320000D01*
X5969000Y-20320000D01*
X5969000Y-18034000D01*
X6223000Y-18034000D01*
X6223000Y-20320000D01*
X7429817Y-20320000D01*
X7550958Y-20087974D01*
X7505222Y-19937186D01*
X7378684Y-19672056D01*
X7202854Y-19436707D01*
X6984488Y-19240183D01*
X6878230Y-19177000D01*
X6984488Y-19113817D01*
X7202854Y-18917293D01*
X7378684Y-18681944D01*
X7505222Y-18416814D01*
X7550958Y-18266026D01*
X7429817Y-18034000D01*
X6223000Y-18034000D01*
X5969000Y-18034000D01*
X3683000Y-18034000D01*
X3429000Y-18034000D01*
X2222183Y-18034000D01*
X2101042Y-18266026D01*
X660000Y-18266026D01*
X660000Y-15219401D01*
X2057400Y-15219401D01*
X2057400Y-15514599D01*
X2114990Y-15804125D01*
X2227958Y-16076853D01*
X2391961Y-16322302D01*
X2600698Y-16531039D01*
X2766103Y-16641559D01*
X2667512Y-16700183D01*
X2449146Y-16896707D01*
X2273316Y-17132056D01*
X2146778Y-17397186D01*
X2101042Y-17547974D01*
X2222183Y-17780000D01*
X3429000Y-17780000D01*
X3429000Y-17760000D01*
X3683000Y-17760000D01*
X3683000Y-17780000D01*
X5969000Y-17780000D01*
X5969000Y-17760000D01*
X6223000Y-17760000D01*
X6223000Y-17780000D01*
X7429817Y-17780000D01*
X7550958Y-17547974D01*
X7505222Y-17397186D01*
X7378684Y-17132056D01*
X7202854Y-16896707D01*
X6984488Y-16700183D01*
X6885897Y-16641559D01*
X7051302Y-16531039D01*
X7260039Y-16322302D01*
X7424042Y-16076853D01*
X7537010Y-15804125D01*
X7594600Y-15514599D01*
X7594600Y-15219401D01*
X7591100Y-15201802D01*
X8445000Y-15201802D01*
X8445000Y-15917797D01*
X8473867Y-16210887D01*
X8587943Y-16586946D01*
X8773193Y-16933525D01*
X9022497Y-17237303D01*
X9326275Y-17486607D01*
X9672853Y-17671857D01*
X10048912Y-17785933D01*
X10440000Y-17824452D01*
X10831087Y-17785933D01*
X11207146Y-17671857D01*
X11553725Y-17486607D01*
X11857503Y-17237303D01*
X12106807Y-16933525D01*
X12292057Y-16586947D01*
X12406133Y-16210888D01*
X12435000Y-15917798D01*
X12435000Y-15201803D01*
X12435000Y-15201802D01*
X18045000Y-15201802D01*
X18045000Y-15917797D01*
X18073867Y-16210887D01*
X18187943Y-16586946D01*
X18373193Y-16933525D01*
X18622497Y-17237303D01*
X18926275Y-17486607D01*
X19272853Y-17671857D01*
X19648912Y-17785933D01*
X20040000Y-17824452D01*
X20431087Y-17785933D01*
X20807146Y-17671857D01*
X21153725Y-17486607D01*
X21457503Y-17237303D01*
X21706807Y-16933525D01*
X21892057Y-16586947D01*
X22006133Y-16210888D01*
X22035000Y-15917798D01*
X22035000Y-15201803D01*
X22006133Y-14908713D01*
X21892057Y-14532653D01*
X21706807Y-14186075D01*
X21457503Y-13882297D01*
X21153725Y-13632993D01*
X20807147Y-13447743D01*
X20431088Y-13333667D01*
X20040000Y-13295148D01*
X19648913Y-13333667D01*
X19272854Y-13447743D01*
X18926276Y-13632993D01*
X18622498Y-13882297D01*
X18373193Y-14186075D01*
X18187943Y-14532653D01*
X18073867Y-14908712D01*
X18045000Y-15201802D01*
X12435000Y-15201802D01*
X12406133Y-14908713D01*
X12292057Y-14532653D01*
X12106807Y-14186075D01*
X11857503Y-13882297D01*
X11553725Y-13632993D01*
X11207147Y-13447743D01*
X10831088Y-13333667D01*
X10440000Y-13295148D01*
X10048913Y-13333667D01*
X9672854Y-13447743D01*
X9326276Y-13632993D01*
X9022498Y-13882297D01*
X8773193Y-14186075D01*
X8587943Y-14532653D01*
X8473867Y-14908712D01*
X8445000Y-15201802D01*
X7591100Y-15201802D01*
X7537010Y-14929875D01*
X7424042Y-14657147D01*
X7260039Y-14411698D01*
X7051302Y-14202961D01*
X6805853Y-14038958D01*
X6533125Y-13925990D01*
X6243599Y-13868400D01*
X5948401Y-13868400D01*
X5658875Y-13925990D01*
X5386147Y-14038958D01*
X5140698Y-14202961D01*
X4931961Y-14411698D01*
X4826000Y-14570281D01*
X4720039Y-14411698D01*
X4511302Y-14202961D01*
X4265853Y-14038958D01*
X3993125Y-13925990D01*
X3703599Y-13868400D01*
X3408401Y-13868400D01*
X3118875Y-13925990D01*
X2846147Y-14038958D01*
X2600698Y-14202961D01*
X2391961Y-14411698D01*
X2227958Y-14657147D01*
X2114990Y-14929875D01*
X2057400Y-15219401D01*
X660000Y-15219401D01*
X660000Y-10545000D01*
X29820000Y-10545000D01*
X29820000Y-28738955D01*
G37*
X29820000Y-28738955D02*
X29687146Y-28667943D01*
X29311087Y-28553867D01*
X28920000Y-28515348D01*
X28528912Y-28553867D01*
X28152853Y-28667943D01*
X27806275Y-28853193D01*
X27502497Y-29102497D01*
X27253193Y-29406275D01*
X27067943Y-29752854D01*
X26953867Y-30128913D01*
X26925000Y-30422003D01*
X26925000Y-31137998D01*
X26953867Y-31431088D01*
X27067943Y-31807147D01*
X27253193Y-32153725D01*
X27502498Y-32457503D01*
X27806276Y-32706807D01*
X28152854Y-32892057D01*
X28528913Y-33006133D01*
X28920000Y-33044652D01*
X29311088Y-33006133D01*
X29687147Y-32892057D01*
X29820000Y-32821045D01*
X29820000Y-40550774D01*
X29614628Y-40465706D01*
X29234028Y-40390000D01*
X28845972Y-40390000D01*
X28465372Y-40465706D01*
X28106855Y-40614209D01*
X27784198Y-40829801D01*
X27509801Y-41104198D01*
X27294209Y-41426855D01*
X27145706Y-41785372D01*
X27070000Y-42165972D01*
X27070000Y-42554028D01*
X27145706Y-42934628D01*
X27294209Y-43293145D01*
X27509801Y-43615802D01*
X27784198Y-43890199D01*
X28106855Y-44105791D01*
X28465372Y-44254294D01*
X28845972Y-44330000D01*
X29234028Y-44330000D01*
X29614628Y-44254294D01*
X29820000Y-44169226D01*
X29820001Y-68580774D01*
X29614628Y-68495706D01*
X29234028Y-68420000D01*
X28845972Y-68420000D01*
X28465372Y-68495706D01*
X28106855Y-68644209D01*
X27784198Y-68859801D01*
X27509801Y-69134198D01*
X27294209Y-69456855D01*
X27145706Y-69815372D01*
X27070000Y-70195972D01*
X27070000Y-70584028D01*
X27145706Y-70964628D01*
X27294209Y-71323145D01*
X27509801Y-71645802D01*
X27784198Y-71920199D01*
X28106855Y-72135791D01*
X28465372Y-72284294D01*
X28845972Y-72360000D01*
X29234028Y-72360000D01*
X29614628Y-72284294D01*
X29820001Y-72199226D01*
X29820001Y-76896571D01*
X29721508Y-76855774D01*
X29521549Y-76816000D01*
X29462241Y-76816000D01*
X28460894Y-75814654D01*
X28437032Y-75785578D01*
X28321002Y-75690355D01*
X28188625Y-75619598D01*
X28044988Y-75576026D01*
X27933036Y-75565000D01*
X27933033Y-75565000D01*
X27895610Y-75561314D01*
X27858187Y-75565000D01*
X25593711Y-75565000D01*
X25551774Y-75523063D01*
X25382256Y-75409795D01*
X25193898Y-75331774D01*
X24993939Y-75292000D01*
X24790061Y-75292000D01*
X24590102Y-75331774D01*
X24401744Y-75409795D01*
X24232226Y-75523063D01*
X24088063Y-75667226D01*
X23974795Y-75836744D01*
X23896774Y-76025102D01*
X23857000Y-76225061D01*
X23857000Y-76428939D01*
X23896774Y-76628898D01*
X23974795Y-76817256D01*
X24088063Y-76986774D01*
X24232226Y-77130937D01*
X24401744Y-77244205D01*
X24590102Y-77322226D01*
X24790061Y-77362000D01*
X24993939Y-77362000D01*
X25193898Y-77322226D01*
X25382256Y-77244205D01*
X25551774Y-77130937D01*
X25593711Y-77089000D01*
X27579980Y-77089000D01*
X28384610Y-77893631D01*
X28384610Y-77952939D01*
X28424384Y-78152898D01*
X28502405Y-78341256D01*
X28615673Y-78510774D01*
X28759836Y-78654937D01*
X28929354Y-78768205D01*
X29117712Y-78846226D01*
X29317671Y-78886000D01*
X29521549Y-78886000D01*
X29721508Y-78846226D01*
X29820001Y-78805429D01*
X29820001Y-82730774D01*
X29614628Y-82645706D01*
X29234028Y-82570000D01*
X28845972Y-82570000D01*
X28465372Y-82645706D01*
X28106855Y-82794209D01*
X27784198Y-83009801D01*
X27669999Y-83124000D01*
X27669999Y-80793421D01*
X27673685Y-80755998D01*
X27669999Y-80718573D01*
X27658973Y-80606621D01*
X27615401Y-80462984D01*
X27544644Y-80330607D01*
X27449421Y-80214577D01*
X27420351Y-80190720D01*
X25927000Y-78697370D01*
X25927000Y-78638061D01*
X25887226Y-78438102D01*
X25809205Y-78249744D01*
X25695937Y-78080226D01*
X25551774Y-77936063D01*
X25382256Y-77822795D01*
X25193898Y-77744774D01*
X24993939Y-77705000D01*
X24790061Y-77705000D01*
X24590102Y-77744774D01*
X24401744Y-77822795D01*
X24232226Y-77936063D01*
X24088063Y-78080226D01*
X23974795Y-78249744D01*
X23896774Y-78438102D01*
X23857000Y-78638061D01*
X23857000Y-78841939D01*
X23896774Y-79041898D01*
X23974795Y-79230256D01*
X24088063Y-79399774D01*
X24232226Y-79543937D01*
X24401744Y-79657205D01*
X24590102Y-79735226D01*
X24790061Y-79775000D01*
X24849370Y-79775000D01*
X26146000Y-81071631D01*
X26146000Y-81895992D01*
X26060061Y-81895992D01*
X25860102Y-81935766D01*
X25671744Y-82013787D01*
X25502226Y-82127055D01*
X25358063Y-82271218D01*
X25244795Y-82440736D01*
X25166774Y-82629094D01*
X25159295Y-82666692D01*
X25131302Y-82647988D01*
X24742756Y-82487047D01*
X24330279Y-82405000D01*
X23909721Y-82405000D01*
X23497244Y-82487047D01*
X23108698Y-82647988D01*
X22759017Y-82881637D01*
X22461637Y-83179017D01*
X22348818Y-83347862D01*
X22293501Y-83265074D01*
X22014926Y-82986499D01*
X21687355Y-82767623D01*
X21323378Y-82616859D01*
X20936983Y-82540000D01*
X20543017Y-82540000D01*
X20156622Y-82616859D01*
X19792645Y-82767623D01*
X19465074Y-82986499D01*
X19186499Y-83265074D01*
X19047008Y-83473836D01*
X18934012Y-83425593D01*
X17819605Y-84540000D01*
X18934012Y-85654407D01*
X19047008Y-85606164D01*
X19186499Y-85814926D01*
X19465074Y-86093501D01*
X19792645Y-86312377D01*
X20156622Y-86463141D01*
X20543017Y-86540000D01*
X20936983Y-86540000D01*
X21323378Y-86463141D01*
X21687355Y-86312377D01*
X22014926Y-86093501D01*
X22293501Y-85814926D01*
X22348818Y-85732138D01*
X22461637Y-85900983D01*
X22759017Y-86198363D01*
X23108698Y-86432012D01*
X23497244Y-86592953D01*
X23909721Y-86675000D01*
X24330279Y-86675000D01*
X24742756Y-86592953D01*
X24746494Y-86591405D01*
X24785774Y-86788878D01*
X24863795Y-86977236D01*
X24977063Y-87146754D01*
X25121226Y-87290917D01*
X25290744Y-87404185D01*
X25479102Y-87482206D01*
X25679061Y-87521980D01*
X25882939Y-87521980D01*
X26082898Y-87482206D01*
X26271256Y-87404185D01*
X26440774Y-87290917D01*
X26584937Y-87146754D01*
X26698205Y-86977236D01*
X26776226Y-86788878D01*
X26816000Y-86588919D01*
X26816000Y-86514376D01*
X26817644Y-86512373D01*
X26821050Y-86506000D01*
X27009938Y-86506000D01*
X27209897Y-86466226D01*
X27398255Y-86388205D01*
X27567773Y-86274937D01*
X27711936Y-86130774D01*
X27765143Y-86051144D01*
X27784198Y-86070199D01*
X28106855Y-86285791D01*
X28465372Y-86434294D01*
X28845972Y-86510000D01*
X29234028Y-86510000D01*
X29614628Y-86434294D01*
X29820001Y-86349226D01*
X29820001Y-92910774D01*
X29614628Y-92825706D01*
X29234028Y-92750000D01*
X28845972Y-92750000D01*
X28465372Y-92825706D01*
X28106855Y-92974209D01*
X27784198Y-93189801D01*
X27509801Y-93464198D01*
X27294209Y-93786855D01*
X27145706Y-94145372D01*
X27070000Y-94525972D01*
X27070000Y-94914028D01*
X27145706Y-95294628D01*
X27294209Y-95653145D01*
X27509801Y-95975802D01*
X27784198Y-96250199D01*
X28106855Y-96465791D01*
X28465372Y-96614294D01*
X28845972Y-96690000D01*
X29234028Y-96690000D01*
X29614628Y-96614294D01*
X29820001Y-96529226D01*
X29820001Y-103090774D01*
X29614628Y-103005706D01*
X29234028Y-102930000D01*
X28845972Y-102930000D01*
X28465372Y-103005706D01*
X28106855Y-103154209D01*
X27784198Y-103369801D01*
X27509801Y-103644198D01*
X27294209Y-103966855D01*
X27145706Y-104325372D01*
X27070000Y-104705972D01*
X27070000Y-105094028D01*
X27145706Y-105474628D01*
X27294209Y-105833145D01*
X27509801Y-106155802D01*
X27784198Y-106430199D01*
X28106855Y-106645791D01*
X28465372Y-106794294D01*
X28845972Y-106870000D01*
X29234028Y-106870000D01*
X29614628Y-106794294D01*
X29820001Y-106709226D01*
X29820001Y-113270774D01*
X29614628Y-113185706D01*
X29234028Y-113110000D01*
X28845972Y-113110000D01*
X28465372Y-113185706D01*
X28106855Y-113334209D01*
X27784198Y-113549801D01*
X27509801Y-113824198D01*
X27294209Y-114146855D01*
X27145706Y-114505372D01*
X27070000Y-114885972D01*
X27070000Y-115274028D01*
X27145706Y-115654628D01*
X27294209Y-116013145D01*
X27509801Y-116335802D01*
X27784198Y-116610199D01*
X28106855Y-116825791D01*
X28465372Y-116974294D01*
X28845972Y-117050000D01*
X29234028Y-117050000D01*
X29614628Y-116974294D01*
X29820001Y-116889226D01*
X29820001Y-119225000D01*
X16857251Y-119225000D01*
X16957743Y-119205011D01*
X17237095Y-119089299D01*
X17488505Y-118921312D01*
X17702312Y-118707505D01*
X17870299Y-118456095D01*
X17986011Y-118176743D01*
X18045000Y-117880184D01*
X18045000Y-117577816D01*
X17986011Y-117281257D01*
X17870299Y-117001905D01*
X17821829Y-116929365D01*
X18056744Y-116899369D01*
X18403677Y-116783108D01*
X18631806Y-116661170D01*
X18754407Y-116374012D01*
X17640000Y-115259605D01*
X17625858Y-115273748D01*
X17446253Y-115094143D01*
X17460395Y-115080000D01*
X17819605Y-115080000D01*
X18934012Y-116194407D01*
X19047008Y-116146164D01*
X19186499Y-116354926D01*
X19465074Y-116633501D01*
X19792645Y-116852377D01*
X20156622Y-117003141D01*
X20543017Y-117080000D01*
X20936983Y-117080000D01*
X21323378Y-117003141D01*
X21687355Y-116852377D01*
X22014926Y-116633501D01*
X22293501Y-116354926D01*
X22348818Y-116272138D01*
X22461637Y-116440983D01*
X22759017Y-116738363D01*
X23108698Y-116972012D01*
X23497244Y-117132953D01*
X23909721Y-117215000D01*
X24330279Y-117215000D01*
X24742756Y-117132953D01*
X25131302Y-116972012D01*
X25480983Y-116738363D01*
X25778363Y-116440983D01*
X26012012Y-116091302D01*
X26172953Y-115702756D01*
X26255000Y-115290279D01*
X26255000Y-114869721D01*
X26172953Y-114457244D01*
X26012012Y-114068698D01*
X25778363Y-113719017D01*
X25480983Y-113421637D01*
X25131302Y-113187988D01*
X24742756Y-113027047D01*
X24330279Y-112945000D01*
X23909721Y-112945000D01*
X23497244Y-113027047D01*
X23108698Y-113187988D01*
X22759017Y-113421637D01*
X22461637Y-113719017D01*
X22348818Y-113887862D01*
X22293501Y-113805074D01*
X22014926Y-113526499D01*
X21687355Y-113307623D01*
X21323378Y-113156859D01*
X20936983Y-113080000D01*
X20543017Y-113080000D01*
X20156622Y-113156859D01*
X19792645Y-113307623D01*
X19465074Y-113526499D01*
X19186499Y-113805074D01*
X19047008Y-114013836D01*
X18934012Y-113965593D01*
X17819605Y-115080000D01*
X17460395Y-115080000D01*
X16345988Y-113965593D01*
X16058830Y-114088194D01*
X15895720Y-114415722D01*
X15799641Y-114768778D01*
X15774287Y-115133795D01*
X15820631Y-115496744D01*
X15936892Y-115843677D01*
X16058830Y-116071806D01*
X16345986Y-116194406D01*
X16343307Y-116197085D01*
X16062257Y-116252989D01*
X15782905Y-116368701D01*
X15531495Y-116536688D01*
X15465056Y-116603127D01*
X15459502Y-116584820D01*
X15400537Y-116474506D01*
X15321185Y-116377815D01*
X15224494Y-116298463D01*
X15114180Y-116239498D01*
X14994482Y-116203188D01*
X14870000Y-116190928D01*
X14132161Y-116190928D01*
X14411170Y-116071806D01*
X14574280Y-115744278D01*
X14670359Y-115391222D01*
X14695713Y-115026205D01*
X14649369Y-114663256D01*
X14533108Y-114316323D01*
X14411170Y-114088194D01*
X14124012Y-113965593D01*
X13009605Y-115080000D01*
X13023748Y-115094143D01*
X12844143Y-115273748D01*
X12830000Y-115259605D01*
X11715593Y-116374012D01*
X11838194Y-116661170D01*
X12165722Y-116824280D01*
X12431928Y-116896724D01*
X12431928Y-118629000D01*
X12444188Y-118753482D01*
X12480498Y-118873180D01*
X12539463Y-118983494D01*
X12618815Y-119080185D01*
X12715506Y-119159537D01*
X12825820Y-119218502D01*
X12847241Y-119225000D01*
X660000Y-119225000D01*
X660000Y-116893368D01*
X855372Y-116974294D01*
X1235972Y-117050000D01*
X1624028Y-117050000D01*
X2004628Y-116974294D01*
X2363145Y-116825791D01*
X2685802Y-116610199D01*
X2960199Y-116335802D01*
X3175791Y-116013145D01*
X3324294Y-115654628D01*
X3400000Y-115274028D01*
X3400000Y-114885972D01*
X3396768Y-114869721D01*
X4215000Y-114869721D01*
X4215000Y-115290279D01*
X4297047Y-115702756D01*
X4457988Y-116091302D01*
X4691637Y-116440983D01*
X4989017Y-116738363D01*
X5338698Y-116972012D01*
X5727244Y-117132953D01*
X6139721Y-117215000D01*
X6560279Y-117215000D01*
X6972756Y-117132953D01*
X7361302Y-116972012D01*
X7710983Y-116738363D01*
X7973825Y-116475521D01*
X8514084Y-116475521D01*
X8653848Y-116777262D01*
X9005645Y-116954597D01*
X9385279Y-117059891D01*
X9778160Y-117089100D01*
X10169190Y-117041101D01*
X10543343Y-116917737D01*
X10806152Y-116777262D01*
X10945916Y-116475521D01*
X9730000Y-115259605D01*
X8514084Y-116475521D01*
X7973825Y-116475521D01*
X8008363Y-116440983D01*
X8159461Y-116214849D01*
X8334479Y-116295916D01*
X9550395Y-115080000D01*
X9909605Y-115080000D01*
X11125521Y-116295916D01*
X11427262Y-116156152D01*
X11430649Y-116149433D01*
X11535988Y-116194407D01*
X12650395Y-115080000D01*
X11535988Y-113965593D01*
X11430815Y-114010496D01*
X11427262Y-114003848D01*
X11125521Y-113864084D01*
X9909605Y-115080000D01*
X9550395Y-115080000D01*
X8334479Y-113864084D01*
X8159461Y-113945151D01*
X8008363Y-113719017D01*
X7973825Y-113684479D01*
X8514084Y-113684479D01*
X9730000Y-114900395D01*
X10844407Y-113785988D01*
X11715593Y-113785988D01*
X12830000Y-114900395D01*
X13944407Y-113785988D01*
X16525593Y-113785988D01*
X17640000Y-114900395D01*
X18754407Y-113785988D01*
X18631806Y-113498830D01*
X18304278Y-113335720D01*
X17951222Y-113239641D01*
X17586205Y-113214287D01*
X17223256Y-113260631D01*
X16876323Y-113376892D01*
X16648194Y-113498830D01*
X16525593Y-113785988D01*
X13944407Y-113785988D01*
X13821806Y-113498830D01*
X13494278Y-113335720D01*
X13141222Y-113239641D01*
X12776205Y-113214287D01*
X12413256Y-113260631D01*
X12066323Y-113376892D01*
X11838194Y-113498830D01*
X11715593Y-113785988D01*
X10844407Y-113785988D01*
X10945916Y-113684479D01*
X10806152Y-113382738D01*
X10454355Y-113205403D01*
X10074721Y-113100109D01*
X9681840Y-113070900D01*
X9290810Y-113118899D01*
X8916657Y-113242263D01*
X8653848Y-113382738D01*
X8514084Y-113684479D01*
X7973825Y-113684479D01*
X7710983Y-113421637D01*
X7361302Y-113187988D01*
X6972756Y-113027047D01*
X6560279Y-112945000D01*
X6139721Y-112945000D01*
X5727244Y-113027047D01*
X5338698Y-113187988D01*
X4989017Y-113421637D01*
X4691637Y-113719017D01*
X4457988Y-114068698D01*
X4297047Y-114457244D01*
X4215000Y-114869721D01*
X3396768Y-114869721D01*
X3324294Y-114505372D01*
X3175791Y-114146855D01*
X2960199Y-113824198D01*
X2685802Y-113549801D01*
X2363145Y-113334209D01*
X2004628Y-113185706D01*
X1624028Y-113110000D01*
X1235972Y-113110000D01*
X855372Y-113185706D01*
X660000Y-113266632D01*
X660000Y-106713368D01*
X855372Y-106794294D01*
X1235972Y-106870000D01*
X1624028Y-106870000D01*
X2004628Y-106794294D01*
X2363145Y-106645791D01*
X2685802Y-106430199D01*
X2960199Y-106155802D01*
X3175791Y-105833145D01*
X3324294Y-105474628D01*
X3400000Y-105094028D01*
X3400000Y-104705972D01*
X3396768Y-104689721D01*
X4215000Y-104689721D01*
X4215000Y-105110279D01*
X4297047Y-105522756D01*
X4457988Y-105911302D01*
X4691637Y-106260983D01*
X4989017Y-106558363D01*
X5338698Y-106792012D01*
X5727244Y-106952953D01*
X6139721Y-107035000D01*
X6560279Y-107035000D01*
X6972756Y-106952953D01*
X7361302Y-106792012D01*
X7710983Y-106558363D01*
X7973825Y-106295521D01*
X8514084Y-106295521D01*
X8653848Y-106597262D01*
X9005645Y-106774597D01*
X9385279Y-106879891D01*
X9778160Y-106909100D01*
X10169190Y-106861101D01*
X10543343Y-106737737D01*
X10806152Y-106597262D01*
X10945916Y-106295521D01*
X10844407Y-106194012D01*
X11715593Y-106194012D01*
X11838194Y-106481170D01*
X12165722Y-106644280D01*
X12431928Y-106716724D01*
X12431928Y-108449000D01*
X12444188Y-108573482D01*
X12480498Y-108693180D01*
X12539463Y-108803494D01*
X12618815Y-108900185D01*
X12715506Y-108979537D01*
X12825820Y-109038502D01*
X12945518Y-109074812D01*
X13070000Y-109087072D01*
X14870000Y-109087072D01*
X14994482Y-109074812D01*
X15114180Y-109038502D01*
X15224494Y-108979537D01*
X15321185Y-108900185D01*
X15400537Y-108803494D01*
X15459502Y-108693180D01*
X15465056Y-108674873D01*
X15531495Y-108741312D01*
X15782905Y-108909299D01*
X16062257Y-109025011D01*
X16358816Y-109084000D01*
X16661184Y-109084000D01*
X16957743Y-109025011D01*
X17237095Y-108909299D01*
X17488505Y-108741312D01*
X17702312Y-108527505D01*
X17870299Y-108276095D01*
X17986011Y-107996743D01*
X18009538Y-107878461D01*
X20682000Y-107878461D01*
X20682000Y-108082339D01*
X20721774Y-108282298D01*
X20799795Y-108470656D01*
X20913063Y-108640174D01*
X20954889Y-108682000D01*
X20913063Y-108723826D01*
X20799795Y-108893344D01*
X20721774Y-109081702D01*
X20682000Y-109281661D01*
X20682000Y-109485539D01*
X20721774Y-109685498D01*
X20799795Y-109873856D01*
X20895787Y-110017518D01*
X20813588Y-110140537D01*
X20735567Y-110328895D01*
X20695793Y-110528854D01*
X20695793Y-110732732D01*
X20735567Y-110932691D01*
X20813588Y-111121049D01*
X20926856Y-111290567D01*
X21071019Y-111434730D01*
X21240537Y-111547998D01*
X21428895Y-111626019D01*
X21628854Y-111665793D01*
X21724084Y-111665793D01*
X22003607Y-111945317D01*
X22003607Y-112040546D01*
X22043381Y-112240505D01*
X22121402Y-112428863D01*
X22234670Y-112598381D01*
X22378833Y-112742544D01*
X22548351Y-112855812D01*
X22736709Y-112933833D01*
X22936668Y-112973607D01*
X23140546Y-112973607D01*
X23340505Y-112933833D01*
X23528863Y-112855812D01*
X23698381Y-112742544D01*
X23842544Y-112598381D01*
X23955812Y-112428863D01*
X24033833Y-112240505D01*
X24073607Y-112040546D01*
X24073607Y-111836668D01*
X24033833Y-111636709D01*
X23955812Y-111448351D01*
X23842544Y-111278833D01*
X23698381Y-111134670D01*
X23528863Y-111021402D01*
X23340505Y-110943381D01*
X23140546Y-110903607D01*
X23045317Y-110903607D01*
X22765793Y-110624084D01*
X22765793Y-110528854D01*
X22726019Y-110328895D01*
X22647998Y-110140537D01*
X22552006Y-109996875D01*
X22634205Y-109873856D01*
X22712226Y-109685498D01*
X22752000Y-109485539D01*
X22752000Y-109281661D01*
X22712226Y-109081702D01*
X22634205Y-108893344D01*
X22520937Y-108723826D01*
X22479111Y-108682000D01*
X22520937Y-108640174D01*
X22634205Y-108470656D01*
X22712226Y-108282298D01*
X22752000Y-108082339D01*
X22752000Y-107878461D01*
X22712226Y-107678502D01*
X22634205Y-107490144D01*
X22520937Y-107320626D01*
X22376774Y-107176463D01*
X22207256Y-107063195D01*
X22018898Y-106985174D01*
X21818939Y-106945400D01*
X21615061Y-106945400D01*
X21415102Y-106985174D01*
X21226744Y-107063195D01*
X21057226Y-107176463D01*
X20913063Y-107320626D01*
X20799795Y-107490144D01*
X20721774Y-107678502D01*
X20682000Y-107878461D01*
X18009538Y-107878461D01*
X18045000Y-107700184D01*
X18045000Y-107397816D01*
X17986011Y-107101257D01*
X17870299Y-106821905D01*
X17821829Y-106749365D01*
X18056744Y-106719369D01*
X18403677Y-106603108D01*
X18631806Y-106481170D01*
X18754407Y-106194012D01*
X17640000Y-105079605D01*
X17625858Y-105093748D01*
X17446253Y-104914143D01*
X17460395Y-104900000D01*
X17819605Y-104900000D01*
X18934012Y-106014407D01*
X19047008Y-105966164D01*
X19186499Y-106174926D01*
X19465074Y-106453501D01*
X19792645Y-106672377D01*
X20156622Y-106823141D01*
X20543017Y-106900000D01*
X20936983Y-106900000D01*
X21323378Y-106823141D01*
X21687355Y-106672377D01*
X22014926Y-106453501D01*
X22293501Y-106174926D01*
X22348818Y-106092138D01*
X22461637Y-106260983D01*
X22759017Y-106558363D01*
X23108698Y-106792012D01*
X23497244Y-106952953D01*
X23909721Y-107035000D01*
X24330279Y-107035000D01*
X24742756Y-106952953D01*
X25131302Y-106792012D01*
X25480983Y-106558363D01*
X25778363Y-106260983D01*
X26012012Y-105911302D01*
X26172953Y-105522756D01*
X26255000Y-105110279D01*
X26255000Y-104689721D01*
X26172953Y-104277244D01*
X26012012Y-103888698D01*
X25778363Y-103539017D01*
X25480983Y-103241637D01*
X25131302Y-103007988D01*
X24742756Y-102847047D01*
X24330279Y-102765000D01*
X23909721Y-102765000D01*
X23497244Y-102847047D01*
X23108698Y-103007988D01*
X22759017Y-103241637D01*
X22461637Y-103539017D01*
X22348818Y-103707862D01*
X22293501Y-103625074D01*
X22014926Y-103346499D01*
X21687355Y-103127623D01*
X21323378Y-102976859D01*
X20936983Y-102900000D01*
X20543017Y-102900000D01*
X20156622Y-102976859D01*
X19792645Y-103127623D01*
X19465074Y-103346499D01*
X19186499Y-103625074D01*
X19047008Y-103833836D01*
X18934012Y-103785593D01*
X17819605Y-104900000D01*
X17460395Y-104900000D01*
X16345988Y-103785593D01*
X16058830Y-103908194D01*
X15895720Y-104235722D01*
X15799641Y-104588778D01*
X15774287Y-104953795D01*
X15820631Y-105316744D01*
X15936892Y-105663677D01*
X16058830Y-105891806D01*
X16345986Y-106014406D01*
X16343307Y-106017085D01*
X16062257Y-106072989D01*
X15782905Y-106188701D01*
X15531495Y-106356688D01*
X15465056Y-106423127D01*
X15459502Y-106404820D01*
X15400537Y-106294506D01*
X15321185Y-106197815D01*
X15224494Y-106118463D01*
X15114180Y-106059498D01*
X14994482Y-106023188D01*
X14870000Y-106010928D01*
X14132161Y-106010928D01*
X14411170Y-105891806D01*
X14574280Y-105564278D01*
X14670359Y-105211222D01*
X14695713Y-104846205D01*
X14649369Y-104483256D01*
X14533108Y-104136323D01*
X14411170Y-103908194D01*
X14124012Y-103785593D01*
X13009605Y-104900000D01*
X13023748Y-104914143D01*
X12844143Y-105093748D01*
X12830000Y-105079605D01*
X11715593Y-106194012D01*
X10844407Y-106194012D01*
X9730000Y-105079605D01*
X8514084Y-106295521D01*
X7973825Y-106295521D01*
X8008363Y-106260983D01*
X8159461Y-106034849D01*
X8334479Y-106115916D01*
X9550395Y-104900000D01*
X9909605Y-104900000D01*
X11125521Y-106115916D01*
X11427262Y-105976152D01*
X11430649Y-105969433D01*
X11535988Y-106014407D01*
X12650395Y-104900000D01*
X11535988Y-103785593D01*
X11430815Y-103830496D01*
X11427262Y-103823848D01*
X11125521Y-103684084D01*
X9909605Y-104900000D01*
X9550395Y-104900000D01*
X8334479Y-103684084D01*
X8159461Y-103765151D01*
X8008363Y-103539017D01*
X7973825Y-103504479D01*
X8514084Y-103504479D01*
X9730000Y-104720395D01*
X10844407Y-103605988D01*
X11715593Y-103605988D01*
X12830000Y-104720395D01*
X13944407Y-103605988D01*
X16525593Y-103605988D01*
X17640000Y-104720395D01*
X18754407Y-103605988D01*
X18631806Y-103318830D01*
X18304278Y-103155720D01*
X17951222Y-103059641D01*
X17586205Y-103034287D01*
X17223256Y-103080631D01*
X16876323Y-103196892D01*
X16648194Y-103318830D01*
X16525593Y-103605988D01*
X13944407Y-103605988D01*
X13821806Y-103318830D01*
X13494278Y-103155720D01*
X13141222Y-103059641D01*
X12776205Y-103034287D01*
X12413256Y-103080631D01*
X12066323Y-103196892D01*
X11838194Y-103318830D01*
X11715593Y-103605988D01*
X10844407Y-103605988D01*
X10945916Y-103504479D01*
X10806152Y-103202738D01*
X10454355Y-103025403D01*
X10074721Y-102920109D01*
X9681840Y-102890900D01*
X9290810Y-102938899D01*
X8916657Y-103062263D01*
X8653848Y-103202738D01*
X8514084Y-103504479D01*
X7973825Y-103504479D01*
X7710983Y-103241637D01*
X7361302Y-103007988D01*
X6972756Y-102847047D01*
X6560279Y-102765000D01*
X6139721Y-102765000D01*
X5727244Y-102847047D01*
X5338698Y-103007988D01*
X4989017Y-103241637D01*
X4691637Y-103539017D01*
X4457988Y-103888698D01*
X4297047Y-104277244D01*
X4215000Y-104689721D01*
X3396768Y-104689721D01*
X3324294Y-104325372D01*
X3175791Y-103966855D01*
X2960199Y-103644198D01*
X2685802Y-103369801D01*
X2363145Y-103154209D01*
X2004628Y-103005706D01*
X1624028Y-102930000D01*
X1235972Y-102930000D01*
X855372Y-103005706D01*
X660000Y-103086632D01*
X660000Y-98360000D01*
X2311928Y-98360000D01*
X2324188Y-98484482D01*
X2360498Y-98604180D01*
X2419463Y-98714494D01*
X2498815Y-98811185D01*
X2595506Y-98890537D01*
X2705820Y-98949502D01*
X2825518Y-98985812D01*
X2950000Y-98998072D01*
X3564250Y-98995000D01*
X3723000Y-98836250D01*
X3723000Y-97587000D01*
X2473750Y-97587000D01*
X2315000Y-97745750D01*
X2311928Y-98360000D01*
X660000Y-98360000D01*
X660000Y-96560000D01*
X2311928Y-96560000D01*
X2315000Y-97174250D01*
X2473750Y-97333000D01*
X3723000Y-97333000D01*
X3723000Y-96083750D01*
X3564250Y-95925000D01*
X2950000Y-95921928D01*
X2825518Y-95934188D01*
X2705820Y-95970498D01*
X2595506Y-96029463D01*
X2498815Y-96108815D01*
X2419463Y-96205506D01*
X2360498Y-96315820D01*
X2324188Y-96435518D01*
X2311928Y-96560000D01*
X660000Y-96560000D01*
X660000Y-92006391D01*
X782853Y-92072057D01*
X1158912Y-92186133D01*
X1550000Y-92224652D01*
X1941087Y-92186133D01*
X2317146Y-92072057D01*
X2655017Y-91891461D01*
X3739393Y-91891461D01*
X3739393Y-92095339D01*
X3779167Y-92295298D01*
X3857188Y-92483656D01*
X3948893Y-92620903D01*
X3948894Y-94229175D01*
X3944899Y-94269735D01*
X3960838Y-94431561D01*
X4008040Y-94587168D01*
X4084694Y-94730577D01*
X4126088Y-94781015D01*
X4187853Y-94856276D01*
X4219354Y-94882128D01*
X5511419Y-96174194D01*
X5371495Y-96267688D01*
X5333880Y-96305303D01*
X5280537Y-96205506D01*
X5201185Y-96108815D01*
X5104494Y-96029463D01*
X4994180Y-95970498D01*
X4874482Y-95934188D01*
X4750000Y-95921928D01*
X4135750Y-95925000D01*
X3977000Y-96083750D01*
X3977000Y-97333000D01*
X3997000Y-97333000D01*
X3997000Y-97587000D01*
X3977000Y-97587000D01*
X3977000Y-98836250D01*
X4135750Y-98995000D01*
X4750000Y-98998072D01*
X4874482Y-98985812D01*
X4994180Y-98949502D01*
X5104494Y-98890537D01*
X5201185Y-98811185D01*
X5280537Y-98714494D01*
X5333880Y-98614697D01*
X5371495Y-98652312D01*
X5622905Y-98820299D01*
X5902257Y-98936011D01*
X6198816Y-98995000D01*
X6501184Y-98995000D01*
X6797743Y-98936011D01*
X7077095Y-98820299D01*
X7328505Y-98652312D01*
X7542312Y-98438505D01*
X7600000Y-98352169D01*
X7657688Y-98438505D01*
X7871495Y-98652312D01*
X8122905Y-98820299D01*
X8402257Y-98936011D01*
X8698816Y-98995000D01*
X9001184Y-98995000D01*
X9297743Y-98936011D01*
X9315002Y-98928862D01*
X9315002Y-100142941D01*
X9311007Y-100183501D01*
X9326946Y-100345327D01*
X9374148Y-100500934D01*
X9450802Y-100644343D01*
X9505506Y-100710999D01*
X9553961Y-100770042D01*
X9585462Y-100795894D01*
X10055602Y-101266034D01*
X10081459Y-101297541D01*
X10169927Y-101370145D01*
X10207157Y-101400699D01*
X10257111Y-101427399D01*
X10350566Y-101477353D01*
X10506174Y-101524556D01*
X10627447Y-101536500D01*
X10627449Y-101536500D01*
X10667999Y-101540494D01*
X10708550Y-101536500D01*
X12961497Y-101536500D01*
X13098744Y-101628205D01*
X13287102Y-101706226D01*
X13487061Y-101746000D01*
X13690939Y-101746000D01*
X13890898Y-101706226D01*
X14079256Y-101628205D01*
X14248774Y-101514937D01*
X14392937Y-101370774D01*
X14506205Y-101201256D01*
X14584226Y-101012898D01*
X14624000Y-100812939D01*
X14624000Y-100609061D01*
X24185001Y-100609061D01*
X24185001Y-100812939D01*
X24224775Y-101012898D01*
X24302796Y-101201256D01*
X24416064Y-101370774D01*
X24560227Y-101514937D01*
X24729745Y-101628205D01*
X24918103Y-101706226D01*
X25118062Y-101746000D01*
X25321940Y-101746000D01*
X25521899Y-101706226D01*
X25710257Y-101628205D01*
X25847504Y-101536500D01*
X26248450Y-101536500D01*
X26289000Y-101540494D01*
X26329550Y-101536500D01*
X26329553Y-101536500D01*
X26450826Y-101524556D01*
X26606434Y-101477353D01*
X26749842Y-101400699D01*
X26875541Y-101297541D01*
X26901397Y-101266035D01*
X27318005Y-100849428D01*
X27479898Y-100817226D01*
X27668256Y-100739205D01*
X27837774Y-100625937D01*
X27981937Y-100481774D01*
X28095205Y-100312256D01*
X28173226Y-100123898D01*
X28213000Y-99923939D01*
X28213000Y-99720061D01*
X28173226Y-99520102D01*
X28095205Y-99331744D01*
X27981937Y-99162226D01*
X27837774Y-99018063D01*
X27668256Y-98904795D01*
X27479898Y-98826774D01*
X27279939Y-98787000D01*
X27076061Y-98787000D01*
X26876102Y-98826774D01*
X26687744Y-98904795D01*
X26518226Y-99018063D01*
X26374063Y-99162226D01*
X26260795Y-99331744D01*
X26182774Y-99520102D01*
X26150572Y-99681995D01*
X25947067Y-99885500D01*
X25847504Y-99885500D01*
X25710257Y-99793795D01*
X25521899Y-99715774D01*
X25321940Y-99676000D01*
X25118062Y-99676000D01*
X24918103Y-99715774D01*
X24729745Y-99793795D01*
X24560227Y-99907063D01*
X24416064Y-100051226D01*
X24302796Y-100220744D01*
X24224775Y-100409102D01*
X24185001Y-100609061D01*
X14624000Y-100609061D01*
X14584226Y-100409102D01*
X14506205Y-100220744D01*
X14392937Y-100051226D01*
X14248774Y-99907063D01*
X14079256Y-99793795D01*
X13890898Y-99715774D01*
X13690939Y-99676000D01*
X13487061Y-99676000D01*
X13287102Y-99715774D01*
X13098744Y-99793795D01*
X12961497Y-99885500D01*
X11009932Y-99885500D01*
X10966001Y-99841569D01*
X10966001Y-96881109D01*
X10969995Y-96840558D01*
X10964217Y-96781890D01*
X10954057Y-96678733D01*
X10906854Y-96523125D01*
X10877924Y-96469000D01*
X12431928Y-96469000D01*
X12431928Y-98269000D01*
X12444188Y-98393482D01*
X12480498Y-98513180D01*
X12539463Y-98623494D01*
X12618815Y-98720185D01*
X12715506Y-98799537D01*
X12825820Y-98858502D01*
X12945518Y-98894812D01*
X13070000Y-98907072D01*
X14870000Y-98907072D01*
X14994482Y-98894812D01*
X15114180Y-98858502D01*
X15224494Y-98799537D01*
X15321185Y-98720185D01*
X15400537Y-98623494D01*
X15459502Y-98513180D01*
X15465056Y-98494873D01*
X15531495Y-98561312D01*
X15782905Y-98729299D01*
X16062257Y-98845011D01*
X16358816Y-98904000D01*
X16661184Y-98904000D01*
X16957743Y-98845011D01*
X17237095Y-98729299D01*
X17488505Y-98561312D01*
X17702312Y-98347505D01*
X17870299Y-98096095D01*
X17986011Y-97816743D01*
X18045000Y-97520184D01*
X18045000Y-97217816D01*
X17986011Y-96921257D01*
X17870299Y-96641905D01*
X17821829Y-96569365D01*
X18056744Y-96539369D01*
X18403677Y-96423108D01*
X18631806Y-96301170D01*
X18754407Y-96014012D01*
X17640000Y-94899605D01*
X17625858Y-94913748D01*
X17446253Y-94734143D01*
X17460395Y-94720000D01*
X17819605Y-94720000D01*
X18934012Y-95834407D01*
X19047008Y-95786164D01*
X19186499Y-95994926D01*
X19465074Y-96273501D01*
X19792645Y-96492377D01*
X20156622Y-96643141D01*
X20543017Y-96720000D01*
X20936983Y-96720000D01*
X21323378Y-96643141D01*
X21687355Y-96492377D01*
X22014926Y-96273501D01*
X22293501Y-95994926D01*
X22348818Y-95912138D01*
X22461637Y-96080983D01*
X22759017Y-96378363D01*
X23108698Y-96612012D01*
X23497244Y-96772953D01*
X23909721Y-96855000D01*
X24330279Y-96855000D01*
X24742756Y-96772953D01*
X25131302Y-96612012D01*
X25480983Y-96378363D01*
X25778363Y-96080983D01*
X26012012Y-95731302D01*
X26172953Y-95342756D01*
X26255000Y-94930279D01*
X26255000Y-94509721D01*
X26172953Y-94097244D01*
X26012012Y-93708698D01*
X25778363Y-93359017D01*
X25480983Y-93061637D01*
X25131302Y-92827988D01*
X24742756Y-92667047D01*
X24330279Y-92585000D01*
X23909721Y-92585000D01*
X23497244Y-92667047D01*
X23108698Y-92827988D01*
X22759017Y-93061637D01*
X22461637Y-93359017D01*
X22348818Y-93527862D01*
X22293501Y-93445074D01*
X22014926Y-93166499D01*
X21687355Y-92947623D01*
X21323378Y-92796859D01*
X20936983Y-92720000D01*
X20543017Y-92720000D01*
X20156622Y-92796859D01*
X19792645Y-92947623D01*
X19465074Y-93166499D01*
X19186499Y-93445074D01*
X19047008Y-93653836D01*
X18934012Y-93605593D01*
X17819605Y-94720000D01*
X17460395Y-94720000D01*
X16345988Y-93605593D01*
X16058830Y-93728194D01*
X15895720Y-94055722D01*
X15799641Y-94408778D01*
X15774287Y-94773795D01*
X15820631Y-95136744D01*
X15936892Y-95483677D01*
X16058830Y-95711806D01*
X16345986Y-95834406D01*
X16343307Y-95837085D01*
X16062257Y-95892989D01*
X15782905Y-96008701D01*
X15531495Y-96176688D01*
X15465056Y-96243127D01*
X15459502Y-96224820D01*
X15400537Y-96114506D01*
X15321185Y-96017815D01*
X15224494Y-95938463D01*
X15114180Y-95879498D01*
X14994482Y-95843188D01*
X14870000Y-95830928D01*
X13070000Y-95830928D01*
X12945518Y-95843188D01*
X12825820Y-95879498D01*
X12715506Y-95938463D01*
X12618815Y-96017815D01*
X12539463Y-96114506D01*
X12480498Y-96224820D01*
X12444188Y-96344518D01*
X12431928Y-96469000D01*
X10877924Y-96469000D01*
X10876208Y-96465791D01*
X10830200Y-96379716D01*
X10752892Y-96285517D01*
X10727042Y-96254018D01*
X10695541Y-96228166D01*
X10081839Y-95614465D01*
X10055982Y-95582958D01*
X9930283Y-95479800D01*
X9786875Y-95403146D01*
X9631267Y-95355943D01*
X9509994Y-95343999D01*
X9509991Y-95343999D01*
X9469441Y-95340005D01*
X9428891Y-95343999D01*
X8582858Y-95343999D01*
X8660774Y-95291937D01*
X8702711Y-95250000D01*
X12064889Y-95250000D01*
X12106826Y-95291937D01*
X12276344Y-95405205D01*
X12464702Y-95483226D01*
X12664661Y-95523000D01*
X12868539Y-95523000D01*
X13068498Y-95483226D01*
X13256856Y-95405205D01*
X13426374Y-95291937D01*
X13570537Y-95147774D01*
X13683805Y-94978256D01*
X13761826Y-94789898D01*
X13801600Y-94589939D01*
X13801600Y-94386061D01*
X13761826Y-94186102D01*
X13683805Y-93997744D01*
X13570537Y-93828226D01*
X13426374Y-93684063D01*
X13256856Y-93570795D01*
X13068498Y-93492774D01*
X12868539Y-93453000D01*
X12664661Y-93453000D01*
X12464702Y-93492774D01*
X12276344Y-93570795D01*
X12106826Y-93684063D01*
X12064889Y-93726000D01*
X11783720Y-93726000D01*
X11848148Y-93699313D01*
X12017666Y-93586045D01*
X12161829Y-93441882D01*
X12172449Y-93425988D01*
X16525593Y-93425988D01*
X17640000Y-94540395D01*
X18754407Y-93425988D01*
X18631806Y-93138830D01*
X18304278Y-92975720D01*
X17951222Y-92879641D01*
X17586205Y-92854287D01*
X17223256Y-92900631D01*
X16876323Y-93016892D01*
X16648194Y-93138830D01*
X16525593Y-93425988D01*
X12172449Y-93425988D01*
X12275097Y-93272364D01*
X12353118Y-93084006D01*
X12355404Y-93072512D01*
X12366898Y-93070226D01*
X12555256Y-92992205D01*
X12724774Y-92878937D01*
X12868937Y-92734774D01*
X12982205Y-92565256D01*
X13060226Y-92376898D01*
X13100000Y-92176939D01*
X13100000Y-91973061D01*
X13060226Y-91773102D01*
X12982205Y-91584744D01*
X12868937Y-91415226D01*
X12803568Y-91349857D01*
X12816807Y-91333725D01*
X13002057Y-90987147D01*
X13116133Y-90611088D01*
X13145000Y-90317998D01*
X13145000Y-89602003D01*
X13138401Y-89535000D01*
X20062314Y-89535000D01*
X20066000Y-89572424D01*
X20066001Y-90513567D01*
X20062314Y-90551000D01*
X20077027Y-90700378D01*
X20120599Y-90844015D01*
X20191355Y-90976392D01*
X20260475Y-91060614D01*
X20286579Y-91092422D01*
X20315649Y-91116279D01*
X21214175Y-92014805D01*
X21238032Y-92043876D01*
X21354062Y-92139099D01*
X21486439Y-92209856D01*
X21630076Y-92253428D01*
X21742028Y-92264454D01*
X21742030Y-92264454D01*
X21779453Y-92268140D01*
X21816876Y-92264454D01*
X22356154Y-92264454D01*
X22398091Y-92306391D01*
X22567609Y-92419659D01*
X22755967Y-92497680D01*
X22955926Y-92537454D01*
X23159804Y-92537454D01*
X23359763Y-92497680D01*
X23548121Y-92419659D01*
X23717639Y-92306391D01*
X23861802Y-92162228D01*
X23975070Y-91992710D01*
X24053091Y-91804352D01*
X24066249Y-91738203D01*
X24216610Y-91675921D01*
X24386128Y-91562653D01*
X24530291Y-91418490D01*
X24643559Y-91248972D01*
X24721580Y-91060614D01*
X24761354Y-90860655D01*
X24761354Y-90656777D01*
X24721580Y-90456818D01*
X24643559Y-90268460D01*
X24530291Y-90098942D01*
X24386128Y-89954779D01*
X24216610Y-89841511D01*
X24028252Y-89763490D01*
X23828293Y-89723716D01*
X23733063Y-89723716D01*
X23684083Y-89674736D01*
X23661013Y-89646625D01*
X23548851Y-89554576D01*
X23420887Y-89486178D01*
X23282037Y-89444058D01*
X23173824Y-89433400D01*
X23173821Y-89433400D01*
X23137638Y-89429836D01*
X23101455Y-89433400D01*
X22668940Y-89433400D01*
X22712226Y-89328898D01*
X22752000Y-89128939D01*
X22752000Y-88925061D01*
X22712226Y-88725102D01*
X22634205Y-88536744D01*
X22520937Y-88367226D01*
X22479000Y-88325289D01*
X22479000Y-88204711D01*
X22520937Y-88162774D01*
X22634205Y-87993256D01*
X22712226Y-87804898D01*
X22752000Y-87604939D01*
X22752000Y-87401061D01*
X22712226Y-87201102D01*
X22634205Y-87012744D01*
X22520937Y-86843226D01*
X22376774Y-86699063D01*
X22207256Y-86585795D01*
X22018898Y-86507774D01*
X21818939Y-86468000D01*
X21615061Y-86468000D01*
X21415102Y-86507774D01*
X21226744Y-86585795D01*
X21057226Y-86699063D01*
X20913063Y-86843226D01*
X20799795Y-87012744D01*
X20721774Y-87201102D01*
X20682000Y-87401061D01*
X20682000Y-87604939D01*
X20721774Y-87804898D01*
X20799795Y-87993256D01*
X20913063Y-88162774D01*
X20955001Y-88204712D01*
X20955000Y-88325289D01*
X20913063Y-88367226D01*
X20881826Y-88413976D01*
X20794578Y-88485578D01*
X20770716Y-88514654D01*
X20315654Y-88969716D01*
X20286578Y-88993578D01*
X20259150Y-89027000D01*
X20191355Y-89109608D01*
X20181023Y-89128939D01*
X20120598Y-89241986D01*
X20077026Y-89385623D01*
X20066000Y-89497574D01*
X20062314Y-89535000D01*
X13138401Y-89535000D01*
X13116133Y-89308913D01*
X13002057Y-88932853D01*
X12873899Y-88693087D01*
X12945518Y-88714812D01*
X13070000Y-88727072D01*
X14870000Y-88727072D01*
X14994482Y-88714812D01*
X15114180Y-88678502D01*
X15224494Y-88619537D01*
X15321185Y-88540185D01*
X15400537Y-88443494D01*
X15459502Y-88333180D01*
X15465056Y-88314873D01*
X15531495Y-88381312D01*
X15782905Y-88549299D01*
X16062257Y-88665011D01*
X16358816Y-88724000D01*
X16661184Y-88724000D01*
X16957743Y-88665011D01*
X17237095Y-88549299D01*
X17488505Y-88381312D01*
X17702312Y-88167505D01*
X17870299Y-87916095D01*
X17986011Y-87636743D01*
X18045000Y-87340184D01*
X18045000Y-87037816D01*
X17986011Y-86741257D01*
X17870299Y-86461905D01*
X17821829Y-86389365D01*
X18056744Y-86359369D01*
X18403677Y-86243108D01*
X18631806Y-86121170D01*
X18754407Y-85834012D01*
X17640000Y-84719605D01*
X17625858Y-84733748D01*
X17446253Y-84554143D01*
X17460395Y-84540000D01*
X16345988Y-83425593D01*
X16058830Y-83548194D01*
X15895720Y-83875722D01*
X15799641Y-84228778D01*
X15774287Y-84593795D01*
X15820631Y-84956744D01*
X15936892Y-85303677D01*
X16058830Y-85531806D01*
X16345986Y-85654406D01*
X16343307Y-85657085D01*
X16062257Y-85712989D01*
X15782905Y-85828701D01*
X15531495Y-85996688D01*
X15465056Y-86063127D01*
X15459502Y-86044820D01*
X15400537Y-85934506D01*
X15321185Y-85837815D01*
X15224494Y-85758463D01*
X15114180Y-85699498D01*
X14994482Y-85663188D01*
X14870000Y-85650928D01*
X13070000Y-85650928D01*
X12945518Y-85663188D01*
X12825820Y-85699498D01*
X12715506Y-85758463D01*
X12618815Y-85837815D01*
X12539463Y-85934506D01*
X12480498Y-86044820D01*
X12444188Y-86164518D01*
X12431928Y-86289000D01*
X12431928Y-88089000D01*
X12440739Y-88178465D01*
X12263725Y-88033193D01*
X11917147Y-87847943D01*
X11541088Y-87733867D01*
X11150000Y-87695348D01*
X10758913Y-87733867D01*
X10382854Y-87847943D01*
X10036276Y-88033193D01*
X9732498Y-88282497D01*
X9483193Y-88586275D01*
X9297943Y-88932853D01*
X9183867Y-89308912D01*
X9155000Y-89602002D01*
X9155000Y-89643000D01*
X9026064Y-89643000D01*
X8826105Y-89682774D01*
X8637747Y-89760795D01*
X8628002Y-89767307D01*
X8618256Y-89760795D01*
X8429898Y-89682774D01*
X8229939Y-89643000D01*
X8026061Y-89643000D01*
X7826102Y-89682774D01*
X7637744Y-89760795D01*
X7468226Y-89874063D01*
X7324063Y-90018226D01*
X7210795Y-90187744D01*
X7132774Y-90376102D01*
X7093000Y-90576061D01*
X7093000Y-90779939D01*
X7132774Y-90979898D01*
X7210795Y-91168256D01*
X7324063Y-91337774D01*
X7468226Y-91481937D01*
X7637744Y-91595205D01*
X7826102Y-91673226D01*
X8026061Y-91713000D01*
X8121291Y-91713000D01*
X9685667Y-93277377D01*
X9708733Y-93305483D01*
X9820895Y-93397532D01*
X9948859Y-93465930D01*
X10087709Y-93508050D01*
X10195922Y-93518708D01*
X10195931Y-93518708D01*
X10232107Y-93522271D01*
X10268283Y-93518708D01*
X10630781Y-93518708D01*
X10698118Y-93586045D01*
X10867636Y-93699313D01*
X10932064Y-93726000D01*
X8702711Y-93726000D01*
X8660774Y-93684063D01*
X8491256Y-93570795D01*
X8302898Y-93492774D01*
X8102939Y-93453000D01*
X7899061Y-93453000D01*
X7699102Y-93492774D01*
X7510744Y-93570795D01*
X7341226Y-93684063D01*
X7197063Y-93828226D01*
X7083795Y-93997744D01*
X7005774Y-94186102D01*
X6966000Y-94386061D01*
X6966000Y-94589939D01*
X7005774Y-94789898D01*
X7083795Y-94978256D01*
X7197063Y-95147774D01*
X7341226Y-95291937D01*
X7419142Y-95343999D01*
X7016090Y-95343999D01*
X5599893Y-93927803D01*
X5599893Y-92620903D01*
X5691598Y-92483656D01*
X5769619Y-92295298D01*
X5809393Y-92095339D01*
X5809393Y-91891461D01*
X5769619Y-91691502D01*
X5691598Y-91503144D01*
X5578330Y-91333626D01*
X5434167Y-91189463D01*
X5264649Y-91076195D01*
X5076291Y-90998174D01*
X4876332Y-90958400D01*
X4672454Y-90958400D01*
X4472495Y-90998174D01*
X4284137Y-91076195D01*
X4114619Y-91189463D01*
X3970456Y-91333626D01*
X3857188Y-91503144D01*
X3779167Y-91691502D01*
X3739393Y-91891461D01*
X2655017Y-91891461D01*
X2663725Y-91886807D01*
X2967503Y-91637503D01*
X3216807Y-91333725D01*
X3402057Y-90987147D01*
X3516133Y-90611088D01*
X3545000Y-90317998D01*
X3545000Y-89602003D01*
X3516133Y-89308913D01*
X3402057Y-88932853D01*
X3216807Y-88586275D01*
X2967503Y-88282497D01*
X2663725Y-88033193D01*
X2317147Y-87847943D01*
X1941088Y-87733867D01*
X1550000Y-87695348D01*
X1158913Y-87733867D01*
X782854Y-87847943D01*
X660000Y-87913610D01*
X660000Y-83245988D01*
X16525593Y-83245988D01*
X17640000Y-84360395D01*
X18754407Y-83245988D01*
X18631806Y-82958830D01*
X18304278Y-82795720D01*
X17951222Y-82699641D01*
X17586205Y-82674287D01*
X17223256Y-82720631D01*
X16876323Y-82836892D01*
X16648194Y-82958830D01*
X16525593Y-83245988D01*
X660000Y-83245988D01*
X660000Y-79019055D01*
X997000Y-79019055D01*
X997000Y-79222933D01*
X1036774Y-79422892D01*
X1114795Y-79611250D01*
X1228063Y-79780768D01*
X1372226Y-79924931D01*
X1541744Y-80038199D01*
X1730102Y-80116220D01*
X1930061Y-80155994D01*
X2133939Y-80155994D01*
X2333898Y-80116220D01*
X2522256Y-80038199D01*
X2691774Y-79924931D01*
X2759111Y-79857594D01*
X7623223Y-79857594D01*
X7659406Y-79861158D01*
X7695589Y-79857594D01*
X7695592Y-79857594D01*
X7803805Y-79846936D01*
X7942655Y-79804816D01*
X8070619Y-79736418D01*
X8182781Y-79644369D01*
X8205851Y-79616258D01*
X8453468Y-79368641D01*
X8738816Y-79425400D01*
X9041184Y-79425400D01*
X9337743Y-79366411D01*
X9617095Y-79250699D01*
X9868505Y-79082712D01*
X10082312Y-78868905D01*
X10140000Y-78782569D01*
X10197688Y-78868905D01*
X10411495Y-79082712D01*
X10662905Y-79250699D01*
X10942257Y-79366411D01*
X11238816Y-79425400D01*
X11541184Y-79425400D01*
X11837743Y-79366411D01*
X12117095Y-79250699D01*
X12368505Y-79082712D01*
X12582312Y-78868905D01*
X12750299Y-78617495D01*
X12866011Y-78338143D01*
X12925000Y-78041584D01*
X12925000Y-77739216D01*
X12866011Y-77442657D01*
X12750299Y-77163305D01*
X12582312Y-76911895D01*
X12368505Y-76698088D01*
X12117095Y-76530101D01*
X11837743Y-76414389D01*
X11541184Y-76355400D01*
X11238816Y-76355400D01*
X10942257Y-76414389D01*
X10662905Y-76530101D01*
X10411495Y-76698088D01*
X10197688Y-76911895D01*
X10140000Y-76998231D01*
X10082312Y-76911895D01*
X9868505Y-76698088D01*
X9617095Y-76530101D01*
X9337743Y-76414389D01*
X9041184Y-76355400D01*
X8738816Y-76355400D01*
X8442257Y-76414389D01*
X8162905Y-76530101D01*
X7911495Y-76698088D01*
X7873880Y-76735703D01*
X7820537Y-76635906D01*
X7741185Y-76539215D01*
X7644494Y-76459863D01*
X7534180Y-76400898D01*
X7414482Y-76364588D01*
X7290000Y-76352328D01*
X6675750Y-76355400D01*
X6517000Y-76514150D01*
X6517000Y-77763400D01*
X6537000Y-77763400D01*
X6537000Y-78017400D01*
X6517000Y-78017400D01*
X6517000Y-78037400D01*
X6263000Y-78037400D01*
X6263000Y-78017400D01*
X5013750Y-78017400D01*
X4855000Y-78176150D01*
X4853959Y-78384394D01*
X2759111Y-78384394D01*
X2691774Y-78317057D01*
X2522256Y-78203789D01*
X2333898Y-78125768D01*
X2133939Y-78085994D01*
X1930061Y-78085994D01*
X1730102Y-78125768D01*
X1541744Y-78203789D01*
X1372226Y-78317057D01*
X1228063Y-78461220D01*
X1114795Y-78630738D01*
X1036774Y-78819096D01*
X997000Y-79019055D01*
X660000Y-79019055D01*
X660000Y-74193061D01*
X996990Y-74193061D01*
X996990Y-74396939D01*
X1036764Y-74596898D01*
X1114785Y-74785256D01*
X1228053Y-74954774D01*
X1372216Y-75098937D01*
X1541734Y-75212205D01*
X1730092Y-75290226D01*
X1930051Y-75330000D01*
X2133929Y-75330000D01*
X2333888Y-75290226D01*
X2522246Y-75212205D01*
X2691764Y-75098937D01*
X2706723Y-75083978D01*
X2921932Y-75299187D01*
X2921932Y-75394417D01*
X2961706Y-75594376D01*
X3039727Y-75782734D01*
X3152995Y-75952252D01*
X3297158Y-76096415D01*
X3466676Y-76209683D01*
X3655034Y-76287704D01*
X3854993Y-76327478D01*
X4058871Y-76327478D01*
X4258830Y-76287704D01*
X4299000Y-76271065D01*
X4299000Y-76301945D01*
X4338774Y-76501904D01*
X4416795Y-76690262D01*
X4530063Y-76859780D01*
X4674226Y-77003943D01*
X4843744Y-77117211D01*
X4852581Y-77120871D01*
X4855000Y-77604650D01*
X5013750Y-77763400D01*
X6263000Y-77763400D01*
X6263000Y-76661787D01*
X6329226Y-76501904D01*
X6369000Y-76301945D01*
X6369000Y-76098067D01*
X6329226Y-75898108D01*
X6251205Y-75709750D01*
X6137937Y-75540232D01*
X6064490Y-75466785D01*
X6059942Y-75420607D01*
X6017822Y-75281757D01*
X5949424Y-75153793D01*
X5910055Y-75105822D01*
X5880442Y-75069738D01*
X5880437Y-75069733D01*
X5857374Y-75041631D01*
X5829273Y-75018569D01*
X5099000Y-74288297D01*
X5099000Y-74193067D01*
X5059226Y-73993108D01*
X4981205Y-73804750D01*
X4867937Y-73635232D01*
X4723774Y-73491069D01*
X4554256Y-73377801D01*
X4365898Y-73299780D01*
X4165939Y-73260006D01*
X3962061Y-73260006D01*
X3762102Y-73299780D01*
X3573744Y-73377801D01*
X3404226Y-73491069D01*
X3269691Y-73625604D01*
X3242703Y-73611178D01*
X3103853Y-73569058D01*
X2995640Y-73558400D01*
X2995637Y-73558400D01*
X2959454Y-73554836D01*
X2923271Y-73558400D01*
X2759101Y-73558400D01*
X2691764Y-73491063D01*
X2522246Y-73377795D01*
X2333888Y-73299774D01*
X2133929Y-73260000D01*
X1930051Y-73260000D01*
X1730092Y-73299774D01*
X1541734Y-73377795D01*
X1372216Y-73491063D01*
X1228053Y-73635226D01*
X1114785Y-73804744D01*
X1036764Y-73993102D01*
X996990Y-74193061D01*
X660000Y-74193061D01*
X660000Y-70032402D01*
X2095000Y-70032402D01*
X2095000Y-70748397D01*
X2123867Y-71041487D01*
X2237943Y-71417546D01*
X2423193Y-71764125D01*
X2672497Y-72067903D01*
X2976275Y-72317207D01*
X3322853Y-72502457D01*
X3698912Y-72616533D01*
X4090000Y-72655052D01*
X4481087Y-72616533D01*
X4857146Y-72502457D01*
X5203725Y-72317207D01*
X5507503Y-72067903D01*
X5756807Y-71764125D01*
X5942057Y-71417547D01*
X6056133Y-71041488D01*
X6085000Y-70748398D01*
X6085000Y-70032403D01*
X6056133Y-69739313D01*
X5942057Y-69363253D01*
X5756807Y-69016675D01*
X5727427Y-68980875D01*
X8356777Y-68980875D01*
X8356777Y-69184753D01*
X8396551Y-69384712D01*
X8474572Y-69573070D01*
X8587840Y-69742588D01*
X8732003Y-69886751D01*
X8901521Y-70000019D01*
X9089879Y-70078040D01*
X9195488Y-70099047D01*
X9242795Y-70213256D01*
X9356063Y-70382774D01*
X9500226Y-70526937D01*
X9669744Y-70640205D01*
X9858102Y-70718226D01*
X10058061Y-70758000D01*
X10261939Y-70758000D01*
X10461898Y-70718226D01*
X10650256Y-70640205D01*
X10819774Y-70526937D01*
X10963937Y-70382774D01*
X11077205Y-70213256D01*
X11155226Y-70024898D01*
X11195000Y-69824939D01*
X11195000Y-69729709D01*
X11468477Y-69456233D01*
X11560998Y-69456233D01*
X11760957Y-69416459D01*
X11830547Y-69387634D01*
X11723867Y-69739312D01*
X11695000Y-70032402D01*
X11695000Y-70748397D01*
X11723867Y-71041487D01*
X11837943Y-71417546D01*
X11971609Y-71667618D01*
X11828744Y-71726795D01*
X11659226Y-71840063D01*
X11515063Y-71984226D01*
X11401795Y-72153744D01*
X11323774Y-72342102D01*
X11284000Y-72542061D01*
X11284000Y-72745939D01*
X11323774Y-72945898D01*
X11401795Y-73134256D01*
X11515063Y-73303774D01*
X11659226Y-73447937D01*
X11827137Y-73560131D01*
X11740436Y-73618063D01*
X11596273Y-73762226D01*
X11483005Y-73931744D01*
X11404984Y-74120102D01*
X11365210Y-74320061D01*
X11365210Y-74523939D01*
X11404984Y-74723898D01*
X11483005Y-74912256D01*
X11596273Y-75081774D01*
X11740436Y-75225937D01*
X11909954Y-75339205D01*
X12098312Y-75417226D01*
X12298271Y-75457000D01*
X12502149Y-75457000D01*
X12702108Y-75417226D01*
X12890466Y-75339205D01*
X13059984Y-75225937D01*
X13127321Y-75158600D01*
X13345967Y-75158600D01*
X13382150Y-75162164D01*
X13418333Y-75158600D01*
X13418336Y-75158600D01*
X13526549Y-75147942D01*
X13665399Y-75105822D01*
X13793363Y-75037424D01*
X13905525Y-74945375D01*
X13928595Y-74917264D01*
X15547860Y-73298000D01*
X15595939Y-73298000D01*
X15795898Y-73258226D01*
X15984256Y-73180205D01*
X16153774Y-73066937D01*
X16297937Y-72922774D01*
X16411205Y-72753256D01*
X16489226Y-72564898D01*
X16529000Y-72364939D01*
X16529000Y-72161061D01*
X16489226Y-71961102D01*
X16418720Y-71790888D01*
X16525594Y-71684014D01*
X16648194Y-71971170D01*
X16975722Y-72134280D01*
X17328778Y-72230359D01*
X17693795Y-72255713D01*
X18056744Y-72209369D01*
X18403677Y-72093108D01*
X18631806Y-71971170D01*
X18711068Y-71785521D01*
X19524084Y-71785521D01*
X19663848Y-72087262D01*
X20015645Y-72264597D01*
X20395279Y-72369891D01*
X20788160Y-72399100D01*
X21179190Y-72351101D01*
X21553343Y-72227737D01*
X21816152Y-72087262D01*
X21955916Y-71785521D01*
X20740000Y-70569605D01*
X19524084Y-71785521D01*
X18711068Y-71785521D01*
X18754407Y-71684012D01*
X17640000Y-70569605D01*
X17625858Y-70583748D01*
X17446253Y-70404143D01*
X17460395Y-70390000D01*
X17819605Y-70390000D01*
X18934012Y-71504407D01*
X19039185Y-71459504D01*
X19042738Y-71466152D01*
X19344479Y-71605916D01*
X20560395Y-70390000D01*
X20919605Y-70390000D01*
X22135521Y-71605916D01*
X22310539Y-71524849D01*
X22461637Y-71750983D01*
X22759017Y-72048363D01*
X23108698Y-72282012D01*
X23497244Y-72442953D01*
X23909721Y-72525000D01*
X24330279Y-72525000D01*
X24742756Y-72442953D01*
X25131302Y-72282012D01*
X25480983Y-72048363D01*
X25778363Y-71750983D01*
X26012012Y-71401302D01*
X26172953Y-71012756D01*
X26255000Y-70600279D01*
X26255000Y-70179721D01*
X26172953Y-69767244D01*
X26012012Y-69378698D01*
X25778363Y-69029017D01*
X25480983Y-68731637D01*
X25131302Y-68497988D01*
X24742756Y-68337047D01*
X24330279Y-68255000D01*
X23909721Y-68255000D01*
X23497244Y-68337047D01*
X23108698Y-68497988D01*
X22759017Y-68731637D01*
X22461637Y-69029017D01*
X22310539Y-69255151D01*
X22135521Y-69174084D01*
X20919605Y-70390000D01*
X20560395Y-70390000D01*
X19344479Y-69174084D01*
X19042738Y-69313848D01*
X19039351Y-69320567D01*
X18934012Y-69275593D01*
X17819605Y-70390000D01*
X17460395Y-70390000D01*
X17446253Y-70375858D01*
X17625858Y-70196253D01*
X17640000Y-70210395D01*
X18754407Y-69095988D01*
X18711069Y-68994479D01*
X19524084Y-68994479D01*
X20740000Y-70210395D01*
X21955916Y-68994479D01*
X21816152Y-68692738D01*
X21464355Y-68515403D01*
X21084721Y-68410109D01*
X20691840Y-68380900D01*
X20300810Y-68428899D01*
X19926657Y-68552263D01*
X19663848Y-68692738D01*
X19524084Y-68994479D01*
X18711069Y-68994479D01*
X18631806Y-68808830D01*
X18304278Y-68645720D01*
X18038953Y-68573516D01*
X18039879Y-68570463D01*
X18085556Y-68419884D01*
X18097500Y-68298611D01*
X18097500Y-68298609D01*
X18101494Y-68258058D01*
X18097500Y-68217508D01*
X18097500Y-65418088D01*
X18115264Y-65391502D01*
X18193285Y-65203144D01*
X18233059Y-65003185D01*
X18233059Y-64799307D01*
X18193285Y-64599348D01*
X18115264Y-64410990D01*
X18001996Y-64241472D01*
X17857833Y-64097309D01*
X17688315Y-63984041D01*
X17499957Y-63906020D01*
X17299998Y-63866246D01*
X17096120Y-63866246D01*
X16896161Y-63906020D01*
X16707803Y-63984041D01*
X16538285Y-64097309D01*
X16394122Y-64241472D01*
X16280854Y-64410990D01*
X16202833Y-64599348D01*
X16163059Y-64799307D01*
X16163059Y-65003185D01*
X16202833Y-65203144D01*
X16280854Y-65391502D01*
X16394122Y-65561020D01*
X16446501Y-65613399D01*
X16446500Y-67822321D01*
X16401702Y-67831232D01*
X16213344Y-67909253D01*
X16043826Y-68022521D01*
X15899663Y-68166684D01*
X15786395Y-68336202D01*
X15708374Y-68524560D01*
X15668600Y-68724519D01*
X15668600Y-68928397D01*
X15708374Y-69128356D01*
X15786395Y-69316714D01*
X15899663Y-69486232D01*
X15976648Y-69563217D01*
X15895720Y-69725722D01*
X15799641Y-70078778D01*
X15774287Y-70443795D01*
X15820631Y-70806744D01*
X15936892Y-71153677D01*
X16058830Y-71381806D01*
X16345986Y-71504406D01*
X16272552Y-71577841D01*
X16153774Y-71459063D01*
X15984256Y-71345795D01*
X15795898Y-71267774D01*
X15599350Y-71228678D01*
X15656133Y-71041488D01*
X15685000Y-70748398D01*
X15685000Y-70032403D01*
X15656133Y-69739313D01*
X15542057Y-69363253D01*
X15356807Y-69016675D01*
X15107503Y-68712897D01*
X14803725Y-68463593D01*
X14457147Y-68278343D01*
X14081088Y-68164267D01*
X13690000Y-68125748D01*
X13298913Y-68164267D01*
X12922854Y-68278343D01*
X12576276Y-68463593D01*
X12492182Y-68532607D01*
X12494059Y-68523172D01*
X12494059Y-68319294D01*
X12454285Y-68119335D01*
X12376264Y-67930977D01*
X12262996Y-67761459D01*
X12118833Y-67617296D01*
X12008588Y-67543633D01*
X12902859Y-66649362D01*
X13049805Y-66649362D01*
X13091742Y-66691299D01*
X13261260Y-66804567D01*
X13449618Y-66882588D01*
X13649577Y-66922362D01*
X13853455Y-66922362D01*
X14053414Y-66882588D01*
X14241772Y-66804567D01*
X14411290Y-66691299D01*
X14555453Y-66547136D01*
X14668721Y-66377618D01*
X14746742Y-66189260D01*
X14786516Y-65989301D01*
X14786516Y-65785423D01*
X14746742Y-65585464D01*
X14668721Y-65397106D01*
X14555453Y-65227588D01*
X14513516Y-65185651D01*
X14513516Y-64166195D01*
X14605495Y-64074216D01*
X14718763Y-63904698D01*
X14796784Y-63716340D01*
X14836558Y-63516381D01*
X14836558Y-63312503D01*
X14796784Y-63112544D01*
X14718763Y-62924186D01*
X14605495Y-62754668D01*
X14461332Y-62610505D01*
X14291814Y-62497237D01*
X14103456Y-62419216D01*
X13903497Y-62379442D01*
X13699619Y-62379442D01*
X13499660Y-62419216D01*
X13311302Y-62497237D01*
X13141784Y-62610505D01*
X12997621Y-62754668D01*
X12884353Y-62924186D01*
X12806332Y-63112544D01*
X12766558Y-63312503D01*
X12766558Y-63516381D01*
X12806332Y-63716340D01*
X12884353Y-63904698D01*
X12989517Y-64062087D01*
X12989516Y-65125362D01*
X12624652Y-65125362D01*
X12587229Y-65121676D01*
X12549806Y-65125362D01*
X12549803Y-65125362D01*
X12437851Y-65136388D01*
X12294214Y-65179960D01*
X12250840Y-65203144D01*
X12161836Y-65250717D01*
X12119448Y-65285505D01*
X12045807Y-65345940D01*
X12021945Y-65375016D01*
X9349147Y-68047814D01*
X9289838Y-68047814D01*
X9089879Y-68087588D01*
X8901521Y-68165609D01*
X8732003Y-68278877D01*
X8587840Y-68423040D01*
X8474572Y-68592558D01*
X8396551Y-68780916D01*
X8356777Y-68980875D01*
X5727427Y-68980875D01*
X5507503Y-68712897D01*
X5203725Y-68463593D01*
X4857147Y-68278343D01*
X4481088Y-68164267D01*
X4090000Y-68125748D01*
X3698913Y-68164267D01*
X3322854Y-68278343D01*
X2976276Y-68463593D01*
X2672498Y-68712897D01*
X2423193Y-69016675D01*
X2237943Y-69363253D01*
X2123867Y-69739312D01*
X2095000Y-70032402D01*
X660000Y-70032402D01*
X660000Y-66573061D01*
X3029000Y-66573061D01*
X3029000Y-66776939D01*
X3068774Y-66976898D01*
X3146795Y-67165256D01*
X3260063Y-67334774D01*
X3404226Y-67478937D01*
X3573744Y-67592205D01*
X3762102Y-67670226D01*
X3962061Y-67710000D01*
X4057290Y-67710000D01*
X4158626Y-67811336D01*
X4181692Y-67839442D01*
X4209798Y-67862508D01*
X4209799Y-67862509D01*
X4252872Y-67897858D01*
X4293854Y-67931491D01*
X4421818Y-67999889D01*
X4560668Y-68042009D01*
X4705067Y-68056231D01*
X4741253Y-68052667D01*
X7013822Y-68052667D01*
X7081159Y-68120004D01*
X7250677Y-68233272D01*
X7439035Y-68311293D01*
X7638994Y-68351067D01*
X7842872Y-68351067D01*
X8042831Y-68311293D01*
X8231189Y-68233272D01*
X8400707Y-68120004D01*
X8544870Y-67975841D01*
X8658138Y-67806323D01*
X8736159Y-67617965D01*
X8775933Y-67418006D01*
X8775933Y-67214128D01*
X8736159Y-67014169D01*
X8658138Y-66825811D01*
X8544870Y-66656293D01*
X8400707Y-66512130D01*
X8231189Y-66398862D01*
X8042831Y-66320841D01*
X7842872Y-66281067D01*
X7638994Y-66281067D01*
X7439035Y-66320841D01*
X7250677Y-66398862D01*
X7081159Y-66512130D01*
X7013822Y-66579467D01*
X5099000Y-66579467D01*
X5099000Y-66573061D01*
X5059226Y-66373102D01*
X4981205Y-66184744D01*
X4867937Y-66015226D01*
X4723774Y-65871063D01*
X4554256Y-65757795D01*
X4365898Y-65679774D01*
X4165939Y-65640000D01*
X3962061Y-65640000D01*
X3762102Y-65679774D01*
X3573744Y-65757795D01*
X3404226Y-65871063D01*
X3260063Y-66015226D01*
X3146795Y-66184744D01*
X3068774Y-66373102D01*
X3029000Y-66573061D01*
X660000Y-66573061D01*
X660000Y-61575972D01*
X22150000Y-61575972D01*
X22150000Y-61964028D01*
X22225706Y-62344628D01*
X22374209Y-62703145D01*
X22589801Y-63025802D01*
X22864198Y-63300199D01*
X23186855Y-63515791D01*
X23545372Y-63664294D01*
X23925972Y-63740000D01*
X24314028Y-63740000D01*
X24694628Y-63664294D01*
X25053145Y-63515791D01*
X25375802Y-63300199D01*
X25650199Y-63025802D01*
X25865791Y-62703145D01*
X26014294Y-62344628D01*
X26090000Y-61964028D01*
X26090000Y-61575972D01*
X26014294Y-61195372D01*
X25865791Y-60836855D01*
X25650199Y-60514198D01*
X25375802Y-60239801D01*
X25053145Y-60024209D01*
X24694628Y-59875706D01*
X24314028Y-59800000D01*
X23925972Y-59800000D01*
X23545372Y-59875706D01*
X23186855Y-60024209D01*
X22864198Y-60239801D01*
X22589801Y-60514198D01*
X22374209Y-60836855D01*
X22225706Y-61195372D01*
X22150000Y-61575972D01*
X660000Y-61575972D01*
X660000Y-60223061D01*
X6839000Y-60223061D01*
X6839000Y-60426939D01*
X6878774Y-60626898D01*
X6956795Y-60815256D01*
X7070063Y-60984774D01*
X7214226Y-61128937D01*
X7383744Y-61242205D01*
X7572102Y-61320226D01*
X7772061Y-61360000D01*
X7975939Y-61360000D01*
X8175898Y-61320226D01*
X8364256Y-61242205D01*
X8533774Y-61128937D01*
X8677937Y-60984774D01*
X8791205Y-60815256D01*
X8869226Y-60626898D01*
X8869577Y-60625132D01*
X9919175Y-59575534D01*
X10788527Y-59575534D01*
X10788527Y-59779412D01*
X10828301Y-59979371D01*
X10906322Y-60167729D01*
X11019590Y-60337247D01*
X11163753Y-60481410D01*
X11333271Y-60594678D01*
X11521629Y-60672699D01*
X11721588Y-60712473D01*
X11925466Y-60712473D01*
X12125425Y-60672699D01*
X12313783Y-60594678D01*
X12483301Y-60481410D01*
X12627464Y-60337247D01*
X12740732Y-60167729D01*
X12818753Y-59979371D01*
X12858527Y-59779412D01*
X12858527Y-59720103D01*
X12996631Y-59582000D01*
X13055939Y-59582000D01*
X13255898Y-59542226D01*
X13444256Y-59464205D01*
X13613774Y-59350937D01*
X13757937Y-59206774D01*
X13871205Y-59037256D01*
X13924308Y-58909054D01*
X14047688Y-59093705D01*
X14261495Y-59307512D01*
X14512905Y-59475499D01*
X14792257Y-59591211D01*
X15088816Y-59650200D01*
X15391184Y-59650200D01*
X15687743Y-59591211D01*
X15967095Y-59475499D01*
X16218505Y-59307512D01*
X16432312Y-59093705D01*
X16600299Y-58842295D01*
X16716011Y-58562943D01*
X16775000Y-58266384D01*
X16775000Y-57964016D01*
X16718241Y-57678668D01*
X17757188Y-56639721D01*
X21985000Y-56639721D01*
X21985000Y-57060279D01*
X22067047Y-57472756D01*
X22227988Y-57861302D01*
X22461637Y-58210983D01*
X22759017Y-58508363D01*
X23108698Y-58742012D01*
X23497244Y-58902953D01*
X23909721Y-58985000D01*
X24330279Y-58985000D01*
X24742756Y-58902953D01*
X25131302Y-58742012D01*
X25480983Y-58508363D01*
X25778363Y-58210983D01*
X26012012Y-57861302D01*
X26172953Y-57472756D01*
X26255000Y-57060279D01*
X26255000Y-56639721D01*
X26172953Y-56227244D01*
X26012012Y-55838698D01*
X25778363Y-55489017D01*
X25480983Y-55191637D01*
X25254849Y-55040539D01*
X25335916Y-54865521D01*
X24120000Y-53649605D01*
X22904084Y-54865521D01*
X22985151Y-55040539D01*
X22759017Y-55191637D01*
X22461637Y-55489017D01*
X22227988Y-55838698D01*
X22067047Y-56227244D01*
X21985000Y-56639721D01*
X17757188Y-56639721D01*
X18402273Y-55994637D01*
X18430374Y-55971575D01*
X18453437Y-55943473D01*
X18453442Y-55943468D01*
X18522424Y-55859413D01*
X18569147Y-55772000D01*
X18590822Y-55731449D01*
X18632942Y-55592599D01*
X18643600Y-55484386D01*
X18643600Y-55484385D01*
X18645815Y-55461896D01*
X18710937Y-55396774D01*
X18796000Y-55269468D01*
X18881063Y-55396774D01*
X19025226Y-55540937D01*
X19194744Y-55654205D01*
X19383102Y-55732226D01*
X19583061Y-55772000D01*
X19786939Y-55772000D01*
X19986898Y-55732226D01*
X20175256Y-55654205D01*
X20261432Y-55596624D01*
X20317880Y-55634341D01*
X20506238Y-55712362D01*
X20706197Y-55752136D01*
X20910075Y-55752136D01*
X21110034Y-55712362D01*
X21298392Y-55634341D01*
X21467910Y-55521073D01*
X21612073Y-55376910D01*
X21725341Y-55207392D01*
X21803362Y-55019034D01*
X21843136Y-54819075D01*
X21843136Y-54615197D01*
X21803362Y-54415238D01*
X21725341Y-54226880D01*
X21612073Y-54057362D01*
X21544851Y-53990140D01*
X21548299Y-53955135D01*
X21544736Y-53918959D01*
X21544736Y-53918950D01*
X21534078Y-53810737D01*
X21491958Y-53671887D01*
X21423560Y-53543923D01*
X21402417Y-53518160D01*
X22110900Y-53518160D01*
X22158899Y-53909190D01*
X22282263Y-54283343D01*
X22422738Y-54546152D01*
X22724479Y-54685916D01*
X23940395Y-53470000D01*
X24299605Y-53470000D01*
X25515521Y-54685916D01*
X25817262Y-54546152D01*
X25994597Y-54194355D01*
X26099891Y-53814721D01*
X26129100Y-53421840D01*
X26081101Y-53030810D01*
X25957737Y-52656657D01*
X25817262Y-52393848D01*
X25515521Y-52254084D01*
X24299605Y-53470000D01*
X23940395Y-53470000D01*
X22724479Y-52254084D01*
X22422738Y-52393848D01*
X22245403Y-52745645D01*
X22140109Y-53125279D01*
X22110900Y-53518160D01*
X21402417Y-53518160D01*
X21331510Y-53431761D01*
X21303404Y-53408695D01*
X19969188Y-52074479D01*
X22904084Y-52074479D01*
X24120000Y-53290395D01*
X25335916Y-52074479D01*
X25196152Y-51772738D01*
X25189433Y-51769351D01*
X25234407Y-51664012D01*
X24120000Y-50549605D01*
X23005593Y-51664012D01*
X23050496Y-51769185D01*
X23043848Y-51772738D01*
X22904084Y-52074479D01*
X19969188Y-52074479D01*
X18318504Y-50423795D01*
X22254287Y-50423795D01*
X22300631Y-50786744D01*
X22416892Y-51133677D01*
X22538830Y-51361806D01*
X22825988Y-51484407D01*
X23940395Y-50370000D01*
X24299605Y-50370000D01*
X25414012Y-51484407D01*
X25701170Y-51361806D01*
X25864280Y-51034278D01*
X25960359Y-50681222D01*
X25985713Y-50316205D01*
X25939369Y-49953256D01*
X25823108Y-49606323D01*
X25701170Y-49378194D01*
X25414012Y-49255593D01*
X24299605Y-50370000D01*
X23940395Y-50370000D01*
X22825988Y-49255593D01*
X22538830Y-49378194D01*
X22375720Y-49705722D01*
X22279641Y-50058778D01*
X22254287Y-50423795D01*
X18318504Y-50423795D01*
X18307000Y-50412291D01*
X18307000Y-50317061D01*
X18267226Y-50117102D01*
X18189205Y-49928744D01*
X18075937Y-49759226D01*
X17931774Y-49615063D01*
X17762256Y-49501795D01*
X17573898Y-49423774D01*
X17373939Y-49384000D01*
X17170061Y-49384000D01*
X16970102Y-49423774D01*
X16781744Y-49501795D01*
X16612226Y-49615063D01*
X16468063Y-49759226D01*
X16354795Y-49928744D01*
X16276774Y-50117102D01*
X16237000Y-50317061D01*
X16237000Y-50520939D01*
X16276774Y-50720898D01*
X16354795Y-50909256D01*
X16468063Y-51078774D01*
X16612226Y-51222937D01*
X16781744Y-51336205D01*
X16970102Y-51414226D01*
X17170061Y-51454000D01*
X17265291Y-51454000D01*
X18932290Y-53120999D01*
X17655424Y-53120999D01*
X17618001Y-53117313D01*
X17580578Y-53120999D01*
X17580575Y-53120999D01*
X17468623Y-53132025D01*
X17324986Y-53175597D01*
X17263365Y-53208534D01*
X17192608Y-53246354D01*
X17162195Y-53271314D01*
X17076579Y-53341577D01*
X17052717Y-53370653D01*
X16704562Y-53718808D01*
X16589102Y-53741774D01*
X16400744Y-53819795D01*
X16231226Y-53933063D01*
X16127161Y-54037128D01*
X14340000Y-54037128D01*
X14215518Y-54049388D01*
X14095820Y-54085698D01*
X13985506Y-54144663D01*
X13888815Y-54224015D01*
X13809463Y-54320706D01*
X13750498Y-54431020D01*
X13714188Y-54550718D01*
X13701928Y-54675200D01*
X13701928Y-56475200D01*
X13714188Y-56599682D01*
X13750498Y-56719380D01*
X13809463Y-56829694D01*
X13888815Y-56926385D01*
X13985506Y-57005737D01*
X14095820Y-57064702D01*
X14114127Y-57070256D01*
X14047688Y-57136695D01*
X13879701Y-57388105D01*
X13763989Y-57667457D01*
X13726523Y-57855812D01*
X13613774Y-57743063D01*
X13444256Y-57629795D01*
X13255898Y-57551774D01*
X13055939Y-57512000D01*
X12852061Y-57512000D01*
X12652102Y-57551774D01*
X12463744Y-57629795D01*
X12294226Y-57743063D01*
X12150063Y-57887226D01*
X12036795Y-58056744D01*
X11958774Y-58245102D01*
X11919000Y-58445061D01*
X11919000Y-58504369D01*
X11780897Y-58642473D01*
X11721588Y-58642473D01*
X11521629Y-58682247D01*
X11333271Y-58760268D01*
X11163753Y-58873536D01*
X11019590Y-59017699D01*
X10906322Y-59187217D01*
X10828301Y-59375575D01*
X10788527Y-59575534D01*
X9919175Y-59575534D01*
X11436710Y-58058000D01*
X11531939Y-58058000D01*
X11731898Y-58018226D01*
X11920256Y-57940205D01*
X12089774Y-57826937D01*
X12233937Y-57682774D01*
X12347205Y-57513256D01*
X12425226Y-57324898D01*
X12465000Y-57124939D01*
X12465000Y-56921061D01*
X12425226Y-56721102D01*
X12347205Y-56532744D01*
X12233937Y-56363226D01*
X12089774Y-56219063D01*
X11920256Y-56105795D01*
X11731898Y-56027774D01*
X11531939Y-55988000D01*
X11328061Y-55988000D01*
X11128102Y-56027774D01*
X10939744Y-56105795D01*
X10858500Y-56160080D01*
X10777256Y-56105795D01*
X10588898Y-56027774D01*
X10388939Y-55988000D01*
X10185061Y-55988000D01*
X9985102Y-56027774D01*
X9796744Y-56105795D01*
X9627226Y-56219063D01*
X9483063Y-56363226D01*
X9369795Y-56532744D01*
X9316174Y-56662195D01*
X8322562Y-57655808D01*
X8207102Y-57678774D01*
X8018744Y-57756795D01*
X7849226Y-57870063D01*
X7705063Y-58014226D01*
X7591795Y-58183744D01*
X7513774Y-58372102D01*
X7474000Y-58572061D01*
X7474000Y-58775939D01*
X7513774Y-58975898D01*
X7591795Y-59164256D01*
X7687105Y-59306899D01*
X7572102Y-59329774D01*
X7383744Y-59407795D01*
X7214226Y-59521063D01*
X7070063Y-59665226D01*
X6956795Y-59834744D01*
X6878774Y-60023102D01*
X6839000Y-60223061D01*
X660000Y-60223061D01*
X660000Y-53492061D01*
X6712000Y-53492061D01*
X6712000Y-53695939D01*
X6751774Y-53895898D01*
X6829795Y-54084256D01*
X6943063Y-54253774D01*
X7087226Y-54397937D01*
X7256744Y-54511205D01*
X7445102Y-54589226D01*
X7645061Y-54629000D01*
X7848939Y-54629000D01*
X8048898Y-54589226D01*
X8237256Y-54511205D01*
X8406774Y-54397937D01*
X8474111Y-54330600D01*
X10702889Y-54330600D01*
X10770226Y-54397937D01*
X10939744Y-54511205D01*
X11128102Y-54589226D01*
X11328061Y-54629000D01*
X11531939Y-54629000D01*
X11731898Y-54589226D01*
X11920256Y-54511205D01*
X12089774Y-54397937D01*
X12233937Y-54253774D01*
X12347205Y-54084256D01*
X12425226Y-53895898D01*
X12465000Y-53695939D01*
X12465000Y-53492061D01*
X12425226Y-53292102D01*
X12347205Y-53103744D01*
X12233937Y-52934226D01*
X12089774Y-52790063D01*
X11920256Y-52676795D01*
X11731898Y-52598774D01*
X11531939Y-52559000D01*
X11328061Y-52559000D01*
X11128102Y-52598774D01*
X10939744Y-52676795D01*
X10770226Y-52790063D01*
X10702889Y-52857400D01*
X8474111Y-52857400D01*
X8406774Y-52790063D01*
X8237256Y-52676795D01*
X8048898Y-52598774D01*
X7848939Y-52559000D01*
X7645061Y-52559000D01*
X7445102Y-52598774D01*
X7256744Y-52676795D01*
X7087226Y-52790063D01*
X6943063Y-52934226D01*
X6829795Y-53103744D01*
X6751774Y-53292102D01*
X6712000Y-53492061D01*
X660000Y-53492061D01*
X660000Y-50760000D01*
X4851928Y-50760000D01*
X4864188Y-50884482D01*
X4900498Y-51004180D01*
X4959463Y-51114494D01*
X5038815Y-51211185D01*
X5135506Y-51290537D01*
X5245820Y-51349502D01*
X5365518Y-51385812D01*
X5490000Y-51398072D01*
X6104250Y-51395000D01*
X6263000Y-51236250D01*
X6263000Y-49987000D01*
X5013750Y-49987000D01*
X4855000Y-50145750D01*
X4851928Y-50760000D01*
X660000Y-50760000D01*
X660000Y-48960000D01*
X4851928Y-48960000D01*
X4855000Y-49574250D01*
X5013750Y-49733000D01*
X6263000Y-49733000D01*
X6263000Y-48483750D01*
X6517000Y-48483750D01*
X6517000Y-49733000D01*
X6537000Y-49733000D01*
X6537000Y-49987000D01*
X6517000Y-49987000D01*
X6517000Y-51236250D01*
X6675750Y-51395000D01*
X7290000Y-51398072D01*
X7414482Y-51385812D01*
X7534180Y-51349502D01*
X7644494Y-51290537D01*
X7741185Y-51211185D01*
X7820537Y-51114494D01*
X7873880Y-51014697D01*
X7911495Y-51052312D01*
X8162905Y-51220299D01*
X8442257Y-51336011D01*
X8738816Y-51395000D01*
X9041184Y-51395000D01*
X9337743Y-51336011D01*
X9617095Y-51220299D01*
X9868505Y-51052312D01*
X10082312Y-50838505D01*
X10140000Y-50752169D01*
X10197688Y-50838505D01*
X10411495Y-51052312D01*
X10662905Y-51220299D01*
X10942257Y-51336011D01*
X11238816Y-51395000D01*
X11541184Y-51395000D01*
X11837743Y-51336011D01*
X12117095Y-51220299D01*
X12368505Y-51052312D01*
X12582312Y-50838505D01*
X12750299Y-50587095D01*
X12866011Y-50307743D01*
X12925000Y-50011184D01*
X12925000Y-49708816D01*
X12866011Y-49412257D01*
X12851656Y-49377600D01*
X14060817Y-49377600D01*
X14097000Y-49381164D01*
X14133183Y-49377600D01*
X14133186Y-49377600D01*
X14241399Y-49366942D01*
X14380249Y-49324822D01*
X14508213Y-49256424D01*
X14620375Y-49164375D01*
X14643445Y-49136264D01*
X14703721Y-49075988D01*
X23005593Y-49075988D01*
X24120000Y-50190395D01*
X25234407Y-49075988D01*
X25111806Y-48788830D01*
X24784278Y-48625720D01*
X24431222Y-48529641D01*
X24066205Y-48504287D01*
X23703256Y-48550631D01*
X23356323Y-48666892D01*
X23128194Y-48788830D01*
X23005593Y-49075988D01*
X14703721Y-49075988D01*
X15119709Y-48660000D01*
X15214939Y-48660000D01*
X15414898Y-48620226D01*
X15603256Y-48542205D01*
X15772774Y-48428937D01*
X15916937Y-48284774D01*
X16030205Y-48115256D01*
X16108226Y-47926898D01*
X16148000Y-47726939D01*
X16148000Y-47523061D01*
X16108226Y-47323102D01*
X16030205Y-47134744D01*
X15916937Y-46965226D01*
X15772774Y-46821063D01*
X15603256Y-46707795D01*
X15414898Y-46629774D01*
X15214939Y-46590000D01*
X15011061Y-46590000D01*
X14811102Y-46629774D01*
X14622744Y-46707795D01*
X14453226Y-46821063D01*
X14309063Y-46965226D01*
X14195795Y-47134744D01*
X14117774Y-47323102D01*
X14078000Y-47523061D01*
X14078000Y-47618291D01*
X13791891Y-47904400D01*
X10145175Y-47904400D01*
X10108999Y-47900837D01*
X10072823Y-47904400D01*
X10072814Y-47904400D01*
X9964601Y-47915058D01*
X9825751Y-47957178D01*
X9697787Y-48025576D01*
X9585625Y-48117625D01*
X9562554Y-48145737D01*
X9326532Y-48381759D01*
X9041184Y-48325000D01*
X8738816Y-48325000D01*
X8442257Y-48383989D01*
X8162905Y-48499701D01*
X7911495Y-48667688D01*
X7873880Y-48705303D01*
X7820537Y-48605506D01*
X7741185Y-48508815D01*
X7644494Y-48429463D01*
X7534180Y-48370498D01*
X7414482Y-48334188D01*
X7290000Y-48321928D01*
X6675750Y-48325000D01*
X6517000Y-48483750D01*
X6263000Y-48483750D01*
X6104250Y-48325000D01*
X5490000Y-48321928D01*
X5365518Y-48334188D01*
X5245820Y-48370498D01*
X5135506Y-48429463D01*
X5038815Y-48508815D01*
X4959463Y-48605506D01*
X4900498Y-48715820D01*
X4864188Y-48835518D01*
X4851928Y-48960000D01*
X660000Y-48960000D01*
X660000Y-42056000D01*
X726963Y-42056000D01*
X926922Y-42016226D01*
X961261Y-42002002D01*
X2095000Y-42002002D01*
X2095000Y-42717997D01*
X2123867Y-43011087D01*
X2237943Y-43387146D01*
X2423193Y-43733725D01*
X2672497Y-44037503D01*
X2976275Y-44286807D01*
X3322853Y-44472057D01*
X3698912Y-44586133D01*
X4090000Y-44624652D01*
X4481087Y-44586133D01*
X4857146Y-44472057D01*
X5203725Y-44286807D01*
X5507503Y-44037503D01*
X5756807Y-43733725D01*
X5942057Y-43387147D01*
X6056133Y-43011088D01*
X6085000Y-42717998D01*
X6085000Y-42002003D01*
X6085000Y-42002002D01*
X11695000Y-42002002D01*
X11695000Y-42717997D01*
X11723867Y-43011087D01*
X11837943Y-43387146D01*
X12023193Y-43733725D01*
X12272497Y-44037503D01*
X12576275Y-44286807D01*
X12922853Y-44472057D01*
X13298912Y-44586133D01*
X13690000Y-44624652D01*
X14081087Y-44586133D01*
X14457146Y-44472057D01*
X14803725Y-44286807D01*
X15107503Y-44037503D01*
X15356807Y-43733725D01*
X15399414Y-43654012D01*
X16525593Y-43654012D01*
X16648194Y-43941170D01*
X16975722Y-44104280D01*
X17328778Y-44200359D01*
X17693795Y-44225713D01*
X18056744Y-44179369D01*
X18403677Y-44063108D01*
X18631806Y-43941170D01*
X18711068Y-43755521D01*
X19524084Y-43755521D01*
X19663848Y-44057262D01*
X20015645Y-44234597D01*
X20395279Y-44339891D01*
X20788160Y-44369100D01*
X21179190Y-44321101D01*
X21553343Y-44197737D01*
X21816152Y-44057262D01*
X21955916Y-43755521D01*
X20740000Y-42539605D01*
X19524084Y-43755521D01*
X18711068Y-43755521D01*
X18754407Y-43654012D01*
X17640000Y-42539605D01*
X16525593Y-43654012D01*
X15399414Y-43654012D01*
X15542057Y-43387147D01*
X15656133Y-43011088D01*
X15685000Y-42717998D01*
X15685000Y-42413795D01*
X15774287Y-42413795D01*
X15820631Y-42776744D01*
X15936892Y-43123677D01*
X16058830Y-43351806D01*
X16345988Y-43474407D01*
X17460395Y-42360000D01*
X17819605Y-42360000D01*
X18934012Y-43474407D01*
X19039185Y-43429504D01*
X19042738Y-43436152D01*
X19344479Y-43575916D01*
X20560395Y-42360000D01*
X20919605Y-42360000D01*
X22135521Y-43575916D01*
X22310539Y-43494849D01*
X22461637Y-43720983D01*
X22759017Y-44018363D01*
X23108698Y-44252012D01*
X23497244Y-44412953D01*
X23909721Y-44495000D01*
X24330279Y-44495000D01*
X24742756Y-44412953D01*
X25131302Y-44252012D01*
X25480983Y-44018363D01*
X25778363Y-43720983D01*
X26012012Y-43371302D01*
X26172953Y-42982756D01*
X26255000Y-42570279D01*
X26255000Y-42149721D01*
X26172953Y-41737244D01*
X26012012Y-41348698D01*
X25778363Y-40999017D01*
X25480983Y-40701637D01*
X25131302Y-40467988D01*
X24742756Y-40307047D01*
X24330279Y-40225000D01*
X23909721Y-40225000D01*
X23497244Y-40307047D01*
X23108698Y-40467988D01*
X22759017Y-40701637D01*
X22461637Y-40999017D01*
X22310539Y-41225151D01*
X22135521Y-41144084D01*
X20919605Y-42360000D01*
X20560395Y-42360000D01*
X19344479Y-41144084D01*
X19042738Y-41283848D01*
X19039351Y-41290567D01*
X18934012Y-41245593D01*
X17819605Y-42360000D01*
X17460395Y-42360000D01*
X16345988Y-41245593D01*
X16058830Y-41368194D01*
X15895720Y-41695722D01*
X15799641Y-42048778D01*
X15774287Y-42413795D01*
X15685000Y-42413795D01*
X15685000Y-42002003D01*
X15656133Y-41708913D01*
X15542057Y-41332853D01*
X15399415Y-41065988D01*
X16525593Y-41065988D01*
X17640000Y-42180395D01*
X18754407Y-41065988D01*
X18711069Y-40964479D01*
X19524084Y-40964479D01*
X20740000Y-42180395D01*
X21955916Y-40964479D01*
X21816152Y-40662738D01*
X21464355Y-40485403D01*
X21084721Y-40380109D01*
X20691840Y-40350900D01*
X20300810Y-40398899D01*
X19926657Y-40522263D01*
X19663848Y-40662738D01*
X19524084Y-40964479D01*
X18711069Y-40964479D01*
X18631806Y-40778830D01*
X18304278Y-40615720D01*
X17951222Y-40519641D01*
X17586205Y-40494287D01*
X17223256Y-40540631D01*
X16876323Y-40656892D01*
X16648194Y-40778830D01*
X16525593Y-41065988D01*
X15399415Y-41065988D01*
X15356807Y-40986275D01*
X15107503Y-40682497D01*
X14803725Y-40433193D01*
X14457147Y-40247943D01*
X14081088Y-40133867D01*
X13690000Y-40095348D01*
X13298913Y-40133867D01*
X12922854Y-40247943D01*
X12576276Y-40433193D01*
X12272498Y-40682497D01*
X12023193Y-40986275D01*
X11837943Y-41332853D01*
X11723867Y-41708912D01*
X11695000Y-42002002D01*
X6085000Y-42002002D01*
X6056133Y-41708913D01*
X5942057Y-41332853D01*
X5756807Y-40986275D01*
X5507503Y-40682497D01*
X5203725Y-40433193D01*
X4857147Y-40247943D01*
X4481088Y-40133867D01*
X4090000Y-40095348D01*
X3698913Y-40133867D01*
X3322854Y-40247943D01*
X2976276Y-40433193D01*
X2672498Y-40682497D01*
X2423193Y-40986275D01*
X2237943Y-41332853D01*
X2123867Y-41708912D01*
X2095000Y-42002002D01*
X961261Y-42002002D01*
X1115280Y-41938205D01*
X1284798Y-41824937D01*
X1428961Y-41680774D01*
X1542229Y-41511256D01*
X1620250Y-41322898D01*
X1660024Y-41122939D01*
X1660024Y-41059060D01*
X1702556Y-40918850D01*
X1714500Y-40797577D01*
X1714500Y-40797568D01*
X1718493Y-40757025D01*
X1714500Y-40716482D01*
X1714500Y-35679503D01*
X1806205Y-35542256D01*
X1884226Y-35353898D01*
X1924000Y-35153939D01*
X1924000Y-34950061D01*
X1884226Y-34750102D01*
X1806205Y-34561744D01*
X1692937Y-34392226D01*
X1548774Y-34248063D01*
X1379256Y-34134795D01*
X1190898Y-34056774D01*
X990939Y-34017000D01*
X787061Y-34017000D01*
X660000Y-34042274D01*
X660000Y-29616049D01*
X1632000Y-29616049D01*
X1632000Y-29819927D01*
X1671774Y-30019886D01*
X1749795Y-30208244D01*
X1841501Y-30345492D01*
X1841500Y-33614433D01*
X1837506Y-33654984D01*
X1841500Y-33695534D01*
X1841500Y-33695536D01*
X1853444Y-33816809D01*
X1856222Y-33825966D01*
X1900647Y-33972417D01*
X1977301Y-34115826D01*
X1992856Y-34134779D01*
X2080459Y-34241525D01*
X2111966Y-34267382D01*
X3036572Y-35191988D01*
X3068774Y-35353882D01*
X3146795Y-35542240D01*
X3260063Y-35711758D01*
X3404226Y-35855921D01*
X3573744Y-35969189D01*
X3762102Y-36047210D01*
X3962061Y-36086984D01*
X4165939Y-36086984D01*
X4365898Y-36047210D01*
X4554256Y-35969189D01*
X4723774Y-35855921D01*
X4867937Y-35711758D01*
X4981205Y-35542240D01*
X5059226Y-35353882D01*
X5099000Y-35153923D01*
X5099000Y-34950045D01*
X5059226Y-34750086D01*
X4981205Y-34561728D01*
X4867937Y-34392210D01*
X4723774Y-34248047D01*
X4554256Y-34134779D01*
X4365898Y-34056758D01*
X4204004Y-34024556D01*
X3492500Y-33313052D01*
X3492500Y-30345491D01*
X3584205Y-30208244D01*
X3662226Y-30019886D01*
X3702000Y-29819927D01*
X3702000Y-29616049D01*
X3662226Y-29416090D01*
X3584205Y-29227732D01*
X3470937Y-29058214D01*
X3326774Y-28914051D01*
X3157256Y-28800783D01*
X2968898Y-28722762D01*
X2768939Y-28682988D01*
X2565061Y-28682988D01*
X2365102Y-28722762D01*
X2176744Y-28800783D01*
X2007226Y-28914051D01*
X1863063Y-29058214D01*
X1749795Y-29227732D01*
X1671774Y-29416090D01*
X1632000Y-29616049D01*
X660000Y-29616049D01*
X660000Y-28310000D01*
X13701928Y-28310000D01*
X13701928Y-30110000D01*
X13714188Y-30234482D01*
X13750498Y-30354180D01*
X13809463Y-30464494D01*
X13888815Y-30561185D01*
X13985506Y-30640537D01*
X14095820Y-30699502D01*
X14114127Y-30705056D01*
X14047688Y-30771495D01*
X13879701Y-31022905D01*
X13763989Y-31302257D01*
X13705000Y-31598816D01*
X13705000Y-31901184D01*
X13763989Y-32197743D01*
X13879701Y-32477095D01*
X14047688Y-32728505D01*
X14261495Y-32942312D01*
X14512905Y-33110299D01*
X14792257Y-33226011D01*
X15088816Y-33285000D01*
X15391184Y-33285000D01*
X15687743Y-33226011D01*
X15967095Y-33110299D01*
X16218505Y-32942312D01*
X16432312Y-32728505D01*
X16600299Y-32477095D01*
X16716011Y-32197743D01*
X16775000Y-31901184D01*
X16775000Y-31598816D01*
X16716011Y-31302257D01*
X16600299Y-31022905D01*
X16432312Y-30771495D01*
X16365873Y-30705056D01*
X16384180Y-30699502D01*
X16494494Y-30640537D01*
X16591185Y-30561185D01*
X16670537Y-30464494D01*
X16729502Y-30354180D01*
X16765812Y-30234482D01*
X16778072Y-30110000D01*
X16778072Y-28310000D01*
X16765812Y-28185518D01*
X16729502Y-28065820D01*
X16670537Y-27955506D01*
X16591185Y-27858815D01*
X16494494Y-27779463D01*
X16384180Y-27720498D01*
X16264482Y-27684188D01*
X16140000Y-27671928D01*
X14340000Y-27671928D01*
X14215518Y-27684188D01*
X14095820Y-27720498D01*
X13985506Y-27779463D01*
X13888815Y-27858815D01*
X13809463Y-27955506D01*
X13750498Y-28065820D01*
X13714188Y-28185518D01*
X13701928Y-28310000D01*
X660000Y-28310000D01*
X660000Y-24663400D01*
X2054328Y-24663400D01*
X2054328Y-26390600D01*
X2066588Y-26515082D01*
X2102898Y-26634780D01*
X2161863Y-26745094D01*
X2241215Y-26841785D01*
X2337906Y-26921137D01*
X2448220Y-26980102D01*
X2567918Y-27016412D01*
X2692400Y-27028672D01*
X4419600Y-27028672D01*
X4544082Y-27016412D01*
X4663780Y-26980102D01*
X4774094Y-26921137D01*
X4870785Y-26841785D01*
X4950137Y-26745094D01*
X5009102Y-26634780D01*
X5026636Y-26576977D01*
X5140698Y-26691039D01*
X5386147Y-26855042D01*
X5658875Y-26968010D01*
X5948401Y-27025600D01*
X6243599Y-27025600D01*
X6533125Y-26968010D01*
X6805853Y-26855042D01*
X7051302Y-26691039D01*
X7260039Y-26482302D01*
X7424042Y-26236853D01*
X7537010Y-25964125D01*
X7594600Y-25674599D01*
X7594600Y-25379401D01*
X7537010Y-25089875D01*
X7424042Y-24817147D01*
X7260039Y-24571698D01*
X7051302Y-24362961D01*
X6885897Y-24252441D01*
X6984488Y-24193817D01*
X7202854Y-23997293D01*
X7378684Y-23761944D01*
X7505222Y-23496814D01*
X7550958Y-23346026D01*
X7429817Y-23114000D01*
X6223000Y-23114000D01*
X6223000Y-23134000D01*
X5969000Y-23134000D01*
X5969000Y-23114000D01*
X3683000Y-23114000D01*
X3683000Y-23134000D01*
X3429000Y-23134000D01*
X3429000Y-23114000D01*
X2222183Y-23114000D01*
X2101042Y-23346026D01*
X2146778Y-23496814D01*
X2273316Y-23761944D01*
X2449146Y-23997293D01*
X2512574Y-24054376D01*
X2448220Y-24073898D01*
X2337906Y-24132863D01*
X2241215Y-24212215D01*
X2161863Y-24308906D01*
X2102898Y-24419220D01*
X2066588Y-24538918D01*
X2054328Y-24663400D01*
X660000Y-24663400D01*
X660000Y-20806026D01*
X2101042Y-20806026D01*
X2146778Y-20956814D01*
X2273316Y-21221944D01*
X2449146Y-21457293D01*
X2667512Y-21653817D01*
X2773770Y-21717000D01*
X2667512Y-21780183D01*
X2449146Y-21976707D01*
X2273316Y-22212056D01*
X2146778Y-22477186D01*
X2101042Y-22627974D01*
X2222183Y-22860000D01*
X3429000Y-22860000D01*
X3429000Y-20574000D01*
X3683000Y-20574000D01*
X3683000Y-22860000D01*
X5969000Y-22860000D01*
X5969000Y-20574000D01*
X6223000Y-20574000D01*
X6223000Y-22860000D01*
X7429817Y-22860000D01*
X7550958Y-22627974D01*
X7505222Y-22477186D01*
X7378684Y-22212056D01*
X7339644Y-22159800D01*
X11201928Y-22159800D01*
X11201928Y-23959800D01*
X11214188Y-24084282D01*
X11250498Y-24203980D01*
X11309463Y-24314294D01*
X11388815Y-24410985D01*
X11485506Y-24490337D01*
X11595820Y-24549302D01*
X11715518Y-24585612D01*
X11840000Y-24597872D01*
X13200441Y-24597872D01*
X13752920Y-25150351D01*
X13776778Y-25179422D01*
X13805848Y-25203279D01*
X13892807Y-25274645D01*
X13930154Y-25294607D01*
X14025185Y-25345402D01*
X14168822Y-25388974D01*
X14280774Y-25400000D01*
X14280777Y-25400000D01*
X14318200Y-25403686D01*
X14355623Y-25400000D01*
X15508162Y-25400000D01*
X18724144Y-28615983D01*
X18552853Y-28667943D01*
X18206275Y-28853193D01*
X17902497Y-29102497D01*
X17653193Y-29406275D01*
X17467943Y-29752854D01*
X17353867Y-30128913D01*
X17325000Y-30422003D01*
X17325000Y-31137998D01*
X17353867Y-31431088D01*
X17467943Y-31807147D01*
X17653193Y-32153725D01*
X17902498Y-32457503D01*
X18206276Y-32706807D01*
X18552854Y-32892057D01*
X18928913Y-33006133D01*
X19320000Y-33044652D01*
X19711088Y-33006133D01*
X20087147Y-32892057D01*
X20433725Y-32706807D01*
X20737503Y-32457503D01*
X20986807Y-32153725D01*
X21172057Y-31807147D01*
X21286133Y-31431087D01*
X21308828Y-31200666D01*
X22232025Y-32123864D01*
X22224697Y-32131192D01*
X22111429Y-32300710D01*
X22033408Y-32489068D01*
X21993634Y-32689027D01*
X21993634Y-32892905D01*
X22033408Y-33092864D01*
X22111429Y-33281222D01*
X22224697Y-33450740D01*
X22368860Y-33594903D01*
X22538378Y-33708171D01*
X22726736Y-33786192D01*
X22926695Y-33825966D01*
X23130573Y-33825966D01*
X23330532Y-33786192D01*
X23518890Y-33708171D01*
X23688408Y-33594903D01*
X23832571Y-33450740D01*
X23945839Y-33281222D01*
X24023860Y-33092864D01*
X24063634Y-32892905D01*
X24063634Y-32689027D01*
X24023860Y-32489068D01*
X23945839Y-32300710D01*
X23832571Y-32131192D01*
X23790634Y-32089255D01*
X23790634Y-31880264D01*
X23794320Y-31842841D01*
X23789306Y-31791937D01*
X23782675Y-31724600D01*
X23910889Y-31724600D01*
X23978226Y-31791937D01*
X24147744Y-31905205D01*
X24336102Y-31983226D01*
X24536061Y-32023000D01*
X24739939Y-32023000D01*
X24939898Y-31983226D01*
X25128256Y-31905205D01*
X25297774Y-31791937D01*
X25441937Y-31647774D01*
X25555205Y-31478256D01*
X25633226Y-31289898D01*
X25673000Y-31089939D01*
X25673000Y-30886061D01*
X25633226Y-30686102D01*
X25555205Y-30497744D01*
X25519295Y-30444001D01*
X25555205Y-30390258D01*
X25633226Y-30201900D01*
X25673000Y-30001941D01*
X25673000Y-29798063D01*
X25633226Y-29598104D01*
X25555205Y-29409746D01*
X25441937Y-29240228D01*
X25297774Y-29096065D01*
X25128256Y-28982797D01*
X24939898Y-28904776D01*
X24739939Y-28865002D01*
X24536061Y-28865002D01*
X24336102Y-28904776D01*
X24147744Y-28982797D01*
X23978226Y-29096065D01*
X23936289Y-29138002D01*
X23297671Y-29138002D01*
X18534637Y-24374969D01*
X18718505Y-24252112D01*
X18932312Y-24038305D01*
X19100299Y-23786895D01*
X19216011Y-23507543D01*
X19275000Y-23210984D01*
X19275000Y-23128816D01*
X20085000Y-23128816D01*
X20085000Y-23431184D01*
X20143989Y-23727743D01*
X20259701Y-24007095D01*
X20427688Y-24258505D01*
X20641495Y-24472312D01*
X20892905Y-24640299D01*
X21172257Y-24756011D01*
X21468816Y-24815000D01*
X21771184Y-24815000D01*
X22067743Y-24756011D01*
X22347095Y-24640299D01*
X22598505Y-24472312D01*
X22812312Y-24258505D01*
X22870000Y-24172169D01*
X22927688Y-24258505D01*
X23141495Y-24472312D01*
X23392905Y-24640299D01*
X23672257Y-24756011D01*
X23968816Y-24815000D01*
X24271184Y-24815000D01*
X24567743Y-24756011D01*
X24847095Y-24640299D01*
X25098505Y-24472312D01*
X25136120Y-24434697D01*
X25189463Y-24534494D01*
X25268815Y-24631185D01*
X25365506Y-24710537D01*
X25475820Y-24769502D01*
X25595518Y-24805812D01*
X25720000Y-24818072D01*
X27520000Y-24818072D01*
X27644482Y-24805812D01*
X27764180Y-24769502D01*
X27874494Y-24710537D01*
X27971185Y-24631185D01*
X28050537Y-24534494D01*
X28109502Y-24424180D01*
X28145812Y-24304482D01*
X28158072Y-24180000D01*
X28158072Y-22380000D01*
X28145812Y-22255518D01*
X28109502Y-22135820D01*
X28050537Y-22025506D01*
X27971185Y-21928815D01*
X27874494Y-21849463D01*
X27764180Y-21790498D01*
X27734435Y-21781475D01*
X28562269Y-20953641D01*
X28590375Y-20930575D01*
X28663008Y-20842072D01*
X28967000Y-20842072D01*
X29091482Y-20829812D01*
X29211180Y-20793502D01*
X29321494Y-20734537D01*
X29418185Y-20655185D01*
X29497537Y-20558494D01*
X29556502Y-20448180D01*
X29592812Y-20328482D01*
X29605072Y-20204000D01*
X29605072Y-18404000D01*
X29592812Y-18279518D01*
X29556502Y-18159820D01*
X29497537Y-18049506D01*
X29418185Y-17952815D01*
X29321494Y-17873463D01*
X29211180Y-17814498D01*
X29091482Y-17778188D01*
X28967000Y-17765928D01*
X27167000Y-17765928D01*
X27042518Y-17778188D01*
X26922820Y-17814498D01*
X26812506Y-17873463D01*
X26715815Y-17952815D01*
X26636463Y-18049506D01*
X26577498Y-18159820D01*
X26571944Y-18178127D01*
X26505505Y-18111688D01*
X26254095Y-17943701D01*
X25974743Y-17827989D01*
X25678184Y-17769000D01*
X25375816Y-17769000D01*
X25079257Y-17827989D01*
X24799905Y-17943701D01*
X24548495Y-18111688D01*
X24334688Y-18325495D01*
X24166701Y-18576905D01*
X24050989Y-18856257D01*
X23992000Y-19152816D01*
X23992000Y-19455184D01*
X24050989Y-19751743D01*
X24166701Y-20031095D01*
X24334688Y-20282505D01*
X24548495Y-20496312D01*
X24799905Y-20664299D01*
X25079257Y-20780011D01*
X25375816Y-20839000D01*
X25678184Y-20839000D01*
X25974743Y-20780011D01*
X26254095Y-20664299D01*
X26505505Y-20496312D01*
X26571944Y-20429873D01*
X26577498Y-20448180D01*
X26636463Y-20558494D01*
X26715815Y-20655185D01*
X26749588Y-20682902D01*
X26090692Y-21341799D01*
X22857787Y-21341799D01*
X22821601Y-21338235D01*
X22785415Y-21341799D01*
X22677202Y-21352457D01*
X22538352Y-21394577D01*
X22410388Y-21462975D01*
X22298226Y-21555024D01*
X22275155Y-21583136D01*
X22056532Y-21801759D01*
X21771184Y-21745000D01*
X21468816Y-21745000D01*
X21172257Y-21803989D01*
X20892905Y-21919701D01*
X20641495Y-22087688D01*
X20427688Y-22301495D01*
X20259701Y-22552905D01*
X20143989Y-22832257D01*
X20085000Y-23128816D01*
X19275000Y-23128816D01*
X19275000Y-22908616D01*
X19216011Y-22612057D01*
X19100299Y-22332705D01*
X18932312Y-22081295D01*
X18718505Y-21867488D01*
X18467095Y-21699501D01*
X18187743Y-21583789D01*
X17891184Y-21524800D01*
X17588816Y-21524800D01*
X17292257Y-21583789D01*
X17012905Y-21699501D01*
X16761495Y-21867488D01*
X16547688Y-22081295D01*
X16490000Y-22167631D01*
X16432312Y-22081295D01*
X16218505Y-21867488D01*
X15967095Y-21699501D01*
X15687743Y-21583789D01*
X15391184Y-21524800D01*
X15088816Y-21524800D01*
X14792257Y-21583789D01*
X14512905Y-21699501D01*
X14261495Y-21867488D01*
X14223880Y-21905103D01*
X14170537Y-21805306D01*
X14091185Y-21708615D01*
X13994494Y-21629263D01*
X13884180Y-21570298D01*
X13764482Y-21533988D01*
X13640000Y-21521728D01*
X11840000Y-21521728D01*
X11715518Y-21533988D01*
X11595820Y-21570298D01*
X11485506Y-21629263D01*
X11388815Y-21708615D01*
X11309463Y-21805306D01*
X11250498Y-21915620D01*
X11214188Y-22035318D01*
X11201928Y-22159800D01*
X7339644Y-22159800D01*
X7202854Y-21976707D01*
X6984488Y-21780183D01*
X6878230Y-21717000D01*
X6984488Y-21653817D01*
X7202854Y-21457293D01*
X7378684Y-21221944D01*
X7505222Y-20956814D01*
X7550958Y-20806026D01*
X7429817Y-20574000D01*
X6223000Y-20574000D01*
X5969000Y-20574000D01*
X3683000Y-20574000D01*
X3429000Y-20574000D01*
X2222183Y-20574000D01*
X2101042Y-20806026D01*
X660000Y-20806026D01*
X660000Y-18266026D01*
X2101042Y-18266026D01*
X2146778Y-18416814D01*
X2273316Y-18681944D01*
X2449146Y-18917293D01*
X2667512Y-19113817D01*
X2773770Y-19177000D01*
X2667512Y-19240183D01*
X2449146Y-19436707D01*
X2273316Y-19672056D01*
X2146778Y-19937186D01*
X2101042Y-20087974D01*
X2222183Y-20320000D01*
X3429000Y-20320000D01*
X3429000Y-18034000D01*
X3683000Y-18034000D01*
X3683000Y-20320000D01*
X5969000Y-20320000D01*
X5969000Y-18034000D01*
X6223000Y-18034000D01*
X6223000Y-20320000D01*
X7429817Y-20320000D01*
X7550958Y-20087974D01*
X7505222Y-19937186D01*
X7378684Y-19672056D01*
X7202854Y-19436707D01*
X6984488Y-19240183D01*
X6878230Y-19177000D01*
X6984488Y-19113817D01*
X7202854Y-18917293D01*
X7378684Y-18681944D01*
X7505222Y-18416814D01*
X7550958Y-18266026D01*
X7429817Y-18034000D01*
X6223000Y-18034000D01*
X5969000Y-18034000D01*
X3683000Y-18034000D01*
X3429000Y-18034000D01*
X2222183Y-18034000D01*
X2101042Y-18266026D01*
X660000Y-18266026D01*
X660000Y-15219401D01*
X2057400Y-15219401D01*
X2057400Y-15514599D01*
X2114990Y-15804125D01*
X2227958Y-16076853D01*
X2391961Y-16322302D01*
X2600698Y-16531039D01*
X2766103Y-16641559D01*
X2667512Y-16700183D01*
X2449146Y-16896707D01*
X2273316Y-17132056D01*
X2146778Y-17397186D01*
X2101042Y-17547974D01*
X2222183Y-17780000D01*
X3429000Y-17780000D01*
X3429000Y-17760000D01*
X3683000Y-17760000D01*
X3683000Y-17780000D01*
X5969000Y-17780000D01*
X5969000Y-17760000D01*
X6223000Y-17760000D01*
X6223000Y-17780000D01*
X7429817Y-17780000D01*
X7550958Y-17547974D01*
X7505222Y-17397186D01*
X7378684Y-17132056D01*
X7202854Y-16896707D01*
X6984488Y-16700183D01*
X6885897Y-16641559D01*
X7051302Y-16531039D01*
X7260039Y-16322302D01*
X7424042Y-16076853D01*
X7537010Y-15804125D01*
X7594600Y-15514599D01*
X7594600Y-15219401D01*
X7591100Y-15201802D01*
X8445000Y-15201802D01*
X8445000Y-15917797D01*
X8473867Y-16210887D01*
X8587943Y-16586946D01*
X8773193Y-16933525D01*
X9022497Y-17237303D01*
X9326275Y-17486607D01*
X9672853Y-17671857D01*
X10048912Y-17785933D01*
X10440000Y-17824452D01*
X10831087Y-17785933D01*
X11207146Y-17671857D01*
X11553725Y-17486607D01*
X11857503Y-17237303D01*
X12106807Y-16933525D01*
X12292057Y-16586947D01*
X12406133Y-16210888D01*
X12435000Y-15917798D01*
X12435000Y-15201803D01*
X12435000Y-15201802D01*
X18045000Y-15201802D01*
X18045000Y-15917797D01*
X18073867Y-16210887D01*
X18187943Y-16586946D01*
X18373193Y-16933525D01*
X18622497Y-17237303D01*
X18926275Y-17486607D01*
X19272853Y-17671857D01*
X19648912Y-17785933D01*
X20040000Y-17824452D01*
X20431087Y-17785933D01*
X20807146Y-17671857D01*
X21153725Y-17486607D01*
X21457503Y-17237303D01*
X21706807Y-16933525D01*
X21892057Y-16586947D01*
X22006133Y-16210888D01*
X22035000Y-15917798D01*
X22035000Y-15201803D01*
X22006133Y-14908713D01*
X21892057Y-14532653D01*
X21706807Y-14186075D01*
X21457503Y-13882297D01*
X21153725Y-13632993D01*
X20807147Y-13447743D01*
X20431088Y-13333667D01*
X20040000Y-13295148D01*
X19648913Y-13333667D01*
X19272854Y-13447743D01*
X18926276Y-13632993D01*
X18622498Y-13882297D01*
X18373193Y-14186075D01*
X18187943Y-14532653D01*
X18073867Y-14908712D01*
X18045000Y-15201802D01*
X12435000Y-15201802D01*
X12406133Y-14908713D01*
X12292057Y-14532653D01*
X12106807Y-14186075D01*
X11857503Y-13882297D01*
X11553725Y-13632993D01*
X11207147Y-13447743D01*
X10831088Y-13333667D01*
X10440000Y-13295148D01*
X10048913Y-13333667D01*
X9672854Y-13447743D01*
X9326276Y-13632993D01*
X9022498Y-13882297D01*
X8773193Y-14186075D01*
X8587943Y-14532653D01*
X8473867Y-14908712D01*
X8445000Y-15201802D01*
X7591100Y-15201802D01*
X7537010Y-14929875D01*
X7424042Y-14657147D01*
X7260039Y-14411698D01*
X7051302Y-14202961D01*
X6805853Y-14038958D01*
X6533125Y-13925990D01*
X6243599Y-13868400D01*
X5948401Y-13868400D01*
X5658875Y-13925990D01*
X5386147Y-14038958D01*
X5140698Y-14202961D01*
X4931961Y-14411698D01*
X4826000Y-14570281D01*
X4720039Y-14411698D01*
X4511302Y-14202961D01*
X4265853Y-14038958D01*
X3993125Y-13925990D01*
X3703599Y-13868400D01*
X3408401Y-13868400D01*
X3118875Y-13925990D01*
X2846147Y-14038958D01*
X2600698Y-14202961D01*
X2391961Y-14411698D01*
X2227958Y-14657147D01*
X2114990Y-14929875D01*
X2057400Y-15219401D01*
X660000Y-15219401D01*
X660000Y-10545000D01*
X29820000Y-10545000D01*
X29820000Y-28738955D01*
M02*
