M48
; DRILL file {KiCad (5.1.5)-3} date 2020-07-23 6:34:59 PM
; FORMAT={-:-/ absolute / metric / decimal}
; #@! TF.CreationDate,2020-07-23T18:34:59-07:00
; #@! TF.GenerationSoftware,Kicad,Pcbnew,(5.1.5)-3
; #@! TF.FileFunction,Plated,1,2,PTH
FMAT,2
METRIC
T1C0.400
T2C0.900
T3C1.000
T4C1.016
T5C1.100
T6C1.630
T7C1.780
T8C1.820
%
G90
G05
T1
X0.625Y-41.021
X0.889Y-35.052
X2.032Y-74.295
X2.032Y-79.121
X2.286Y-99.568
X2.413Y-40.64
X2.667Y-29.718
X3.957Y-75.292
X4.064Y-35.052
X4.064Y-66.675
X4.064Y-74.295
X4.774Y-91.993
X5.334Y-76.2
X6.096Y-88.773
X6.35Y-80.264
X7.052Y-95.377
X7.741Y-67.316
X7.747Y-53.594
X7.874Y-60.325
X8.001Y-94.488
X8.128Y-90.678
X8.509Y-58.674
X8.763Y-67.31
X9.128Y-90.678
X9.144Y-29.337
X9.392Y-69.083
X9.779Y-41.783
X10.16Y-69.723
X10.287Y-57.023
X11.358Y-92.782
X11.43Y-53.594
X11.43Y-57.023
X11.459Y-68.421
X11.824Y-59.677
X12.065Y-92.075
X12.256Y-67.247
X12.319Y-72.644
X12.4Y-74.422
X12.767Y-94.488
X12.954Y-58.547
X13.335Y-83.82
X13.589Y-100.711
X13.752Y-65.887
X13.802Y-63.414
X13.97Y-81.153
X14.147Y-72.619
X14.224Y-77.597
X14.859Y-52.07
X15.113Y-47.625
X15.494Y-72.263
X15.494Y-88.392
X15.621Y-20.447
X15.621Y-64.77
X16.256Y-12.192
X16.51Y-72.517
X16.704Y-68.826
X16.891Y-54.737
X17.198Y-64.901
X17.272Y-50.419
X17.907Y-54.737
X18.288Y-33.782
X19.685Y-54.737
X20.193Y-57.531
X20.808Y-54.717
X21.717Y-87.503
X21.717Y-89.027
X21.717Y-89.027
X21.717Y-90.17
X21.717Y-107.98
X21.717Y-109.384
X21.731Y-110.631
X22.322Y-83.375
X23.029Y-32.791
X23.039Y-111.939
X23.058Y-91.502
X23.726Y-90.759
X24.003Y-37.973
X24.638Y-16.891
X24.638Y-29.9
X24.638Y-30.988
X24.892Y-76.327
X24.892Y-78.74
X25.22Y-100.711
X25.527Y-25.908
X25.781Y-86.487
X26.162Y-82.931
X26.311Y-64.135
X26.908Y-85.471
X27.178Y-99.822
X27.686Y-72.771
X28.194Y-48.641
X28.702Y-14.732
X28.702Y-35.306
X28.829Y-64.135
X28.956Y-99.822
X29.42Y-77.851
X29.718Y-90.297
X29.718Y-109.982
T2
X13.97Y-117.729
X16.51Y-117.729
X25.527Y-19.304
X28.067Y-19.304
X15.24Y-55.575
X15.24Y-58.115
X13.97Y-87.189
X16.51Y-87.189
X13.97Y-97.369
X16.51Y-97.369
X15.24Y-29.21
X15.24Y-31.75
X13.97Y-107.549
X16.51Y-107.549
T3
X6.39Y-77.89
X8.89Y-77.89
X11.39Y-77.89
X21.62Y-23.28
X24.12Y-23.28
X26.62Y-23.28
X12.74Y-23.06
X15.24Y-23.06
X17.74Y-23.06
X6.39Y-49.86
X8.89Y-49.86
X11.39Y-49.86
X3.85Y-97.46
X6.35Y-97.46
X8.85Y-97.46
T4
X3.556Y-15.367
X3.556Y-17.907
X3.556Y-20.447
X3.556Y-22.987
X3.556Y-25.527
X6.096Y-15.367
X6.096Y-17.907
X6.096Y-20.447
X6.096Y-22.987
X6.096Y-25.527
T6
X17.64Y-84.54
X17.64Y-94.72
X12.83Y-104.9
X24.12Y-50.37
X12.83Y-115.08
X17.64Y-104.9
X17.64Y-115.08
X17.64Y-70.39
X17.64Y-42.36
T7
X29.04Y-42.36
X29.04Y-84.54
X29.04Y-94.72
X1.43Y-104.9
X24.12Y-61.77
X1.43Y-115.08
X29.04Y-104.9
X29.04Y-115.08
X29.04Y-70.39
T8
X20.74Y-42.36
X20.74Y-84.54
X20.74Y-94.72
X9.73Y-104.9
X24.12Y-53.47
X9.73Y-115.08
X20.74Y-104.9
X20.74Y-115.08
X20.74Y-70.39
T5
G00X4.09Y-70.74
M15
G01X4.09Y-70.04
M16
G05
G00X13.69Y-70.74
M15
G01X13.69Y-70.04
M16
G05
G00X19.32Y-30.43
M15
G01X19.32Y-31.13
M16
G05
G00X28.92Y-30.43
M15
G01X28.92Y-31.13
M16
G05
G00X10.44Y-15.91
M15
G01X10.44Y-15.21
M16
G05
G00X20.04Y-15.91
M15
G01X20.04Y-15.21
M16
G05
G00X4.09Y-42.71
M15
G01X4.09Y-42.01
M16
G05
G00X13.69Y-42.71
M15
G01X13.69Y-42.01
M16
G05
G00X1.55Y-90.31
M15
G01X1.55Y-89.61
M16
G05
G00X11.15Y-90.31
M15
G01X11.15Y-89.61
M16
G05
T0
M30
