%TF.GenerationSoftware,KiCad,Pcbnew,(5.1.6-0-10_14)*%
%TF.CreationDate,2020-10-22T03:38:19-07:00*%
%TF.ProjectId,panel,70616e65-6c2e-46b6-9963-61645f706362,rev?*%
%TF.SameCoordinates,Original*%
%TF.FileFunction,Soldermask,Bot*%
%TF.FilePolarity,Negative*%
%FSLAX46Y46*%
G04 Gerber Fmt 4.6, Leading zero omitted, Abs format (unit mm)*
G04 Created by KiCad (PCBNEW (5.1.6-0-10_14)) date 2020-10-22 03:38:19*
%MOMM*%
%LPD*%
G01*
G04 APERTURE LIST*
%ADD10C,0.010000*%
G04 APERTURE END LIST*
D10*
%TO.C,G\u002A\u002A\u002A*%
G36*
X1375833Y-61616167D02*
G01*
X296333Y-61616167D01*
X296333Y-61383333D01*
X1375833Y-61383333D01*
X1375833Y-61616167D01*
G37*
X1375833Y-61616167D02*
X296333Y-61616167D01*
X296333Y-61383333D01*
X1375833Y-61383333D01*
X1375833Y-61616167D01*
G36*
X2733510Y-60170450D02*
G01*
X2792018Y-60176732D01*
X2838485Y-60188434D01*
X2883002Y-60206978D01*
X2910416Y-60220662D01*
X3020797Y-60295157D01*
X3095779Y-60389125D01*
X3138405Y-60507401D01*
X3150343Y-60602021D01*
X3151333Y-60683293D01*
X3142628Y-60757997D01*
X3121320Y-60830899D01*
X3084497Y-60906763D01*
X3029251Y-60990357D01*
X2952671Y-61086446D01*
X2851849Y-61199796D01*
X2723874Y-61335173D01*
X2666672Y-61394253D01*
X2533637Y-61532537D01*
X2427986Y-61646372D01*
X2346276Y-61740320D01*
X2285062Y-61818945D01*
X2240900Y-61886809D01*
X2210346Y-61948476D01*
X2189956Y-62008507D01*
X2183621Y-62034208D01*
X2163499Y-62124167D01*
X3196166Y-62124167D01*
X3196166Y-62378167D01*
X1879866Y-62378167D01*
X1887141Y-62171792D01*
X1890349Y-62095454D01*
X1895845Y-62029358D01*
X1906193Y-61969506D01*
X1923956Y-61911904D01*
X1951698Y-61852554D01*
X1991982Y-61787462D01*
X2047372Y-61712629D01*
X2120431Y-61624062D01*
X2213722Y-61517762D01*
X2329810Y-61389735D01*
X2471258Y-61235985D01*
X2524373Y-61178449D01*
X2639158Y-61051125D01*
X2725866Y-60947124D01*
X2787775Y-60861324D01*
X2828162Y-60788603D01*
X2850302Y-60723839D01*
X2857473Y-60661909D01*
X2857500Y-60657720D01*
X2838356Y-60577439D01*
X2787292Y-60500256D01*
X2713861Y-60437764D01*
X2651907Y-60408178D01*
X2558048Y-60392486D01*
X2439193Y-60395527D01*
X2307628Y-60415980D01*
X2175638Y-60452524D01*
X2148416Y-60462345D01*
X2051145Y-60499342D01*
X1987173Y-60521565D01*
X1949589Y-60527482D01*
X1931482Y-60515559D01*
X1925943Y-60484265D01*
X1926061Y-60432067D01*
X1926166Y-60413056D01*
X1926166Y-60284508D01*
X2100791Y-60227585D01*
X2185281Y-60202073D01*
X2261005Y-60185196D01*
X2341425Y-60175141D01*
X2440004Y-60170095D01*
X2540000Y-60168456D01*
X2652867Y-60168166D01*
X2733510Y-60170450D01*
G37*
X2733510Y-60170450D02*
X2792018Y-60176732D01*
X2838485Y-60188434D01*
X2883002Y-60206978D01*
X2910416Y-60220662D01*
X3020797Y-60295157D01*
X3095779Y-60389125D01*
X3138405Y-60507401D01*
X3150343Y-60602021D01*
X3151333Y-60683293D01*
X3142628Y-60757997D01*
X3121320Y-60830899D01*
X3084497Y-60906763D01*
X3029251Y-60990357D01*
X2952671Y-61086446D01*
X2851849Y-61199796D01*
X2723874Y-61335173D01*
X2666672Y-61394253D01*
X2533637Y-61532537D01*
X2427986Y-61646372D01*
X2346276Y-61740320D01*
X2285062Y-61818945D01*
X2240900Y-61886809D01*
X2210346Y-61948476D01*
X2189956Y-62008507D01*
X2183621Y-62034208D01*
X2163499Y-62124167D01*
X3196166Y-62124167D01*
X3196166Y-62378167D01*
X1879866Y-62378167D01*
X1887141Y-62171792D01*
X1890349Y-62095454D01*
X1895845Y-62029358D01*
X1906193Y-61969506D01*
X1923956Y-61911904D01*
X1951698Y-61852554D01*
X1991982Y-61787462D01*
X2047372Y-61712629D01*
X2120431Y-61624062D01*
X2213722Y-61517762D01*
X2329810Y-61389735D01*
X2471258Y-61235985D01*
X2524373Y-61178449D01*
X2639158Y-61051125D01*
X2725866Y-60947124D01*
X2787775Y-60861324D01*
X2828162Y-60788603D01*
X2850302Y-60723839D01*
X2857473Y-60661909D01*
X2857500Y-60657720D01*
X2838356Y-60577439D01*
X2787292Y-60500256D01*
X2713861Y-60437764D01*
X2651907Y-60408178D01*
X2558048Y-60392486D01*
X2439193Y-60395527D01*
X2307628Y-60415980D01*
X2175638Y-60452524D01*
X2148416Y-60462345D01*
X2051145Y-60499342D01*
X1987173Y-60521565D01*
X1949589Y-60527482D01*
X1931482Y-60515559D01*
X1925943Y-60484265D01*
X1926061Y-60432067D01*
X1926166Y-60413056D01*
X1926166Y-60284508D01*
X2100791Y-60227585D01*
X2185281Y-60202073D01*
X2261005Y-60185196D01*
X2341425Y-60175141D01*
X2440004Y-60170095D01*
X2540000Y-60168456D01*
X2652867Y-60168166D01*
X2733510Y-60170450D01*
G36*
X-211667Y-60452000D02*
G01*
X-1100667Y-60452000D01*
X-1100667Y-61150500D01*
X-296334Y-61150500D01*
X-296334Y-61383333D01*
X-1100667Y-61383333D01*
X-1100667Y-62378167D01*
X-1397000Y-62378167D01*
X-1397000Y-60219167D01*
X-211667Y-60219167D01*
X-211667Y-60452000D01*
G37*
X-211667Y-60452000D02*
X-1100667Y-60452000D01*
X-1100667Y-61150500D01*
X-296334Y-61150500D01*
X-296334Y-61383333D01*
X-1100667Y-61383333D01*
X-1100667Y-62378167D01*
X-1397000Y-62378167D01*
X-1397000Y-60219167D01*
X-211667Y-60219167D01*
X-211667Y-60452000D01*
G36*
X-4893924Y-60223586D02*
G01*
X-4730989Y-60229750D01*
X-4483127Y-61023500D01*
X-4428256Y-61200111D01*
X-4377498Y-61365201D01*
X-4332234Y-61514147D01*
X-4293846Y-61642328D01*
X-4263715Y-61745123D01*
X-4243222Y-61817910D01*
X-4233748Y-61856067D01*
X-4233266Y-61859583D01*
X-4227039Y-61857688D01*
X-4211557Y-61821289D01*
X-4189146Y-61756601D01*
X-4162136Y-61669836D01*
X-4161911Y-61669083D01*
X-4137250Y-61587182D01*
X-4102386Y-61472652D01*
X-4059709Y-61333283D01*
X-4011612Y-61176862D01*
X-3960484Y-61011180D01*
X-3908716Y-60844023D01*
X-3903654Y-60827712D01*
X-3714750Y-60219175D01*
X-3571875Y-60219171D01*
X-3500309Y-60221007D01*
X-3449052Y-60225830D01*
X-3429008Y-60232604D01*
X-3429000Y-60232745D01*
X-3435019Y-60255008D01*
X-3452148Y-60313186D01*
X-3479004Y-60402746D01*
X-3514198Y-60519156D01*
X-3556346Y-60657884D01*
X-3604060Y-60814398D01*
X-3655954Y-60984166D01*
X-3710642Y-61162656D01*
X-3766738Y-61345335D01*
X-3822854Y-61527671D01*
X-3877606Y-61705133D01*
X-3929606Y-61873189D01*
X-3977469Y-62027305D01*
X-4002715Y-62108292D01*
X-4086988Y-62378167D01*
X-4234908Y-62378167D01*
X-4328246Y-62374298D01*
X-4380500Y-62362631D01*
X-4392411Y-62351708D01*
X-4400417Y-62326698D01*
X-4419639Y-62265305D01*
X-4448813Y-62171598D01*
X-4486678Y-62049645D01*
X-4531972Y-61903518D01*
X-4583431Y-61737284D01*
X-4639794Y-61555014D01*
X-4699369Y-61362167D01*
X-4760219Y-61165232D01*
X-4818147Y-60978016D01*
X-4871773Y-60804951D01*
X-4919723Y-60650473D01*
X-4960616Y-60519012D01*
X-4993078Y-60415004D01*
X-5015729Y-60342880D01*
X-5026802Y-60308252D01*
X-5056859Y-60217421D01*
X-4893924Y-60223586D01*
G37*
X-4893924Y-60223586D02*
X-4730989Y-60229750D01*
X-4483127Y-61023500D01*
X-4428256Y-61200111D01*
X-4377498Y-61365201D01*
X-4332234Y-61514147D01*
X-4293846Y-61642328D01*
X-4263715Y-61745123D01*
X-4243222Y-61817910D01*
X-4233748Y-61856067D01*
X-4233266Y-61859583D01*
X-4227039Y-61857688D01*
X-4211557Y-61821289D01*
X-4189146Y-61756601D01*
X-4162136Y-61669836D01*
X-4161911Y-61669083D01*
X-4137250Y-61587182D01*
X-4102386Y-61472652D01*
X-4059709Y-61333283D01*
X-4011612Y-61176862D01*
X-3960484Y-61011180D01*
X-3908716Y-60844023D01*
X-3903654Y-60827712D01*
X-3714750Y-60219175D01*
X-3571875Y-60219171D01*
X-3500309Y-60221007D01*
X-3449052Y-60225830D01*
X-3429008Y-60232604D01*
X-3429000Y-60232745D01*
X-3435019Y-60255008D01*
X-3452148Y-60313186D01*
X-3479004Y-60402746D01*
X-3514198Y-60519156D01*
X-3556346Y-60657884D01*
X-3604060Y-60814398D01*
X-3655954Y-60984166D01*
X-3710642Y-61162656D01*
X-3766738Y-61345335D01*
X-3822854Y-61527671D01*
X-3877606Y-61705133D01*
X-3929606Y-61873189D01*
X-3977469Y-62027305D01*
X-4002715Y-62108292D01*
X-4086988Y-62378167D01*
X-4234908Y-62378167D01*
X-4328246Y-62374298D01*
X-4380500Y-62362631D01*
X-4392411Y-62351708D01*
X-4400417Y-62326698D01*
X-4419639Y-62265305D01*
X-4448813Y-62171598D01*
X-4486678Y-62049645D01*
X-4531972Y-61903518D01*
X-4583431Y-61737284D01*
X-4639794Y-61555014D01*
X-4699369Y-61362167D01*
X-4760219Y-61165232D01*
X-4818147Y-60978016D01*
X-4871773Y-60804951D01*
X-4919723Y-60650473D01*
X-4960616Y-60519012D01*
X-4993078Y-60415004D01*
X-5015729Y-60342880D01*
X-5026802Y-60308252D01*
X-5056859Y-60217421D01*
X-4893924Y-60223586D01*
G36*
X4340404Y-60165073D02*
G01*
X4489904Y-60201922D01*
X4618098Y-60272460D01*
X4727168Y-60378350D01*
X4819294Y-60521253D01*
X4896659Y-60702831D01*
X4902667Y-60720227D01*
X4935056Y-60847301D01*
X4958222Y-61003723D01*
X4971650Y-61177413D01*
X4974827Y-61356293D01*
X4967238Y-61528283D01*
X4948368Y-61681303D01*
X4944471Y-61702192D01*
X4888839Y-61906689D01*
X4809632Y-62080400D01*
X4708923Y-62221772D01*
X4588786Y-62329255D01*
X4451297Y-62401295D01*
X4298528Y-62436343D01*
X4132554Y-62432845D01*
X4004740Y-62405206D01*
X3876723Y-62346058D01*
X3760918Y-62249932D01*
X3660517Y-62121213D01*
X3605471Y-62015610D01*
X3916274Y-62015610D01*
X3973212Y-62083277D01*
X4061851Y-62162457D01*
X4159843Y-62200354D01*
X4267319Y-62196994D01*
X4352207Y-62168339D01*
X4442394Y-62108296D01*
X4517954Y-62015566D01*
X4580084Y-61887870D01*
X4629982Y-61722931D01*
X4657718Y-61587296D01*
X4667246Y-61507016D01*
X4672761Y-61406125D01*
X4674477Y-61294607D01*
X4672606Y-61182445D01*
X4667363Y-61079625D01*
X4658962Y-60996130D01*
X4647615Y-60941943D01*
X4643721Y-60932988D01*
X4633866Y-60926334D01*
X4617482Y-60935119D01*
X4592046Y-60962764D01*
X4555037Y-61012689D01*
X4503934Y-61088314D01*
X4436215Y-61193059D01*
X4349359Y-61330345D01*
X4341143Y-61343419D01*
X4259163Y-61473826D01*
X4180531Y-61598754D01*
X4109373Y-61711662D01*
X4049811Y-61806009D01*
X4005970Y-61875255D01*
X3987973Y-61903527D01*
X3916274Y-62015610D01*
X3605471Y-62015610D01*
X3578715Y-61964282D01*
X3518704Y-61783525D01*
X3503868Y-61717601D01*
X3487186Y-61600440D01*
X3476597Y-61455790D01*
X3472295Y-61298078D01*
X3472729Y-61266917D01*
X3778250Y-61266917D01*
X3779967Y-61410815D01*
X3784859Y-61530164D01*
X3792537Y-61620905D01*
X3802610Y-61678976D01*
X3814688Y-61700317D01*
X3819638Y-61698039D01*
X3832554Y-61678904D01*
X3865360Y-61628622D01*
X3915140Y-61551710D01*
X3978977Y-61452687D01*
X4053955Y-61336071D01*
X4137158Y-61206379D01*
X4159173Y-61172018D01*
X4244829Y-61038100D01*
X4323610Y-60914555D01*
X4392449Y-60806221D01*
X4448281Y-60717935D01*
X4488041Y-60654535D01*
X4508663Y-60620858D01*
X4510323Y-60617927D01*
X4514715Y-60581698D01*
X4488909Y-60534687D01*
X4474152Y-60516273D01*
X4383912Y-60437156D01*
X4283159Y-60396156D01*
X4178514Y-60392681D01*
X4076601Y-60426138D01*
X3984040Y-60495934D01*
X3929020Y-60565075D01*
X3870462Y-60669904D01*
X3827842Y-60783436D01*
X3799425Y-60913745D01*
X3783475Y-61068905D01*
X3778260Y-61256990D01*
X3778250Y-61266917D01*
X3472729Y-61266917D01*
X3474477Y-61141736D01*
X3483337Y-61001194D01*
X3493132Y-60922894D01*
X3539684Y-60725026D01*
X3610087Y-60550294D01*
X3701684Y-60403288D01*
X3811816Y-60288600D01*
X3892249Y-60233466D01*
X3969088Y-60195821D01*
X4044383Y-60173780D01*
X4137428Y-60162209D01*
X4167415Y-60160253D01*
X4340404Y-60165073D01*
G37*
X4340404Y-60165073D02*
X4489904Y-60201922D01*
X4618098Y-60272460D01*
X4727168Y-60378350D01*
X4819294Y-60521253D01*
X4896659Y-60702831D01*
X4902667Y-60720227D01*
X4935056Y-60847301D01*
X4958222Y-61003723D01*
X4971650Y-61177413D01*
X4974827Y-61356293D01*
X4967238Y-61528283D01*
X4948368Y-61681303D01*
X4944471Y-61702192D01*
X4888839Y-61906689D01*
X4809632Y-62080400D01*
X4708923Y-62221772D01*
X4588786Y-62329255D01*
X4451297Y-62401295D01*
X4298528Y-62436343D01*
X4132554Y-62432845D01*
X4004740Y-62405206D01*
X3876723Y-62346058D01*
X3760918Y-62249932D01*
X3660517Y-62121213D01*
X3605471Y-62015610D01*
X3916274Y-62015610D01*
X3973212Y-62083277D01*
X4061851Y-62162457D01*
X4159843Y-62200354D01*
X4267319Y-62196994D01*
X4352207Y-62168339D01*
X4442394Y-62108296D01*
X4517954Y-62015566D01*
X4580084Y-61887870D01*
X4629982Y-61722931D01*
X4657718Y-61587296D01*
X4667246Y-61507016D01*
X4672761Y-61406125D01*
X4674477Y-61294607D01*
X4672606Y-61182445D01*
X4667363Y-61079625D01*
X4658962Y-60996130D01*
X4647615Y-60941943D01*
X4643721Y-60932988D01*
X4633866Y-60926334D01*
X4617482Y-60935119D01*
X4592046Y-60962764D01*
X4555037Y-61012689D01*
X4503934Y-61088314D01*
X4436215Y-61193059D01*
X4349359Y-61330345D01*
X4341143Y-61343419D01*
X4259163Y-61473826D01*
X4180531Y-61598754D01*
X4109373Y-61711662D01*
X4049811Y-61806009D01*
X4005970Y-61875255D01*
X3987973Y-61903527D01*
X3916274Y-62015610D01*
X3605471Y-62015610D01*
X3578715Y-61964282D01*
X3518704Y-61783525D01*
X3503868Y-61717601D01*
X3487186Y-61600440D01*
X3476597Y-61455790D01*
X3472295Y-61298078D01*
X3472729Y-61266917D01*
X3778250Y-61266917D01*
X3779967Y-61410815D01*
X3784859Y-61530164D01*
X3792537Y-61620905D01*
X3802610Y-61678976D01*
X3814688Y-61700317D01*
X3819638Y-61698039D01*
X3832554Y-61678904D01*
X3865360Y-61628622D01*
X3915140Y-61551710D01*
X3978977Y-61452687D01*
X4053955Y-61336071D01*
X4137158Y-61206379D01*
X4159173Y-61172018D01*
X4244829Y-61038100D01*
X4323610Y-60914555D01*
X4392449Y-60806221D01*
X4448281Y-60717935D01*
X4488041Y-60654535D01*
X4508663Y-60620858D01*
X4510323Y-60617927D01*
X4514715Y-60581698D01*
X4488909Y-60534687D01*
X4474152Y-60516273D01*
X4383912Y-60437156D01*
X4283159Y-60396156D01*
X4178514Y-60392681D01*
X4076601Y-60426138D01*
X3984040Y-60495934D01*
X3929020Y-60565075D01*
X3870462Y-60669904D01*
X3827842Y-60783436D01*
X3799425Y-60913745D01*
X3783475Y-61068905D01*
X3778260Y-61256990D01*
X3778250Y-61266917D01*
X3472729Y-61266917D01*
X3474477Y-61141736D01*
X3483337Y-61001194D01*
X3493132Y-60922894D01*
X3539684Y-60725026D01*
X3610087Y-60550294D01*
X3701684Y-60403288D01*
X3811816Y-60288600D01*
X3892249Y-60233466D01*
X3969088Y-60195821D01*
X4044383Y-60173780D01*
X4137428Y-60162209D01*
X4167415Y-60160253D01*
X4340404Y-60165073D01*
G36*
X-2181259Y-60163141D02*
G01*
X-2032000Y-60191878D01*
X-1894417Y-60230240D01*
X-1888158Y-60372870D01*
X-1887268Y-60456864D01*
X-1894700Y-60502627D01*
X-1911881Y-60513696D01*
X-1937809Y-60496001D01*
X-1978869Y-60471990D01*
X-2048572Y-60445697D01*
X-2133649Y-60420817D01*
X-2220834Y-60401041D01*
X-2296858Y-60390063D01*
X-2322374Y-60388965D01*
X-2457016Y-60409547D01*
X-2578905Y-60467738D01*
X-2685796Y-60560139D01*
X-2775442Y-60683347D01*
X-2845594Y-60833964D01*
X-2894007Y-61008589D01*
X-2918432Y-61203822D01*
X-2921000Y-61294767D01*
X-2907778Y-61494471D01*
X-2869778Y-61676097D01*
X-2809498Y-61836337D01*
X-2729437Y-61971882D01*
X-2632094Y-62079425D01*
X-2519968Y-62155655D01*
X-2395557Y-62197266D01*
X-2261360Y-62200949D01*
X-2238989Y-62197771D01*
X-2145371Y-62175816D01*
X-2029434Y-62136391D01*
X-1920875Y-62092859D01*
X-1900899Y-62088840D01*
X-1889713Y-62103341D01*
X-1884849Y-62144459D01*
X-1883834Y-62214363D01*
X-1883834Y-62351421D01*
X-2016125Y-62388864D01*
X-2149320Y-62417323D01*
X-2290759Y-62432097D01*
X-2423554Y-62432092D01*
X-2511319Y-62420905D01*
X-2628561Y-62382983D01*
X-2752870Y-62321348D01*
X-2865489Y-62245835D01*
X-2899104Y-62217558D01*
X-3020329Y-62080024D01*
X-3115721Y-61911103D01*
X-3184056Y-61713851D01*
X-3224115Y-61491324D01*
X-3232611Y-61383333D01*
X-3229463Y-61140477D01*
X-3195934Y-60917859D01*
X-3133302Y-60718199D01*
X-3042843Y-60544215D01*
X-2925835Y-60398625D01*
X-2783554Y-60284147D01*
X-2692925Y-60234459D01*
X-2536741Y-60181800D01*
X-2361787Y-60157744D01*
X-2181259Y-60163141D01*
G37*
X-2181259Y-60163141D02*
X-2032000Y-60191878D01*
X-1894417Y-60230240D01*
X-1888158Y-60372870D01*
X-1887268Y-60456864D01*
X-1894700Y-60502627D01*
X-1911881Y-60513696D01*
X-1937809Y-60496001D01*
X-1978869Y-60471990D01*
X-2048572Y-60445697D01*
X-2133649Y-60420817D01*
X-2220834Y-60401041D01*
X-2296858Y-60390063D01*
X-2322374Y-60388965D01*
X-2457016Y-60409547D01*
X-2578905Y-60467738D01*
X-2685796Y-60560139D01*
X-2775442Y-60683347D01*
X-2845594Y-60833964D01*
X-2894007Y-61008589D01*
X-2918432Y-61203822D01*
X-2921000Y-61294767D01*
X-2907778Y-61494471D01*
X-2869778Y-61676097D01*
X-2809498Y-61836337D01*
X-2729437Y-61971882D01*
X-2632094Y-62079425D01*
X-2519968Y-62155655D01*
X-2395557Y-62197266D01*
X-2261360Y-62200949D01*
X-2238989Y-62197771D01*
X-2145371Y-62175816D01*
X-2029434Y-62136391D01*
X-1920875Y-62092859D01*
X-1900899Y-62088840D01*
X-1889713Y-62103341D01*
X-1884849Y-62144459D01*
X-1883834Y-62214363D01*
X-1883834Y-62351421D01*
X-2016125Y-62388864D01*
X-2149320Y-62417323D01*
X-2290759Y-62432097D01*
X-2423554Y-62432092D01*
X-2511319Y-62420905D01*
X-2628561Y-62382983D01*
X-2752870Y-62321348D01*
X-2865489Y-62245835D01*
X-2899104Y-62217558D01*
X-3020329Y-62080024D01*
X-3115721Y-61911103D01*
X-3184056Y-61713851D01*
X-3224115Y-61491324D01*
X-3232611Y-61383333D01*
X-3229463Y-61140477D01*
X-3195934Y-60917859D01*
X-3133302Y-60718199D01*
X-3042843Y-60544215D01*
X-2925835Y-60398625D01*
X-2783554Y-60284147D01*
X-2692925Y-60234459D01*
X-2536741Y-60181800D01*
X-2361787Y-60157744D01*
X-2181259Y-60163141D01*
%TD*%
M02*
