%TF.GenerationSoftware,KiCad,Pcbnew,(5.1.6-0-10_14)*%
%TF.CreationDate,2020-10-22T03:38:16-07:00*%
%TF.ProjectId,panel,70616e65-6c2e-46b6-9963-61645f706362,rev?*%
%TF.SameCoordinates,Original*%
%TF.FileFunction,Legend,Bot*%
%TF.FilePolarity,Positive*%
%FSLAX46Y46*%
G04 Gerber Fmt 4.6, Leading zero omitted, Abs format (unit mm)*
G04 Created by KiCad (PCBNEW (5.1.6-0-10_14)) date 2020-10-22 03:38:16*
%MOMM*%
%LPD*%
G01*
G04 APERTURE LIST*
%ADD10C,0.150000*%
G04 APERTURE END LIST*
D10*
X-14517619Y12239047D02*
X-13803333Y12239047D01*
X-13660476Y12286666D01*
X-13565238Y12381904D01*
X-13517619Y12524761D01*
X-13517619Y12620000D01*
X-13517619Y11286666D02*
X-13517619Y11762857D01*
X-14517619Y11762857D01*
X-13612857Y10381904D02*
X-13565238Y10429523D01*
X-13517619Y10572380D01*
X-13517619Y10667619D01*
X-13565238Y10810476D01*
X-13660476Y10905714D01*
X-13755714Y10953333D01*
X-13946190Y11000952D01*
X-14089047Y11000952D01*
X-14279523Y10953333D01*
X-14374761Y10905714D01*
X-14470000Y10810476D01*
X-14517619Y10667619D01*
X-14517619Y10572380D01*
X-14470000Y10429523D01*
X-14422380Y10381904D01*
X-14517619Y9667619D02*
X-13803333Y9667619D01*
X-13660476Y9715238D01*
X-13565238Y9810476D01*
X-13517619Y9953333D01*
X-13517619Y10048571D01*
X-13517619Y8715238D02*
X-13517619Y9191428D01*
X-14517619Y9191428D01*
X-13612857Y7810476D02*
X-13565238Y7858095D01*
X-13517619Y8000952D01*
X-13517619Y8096190D01*
X-13565238Y8239047D01*
X-13660476Y8334285D01*
X-13755714Y8381904D01*
X-13946190Y8429523D01*
X-14089047Y8429523D01*
X-14279523Y8381904D01*
X-14374761Y8334285D01*
X-14470000Y8239047D01*
X-14517619Y8096190D01*
X-14517619Y8000952D01*
X-14470000Y7858095D01*
X-14422380Y7810476D01*
X-14517619Y7096190D02*
X-13803333Y7096190D01*
X-13660476Y7143809D01*
X-13565238Y7239047D01*
X-13517619Y7381904D01*
X-13517619Y7477142D01*
X-13517619Y6143809D02*
X-13517619Y6620000D01*
X-14517619Y6620000D01*
X-13612857Y5239047D02*
X-13565238Y5286666D01*
X-13517619Y5429523D01*
X-13517619Y5524761D01*
X-13565238Y5667619D01*
X-13660476Y5762857D01*
X-13755714Y5810476D01*
X-13946190Y5858095D01*
X-14089047Y5858095D01*
X-14279523Y5810476D01*
X-14374761Y5762857D01*
X-14470000Y5667619D01*
X-14517619Y5524761D01*
X-14517619Y5429523D01*
X-14470000Y5286666D01*
X-14422380Y5239047D01*
X-14517619Y4524761D02*
X-13803333Y4524761D01*
X-13660476Y4572380D01*
X-13565238Y4667619D01*
X-13517619Y4810476D01*
X-13517619Y4905714D01*
X-13517619Y3572380D02*
X-13517619Y4048571D01*
X-14517619Y4048571D01*
X-13612857Y2667619D02*
X-13565238Y2715238D01*
X-13517619Y2858095D01*
X-13517619Y2953333D01*
X-13565238Y3096190D01*
X-13660476Y3191428D01*
X-13755714Y3239047D01*
X-13946190Y3286666D01*
X-14089047Y3286666D01*
X-14279523Y3239047D01*
X-14374761Y3191428D01*
X-14470000Y3096190D01*
X-14517619Y2953333D01*
X-14517619Y2858095D01*
X-14470000Y2715238D01*
X-14422380Y2667619D01*
M02*
