G04 #@! TF.GenerationSoftware,KiCad,Pcbnew,(5.1.6-0-10_14)*
G04 #@! TF.CreationDate,2020-11-24T01:57:38-08:00*
G04 #@! TF.ProjectId,vcf-20,7663662d-3230-42e6-9b69-6361645f7063,rev?*
G04 #@! TF.SameCoordinates,Original*
G04 #@! TF.FileFunction,Paste,Bot*
G04 #@! TF.FilePolarity,Positive*
%FSLAX46Y46*%
G04 Gerber Fmt 4.6, Leading zero omitted, Abs format (unit mm)*
G04 Created by KiCad (PCBNEW (5.1.6-0-10_14)) date 2020-11-24 01:57:38*
%MOMM*%
%LPD*%
G01*
G04 APERTURE LIST*
%ADD10R,0.900000X0.800000*%
%ADD11R,0.450000X1.450000*%
%ADD12R,1.450000X0.450000*%
%ADD13R,1.600000X1.500000*%
%ADD14R,1.200000X1.200000*%
%ADD15R,1.500000X1.600000*%
%ADD16R,0.800000X0.900000*%
G04 APERTURE END LIST*
G36*
G01*
X27018500Y-110868750D02*
X27018500Y-111381250D01*
G75*
G02*
X26799750Y-111600000I-218750J0D01*
G01*
X26362250Y-111600000D01*
G75*
G02*
X26143500Y-111381250I0J218750D01*
G01*
X26143500Y-110868750D01*
G75*
G02*
X26362250Y-110650000I218750J0D01*
G01*
X26799750Y-110650000D01*
G75*
G02*
X27018500Y-110868750I0J-218750D01*
G01*
G37*
G36*
G01*
X28593500Y-110868750D02*
X28593500Y-111381250D01*
G75*
G02*
X28374750Y-111600000I-218750J0D01*
G01*
X27937250Y-111600000D01*
G75*
G02*
X27718500Y-111381250I0J218750D01*
G01*
X27718500Y-110868750D01*
G75*
G02*
X27937250Y-110650000I218750J0D01*
G01*
X28374750Y-110650000D01*
G75*
G02*
X28593500Y-110868750I0J-218750D01*
G01*
G37*
D10*
X12877000Y-45355000D03*
X10877000Y-44405000D03*
X10877000Y-46305000D03*
D11*
X19154500Y-54575500D03*
X19804500Y-54575500D03*
X20454500Y-54575500D03*
X21104500Y-54575500D03*
X21104500Y-48675500D03*
X20454500Y-48675500D03*
X19804500Y-48675500D03*
X19154500Y-48675500D03*
D12*
X13661600Y-79390600D03*
X13661600Y-80040600D03*
X13661600Y-80690600D03*
X13661600Y-81340600D03*
X19561600Y-81340600D03*
X19561600Y-80690600D03*
X19561600Y-80040600D03*
X19561600Y-79390600D03*
G36*
G01*
X17782250Y-53371000D02*
X17269750Y-53371000D01*
G75*
G02*
X17051000Y-53152250I0J218750D01*
G01*
X17051000Y-52714750D01*
G75*
G02*
X17269750Y-52496000I218750J0D01*
G01*
X17782250Y-52496000D01*
G75*
G02*
X18001000Y-52714750I0J-218750D01*
G01*
X18001000Y-53152250D01*
G75*
G02*
X17782250Y-53371000I-218750J0D01*
G01*
G37*
G36*
G01*
X17782250Y-54946000D02*
X17269750Y-54946000D01*
G75*
G02*
X17051000Y-54727250I0J218750D01*
G01*
X17051000Y-54289750D01*
G75*
G02*
X17269750Y-54071000I218750J0D01*
G01*
X17782250Y-54071000D01*
G75*
G02*
X18001000Y-54289750I0J-218750D01*
G01*
X18001000Y-54727250D01*
G75*
G02*
X17782250Y-54946000I-218750J0D01*
G01*
G37*
G36*
G01*
X22002000Y-46606750D02*
X22002000Y-47119250D01*
G75*
G02*
X21783250Y-47338000I-218750J0D01*
G01*
X21345750Y-47338000D01*
G75*
G02*
X21127000Y-47119250I0J218750D01*
G01*
X21127000Y-46606750D01*
G75*
G02*
X21345750Y-46388000I218750J0D01*
G01*
X21783250Y-46388000D01*
G75*
G02*
X22002000Y-46606750I0J-218750D01*
G01*
G37*
G36*
G01*
X23577000Y-46606750D02*
X23577000Y-47119250D01*
G75*
G02*
X23358250Y-47338000I-218750J0D01*
G01*
X22920750Y-47338000D01*
G75*
G02*
X22702000Y-47119250I0J218750D01*
G01*
X22702000Y-46606750D01*
G75*
G02*
X22920750Y-46388000I218750J0D01*
G01*
X23358250Y-46388000D01*
G75*
G02*
X23577000Y-46606750I0J-218750D01*
G01*
G37*
D13*
X4953000Y-92149000D03*
D14*
X3953000Y-95399000D03*
X5953000Y-95399000D03*
G36*
G01*
X13421500Y-34631500D02*
X13121500Y-34631500D01*
G75*
G02*
X12971500Y-34481500I0J150000D01*
G01*
X12971500Y-32831500D01*
G75*
G02*
X13121500Y-32681500I150000J0D01*
G01*
X13421500Y-32681500D01*
G75*
G02*
X13571500Y-32831500I0J-150000D01*
G01*
X13571500Y-34481500D01*
G75*
G02*
X13421500Y-34631500I-150000J0D01*
G01*
G37*
G36*
G01*
X12151500Y-34631500D02*
X11851500Y-34631500D01*
G75*
G02*
X11701500Y-34481500I0J150000D01*
G01*
X11701500Y-32831500D01*
G75*
G02*
X11851500Y-32681500I150000J0D01*
G01*
X12151500Y-32681500D01*
G75*
G02*
X12301500Y-32831500I0J-150000D01*
G01*
X12301500Y-34481500D01*
G75*
G02*
X12151500Y-34631500I-150000J0D01*
G01*
G37*
G36*
G01*
X10881500Y-34631500D02*
X10581500Y-34631500D01*
G75*
G02*
X10431500Y-34481500I0J150000D01*
G01*
X10431500Y-32831500D01*
G75*
G02*
X10581500Y-32681500I150000J0D01*
G01*
X10881500Y-32681500D01*
G75*
G02*
X11031500Y-32831500I0J-150000D01*
G01*
X11031500Y-34481500D01*
G75*
G02*
X10881500Y-34631500I-150000J0D01*
G01*
G37*
G36*
G01*
X9611500Y-34631500D02*
X9311500Y-34631500D01*
G75*
G02*
X9161500Y-34481500I0J150000D01*
G01*
X9161500Y-32831500D01*
G75*
G02*
X9311500Y-32681500I150000J0D01*
G01*
X9611500Y-32681500D01*
G75*
G02*
X9761500Y-32831500I0J-150000D01*
G01*
X9761500Y-34481500D01*
G75*
G02*
X9611500Y-34631500I-150000J0D01*
G01*
G37*
G36*
G01*
X8341500Y-34631500D02*
X8041500Y-34631500D01*
G75*
G02*
X7891500Y-34481500I0J150000D01*
G01*
X7891500Y-32831500D01*
G75*
G02*
X8041500Y-32681500I150000J0D01*
G01*
X8341500Y-32681500D01*
G75*
G02*
X8491500Y-32831500I0J-150000D01*
G01*
X8491500Y-34481500D01*
G75*
G02*
X8341500Y-34631500I-150000J0D01*
G01*
G37*
G36*
G01*
X7071500Y-34631500D02*
X6771500Y-34631500D01*
G75*
G02*
X6621500Y-34481500I0J150000D01*
G01*
X6621500Y-32831500D01*
G75*
G02*
X6771500Y-32681500I150000J0D01*
G01*
X7071500Y-32681500D01*
G75*
G02*
X7221500Y-32831500I0J-150000D01*
G01*
X7221500Y-34481500D01*
G75*
G02*
X7071500Y-34631500I-150000J0D01*
G01*
G37*
G36*
G01*
X5801500Y-34631500D02*
X5501500Y-34631500D01*
G75*
G02*
X5351500Y-34481500I0J150000D01*
G01*
X5351500Y-32831500D01*
G75*
G02*
X5501500Y-32681500I150000J0D01*
G01*
X5801500Y-32681500D01*
G75*
G02*
X5951500Y-32831500I0J-150000D01*
G01*
X5951500Y-34481500D01*
G75*
G02*
X5801500Y-34631500I-150000J0D01*
G01*
G37*
G36*
G01*
X4531500Y-34631500D02*
X4231500Y-34631500D01*
G75*
G02*
X4081500Y-34481500I0J150000D01*
G01*
X4081500Y-32831500D01*
G75*
G02*
X4231500Y-32681500I150000J0D01*
G01*
X4531500Y-32681500D01*
G75*
G02*
X4681500Y-32831500I0J-150000D01*
G01*
X4681500Y-34481500D01*
G75*
G02*
X4531500Y-34631500I-150000J0D01*
G01*
G37*
G36*
G01*
X4531500Y-39581500D02*
X4231500Y-39581500D01*
G75*
G02*
X4081500Y-39431500I0J150000D01*
G01*
X4081500Y-37781500D01*
G75*
G02*
X4231500Y-37631500I150000J0D01*
G01*
X4531500Y-37631500D01*
G75*
G02*
X4681500Y-37781500I0J-150000D01*
G01*
X4681500Y-39431500D01*
G75*
G02*
X4531500Y-39581500I-150000J0D01*
G01*
G37*
G36*
G01*
X5801500Y-39581500D02*
X5501500Y-39581500D01*
G75*
G02*
X5351500Y-39431500I0J150000D01*
G01*
X5351500Y-37781500D01*
G75*
G02*
X5501500Y-37631500I150000J0D01*
G01*
X5801500Y-37631500D01*
G75*
G02*
X5951500Y-37781500I0J-150000D01*
G01*
X5951500Y-39431500D01*
G75*
G02*
X5801500Y-39581500I-150000J0D01*
G01*
G37*
G36*
G01*
X7071500Y-39581500D02*
X6771500Y-39581500D01*
G75*
G02*
X6621500Y-39431500I0J150000D01*
G01*
X6621500Y-37781500D01*
G75*
G02*
X6771500Y-37631500I150000J0D01*
G01*
X7071500Y-37631500D01*
G75*
G02*
X7221500Y-37781500I0J-150000D01*
G01*
X7221500Y-39431500D01*
G75*
G02*
X7071500Y-39581500I-150000J0D01*
G01*
G37*
G36*
G01*
X8341500Y-39581500D02*
X8041500Y-39581500D01*
G75*
G02*
X7891500Y-39431500I0J150000D01*
G01*
X7891500Y-37781500D01*
G75*
G02*
X8041500Y-37631500I150000J0D01*
G01*
X8341500Y-37631500D01*
G75*
G02*
X8491500Y-37781500I0J-150000D01*
G01*
X8491500Y-39431500D01*
G75*
G02*
X8341500Y-39581500I-150000J0D01*
G01*
G37*
G36*
G01*
X9611500Y-39581500D02*
X9311500Y-39581500D01*
G75*
G02*
X9161500Y-39431500I0J150000D01*
G01*
X9161500Y-37781500D01*
G75*
G02*
X9311500Y-37631500I150000J0D01*
G01*
X9611500Y-37631500D01*
G75*
G02*
X9761500Y-37781500I0J-150000D01*
G01*
X9761500Y-39431500D01*
G75*
G02*
X9611500Y-39581500I-150000J0D01*
G01*
G37*
G36*
G01*
X10881500Y-39581500D02*
X10581500Y-39581500D01*
G75*
G02*
X10431500Y-39431500I0J150000D01*
G01*
X10431500Y-37781500D01*
G75*
G02*
X10581500Y-37631500I150000J0D01*
G01*
X10881500Y-37631500D01*
G75*
G02*
X11031500Y-37781500I0J-150000D01*
G01*
X11031500Y-39431500D01*
G75*
G02*
X10881500Y-39581500I-150000J0D01*
G01*
G37*
G36*
G01*
X12151500Y-39581500D02*
X11851500Y-39581500D01*
G75*
G02*
X11701500Y-39431500I0J150000D01*
G01*
X11701500Y-37781500D01*
G75*
G02*
X11851500Y-37631500I150000J0D01*
G01*
X12151500Y-37631500D01*
G75*
G02*
X12301500Y-37781500I0J-150000D01*
G01*
X12301500Y-39431500D01*
G75*
G02*
X12151500Y-39581500I-150000J0D01*
G01*
G37*
G36*
G01*
X13421500Y-39581500D02*
X13121500Y-39581500D01*
G75*
G02*
X12971500Y-39431500I0J150000D01*
G01*
X12971500Y-37781500D01*
G75*
G02*
X13121500Y-37631500I150000J0D01*
G01*
X13421500Y-37631500D01*
G75*
G02*
X13571500Y-37781500I0J-150000D01*
G01*
X13571500Y-39431500D01*
G75*
G02*
X13421500Y-39581500I-150000J0D01*
G01*
G37*
G36*
G01*
X8184500Y-45336750D02*
X8184500Y-45849250D01*
G75*
G02*
X7965750Y-46068000I-218750J0D01*
G01*
X7528250Y-46068000D01*
G75*
G02*
X7309500Y-45849250I0J218750D01*
G01*
X7309500Y-45336750D01*
G75*
G02*
X7528250Y-45118000I218750J0D01*
G01*
X7965750Y-45118000D01*
G75*
G02*
X8184500Y-45336750I0J-218750D01*
G01*
G37*
G36*
G01*
X9759500Y-45336750D02*
X9759500Y-45849250D01*
G75*
G02*
X9540750Y-46068000I-218750J0D01*
G01*
X9103250Y-46068000D01*
G75*
G02*
X8884500Y-45849250I0J218750D01*
G01*
X8884500Y-45336750D01*
G75*
G02*
X9103250Y-45118000I218750J0D01*
G01*
X9540750Y-45118000D01*
G75*
G02*
X9759500Y-45336750I0J-218750D01*
G01*
G37*
G36*
G01*
X6038000Y-31366750D02*
X6038000Y-31879250D01*
G75*
G02*
X5819250Y-32098000I-218750J0D01*
G01*
X5381750Y-32098000D01*
G75*
G02*
X5163000Y-31879250I0J218750D01*
G01*
X5163000Y-31366750D01*
G75*
G02*
X5381750Y-31148000I218750J0D01*
G01*
X5819250Y-31148000D01*
G75*
G02*
X6038000Y-31366750I0J-218750D01*
G01*
G37*
G36*
G01*
X7613000Y-31366750D02*
X7613000Y-31879250D01*
G75*
G02*
X7394250Y-32098000I-218750J0D01*
G01*
X6956750Y-32098000D01*
G75*
G02*
X6738000Y-31879250I0J218750D01*
G01*
X6738000Y-31366750D01*
G75*
G02*
X6956750Y-31148000I218750J0D01*
G01*
X7394250Y-31148000D01*
G75*
G02*
X7613000Y-31366750I0J-218750D01*
G01*
G37*
G36*
G01*
X2537750Y-34792500D02*
X3050250Y-34792500D01*
G75*
G02*
X3269000Y-35011250I0J-218750D01*
G01*
X3269000Y-35448750D01*
G75*
G02*
X3050250Y-35667500I-218750J0D01*
G01*
X2537750Y-35667500D01*
G75*
G02*
X2319000Y-35448750I0J218750D01*
G01*
X2319000Y-35011250D01*
G75*
G02*
X2537750Y-34792500I218750J0D01*
G01*
G37*
G36*
G01*
X2537750Y-33217500D02*
X3050250Y-33217500D01*
G75*
G02*
X3269000Y-33436250I0J-218750D01*
G01*
X3269000Y-33873750D01*
G75*
G02*
X3050250Y-34092500I-218750J0D01*
G01*
X2537750Y-34092500D01*
G75*
G02*
X2319000Y-33873750I0J218750D01*
G01*
X2319000Y-33436250D01*
G75*
G02*
X2537750Y-33217500I218750J0D01*
G01*
G37*
G36*
G01*
X3050250Y-37458000D02*
X2537750Y-37458000D01*
G75*
G02*
X2319000Y-37239250I0J218750D01*
G01*
X2319000Y-36801750D01*
G75*
G02*
X2537750Y-36583000I218750J0D01*
G01*
X3050250Y-36583000D01*
G75*
G02*
X3269000Y-36801750I0J-218750D01*
G01*
X3269000Y-37239250D01*
G75*
G02*
X3050250Y-37458000I-218750J0D01*
G01*
G37*
G36*
G01*
X3050250Y-39033000D02*
X2537750Y-39033000D01*
G75*
G02*
X2319000Y-38814250I0J218750D01*
G01*
X2319000Y-38376750D01*
G75*
G02*
X2537750Y-38158000I218750J0D01*
G01*
X3050250Y-38158000D01*
G75*
G02*
X3269000Y-38376750I0J-218750D01*
G01*
X3269000Y-38814250D01*
G75*
G02*
X3050250Y-39033000I-218750J0D01*
G01*
G37*
G36*
G01*
X26191500Y-27935500D02*
X26191500Y-27735500D01*
G75*
G02*
X26291500Y-27635500I100000J0D01*
G01*
X27566500Y-27635500D01*
G75*
G02*
X27666500Y-27735500I0J-100000D01*
G01*
X27666500Y-27935500D01*
G75*
G02*
X27566500Y-28035500I-100000J0D01*
G01*
X26291500Y-28035500D01*
G75*
G02*
X26191500Y-27935500I0J100000D01*
G01*
G37*
G36*
G01*
X26191500Y-27285500D02*
X26191500Y-27085500D01*
G75*
G02*
X26291500Y-26985500I100000J0D01*
G01*
X27566500Y-26985500D01*
G75*
G02*
X27666500Y-27085500I0J-100000D01*
G01*
X27666500Y-27285500D01*
G75*
G02*
X27566500Y-27385500I-100000J0D01*
G01*
X26291500Y-27385500D01*
G75*
G02*
X26191500Y-27285500I0J100000D01*
G01*
G37*
G36*
G01*
X26191500Y-26635500D02*
X26191500Y-26435500D01*
G75*
G02*
X26291500Y-26335500I100000J0D01*
G01*
X27566500Y-26335500D01*
G75*
G02*
X27666500Y-26435500I0J-100000D01*
G01*
X27666500Y-26635500D01*
G75*
G02*
X27566500Y-26735500I-100000J0D01*
G01*
X26291500Y-26735500D01*
G75*
G02*
X26191500Y-26635500I0J100000D01*
G01*
G37*
G36*
G01*
X26191500Y-25985500D02*
X26191500Y-25785500D01*
G75*
G02*
X26291500Y-25685500I100000J0D01*
G01*
X27566500Y-25685500D01*
G75*
G02*
X27666500Y-25785500I0J-100000D01*
G01*
X27666500Y-25985500D01*
G75*
G02*
X27566500Y-26085500I-100000J0D01*
G01*
X26291500Y-26085500D01*
G75*
G02*
X26191500Y-25985500I0J100000D01*
G01*
G37*
G36*
G01*
X20466500Y-25985500D02*
X20466500Y-25785500D01*
G75*
G02*
X20566500Y-25685500I100000J0D01*
G01*
X21841500Y-25685500D01*
G75*
G02*
X21941500Y-25785500I0J-100000D01*
G01*
X21941500Y-25985500D01*
G75*
G02*
X21841500Y-26085500I-100000J0D01*
G01*
X20566500Y-26085500D01*
G75*
G02*
X20466500Y-25985500I0J100000D01*
G01*
G37*
G36*
G01*
X20466500Y-26635500D02*
X20466500Y-26435500D01*
G75*
G02*
X20566500Y-26335500I100000J0D01*
G01*
X21841500Y-26335500D01*
G75*
G02*
X21941500Y-26435500I0J-100000D01*
G01*
X21941500Y-26635500D01*
G75*
G02*
X21841500Y-26735500I-100000J0D01*
G01*
X20566500Y-26735500D01*
G75*
G02*
X20466500Y-26635500I0J100000D01*
G01*
G37*
G36*
G01*
X20466500Y-27285500D02*
X20466500Y-27085500D01*
G75*
G02*
X20566500Y-26985500I100000J0D01*
G01*
X21841500Y-26985500D01*
G75*
G02*
X21941500Y-27085500I0J-100000D01*
G01*
X21941500Y-27285500D01*
G75*
G02*
X21841500Y-27385500I-100000J0D01*
G01*
X20566500Y-27385500D01*
G75*
G02*
X20466500Y-27285500I0J100000D01*
G01*
G37*
G36*
G01*
X20466500Y-27935500D02*
X20466500Y-27735500D01*
G75*
G02*
X20566500Y-27635500I100000J0D01*
G01*
X21841500Y-27635500D01*
G75*
G02*
X21941500Y-27735500I0J-100000D01*
G01*
X21941500Y-27935500D01*
G75*
G02*
X21841500Y-28035500I-100000J0D01*
G01*
X20566500Y-28035500D01*
G75*
G02*
X20466500Y-27935500I0J100000D01*
G01*
G37*
G36*
G01*
X4758000Y-81822000D02*
X4558000Y-81822000D01*
G75*
G02*
X4458000Y-81722000I0J100000D01*
G01*
X4458000Y-80447000D01*
G75*
G02*
X4558000Y-80347000I100000J0D01*
G01*
X4758000Y-80347000D01*
G75*
G02*
X4858000Y-80447000I0J-100000D01*
G01*
X4858000Y-81722000D01*
G75*
G02*
X4758000Y-81822000I-100000J0D01*
G01*
G37*
G36*
G01*
X4108000Y-81822000D02*
X3908000Y-81822000D01*
G75*
G02*
X3808000Y-81722000I0J100000D01*
G01*
X3808000Y-80447000D01*
G75*
G02*
X3908000Y-80347000I100000J0D01*
G01*
X4108000Y-80347000D01*
G75*
G02*
X4208000Y-80447000I0J-100000D01*
G01*
X4208000Y-81722000D01*
G75*
G02*
X4108000Y-81822000I-100000J0D01*
G01*
G37*
G36*
G01*
X3458000Y-81822000D02*
X3258000Y-81822000D01*
G75*
G02*
X3158000Y-81722000I0J100000D01*
G01*
X3158000Y-80447000D01*
G75*
G02*
X3258000Y-80347000I100000J0D01*
G01*
X3458000Y-80347000D01*
G75*
G02*
X3558000Y-80447000I0J-100000D01*
G01*
X3558000Y-81722000D01*
G75*
G02*
X3458000Y-81822000I-100000J0D01*
G01*
G37*
G36*
G01*
X2808000Y-81822000D02*
X2608000Y-81822000D01*
G75*
G02*
X2508000Y-81722000I0J100000D01*
G01*
X2508000Y-80447000D01*
G75*
G02*
X2608000Y-80347000I100000J0D01*
G01*
X2808000Y-80347000D01*
G75*
G02*
X2908000Y-80447000I0J-100000D01*
G01*
X2908000Y-81722000D01*
G75*
G02*
X2808000Y-81822000I-100000J0D01*
G01*
G37*
G36*
G01*
X2808000Y-87547000D02*
X2608000Y-87547000D01*
G75*
G02*
X2508000Y-87447000I0J100000D01*
G01*
X2508000Y-86172000D01*
G75*
G02*
X2608000Y-86072000I100000J0D01*
G01*
X2808000Y-86072000D01*
G75*
G02*
X2908000Y-86172000I0J-100000D01*
G01*
X2908000Y-87447000D01*
G75*
G02*
X2808000Y-87547000I-100000J0D01*
G01*
G37*
G36*
G01*
X3458000Y-87547000D02*
X3258000Y-87547000D01*
G75*
G02*
X3158000Y-87447000I0J100000D01*
G01*
X3158000Y-86172000D01*
G75*
G02*
X3258000Y-86072000I100000J0D01*
G01*
X3458000Y-86072000D01*
G75*
G02*
X3558000Y-86172000I0J-100000D01*
G01*
X3558000Y-87447000D01*
G75*
G02*
X3458000Y-87547000I-100000J0D01*
G01*
G37*
G36*
G01*
X4108000Y-87547000D02*
X3908000Y-87547000D01*
G75*
G02*
X3808000Y-87447000I0J100000D01*
G01*
X3808000Y-86172000D01*
G75*
G02*
X3908000Y-86072000I100000J0D01*
G01*
X4108000Y-86072000D01*
G75*
G02*
X4208000Y-86172000I0J-100000D01*
G01*
X4208000Y-87447000D01*
G75*
G02*
X4108000Y-87547000I-100000J0D01*
G01*
G37*
G36*
G01*
X4758000Y-87547000D02*
X4558000Y-87547000D01*
G75*
G02*
X4458000Y-87447000I0J100000D01*
G01*
X4458000Y-86172000D01*
G75*
G02*
X4558000Y-86072000I100000J0D01*
G01*
X4758000Y-86072000D01*
G75*
G02*
X4858000Y-86172000I0J-100000D01*
G01*
X4858000Y-87447000D01*
G75*
G02*
X4758000Y-87547000I-100000J0D01*
G01*
G37*
D15*
X26098500Y-30734000D03*
D14*
X22848500Y-29734000D03*
X22848500Y-31734000D03*
G36*
G01*
X21178000Y-59946250D02*
X21178000Y-59433750D01*
G75*
G02*
X21396750Y-59215000I218750J0D01*
G01*
X21834250Y-59215000D01*
G75*
G02*
X22053000Y-59433750I0J-218750D01*
G01*
X22053000Y-59946250D01*
G75*
G02*
X21834250Y-60165000I-218750J0D01*
G01*
X21396750Y-60165000D01*
G75*
G02*
X21178000Y-59946250I0J218750D01*
G01*
G37*
G36*
G01*
X19603000Y-59946250D02*
X19603000Y-59433750D01*
G75*
G02*
X19821750Y-59215000I218750J0D01*
G01*
X20259250Y-59215000D01*
G75*
G02*
X20478000Y-59433750I0J-218750D01*
G01*
X20478000Y-59946250D01*
G75*
G02*
X20259250Y-60165000I-218750J0D01*
G01*
X19821750Y-60165000D01*
G75*
G02*
X19603000Y-59946250I0J218750D01*
G01*
G37*
G36*
G01*
X20478000Y-57846250D02*
X20478000Y-58358750D01*
G75*
G02*
X20259250Y-58577500I-218750J0D01*
G01*
X19821750Y-58577500D01*
G75*
G02*
X19603000Y-58358750I0J218750D01*
G01*
X19603000Y-57846250D01*
G75*
G02*
X19821750Y-57627500I218750J0D01*
G01*
X20259250Y-57627500D01*
G75*
G02*
X20478000Y-57846250I0J-218750D01*
G01*
G37*
G36*
G01*
X22053000Y-57846250D02*
X22053000Y-58358750D01*
G75*
G02*
X21834250Y-58577500I-218750J0D01*
G01*
X21396750Y-58577500D01*
G75*
G02*
X21178000Y-58358750I0J218750D01*
G01*
X21178000Y-57846250D01*
G75*
G02*
X21396750Y-57627500I218750J0D01*
G01*
X21834250Y-57627500D01*
G75*
G02*
X22053000Y-57846250I0J-218750D01*
G01*
G37*
G36*
G01*
X21178000Y-61533750D02*
X21178000Y-61021250D01*
G75*
G02*
X21396750Y-60802500I218750J0D01*
G01*
X21834250Y-60802500D01*
G75*
G02*
X22053000Y-61021250I0J-218750D01*
G01*
X22053000Y-61533750D01*
G75*
G02*
X21834250Y-61752500I-218750J0D01*
G01*
X21396750Y-61752500D01*
G75*
G02*
X21178000Y-61533750I0J218750D01*
G01*
G37*
G36*
G01*
X19603000Y-61533750D02*
X19603000Y-61021250D01*
G75*
G02*
X19821750Y-60802500I218750J0D01*
G01*
X20259250Y-60802500D01*
G75*
G02*
X20478000Y-61021250I0J-218750D01*
G01*
X20478000Y-61533750D01*
G75*
G02*
X20259250Y-61752500I-218750J0D01*
G01*
X19821750Y-61752500D01*
G75*
G02*
X19603000Y-61533750I0J218750D01*
G01*
G37*
G36*
G01*
X9532000Y-42547250D02*
X9532000Y-42034750D01*
G75*
G02*
X9750750Y-41816000I218750J0D01*
G01*
X10188250Y-41816000D01*
G75*
G02*
X10407000Y-42034750I0J-218750D01*
G01*
X10407000Y-42547250D01*
G75*
G02*
X10188250Y-42766000I-218750J0D01*
G01*
X9750750Y-42766000D01*
G75*
G02*
X9532000Y-42547250I0J218750D01*
G01*
G37*
G36*
G01*
X7957000Y-42547250D02*
X7957000Y-42034750D01*
G75*
G02*
X8175750Y-41816000I218750J0D01*
G01*
X8613250Y-41816000D01*
G75*
G02*
X8832000Y-42034750I0J-218750D01*
G01*
X8832000Y-42547250D01*
G75*
G02*
X8613250Y-42766000I-218750J0D01*
G01*
X8175750Y-42766000D01*
G75*
G02*
X7957000Y-42547250I0J218750D01*
G01*
G37*
G36*
G01*
X8884500Y-44261750D02*
X8884500Y-43749250D01*
G75*
G02*
X9103250Y-43530500I218750J0D01*
G01*
X9540750Y-43530500D01*
G75*
G02*
X9759500Y-43749250I0J-218750D01*
G01*
X9759500Y-44261750D01*
G75*
G02*
X9540750Y-44480500I-218750J0D01*
G01*
X9103250Y-44480500D01*
G75*
G02*
X8884500Y-44261750I0J218750D01*
G01*
G37*
G36*
G01*
X7309500Y-44261750D02*
X7309500Y-43749250D01*
G75*
G02*
X7528250Y-43530500I218750J0D01*
G01*
X7965750Y-43530500D01*
G75*
G02*
X8184500Y-43749250I0J-218750D01*
G01*
X8184500Y-44261750D01*
G75*
G02*
X7965750Y-44480500I-218750J0D01*
G01*
X7528250Y-44480500D01*
G75*
G02*
X7309500Y-44261750I0J218750D01*
G01*
G37*
G36*
G01*
X15996500Y-38927750D02*
X15996500Y-38415250D01*
G75*
G02*
X16215250Y-38196500I218750J0D01*
G01*
X16652750Y-38196500D01*
G75*
G02*
X16871500Y-38415250I0J-218750D01*
G01*
X16871500Y-38927750D01*
G75*
G02*
X16652750Y-39146500I-218750J0D01*
G01*
X16215250Y-39146500D01*
G75*
G02*
X15996500Y-38927750I0J218750D01*
G01*
G37*
G36*
G01*
X14421500Y-38927750D02*
X14421500Y-38415250D01*
G75*
G02*
X14640250Y-38196500I218750J0D01*
G01*
X15077750Y-38196500D01*
G75*
G02*
X15296500Y-38415250I0J-218750D01*
G01*
X15296500Y-38927750D01*
G75*
G02*
X15077750Y-39146500I-218750J0D01*
G01*
X14640250Y-39146500D01*
G75*
G02*
X14421500Y-38927750I0J218750D01*
G01*
G37*
G36*
G01*
X8832000Y-40447250D02*
X8832000Y-40959750D01*
G75*
G02*
X8613250Y-41178500I-218750J0D01*
G01*
X8175750Y-41178500D01*
G75*
G02*
X7957000Y-40959750I0J218750D01*
G01*
X7957000Y-40447250D01*
G75*
G02*
X8175750Y-40228500I218750J0D01*
G01*
X8613250Y-40228500D01*
G75*
G02*
X8832000Y-40447250I0J-218750D01*
G01*
G37*
G36*
G01*
X10407000Y-40447250D02*
X10407000Y-40959750D01*
G75*
G02*
X10188250Y-41178500I-218750J0D01*
G01*
X9750750Y-41178500D01*
G75*
G02*
X9532000Y-40959750I0J218750D01*
G01*
X9532000Y-40447250D01*
G75*
G02*
X9750750Y-40228500I218750J0D01*
G01*
X10188250Y-40228500D01*
G75*
G02*
X10407000Y-40447250I0J-218750D01*
G01*
G37*
D15*
X18806500Y-99250500D03*
D14*
X22056500Y-100250500D03*
X22056500Y-98250500D03*
G36*
G01*
X24135500Y-99565750D02*
X24135500Y-100078250D01*
G75*
G02*
X23916750Y-100297000I-218750J0D01*
G01*
X23479250Y-100297000D01*
G75*
G02*
X23260500Y-100078250I0J218750D01*
G01*
X23260500Y-99565750D01*
G75*
G02*
X23479250Y-99347000I218750J0D01*
G01*
X23916750Y-99347000D01*
G75*
G02*
X24135500Y-99565750I0J-218750D01*
G01*
G37*
G36*
G01*
X25710500Y-99565750D02*
X25710500Y-100078250D01*
G75*
G02*
X25491750Y-100297000I-218750J0D01*
G01*
X25054250Y-100297000D01*
G75*
G02*
X24835500Y-100078250I0J218750D01*
G01*
X24835500Y-99565750D01*
G75*
G02*
X25054250Y-99347000I218750J0D01*
G01*
X25491750Y-99347000D01*
G75*
G02*
X25710500Y-99565750I0J-218750D01*
G01*
G37*
G36*
G01*
X27018500Y-112456250D02*
X27018500Y-112968750D01*
G75*
G02*
X26799750Y-113187500I-218750J0D01*
G01*
X26362250Y-113187500D01*
G75*
G02*
X26143500Y-112968750I0J218750D01*
G01*
X26143500Y-112456250D01*
G75*
G02*
X26362250Y-112237500I218750J0D01*
G01*
X26799750Y-112237500D01*
G75*
G02*
X27018500Y-112456250I0J-218750D01*
G01*
G37*
G36*
G01*
X28593500Y-112456250D02*
X28593500Y-112968750D01*
G75*
G02*
X28374750Y-113187500I-218750J0D01*
G01*
X27937250Y-113187500D01*
G75*
G02*
X27718500Y-112968750I0J218750D01*
G01*
X27718500Y-112456250D01*
G75*
G02*
X27937250Y-112237500I218750J0D01*
G01*
X28374750Y-112237500D01*
G75*
G02*
X28593500Y-112456250I0J-218750D01*
G01*
G37*
G36*
G01*
X24135500Y-97978250D02*
X24135500Y-98490750D01*
G75*
G02*
X23916750Y-98709500I-218750J0D01*
G01*
X23479250Y-98709500D01*
G75*
G02*
X23260500Y-98490750I0J218750D01*
G01*
X23260500Y-97978250D01*
G75*
G02*
X23479250Y-97759500I218750J0D01*
G01*
X23916750Y-97759500D01*
G75*
G02*
X24135500Y-97978250I0J-218750D01*
G01*
G37*
G36*
G01*
X25710500Y-97978250D02*
X25710500Y-98490750D01*
G75*
G02*
X25491750Y-98709500I-218750J0D01*
G01*
X25054250Y-98709500D01*
G75*
G02*
X24835500Y-98490750I0J218750D01*
G01*
X24835500Y-97978250D01*
G75*
G02*
X25054250Y-97759500I218750J0D01*
G01*
X25491750Y-97759500D01*
G75*
G02*
X25710500Y-97978250I0J-218750D01*
G01*
G37*
G36*
G01*
X4442750Y-89885000D02*
X4955250Y-89885000D01*
G75*
G02*
X5174000Y-90103750I0J-218750D01*
G01*
X5174000Y-90541250D01*
G75*
G02*
X4955250Y-90760000I-218750J0D01*
G01*
X4442750Y-90760000D01*
G75*
G02*
X4224000Y-90541250I0J218750D01*
G01*
X4224000Y-90103750D01*
G75*
G02*
X4442750Y-89885000I218750J0D01*
G01*
G37*
G36*
G01*
X4442750Y-88310000D02*
X4955250Y-88310000D01*
G75*
G02*
X5174000Y-88528750I0J-218750D01*
G01*
X5174000Y-88966250D01*
G75*
G02*
X4955250Y-89185000I-218750J0D01*
G01*
X4442750Y-89185000D01*
G75*
G02*
X4224000Y-88966250I0J218750D01*
G01*
X4224000Y-88528750D01*
G75*
G02*
X4442750Y-88310000I218750J0D01*
G01*
G37*
G36*
G01*
X15996500Y-37340250D02*
X15996500Y-36827750D01*
G75*
G02*
X16215250Y-36609000I218750J0D01*
G01*
X16652750Y-36609000D01*
G75*
G02*
X16871500Y-36827750I0J-218750D01*
G01*
X16871500Y-37340250D01*
G75*
G02*
X16652750Y-37559000I-218750J0D01*
G01*
X16215250Y-37559000D01*
G75*
G02*
X15996500Y-37340250I0J218750D01*
G01*
G37*
G36*
G01*
X14421500Y-37340250D02*
X14421500Y-36827750D01*
G75*
G02*
X14640250Y-36609000I218750J0D01*
G01*
X15077750Y-36609000D01*
G75*
G02*
X15296500Y-36827750I0J-218750D01*
G01*
X15296500Y-37340250D01*
G75*
G02*
X15077750Y-37559000I-218750J0D01*
G01*
X14640250Y-37559000D01*
G75*
G02*
X14421500Y-37340250I0J218750D01*
G01*
G37*
G36*
G01*
X6101500Y-47686250D02*
X6101500Y-48198750D01*
G75*
G02*
X5882750Y-48417500I-218750J0D01*
G01*
X5445250Y-48417500D01*
G75*
G02*
X5226500Y-48198750I0J218750D01*
G01*
X5226500Y-47686250D01*
G75*
G02*
X5445250Y-47467500I218750J0D01*
G01*
X5882750Y-47467500D01*
G75*
G02*
X6101500Y-47686250I0J-218750D01*
G01*
G37*
G36*
G01*
X7676500Y-47686250D02*
X7676500Y-48198750D01*
G75*
G02*
X7457750Y-48417500I-218750J0D01*
G01*
X7020250Y-48417500D01*
G75*
G02*
X6801500Y-48198750I0J218750D01*
G01*
X6801500Y-47686250D01*
G75*
G02*
X7020250Y-47467500I218750J0D01*
G01*
X7457750Y-47467500D01*
G75*
G02*
X7676500Y-47686250I0J-218750D01*
G01*
G37*
G36*
G01*
X11715000Y-59497250D02*
X11715000Y-60009750D01*
G75*
G02*
X11496250Y-60228500I-218750J0D01*
G01*
X11058750Y-60228500D01*
G75*
G02*
X10840000Y-60009750I0J218750D01*
G01*
X10840000Y-59497250D01*
G75*
G02*
X11058750Y-59278500I218750J0D01*
G01*
X11496250Y-59278500D01*
G75*
G02*
X11715000Y-59497250I0J-218750D01*
G01*
G37*
G36*
G01*
X13290000Y-59497250D02*
X13290000Y-60009750D01*
G75*
G02*
X13071250Y-60228500I-218750J0D01*
G01*
X12633750Y-60228500D01*
G75*
G02*
X12415000Y-60009750I0J218750D01*
G01*
X12415000Y-59497250D01*
G75*
G02*
X12633750Y-59278500I218750J0D01*
G01*
X13071250Y-59278500D01*
G75*
G02*
X13290000Y-59497250I0J-218750D01*
G01*
G37*
G36*
G01*
X23272000Y-74318150D02*
X23272000Y-74830650D01*
G75*
G02*
X23053250Y-75049400I-218750J0D01*
G01*
X22615750Y-75049400D01*
G75*
G02*
X22397000Y-74830650I0J218750D01*
G01*
X22397000Y-74318150D01*
G75*
G02*
X22615750Y-74099400I218750J0D01*
G01*
X23053250Y-74099400D01*
G75*
G02*
X23272000Y-74318150I0J-218750D01*
G01*
G37*
G36*
G01*
X24847000Y-74318150D02*
X24847000Y-74830650D01*
G75*
G02*
X24628250Y-75049400I-218750J0D01*
G01*
X24190750Y-75049400D01*
G75*
G02*
X23972000Y-74830650I0J218750D01*
G01*
X23972000Y-74318150D01*
G75*
G02*
X24190750Y-74099400I218750J0D01*
G01*
X24628250Y-74099400D01*
G75*
G02*
X24847000Y-74318150I0J-218750D01*
G01*
G37*
D12*
X4733500Y-52533000D03*
X4733500Y-53183000D03*
X4733500Y-53833000D03*
X4733500Y-54483000D03*
X4733500Y-55133000D03*
X4733500Y-55783000D03*
X4733500Y-56433000D03*
X10633500Y-56433000D03*
X10633500Y-55783000D03*
X10633500Y-55133000D03*
X10633500Y-54483000D03*
X10633500Y-53833000D03*
X10633500Y-53183000D03*
X10633500Y-52533000D03*
G36*
G01*
X12702250Y-53815500D02*
X12189750Y-53815500D01*
G75*
G02*
X11971000Y-53596750I0J218750D01*
G01*
X11971000Y-53159250D01*
G75*
G02*
X12189750Y-52940500I218750J0D01*
G01*
X12702250Y-52940500D01*
G75*
G02*
X12921000Y-53159250I0J-218750D01*
G01*
X12921000Y-53596750D01*
G75*
G02*
X12702250Y-53815500I-218750J0D01*
G01*
G37*
G36*
G01*
X12702250Y-55390500D02*
X12189750Y-55390500D01*
G75*
G02*
X11971000Y-55171750I0J218750D01*
G01*
X11971000Y-54734250D01*
G75*
G02*
X12189750Y-54515500I218750J0D01*
G01*
X12702250Y-54515500D01*
G75*
G02*
X12921000Y-54734250I0J-218750D01*
G01*
X12921000Y-55171750D01*
G75*
G02*
X12702250Y-55390500I-218750J0D01*
G01*
G37*
G36*
G01*
X13797700Y-82801750D02*
X13797700Y-83314250D01*
G75*
G02*
X13578950Y-83533000I-218750J0D01*
G01*
X13141450Y-83533000D01*
G75*
G02*
X12922700Y-83314250I0J218750D01*
G01*
X12922700Y-82801750D01*
G75*
G02*
X13141450Y-82583000I218750J0D01*
G01*
X13578950Y-82583000D01*
G75*
G02*
X13797700Y-82801750I0J-218750D01*
G01*
G37*
G36*
G01*
X15372700Y-82801750D02*
X15372700Y-83314250D01*
G75*
G02*
X15153950Y-83533000I-218750J0D01*
G01*
X14716450Y-83533000D01*
G75*
G02*
X14497700Y-83314250I0J218750D01*
G01*
X14497700Y-82801750D01*
G75*
G02*
X14716450Y-82583000I218750J0D01*
G01*
X15153950Y-82583000D01*
G75*
G02*
X15372700Y-82801750I0J-218750D01*
G01*
G37*
G36*
G01*
X16896500Y-77518550D02*
X16896500Y-78031050D01*
G75*
G02*
X16677750Y-78249800I-218750J0D01*
G01*
X16240250Y-78249800D01*
G75*
G02*
X16021500Y-78031050I0J218750D01*
G01*
X16021500Y-77518550D01*
G75*
G02*
X16240250Y-77299800I218750J0D01*
G01*
X16677750Y-77299800D01*
G75*
G02*
X16896500Y-77518550I0J-218750D01*
G01*
G37*
G36*
G01*
X18471500Y-77518550D02*
X18471500Y-78031050D01*
G75*
G02*
X18252750Y-78249800I-218750J0D01*
G01*
X17815250Y-78249800D01*
G75*
G02*
X17596500Y-78031050I0J218750D01*
G01*
X17596500Y-77518550D01*
G75*
G02*
X17815250Y-77299800I218750J0D01*
G01*
X18252750Y-77299800D01*
G75*
G02*
X18471500Y-77518550I0J-218750D01*
G01*
G37*
G36*
G01*
X2283750Y-63748500D02*
X2796250Y-63748500D01*
G75*
G02*
X3015000Y-63967250I0J-218750D01*
G01*
X3015000Y-64404750D01*
G75*
G02*
X2796250Y-64623500I-218750J0D01*
G01*
X2283750Y-64623500D01*
G75*
G02*
X2065000Y-64404750I0J218750D01*
G01*
X2065000Y-63967250D01*
G75*
G02*
X2283750Y-63748500I218750J0D01*
G01*
G37*
G36*
G01*
X2283750Y-62173500D02*
X2796250Y-62173500D01*
G75*
G02*
X3015000Y-62392250I0J-218750D01*
G01*
X3015000Y-62829750D01*
G75*
G02*
X2796250Y-63048500I-218750J0D01*
G01*
X2283750Y-63048500D01*
G75*
G02*
X2065000Y-62829750I0J218750D01*
G01*
X2065000Y-62392250D01*
G75*
G02*
X2283750Y-62173500I218750J0D01*
G01*
G37*
G36*
G01*
X29017250Y-25864000D02*
X29529750Y-25864000D01*
G75*
G02*
X29748500Y-26082750I0J-218750D01*
G01*
X29748500Y-26520250D01*
G75*
G02*
X29529750Y-26739000I-218750J0D01*
G01*
X29017250Y-26739000D01*
G75*
G02*
X28798500Y-26520250I0J218750D01*
G01*
X28798500Y-26082750D01*
G75*
G02*
X29017250Y-25864000I218750J0D01*
G01*
G37*
G36*
G01*
X29017250Y-27439000D02*
X29529750Y-27439000D01*
G75*
G02*
X29748500Y-27657750I0J-218750D01*
G01*
X29748500Y-28095250D01*
G75*
G02*
X29529750Y-28314000I-218750J0D01*
G01*
X29017250Y-28314000D01*
G75*
G02*
X28798500Y-28095250I0J218750D01*
G01*
X28798500Y-27657750D01*
G75*
G02*
X29017250Y-27439000I218750J0D01*
G01*
G37*
G36*
G01*
X2796250Y-66236000D02*
X2283750Y-66236000D01*
G75*
G02*
X2065000Y-66017250I0J218750D01*
G01*
X2065000Y-65579750D01*
G75*
G02*
X2283750Y-65361000I218750J0D01*
G01*
X2796250Y-65361000D01*
G75*
G02*
X3015000Y-65579750I0J-218750D01*
G01*
X3015000Y-66017250D01*
G75*
G02*
X2796250Y-66236000I-218750J0D01*
G01*
G37*
G36*
G01*
X2796250Y-67811000D02*
X2283750Y-67811000D01*
G75*
G02*
X2065000Y-67592250I0J218750D01*
G01*
X2065000Y-67154750D01*
G75*
G02*
X2283750Y-66936000I218750J0D01*
G01*
X2796250Y-66936000D01*
G75*
G02*
X3015000Y-67154750I0J-218750D01*
G01*
X3015000Y-67592250D01*
G75*
G02*
X2796250Y-67811000I-218750J0D01*
G01*
G37*
G36*
G01*
X19047750Y-26867500D02*
X19560250Y-26867500D01*
G75*
G02*
X19779000Y-27086250I0J-218750D01*
G01*
X19779000Y-27523750D01*
G75*
G02*
X19560250Y-27742500I-218750J0D01*
G01*
X19047750Y-27742500D01*
G75*
G02*
X18829000Y-27523750I0J218750D01*
G01*
X18829000Y-27086250D01*
G75*
G02*
X19047750Y-26867500I218750J0D01*
G01*
G37*
G36*
G01*
X19047750Y-25292500D02*
X19560250Y-25292500D01*
G75*
G02*
X19779000Y-25511250I0J-218750D01*
G01*
X19779000Y-25948750D01*
G75*
G02*
X19560250Y-26167500I-218750J0D01*
G01*
X19047750Y-26167500D01*
G75*
G02*
X18829000Y-25948750I0J218750D01*
G01*
X18829000Y-25511250D01*
G75*
G02*
X19047750Y-25292500I218750J0D01*
G01*
G37*
G36*
G01*
X2859750Y-54298000D02*
X2347250Y-54298000D01*
G75*
G02*
X2128500Y-54079250I0J218750D01*
G01*
X2128500Y-53641750D01*
G75*
G02*
X2347250Y-53423000I218750J0D01*
G01*
X2859750Y-53423000D01*
G75*
G02*
X3078500Y-53641750I0J-218750D01*
G01*
X3078500Y-54079250D01*
G75*
G02*
X2859750Y-54298000I-218750J0D01*
G01*
G37*
G36*
G01*
X2859750Y-55873000D02*
X2347250Y-55873000D01*
G75*
G02*
X2128500Y-55654250I0J218750D01*
G01*
X2128500Y-55216750D01*
G75*
G02*
X2347250Y-54998000I218750J0D01*
G01*
X2859750Y-54998000D01*
G75*
G02*
X3078500Y-55216750I0J-218750D01*
G01*
X3078500Y-55654250D01*
G75*
G02*
X2859750Y-55873000I-218750J0D01*
G01*
G37*
G36*
G01*
X19654000Y-47119250D02*
X19654000Y-46606750D01*
G75*
G02*
X19872750Y-46388000I218750J0D01*
G01*
X20310250Y-46388000D01*
G75*
G02*
X20529000Y-46606750I0J-218750D01*
G01*
X20529000Y-47119250D01*
G75*
G02*
X20310250Y-47338000I-218750J0D01*
G01*
X19872750Y-47338000D01*
G75*
G02*
X19654000Y-47119250I0J218750D01*
G01*
G37*
G36*
G01*
X18079000Y-47119250D02*
X18079000Y-46606750D01*
G75*
G02*
X18297750Y-46388000I218750J0D01*
G01*
X18735250Y-46388000D01*
G75*
G02*
X18954000Y-46606750I0J-218750D01*
G01*
X18954000Y-47119250D01*
G75*
G02*
X18735250Y-47338000I-218750J0D01*
G01*
X18297750Y-47338000D01*
G75*
G02*
X18079000Y-47119250I0J218750D01*
G01*
G37*
G36*
G01*
X3714000Y-59497250D02*
X3714000Y-60009750D01*
G75*
G02*
X3495250Y-60228500I-218750J0D01*
G01*
X3057750Y-60228500D01*
G75*
G02*
X2839000Y-60009750I0J218750D01*
G01*
X2839000Y-59497250D01*
G75*
G02*
X3057750Y-59278500I218750J0D01*
G01*
X3495250Y-59278500D01*
G75*
G02*
X3714000Y-59497250I0J-218750D01*
G01*
G37*
G36*
G01*
X5289000Y-59497250D02*
X5289000Y-60009750D01*
G75*
G02*
X5070250Y-60228500I-218750J0D01*
G01*
X4632750Y-60228500D01*
G75*
G02*
X4414000Y-60009750I0J218750D01*
G01*
X4414000Y-59497250D01*
G75*
G02*
X4632750Y-59278500I218750J0D01*
G01*
X5070250Y-59278500D01*
G75*
G02*
X5289000Y-59497250I0J-218750D01*
G01*
G37*
G36*
G01*
X22397000Y-76430850D02*
X22397000Y-75918350D01*
G75*
G02*
X22615750Y-75699600I218750J0D01*
G01*
X23053250Y-75699600D01*
G75*
G02*
X23272000Y-75918350I0J-218750D01*
G01*
X23272000Y-76430850D01*
G75*
G02*
X23053250Y-76649600I-218750J0D01*
G01*
X22615750Y-76649600D01*
G75*
G02*
X22397000Y-76430850I0J218750D01*
G01*
G37*
G36*
G01*
X23972000Y-76430850D02*
X23972000Y-75918350D01*
G75*
G02*
X24190750Y-75699600I218750J0D01*
G01*
X24628250Y-75699600D01*
G75*
G02*
X24847000Y-75918350I0J-218750D01*
G01*
X24847000Y-76430850D01*
G75*
G02*
X24628250Y-76649600I-218750J0D01*
G01*
X24190750Y-76649600D01*
G75*
G02*
X23972000Y-76430850I0J218750D01*
G01*
G37*
G36*
G01*
X15869500Y-65534250D02*
X15869500Y-65021750D01*
G75*
G02*
X16088250Y-64803000I218750J0D01*
G01*
X16525750Y-64803000D01*
G75*
G02*
X16744500Y-65021750I0J-218750D01*
G01*
X16744500Y-65534250D01*
G75*
G02*
X16525750Y-65753000I-218750J0D01*
G01*
X16088250Y-65753000D01*
G75*
G02*
X15869500Y-65534250I0J218750D01*
G01*
G37*
G36*
G01*
X14294500Y-65534250D02*
X14294500Y-65021750D01*
G75*
G02*
X14513250Y-64803000I218750J0D01*
G01*
X14950750Y-64803000D01*
G75*
G02*
X15169500Y-65021750I0J-218750D01*
G01*
X15169500Y-65534250D01*
G75*
G02*
X14950750Y-65753000I-218750J0D01*
G01*
X14513250Y-65753000D01*
G75*
G02*
X14294500Y-65534250I0J218750D01*
G01*
G37*
G36*
G01*
X6093750Y-81985500D02*
X6606250Y-81985500D01*
G75*
G02*
X6825000Y-82204250I0J-218750D01*
G01*
X6825000Y-82641750D01*
G75*
G02*
X6606250Y-82860500I-218750J0D01*
G01*
X6093750Y-82860500D01*
G75*
G02*
X5875000Y-82641750I0J218750D01*
G01*
X5875000Y-82204250D01*
G75*
G02*
X6093750Y-81985500I218750J0D01*
G01*
G37*
G36*
G01*
X6093750Y-80410500D02*
X6606250Y-80410500D01*
G75*
G02*
X6825000Y-80629250I0J-218750D01*
G01*
X6825000Y-81066750D01*
G75*
G02*
X6606250Y-81285500I-218750J0D01*
G01*
X6093750Y-81285500D01*
G75*
G02*
X5875000Y-81066750I0J218750D01*
G01*
X5875000Y-80629250D01*
G75*
G02*
X6093750Y-80410500I218750J0D01*
G01*
G37*
G36*
G01*
X886750Y-86138500D02*
X1399250Y-86138500D01*
G75*
G02*
X1618000Y-86357250I0J-218750D01*
G01*
X1618000Y-86794750D01*
G75*
G02*
X1399250Y-87013500I-218750J0D01*
G01*
X886750Y-87013500D01*
G75*
G02*
X668000Y-86794750I0J218750D01*
G01*
X668000Y-86357250D01*
G75*
G02*
X886750Y-86138500I218750J0D01*
G01*
G37*
G36*
G01*
X886750Y-84563500D02*
X1399250Y-84563500D01*
G75*
G02*
X1618000Y-84782250I0J-218750D01*
G01*
X1618000Y-85219750D01*
G75*
G02*
X1399250Y-85438500I-218750J0D01*
G01*
X886750Y-85438500D01*
G75*
G02*
X668000Y-85219750I0J218750D01*
G01*
X668000Y-84782250D01*
G75*
G02*
X886750Y-84563500I218750J0D01*
G01*
G37*
G36*
G01*
X15652000Y-20889250D02*
X15652000Y-21401750D01*
G75*
G02*
X15433250Y-21620500I-218750J0D01*
G01*
X14995750Y-21620500D01*
G75*
G02*
X14777000Y-21401750I0J218750D01*
G01*
X14777000Y-20889250D01*
G75*
G02*
X14995750Y-20670500I218750J0D01*
G01*
X15433250Y-20670500D01*
G75*
G02*
X15652000Y-20889250I0J-218750D01*
G01*
G37*
G36*
G01*
X17227000Y-20889250D02*
X17227000Y-21401750D01*
G75*
G02*
X17008250Y-21620500I-218750J0D01*
G01*
X16570750Y-21620500D01*
G75*
G02*
X16352000Y-21401750I0J218750D01*
G01*
X16352000Y-20889250D01*
G75*
G02*
X16570750Y-20670500I218750J0D01*
G01*
X17008250Y-20670500D01*
G75*
G02*
X17227000Y-20889250I0J-218750D01*
G01*
G37*
G36*
G01*
X20160500Y-20063750D02*
X20160500Y-20576250D01*
G75*
G02*
X19941750Y-20795000I-218750J0D01*
G01*
X19504250Y-20795000D01*
G75*
G02*
X19285500Y-20576250I0J218750D01*
G01*
X19285500Y-20063750D01*
G75*
G02*
X19504250Y-19845000I218750J0D01*
G01*
X19941750Y-19845000D01*
G75*
G02*
X20160500Y-20063750I0J-218750D01*
G01*
G37*
G36*
G01*
X21735500Y-20063750D02*
X21735500Y-20576250D01*
G75*
G02*
X21516750Y-20795000I-218750J0D01*
G01*
X21079250Y-20795000D01*
G75*
G02*
X20860500Y-20576250I0J218750D01*
G01*
X20860500Y-20063750D01*
G75*
G02*
X21079250Y-19845000I218750J0D01*
G01*
X21516750Y-19845000D01*
G75*
G02*
X21735500Y-20063750I0J-218750D01*
G01*
G37*
G36*
G01*
X24135500Y-101788250D02*
X24135500Y-102300750D01*
G75*
G02*
X23916750Y-102519500I-218750J0D01*
G01*
X23479250Y-102519500D01*
G75*
G02*
X23260500Y-102300750I0J218750D01*
G01*
X23260500Y-101788250D01*
G75*
G02*
X23479250Y-101569500I218750J0D01*
G01*
X23916750Y-101569500D01*
G75*
G02*
X24135500Y-101788250I0J-218750D01*
G01*
G37*
G36*
G01*
X25710500Y-101788250D02*
X25710500Y-102300750D01*
G75*
G02*
X25491750Y-102519500I-218750J0D01*
G01*
X25054250Y-102519500D01*
G75*
G02*
X24835500Y-102300750I0J218750D01*
G01*
X24835500Y-101788250D01*
G75*
G02*
X25054250Y-101569500I218750J0D01*
G01*
X25491750Y-101569500D01*
G75*
G02*
X25710500Y-101788250I0J-218750D01*
G01*
G37*
G36*
G01*
X15626500Y-109281250D02*
X15626500Y-109793750D01*
G75*
G02*
X15407750Y-110012500I-218750J0D01*
G01*
X14970250Y-110012500D01*
G75*
G02*
X14751500Y-109793750I0J218750D01*
G01*
X14751500Y-109281250D01*
G75*
G02*
X14970250Y-109062500I218750J0D01*
G01*
X15407750Y-109062500D01*
G75*
G02*
X15626500Y-109281250I0J-218750D01*
G01*
G37*
G36*
G01*
X17201500Y-109281250D02*
X17201500Y-109793750D01*
G75*
G02*
X16982750Y-110012500I-218750J0D01*
G01*
X16545250Y-110012500D01*
G75*
G02*
X16326500Y-109793750I0J218750D01*
G01*
X16326500Y-109281250D01*
G75*
G02*
X16545250Y-109062500I218750J0D01*
G01*
X16982750Y-109062500D01*
G75*
G02*
X17201500Y-109281250I0J-218750D01*
G01*
G37*
G36*
G01*
X12832500Y-92707750D02*
X12832500Y-93220250D01*
G75*
G02*
X12613750Y-93439000I-218750J0D01*
G01*
X12176250Y-93439000D01*
G75*
G02*
X11957500Y-93220250I0J218750D01*
G01*
X11957500Y-92707750D01*
G75*
G02*
X12176250Y-92489000I218750J0D01*
G01*
X12613750Y-92489000D01*
G75*
G02*
X12832500Y-92707750I0J-218750D01*
G01*
G37*
G36*
G01*
X14407500Y-92707750D02*
X14407500Y-93220250D01*
G75*
G02*
X14188750Y-93439000I-218750J0D01*
G01*
X13751250Y-93439000D01*
G75*
G02*
X13532500Y-93220250I0J218750D01*
G01*
X13532500Y-92707750D01*
G75*
G02*
X13751250Y-92489000I218750J0D01*
G01*
X14188750Y-92489000D01*
G75*
G02*
X14407500Y-92707750I0J-218750D01*
G01*
G37*
G36*
G01*
X14166000Y-90485250D02*
X14166000Y-90997750D01*
G75*
G02*
X13947250Y-91216500I-218750J0D01*
G01*
X13509750Y-91216500D01*
G75*
G02*
X13291000Y-90997750I0J218750D01*
G01*
X13291000Y-90485250D01*
G75*
G02*
X13509750Y-90266500I218750J0D01*
G01*
X13947250Y-90266500D01*
G75*
G02*
X14166000Y-90485250I0J-218750D01*
G01*
G37*
G36*
G01*
X15741000Y-90485250D02*
X15741000Y-90997750D01*
G75*
G02*
X15522250Y-91216500I-218750J0D01*
G01*
X15084750Y-91216500D01*
G75*
G02*
X14866000Y-90997750I0J218750D01*
G01*
X14866000Y-90485250D01*
G75*
G02*
X15084750Y-90266500I218750J0D01*
G01*
X15522250Y-90266500D01*
G75*
G02*
X15741000Y-90485250I0J-218750D01*
G01*
G37*
G36*
G01*
X10864000Y-47686250D02*
X10864000Y-48198750D01*
G75*
G02*
X10645250Y-48417500I-218750J0D01*
G01*
X10207750Y-48417500D01*
G75*
G02*
X9989000Y-48198750I0J218750D01*
G01*
X9989000Y-47686250D01*
G75*
G02*
X10207750Y-47467500I218750J0D01*
G01*
X10645250Y-47467500D01*
G75*
G02*
X10864000Y-47686250I0J-218750D01*
G01*
G37*
G36*
G01*
X12439000Y-47686250D02*
X12439000Y-48198750D01*
G75*
G02*
X12220250Y-48417500I-218750J0D01*
G01*
X11782750Y-48417500D01*
G75*
G02*
X11564000Y-48198750I0J218750D01*
G01*
X11564000Y-47686250D01*
G75*
G02*
X11782750Y-47467500I218750J0D01*
G01*
X12220250Y-47467500D01*
G75*
G02*
X12439000Y-47686250I0J-218750D01*
G01*
G37*
G36*
G01*
X21178000Y-56771250D02*
X21178000Y-56258750D01*
G75*
G02*
X21396750Y-56040000I218750J0D01*
G01*
X21834250Y-56040000D01*
G75*
G02*
X22053000Y-56258750I0J-218750D01*
G01*
X22053000Y-56771250D01*
G75*
G02*
X21834250Y-56990000I-218750J0D01*
G01*
X21396750Y-56990000D01*
G75*
G02*
X21178000Y-56771250I0J218750D01*
G01*
G37*
G36*
G01*
X19603000Y-56771250D02*
X19603000Y-56258750D01*
G75*
G02*
X19821750Y-56040000I218750J0D01*
G01*
X20259250Y-56040000D01*
G75*
G02*
X20478000Y-56258750I0J-218750D01*
G01*
X20478000Y-56771250D01*
G75*
G02*
X20259250Y-56990000I-218750J0D01*
G01*
X19821750Y-56990000D01*
G75*
G02*
X19603000Y-56771250I0J218750D01*
G01*
G37*
G36*
G01*
X18954000Y-45019250D02*
X18954000Y-45531750D01*
G75*
G02*
X18735250Y-45750500I-218750J0D01*
G01*
X18297750Y-45750500D01*
G75*
G02*
X18079000Y-45531750I0J218750D01*
G01*
X18079000Y-45019250D01*
G75*
G02*
X18297750Y-44800500I218750J0D01*
G01*
X18735250Y-44800500D01*
G75*
G02*
X18954000Y-45019250I0J-218750D01*
G01*
G37*
G36*
G01*
X20529000Y-45019250D02*
X20529000Y-45531750D01*
G75*
G02*
X20310250Y-45750500I-218750J0D01*
G01*
X19872750Y-45750500D01*
G75*
G02*
X19654000Y-45531750I0J218750D01*
G01*
X19654000Y-45019250D01*
G75*
G02*
X19872750Y-44800500I218750J0D01*
G01*
X20310250Y-44800500D01*
G75*
G02*
X20529000Y-45019250I0J-218750D01*
G01*
G37*
G36*
G01*
X22702000Y-45531750D02*
X22702000Y-45019250D01*
G75*
G02*
X22920750Y-44800500I218750J0D01*
G01*
X23358250Y-44800500D01*
G75*
G02*
X23577000Y-45019250I0J-218750D01*
G01*
X23577000Y-45531750D01*
G75*
G02*
X23358250Y-45750500I-218750J0D01*
G01*
X22920750Y-45750500D01*
G75*
G02*
X22702000Y-45531750I0J218750D01*
G01*
G37*
G36*
G01*
X21127000Y-45531750D02*
X21127000Y-45019250D01*
G75*
G02*
X21345750Y-44800500I218750J0D01*
G01*
X21783250Y-44800500D01*
G75*
G02*
X22002000Y-45019250I0J-218750D01*
G01*
X22002000Y-45531750D01*
G75*
G02*
X21783250Y-45750500I-218750J0D01*
G01*
X21345750Y-45750500D01*
G75*
G02*
X21127000Y-45531750I0J218750D01*
G01*
G37*
G36*
G01*
X9149500Y-31366750D02*
X9149500Y-31879250D01*
G75*
G02*
X8930750Y-32098000I-218750J0D01*
G01*
X8493250Y-32098000D01*
G75*
G02*
X8274500Y-31879250I0J218750D01*
G01*
X8274500Y-31366750D01*
G75*
G02*
X8493250Y-31148000I218750J0D01*
G01*
X8930750Y-31148000D01*
G75*
G02*
X9149500Y-31366750I0J-218750D01*
G01*
G37*
G36*
G01*
X10724500Y-31366750D02*
X10724500Y-31879250D01*
G75*
G02*
X10505750Y-32098000I-218750J0D01*
G01*
X10068250Y-32098000D01*
G75*
G02*
X9849500Y-31879250I0J218750D01*
G01*
X9849500Y-31366750D01*
G75*
G02*
X10068250Y-31148000I218750J0D01*
G01*
X10505750Y-31148000D01*
G75*
G02*
X10724500Y-31366750I0J-218750D01*
G01*
G37*
G36*
G01*
X11424500Y-30228250D02*
X11424500Y-29715750D01*
G75*
G02*
X11643250Y-29497000I218750J0D01*
G01*
X12080750Y-29497000D01*
G75*
G02*
X12299500Y-29715750I0J-218750D01*
G01*
X12299500Y-30228250D01*
G75*
G02*
X12080750Y-30447000I-218750J0D01*
G01*
X11643250Y-30447000D01*
G75*
G02*
X11424500Y-30228250I0J218750D01*
G01*
G37*
G36*
G01*
X9849500Y-30228250D02*
X9849500Y-29715750D01*
G75*
G02*
X10068250Y-29497000I218750J0D01*
G01*
X10505750Y-29497000D01*
G75*
G02*
X10724500Y-29715750I0J-218750D01*
G01*
X10724500Y-30228250D01*
G75*
G02*
X10505750Y-30447000I-218750J0D01*
G01*
X10068250Y-30447000D01*
G75*
G02*
X9849500Y-30228250I0J218750D01*
G01*
G37*
G36*
G01*
X11424500Y-28640750D02*
X11424500Y-28128250D01*
G75*
G02*
X11643250Y-27909500I218750J0D01*
G01*
X12080750Y-27909500D01*
G75*
G02*
X12299500Y-28128250I0J-218750D01*
G01*
X12299500Y-28640750D01*
G75*
G02*
X12080750Y-28859500I-218750J0D01*
G01*
X11643250Y-28859500D01*
G75*
G02*
X11424500Y-28640750I0J218750D01*
G01*
G37*
G36*
G01*
X9849500Y-28640750D02*
X9849500Y-28128250D01*
G75*
G02*
X10068250Y-27909500I218750J0D01*
G01*
X10505750Y-27909500D01*
G75*
G02*
X10724500Y-28128250I0J-218750D01*
G01*
X10724500Y-28640750D01*
G75*
G02*
X10505750Y-28859500I-218750J0D01*
G01*
X10068250Y-28859500D01*
G75*
G02*
X9849500Y-28640750I0J218750D01*
G01*
G37*
G36*
G01*
X15806000Y-62105250D02*
X15806000Y-61592750D01*
G75*
G02*
X16024750Y-61374000I218750J0D01*
G01*
X16462250Y-61374000D01*
G75*
G02*
X16681000Y-61592750I0J-218750D01*
G01*
X16681000Y-62105250D01*
G75*
G02*
X16462250Y-62324000I-218750J0D01*
G01*
X16024750Y-62324000D01*
G75*
G02*
X15806000Y-62105250I0J218750D01*
G01*
G37*
G36*
G01*
X14231000Y-62105250D02*
X14231000Y-61592750D01*
G75*
G02*
X14449750Y-61374000I218750J0D01*
G01*
X14887250Y-61374000D01*
G75*
G02*
X15106000Y-61592750I0J-218750D01*
G01*
X15106000Y-62105250D01*
G75*
G02*
X14887250Y-62324000I-218750J0D01*
G01*
X14449750Y-62324000D01*
G75*
G02*
X14231000Y-62105250I0J218750D01*
G01*
G37*
G36*
G01*
X21241500Y-38927750D02*
X21241500Y-38415250D01*
G75*
G02*
X21460250Y-38196500I218750J0D01*
G01*
X21897750Y-38196500D01*
G75*
G02*
X22116500Y-38415250I0J-218750D01*
G01*
X22116500Y-38927750D01*
G75*
G02*
X21897750Y-39146500I-218750J0D01*
G01*
X21460250Y-39146500D01*
G75*
G02*
X21241500Y-38927750I0J218750D01*
G01*
G37*
G36*
G01*
X19666500Y-38927750D02*
X19666500Y-38415250D01*
G75*
G02*
X19885250Y-38196500I218750J0D01*
G01*
X20322750Y-38196500D01*
G75*
G02*
X20541500Y-38415250I0J-218750D01*
G01*
X20541500Y-38927750D01*
G75*
G02*
X20322750Y-39146500I-218750J0D01*
G01*
X19885250Y-39146500D01*
G75*
G02*
X19666500Y-38927750I0J218750D01*
G01*
G37*
G36*
G01*
X15296500Y-33398750D02*
X15296500Y-33911250D01*
G75*
G02*
X15077750Y-34130000I-218750J0D01*
G01*
X14640250Y-34130000D01*
G75*
G02*
X14421500Y-33911250I0J218750D01*
G01*
X14421500Y-33398750D01*
G75*
G02*
X14640250Y-33180000I218750J0D01*
G01*
X15077750Y-33180000D01*
G75*
G02*
X15296500Y-33398750I0J-218750D01*
G01*
G37*
G36*
G01*
X16871500Y-33398750D02*
X16871500Y-33911250D01*
G75*
G02*
X16652750Y-34130000I-218750J0D01*
G01*
X16215250Y-34130000D01*
G75*
G02*
X15996500Y-33911250I0J218750D01*
G01*
X15996500Y-33398750D01*
G75*
G02*
X16215250Y-33180000I218750J0D01*
G01*
X16652750Y-33180000D01*
G75*
G02*
X16871500Y-33398750I0J-218750D01*
G01*
G37*
G36*
G01*
X20541500Y-36827750D02*
X20541500Y-37340250D01*
G75*
G02*
X20322750Y-37559000I-218750J0D01*
G01*
X19885250Y-37559000D01*
G75*
G02*
X19666500Y-37340250I0J218750D01*
G01*
X19666500Y-36827750D01*
G75*
G02*
X19885250Y-36609000I218750J0D01*
G01*
X20322750Y-36609000D01*
G75*
G02*
X20541500Y-36827750I0J-218750D01*
G01*
G37*
G36*
G01*
X22116500Y-36827750D02*
X22116500Y-37340250D01*
G75*
G02*
X21897750Y-37559000I-218750J0D01*
G01*
X21460250Y-37559000D01*
G75*
G02*
X21241500Y-37340250I0J218750D01*
G01*
X21241500Y-36827750D01*
G75*
G02*
X21460250Y-36609000I218750J0D01*
G01*
X21897750Y-36609000D01*
G75*
G02*
X22116500Y-36827750I0J-218750D01*
G01*
G37*
G36*
G01*
X13975500Y-47686250D02*
X13975500Y-48198750D01*
G75*
G02*
X13756750Y-48417500I-218750J0D01*
G01*
X13319250Y-48417500D01*
G75*
G02*
X13100500Y-48198750I0J218750D01*
G01*
X13100500Y-47686250D01*
G75*
G02*
X13319250Y-47467500I218750J0D01*
G01*
X13756750Y-47467500D01*
G75*
G02*
X13975500Y-47686250I0J-218750D01*
G01*
G37*
G36*
G01*
X15550500Y-47686250D02*
X15550500Y-48198750D01*
G75*
G02*
X15331750Y-48417500I-218750J0D01*
G01*
X14894250Y-48417500D01*
G75*
G02*
X14675500Y-48198750I0J218750D01*
G01*
X14675500Y-47686250D01*
G75*
G02*
X14894250Y-47467500I218750J0D01*
G01*
X15331750Y-47467500D01*
G75*
G02*
X15550500Y-47686250I0J-218750D01*
G01*
G37*
G36*
G01*
X8603500Y-57909750D02*
X8603500Y-58422250D01*
G75*
G02*
X8384750Y-58641000I-218750J0D01*
G01*
X7947250Y-58641000D01*
G75*
G02*
X7728500Y-58422250I0J218750D01*
G01*
X7728500Y-57909750D01*
G75*
G02*
X7947250Y-57691000I218750J0D01*
G01*
X8384750Y-57691000D01*
G75*
G02*
X8603500Y-57909750I0J-218750D01*
G01*
G37*
G36*
G01*
X10178500Y-57909750D02*
X10178500Y-58422250D01*
G75*
G02*
X9959750Y-58641000I-218750J0D01*
G01*
X9522250Y-58641000D01*
G75*
G02*
X9303500Y-58422250I0J218750D01*
G01*
X9303500Y-57909750D01*
G75*
G02*
X9522250Y-57691000I218750J0D01*
G01*
X9959750Y-57691000D01*
G75*
G02*
X10178500Y-57909750I0J-218750D01*
G01*
G37*
G36*
G01*
X9303500Y-60009750D02*
X9303500Y-59497250D01*
G75*
G02*
X9522250Y-59278500I218750J0D01*
G01*
X9959750Y-59278500D01*
G75*
G02*
X10178500Y-59497250I0J-218750D01*
G01*
X10178500Y-60009750D01*
G75*
G02*
X9959750Y-60228500I-218750J0D01*
G01*
X9522250Y-60228500D01*
G75*
G02*
X9303500Y-60009750I0J218750D01*
G01*
G37*
G36*
G01*
X7728500Y-60009750D02*
X7728500Y-59497250D01*
G75*
G02*
X7947250Y-59278500I218750J0D01*
G01*
X8384750Y-59278500D01*
G75*
G02*
X8603500Y-59497250I0J-218750D01*
G01*
X8603500Y-60009750D01*
G75*
G02*
X8384750Y-60228500I-218750J0D01*
G01*
X7947250Y-60228500D01*
G75*
G02*
X7728500Y-60009750I0J218750D01*
G01*
G37*
G36*
G01*
X16642500Y-26985250D02*
X16642500Y-27497750D01*
G75*
G02*
X16423750Y-27716500I-218750J0D01*
G01*
X15986250Y-27716500D01*
G75*
G02*
X15767500Y-27497750I0J218750D01*
G01*
X15767500Y-26985250D01*
G75*
G02*
X15986250Y-26766500I218750J0D01*
G01*
X16423750Y-26766500D01*
G75*
G02*
X16642500Y-26985250I0J-218750D01*
G01*
G37*
G36*
G01*
X18217500Y-26985250D02*
X18217500Y-27497750D01*
G75*
G02*
X17998750Y-27716500I-218750J0D01*
G01*
X17561250Y-27716500D01*
G75*
G02*
X17342500Y-27497750I0J218750D01*
G01*
X17342500Y-26985250D01*
G75*
G02*
X17561250Y-26766500I218750J0D01*
G01*
X17998750Y-26766500D01*
G75*
G02*
X18217500Y-26985250I0J-218750D01*
G01*
G37*
G36*
G01*
X15869500Y-67121750D02*
X15869500Y-66609250D01*
G75*
G02*
X16088250Y-66390500I218750J0D01*
G01*
X16525750Y-66390500D01*
G75*
G02*
X16744500Y-66609250I0J-218750D01*
G01*
X16744500Y-67121750D01*
G75*
G02*
X16525750Y-67340500I-218750J0D01*
G01*
X16088250Y-67340500D01*
G75*
G02*
X15869500Y-67121750I0J218750D01*
G01*
G37*
G36*
G01*
X14294500Y-67121750D02*
X14294500Y-66609250D01*
G75*
G02*
X14513250Y-66390500I218750J0D01*
G01*
X14950750Y-66390500D01*
G75*
G02*
X15169500Y-66609250I0J-218750D01*
G01*
X15169500Y-67121750D01*
G75*
G02*
X14950750Y-67340500I-218750J0D01*
G01*
X14513250Y-67340500D01*
G75*
G02*
X14294500Y-67121750I0J218750D01*
G01*
G37*
G36*
G01*
X23972000Y-78031050D02*
X23972000Y-77518550D01*
G75*
G02*
X24190750Y-77299800I218750J0D01*
G01*
X24628250Y-77299800D01*
G75*
G02*
X24847000Y-77518550I0J-218750D01*
G01*
X24847000Y-78031050D01*
G75*
G02*
X24628250Y-78249800I-218750J0D01*
G01*
X24190750Y-78249800D01*
G75*
G02*
X23972000Y-78031050I0J218750D01*
G01*
G37*
G36*
G01*
X22397000Y-78031050D02*
X22397000Y-77518550D01*
G75*
G02*
X22615750Y-77299800I218750J0D01*
G01*
X23053250Y-77299800D01*
G75*
G02*
X23272000Y-77518550I0J-218750D01*
G01*
X23272000Y-78031050D01*
G75*
G02*
X23053250Y-78249800I-218750J0D01*
G01*
X22615750Y-78249800D01*
G75*
G02*
X22397000Y-78031050I0J218750D01*
G01*
G37*
G36*
G01*
X23272000Y-72743350D02*
X23272000Y-73255850D01*
G75*
G02*
X23053250Y-73474600I-218750J0D01*
G01*
X22615750Y-73474600D01*
G75*
G02*
X22397000Y-73255850I0J218750D01*
G01*
X22397000Y-72743350D01*
G75*
G02*
X22615750Y-72524600I218750J0D01*
G01*
X23053250Y-72524600D01*
G75*
G02*
X23272000Y-72743350I0J-218750D01*
G01*
G37*
G36*
G01*
X24847000Y-72743350D02*
X24847000Y-73255850D01*
G75*
G02*
X24628250Y-73474600I-218750J0D01*
G01*
X24190750Y-73474600D01*
G75*
G02*
X23972000Y-73255850I0J218750D01*
G01*
X23972000Y-72743350D01*
G75*
G02*
X24190750Y-72524600I218750J0D01*
G01*
X24628250Y-72524600D01*
G75*
G02*
X24847000Y-72743350I0J-218750D01*
G01*
G37*
G36*
G01*
X9492500Y-68704750D02*
X9492500Y-69217250D01*
G75*
G02*
X9273750Y-69436000I-218750J0D01*
G01*
X8836250Y-69436000D01*
G75*
G02*
X8617500Y-69217250I0J218750D01*
G01*
X8617500Y-68704750D01*
G75*
G02*
X8836250Y-68486000I218750J0D01*
G01*
X9273750Y-68486000D01*
G75*
G02*
X9492500Y-68704750I0J-218750D01*
G01*
G37*
G36*
G01*
X11067500Y-68704750D02*
X11067500Y-69217250D01*
G75*
G02*
X10848750Y-69436000I-218750J0D01*
G01*
X10411250Y-69436000D01*
G75*
G02*
X10192500Y-69217250I0J218750D01*
G01*
X10192500Y-68704750D01*
G75*
G02*
X10411250Y-68486000I218750J0D01*
G01*
X10848750Y-68486000D01*
G75*
G02*
X11067500Y-68704750I0J-218750D01*
G01*
G37*
G36*
G01*
X10192500Y-72392250D02*
X10192500Y-71879750D01*
G75*
G02*
X10411250Y-71661000I218750J0D01*
G01*
X10848750Y-71661000D01*
G75*
G02*
X11067500Y-71879750I0J-218750D01*
G01*
X11067500Y-72392250D01*
G75*
G02*
X10848750Y-72611000I-218750J0D01*
G01*
X10411250Y-72611000D01*
G75*
G02*
X10192500Y-72392250I0J218750D01*
G01*
G37*
G36*
G01*
X8617500Y-72392250D02*
X8617500Y-71879750D01*
G75*
G02*
X8836250Y-71661000I218750J0D01*
G01*
X9273750Y-71661000D01*
G75*
G02*
X9492500Y-71879750I0J-218750D01*
G01*
X9492500Y-72392250D01*
G75*
G02*
X9273750Y-72611000I-218750J0D01*
G01*
X8836250Y-72611000D01*
G75*
G02*
X8617500Y-72392250I0J218750D01*
G01*
G37*
G36*
G01*
X11729000Y-73967050D02*
X11729000Y-73454550D01*
G75*
G02*
X11947750Y-73235800I218750J0D01*
G01*
X12385250Y-73235800D01*
G75*
G02*
X12604000Y-73454550I0J-218750D01*
G01*
X12604000Y-73967050D01*
G75*
G02*
X12385250Y-74185800I-218750J0D01*
G01*
X11947750Y-74185800D01*
G75*
G02*
X11729000Y-73967050I0J218750D01*
G01*
G37*
G36*
G01*
X13304000Y-73967050D02*
X13304000Y-73454550D01*
G75*
G02*
X13522750Y-73235800I218750J0D01*
G01*
X13960250Y-73235800D01*
G75*
G02*
X14179000Y-73454550I0J-218750D01*
G01*
X14179000Y-73967050D01*
G75*
G02*
X13960250Y-74185800I-218750J0D01*
G01*
X13522750Y-74185800D01*
G75*
G02*
X13304000Y-73967050I0J218750D01*
G01*
G37*
G36*
G01*
X20935200Y-66583850D02*
X20935200Y-67096350D01*
G75*
G02*
X20716450Y-67315100I-218750J0D01*
G01*
X20278950Y-67315100D01*
G75*
G02*
X20060200Y-67096350I0J218750D01*
G01*
X20060200Y-66583850D01*
G75*
G02*
X20278950Y-66365100I218750J0D01*
G01*
X20716450Y-66365100D01*
G75*
G02*
X20935200Y-66583850I0J-218750D01*
G01*
G37*
G36*
G01*
X22510200Y-66583850D02*
X22510200Y-67096350D01*
G75*
G02*
X22291450Y-67315100I-218750J0D01*
G01*
X21853950Y-67315100D01*
G75*
G02*
X21635200Y-67096350I0J218750D01*
G01*
X21635200Y-66583850D01*
G75*
G02*
X21853950Y-66365100I218750J0D01*
G01*
X22291450Y-66365100D01*
G75*
G02*
X22510200Y-66583850I0J-218750D01*
G01*
G37*
G36*
G01*
X10192500Y-73979750D02*
X10192500Y-73467250D01*
G75*
G02*
X10411250Y-73248500I218750J0D01*
G01*
X10848750Y-73248500D01*
G75*
G02*
X11067500Y-73467250I0J-218750D01*
G01*
X11067500Y-73979750D01*
G75*
G02*
X10848750Y-74198500I-218750J0D01*
G01*
X10411250Y-74198500D01*
G75*
G02*
X10192500Y-73979750I0J218750D01*
G01*
G37*
G36*
G01*
X8617500Y-73979750D02*
X8617500Y-73467250D01*
G75*
G02*
X8836250Y-73248500I218750J0D01*
G01*
X9273750Y-73248500D01*
G75*
G02*
X9492500Y-73467250I0J-218750D01*
G01*
X9492500Y-73979750D01*
G75*
G02*
X9273750Y-74198500I-218750J0D01*
G01*
X8836250Y-74198500D01*
G75*
G02*
X8617500Y-73979750I0J218750D01*
G01*
G37*
G36*
G01*
X13304000Y-75541850D02*
X13304000Y-75029350D01*
G75*
G02*
X13522750Y-74810600I218750J0D01*
G01*
X13960250Y-74810600D01*
G75*
G02*
X14179000Y-75029350I0J-218750D01*
G01*
X14179000Y-75541850D01*
G75*
G02*
X13960250Y-75760600I-218750J0D01*
G01*
X13522750Y-75760600D01*
G75*
G02*
X13304000Y-75541850I0J218750D01*
G01*
G37*
G36*
G01*
X11729000Y-75541850D02*
X11729000Y-75029350D01*
G75*
G02*
X11947750Y-74810600I218750J0D01*
G01*
X12385250Y-74810600D01*
G75*
G02*
X12604000Y-75029350I0J-218750D01*
G01*
X12604000Y-75541850D01*
G75*
G02*
X12385250Y-75760600I-218750J0D01*
G01*
X11947750Y-75760600D01*
G75*
G02*
X11729000Y-75541850I0J218750D01*
G01*
G37*
G36*
G01*
X13975500Y-49273750D02*
X13975500Y-49786250D01*
G75*
G02*
X13756750Y-50005000I-218750J0D01*
G01*
X13319250Y-50005000D01*
G75*
G02*
X13100500Y-49786250I0J218750D01*
G01*
X13100500Y-49273750D01*
G75*
G02*
X13319250Y-49055000I218750J0D01*
G01*
X13756750Y-49055000D01*
G75*
G02*
X13975500Y-49273750I0J-218750D01*
G01*
G37*
G36*
G01*
X15550500Y-49273750D02*
X15550500Y-49786250D01*
G75*
G02*
X15331750Y-50005000I-218750J0D01*
G01*
X14894250Y-50005000D01*
G75*
G02*
X14675500Y-49786250I0J218750D01*
G01*
X14675500Y-49273750D01*
G75*
G02*
X14894250Y-49055000I218750J0D01*
G01*
X15331750Y-49055000D01*
G75*
G02*
X15550500Y-49273750I0J-218750D01*
G01*
G37*
G36*
G01*
X14663000Y-51373750D02*
X14663000Y-50861250D01*
G75*
G02*
X14881750Y-50642500I218750J0D01*
G01*
X15319250Y-50642500D01*
G75*
G02*
X15538000Y-50861250I0J-218750D01*
G01*
X15538000Y-51373750D01*
G75*
G02*
X15319250Y-51592500I-218750J0D01*
G01*
X14881750Y-51592500D01*
G75*
G02*
X14663000Y-51373750I0J218750D01*
G01*
G37*
G36*
G01*
X13088000Y-51373750D02*
X13088000Y-50861250D01*
G75*
G02*
X13306750Y-50642500I218750J0D01*
G01*
X13744250Y-50642500D01*
G75*
G02*
X13963000Y-50861250I0J-218750D01*
G01*
X13963000Y-51373750D01*
G75*
G02*
X13744250Y-51592500I-218750J0D01*
G01*
X13306750Y-51592500D01*
G75*
G02*
X13088000Y-51373750I0J218750D01*
G01*
G37*
G36*
G01*
X3714000Y-57909750D02*
X3714000Y-58422250D01*
G75*
G02*
X3495250Y-58641000I-218750J0D01*
G01*
X3057750Y-58641000D01*
G75*
G02*
X2839000Y-58422250I0J218750D01*
G01*
X2839000Y-57909750D01*
G75*
G02*
X3057750Y-57691000I218750J0D01*
G01*
X3495250Y-57691000D01*
G75*
G02*
X3714000Y-57909750I0J-218750D01*
G01*
G37*
G36*
G01*
X5289000Y-57909750D02*
X5289000Y-58422250D01*
G75*
G02*
X5070250Y-58641000I-218750J0D01*
G01*
X4632750Y-58641000D01*
G75*
G02*
X4414000Y-58422250I0J218750D01*
G01*
X4414000Y-57909750D01*
G75*
G02*
X4632750Y-57691000I218750J0D01*
G01*
X5070250Y-57691000D01*
G75*
G02*
X5289000Y-57909750I0J-218750D01*
G01*
G37*
G36*
G01*
X10192500Y-75541850D02*
X10192500Y-75029350D01*
G75*
G02*
X10411250Y-74810600I218750J0D01*
G01*
X10848750Y-74810600D01*
G75*
G02*
X11067500Y-75029350I0J-218750D01*
G01*
X11067500Y-75541850D01*
G75*
G02*
X10848750Y-75760600I-218750J0D01*
G01*
X10411250Y-75760600D01*
G75*
G02*
X10192500Y-75541850I0J218750D01*
G01*
G37*
G36*
G01*
X8617500Y-75541850D02*
X8617500Y-75029350D01*
G75*
G02*
X8836250Y-74810600I218750J0D01*
G01*
X9273750Y-74810600D01*
G75*
G02*
X9492500Y-75029350I0J-218750D01*
G01*
X9492500Y-75541850D01*
G75*
G02*
X9273750Y-75760600I-218750J0D01*
G01*
X8836250Y-75760600D01*
G75*
G02*
X8617500Y-75541850I0J218750D01*
G01*
G37*
G36*
G01*
X20935200Y-65009050D02*
X20935200Y-65521550D01*
G75*
G02*
X20716450Y-65740300I-218750J0D01*
G01*
X20278950Y-65740300D01*
G75*
G02*
X20060200Y-65521550I0J218750D01*
G01*
X20060200Y-65009050D01*
G75*
G02*
X20278950Y-64790300I218750J0D01*
G01*
X20716450Y-64790300D01*
G75*
G02*
X20935200Y-65009050I0J-218750D01*
G01*
G37*
G36*
G01*
X22510200Y-65009050D02*
X22510200Y-65521550D01*
G75*
G02*
X22291450Y-65740300I-218750J0D01*
G01*
X21853950Y-65740300D01*
G75*
G02*
X21635200Y-65521550I0J218750D01*
G01*
X21635200Y-65009050D01*
G75*
G02*
X21853950Y-64790300I218750J0D01*
G01*
X22291450Y-64790300D01*
G75*
G02*
X22510200Y-65009050I0J-218750D01*
G01*
G37*
G36*
G01*
X10192500Y-70804750D02*
X10192500Y-70292250D01*
G75*
G02*
X10411250Y-70073500I218750J0D01*
G01*
X10848750Y-70073500D01*
G75*
G02*
X11067500Y-70292250I0J-218750D01*
G01*
X11067500Y-70804750D01*
G75*
G02*
X10848750Y-71023500I-218750J0D01*
G01*
X10411250Y-71023500D01*
G75*
G02*
X10192500Y-70804750I0J218750D01*
G01*
G37*
G36*
G01*
X8617500Y-70804750D02*
X8617500Y-70292250D01*
G75*
G02*
X8836250Y-70073500I218750J0D01*
G01*
X9273750Y-70073500D01*
G75*
G02*
X9492500Y-70292250I0J-218750D01*
G01*
X9492500Y-70804750D01*
G75*
G02*
X9273750Y-71023500I-218750J0D01*
G01*
X8836250Y-71023500D01*
G75*
G02*
X8617500Y-70804750I0J218750D01*
G01*
G37*
G36*
G01*
X11500500Y-117985250D02*
X11500500Y-117472750D01*
G75*
G02*
X11719250Y-117254000I218750J0D01*
G01*
X12156750Y-117254000D01*
G75*
G02*
X12375500Y-117472750I0J-218750D01*
G01*
X12375500Y-117985250D01*
G75*
G02*
X12156750Y-118204000I-218750J0D01*
G01*
X11719250Y-118204000D01*
G75*
G02*
X11500500Y-117985250I0J218750D01*
G01*
G37*
G36*
G01*
X9925500Y-117985250D02*
X9925500Y-117472750D01*
G75*
G02*
X10144250Y-117254000I218750J0D01*
G01*
X10581750Y-117254000D01*
G75*
G02*
X10800500Y-117472750I0J-218750D01*
G01*
X10800500Y-117985250D01*
G75*
G02*
X10581750Y-118204000I-218750J0D01*
G01*
X10144250Y-118204000D01*
G75*
G02*
X9925500Y-117985250I0J218750D01*
G01*
G37*
G36*
G01*
X11500500Y-107825250D02*
X11500500Y-107312750D01*
G75*
G02*
X11719250Y-107094000I218750J0D01*
G01*
X12156750Y-107094000D01*
G75*
G02*
X12375500Y-107312750I0J-218750D01*
G01*
X12375500Y-107825250D01*
G75*
G02*
X12156750Y-108044000I-218750J0D01*
G01*
X11719250Y-108044000D01*
G75*
G02*
X11500500Y-107825250I0J218750D01*
G01*
G37*
G36*
G01*
X9925500Y-107825250D02*
X9925500Y-107312750D01*
G75*
G02*
X10144250Y-107094000I218750J0D01*
G01*
X10581750Y-107094000D01*
G75*
G02*
X10800500Y-107312750I0J-218750D01*
G01*
X10800500Y-107825250D01*
G75*
G02*
X10581750Y-108044000I-218750J0D01*
G01*
X10144250Y-108044000D01*
G75*
G02*
X9925500Y-107825250I0J218750D01*
G01*
G37*
G36*
G01*
X14866000Y-95696750D02*
X14866000Y-95184250D01*
G75*
G02*
X15084750Y-94965500I218750J0D01*
G01*
X15522250Y-94965500D01*
G75*
G02*
X15741000Y-95184250I0J-218750D01*
G01*
X15741000Y-95696750D01*
G75*
G02*
X15522250Y-95915500I-218750J0D01*
G01*
X15084750Y-95915500D01*
G75*
G02*
X14866000Y-95696750I0J218750D01*
G01*
G37*
G36*
G01*
X13291000Y-95696750D02*
X13291000Y-95184250D01*
G75*
G02*
X13509750Y-94965500I218750J0D01*
G01*
X13947250Y-94965500D01*
G75*
G02*
X14166000Y-95184250I0J-218750D01*
G01*
X14166000Y-95696750D01*
G75*
G02*
X13947250Y-95915500I-218750J0D01*
G01*
X13509750Y-95915500D01*
G75*
G02*
X13291000Y-95696750I0J218750D01*
G01*
G37*
G36*
G01*
X26350250Y-115412000D02*
X26862750Y-115412000D01*
G75*
G02*
X27081500Y-115630750I0J-218750D01*
G01*
X27081500Y-116068250D01*
G75*
G02*
X26862750Y-116287000I-218750J0D01*
G01*
X26350250Y-116287000D01*
G75*
G02*
X26131500Y-116068250I0J218750D01*
G01*
X26131500Y-115630750D01*
G75*
G02*
X26350250Y-115412000I218750J0D01*
G01*
G37*
G36*
G01*
X26350250Y-113837000D02*
X26862750Y-113837000D01*
G75*
G02*
X27081500Y-114055750I0J-218750D01*
G01*
X27081500Y-114493250D01*
G75*
G02*
X26862750Y-114712000I-218750J0D01*
G01*
X26350250Y-114712000D01*
G75*
G02*
X26131500Y-114493250I0J218750D01*
G01*
X26131500Y-114055750D01*
G75*
G02*
X26350250Y-113837000I218750J0D01*
G01*
G37*
G36*
G01*
X28767750Y-107536500D02*
X28255250Y-107536500D01*
G75*
G02*
X28036500Y-107317750I0J218750D01*
G01*
X28036500Y-106880250D01*
G75*
G02*
X28255250Y-106661500I218750J0D01*
G01*
X28767750Y-106661500D01*
G75*
G02*
X28986500Y-106880250I0J-218750D01*
G01*
X28986500Y-107317750D01*
G75*
G02*
X28767750Y-107536500I-218750J0D01*
G01*
G37*
G36*
G01*
X28767750Y-109111500D02*
X28255250Y-109111500D01*
G75*
G02*
X28036500Y-108892750I0J218750D01*
G01*
X28036500Y-108455250D01*
G75*
G02*
X28255250Y-108236500I218750J0D01*
G01*
X28767750Y-108236500D01*
G75*
G02*
X28986500Y-108455250I0J-218750D01*
G01*
X28986500Y-108892750D01*
G75*
G02*
X28767750Y-109111500I-218750J0D01*
G01*
G37*
G36*
G01*
X27874250Y-92107500D02*
X28386750Y-92107500D01*
G75*
G02*
X28605500Y-92326250I0J-218750D01*
G01*
X28605500Y-92763750D01*
G75*
G02*
X28386750Y-92982500I-218750J0D01*
G01*
X27874250Y-92982500D01*
G75*
G02*
X27655500Y-92763750I0J218750D01*
G01*
X27655500Y-92326250D01*
G75*
G02*
X27874250Y-92107500I218750J0D01*
G01*
G37*
G36*
G01*
X27874250Y-90532500D02*
X28386750Y-90532500D01*
G75*
G02*
X28605500Y-90751250I0J-218750D01*
G01*
X28605500Y-91188750D01*
G75*
G02*
X28386750Y-91407500I-218750J0D01*
G01*
X27874250Y-91407500D01*
G75*
G02*
X27655500Y-91188750I0J218750D01*
G01*
X27655500Y-90751250D01*
G75*
G02*
X27874250Y-90532500I218750J0D01*
G01*
G37*
G36*
G01*
X28386750Y-87153000D02*
X27874250Y-87153000D01*
G75*
G02*
X27655500Y-86934250I0J218750D01*
G01*
X27655500Y-86496750D01*
G75*
G02*
X27874250Y-86278000I218750J0D01*
G01*
X28386750Y-86278000D01*
G75*
G02*
X28605500Y-86496750I0J-218750D01*
G01*
X28605500Y-86934250D01*
G75*
G02*
X28386750Y-87153000I-218750J0D01*
G01*
G37*
G36*
G01*
X28386750Y-88728000D02*
X27874250Y-88728000D01*
G75*
G02*
X27655500Y-88509250I0J218750D01*
G01*
X27655500Y-88071750D01*
G75*
G02*
X27874250Y-87853000I218750J0D01*
G01*
X28386750Y-87853000D01*
G75*
G02*
X28605500Y-88071750I0J-218750D01*
G01*
X28605500Y-88509250D01*
G75*
G02*
X28386750Y-88728000I-218750J0D01*
G01*
G37*
G36*
G01*
X3499500Y-79440750D02*
X3499500Y-78928250D01*
G75*
G02*
X3718250Y-78709500I218750J0D01*
G01*
X4155750Y-78709500D01*
G75*
G02*
X4374500Y-78928250I0J-218750D01*
G01*
X4374500Y-79440750D01*
G75*
G02*
X4155750Y-79659500I-218750J0D01*
G01*
X3718250Y-79659500D01*
G75*
G02*
X3499500Y-79440750I0J218750D01*
G01*
G37*
G36*
G01*
X1924500Y-79440750D02*
X1924500Y-78928250D01*
G75*
G02*
X2143250Y-78709500I218750J0D01*
G01*
X2580750Y-78709500D01*
G75*
G02*
X2799500Y-78928250I0J-218750D01*
G01*
X2799500Y-79440750D01*
G75*
G02*
X2580750Y-79659500I-218750J0D01*
G01*
X2143250Y-79659500D01*
G75*
G02*
X1924500Y-79440750I0J218750D01*
G01*
G37*
G36*
G01*
X1924500Y-77853250D02*
X1924500Y-77340750D01*
G75*
G02*
X2143250Y-77122000I218750J0D01*
G01*
X2580750Y-77122000D01*
G75*
G02*
X2799500Y-77340750I0J-218750D01*
G01*
X2799500Y-77853250D01*
G75*
G02*
X2580750Y-78072000I-218750J0D01*
G01*
X2143250Y-78072000D01*
G75*
G02*
X1924500Y-77853250I0J218750D01*
G01*
G37*
G36*
G01*
X3499500Y-77853250D02*
X3499500Y-77340750D01*
G75*
G02*
X3718250Y-77122000I218750J0D01*
G01*
X4155750Y-77122000D01*
G75*
G02*
X4374500Y-77340750I0J-218750D01*
G01*
X4374500Y-77853250D01*
G75*
G02*
X4155750Y-78072000I-218750J0D01*
G01*
X3718250Y-78072000D01*
G75*
G02*
X3499500Y-77853250I0J218750D01*
G01*
G37*
G36*
G01*
X3753500Y-101348250D02*
X3753500Y-100835750D01*
G75*
G02*
X3972250Y-100617000I218750J0D01*
G01*
X4409750Y-100617000D01*
G75*
G02*
X4628500Y-100835750I0J-218750D01*
G01*
X4628500Y-101348250D01*
G75*
G02*
X4409750Y-101567000I-218750J0D01*
G01*
X3972250Y-101567000D01*
G75*
G02*
X3753500Y-101348250I0J218750D01*
G01*
G37*
G36*
G01*
X2178500Y-101348250D02*
X2178500Y-100835750D01*
G75*
G02*
X2397250Y-100617000I218750J0D01*
G01*
X2834750Y-100617000D01*
G75*
G02*
X3053500Y-100835750I0J-218750D01*
G01*
X3053500Y-101348250D01*
G75*
G02*
X2834750Y-101567000I-218750J0D01*
G01*
X2397250Y-101567000D01*
G75*
G02*
X2178500Y-101348250I0J218750D01*
G01*
G37*
G36*
G01*
X2178500Y-102999250D02*
X2178500Y-102486750D01*
G75*
G02*
X2397250Y-102268000I218750J0D01*
G01*
X2834750Y-102268000D01*
G75*
G02*
X3053500Y-102486750I0J-218750D01*
G01*
X3053500Y-102999250D01*
G75*
G02*
X2834750Y-103218000I-218750J0D01*
G01*
X2397250Y-103218000D01*
G75*
G02*
X2178500Y-102999250I0J218750D01*
G01*
G37*
G36*
G01*
X3753500Y-102999250D02*
X3753500Y-102486750D01*
G75*
G02*
X3972250Y-102268000I218750J0D01*
G01*
X4409750Y-102268000D01*
G75*
G02*
X4628500Y-102486750I0J-218750D01*
G01*
X4628500Y-102999250D01*
G75*
G02*
X4409750Y-103218000I-218750J0D01*
G01*
X3972250Y-103218000D01*
G75*
G02*
X3753500Y-102999250I0J218750D01*
G01*
G37*
G36*
G01*
X2178500Y-99697250D02*
X2178500Y-99184750D01*
G75*
G02*
X2397250Y-98966000I218750J0D01*
G01*
X2834750Y-98966000D01*
G75*
G02*
X3053500Y-99184750I0J-218750D01*
G01*
X3053500Y-99697250D01*
G75*
G02*
X2834750Y-99916000I-218750J0D01*
G01*
X2397250Y-99916000D01*
G75*
G02*
X2178500Y-99697250I0J218750D01*
G01*
G37*
G36*
G01*
X3753500Y-99697250D02*
X3753500Y-99184750D01*
G75*
G02*
X3972250Y-98966000I218750J0D01*
G01*
X4409750Y-98966000D01*
G75*
G02*
X4628500Y-99184750I0J-218750D01*
G01*
X4628500Y-99697250D01*
G75*
G02*
X4409750Y-99916000I-218750J0D01*
G01*
X3972250Y-99916000D01*
G75*
G02*
X3753500Y-99697250I0J218750D01*
G01*
G37*
G36*
G01*
X14891500Y-89346750D02*
X14891500Y-88834250D01*
G75*
G02*
X15110250Y-88615500I218750J0D01*
G01*
X15547750Y-88615500D01*
G75*
G02*
X15766500Y-88834250I0J-218750D01*
G01*
X15766500Y-89346750D01*
G75*
G02*
X15547750Y-89565500I-218750J0D01*
G01*
X15110250Y-89565500D01*
G75*
G02*
X14891500Y-89346750I0J218750D01*
G01*
G37*
G36*
G01*
X13316500Y-89346750D02*
X13316500Y-88834250D01*
G75*
G02*
X13535250Y-88615500I218750J0D01*
G01*
X13972750Y-88615500D01*
G75*
G02*
X14191500Y-88834250I0J-218750D01*
G01*
X14191500Y-89346750D01*
G75*
G02*
X13972750Y-89565500I-218750J0D01*
G01*
X13535250Y-89565500D01*
G75*
G02*
X13316500Y-89346750I0J218750D01*
G01*
G37*
G36*
G01*
X12262500Y-21401750D02*
X12262500Y-20889250D01*
G75*
G02*
X12481250Y-20670500I218750J0D01*
G01*
X12918750Y-20670500D01*
G75*
G02*
X13137500Y-20889250I0J-218750D01*
G01*
X13137500Y-21401750D01*
G75*
G02*
X12918750Y-21620500I-218750J0D01*
G01*
X12481250Y-21620500D01*
G75*
G02*
X12262500Y-21401750I0J218750D01*
G01*
G37*
G36*
G01*
X10687500Y-21401750D02*
X10687500Y-20889250D01*
G75*
G02*
X10906250Y-20670500I218750J0D01*
G01*
X11343750Y-20670500D01*
G75*
G02*
X11562500Y-20889250I0J-218750D01*
G01*
X11562500Y-21401750D01*
G75*
G02*
X11343750Y-21620500I-218750J0D01*
G01*
X10906250Y-21620500D01*
G75*
G02*
X10687500Y-21401750I0J218750D01*
G01*
G37*
G36*
G01*
X19755500Y-12702250D02*
X19755500Y-12189750D01*
G75*
G02*
X19974250Y-11971000I218750J0D01*
G01*
X20411750Y-11971000D01*
G75*
G02*
X20630500Y-12189750I0J-218750D01*
G01*
X20630500Y-12702250D01*
G75*
G02*
X20411750Y-12921000I-218750J0D01*
G01*
X19974250Y-12921000D01*
G75*
G02*
X19755500Y-12702250I0J218750D01*
G01*
G37*
G36*
G01*
X18180500Y-12702250D02*
X18180500Y-12189750D01*
G75*
G02*
X18399250Y-11971000I218750J0D01*
G01*
X18836750Y-11971000D01*
G75*
G02*
X19055500Y-12189750I0J-218750D01*
G01*
X19055500Y-12702250D01*
G75*
G02*
X18836750Y-12921000I-218750J0D01*
G01*
X18399250Y-12921000D01*
G75*
G02*
X18180500Y-12702250I0J218750D01*
G01*
G37*
X18830500Y-107587500D03*
X18830500Y-108237500D03*
X18830500Y-108887500D03*
X18830500Y-109537500D03*
X18830500Y-110187500D03*
X18830500Y-110837500D03*
X18830500Y-111487500D03*
X24730500Y-111487500D03*
X24730500Y-110837500D03*
X24730500Y-110187500D03*
X24730500Y-109537500D03*
X24730500Y-108887500D03*
X24730500Y-108237500D03*
X24730500Y-107587500D03*
D15*
X22121200Y-80975200D03*
D14*
X25371200Y-81975200D03*
X25371200Y-79975200D03*
D13*
X10668000Y-80287200D03*
D14*
X9668000Y-83537200D03*
X11668000Y-83537200D03*
G36*
G01*
X13294500Y-62825500D02*
X12994500Y-62825500D01*
G75*
G02*
X12844500Y-62675500I0J150000D01*
G01*
X12844500Y-61025500D01*
G75*
G02*
X12994500Y-60875500I150000J0D01*
G01*
X13294500Y-60875500D01*
G75*
G02*
X13444500Y-61025500I0J-150000D01*
G01*
X13444500Y-62675500D01*
G75*
G02*
X13294500Y-62825500I-150000J0D01*
G01*
G37*
G36*
G01*
X12024500Y-62825500D02*
X11724500Y-62825500D01*
G75*
G02*
X11574500Y-62675500I0J150000D01*
G01*
X11574500Y-61025500D01*
G75*
G02*
X11724500Y-60875500I150000J0D01*
G01*
X12024500Y-60875500D01*
G75*
G02*
X12174500Y-61025500I0J-150000D01*
G01*
X12174500Y-62675500D01*
G75*
G02*
X12024500Y-62825500I-150000J0D01*
G01*
G37*
G36*
G01*
X10754500Y-62825500D02*
X10454500Y-62825500D01*
G75*
G02*
X10304500Y-62675500I0J150000D01*
G01*
X10304500Y-61025500D01*
G75*
G02*
X10454500Y-60875500I150000J0D01*
G01*
X10754500Y-60875500D01*
G75*
G02*
X10904500Y-61025500I0J-150000D01*
G01*
X10904500Y-62675500D01*
G75*
G02*
X10754500Y-62825500I-150000J0D01*
G01*
G37*
G36*
G01*
X9484500Y-62825500D02*
X9184500Y-62825500D01*
G75*
G02*
X9034500Y-62675500I0J150000D01*
G01*
X9034500Y-61025500D01*
G75*
G02*
X9184500Y-60875500I150000J0D01*
G01*
X9484500Y-60875500D01*
G75*
G02*
X9634500Y-61025500I0J-150000D01*
G01*
X9634500Y-62675500D01*
G75*
G02*
X9484500Y-62825500I-150000J0D01*
G01*
G37*
G36*
G01*
X8214500Y-62825500D02*
X7914500Y-62825500D01*
G75*
G02*
X7764500Y-62675500I0J150000D01*
G01*
X7764500Y-61025500D01*
G75*
G02*
X7914500Y-60875500I150000J0D01*
G01*
X8214500Y-60875500D01*
G75*
G02*
X8364500Y-61025500I0J-150000D01*
G01*
X8364500Y-62675500D01*
G75*
G02*
X8214500Y-62825500I-150000J0D01*
G01*
G37*
G36*
G01*
X6944500Y-62825500D02*
X6644500Y-62825500D01*
G75*
G02*
X6494500Y-62675500I0J150000D01*
G01*
X6494500Y-61025500D01*
G75*
G02*
X6644500Y-60875500I150000J0D01*
G01*
X6944500Y-60875500D01*
G75*
G02*
X7094500Y-61025500I0J-150000D01*
G01*
X7094500Y-62675500D01*
G75*
G02*
X6944500Y-62825500I-150000J0D01*
G01*
G37*
G36*
G01*
X5674500Y-62825500D02*
X5374500Y-62825500D01*
G75*
G02*
X5224500Y-62675500I0J150000D01*
G01*
X5224500Y-61025500D01*
G75*
G02*
X5374500Y-60875500I150000J0D01*
G01*
X5674500Y-60875500D01*
G75*
G02*
X5824500Y-61025500I0J-150000D01*
G01*
X5824500Y-62675500D01*
G75*
G02*
X5674500Y-62825500I-150000J0D01*
G01*
G37*
G36*
G01*
X4404500Y-62825500D02*
X4104500Y-62825500D01*
G75*
G02*
X3954500Y-62675500I0J150000D01*
G01*
X3954500Y-61025500D01*
G75*
G02*
X4104500Y-60875500I150000J0D01*
G01*
X4404500Y-60875500D01*
G75*
G02*
X4554500Y-61025500I0J-150000D01*
G01*
X4554500Y-62675500D01*
G75*
G02*
X4404500Y-62825500I-150000J0D01*
G01*
G37*
G36*
G01*
X4404500Y-67775500D02*
X4104500Y-67775500D01*
G75*
G02*
X3954500Y-67625500I0J150000D01*
G01*
X3954500Y-65975500D01*
G75*
G02*
X4104500Y-65825500I150000J0D01*
G01*
X4404500Y-65825500D01*
G75*
G02*
X4554500Y-65975500I0J-150000D01*
G01*
X4554500Y-67625500D01*
G75*
G02*
X4404500Y-67775500I-150000J0D01*
G01*
G37*
G36*
G01*
X5674500Y-67775500D02*
X5374500Y-67775500D01*
G75*
G02*
X5224500Y-67625500I0J150000D01*
G01*
X5224500Y-65975500D01*
G75*
G02*
X5374500Y-65825500I150000J0D01*
G01*
X5674500Y-65825500D01*
G75*
G02*
X5824500Y-65975500I0J-150000D01*
G01*
X5824500Y-67625500D01*
G75*
G02*
X5674500Y-67775500I-150000J0D01*
G01*
G37*
G36*
G01*
X6944500Y-67775500D02*
X6644500Y-67775500D01*
G75*
G02*
X6494500Y-67625500I0J150000D01*
G01*
X6494500Y-65975500D01*
G75*
G02*
X6644500Y-65825500I150000J0D01*
G01*
X6944500Y-65825500D01*
G75*
G02*
X7094500Y-65975500I0J-150000D01*
G01*
X7094500Y-67625500D01*
G75*
G02*
X6944500Y-67775500I-150000J0D01*
G01*
G37*
G36*
G01*
X8214500Y-67775500D02*
X7914500Y-67775500D01*
G75*
G02*
X7764500Y-67625500I0J150000D01*
G01*
X7764500Y-65975500D01*
G75*
G02*
X7914500Y-65825500I150000J0D01*
G01*
X8214500Y-65825500D01*
G75*
G02*
X8364500Y-65975500I0J-150000D01*
G01*
X8364500Y-67625500D01*
G75*
G02*
X8214500Y-67775500I-150000J0D01*
G01*
G37*
G36*
G01*
X9484500Y-67775500D02*
X9184500Y-67775500D01*
G75*
G02*
X9034500Y-67625500I0J150000D01*
G01*
X9034500Y-65975500D01*
G75*
G02*
X9184500Y-65825500I150000J0D01*
G01*
X9484500Y-65825500D01*
G75*
G02*
X9634500Y-65975500I0J-150000D01*
G01*
X9634500Y-67625500D01*
G75*
G02*
X9484500Y-67775500I-150000J0D01*
G01*
G37*
G36*
G01*
X10754500Y-67775500D02*
X10454500Y-67775500D01*
G75*
G02*
X10304500Y-67625500I0J150000D01*
G01*
X10304500Y-65975500D01*
G75*
G02*
X10454500Y-65825500I150000J0D01*
G01*
X10754500Y-65825500D01*
G75*
G02*
X10904500Y-65975500I0J-150000D01*
G01*
X10904500Y-67625500D01*
G75*
G02*
X10754500Y-67775500I-150000J0D01*
G01*
G37*
G36*
G01*
X12024500Y-67775500D02*
X11724500Y-67775500D01*
G75*
G02*
X11574500Y-67625500I0J150000D01*
G01*
X11574500Y-65975500D01*
G75*
G02*
X11724500Y-65825500I150000J0D01*
G01*
X12024500Y-65825500D01*
G75*
G02*
X12174500Y-65975500I0J-150000D01*
G01*
X12174500Y-67625500D01*
G75*
G02*
X12024500Y-67775500I-150000J0D01*
G01*
G37*
G36*
G01*
X13294500Y-67775500D02*
X12994500Y-67775500D01*
G75*
G02*
X12844500Y-67625500I0J150000D01*
G01*
X12844500Y-65975500D01*
G75*
G02*
X12994500Y-65825500I150000J0D01*
G01*
X13294500Y-65825500D01*
G75*
G02*
X13444500Y-65975500I0J-150000D01*
G01*
X13444500Y-67625500D01*
G75*
G02*
X13294500Y-67775500I-150000J0D01*
G01*
G37*
D12*
X18830500Y-87267500D03*
X18830500Y-87917500D03*
X18830500Y-88567500D03*
X18830500Y-89217500D03*
X18830500Y-89867500D03*
X18830500Y-90517500D03*
X18830500Y-91167500D03*
X24730500Y-91167500D03*
X24730500Y-90517500D03*
X24730500Y-89867500D03*
X24730500Y-89217500D03*
X24730500Y-88567500D03*
X24730500Y-87917500D03*
X24730500Y-87267500D03*
D16*
X21018500Y-33544000D03*
X20068500Y-35544000D03*
X21968500Y-35544000D03*
D10*
X17560800Y-72837000D03*
X17560800Y-74737000D03*
X15560800Y-73787000D03*
X21304000Y-72837000D03*
X21304000Y-74737000D03*
X19304000Y-73787000D03*
G36*
G01*
X14690000Y-17042000D02*
X15790000Y-17042000D01*
G75*
G02*
X16040000Y-17292000I0J-250000D01*
G01*
X16040000Y-19792000D01*
G75*
G02*
X15790000Y-20042000I-250000J0D01*
G01*
X14690000Y-20042000D01*
G75*
G02*
X14440000Y-19792000I0J250000D01*
G01*
X14440000Y-17292000D01*
G75*
G02*
X14690000Y-17042000I250000J0D01*
G01*
G37*
G36*
G01*
X14690000Y-12642000D02*
X15790000Y-12642000D01*
G75*
G02*
X16040000Y-12892000I0J-250000D01*
G01*
X16040000Y-15392000D01*
G75*
G02*
X15790000Y-15642000I-250000J0D01*
G01*
X14690000Y-15642000D01*
G75*
G02*
X14440000Y-15392000I0J250000D01*
G01*
X14440000Y-12892000D01*
G75*
G02*
X14690000Y-12642000I250000J0D01*
G01*
G37*
G36*
G01*
X26966500Y-13631000D02*
X26966500Y-12531000D01*
G75*
G02*
X27216500Y-12281000I250000J0D01*
G01*
X29716500Y-12281000D01*
G75*
G02*
X29966500Y-12531000I0J-250000D01*
G01*
X29966500Y-13631000D01*
G75*
G02*
X29716500Y-13881000I-250000J0D01*
G01*
X27216500Y-13881000D01*
G75*
G02*
X26966500Y-13631000I0J250000D01*
G01*
G37*
G36*
G01*
X22566500Y-13631000D02*
X22566500Y-12531000D01*
G75*
G02*
X22816500Y-12281000I250000J0D01*
G01*
X25316500Y-12281000D01*
G75*
G02*
X25566500Y-12531000I0J-250000D01*
G01*
X25566500Y-13631000D01*
G75*
G02*
X25316500Y-13881000I-250000J0D01*
G01*
X22816500Y-13881000D01*
G75*
G02*
X22566500Y-13631000I0J250000D01*
G01*
G37*
M02*
