M48
; DRILL file {KiCad (5.1.6-0-10_14)} date Tuesday, November 24, 2020 at 01:57:31 AM
; FORMAT={-:-/ absolute / inch / decimal}
; #@! TF.CreationDate,2020-11-24T01:57:31-08:00
; #@! TF.GenerationSoftware,Kicad,Pcbnew,(5.1.6-0-10_14)
; #@! TF.FileFunction,Plated,1,2,PTH
FMAT,2
INCH
T1C0.0157
T2C0.0354
T3C0.0394
T4C0.0400
T5C0.0472
%
G90
G05
T1
X0.0246Y-3.295
X0.0246Y-1.2475
X0.035Y-0.425
X0.035Y-0.55
X0.035Y-0.675
X0.035Y-0.8
X0.035Y-0.925
X0.035Y-1.05
X0.035Y-1.175
X0.035Y-3.725
X0.035Y-3.8525
X0.035Y-3.975
X0.035Y-4.275
X0.035Y-4.4
X0.035Y-4.6875
X0.055Y-3.0025
X0.0725Y-3.45
X0.09Y-2.07
X0.1Y-2.4075
X0.1Y-2.6975
X0.102Y-2.94
X0.1025Y-2.2275
X0.1025Y-3.24
X0.11Y-1.565
X0.11Y-1.775
X0.1125Y-1.8975
X0.12Y-1.275
X0.12Y-1.975
X0.1275Y-3.3575
X0.1281Y-1.8375
X0.1575Y-0.425
X0.16Y-4.6875
X0.1675Y-2.535
X0.1875Y-3.255
X0.195Y-3.68
X0.21Y-1.4225
X0.2102Y-3.1923
X0.23Y-1.8375
X0.234Y-2.852
X0.2432Y-3.5047
X0.245Y-2.1375
X0.245Y-2.205
X0.2525Y-2.025
X0.27Y-3.3475
X0.2725Y-3.295
X0.285Y-4.6875
X0.2925Y-0.425
X0.3075Y-3.755
X0.3175Y-3.6125
X0.32Y-2.245
X0.3225Y-2.745
X0.3275Y-2.06
X0.3325Y-3.19
X0.3375Y-1.1475
X0.3375Y-1.4225
X0.3425Y-3.455
X0.3567Y-3.0079
X0.385Y-4.6875
X0.3875Y-3.7125
X0.3925Y-2.0357
X0.4075Y-4.29
X0.4225Y-3.455
X0.425Y-0.425
X0.425Y-3.385
X0.4275Y-1.705
X0.435Y-3.8875
X0.4425Y-3.95
X0.458Y-1.046
X0.4625Y-2.8375
X0.4675Y-2.54
X0.47Y-1.84
X0.4751Y-3.19
X0.4822Y-1.7302
X0.49Y-3.7125
X0.492Y-3.234
X0.5125Y-2.2775
X0.5225Y-2.135
X0.5251Y-3.066
X0.5325Y-2.501
X0.535Y-3.9075
X0.535Y-3.95
X0.54Y-3.6125
X0.55Y-0.425
X0.565Y-2.0925
X0.566Y-1.046
X0.5675Y-3.7125
X0.5726Y-2.9285
X0.5777Y-2.8553
X0.5925Y-1.8293
X0.5925Y-3.63
X0.595Y-4.015
X0.598Y-1.7304
X0.625Y-2.675
X0.63Y-4.3575
X0.6375Y-3.5325
X0.642Y-2.485
X0.6475Y-3.2025
X0.6475Y-3.2025
X0.66Y-2.2
X0.66Y-2.2775
X0.675Y-0.425
X0.6825Y-2.6575
X0.6875Y-1.8075
X0.692Y-2.902
X0.7Y-2.0425
X0.715Y-0.705
X0.715Y-0.8
X0.715Y-1.395
X0.725Y-2.4475
X0.725Y-2.525
X0.725Y-2.6575
X0.735Y-2.1
X0.75Y-2.858
X0.7615Y-2.6724
X0.7771Y-2.4721
X0.7925Y-4.2593
X0.795Y-0.425
X0.795Y-4.6875
X0.8075Y-3.515
X0.8325Y-1.825
X0.835Y-3.095
X0.8375Y-4.225
X0.8375Y-4.37
X0.844Y-1.222
X0.844Y-3.014
X0.8675Y-2.51
X0.876Y-2.826
X0.8825Y-4.2575
X0.885Y-4.0175
X0.8875Y-0.8
X0.8875Y-1.0161
X0.905Y-1.325
X0.9163Y-3.5637
X0.9175Y-4.3125
X0.9187Y-3.4613
X0.92Y-0.425
X0.92Y-4.6875
X0.9274Y-4.2624
X0.94Y-3.184
X0.942Y-1.396
X0.9425Y-1.11
X0.9906Y-1.815
X1.0075Y-1.3895
X1.01Y-2.35
X1.03Y-1.815
X1.03Y-1.936
X1.03Y-3.55
X1.0306Y-3.4631
X1.0325Y-3.9825
X1.034Y-1.292
X1.0375Y-2.5875
X1.045Y-0.425
X1.045Y-0.625
X1.045Y-1.7725
X1.045Y-4.6875
X1.0473Y-3.9431
X1.05Y-2.675
X1.06Y-1.97
X1.0701Y-2.01
X1.0789Y-1.1316
X1.105Y-3.9775
X1.1075Y-3.55
X1.1075Y-3.51
X1.12Y-4.3125
X1.1205Y-4.0137
X1.17Y-0.425
X1.17Y-0.625
X1.17Y-1.375
X1.17Y-1.525
X1.17Y-1.9
X1.17Y-2.05
X1.17Y-2.5
X1.17Y-2.65
X1.17Y-2.9275
X1.17Y-3.05
X1.17Y-3.1775
X1.17Y-3.45
X1.17Y-3.575
X1.17Y-3.85
X1.17Y-3.975
X1.17Y-4.275
X1.17Y-4.4
X1.17Y-4.6875
T2
X0.55Y-3.8334
X0.65Y-3.8334
X0.55Y-4.635
X0.65Y-4.635
X0.6Y-1.15
X0.6Y-1.25
X0.9975Y-0.765
X1.0975Y-0.765
X0.6Y-2.188
X0.6Y-2.288
X0.55Y-3.4326
X0.65Y-3.4326
X0.55Y-4.2342
X0.65Y-4.2342
T3
X0.2516Y-1.963
X0.35Y-1.963
X0.4484Y-1.963
X0.5016Y-0.9079
X0.6Y-0.9079
X0.6984Y-0.9079
X0.2516Y-3.0666
X0.35Y-3.0666
X0.4484Y-3.0666
X0.1516Y-3.837
X0.25Y-3.837
X0.3484Y-3.837
X0.8512Y-0.9165
X0.9496Y-0.9165
X1.048Y-0.9165
T4
X0.14Y-0.605
X0.14Y-0.705
X0.14Y-0.805
X0.14Y-0.905
X0.14Y-1.005
X0.24Y-0.605
X0.24Y-0.705
X0.24Y-0.805
X0.24Y-0.905
X0.24Y-1.005
T5
X0.6945Y-1.6677
X0.8165Y-1.6677
X1.1433Y-1.6677
X0.6945Y-2.7713
X0.8165Y-2.7713
X1.1433Y-2.7713
X0.6945Y-3.3283
X0.8165Y-3.3283
X1.1433Y-3.3283
X0.6945Y-4.5307
X0.8165Y-4.5307
X1.1433Y-4.5307
X0.9496Y-1.9831
X0.9496Y-2.1051
X0.9496Y-2.4319
X0.6945Y-3.7291
X0.8165Y-3.7291
X1.1433Y-3.7291
X0.0563Y-4.5307
X0.3831Y-4.5307
X0.5051Y-4.5307
X0.0563Y-4.1299
X0.3831Y-4.1299
X0.5051Y-4.1299
X0.6945Y-4.1299
X0.8165Y-4.1299
X1.1433Y-4.1299
T5
G00X0.161Y-2.789
M15
G01X0.161Y-2.7536
M16
G05
G00X0.539Y-2.789
M15
G01X0.539Y-2.7536
M16
G05
G00X0.061Y-3.5594
M15
G01X0.061Y-3.524
M16
G05
G00X0.439Y-3.5594
M15
G01X0.439Y-3.524
M16
G05
G00X0.7606Y-1.1941
M15
G01X0.7606Y-1.2295
M16
G05
G00X1.1386Y-1.1941
M15
G01X1.1386Y-1.2295
M16
G05
G00X0.161Y-1.6854
M15
G01X0.161Y-1.65
M16
G05
G00X0.539Y-1.6854
M15
G01X0.539Y-1.65
M16
G05
G00X0.411Y-0.6303
M15
G01X0.411Y-0.5949
M16
G05
G00X0.789Y-0.6303
M15
G01X0.789Y-0.5949
M16
G05
T0
M30
