M48
; DRILL file {KiCad (5.1.5)-3} date 2020-10-15 12:24:24 AM
; FORMAT={-:-/ absolute / metric / decimal}
; #@! TF.CreationDate,2020-10-15T00:24:24-07:00
; #@! TF.GenerationSoftware,Kicad,Pcbnew,(5.1.5)-3
; #@! TF.FileFunction,Plated,1,2,PTH
FMAT,2
METRIC
T1C0.400
T2C0.900
T3C1.000
T4C1.016
T5C1.100
T6C1.630
T7C1.780
T8C1.820
%
G90
G05
T1
X0.625Y-83.693
X0.625Y-31.686
X0.889Y-10.795
X0.889Y-13.97
X0.889Y-17.145
X0.889Y-20.32
X0.889Y-23.495
X0.889Y-26.67
X0.889Y-29.845
X0.889Y-94.615
X0.889Y-97.853
X0.889Y-100.965
X0.889Y-108.585
X0.889Y-111.76
X0.889Y-119.062
X1.397Y-76.263
X1.841Y-87.63
X2.286Y-52.578
X2.54Y-61.15
X2.54Y-68.516
X2.591Y-74.676
X2.603Y-56.578
X2.603Y-82.296
X2.794Y-39.751
X2.794Y-45.085
X2.857Y-48.197
X3.048Y-32.385
X3.048Y-50.165
X3.238Y-85.28
X3.254Y-46.672
X4.0Y-10.795
X4.064Y-119.062
X4.255Y-64.389
X4.763Y-82.677
X4.953Y-93.472
X5.334Y-36.131
X5.339Y-81.084
X5.842Y-46.672
X5.944Y-72.441
X6.177Y-89.018
X6.223Y-54.292
X6.223Y-56.007
X6.413Y-51.435
X6.858Y-85.026
X6.921Y-83.693
X7.239Y-119.062
X7.429Y-10.795
X7.81Y-95.377
X8.064Y-91.757
X8.128Y-57.023
X8.191Y-69.723
X8.319Y-52.324
X8.445Y-81.026
X8.572Y-29.146
X8.572Y-36.131
X8.699Y-87.757
X9.06Y-76.4
X9.779Y-119.062
X9.842Y-94.297
X9.97Y-51.708
X10.351Y-108.966
X10.731Y-87.757
X10.795Y-10.795
X10.795Y-85.979
X10.858Y-43.307
X11.049Y-98.742
X11.239Y-100.33
X11.747Y-72.072
X11.874Y-64.516
X11.938Y-46.736
X12.068Y-81.026
X12.249Y-43.948
X12.446Y-94.297
X12.497Y-82.144
X13.018Y-57.848
X13.272Y-54.229
X13.337Y-77.876
X13.36Y-26.568
X13.36Y-31.648
X13.525Y-63.526
X13.589Y-99.251
X13.589Y-100.33
X13.716Y-91.757
X13.97Y-10.795
X14.351Y-53.149
X14.414Y-94.297
X14.544Y-74.384
X14.672Y-72.524
X15.05Y-46.464
X15.05Y-92.202
X15.113Y-101.981
X15.189Y-43.952
X15.875Y-67.945
X16.002Y-110.68
X16.192Y-89.725
X16.307Y-63.119
X16.447Y-81.343
X16.447Y-81.343
X16.764Y-55.88
X16.764Y-57.848
X17.145Y-10.795
X17.336Y-67.501
X17.462Y-45.91
X17.577Y-73.711
X17.78Y-28.511
X17.78Y-51.88
X18.161Y-17.907
X18.161Y-20.32
X18.161Y-35.433
X18.415Y-62.166
X18.415Y-64.135
X18.415Y-67.501
X18.669Y-53.34
X19.05Y-72.593
X19.304Y-28.384
X19.341Y-67.878
X19.738Y-62.791
X20.13Y-108.186
X20.193Y-10.795
X20.193Y-119.062
X20.511Y-89.281
X21.146Y-46.355
X21.209Y-78.613
X21.272Y-107.315
X21.272Y-110.998
X21.438Y-76.556
X22.034Y-63.754
X22.25Y-71.78
X22.415Y-108.14
X22.479Y-102.044
X22.543Y-20.32
X22.543Y-25.808
X22.987Y-33.655
X23.274Y-90.517
X23.304Y-109.537
X23.334Y-87.917
X23.368Y-10.795
X23.368Y-119.062
X23.556Y-108.265
X23.876Y-80.874
X23.939Y-28.194
X24.447Y-35.433
X24.638Y-25.019
X24.698Y-27.051
X25.162Y-46.101
X25.527Y-35.623
X25.654Y-59.69
X26.095Y-34.036
X26.162Y-46.101
X26.162Y-49.174
X26.162Y-90.17
X26.178Y-87.963
X26.226Y-101.155
X26.352Y-65.722
X26.543Y-10.795
X26.543Y-15.875
X26.543Y-45.021
X26.543Y-119.062
X26.6Y-100.155
X26.67Y-67.945
X26.924Y-50.038
X27.181Y-51.054
X27.403Y-28.743
X28.067Y-101.028
X28.13Y-90.17
X28.13Y-89.154
X28.448Y-109.537
X28.461Y-101.948
X29.718Y-10.795
X29.718Y-15.875
X29.718Y-19.05
X29.718Y-22.225
X29.718Y-34.925
X29.718Y-38.735
X29.718Y-48.26
X29.718Y-52.07
X29.718Y-63.5
X29.718Y-67.31
X29.718Y-74.358
X29.718Y-77.47
X29.718Y-80.709
X29.718Y-87.63
X29.718Y-90.805
X29.718Y-97.79
X29.718Y-100.965
X29.718Y-108.585
X29.718Y-111.76
X29.718Y-119.062
T2
X15.24Y-29.21
X15.24Y-31.75
X25.336Y-19.431
X27.877Y-19.431
X13.97Y-97.369
X16.51Y-97.369
X13.97Y-107.549
X16.51Y-107.549
X13.97Y-117.729
X16.51Y-117.729
X13.97Y-87.189
X16.51Y-87.189
X15.24Y-55.575
X15.24Y-58.115
T3
X12.74Y-23.06
X15.24Y-23.06
X17.74Y-23.06
X3.85Y-97.46
X6.35Y-97.46
X8.85Y-97.46
X21.62Y-23.28
X24.12Y-23.28
X26.62Y-23.28
X6.39Y-77.89
X8.89Y-77.89
X11.39Y-77.89
X6.39Y-49.86
X8.89Y-49.86
X11.39Y-49.86
T4
X3.556Y-15.367
X3.556Y-17.907
X3.556Y-20.447
X3.556Y-22.987
X3.556Y-25.527
X6.096Y-15.367
X6.096Y-17.907
X6.096Y-20.447
X6.096Y-22.987
X6.096Y-25.527
T6
X12.83Y-115.08
X17.64Y-84.54
X17.64Y-94.72
X17.64Y-42.36
X17.64Y-70.39
X24.12Y-50.37
X12.83Y-104.9
X17.64Y-115.08
X17.64Y-104.9
T7
X29.04Y-115.08
X29.04Y-104.9
X1.43Y-115.08
X29.04Y-84.54
X29.04Y-94.72
X29.04Y-42.36
X29.04Y-70.39
X24.12Y-61.77
X1.43Y-104.9
T8
X20.74Y-84.54
X20.74Y-94.72
X20.74Y-42.36
X20.74Y-70.39
X24.12Y-53.47
X9.73Y-104.9
X20.74Y-115.08
X20.74Y-104.9
X9.73Y-115.08
T5
G00X10.44Y-15.91
M15
G01X10.44Y-15.21
M16
G05
G00X20.04Y-15.91
M15
G01X20.04Y-15.21
M16
G05
G00X1.55Y-90.31
M15
G01X1.55Y-89.61
M16
G05
G00X11.15Y-90.31
M15
G01X11.15Y-89.61
M16
G05
G00X19.32Y-30.43
M15
G01X19.32Y-31.13
M16
G05
G00X28.92Y-30.43
M15
G01X28.92Y-31.13
M16
G05
G00X4.09Y-70.74
M15
G01X4.09Y-70.04
M16
G05
G00X13.69Y-70.74
M15
G01X13.69Y-70.04
M16
G05
G00X4.09Y-42.71
M15
G01X4.09Y-42.01
M16
G05
G00X13.69Y-42.71
M15
G01X13.69Y-42.01
M16
G05
T0
M30
