G04 #@! TF.GenerationSoftware,KiCad,Pcbnew,(5.1.5)-3*
G04 #@! TF.CreationDate,2020-10-15T00:24:12-07:00*
G04 #@! TF.ProjectId,vcf-20,7663662d-3230-42e6-9b69-6361645f7063,rev?*
G04 #@! TF.SameCoordinates,Original*
G04 #@! TF.FileFunction,Soldermask,Top*
G04 #@! TF.FilePolarity,Negative*
%FSLAX46Y46*%
G04 Gerber Fmt 4.6, Leading zero omitted, Abs format (unit mm)*
G04 Created by KiCad (PCBNEW (5.1.5)-3) date 2020-10-15 00:24:12*
%MOMM*%
%LPD*%
G04 APERTURE LIST*
%ADD10C,0.100000*%
G04 APERTURE END LIST*
D10*
G36*
X16787395Y-116814546D02*
G01*
X16960466Y-116886234D01*
X16960467Y-116886235D01*
X17116227Y-116990310D01*
X17248690Y-117122773D01*
X17248691Y-117122775D01*
X17352766Y-117278534D01*
X17424454Y-117451605D01*
X17461000Y-117635333D01*
X17461000Y-117822667D01*
X17424454Y-118006395D01*
X17352766Y-118179466D01*
X17352765Y-118179467D01*
X17248690Y-118335227D01*
X17116227Y-118467690D01*
X17037818Y-118520081D01*
X16960466Y-118571766D01*
X16787395Y-118643454D01*
X16603667Y-118680000D01*
X16416333Y-118680000D01*
X16232605Y-118643454D01*
X16059534Y-118571766D01*
X15982182Y-118520081D01*
X15903773Y-118467690D01*
X15771310Y-118335227D01*
X15667235Y-118179467D01*
X15667234Y-118179466D01*
X15595546Y-118006395D01*
X15559000Y-117822667D01*
X15559000Y-117635333D01*
X15595546Y-117451605D01*
X15667234Y-117278534D01*
X15771309Y-117122775D01*
X15771310Y-117122773D01*
X15903773Y-116990310D01*
X16059533Y-116886235D01*
X16059534Y-116886234D01*
X16232605Y-116814546D01*
X16416333Y-116778000D01*
X16603667Y-116778000D01*
X16787395Y-116814546D01*
G37*
G36*
X14921000Y-118680000D02*
G01*
X13019000Y-118680000D01*
X13019000Y-116778000D01*
X14921000Y-116778000D01*
X14921000Y-118680000D01*
G37*
G36*
X24422585Y-113558802D02*
G01*
X24572410Y-113588604D01*
X24854674Y-113705521D01*
X25108705Y-113875259D01*
X25324741Y-114091295D01*
X25494479Y-114345326D01*
X25611396Y-114627590D01*
X25671000Y-114927240D01*
X25671000Y-115232760D01*
X25611396Y-115532410D01*
X25494479Y-115814674D01*
X25324741Y-116068705D01*
X25108705Y-116284741D01*
X24854674Y-116454479D01*
X24572410Y-116571396D01*
X24422585Y-116601198D01*
X24272761Y-116631000D01*
X23967239Y-116631000D01*
X23817415Y-116601198D01*
X23667590Y-116571396D01*
X23385326Y-116454479D01*
X23131295Y-116284741D01*
X22915259Y-116068705D01*
X22745521Y-115814674D01*
X22628604Y-115532410D01*
X22569000Y-115232760D01*
X22569000Y-114927240D01*
X22628604Y-114627590D01*
X22745521Y-114345326D01*
X22915259Y-114091295D01*
X23131295Y-113875259D01*
X23385326Y-113705521D01*
X23667590Y-113588604D01*
X23817415Y-113558802D01*
X23967239Y-113529000D01*
X24272761Y-113529000D01*
X24422585Y-113558802D01*
G37*
G36*
X6652585Y-113558802D02*
G01*
X6802410Y-113588604D01*
X7084674Y-113705521D01*
X7338705Y-113875259D01*
X7554741Y-114091295D01*
X7724479Y-114345326D01*
X7841396Y-114627590D01*
X7901000Y-114927240D01*
X7901000Y-115232760D01*
X7841396Y-115532410D01*
X7724479Y-115814674D01*
X7554741Y-116068705D01*
X7338705Y-116284741D01*
X7084674Y-116454479D01*
X6802410Y-116571396D01*
X6652585Y-116601198D01*
X6502761Y-116631000D01*
X6197239Y-116631000D01*
X6047415Y-116601198D01*
X5897590Y-116571396D01*
X5615326Y-116454479D01*
X5361295Y-116284741D01*
X5145259Y-116068705D01*
X4975521Y-115814674D01*
X4858604Y-115532410D01*
X4799000Y-115232760D01*
X4799000Y-114927240D01*
X4858604Y-114627590D01*
X4975521Y-114345326D01*
X5145259Y-114091295D01*
X5361295Y-113875259D01*
X5615326Y-113705521D01*
X5897590Y-113588604D01*
X6047415Y-113558802D01*
X6197239Y-113529000D01*
X6502761Y-113529000D01*
X6652585Y-113558802D01*
G37*
G36*
X10006248Y-113691208D02*
G01*
X10143032Y-113718416D01*
X10400727Y-113825157D01*
X10632647Y-113980121D01*
X10829879Y-114177353D01*
X10984843Y-114409273D01*
X11091584Y-114666968D01*
X11146000Y-114940536D01*
X11146000Y-115219464D01*
X11091584Y-115493032D01*
X10984843Y-115750727D01*
X10829879Y-115982647D01*
X10632647Y-116179879D01*
X10400727Y-116334843D01*
X10143032Y-116441584D01*
X10078204Y-116454479D01*
X9869465Y-116496000D01*
X9590535Y-116496000D01*
X9381796Y-116454479D01*
X9316968Y-116441584D01*
X9059273Y-116334843D01*
X8827353Y-116179879D01*
X8630121Y-115982647D01*
X8475157Y-115750727D01*
X8368416Y-115493032D01*
X8314000Y-115219464D01*
X8314000Y-114940536D01*
X8368416Y-114666968D01*
X8475157Y-114409273D01*
X8630121Y-114177353D01*
X8827353Y-113980121D01*
X9059273Y-113825157D01*
X9316968Y-113718416D01*
X9453752Y-113691208D01*
X9590535Y-113664000D01*
X9869465Y-113664000D01*
X10006248Y-113691208D01*
G37*
G36*
X21016248Y-113691208D02*
G01*
X21153032Y-113718416D01*
X21410727Y-113825157D01*
X21642647Y-113980121D01*
X21839879Y-114177353D01*
X21994843Y-114409273D01*
X22101584Y-114666968D01*
X22156000Y-114940536D01*
X22156000Y-115219464D01*
X22101584Y-115493032D01*
X21994843Y-115750727D01*
X21839879Y-115982647D01*
X21642647Y-116179879D01*
X21410727Y-116334843D01*
X21153032Y-116441584D01*
X21088204Y-116454479D01*
X20879465Y-116496000D01*
X20600535Y-116496000D01*
X20391796Y-116454479D01*
X20326968Y-116441584D01*
X20069273Y-116334843D01*
X19837353Y-116179879D01*
X19640121Y-115982647D01*
X19485157Y-115750727D01*
X19378416Y-115493032D01*
X19324000Y-115219464D01*
X19324000Y-114940536D01*
X19378416Y-114666968D01*
X19485157Y-114409273D01*
X19640121Y-114177353D01*
X19837353Y-113980121D01*
X20069273Y-113825157D01*
X20326968Y-113718416D01*
X20463752Y-113691208D01*
X20600535Y-113664000D01*
X20879465Y-113664000D01*
X21016248Y-113691208D01*
G37*
G36*
X1689257Y-113718416D02*
G01*
X1834281Y-113747263D01*
X1960399Y-113799503D01*
X2086518Y-113851743D01*
X2313521Y-114003421D01*
X2506579Y-114196479D01*
X2658257Y-114423482D01*
X2658257Y-114423483D01*
X2759113Y-114666969D01*
X2762737Y-114675720D01*
X2816000Y-114943490D01*
X2816000Y-115216510D01*
X2812767Y-115232761D01*
X2762737Y-115484281D01*
X2742801Y-115532410D01*
X2658257Y-115736518D01*
X2506579Y-115963521D01*
X2313521Y-116156579D01*
X2086518Y-116308257D01*
X2022333Y-116334843D01*
X1834281Y-116412737D01*
X1700395Y-116439369D01*
X1566510Y-116466000D01*
X1293490Y-116466000D01*
X1159605Y-116439369D01*
X1025719Y-116412737D01*
X837667Y-116334843D01*
X773482Y-116308257D01*
X546479Y-116156579D01*
X353421Y-115963521D01*
X201743Y-115736518D01*
X117199Y-115532410D01*
X97263Y-115484281D01*
X47233Y-115232761D01*
X44000Y-115216510D01*
X44000Y-114943490D01*
X97263Y-114675720D01*
X100888Y-114666969D01*
X201743Y-114423483D01*
X201743Y-114423482D01*
X353421Y-114196479D01*
X546479Y-114003421D01*
X773482Y-113851743D01*
X899601Y-113799503D01*
X1025719Y-113747263D01*
X1170743Y-113718416D01*
X1293490Y-113694000D01*
X1566510Y-113694000D01*
X1689257Y-113718416D01*
G37*
G36*
X29299257Y-113718416D02*
G01*
X29444281Y-113747263D01*
X29570399Y-113799503D01*
X29696518Y-113851743D01*
X29923521Y-114003421D01*
X30116579Y-114196479D01*
X30268257Y-114423482D01*
X30268257Y-114423483D01*
X30369113Y-114666969D01*
X30372737Y-114675720D01*
X30426000Y-114943490D01*
X30426000Y-115216510D01*
X30422767Y-115232761D01*
X30372737Y-115484281D01*
X30352801Y-115532410D01*
X30268257Y-115736518D01*
X30116579Y-115963521D01*
X29923521Y-116156579D01*
X29696518Y-116308257D01*
X29632333Y-116334843D01*
X29444281Y-116412737D01*
X29310395Y-116439369D01*
X29176510Y-116466000D01*
X28903490Y-116466000D01*
X28769605Y-116439369D01*
X28635719Y-116412737D01*
X28447667Y-116334843D01*
X28383482Y-116308257D01*
X28156479Y-116156579D01*
X27963421Y-115963521D01*
X27811743Y-115736518D01*
X27727199Y-115532410D01*
X27707263Y-115484281D01*
X27657233Y-115232761D01*
X27654000Y-115216510D01*
X27654000Y-114943490D01*
X27707263Y-114675720D01*
X27710888Y-114666969D01*
X27811743Y-114423483D01*
X27811743Y-114423482D01*
X27963421Y-114196479D01*
X28156479Y-114003421D01*
X28383482Y-113851743D01*
X28509601Y-113799503D01*
X28635719Y-113747263D01*
X28780743Y-113718416D01*
X28903490Y-113694000D01*
X29176510Y-113694000D01*
X29299257Y-113718416D01*
G37*
G36*
X13201465Y-113855439D02*
G01*
X13433227Y-113951438D01*
X13433228Y-113951439D01*
X13641809Y-114090808D01*
X13819192Y-114268191D01*
X13819193Y-114268193D01*
X13958562Y-114476773D01*
X14054561Y-114708535D01*
X14103500Y-114954570D01*
X14103500Y-115205430D01*
X14054561Y-115451465D01*
X13958562Y-115683227D01*
X13913460Y-115750727D01*
X13819192Y-115891809D01*
X13641809Y-116069192D01*
X13536810Y-116139350D01*
X13433227Y-116208562D01*
X13201465Y-116304561D01*
X12955430Y-116353500D01*
X12704570Y-116353500D01*
X12458535Y-116304561D01*
X12226773Y-116208562D01*
X12123190Y-116139350D01*
X12018191Y-116069192D01*
X11840808Y-115891809D01*
X11746540Y-115750727D01*
X11701438Y-115683227D01*
X11605439Y-115451465D01*
X11556500Y-115205430D01*
X11556500Y-114954570D01*
X11605439Y-114708535D01*
X11701438Y-114476773D01*
X11840807Y-114268193D01*
X11840808Y-114268191D01*
X12018191Y-114090808D01*
X12226772Y-113951439D01*
X12226773Y-113951438D01*
X12458535Y-113855439D01*
X12704570Y-113806500D01*
X12955430Y-113806500D01*
X13201465Y-113855439D01*
G37*
G36*
X18011465Y-113855439D02*
G01*
X18243227Y-113951438D01*
X18243228Y-113951439D01*
X18451809Y-114090808D01*
X18629192Y-114268191D01*
X18629193Y-114268193D01*
X18768562Y-114476773D01*
X18864561Y-114708535D01*
X18913500Y-114954570D01*
X18913500Y-115205430D01*
X18864561Y-115451465D01*
X18768562Y-115683227D01*
X18723460Y-115750727D01*
X18629192Y-115891809D01*
X18451809Y-116069192D01*
X18346810Y-116139350D01*
X18243227Y-116208562D01*
X18011465Y-116304561D01*
X17765430Y-116353500D01*
X17514570Y-116353500D01*
X17268535Y-116304561D01*
X17036773Y-116208562D01*
X16933190Y-116139350D01*
X16828191Y-116069192D01*
X16650808Y-115891809D01*
X16556540Y-115750727D01*
X16511438Y-115683227D01*
X16415439Y-115451465D01*
X16366500Y-115205430D01*
X16366500Y-114954570D01*
X16415439Y-114708535D01*
X16511438Y-114476773D01*
X16650807Y-114268193D01*
X16650808Y-114268191D01*
X16828191Y-114090808D01*
X17036772Y-113951439D01*
X17036773Y-113951438D01*
X17268535Y-113855439D01*
X17514570Y-113806500D01*
X17765430Y-113806500D01*
X18011465Y-113855439D01*
G37*
G36*
X16787395Y-106634546D02*
G01*
X16960466Y-106706234D01*
X16960467Y-106706235D01*
X17116227Y-106810310D01*
X17248690Y-106942773D01*
X17248691Y-106942775D01*
X17352766Y-107098534D01*
X17424454Y-107271605D01*
X17461000Y-107455333D01*
X17461000Y-107642667D01*
X17424454Y-107826395D01*
X17352766Y-107999466D01*
X17352765Y-107999467D01*
X17248690Y-108155227D01*
X17116227Y-108287690D01*
X17037818Y-108340081D01*
X16960466Y-108391766D01*
X16787395Y-108463454D01*
X16603667Y-108500000D01*
X16416333Y-108500000D01*
X16232605Y-108463454D01*
X16059534Y-108391766D01*
X15982182Y-108340081D01*
X15903773Y-108287690D01*
X15771310Y-108155227D01*
X15667235Y-107999467D01*
X15667234Y-107999466D01*
X15595546Y-107826395D01*
X15559000Y-107642667D01*
X15559000Y-107455333D01*
X15595546Y-107271605D01*
X15667234Y-107098534D01*
X15771309Y-106942775D01*
X15771310Y-106942773D01*
X15903773Y-106810310D01*
X16059533Y-106706235D01*
X16059534Y-106706234D01*
X16232605Y-106634546D01*
X16416333Y-106598000D01*
X16603667Y-106598000D01*
X16787395Y-106634546D01*
G37*
G36*
X14921000Y-108500000D02*
G01*
X13019000Y-108500000D01*
X13019000Y-106598000D01*
X14921000Y-106598000D01*
X14921000Y-108500000D01*
G37*
G36*
X6652585Y-103378802D02*
G01*
X6802410Y-103408604D01*
X7084674Y-103525521D01*
X7338705Y-103695259D01*
X7554741Y-103911295D01*
X7724479Y-104165326D01*
X7841396Y-104447590D01*
X7901000Y-104747240D01*
X7901000Y-105052760D01*
X7841396Y-105352410D01*
X7724479Y-105634674D01*
X7554741Y-105888705D01*
X7338705Y-106104741D01*
X7084674Y-106274479D01*
X6802410Y-106391396D01*
X6652585Y-106421198D01*
X6502761Y-106451000D01*
X6197239Y-106451000D01*
X6047415Y-106421198D01*
X5897590Y-106391396D01*
X5615326Y-106274479D01*
X5361295Y-106104741D01*
X5145259Y-105888705D01*
X4975521Y-105634674D01*
X4858604Y-105352410D01*
X4799000Y-105052760D01*
X4799000Y-104747240D01*
X4858604Y-104447590D01*
X4975521Y-104165326D01*
X5145259Y-103911295D01*
X5361295Y-103695259D01*
X5615326Y-103525521D01*
X5897590Y-103408604D01*
X6047415Y-103378802D01*
X6197239Y-103349000D01*
X6502761Y-103349000D01*
X6652585Y-103378802D01*
G37*
G36*
X24422585Y-103378802D02*
G01*
X24572410Y-103408604D01*
X24854674Y-103525521D01*
X25108705Y-103695259D01*
X25324741Y-103911295D01*
X25494479Y-104165326D01*
X25611396Y-104447590D01*
X25671000Y-104747240D01*
X25671000Y-105052760D01*
X25611396Y-105352410D01*
X25494479Y-105634674D01*
X25324741Y-105888705D01*
X25108705Y-106104741D01*
X24854674Y-106274479D01*
X24572410Y-106391396D01*
X24422585Y-106421198D01*
X24272761Y-106451000D01*
X23967239Y-106451000D01*
X23817415Y-106421198D01*
X23667590Y-106391396D01*
X23385326Y-106274479D01*
X23131295Y-106104741D01*
X22915259Y-105888705D01*
X22745521Y-105634674D01*
X22628604Y-105352410D01*
X22569000Y-105052760D01*
X22569000Y-104747240D01*
X22628604Y-104447590D01*
X22745521Y-104165326D01*
X22915259Y-103911295D01*
X23131295Y-103695259D01*
X23385326Y-103525521D01*
X23667590Y-103408604D01*
X23817415Y-103378802D01*
X23967239Y-103349000D01*
X24272761Y-103349000D01*
X24422585Y-103378802D01*
G37*
G36*
X21016248Y-103511208D02*
G01*
X21153032Y-103538416D01*
X21410727Y-103645157D01*
X21642647Y-103800121D01*
X21839879Y-103997353D01*
X21994843Y-104229273D01*
X22101584Y-104486968D01*
X22156000Y-104760536D01*
X22156000Y-105039464D01*
X22101584Y-105313032D01*
X21994843Y-105570727D01*
X21839879Y-105802647D01*
X21642647Y-105999879D01*
X21410727Y-106154843D01*
X21153032Y-106261584D01*
X21088204Y-106274479D01*
X20879465Y-106316000D01*
X20600535Y-106316000D01*
X20391796Y-106274479D01*
X20326968Y-106261584D01*
X20069273Y-106154843D01*
X19837353Y-105999879D01*
X19640121Y-105802647D01*
X19485157Y-105570727D01*
X19378416Y-105313032D01*
X19324000Y-105039464D01*
X19324000Y-104760536D01*
X19378416Y-104486968D01*
X19485157Y-104229273D01*
X19640121Y-103997353D01*
X19837353Y-103800121D01*
X20069273Y-103645157D01*
X20326968Y-103538416D01*
X20463752Y-103511208D01*
X20600535Y-103484000D01*
X20879465Y-103484000D01*
X21016248Y-103511208D01*
G37*
G36*
X10006248Y-103511208D02*
G01*
X10143032Y-103538416D01*
X10400727Y-103645157D01*
X10632647Y-103800121D01*
X10829879Y-103997353D01*
X10984843Y-104229273D01*
X11091584Y-104486968D01*
X11146000Y-104760536D01*
X11146000Y-105039464D01*
X11091584Y-105313032D01*
X10984843Y-105570727D01*
X10829879Y-105802647D01*
X10632647Y-105999879D01*
X10400727Y-106154843D01*
X10143032Y-106261584D01*
X10078204Y-106274479D01*
X9869465Y-106316000D01*
X9590535Y-106316000D01*
X9381796Y-106274479D01*
X9316968Y-106261584D01*
X9059273Y-106154843D01*
X8827353Y-105999879D01*
X8630121Y-105802647D01*
X8475157Y-105570727D01*
X8368416Y-105313032D01*
X8314000Y-105039464D01*
X8314000Y-104760536D01*
X8368416Y-104486968D01*
X8475157Y-104229273D01*
X8630121Y-103997353D01*
X8827353Y-103800121D01*
X9059273Y-103645157D01*
X9316968Y-103538416D01*
X9453752Y-103511208D01*
X9590535Y-103484000D01*
X9869465Y-103484000D01*
X10006248Y-103511208D01*
G37*
G36*
X1689257Y-103538416D02*
G01*
X1834281Y-103567263D01*
X1960399Y-103619503D01*
X2086518Y-103671743D01*
X2313521Y-103823421D01*
X2506579Y-104016479D01*
X2658257Y-104243482D01*
X2658257Y-104243483D01*
X2759113Y-104486969D01*
X2762737Y-104495720D01*
X2816000Y-104763490D01*
X2816000Y-105036510D01*
X2812767Y-105052761D01*
X2762737Y-105304281D01*
X2742801Y-105352410D01*
X2658257Y-105556518D01*
X2506579Y-105783521D01*
X2313521Y-105976579D01*
X2086518Y-106128257D01*
X2022333Y-106154843D01*
X1834281Y-106232737D01*
X1700395Y-106259369D01*
X1566510Y-106286000D01*
X1293490Y-106286000D01*
X1159605Y-106259369D01*
X1025719Y-106232737D01*
X837667Y-106154843D01*
X773482Y-106128257D01*
X546479Y-105976579D01*
X353421Y-105783521D01*
X201743Y-105556518D01*
X117199Y-105352410D01*
X97263Y-105304281D01*
X47233Y-105052761D01*
X44000Y-105036510D01*
X44000Y-104763490D01*
X97263Y-104495720D01*
X100888Y-104486969D01*
X201743Y-104243483D01*
X201743Y-104243482D01*
X353421Y-104016479D01*
X546479Y-103823421D01*
X773482Y-103671743D01*
X899601Y-103619503D01*
X1025719Y-103567263D01*
X1170743Y-103538416D01*
X1293490Y-103514000D01*
X1566510Y-103514000D01*
X1689257Y-103538416D01*
G37*
G36*
X29299257Y-103538416D02*
G01*
X29444281Y-103567263D01*
X29570399Y-103619503D01*
X29696518Y-103671743D01*
X29923521Y-103823421D01*
X30116579Y-104016479D01*
X30268257Y-104243482D01*
X30268257Y-104243483D01*
X30369113Y-104486969D01*
X30372737Y-104495720D01*
X30426000Y-104763490D01*
X30426000Y-105036510D01*
X30422767Y-105052761D01*
X30372737Y-105304281D01*
X30352801Y-105352410D01*
X30268257Y-105556518D01*
X30116579Y-105783521D01*
X29923521Y-105976579D01*
X29696518Y-106128257D01*
X29632333Y-106154843D01*
X29444281Y-106232737D01*
X29310395Y-106259368D01*
X29176510Y-106286000D01*
X28903490Y-106286000D01*
X28769605Y-106259369D01*
X28635719Y-106232737D01*
X28447667Y-106154843D01*
X28383482Y-106128257D01*
X28156479Y-105976579D01*
X27963421Y-105783521D01*
X27811743Y-105556518D01*
X27727199Y-105352410D01*
X27707263Y-105304281D01*
X27657233Y-105052761D01*
X27654000Y-105036510D01*
X27654000Y-104763490D01*
X27707263Y-104495720D01*
X27710888Y-104486969D01*
X27811743Y-104243483D01*
X27811743Y-104243482D01*
X27963421Y-104016479D01*
X28156479Y-103823421D01*
X28383482Y-103671743D01*
X28509601Y-103619503D01*
X28635719Y-103567263D01*
X28780743Y-103538416D01*
X28903490Y-103514000D01*
X29176510Y-103514000D01*
X29299257Y-103538416D01*
G37*
G36*
X18011465Y-103675439D02*
G01*
X18243227Y-103771438D01*
X18243228Y-103771439D01*
X18451809Y-103910808D01*
X18629192Y-104088191D01*
X18629193Y-104088193D01*
X18768562Y-104296773D01*
X18864561Y-104528535D01*
X18913500Y-104774570D01*
X18913500Y-105025430D01*
X18864561Y-105271465D01*
X18768562Y-105503227D01*
X18723460Y-105570727D01*
X18629192Y-105711809D01*
X18451809Y-105889192D01*
X18346810Y-105959350D01*
X18243227Y-106028562D01*
X18011465Y-106124561D01*
X17765430Y-106173500D01*
X17514570Y-106173500D01*
X17268535Y-106124561D01*
X17036773Y-106028562D01*
X16933190Y-105959350D01*
X16828191Y-105889192D01*
X16650808Y-105711809D01*
X16556540Y-105570727D01*
X16511438Y-105503227D01*
X16415439Y-105271465D01*
X16366500Y-105025430D01*
X16366500Y-104774570D01*
X16415439Y-104528535D01*
X16511438Y-104296773D01*
X16650807Y-104088193D01*
X16650808Y-104088191D01*
X16828191Y-103910808D01*
X17036772Y-103771439D01*
X17036773Y-103771438D01*
X17268535Y-103675439D01*
X17514570Y-103626500D01*
X17765430Y-103626500D01*
X18011465Y-103675439D01*
G37*
G36*
X13201465Y-103675439D02*
G01*
X13433227Y-103771438D01*
X13433228Y-103771439D01*
X13641809Y-103910808D01*
X13819192Y-104088191D01*
X13819193Y-104088193D01*
X13958562Y-104296773D01*
X14054561Y-104528535D01*
X14103500Y-104774570D01*
X14103500Y-105025430D01*
X14054561Y-105271465D01*
X13958562Y-105503227D01*
X13913460Y-105570727D01*
X13819192Y-105711809D01*
X13641809Y-105889192D01*
X13536810Y-105959350D01*
X13433227Y-106028562D01*
X13201465Y-106124561D01*
X12955430Y-106173500D01*
X12704570Y-106173500D01*
X12458535Y-106124561D01*
X12226773Y-106028562D01*
X12123190Y-105959350D01*
X12018191Y-105889192D01*
X11840808Y-105711809D01*
X11746540Y-105570727D01*
X11701438Y-105503227D01*
X11605439Y-105271465D01*
X11556500Y-105025430D01*
X11556500Y-104774570D01*
X11605439Y-104528535D01*
X11701438Y-104296773D01*
X11840807Y-104088193D01*
X11840808Y-104088191D01*
X12018191Y-103910808D01*
X12226772Y-103771439D01*
X12226773Y-103771438D01*
X12458535Y-103675439D01*
X12704570Y-103626500D01*
X12955430Y-103626500D01*
X13201465Y-103675439D01*
G37*
G36*
X4801000Y-98411000D02*
G01*
X2899000Y-98411000D01*
X2899000Y-96509000D01*
X4801000Y-96509000D01*
X4801000Y-98411000D01*
G37*
G36*
X9127395Y-96545546D02*
G01*
X9300466Y-96617234D01*
X9377818Y-96668919D01*
X9456227Y-96721310D01*
X9588690Y-96853773D01*
X9588691Y-96853775D01*
X9692766Y-97009534D01*
X9764454Y-97182605D01*
X9801000Y-97366333D01*
X9801000Y-97553667D01*
X9764454Y-97737395D01*
X9692766Y-97910466D01*
X9692765Y-97910467D01*
X9588690Y-98066227D01*
X9456227Y-98198690D01*
X9436657Y-98211766D01*
X9300466Y-98302766D01*
X9127395Y-98374454D01*
X8943667Y-98411000D01*
X8756333Y-98411000D01*
X8572605Y-98374454D01*
X8399534Y-98302766D01*
X8263343Y-98211766D01*
X8243773Y-98198690D01*
X8111310Y-98066227D01*
X8007235Y-97910467D01*
X8007234Y-97910466D01*
X7935546Y-97737395D01*
X7899000Y-97553667D01*
X7899000Y-97366333D01*
X7935546Y-97182605D01*
X8007234Y-97009534D01*
X8111309Y-96853775D01*
X8111310Y-96853773D01*
X8243773Y-96721310D01*
X8322182Y-96668919D01*
X8399534Y-96617234D01*
X8572605Y-96545546D01*
X8756333Y-96509000D01*
X8943667Y-96509000D01*
X9127395Y-96545546D01*
G37*
G36*
X6627395Y-96545546D02*
G01*
X6800466Y-96617234D01*
X6877818Y-96668919D01*
X6956227Y-96721310D01*
X7088690Y-96853773D01*
X7088691Y-96853775D01*
X7192766Y-97009534D01*
X7264454Y-97182605D01*
X7301000Y-97366333D01*
X7301000Y-97553667D01*
X7264454Y-97737395D01*
X7192766Y-97910466D01*
X7192765Y-97910467D01*
X7088690Y-98066227D01*
X6956227Y-98198690D01*
X6936657Y-98211766D01*
X6800466Y-98302766D01*
X6627395Y-98374454D01*
X6443667Y-98411000D01*
X6256333Y-98411000D01*
X6072605Y-98374454D01*
X5899534Y-98302766D01*
X5763343Y-98211766D01*
X5743773Y-98198690D01*
X5611310Y-98066227D01*
X5507235Y-97910467D01*
X5507234Y-97910466D01*
X5435546Y-97737395D01*
X5399000Y-97553667D01*
X5399000Y-97366333D01*
X5435546Y-97182605D01*
X5507234Y-97009534D01*
X5611309Y-96853775D01*
X5611310Y-96853773D01*
X5743773Y-96721310D01*
X5822182Y-96668919D01*
X5899534Y-96617234D01*
X6072605Y-96545546D01*
X6256333Y-96509000D01*
X6443667Y-96509000D01*
X6627395Y-96545546D01*
G37*
G36*
X16787395Y-96454546D02*
G01*
X16960466Y-96526234D01*
X16960467Y-96526235D01*
X17116227Y-96630310D01*
X17248690Y-96762773D01*
X17248691Y-96762775D01*
X17352766Y-96918534D01*
X17424454Y-97091605D01*
X17461000Y-97275333D01*
X17461000Y-97462667D01*
X17424454Y-97646395D01*
X17352766Y-97819466D01*
X17352765Y-97819467D01*
X17248690Y-97975227D01*
X17116227Y-98107690D01*
X17037818Y-98160081D01*
X16960466Y-98211766D01*
X16787395Y-98283454D01*
X16603667Y-98320000D01*
X16416333Y-98320000D01*
X16232605Y-98283454D01*
X16059534Y-98211766D01*
X15982182Y-98160081D01*
X15903773Y-98107690D01*
X15771310Y-97975227D01*
X15667235Y-97819467D01*
X15667234Y-97819466D01*
X15595546Y-97646395D01*
X15559000Y-97462667D01*
X15559000Y-97275333D01*
X15595546Y-97091605D01*
X15667234Y-96918534D01*
X15771309Y-96762775D01*
X15771310Y-96762773D01*
X15903773Y-96630310D01*
X16059533Y-96526235D01*
X16059534Y-96526234D01*
X16232605Y-96454546D01*
X16416333Y-96418000D01*
X16603667Y-96418000D01*
X16787395Y-96454546D01*
G37*
G36*
X14921000Y-98320000D02*
G01*
X13019000Y-98320000D01*
X13019000Y-96418000D01*
X14921000Y-96418000D01*
X14921000Y-98320000D01*
G37*
G36*
X24422585Y-93198802D02*
G01*
X24572410Y-93228604D01*
X24854674Y-93345521D01*
X25108705Y-93515259D01*
X25324741Y-93731295D01*
X25494479Y-93985326D01*
X25611396Y-94267590D01*
X25671000Y-94567240D01*
X25671000Y-94872760D01*
X25611396Y-95172410D01*
X25494479Y-95454674D01*
X25324741Y-95708705D01*
X25108705Y-95924741D01*
X24854674Y-96094479D01*
X24572410Y-96211396D01*
X24422585Y-96241198D01*
X24272761Y-96271000D01*
X23967239Y-96271000D01*
X23817415Y-96241198D01*
X23667590Y-96211396D01*
X23385326Y-96094479D01*
X23131295Y-95924741D01*
X22915259Y-95708705D01*
X22745521Y-95454674D01*
X22628604Y-95172410D01*
X22569000Y-94872760D01*
X22569000Y-94567240D01*
X22628604Y-94267590D01*
X22745521Y-93985326D01*
X22915259Y-93731295D01*
X23131295Y-93515259D01*
X23385326Y-93345521D01*
X23667590Y-93228604D01*
X23817415Y-93198802D01*
X23967239Y-93169000D01*
X24272761Y-93169000D01*
X24422585Y-93198802D01*
G37*
G36*
X21016248Y-93331208D02*
G01*
X21153032Y-93358416D01*
X21410727Y-93465157D01*
X21642647Y-93620121D01*
X21839879Y-93817353D01*
X21994843Y-94049273D01*
X22101584Y-94306968D01*
X22156000Y-94580536D01*
X22156000Y-94859464D01*
X22101584Y-95133032D01*
X21994843Y-95390727D01*
X21839879Y-95622647D01*
X21642647Y-95819879D01*
X21410727Y-95974843D01*
X21153032Y-96081584D01*
X21088204Y-96094479D01*
X20879465Y-96136000D01*
X20600535Y-96136000D01*
X20391796Y-96094479D01*
X20326968Y-96081584D01*
X20069273Y-95974843D01*
X19837353Y-95819879D01*
X19640121Y-95622647D01*
X19485157Y-95390727D01*
X19378416Y-95133032D01*
X19324000Y-94859464D01*
X19324000Y-94580536D01*
X19378416Y-94306968D01*
X19485157Y-94049273D01*
X19640121Y-93817353D01*
X19837353Y-93620121D01*
X20069273Y-93465157D01*
X20326968Y-93358416D01*
X20463752Y-93331208D01*
X20600535Y-93304000D01*
X20879465Y-93304000D01*
X21016248Y-93331208D01*
G37*
G36*
X29299257Y-93358416D02*
G01*
X29444281Y-93387263D01*
X29570399Y-93439503D01*
X29696518Y-93491743D01*
X29923521Y-93643421D01*
X30116579Y-93836479D01*
X30268257Y-94063482D01*
X30268257Y-94063483D01*
X30369113Y-94306969D01*
X30372737Y-94315720D01*
X30426000Y-94583490D01*
X30426000Y-94856510D01*
X30422767Y-94872761D01*
X30372737Y-95124281D01*
X30352801Y-95172410D01*
X30268257Y-95376518D01*
X30116579Y-95603521D01*
X29923521Y-95796579D01*
X29696518Y-95948257D01*
X29632333Y-95974843D01*
X29444281Y-96052737D01*
X29310395Y-96079368D01*
X29176510Y-96106000D01*
X28903490Y-96106000D01*
X28769605Y-96079368D01*
X28635719Y-96052737D01*
X28447667Y-95974843D01*
X28383482Y-95948257D01*
X28156479Y-95796579D01*
X27963421Y-95603521D01*
X27811743Y-95376518D01*
X27727199Y-95172410D01*
X27707263Y-95124281D01*
X27657233Y-94872761D01*
X27654000Y-94856510D01*
X27654000Y-94583490D01*
X27707263Y-94315720D01*
X27710888Y-94306969D01*
X27811743Y-94063483D01*
X27811743Y-94063482D01*
X27963421Y-93836479D01*
X28156479Y-93643421D01*
X28383482Y-93491743D01*
X28509601Y-93439503D01*
X28635719Y-93387263D01*
X28780743Y-93358416D01*
X28903490Y-93334000D01*
X29176510Y-93334000D01*
X29299257Y-93358416D01*
G37*
G36*
X18011465Y-93495439D02*
G01*
X18243227Y-93591438D01*
X18243228Y-93591439D01*
X18451809Y-93730808D01*
X18629192Y-93908191D01*
X18629193Y-93908193D01*
X18768562Y-94116773D01*
X18864561Y-94348535D01*
X18913500Y-94594570D01*
X18913500Y-94845430D01*
X18864561Y-95091465D01*
X18768562Y-95323227D01*
X18723460Y-95390727D01*
X18629192Y-95531809D01*
X18451809Y-95709192D01*
X18346810Y-95779350D01*
X18243227Y-95848562D01*
X18011465Y-95944561D01*
X17765430Y-95993500D01*
X17514570Y-95993500D01*
X17268535Y-95944561D01*
X17036773Y-95848562D01*
X16933190Y-95779350D01*
X16828191Y-95709192D01*
X16650808Y-95531809D01*
X16556540Y-95390727D01*
X16511438Y-95323227D01*
X16415439Y-95091465D01*
X16366500Y-94845430D01*
X16366500Y-94594570D01*
X16415439Y-94348535D01*
X16511438Y-94116773D01*
X16650807Y-93908193D01*
X16650808Y-93908191D01*
X16828191Y-93730808D01*
X17036772Y-93591439D01*
X17036773Y-93591438D01*
X17268535Y-93495439D01*
X17514570Y-93446500D01*
X17765430Y-93446500D01*
X18011465Y-93495439D01*
G37*
G36*
X11426604Y-88309416D02*
G01*
X11692579Y-88390099D01*
X11692581Y-88390100D01*
X11937701Y-88521119D01*
X12152556Y-88697444D01*
X12328881Y-88912299D01*
X12459900Y-89157418D01*
X12459900Y-89157419D01*
X12459901Y-89157421D01*
X12540584Y-89423397D01*
X12561000Y-89630685D01*
X12561000Y-90289316D01*
X12540584Y-90496604D01*
X12459901Y-90762578D01*
X12459900Y-90762581D01*
X12328881Y-91007701D01*
X12152556Y-91222556D01*
X11937700Y-91398881D01*
X11692580Y-91529900D01*
X11692578Y-91529901D01*
X11426603Y-91610584D01*
X11150000Y-91637827D01*
X10873396Y-91610584D01*
X10607421Y-91529901D01*
X10607419Y-91529900D01*
X10362299Y-91398881D01*
X10147444Y-91222556D01*
X9971119Y-91007700D01*
X9840100Y-90762580D01*
X9840099Y-90762578D01*
X9759416Y-90496603D01*
X9739000Y-90289315D01*
X9739000Y-89630684D01*
X9759416Y-89423396D01*
X9840099Y-89157421D01*
X9971120Y-88912298D01*
X10147444Y-88697444D01*
X10362300Y-88521119D01*
X10607420Y-88390100D01*
X10607422Y-88390099D01*
X10873397Y-88309416D01*
X11150000Y-88282173D01*
X11426604Y-88309416D01*
G37*
G36*
X1826604Y-88309416D02*
G01*
X2092579Y-88390099D01*
X2092581Y-88390100D01*
X2337701Y-88521119D01*
X2552556Y-88697444D01*
X2728881Y-88912299D01*
X2859900Y-89157418D01*
X2859900Y-89157419D01*
X2859901Y-89157421D01*
X2940584Y-89423397D01*
X2961000Y-89630685D01*
X2961000Y-90289316D01*
X2940584Y-90496604D01*
X2859901Y-90762578D01*
X2859900Y-90762581D01*
X2728881Y-91007701D01*
X2552556Y-91222556D01*
X2337700Y-91398881D01*
X2092580Y-91529900D01*
X2092578Y-91529901D01*
X1826603Y-91610584D01*
X1550000Y-91637827D01*
X1273396Y-91610584D01*
X1007421Y-91529901D01*
X1007419Y-91529900D01*
X762299Y-91398881D01*
X547444Y-91222556D01*
X371119Y-91007700D01*
X240100Y-90762580D01*
X240099Y-90762578D01*
X159416Y-90496603D01*
X139000Y-90289315D01*
X139000Y-89630684D01*
X159416Y-89423396D01*
X240099Y-89157421D01*
X371120Y-88912298D01*
X547444Y-88697444D01*
X762300Y-88521119D01*
X1007420Y-88390100D01*
X1007422Y-88390099D01*
X1273397Y-88309416D01*
X1550000Y-88282173D01*
X1826604Y-88309416D01*
G37*
G36*
X14921000Y-88140000D02*
G01*
X13019000Y-88140000D01*
X13019000Y-86238000D01*
X14921000Y-86238000D01*
X14921000Y-88140000D01*
G37*
G36*
X16787395Y-86274546D02*
G01*
X16960466Y-86346234D01*
X16960467Y-86346235D01*
X17116227Y-86450310D01*
X17248690Y-86582773D01*
X17248691Y-86582775D01*
X17352766Y-86738534D01*
X17424454Y-86911605D01*
X17461000Y-87095333D01*
X17461000Y-87282667D01*
X17424454Y-87466395D01*
X17352766Y-87639466D01*
X17352765Y-87639467D01*
X17248690Y-87795227D01*
X17116227Y-87927690D01*
X17037818Y-87980081D01*
X16960466Y-88031766D01*
X16787395Y-88103454D01*
X16603667Y-88140000D01*
X16416333Y-88140000D01*
X16232605Y-88103454D01*
X16059534Y-88031766D01*
X15982182Y-87980081D01*
X15903773Y-87927690D01*
X15771310Y-87795227D01*
X15667235Y-87639467D01*
X15667234Y-87639466D01*
X15595546Y-87466395D01*
X15559000Y-87282667D01*
X15559000Y-87095333D01*
X15595546Y-86911605D01*
X15667234Y-86738534D01*
X15771309Y-86582775D01*
X15771310Y-86582773D01*
X15903773Y-86450310D01*
X16059533Y-86346235D01*
X16059534Y-86346234D01*
X16232605Y-86274546D01*
X16416333Y-86238000D01*
X16603667Y-86238000D01*
X16787395Y-86274546D01*
G37*
G36*
X24422585Y-83018802D02*
G01*
X24572410Y-83048604D01*
X24854674Y-83165521D01*
X25108705Y-83335259D01*
X25324741Y-83551295D01*
X25494479Y-83805326D01*
X25611396Y-84087590D01*
X25671000Y-84387240D01*
X25671000Y-84692760D01*
X25611396Y-84992410D01*
X25494479Y-85274674D01*
X25324741Y-85528705D01*
X25108705Y-85744741D01*
X24854674Y-85914479D01*
X24572410Y-86031396D01*
X24422585Y-86061198D01*
X24272761Y-86091000D01*
X23967239Y-86091000D01*
X23817415Y-86061198D01*
X23667590Y-86031396D01*
X23385326Y-85914479D01*
X23131295Y-85744741D01*
X22915259Y-85528705D01*
X22745521Y-85274674D01*
X22628604Y-84992410D01*
X22569000Y-84692760D01*
X22569000Y-84387240D01*
X22628604Y-84087590D01*
X22745521Y-83805326D01*
X22915259Y-83551295D01*
X23131295Y-83335259D01*
X23385326Y-83165521D01*
X23667590Y-83048604D01*
X23817415Y-83018802D01*
X23967239Y-82989000D01*
X24272761Y-82989000D01*
X24422585Y-83018802D01*
G37*
G36*
X21016248Y-83151208D02*
G01*
X21153032Y-83178416D01*
X21410727Y-83285157D01*
X21642647Y-83440121D01*
X21839879Y-83637353D01*
X21994843Y-83869273D01*
X22101584Y-84126968D01*
X22156000Y-84400536D01*
X22156000Y-84679464D01*
X22101584Y-84953032D01*
X21994843Y-85210727D01*
X21839879Y-85442647D01*
X21642647Y-85639879D01*
X21410727Y-85794843D01*
X21153032Y-85901584D01*
X21088204Y-85914479D01*
X20879465Y-85956000D01*
X20600535Y-85956000D01*
X20391796Y-85914479D01*
X20326968Y-85901584D01*
X20069273Y-85794843D01*
X19837353Y-85639879D01*
X19640121Y-85442647D01*
X19485157Y-85210727D01*
X19378416Y-84953032D01*
X19324000Y-84679464D01*
X19324000Y-84400536D01*
X19378416Y-84126968D01*
X19485157Y-83869273D01*
X19640121Y-83637353D01*
X19837353Y-83440121D01*
X20069273Y-83285157D01*
X20326968Y-83178416D01*
X20463752Y-83151208D01*
X20600535Y-83124000D01*
X20879465Y-83124000D01*
X21016248Y-83151208D01*
G37*
G36*
X29299257Y-83178416D02*
G01*
X29444281Y-83207263D01*
X29570399Y-83259503D01*
X29696518Y-83311743D01*
X29923521Y-83463421D01*
X30116579Y-83656479D01*
X30268257Y-83883482D01*
X30268257Y-83883483D01*
X30369113Y-84126969D01*
X30372737Y-84135720D01*
X30426000Y-84403490D01*
X30426000Y-84676510D01*
X30422767Y-84692761D01*
X30372737Y-84944281D01*
X30352801Y-84992410D01*
X30268257Y-85196518D01*
X30116579Y-85423521D01*
X29923521Y-85616579D01*
X29696518Y-85768257D01*
X29632333Y-85794843D01*
X29444281Y-85872737D01*
X29310395Y-85899369D01*
X29176510Y-85926000D01*
X28903490Y-85926000D01*
X28769605Y-85899369D01*
X28635719Y-85872737D01*
X28447667Y-85794843D01*
X28383482Y-85768257D01*
X28156479Y-85616579D01*
X27963421Y-85423521D01*
X27811743Y-85196518D01*
X27727199Y-84992410D01*
X27707263Y-84944281D01*
X27657233Y-84692761D01*
X27654000Y-84676510D01*
X27654000Y-84403490D01*
X27707263Y-84135720D01*
X27710888Y-84126969D01*
X27811743Y-83883483D01*
X27811743Y-83883482D01*
X27963421Y-83656479D01*
X28156479Y-83463421D01*
X28383482Y-83311743D01*
X28509601Y-83259503D01*
X28635719Y-83207263D01*
X28780743Y-83178416D01*
X28903490Y-83154000D01*
X29176510Y-83154000D01*
X29299257Y-83178416D01*
G37*
G36*
X18011465Y-83315439D02*
G01*
X18243227Y-83411438D01*
X18243228Y-83411439D01*
X18451809Y-83550808D01*
X18629192Y-83728191D01*
X18629193Y-83728193D01*
X18768562Y-83936773D01*
X18864561Y-84168535D01*
X18913500Y-84414570D01*
X18913500Y-84665430D01*
X18864561Y-84911465D01*
X18768562Y-85143227D01*
X18723460Y-85210727D01*
X18629192Y-85351809D01*
X18451809Y-85529192D01*
X18346810Y-85599350D01*
X18243227Y-85668562D01*
X18011465Y-85764561D01*
X17765430Y-85813500D01*
X17514570Y-85813500D01*
X17268535Y-85764561D01*
X17036773Y-85668562D01*
X16933190Y-85599350D01*
X16828191Y-85529192D01*
X16650808Y-85351809D01*
X16556540Y-85210727D01*
X16511438Y-85143227D01*
X16415439Y-84911465D01*
X16366500Y-84665430D01*
X16366500Y-84414570D01*
X16415439Y-84168535D01*
X16511438Y-83936773D01*
X16650807Y-83728193D01*
X16650808Y-83728191D01*
X16828191Y-83550808D01*
X17036772Y-83411439D01*
X17036773Y-83411438D01*
X17268535Y-83315439D01*
X17514570Y-83266500D01*
X17765430Y-83266500D01*
X18011465Y-83315439D01*
G37*
G36*
X11667395Y-76975946D02*
G01*
X11840466Y-77047634D01*
X11840467Y-77047635D01*
X11996227Y-77151710D01*
X12128690Y-77284173D01*
X12128691Y-77284175D01*
X12232766Y-77439934D01*
X12304454Y-77613005D01*
X12341000Y-77796733D01*
X12341000Y-77984067D01*
X12304454Y-78167795D01*
X12232766Y-78340866D01*
X12232765Y-78340867D01*
X12128690Y-78496627D01*
X11996227Y-78629090D01*
X11917818Y-78681481D01*
X11840466Y-78733166D01*
X11667395Y-78804854D01*
X11483667Y-78841400D01*
X11296333Y-78841400D01*
X11112605Y-78804854D01*
X10939534Y-78733166D01*
X10862182Y-78681481D01*
X10783773Y-78629090D01*
X10651310Y-78496627D01*
X10547235Y-78340867D01*
X10547234Y-78340866D01*
X10475546Y-78167795D01*
X10439000Y-77984067D01*
X10439000Y-77796733D01*
X10475546Y-77613005D01*
X10547234Y-77439934D01*
X10651309Y-77284175D01*
X10651310Y-77284173D01*
X10783773Y-77151710D01*
X10939533Y-77047635D01*
X10939534Y-77047634D01*
X11112605Y-76975946D01*
X11296333Y-76939400D01*
X11483667Y-76939400D01*
X11667395Y-76975946D01*
G37*
G36*
X9167395Y-76975946D02*
G01*
X9340466Y-77047634D01*
X9340467Y-77047635D01*
X9496227Y-77151710D01*
X9628690Y-77284173D01*
X9628691Y-77284175D01*
X9732766Y-77439934D01*
X9804454Y-77613005D01*
X9841000Y-77796733D01*
X9841000Y-77984067D01*
X9804454Y-78167795D01*
X9732766Y-78340866D01*
X9732765Y-78340867D01*
X9628690Y-78496627D01*
X9496227Y-78629090D01*
X9417818Y-78681481D01*
X9340466Y-78733166D01*
X9167395Y-78804854D01*
X8983667Y-78841400D01*
X8796333Y-78841400D01*
X8612605Y-78804854D01*
X8439534Y-78733166D01*
X8362182Y-78681481D01*
X8283773Y-78629090D01*
X8151310Y-78496627D01*
X8047235Y-78340867D01*
X8047234Y-78340866D01*
X7975546Y-78167795D01*
X7939000Y-77984067D01*
X7939000Y-77796733D01*
X7975546Y-77613005D01*
X8047234Y-77439934D01*
X8151309Y-77284175D01*
X8151310Y-77284173D01*
X8283773Y-77151710D01*
X8439533Y-77047635D01*
X8439534Y-77047634D01*
X8612605Y-76975946D01*
X8796333Y-76939400D01*
X8983667Y-76939400D01*
X9167395Y-76975946D01*
G37*
G36*
X7341000Y-78841400D02*
G01*
X5439000Y-78841400D01*
X5439000Y-76939400D01*
X7341000Y-76939400D01*
X7341000Y-78841400D01*
G37*
G36*
X4366604Y-68739816D02*
G01*
X4632579Y-68820499D01*
X4632581Y-68820500D01*
X4877701Y-68951519D01*
X5092556Y-69127844D01*
X5268881Y-69342699D01*
X5399900Y-69587818D01*
X5399900Y-69587819D01*
X5399901Y-69587821D01*
X5480584Y-69853797D01*
X5501000Y-70061085D01*
X5501000Y-70719716D01*
X5480584Y-70927004D01*
X5420621Y-71124674D01*
X5399900Y-71192981D01*
X5268881Y-71438101D01*
X5092556Y-71652956D01*
X4877700Y-71829281D01*
X4780199Y-71881396D01*
X4632578Y-71960301D01*
X4366603Y-72040984D01*
X4090000Y-72068227D01*
X3813396Y-72040984D01*
X3547421Y-71960301D01*
X3399800Y-71881396D01*
X3302299Y-71829281D01*
X3087444Y-71652956D01*
X2911119Y-71438100D01*
X2780100Y-71192980D01*
X2780099Y-71192978D01*
X2699416Y-70927003D01*
X2679000Y-70719715D01*
X2679000Y-70061084D01*
X2699416Y-69853796D01*
X2780099Y-69587821D01*
X2833800Y-69487353D01*
X2911119Y-69342699D01*
X3087444Y-69127844D01*
X3302300Y-68951519D01*
X3547420Y-68820500D01*
X3547422Y-68820499D01*
X3813397Y-68739816D01*
X4090000Y-68712573D01*
X4366604Y-68739816D01*
G37*
G36*
X13966604Y-68739816D02*
G01*
X14232579Y-68820499D01*
X14232581Y-68820500D01*
X14477701Y-68951519D01*
X14692556Y-69127844D01*
X14868881Y-69342699D01*
X14999900Y-69587818D01*
X14999900Y-69587819D01*
X14999901Y-69587821D01*
X15080584Y-69853797D01*
X15101000Y-70061085D01*
X15101000Y-70719716D01*
X15080584Y-70927004D01*
X15020621Y-71124674D01*
X14999900Y-71192981D01*
X14868881Y-71438101D01*
X14692556Y-71652956D01*
X14477700Y-71829281D01*
X14380199Y-71881396D01*
X14232578Y-71960301D01*
X13966603Y-72040984D01*
X13690000Y-72068227D01*
X13413396Y-72040984D01*
X13147421Y-71960301D01*
X12999800Y-71881396D01*
X12902299Y-71829281D01*
X12687444Y-71652956D01*
X12511119Y-71438100D01*
X12380100Y-71192980D01*
X12380099Y-71192978D01*
X12299416Y-70927003D01*
X12279000Y-70719715D01*
X12279000Y-70061084D01*
X12299416Y-69853796D01*
X12380099Y-69587821D01*
X12433800Y-69487353D01*
X12511119Y-69342699D01*
X12687444Y-69127844D01*
X12902300Y-68951519D01*
X13147420Y-68820500D01*
X13147422Y-68820499D01*
X13413397Y-68739816D01*
X13690000Y-68712573D01*
X13966604Y-68739816D01*
G37*
G36*
X24422585Y-68868802D02*
G01*
X24572410Y-68898604D01*
X24854674Y-69015521D01*
X25108705Y-69185259D01*
X25324741Y-69401295D01*
X25494479Y-69655326D01*
X25611396Y-69937590D01*
X25671000Y-70237240D01*
X25671000Y-70542760D01*
X25611396Y-70842410D01*
X25494479Y-71124674D01*
X25324741Y-71378705D01*
X25108705Y-71594741D01*
X24854674Y-71764479D01*
X24572410Y-71881396D01*
X24422585Y-71911198D01*
X24272761Y-71941000D01*
X23967239Y-71941000D01*
X23817415Y-71911198D01*
X23667590Y-71881396D01*
X23385326Y-71764479D01*
X23131295Y-71594741D01*
X22915259Y-71378705D01*
X22745521Y-71124674D01*
X22628604Y-70842410D01*
X22569000Y-70542760D01*
X22569000Y-70237240D01*
X22628604Y-69937590D01*
X22745521Y-69655326D01*
X22915259Y-69401295D01*
X23131295Y-69185259D01*
X23385326Y-69015521D01*
X23667590Y-68898604D01*
X23817415Y-68868802D01*
X23967239Y-68839000D01*
X24272761Y-68839000D01*
X24422585Y-68868802D01*
G37*
G36*
X21016248Y-69001208D02*
G01*
X21153032Y-69028416D01*
X21410727Y-69135157D01*
X21642647Y-69290121D01*
X21839879Y-69487353D01*
X21994843Y-69719273D01*
X22101584Y-69976968D01*
X22156000Y-70250536D01*
X22156000Y-70529464D01*
X22101584Y-70803032D01*
X21994843Y-71060727D01*
X21839879Y-71292647D01*
X21642647Y-71489879D01*
X21410727Y-71644843D01*
X21153032Y-71751584D01*
X21088204Y-71764479D01*
X20879465Y-71806000D01*
X20600535Y-71806000D01*
X20391796Y-71764479D01*
X20326968Y-71751584D01*
X20069273Y-71644843D01*
X19837353Y-71489879D01*
X19640121Y-71292647D01*
X19485157Y-71060727D01*
X19378416Y-70803032D01*
X19324000Y-70529464D01*
X19324000Y-70250536D01*
X19378416Y-69976968D01*
X19485157Y-69719273D01*
X19640121Y-69487353D01*
X19837353Y-69290121D01*
X20069273Y-69135157D01*
X20326968Y-69028416D01*
X20463752Y-69001208D01*
X20600535Y-68974000D01*
X20879465Y-68974000D01*
X21016248Y-69001208D01*
G37*
G36*
X29299257Y-69028416D02*
G01*
X29444281Y-69057263D01*
X29570399Y-69109503D01*
X29696518Y-69161743D01*
X29923521Y-69313421D01*
X30116579Y-69506479D01*
X30268257Y-69733482D01*
X30268257Y-69733483D01*
X30369113Y-69976969D01*
X30372737Y-69985720D01*
X30426000Y-70253490D01*
X30426000Y-70526510D01*
X30422767Y-70542761D01*
X30372737Y-70794281D01*
X30352801Y-70842410D01*
X30268257Y-71046518D01*
X30116579Y-71273521D01*
X29923521Y-71466579D01*
X29696518Y-71618257D01*
X29612749Y-71652955D01*
X29444281Y-71722737D01*
X29310395Y-71749368D01*
X29176510Y-71776000D01*
X28903490Y-71776000D01*
X28769605Y-71749368D01*
X28635719Y-71722737D01*
X28467251Y-71652955D01*
X28383482Y-71618257D01*
X28156479Y-71466579D01*
X27963421Y-71273521D01*
X27811743Y-71046518D01*
X27727199Y-70842410D01*
X27707263Y-70794281D01*
X27657233Y-70542761D01*
X27654000Y-70526510D01*
X27654000Y-70253490D01*
X27707263Y-69985720D01*
X27710888Y-69976969D01*
X27811743Y-69733483D01*
X27811743Y-69733482D01*
X27963421Y-69506479D01*
X28156479Y-69313421D01*
X28383482Y-69161743D01*
X28509601Y-69109503D01*
X28635719Y-69057263D01*
X28780743Y-69028416D01*
X28903490Y-69004000D01*
X29176510Y-69004000D01*
X29299257Y-69028416D01*
G37*
G36*
X18011465Y-69165439D02*
G01*
X18243227Y-69261438D01*
X18243228Y-69261439D01*
X18451809Y-69400808D01*
X18629192Y-69578191D01*
X18680732Y-69655326D01*
X18768562Y-69786773D01*
X18864561Y-70018535D01*
X18913500Y-70264570D01*
X18913500Y-70515430D01*
X18864561Y-70761465D01*
X18768562Y-70993227D01*
X18723460Y-71060727D01*
X18629192Y-71201809D01*
X18451809Y-71379192D01*
X18363647Y-71438100D01*
X18243227Y-71518562D01*
X18011465Y-71614561D01*
X17765430Y-71663500D01*
X17514570Y-71663500D01*
X17268535Y-71614561D01*
X17036773Y-71518562D01*
X16916353Y-71438100D01*
X16828191Y-71379192D01*
X16650808Y-71201809D01*
X16556540Y-71060727D01*
X16511438Y-70993227D01*
X16415439Y-70761465D01*
X16366500Y-70515430D01*
X16366500Y-70264570D01*
X16415439Y-70018535D01*
X16511438Y-69786773D01*
X16599268Y-69655326D01*
X16650808Y-69578191D01*
X16828191Y-69400808D01*
X17036772Y-69261439D01*
X17036773Y-69261438D01*
X17268535Y-69165439D01*
X17514570Y-69116500D01*
X17765430Y-69116500D01*
X18011465Y-69165439D01*
G37*
G36*
X24390395Y-60410631D02*
G01*
X24524281Y-60437263D01*
X24650399Y-60489503D01*
X24776518Y-60541743D01*
X25003521Y-60693421D01*
X25196579Y-60886479D01*
X25348257Y-61113482D01*
X25452737Y-61365720D01*
X25506000Y-61633490D01*
X25506000Y-61906510D01*
X25452737Y-62174280D01*
X25348257Y-62426518D01*
X25196579Y-62653521D01*
X25003521Y-62846579D01*
X24776518Y-62998257D01*
X24650399Y-63050497D01*
X24524281Y-63102737D01*
X24390395Y-63129368D01*
X24256510Y-63156000D01*
X23983490Y-63156000D01*
X23849605Y-63129368D01*
X23715719Y-63102737D01*
X23589601Y-63050497D01*
X23463482Y-62998257D01*
X23236479Y-62846579D01*
X23043421Y-62653521D01*
X22891743Y-62426518D01*
X22787263Y-62174280D01*
X22734000Y-61906510D01*
X22734000Y-61633490D01*
X22787263Y-61365720D01*
X22891743Y-61113482D01*
X23043421Y-60886479D01*
X23236479Y-60693421D01*
X23463482Y-60541743D01*
X23589601Y-60489503D01*
X23715719Y-60437263D01*
X23849605Y-60410631D01*
X23983490Y-60384000D01*
X24256510Y-60384000D01*
X24390395Y-60410631D01*
G37*
G36*
X15517395Y-57200746D02*
G01*
X15690466Y-57272434D01*
X15735328Y-57302410D01*
X15846227Y-57376510D01*
X15978690Y-57508973D01*
X15978691Y-57508975D01*
X16082766Y-57664734D01*
X16154454Y-57837805D01*
X16191000Y-58021533D01*
X16191000Y-58208867D01*
X16154454Y-58392595D01*
X16082766Y-58565666D01*
X16082765Y-58565667D01*
X15978690Y-58721427D01*
X15846227Y-58853890D01*
X15767818Y-58906281D01*
X15690466Y-58957966D01*
X15517395Y-59029654D01*
X15333667Y-59066200D01*
X15146333Y-59066200D01*
X14962605Y-59029654D01*
X14789534Y-58957966D01*
X14712182Y-58906281D01*
X14633773Y-58853890D01*
X14501310Y-58721427D01*
X14397235Y-58565667D01*
X14397234Y-58565666D01*
X14325546Y-58392595D01*
X14289000Y-58208867D01*
X14289000Y-58021533D01*
X14325546Y-57837805D01*
X14397234Y-57664734D01*
X14501309Y-57508975D01*
X14501310Y-57508973D01*
X14633773Y-57376510D01*
X14744672Y-57302410D01*
X14789534Y-57272434D01*
X14962605Y-57200746D01*
X15146333Y-57164200D01*
X15333667Y-57164200D01*
X15517395Y-57200746D01*
G37*
G36*
X24422585Y-55328802D02*
G01*
X24572410Y-55358604D01*
X24854674Y-55475521D01*
X25108705Y-55645259D01*
X25324741Y-55861295D01*
X25494479Y-56115326D01*
X25611396Y-56397590D01*
X25671000Y-56697240D01*
X25671000Y-57002760D01*
X25611396Y-57302410D01*
X25494479Y-57584674D01*
X25324741Y-57838705D01*
X25108705Y-58054741D01*
X24854674Y-58224479D01*
X24572410Y-58341396D01*
X24422585Y-58371198D01*
X24272761Y-58401000D01*
X23967239Y-58401000D01*
X23817415Y-58371198D01*
X23667590Y-58341396D01*
X23385326Y-58224479D01*
X23131295Y-58054741D01*
X22915259Y-57838705D01*
X22745521Y-57584674D01*
X22628604Y-57302410D01*
X22569000Y-57002760D01*
X22569000Y-56697240D01*
X22628604Y-56397590D01*
X22745521Y-56115326D01*
X22915259Y-55861295D01*
X23131295Y-55645259D01*
X23385326Y-55475521D01*
X23667590Y-55358604D01*
X23817415Y-55328802D01*
X23967239Y-55299000D01*
X24272761Y-55299000D01*
X24422585Y-55328802D01*
G37*
G36*
X16191000Y-56526200D02*
G01*
X14289000Y-56526200D01*
X14289000Y-54624200D01*
X16191000Y-54624200D01*
X16191000Y-56526200D01*
G37*
G36*
X24396248Y-52081208D02*
G01*
X24533032Y-52108416D01*
X24790727Y-52215157D01*
X25022647Y-52370121D01*
X25219879Y-52567353D01*
X25374843Y-52799273D01*
X25481584Y-53056968D01*
X25536000Y-53330536D01*
X25536000Y-53609464D01*
X25481584Y-53883032D01*
X25374843Y-54140727D01*
X25219879Y-54372647D01*
X25022647Y-54569879D01*
X24790727Y-54724843D01*
X24533032Y-54831584D01*
X24396248Y-54858792D01*
X24259465Y-54886000D01*
X23980535Y-54886000D01*
X23843752Y-54858792D01*
X23706968Y-54831584D01*
X23449273Y-54724843D01*
X23217353Y-54569879D01*
X23020121Y-54372647D01*
X22865157Y-54140727D01*
X22758416Y-53883032D01*
X22704000Y-53609464D01*
X22704000Y-53330536D01*
X22758416Y-53056968D01*
X22865157Y-52799273D01*
X23020121Y-52567353D01*
X23217353Y-52370121D01*
X23449273Y-52215157D01*
X23706968Y-52108416D01*
X23843752Y-52081208D01*
X23980535Y-52054000D01*
X24259465Y-52054000D01*
X24396248Y-52081208D01*
G37*
G36*
X24491465Y-49145439D02*
G01*
X24723227Y-49241438D01*
X24826810Y-49310650D01*
X24931809Y-49380808D01*
X25109192Y-49558191D01*
X25109193Y-49558193D01*
X25248562Y-49766773D01*
X25344561Y-49998535D01*
X25393500Y-50244570D01*
X25393500Y-50495430D01*
X25344561Y-50741465D01*
X25248562Y-50973227D01*
X25248561Y-50973228D01*
X25109192Y-51181809D01*
X24931809Y-51359192D01*
X24826810Y-51429350D01*
X24723227Y-51498562D01*
X24491465Y-51594561D01*
X24245430Y-51643500D01*
X23994570Y-51643500D01*
X23748535Y-51594561D01*
X23516773Y-51498562D01*
X23413190Y-51429350D01*
X23308191Y-51359192D01*
X23130808Y-51181809D01*
X22991439Y-50973228D01*
X22991438Y-50973227D01*
X22895439Y-50741465D01*
X22846500Y-50495430D01*
X22846500Y-50244570D01*
X22895439Y-49998535D01*
X22991438Y-49766773D01*
X23130807Y-49558193D01*
X23130808Y-49558191D01*
X23308191Y-49380808D01*
X23413190Y-49310650D01*
X23516773Y-49241438D01*
X23748535Y-49145439D01*
X23994570Y-49096500D01*
X24245430Y-49096500D01*
X24491465Y-49145439D01*
G37*
G36*
X7341000Y-50811000D02*
G01*
X5439000Y-50811000D01*
X5439000Y-48909000D01*
X7341000Y-48909000D01*
X7341000Y-50811000D01*
G37*
G36*
X9167395Y-48945546D02*
G01*
X9340466Y-49017234D01*
X9340467Y-49017235D01*
X9496227Y-49121310D01*
X9628690Y-49253773D01*
X9628691Y-49253775D01*
X9732766Y-49409534D01*
X9804454Y-49582605D01*
X9841000Y-49766333D01*
X9841000Y-49953667D01*
X9804454Y-50137395D01*
X9732766Y-50310466D01*
X9732765Y-50310467D01*
X9628690Y-50466227D01*
X9496227Y-50598690D01*
X9417818Y-50651081D01*
X9340466Y-50702766D01*
X9167395Y-50774454D01*
X8983667Y-50811000D01*
X8796333Y-50811000D01*
X8612605Y-50774454D01*
X8439534Y-50702766D01*
X8362182Y-50651081D01*
X8283773Y-50598690D01*
X8151310Y-50466227D01*
X8047235Y-50310467D01*
X8047234Y-50310466D01*
X7975546Y-50137395D01*
X7939000Y-49953667D01*
X7939000Y-49766333D01*
X7975546Y-49582605D01*
X8047234Y-49409534D01*
X8151309Y-49253775D01*
X8151310Y-49253773D01*
X8283773Y-49121310D01*
X8439533Y-49017235D01*
X8439534Y-49017234D01*
X8612605Y-48945546D01*
X8796333Y-48909000D01*
X8983667Y-48909000D01*
X9167395Y-48945546D01*
G37*
G36*
X11667395Y-48945546D02*
G01*
X11840466Y-49017234D01*
X11840467Y-49017235D01*
X11996227Y-49121310D01*
X12128690Y-49253773D01*
X12128691Y-49253775D01*
X12232766Y-49409534D01*
X12304454Y-49582605D01*
X12341000Y-49766333D01*
X12341000Y-49953667D01*
X12304454Y-50137395D01*
X12232766Y-50310466D01*
X12232765Y-50310467D01*
X12128690Y-50466227D01*
X11996227Y-50598690D01*
X11917818Y-50651081D01*
X11840466Y-50702766D01*
X11667395Y-50774454D01*
X11483667Y-50811000D01*
X11296333Y-50811000D01*
X11112605Y-50774454D01*
X10939534Y-50702766D01*
X10862182Y-50651081D01*
X10783773Y-50598690D01*
X10651310Y-50466227D01*
X10547235Y-50310467D01*
X10547234Y-50310466D01*
X10475546Y-50137395D01*
X10439000Y-49953667D01*
X10439000Y-49766333D01*
X10475546Y-49582605D01*
X10547234Y-49409534D01*
X10651309Y-49253775D01*
X10651310Y-49253773D01*
X10783773Y-49121310D01*
X10939533Y-49017235D01*
X10939534Y-49017234D01*
X11112605Y-48945546D01*
X11296333Y-48909000D01*
X11483667Y-48909000D01*
X11667395Y-48945546D01*
G37*
G36*
X4366604Y-40709416D02*
G01*
X4632579Y-40790099D01*
X4632581Y-40790100D01*
X4877701Y-40921119D01*
X5092556Y-41097444D01*
X5268881Y-41312299D01*
X5399900Y-41557418D01*
X5399900Y-41557419D01*
X5399901Y-41557421D01*
X5480584Y-41823397D01*
X5501000Y-42030685D01*
X5501000Y-42689316D01*
X5480584Y-42896604D01*
X5399901Y-43162578D01*
X5399900Y-43162581D01*
X5268881Y-43407701D01*
X5092556Y-43622556D01*
X4877700Y-43798881D01*
X4632580Y-43929900D01*
X4632578Y-43929901D01*
X4366603Y-44010584D01*
X4090000Y-44037827D01*
X3813396Y-44010584D01*
X3547421Y-43929901D01*
X3547419Y-43929900D01*
X3302299Y-43798881D01*
X3087444Y-43622556D01*
X2911119Y-43407700D01*
X2780100Y-43162580D01*
X2780099Y-43162578D01*
X2699416Y-42896603D01*
X2679000Y-42689315D01*
X2679000Y-42030684D01*
X2699416Y-41823396D01*
X2780099Y-41557421D01*
X2785031Y-41548193D01*
X2911119Y-41312299D01*
X3087444Y-41097444D01*
X3302300Y-40921119D01*
X3547420Y-40790100D01*
X3547422Y-40790099D01*
X3813397Y-40709416D01*
X4090000Y-40682173D01*
X4366604Y-40709416D01*
G37*
G36*
X13966604Y-40709416D02*
G01*
X14232579Y-40790099D01*
X14232581Y-40790100D01*
X14477701Y-40921119D01*
X14692556Y-41097444D01*
X14868881Y-41312299D01*
X14999900Y-41557418D01*
X14999900Y-41557419D01*
X14999901Y-41557421D01*
X15080584Y-41823397D01*
X15101000Y-42030685D01*
X15101000Y-42689316D01*
X15080584Y-42896604D01*
X14999901Y-43162578D01*
X14999900Y-43162581D01*
X14868881Y-43407701D01*
X14692556Y-43622556D01*
X14477700Y-43798881D01*
X14232580Y-43929900D01*
X14232578Y-43929901D01*
X13966603Y-44010584D01*
X13690000Y-44037827D01*
X13413396Y-44010584D01*
X13147421Y-43929901D01*
X13147419Y-43929900D01*
X12902299Y-43798881D01*
X12687444Y-43622556D01*
X12511119Y-43407700D01*
X12380100Y-43162580D01*
X12380099Y-43162578D01*
X12299416Y-42896603D01*
X12279000Y-42689315D01*
X12279000Y-42030684D01*
X12299416Y-41823396D01*
X12380099Y-41557421D01*
X12385031Y-41548193D01*
X12511119Y-41312299D01*
X12687444Y-41097444D01*
X12902300Y-40921119D01*
X13147420Y-40790100D01*
X13147422Y-40790099D01*
X13413397Y-40709416D01*
X13690000Y-40682173D01*
X13966604Y-40709416D01*
G37*
G36*
X24422585Y-40838802D02*
G01*
X24572410Y-40868604D01*
X24854674Y-40985521D01*
X25108705Y-41155259D01*
X25324741Y-41371295D01*
X25494479Y-41625326D01*
X25611396Y-41907590D01*
X25671000Y-42207240D01*
X25671000Y-42512760D01*
X25611396Y-42812410D01*
X25494479Y-43094674D01*
X25324741Y-43348705D01*
X25108705Y-43564741D01*
X24854674Y-43734479D01*
X24572410Y-43851396D01*
X24422585Y-43881198D01*
X24272761Y-43911000D01*
X23967239Y-43911000D01*
X23817415Y-43881198D01*
X23667590Y-43851396D01*
X23385326Y-43734479D01*
X23131295Y-43564741D01*
X22915259Y-43348705D01*
X22745521Y-43094674D01*
X22628604Y-42812410D01*
X22569000Y-42512760D01*
X22569000Y-42207240D01*
X22628604Y-41907590D01*
X22745521Y-41625326D01*
X22915259Y-41371295D01*
X23131295Y-41155259D01*
X23385326Y-40985521D01*
X23667590Y-40868604D01*
X23817415Y-40838802D01*
X23967239Y-40809000D01*
X24272761Y-40809000D01*
X24422585Y-40838802D01*
G37*
G36*
X21016248Y-40971208D02*
G01*
X21153032Y-40998416D01*
X21410727Y-41105157D01*
X21642647Y-41260121D01*
X21839879Y-41457353D01*
X21994843Y-41689273D01*
X22101584Y-41946968D01*
X22156000Y-42220536D01*
X22156000Y-42499464D01*
X22101584Y-42773032D01*
X21994843Y-43030727D01*
X21839879Y-43262647D01*
X21642647Y-43459879D01*
X21410727Y-43614843D01*
X21153032Y-43721584D01*
X21088204Y-43734479D01*
X20879465Y-43776000D01*
X20600535Y-43776000D01*
X20391796Y-43734479D01*
X20326968Y-43721584D01*
X20069273Y-43614843D01*
X19837353Y-43459879D01*
X19640121Y-43262647D01*
X19485157Y-43030727D01*
X19378416Y-42773032D01*
X19324000Y-42499464D01*
X19324000Y-42220536D01*
X19378416Y-41946968D01*
X19485157Y-41689273D01*
X19640121Y-41457353D01*
X19837353Y-41260121D01*
X20069273Y-41105157D01*
X20326968Y-40998416D01*
X20463752Y-40971208D01*
X20600535Y-40944000D01*
X20879465Y-40944000D01*
X21016248Y-40971208D01*
G37*
G36*
X29299257Y-40998416D02*
G01*
X29444281Y-41027263D01*
X29570399Y-41079503D01*
X29696518Y-41131743D01*
X29923521Y-41283421D01*
X30116579Y-41476479D01*
X30268257Y-41703482D01*
X30268257Y-41703483D01*
X30369113Y-41946969D01*
X30372737Y-41955720D01*
X30426000Y-42223490D01*
X30426000Y-42496510D01*
X30422767Y-42512761D01*
X30372737Y-42764281D01*
X30352801Y-42812410D01*
X30268257Y-43016518D01*
X30116579Y-43243521D01*
X29923521Y-43436579D01*
X29696518Y-43588257D01*
X29587291Y-43633500D01*
X29444281Y-43692737D01*
X29310395Y-43719368D01*
X29176510Y-43746000D01*
X28903490Y-43746000D01*
X28769605Y-43719368D01*
X28635719Y-43692737D01*
X28492709Y-43633500D01*
X28383482Y-43588257D01*
X28156479Y-43436579D01*
X27963421Y-43243521D01*
X27811743Y-43016518D01*
X27727199Y-42812410D01*
X27707263Y-42764281D01*
X27657233Y-42512761D01*
X27654000Y-42496510D01*
X27654000Y-42223490D01*
X27707263Y-41955720D01*
X27710888Y-41946969D01*
X27811743Y-41703483D01*
X27811743Y-41703482D01*
X27963421Y-41476479D01*
X28156479Y-41283421D01*
X28383482Y-41131743D01*
X28509601Y-41079503D01*
X28635719Y-41027263D01*
X28780743Y-40998416D01*
X28903490Y-40974000D01*
X29176510Y-40974000D01*
X29299257Y-40998416D01*
G37*
G36*
X18011465Y-41135439D02*
G01*
X18243227Y-41231438D01*
X18243228Y-41231439D01*
X18451809Y-41370808D01*
X18629192Y-41548191D01*
X18629193Y-41548193D01*
X18768562Y-41756773D01*
X18864561Y-41988535D01*
X18913500Y-42234570D01*
X18913500Y-42485430D01*
X18864561Y-42731465D01*
X18768562Y-42963227D01*
X18723460Y-43030727D01*
X18629192Y-43171809D01*
X18451809Y-43349192D01*
X18364245Y-43407700D01*
X18243227Y-43488562D01*
X18011465Y-43584561D01*
X17765430Y-43633500D01*
X17514570Y-43633500D01*
X17268535Y-43584561D01*
X17036773Y-43488562D01*
X16915755Y-43407700D01*
X16828191Y-43349192D01*
X16650808Y-43171809D01*
X16556540Y-43030727D01*
X16511438Y-42963227D01*
X16415439Y-42731465D01*
X16366500Y-42485430D01*
X16366500Y-42234570D01*
X16415439Y-41988535D01*
X16511438Y-41756773D01*
X16650807Y-41548193D01*
X16650808Y-41548191D01*
X16828191Y-41370808D01*
X17036772Y-41231439D01*
X17036773Y-41231438D01*
X17268535Y-41135439D01*
X17514570Y-41086500D01*
X17765430Y-41086500D01*
X18011465Y-41135439D01*
G37*
G36*
X15517395Y-30835546D02*
G01*
X15690466Y-30907234D01*
X15690467Y-30907235D01*
X15846227Y-31011310D01*
X15978690Y-31143773D01*
X15978691Y-31143775D01*
X16082766Y-31299534D01*
X16154454Y-31472605D01*
X16191000Y-31656333D01*
X16191000Y-31843667D01*
X16154454Y-32027395D01*
X16082766Y-32200466D01*
X16082765Y-32200467D01*
X15978690Y-32356227D01*
X15846227Y-32488690D01*
X15767818Y-32541081D01*
X15690466Y-32592766D01*
X15517395Y-32664454D01*
X15333667Y-32701000D01*
X15146333Y-32701000D01*
X14962605Y-32664454D01*
X14789534Y-32592766D01*
X14712182Y-32541081D01*
X14633773Y-32488690D01*
X14501310Y-32356227D01*
X14397235Y-32200467D01*
X14397234Y-32200466D01*
X14325546Y-32027395D01*
X14289000Y-31843667D01*
X14289000Y-31656333D01*
X14325546Y-31472605D01*
X14397234Y-31299534D01*
X14501309Y-31143775D01*
X14501310Y-31143773D01*
X14633773Y-31011310D01*
X14789533Y-30907235D01*
X14789534Y-30907234D01*
X14962605Y-30835546D01*
X15146333Y-30799000D01*
X15333667Y-30799000D01*
X15517395Y-30835546D01*
G37*
G36*
X19596603Y-29129416D02*
G01*
X19862578Y-29210099D01*
X19862580Y-29210100D01*
X20107700Y-29341119D01*
X20322556Y-29517444D01*
X20498881Y-29732299D01*
X20629900Y-29977419D01*
X20629901Y-29977421D01*
X20710584Y-30243396D01*
X20731000Y-30450684D01*
X20731000Y-31109315D01*
X20710584Y-31316603D01*
X20663261Y-31472605D01*
X20629900Y-31582582D01*
X20498881Y-31827701D01*
X20322556Y-32042556D01*
X20107701Y-32218881D01*
X19862581Y-32349900D01*
X19862579Y-32349901D01*
X19596604Y-32430584D01*
X19320000Y-32457827D01*
X19043397Y-32430584D01*
X18777422Y-32349901D01*
X18777420Y-32349900D01*
X18532300Y-32218881D01*
X18317444Y-32042556D01*
X18141119Y-31827701D01*
X18010100Y-31582581D01*
X17976739Y-31472605D01*
X17929416Y-31316604D01*
X17909000Y-31109316D01*
X17909000Y-30450685D01*
X17929416Y-30243397D01*
X18010099Y-29977422D01*
X18141120Y-29732299D01*
X18141121Y-29732298D01*
X18317444Y-29517444D01*
X18532299Y-29341119D01*
X18777419Y-29210100D01*
X18777421Y-29210099D01*
X19043396Y-29129416D01*
X19320000Y-29102173D01*
X19596603Y-29129416D01*
G37*
G36*
X29196603Y-29129416D02*
G01*
X29462578Y-29210099D01*
X29462580Y-29210100D01*
X29707700Y-29341119D01*
X29922556Y-29517444D01*
X30098881Y-29732299D01*
X30229900Y-29977419D01*
X30229901Y-29977421D01*
X30310584Y-30243396D01*
X30331000Y-30450684D01*
X30331000Y-31109315D01*
X30310584Y-31316603D01*
X30263261Y-31472605D01*
X30229900Y-31582582D01*
X30098881Y-31827701D01*
X29922556Y-32042556D01*
X29707701Y-32218881D01*
X29462581Y-32349900D01*
X29462579Y-32349901D01*
X29196604Y-32430584D01*
X28920000Y-32457827D01*
X28643397Y-32430584D01*
X28377422Y-32349901D01*
X28377420Y-32349900D01*
X28132300Y-32218881D01*
X27917444Y-32042556D01*
X27741119Y-31827701D01*
X27610100Y-31582581D01*
X27576739Y-31472605D01*
X27529416Y-31316604D01*
X27509000Y-31109316D01*
X27509000Y-30450685D01*
X27529416Y-30243397D01*
X27610099Y-29977422D01*
X27741120Y-29732299D01*
X27741121Y-29732298D01*
X27917444Y-29517444D01*
X28132299Y-29341119D01*
X28377419Y-29210100D01*
X28377421Y-29210099D01*
X28643396Y-29129416D01*
X28920000Y-29102173D01*
X29196603Y-29129416D01*
G37*
G36*
X16191000Y-30161000D02*
G01*
X14289000Y-30161000D01*
X14289000Y-28259000D01*
X16191000Y-28259000D01*
X16191000Y-30161000D01*
G37*
G36*
X4470600Y-26441600D02*
G01*
X2641400Y-26441600D01*
X2641400Y-24612400D01*
X4470600Y-24612400D01*
X4470600Y-26441600D01*
G37*
G36*
X6362778Y-24647547D02*
G01*
X6529224Y-24716491D01*
X6679022Y-24816583D01*
X6806417Y-24943978D01*
X6906509Y-25093776D01*
X6975453Y-25260222D01*
X7010600Y-25436918D01*
X7010600Y-25617082D01*
X6975453Y-25793778D01*
X6906509Y-25960224D01*
X6806417Y-26110022D01*
X6679022Y-26237417D01*
X6529224Y-26337509D01*
X6362778Y-26406453D01*
X6186082Y-26441600D01*
X6005918Y-26441600D01*
X5829222Y-26406453D01*
X5662776Y-26337509D01*
X5512978Y-26237417D01*
X5385583Y-26110022D01*
X5285491Y-25960224D01*
X5216547Y-25793778D01*
X5181400Y-25617082D01*
X5181400Y-25436918D01*
X5216547Y-25260222D01*
X5285491Y-25093776D01*
X5385583Y-24943978D01*
X5512978Y-24816583D01*
X5662776Y-24716491D01*
X5829222Y-24647547D01*
X6005918Y-24612400D01*
X6186082Y-24612400D01*
X6362778Y-24647547D01*
G37*
G36*
X27571000Y-24231000D02*
G01*
X25669000Y-24231000D01*
X25669000Y-22329000D01*
X27571000Y-22329000D01*
X27571000Y-24231000D01*
G37*
G36*
X21897395Y-22365546D02*
G01*
X22070466Y-22437234D01*
X22070467Y-22437235D01*
X22226227Y-22541310D01*
X22358690Y-22673773D01*
X22358691Y-22673775D01*
X22462766Y-22829534D01*
X22534454Y-23002605D01*
X22571000Y-23186333D01*
X22571000Y-23373667D01*
X22534454Y-23557395D01*
X22462766Y-23730466D01*
X22462765Y-23730467D01*
X22358690Y-23886227D01*
X22226227Y-24018690D01*
X22147818Y-24071081D01*
X22070466Y-24122766D01*
X21897395Y-24194454D01*
X21713667Y-24231000D01*
X21526333Y-24231000D01*
X21342605Y-24194454D01*
X21169534Y-24122766D01*
X21092182Y-24071081D01*
X21013773Y-24018690D01*
X20881310Y-23886227D01*
X20777235Y-23730467D01*
X20777234Y-23730466D01*
X20705546Y-23557395D01*
X20669000Y-23373667D01*
X20669000Y-23186333D01*
X20705546Y-23002605D01*
X20777234Y-22829534D01*
X20881309Y-22673775D01*
X20881310Y-22673773D01*
X21013773Y-22541310D01*
X21169533Y-22437235D01*
X21169534Y-22437234D01*
X21342605Y-22365546D01*
X21526333Y-22329000D01*
X21713667Y-22329000D01*
X21897395Y-22365546D01*
G37*
G36*
X24397395Y-22365546D02*
G01*
X24570466Y-22437234D01*
X24570467Y-22437235D01*
X24726227Y-22541310D01*
X24858690Y-22673773D01*
X24858691Y-22673775D01*
X24962766Y-22829534D01*
X25034454Y-23002605D01*
X25071000Y-23186333D01*
X25071000Y-23373667D01*
X25034454Y-23557395D01*
X24962766Y-23730466D01*
X24962765Y-23730467D01*
X24858690Y-23886227D01*
X24726227Y-24018690D01*
X24647818Y-24071081D01*
X24570466Y-24122766D01*
X24397395Y-24194454D01*
X24213667Y-24231000D01*
X24026333Y-24231000D01*
X23842605Y-24194454D01*
X23669534Y-24122766D01*
X23592182Y-24071081D01*
X23513773Y-24018690D01*
X23381310Y-23886227D01*
X23277235Y-23730467D01*
X23277234Y-23730466D01*
X23205546Y-23557395D01*
X23169000Y-23373667D01*
X23169000Y-23186333D01*
X23205546Y-23002605D01*
X23277234Y-22829534D01*
X23381309Y-22673775D01*
X23381310Y-22673773D01*
X23513773Y-22541310D01*
X23669533Y-22437235D01*
X23669534Y-22437234D01*
X23842605Y-22365546D01*
X24026333Y-22329000D01*
X24213667Y-22329000D01*
X24397395Y-22365546D01*
G37*
G36*
X15517395Y-22145346D02*
G01*
X15690466Y-22217034D01*
X15690467Y-22217035D01*
X15846227Y-22321110D01*
X15978690Y-22453573D01*
X15978691Y-22453575D01*
X16082766Y-22609334D01*
X16154454Y-22782405D01*
X16191000Y-22966133D01*
X16191000Y-23153467D01*
X16154454Y-23337195D01*
X16082766Y-23510266D01*
X16082765Y-23510267D01*
X15978690Y-23666027D01*
X15846227Y-23798490D01*
X15767818Y-23850881D01*
X15690466Y-23902566D01*
X15517395Y-23974254D01*
X15333667Y-24010800D01*
X15146333Y-24010800D01*
X14962605Y-23974254D01*
X14789534Y-23902566D01*
X14712182Y-23850881D01*
X14633773Y-23798490D01*
X14501310Y-23666027D01*
X14397235Y-23510267D01*
X14397234Y-23510266D01*
X14325546Y-23337195D01*
X14289000Y-23153467D01*
X14289000Y-22966133D01*
X14325546Y-22782405D01*
X14397234Y-22609334D01*
X14501309Y-22453575D01*
X14501310Y-22453573D01*
X14633773Y-22321110D01*
X14789533Y-22217035D01*
X14789534Y-22217034D01*
X14962605Y-22145346D01*
X15146333Y-22108800D01*
X15333667Y-22108800D01*
X15517395Y-22145346D01*
G37*
G36*
X13691000Y-24010800D02*
G01*
X11789000Y-24010800D01*
X11789000Y-22108800D01*
X13691000Y-22108800D01*
X13691000Y-24010800D01*
G37*
G36*
X18017395Y-22145346D02*
G01*
X18190466Y-22217034D01*
X18190467Y-22217035D01*
X18346227Y-22321110D01*
X18478690Y-22453573D01*
X18478691Y-22453575D01*
X18582766Y-22609334D01*
X18654454Y-22782405D01*
X18691000Y-22966133D01*
X18691000Y-23153467D01*
X18654454Y-23337195D01*
X18582766Y-23510266D01*
X18582765Y-23510267D01*
X18478690Y-23666027D01*
X18346227Y-23798490D01*
X18267818Y-23850881D01*
X18190466Y-23902566D01*
X18017395Y-23974254D01*
X17833667Y-24010800D01*
X17646333Y-24010800D01*
X17462605Y-23974254D01*
X17289534Y-23902566D01*
X17212182Y-23850881D01*
X17133773Y-23798490D01*
X17001310Y-23666027D01*
X16897235Y-23510267D01*
X16897234Y-23510266D01*
X16825546Y-23337195D01*
X16789000Y-23153467D01*
X16789000Y-22966133D01*
X16825546Y-22782405D01*
X16897234Y-22609334D01*
X17001309Y-22453575D01*
X17001310Y-22453573D01*
X17133773Y-22321110D01*
X17289533Y-22217035D01*
X17289534Y-22217034D01*
X17462605Y-22145346D01*
X17646333Y-22108800D01*
X17833667Y-22108800D01*
X18017395Y-22145346D01*
G37*
G36*
X3822778Y-22107547D02*
G01*
X3989224Y-22176491D01*
X4139022Y-22276583D01*
X4266417Y-22403978D01*
X4366509Y-22553776D01*
X4435453Y-22720222D01*
X4470600Y-22896918D01*
X4470600Y-23077082D01*
X4435453Y-23253778D01*
X4366509Y-23420224D01*
X4266417Y-23570022D01*
X4139022Y-23697417D01*
X3989224Y-23797509D01*
X3822778Y-23866453D01*
X3646082Y-23901600D01*
X3465918Y-23901600D01*
X3289222Y-23866453D01*
X3122776Y-23797509D01*
X2972978Y-23697417D01*
X2845583Y-23570022D01*
X2745491Y-23420224D01*
X2676547Y-23253778D01*
X2641400Y-23077082D01*
X2641400Y-22896918D01*
X2676547Y-22720222D01*
X2745491Y-22553776D01*
X2845583Y-22403978D01*
X2972978Y-22276583D01*
X3122776Y-22176491D01*
X3289222Y-22107547D01*
X3465918Y-22072400D01*
X3646082Y-22072400D01*
X3822778Y-22107547D01*
G37*
G36*
X6362778Y-22107547D02*
G01*
X6529224Y-22176491D01*
X6679022Y-22276583D01*
X6806417Y-22403978D01*
X6906509Y-22553776D01*
X6975453Y-22720222D01*
X7010600Y-22896918D01*
X7010600Y-23077082D01*
X6975453Y-23253778D01*
X6906509Y-23420224D01*
X6806417Y-23570022D01*
X6679022Y-23697417D01*
X6529224Y-23797509D01*
X6362778Y-23866453D01*
X6186082Y-23901600D01*
X6005918Y-23901600D01*
X5829222Y-23866453D01*
X5662776Y-23797509D01*
X5512978Y-23697417D01*
X5385583Y-23570022D01*
X5285491Y-23420224D01*
X5216547Y-23253778D01*
X5181400Y-23077082D01*
X5181400Y-22896918D01*
X5216547Y-22720222D01*
X5285491Y-22553776D01*
X5385583Y-22403978D01*
X5512978Y-22276583D01*
X5662776Y-22176491D01*
X5829222Y-22107547D01*
X6005918Y-22072400D01*
X6186082Y-22072400D01*
X6362778Y-22107547D01*
G37*
G36*
X6362778Y-19567547D02*
G01*
X6529224Y-19636491D01*
X6679022Y-19736583D01*
X6806417Y-19863978D01*
X6906509Y-20013776D01*
X6975453Y-20180222D01*
X7010600Y-20356918D01*
X7010600Y-20537082D01*
X6975453Y-20713778D01*
X6906509Y-20880224D01*
X6806417Y-21030022D01*
X6679022Y-21157417D01*
X6529224Y-21257509D01*
X6362778Y-21326453D01*
X6186082Y-21361600D01*
X6005918Y-21361600D01*
X5829222Y-21326453D01*
X5662776Y-21257509D01*
X5512978Y-21157417D01*
X5385583Y-21030022D01*
X5285491Y-20880224D01*
X5216547Y-20713778D01*
X5181400Y-20537082D01*
X5181400Y-20356918D01*
X5216547Y-20180222D01*
X5285491Y-20013776D01*
X5385583Y-19863978D01*
X5512978Y-19736583D01*
X5662776Y-19636491D01*
X5829222Y-19567547D01*
X6005918Y-19532400D01*
X6186082Y-19532400D01*
X6362778Y-19567547D01*
G37*
G36*
X3822778Y-19567547D02*
G01*
X3989224Y-19636491D01*
X4139022Y-19736583D01*
X4266417Y-19863978D01*
X4366509Y-20013776D01*
X4435453Y-20180222D01*
X4470600Y-20356918D01*
X4470600Y-20537082D01*
X4435453Y-20713778D01*
X4366509Y-20880224D01*
X4266417Y-21030022D01*
X4139022Y-21157417D01*
X3989224Y-21257509D01*
X3822778Y-21326453D01*
X3646082Y-21361600D01*
X3465918Y-21361600D01*
X3289222Y-21326453D01*
X3122776Y-21257509D01*
X2972978Y-21157417D01*
X2845583Y-21030022D01*
X2745491Y-20880224D01*
X2676547Y-20713778D01*
X2641400Y-20537082D01*
X2641400Y-20356918D01*
X2676547Y-20180222D01*
X2745491Y-20013776D01*
X2845583Y-19863978D01*
X2972978Y-19736583D01*
X3122776Y-19636491D01*
X3289222Y-19567547D01*
X3465918Y-19532400D01*
X3646082Y-19532400D01*
X3822778Y-19567547D01*
G37*
G36*
X28153895Y-18516546D02*
G01*
X28326966Y-18588234D01*
X28326967Y-18588235D01*
X28482727Y-18692310D01*
X28615190Y-18824773D01*
X28615191Y-18824775D01*
X28719266Y-18980534D01*
X28790954Y-19153605D01*
X28827500Y-19337333D01*
X28827500Y-19524667D01*
X28790954Y-19708395D01*
X28719266Y-19881466D01*
X28719265Y-19881467D01*
X28615190Y-20037227D01*
X28482727Y-20169690D01*
X28404318Y-20222081D01*
X28326966Y-20273766D01*
X28153895Y-20345454D01*
X27970167Y-20382000D01*
X27782833Y-20382000D01*
X27599105Y-20345454D01*
X27426034Y-20273766D01*
X27348682Y-20222081D01*
X27270273Y-20169690D01*
X27137810Y-20037227D01*
X27033735Y-19881467D01*
X27033734Y-19881466D01*
X26962046Y-19708395D01*
X26925500Y-19524667D01*
X26925500Y-19337333D01*
X26962046Y-19153605D01*
X27033734Y-18980534D01*
X27137809Y-18824775D01*
X27137810Y-18824773D01*
X27270273Y-18692310D01*
X27426033Y-18588235D01*
X27426034Y-18588234D01*
X27599105Y-18516546D01*
X27782833Y-18480000D01*
X27970167Y-18480000D01*
X28153895Y-18516546D01*
G37*
G36*
X26287500Y-20382000D02*
G01*
X24385500Y-20382000D01*
X24385500Y-18480000D01*
X26287500Y-18480000D01*
X26287500Y-20382000D01*
G37*
G36*
X6362778Y-17027547D02*
G01*
X6529224Y-17096491D01*
X6679022Y-17196583D01*
X6806417Y-17323978D01*
X6906509Y-17473776D01*
X6975453Y-17640222D01*
X7010600Y-17816918D01*
X7010600Y-17997082D01*
X6975453Y-18173778D01*
X6906509Y-18340224D01*
X6806417Y-18490022D01*
X6679022Y-18617417D01*
X6529224Y-18717509D01*
X6362778Y-18786453D01*
X6186082Y-18821600D01*
X6005918Y-18821600D01*
X5829222Y-18786453D01*
X5662776Y-18717509D01*
X5512978Y-18617417D01*
X5385583Y-18490022D01*
X5285491Y-18340224D01*
X5216547Y-18173778D01*
X5181400Y-17997082D01*
X5181400Y-17816918D01*
X5216547Y-17640222D01*
X5285491Y-17473776D01*
X5385583Y-17323978D01*
X5512978Y-17196583D01*
X5662776Y-17096491D01*
X5829222Y-17027547D01*
X6005918Y-16992400D01*
X6186082Y-16992400D01*
X6362778Y-17027547D01*
G37*
G36*
X3822778Y-17027547D02*
G01*
X3989224Y-17096491D01*
X4139022Y-17196583D01*
X4266417Y-17323978D01*
X4366509Y-17473776D01*
X4435453Y-17640222D01*
X4470600Y-17816918D01*
X4470600Y-17997082D01*
X4435453Y-18173778D01*
X4366509Y-18340224D01*
X4266417Y-18490022D01*
X4139022Y-18617417D01*
X3989224Y-18717509D01*
X3822778Y-18786453D01*
X3646082Y-18821600D01*
X3465918Y-18821600D01*
X3289222Y-18786453D01*
X3122776Y-18717509D01*
X2972978Y-18617417D01*
X2845583Y-18490022D01*
X2745491Y-18340224D01*
X2676547Y-18173778D01*
X2641400Y-17997082D01*
X2641400Y-17816918D01*
X2676547Y-17640222D01*
X2745491Y-17473776D01*
X2845583Y-17323978D01*
X2972978Y-17196583D01*
X3122776Y-17096491D01*
X3289222Y-17027547D01*
X3465918Y-16992400D01*
X3646082Y-16992400D01*
X3822778Y-17027547D01*
G37*
G36*
X10716604Y-13909216D02*
G01*
X10982579Y-13989899D01*
X10982581Y-13989900D01*
X11227701Y-14120919D01*
X11442556Y-14297244D01*
X11618881Y-14512099D01*
X11749900Y-14757218D01*
X11749900Y-14757219D01*
X11749901Y-14757221D01*
X11830584Y-15023197D01*
X11851000Y-15230485D01*
X11851000Y-15889116D01*
X11830584Y-16096404D01*
X11774405Y-16281600D01*
X11749900Y-16362381D01*
X11618881Y-16607501D01*
X11442556Y-16822356D01*
X11227700Y-16998681D01*
X11173695Y-17027547D01*
X10982578Y-17129701D01*
X10716603Y-17210384D01*
X10440000Y-17237627D01*
X10163396Y-17210384D01*
X9897421Y-17129701D01*
X9706304Y-17027547D01*
X9652299Y-16998681D01*
X9437444Y-16822356D01*
X9261119Y-16607500D01*
X9130100Y-16362380D01*
X9130099Y-16362378D01*
X9049416Y-16096403D01*
X9029000Y-15889115D01*
X9029000Y-15230484D01*
X9049416Y-15023196D01*
X9130099Y-14757221D01*
X9130101Y-14757218D01*
X9261119Y-14512099D01*
X9437444Y-14297244D01*
X9652300Y-14120919D01*
X9897420Y-13989900D01*
X9897422Y-13989899D01*
X10163397Y-13909216D01*
X10440000Y-13881973D01*
X10716604Y-13909216D01*
G37*
G36*
X20316604Y-13909216D02*
G01*
X20582579Y-13989899D01*
X20582581Y-13989900D01*
X20827701Y-14120919D01*
X21042556Y-14297244D01*
X21218881Y-14512099D01*
X21349900Y-14757218D01*
X21349900Y-14757219D01*
X21349901Y-14757221D01*
X21430584Y-15023197D01*
X21451000Y-15230485D01*
X21451000Y-15889116D01*
X21430584Y-16096404D01*
X21374405Y-16281600D01*
X21349900Y-16362381D01*
X21218881Y-16607501D01*
X21042556Y-16822356D01*
X20827700Y-16998681D01*
X20773695Y-17027547D01*
X20582578Y-17129701D01*
X20316603Y-17210384D01*
X20040000Y-17237627D01*
X19763396Y-17210384D01*
X19497421Y-17129701D01*
X19306304Y-17027547D01*
X19252299Y-16998681D01*
X19037444Y-16822356D01*
X18861119Y-16607500D01*
X18730100Y-16362380D01*
X18730099Y-16362378D01*
X18649416Y-16096403D01*
X18629000Y-15889115D01*
X18629000Y-15230484D01*
X18649416Y-15023196D01*
X18730099Y-14757221D01*
X18730101Y-14757218D01*
X18861119Y-14512099D01*
X19037444Y-14297244D01*
X19252300Y-14120919D01*
X19497420Y-13989900D01*
X19497422Y-13989899D01*
X19763397Y-13909216D01*
X20040000Y-13881973D01*
X20316604Y-13909216D01*
G37*
G36*
X3822778Y-14487547D02*
G01*
X3989224Y-14556491D01*
X4139022Y-14656583D01*
X4266417Y-14783978D01*
X4366509Y-14933776D01*
X4435453Y-15100222D01*
X4470600Y-15276918D01*
X4470600Y-15457082D01*
X4435453Y-15633778D01*
X4366509Y-15800224D01*
X4266417Y-15950022D01*
X4139022Y-16077417D01*
X3989224Y-16177509D01*
X3822778Y-16246453D01*
X3646082Y-16281600D01*
X3465918Y-16281600D01*
X3289222Y-16246453D01*
X3122776Y-16177509D01*
X2972978Y-16077417D01*
X2845583Y-15950022D01*
X2745491Y-15800224D01*
X2676547Y-15633778D01*
X2641400Y-15457082D01*
X2641400Y-15276918D01*
X2676547Y-15100222D01*
X2745491Y-14933776D01*
X2845583Y-14783978D01*
X2972978Y-14656583D01*
X3122776Y-14556491D01*
X3289222Y-14487547D01*
X3465918Y-14452400D01*
X3646082Y-14452400D01*
X3822778Y-14487547D01*
G37*
G36*
X6362778Y-14487547D02*
G01*
X6529224Y-14556491D01*
X6679022Y-14656583D01*
X6806417Y-14783978D01*
X6906509Y-14933776D01*
X6975453Y-15100222D01*
X7010600Y-15276918D01*
X7010600Y-15457082D01*
X6975453Y-15633778D01*
X6906509Y-15800224D01*
X6806417Y-15950022D01*
X6679022Y-16077417D01*
X6529224Y-16177509D01*
X6362778Y-16246453D01*
X6186082Y-16281600D01*
X6005918Y-16281600D01*
X5829222Y-16246453D01*
X5662776Y-16177509D01*
X5512978Y-16077417D01*
X5385583Y-15950022D01*
X5285491Y-15800224D01*
X5216547Y-15633778D01*
X5181400Y-15457082D01*
X5181400Y-15276918D01*
X5216547Y-15100222D01*
X5285491Y-14933776D01*
X5385583Y-14783978D01*
X5512978Y-14656583D01*
X5662776Y-14556491D01*
X5829222Y-14487547D01*
X6005918Y-14452400D01*
X6186082Y-14452400D01*
X6362778Y-14487547D01*
G37*
M02*
