<?xml version="1.0" encoding="UTF-8" standalone="no"?>
<!-- Created with Inkscape (http://www.inkscape.org/) -->

<svg
   width="30.48mm"
   height="128.5mm"
   viewBox="0 0 30.48 128.5"
   version="1.1"
   id="svg217"
   sodipodi:docname="panel_pcb.svg"
   xml:space="preserve"
   inkscape:version="1.2.1 (9c6d41e410, 2022-07-14, custom)"
   xmlns:inkscape="http://www.inkscape.org/namespaces/inkscape"
   xmlns:sodipodi="http://sodipodi.sourceforge.net/DTD/sodipodi-0.dtd"
   xmlns="http://www.w3.org/2000/svg"
   xmlns:svg="http://www.w3.org/2000/svg"
   xmlns:serif="http://www.serif.com/"><sodipodi:namedview
     id="namedview219"
     pagecolor="#505050"
     bordercolor="#eeeeee"
     borderopacity="1"
     inkscape:showpageshadow="0"
     inkscape:pageopacity="0"
     inkscape:pagecheckerboard="0"
     inkscape:deskcolor="#505050"
     inkscape:document-units="mm"
     showgrid="false"
     inkscape:zoom="7.7544747"
     inkscape:cx="27.725927"
     inkscape:cy="379.00697"
     inkscape:window-width="2256"
     inkscape:window-height="1464"
     inkscape:window-x="0"
     inkscape:window-y="40"
     inkscape:window-maximized="1"
     inkscape:current-layer="g253" /><defs
     id="defs214">
        
        
        
        
        
        
        
        
        
        
        
        
        
        
        
        
        
        
        
        
        
        
        
        
    
            
        
            
        
            
        
            
        
            
        
            
        
            
        
            
        
            
        
            
        
            
        
            
        
            
        
            
        
            
        
            
        
            
        
            
        
                
                
            
                
                
            
                
                
            
                
                
            
        
    
            
            
        
        
        
        
        
    
        
        
        
        
        
        
        
        
        
        
        
        
        
        
        
        
        
        
        
        
        
        
        
        
        
        
        
        
        
        
        
        
        
        
        
        
        
        
        
        
        
        
        
        
        
        
        
        
        
        
        
        
        
    
            
        
            
        
            
        
            
        
            
            
        
            
        
            
        
            
        
            
        
            
        
            
        
            
        
            
        
            
        
            
        
            
        
            
        
            
        
            
        
            
        
            
        
            
        
            
        
            
        
            
        
            
            
            
            
            
            
        
            
        
                
                
            
                
                
            <filter
   style="color-interpolation-filters:sRGB;"
   inkscape:label="Invert"
   id="filter1599"
   x="0"
   y="0"
   width="1"
   height="1"><feColorMatrix
     type="hueRotate"
     values="180"
     result="color1"
     id="feColorMatrix1595" /><feColorMatrix
     values="-1 0 0 0 1 0 -1 0 0 1 0 0 -1 0 1 -0.21 -0.72 -0.07 2 0 "
     result="color2"
     id="feColorMatrix1597" /></filter>
        
        
        
        
        
        
        
        
        
        
        
        
        
        
        
        
        
        
        
        
    
            
        
            
        
            
        
            
        
            
        
            
        
            
        
            
        
            
        
            
        
            
        
            
        
            
        
            
        
        
        
        
        
        
        
        
        
        
        
        
        
        
        
        
        
        
        
        
        
        
        
        
        
        
        
        
        
        
        
        
        
        
        
        
        
        
        
        
        
        
        
        
        
        
        
        
        
        
        
        
        
        
    
            
        
            
        
            
        
            
        
            
        
            
        
            
        
            
        
            
        
            
        
            
        
            
        
            
        
            
        
            
        
            
        
            
        
            
        
            
        
            
            
            
            
            
            
        
            
            
        
            
        
            
        
            
        
            
        
            
        
            
        
                
                
            
                
                
            
        
        
        
        
    
        
        
        
        
        
        
    
            
        
            
        
            
        
            
        
        
        
        
        
        
        
    
            
            
            
        
            
            
            
        
            
            
            
        
            
            
            
        </defs><g
     inkscape:label="[fixed] BG"
     inkscape:groupmode="layer"
     id="g245"
     sodipodi:insensitive="true"><rect
       x="0"
       y="0"
       width="30.48"
       height="128.5"
       style="fill:#ffffff;fill-opacity:1;stroke:none;stroke-width:0.999672"
       id="rect243" /></g><g
     inkscape:label="Edge.Cuts"
     inkscape:groupmode="layer"
     id="g247"
     style="display:inline"><path
       id="_6HP"
       style="clip-rule:evenodd;fill:none;fill-rule:evenodd;stroke:#ff0000;stroke-width:0.1;stroke-linecap:round;stroke-linejoin:round;stroke-miterlimit:1.5"
       d="M 0 8.44727e-08 L 30.48 8.44727e-08 L 30.48 128.5 L 0 128.5 L 0 8.44727e-08" /><path
       id="hole"
       d="M 9.59988 3.00011 L 9.59161 2.8366 L 9.56735 2.67778 L 9.52791 2.52448 L 9.47408 2.37749 L 9.40668 2.23762 L 9.32652 2.10568 L 9.1311 1.86882 L 8.89429 1.67335 L 8.76237 1.59316 L 8.62252 1.52574 L 8.47555 1.4719 L 8.32226 1.43244 L 8.16345 1.40818 L 7.99994 1.39991 L 4.80007 1.39991 L 4.63656 1.40818 L 4.47774 1.43244 L 4.32444 1.4719 L 4.17745 1.52574 L 4.03758 1.59316 L 3.90564 1.67335 L 3.66878 1.86882 L 3.47331 2.10568 L 3.39312 2.23762 L 3.3257 2.37749 L 3.27186 2.52448 L 3.23241 2.67778 L 3.20814 2.8366 L 3.19987 3.00011 L 3.20814 3.16358 L 3.23241 3.32235 L 3.27186 3.47562 L 3.3257 3.62258 L 3.39312 3.76242 L 3.47331 3.89434 L 3.66878 4.13117 L 3.90564 4.32662 L 4.03758 4.4068 L 4.17745 4.47422 L 4.32444 4.52806 L 4.47774 4.56751 L 4.63656 4.59178 L 4.80007 4.60005 L 7.99994 4.60005 L 8.16345 4.59178 L 8.32226 4.56751 L 8.47555 4.52806 L 8.62252 4.47422 L 8.76237 4.4068 L 8.89429 4.32662 L 9.1311 4.13117 L 9.32652 3.89434 L 9.40668 3.76242 L 9.47408 3.62258 L 9.52791 3.47562 L 9.56735 3.32235 L 9.59161 3.16358 L 9.59988 3.00011 L 9.59988 3.00011"
       style="display:inline;clip-rule:evenodd;fill:none;fill-rule:evenodd;stroke:#ff0000;stroke-width:0.0343958px;stroke-linecap:round;stroke-linejoin:round;stroke-miterlimit:1.5" /><path
       id="hole1"
       serif:id="hole"
       d="M 27.2801 3.00011 L 27.2719 2.8366 L 27.2476 2.67778 L 27.2081 2.52448 L 27.1543 2.37749 L 27.0869 2.23762 L 27.0067 2.10568 L 26.8112 1.86882 L 26.5744 1.67335 L 26.4424 1.59316 L 26.3026 1.52574 L 26.1556 1.4719 L 26.0023 1.43244 L 25.8434 1.40818 L 25.6799 1.39991 L 22.4801 1.39991 L 22.3165 1.40818 L 22.1577 1.43244 L 22.0044 1.4719 L 21.8575 1.52574 L 21.7176 1.59316 L 21.5857 1.67335 L 21.3489 1.86882 L 21.1535 2.10568 L 21.0733 2.23762 L 21.0059 2.37749 L 20.9521 2.52448 L 20.9126 2.67778 L 20.8884 2.8366 L 20.8801 3.00011 L 20.8884 3.16358 L 20.9126 3.32235 L 20.9521 3.47562 L 21.0059 3.62258 L 21.0733 3.76242 L 21.1535 3.89434 L 21.3489 4.13117 L 21.5857 4.32662 L 21.7176 4.4068 L 21.8575 4.47422 L 22.0044 4.52806 L 22.1577 4.56751 L 22.3165 4.59178 L 22.4801 4.60005 L 25.6799 4.60005 L 25.8434 4.59178 L 26.0023 4.56751 L 26.1556 4.52806 L 26.3026 4.47422 L 26.4424 4.4068 L 26.5744 4.32662 L 26.8112 4.13117 L 27.0067 3.89434 L 27.0869 3.76242 L 27.1543 3.62258 L 27.2081 3.47562 L 27.2476 3.32235 L 27.2719 3.16358 L 27.2801 3.00011 L 27.2801 3.00011"
       style="display:inline;clip-rule:evenodd;fill:none;fill-rule:evenodd;stroke:#ff0000;stroke-width:0.0343958px;stroke-linecap:round;stroke-linejoin:round;stroke-miterlimit:1.5" /><path
       id="hole2"
       serif:id="hole"
       d="M 9.59988 125.5 L 9.59161 125.337 L 9.56735 125.178 L 9.52791 125.024 L 9.47408 124.877 L 9.40668 124.738 L 9.32652 124.606 L 9.1311 124.369 L 8.89429 124.173 L 8.76237 124.093 L 8.62252 124.026 L 8.47555 123.972 L 8.32226 123.932 L 8.16345 123.908 L 7.99994 123.9 L 4.80007 123.9 L 4.63656 123.908 L 4.47774 123.932 L 4.32444 123.972 L 4.17745 124.026 L 4.03758 124.093 L 3.90564 124.173 L 3.66878 124.369 L 3.47331 124.606 L 3.39312 124.738 L 3.3257 124.877 L 3.27186 125.024 L 3.23241 125.178 L 3.20814 125.337 L 3.19987 125.5 L 3.20814 125.664 L 3.23241 125.822 L 3.27186 125.976 L 3.3257 126.123 L 3.39312 126.262 L 3.47331 126.394 L 3.66878 126.631 L 3.90564 126.827 L 4.03758 126.907 L 4.17745 126.974 L 4.32444 127.028 L 4.47774 127.067 L 4.63656 127.092 L 4.80007 127.1 L 7.99994 127.1 L 8.16345 127.092 L 8.32226 127.067 L 8.47555 127.028 L 8.62252 126.974 L 8.76237 126.907 L 8.89429 126.827 L 9.1311 126.631 L 9.32652 126.394 L 9.40668 126.262 L 9.47408 126.123 L 9.52791 125.976 L 9.56735 125.822 L 9.59161 125.664 L 9.59988 125.5 L 9.59988 125.5"
       style="display:inline;clip-rule:evenodd;fill:none;fill-rule:evenodd;stroke:#ff0000;stroke-width:0.0343958px;stroke-linecap:round;stroke-linejoin:round;stroke-miterlimit:1.5" /><path
       id="hole3"
       serif:id="hole"
       d="M 27.2801 125.5 L 27.2719 125.337 L 27.2476 125.178 L 27.2081 125.024 L 27.1543 124.877 L 27.0869 124.738 L 27.0067 124.606 L 26.8112 124.369 L 26.5744 124.173 L 26.4424 124.093 L 26.3026 124.026 L 26.1556 123.972 L 26.0023 123.932 L 25.8434 123.908 L 25.6799 123.9 L 22.4801 123.9 L 22.3165 123.908 L 22.1577 123.932 L 22.0044 123.972 L 21.8575 124.026 L 21.7176 124.093 L 21.5857 124.173 L 21.3489 124.369 L 21.1535 124.606 L 21.0733 124.738 L 21.0059 124.877 L 20.9521 125.024 L 20.9126 125.178 L 20.8884 125.337 L 20.8801 125.5 L 20.8884 125.664 L 20.9126 125.822 L 20.9521 125.976 L 21.0059 126.123 L 21.0733 126.262 L 21.1535 126.394 L 21.3489 126.631 L 21.5857 126.827 L 21.7176 126.907 L 21.8575 126.974 L 22.0044 127.028 L 22.1577 127.067 L 22.3165 127.092 L 22.4801 127.1 L 25.6799 127.1 L 25.8434 127.092 L 26.0023 127.067 L 26.1556 127.028 L 26.3026 126.974 L 26.4424 126.907 L 26.5744 126.827 L 26.8112 126.631 L 27.0067 126.394 L 27.0869 126.262 L 27.1543 126.123 L 27.2081 125.976 L 27.2476 125.822 L 27.2719 125.664 L 27.2801 125.5 L 27.2801 125.5"
       style="display:inline;clip-rule:evenodd;fill:none;fill-rule:evenodd;stroke:#ff0000;stroke-width:0.0343958px;stroke-linecap:round;stroke-linejoin:round;stroke-miterlimit:1.5" /></g><g
     inkscape:label="F.Cu"
     inkscape:groupmode="layer"
     id="g249"
     sodipodi:insensitive="true"><path
       id="output-3"
       d="m 15.240231,89.07785 c -1.103841,0 -2.00025,-0.896144 -2.00025,-1.999985 0,-0.709348 0.370152,-1.332971 0.927629,-1.688042 l 7.59804,-4.63259 c 0.684742,-0.422804 1.491456,-0.667014 2.354792,-0.667014 2.478881,0 4.491302,2.012421 4.491302,4.491302 0,2.478881 -2.012421,4.491302 -4.491302,4.491302 z"
       style="clip-rule:evenodd;fill:#939598;fill-rule:evenodd;stroke:#939598;stroke-width:0.706438px;stroke-linecap:butt;stroke-linejoin:round;stroke-miterlimit:1.5" /><path
       id="output1-6"
       serif:id="output"
       d="m 15.240231,99.235995 c -1.103841,0 -2.00025,-0.89641 -2.00025,-2.00025 0,-0.70935 0.370152,-1.3327 0.927629,-1.68804 l 7.59804,-4.632589 c 0.684742,-0.4228 1.491456,-0.66675 2.354792,-0.66675 2.478881,0 4.491302,2.01242 4.491302,4.491039 0,2.47888 -2.012421,4.4913 -4.491302,4.4913 z"
       style="clip-rule:evenodd;fill:#939598;fill-rule:evenodd;stroke:#939598;stroke-width:0.706438px;stroke-linecap:butt;stroke-linejoin:round;stroke-miterlimit:1.5" /><path
       id="output2-7"
       serif:id="output"
       d="m 15.240231,109.39495 c -1.103841,0 -2.00025,-0.89615 -2.00025,-1.99999 0,-0.70935 0.370152,-1.33297 0.927629,-1.68804 l 7.59804,-4.63259 c 0.684742,-0.4228 1.491456,-0.66701 2.354792,-0.66701 2.478881,0 4.491302,2.01242 4.491302,4.4913 0,2.47888 -2.012421,4.4913 -4.491302,4.4913 z"
       style="clip-rule:evenodd;fill:#939598;fill-rule:evenodd;stroke:#939598;stroke-width:0.706438px;stroke-linecap:butt;stroke-linejoin:round;stroke-miterlimit:1.5" /><path
       id="output3-5"
       serif:id="output"
       d="m 15.235204,119.57585 c -1.103842,0 -1.999985,-0.89614 -1.999985,-1.99999 0,-0.70934 0.370152,-1.33297 0.927629,-1.68804 l 7.597775,-4.63259 c 0.685006,-0.4228 1.491721,-0.66701 2.355056,-0.66701 2.478617,0 4.491037,2.01242 4.491037,4.4913 0,2.47888 -2.01242,4.4913 -4.491037,4.4913 z"
       style="clip-rule:evenodd;fill:#939598;fill-rule:evenodd;stroke:#939598;stroke-width:0.706438px;stroke-linecap:butt;stroke-linejoin:round;stroke-miterlimit:1.5" /></g><g
     inkscape:label="F.Mask"
     inkscape:groupmode="layer"
     id="g251"
     sodipodi:insensitive="true"><path
       id="output"
       d="m 15.239735,89.078328 c -1.103841,0 -2.00025,-0.896144 -2.00025,-1.999985 0,-0.709348 0.370152,-1.332971 0.927629,-1.688042 l 7.59804,-4.63259 c 0.684742,-0.422804 1.491456,-0.667014 2.354792,-0.667014 2.478881,0 4.491302,2.012421 4.491302,4.491302 0,2.478881 -2.012421,4.491302 -4.491302,4.491302 z"
       style="clip-rule:evenodd;fill:#939598;fill-rule:evenodd;stroke:#939598;stroke-width:0.706438px;stroke-linecap:butt;stroke-linejoin:round;stroke-miterlimit:1.5" /><path
       id="output1"
       serif:id="output"
       d="m 15.239735,99.236476 c -1.103841,0 -2.00025,-0.896408 -2.00025,-2.00025 0,-0.709348 0.370152,-1.332706 0.927629,-1.688042 l 7.59804,-4.632589 c 0.684742,-0.422804 1.491456,-0.66675 2.354792,-0.66675 2.478881,0 4.491302,2.012421 4.491302,4.491037 0,2.478881 -2.012421,4.491302 -4.491302,4.491302 z"
       style="clip-rule:evenodd;fill:#939598;fill-rule:evenodd;stroke:#939598;stroke-width:0.706438px;stroke-linecap:butt;stroke-linejoin:round;stroke-miterlimit:1.5" /><path
       id="output2"
       serif:id="output"
       d="m 15.239735,109.39542 c -1.103841,0 -2.00025,-0.89615 -2.00025,-1.99999 0,-0.70935 0.370152,-1.33297 0.927629,-1.68804 l 7.59804,-4.63259 c 0.684742,-0.4228 1.491456,-0.66701 2.354792,-0.66701 2.478881,0 4.491302,2.01242 4.491302,4.4913 0,2.47888 -2.012421,4.4913 -4.491302,4.4913 z"
       style="clip-rule:evenodd;fill:#939598;fill-rule:evenodd;stroke:#939598;stroke-width:0.706438px;stroke-linecap:butt;stroke-linejoin:round;stroke-miterlimit:1.5" /><path
       id="output3"
       serif:id="output"
       d="m 15.234708,119.57632 c -1.103842,0 -1.999985,-0.89614 -1.999985,-1.99999 0,-0.70934 0.370152,-1.33297 0.927629,-1.68804 l 7.597775,-4.63259 c 0.685006,-0.4228 1.491721,-0.66701 2.355056,-0.66701 2.478617,0 4.491037,2.01242 4.491037,4.4913 0,2.47888 -2.01242,4.4913 -4.491037,4.4913 z"
       style="clip-rule:evenodd;fill:#939598;fill-rule:evenodd;stroke:#939598;stroke-width:0.706438px;stroke-linecap:butt;stroke-linejoin:round;stroke-miterlimit:1.5" /></g><g
     inkscape:label="F.SilkS"
     inkscape:groupmode="layer"
     id="g253"
     sodipodi:insensitive="true"><path
       d="m 15.247144,58.854445 v 5.462323 l -0.62865,0.599546"
       style="clip-rule:evenodd;fill:none;fill-rule:evenodd;stroke:#000000;stroke-width:0.351896px;stroke-linecap:butt;stroke-linejoin:round;stroke-miterlimit:1.5"
       id="path5178" /><path
       d="M 8.8849728,62.488233 V 59.726512"
       style="clip-rule:evenodd;fill:none;fill-rule:evenodd;stroke:#000000;stroke-width:0.351896px;stroke-linecap:butt;stroke-linejoin:round;stroke-miterlimit:1.5"
       id="path5180" /><rect
       x="6.0864749"
       y="60.640118"
       width="0.82417709"
       height="0.22595416"
       style="clip-rule:evenodd;fill:#000000;fill-rule:nonzero;stroke-width:0.264583;stroke-linecap:round;stroke-linejoin:round;stroke-miterlimit:1.5"
       id="rect5182" /><path
       d="m 11.931914,60.85787 h -0.541602 v 0.56224 h -0.237066 v -0.56224 h -0.541602 v -0.20955 h 0.541602 v -0.558006 h 0.237066 v 0.558006 h 0.541602 z"
       style="clip-rule:evenodd;fill:#000000;fill-rule:nonzero;stroke-width:0.264583;stroke-linecap:round;stroke-linejoin:round;stroke-miterlimit:1.5"
       id="path5184" /><path
       id="dial"
       d="m 8.9370957,62.349591 h -0.052123 c -4.4415604,0 -8.04783114,3.606006 -8.04783114,8.047831 0,2.875227 1.53405414,5.531908 4.02404784,6.969654 l 0.1764771,-0.305594 c -2.3809854,-1.37451 -3.8475708,-3.914775 -3.8475708,-6.66406 0,-4.247092 3.44805,-7.695142 7.694877,-7.695142 l 0.049742,2.65e-4 c 4.2243373,0.02672 7.6453993,3.464454 7.6453993,7.694877 0,2.749285 -1.466585,5.28955 -3.84757,6.66406 l 0.176477,0.305594 0.05821,-0.03387 c 2.455598,-1.445154 3.96584,-4.08305 3.96584,-6.935787 0,-4.424362 -3.578225,-8.019785 -7.9959731,-8.047831 z"
       style="clip-rule:evenodd;fill:#000000;fill-rule:evenodd;stroke-width:0.264583;stroke-linecap:round;stroke-linejoin:round;stroke-miterlimit:1.5" /><path
       d="m 8.8849728,42.363495 v 8.436504 l 4.9156932,4.686036"
       style="clip-rule:evenodd;fill:none;fill-rule:evenodd;stroke:#000000;stroke-width:0.346604px;stroke-linecap:butt;stroke-linejoin:round;stroke-miterlimit:1.5"
       id="path5188" /><path
       id="dial1"
       serif:id="dial"
       d="m 8.9421228,34.319633 -0.052123,-2.65e-4 c -4.441825,0 -8.04783116,3.606271 -8.04783116,8.047831 0,2.875228 1.53378956,5.532173 4.02378326,6.969655 L 5.042429,49.031524 C 2.6617083,47.656749 1.1948583,45.116485 1.1948583,42.367199 c 0,-4.246827 3.44805,-7.694877 7.6951416,-7.694877 h 0.049742 c 4.2240721,0.02672 7.6453991,3.464455 7.6453991,7.694877 0,2.749286 -1.46685,5.28955 -3.84757,6.664325 l 0.176477,0.30533 0.05794,-0.03387 c 2.455862,-1.445154 3.965839,-4.082785 3.965839,-6.935788 0,-4.424362 -3.57796,-8.01952 -7.9957079,-8.047566 z"
       style="clip-rule:evenodd;fill:#000000;fill-rule:evenodd;stroke-width:0.264583;stroke-linecap:round;stroke-linejoin:round;stroke-miterlimit:1.5" /><path
       d="m 15.236031,32.490039 0.01111,3.860536 -0.62865,0.599545"
       style="clip-rule:evenodd;fill:none;fill-rule:evenodd;stroke:#000000;stroke-width:0.346604px;stroke-linecap:butt;stroke-linejoin:round;stroke-miterlimit:1.5"
       id="path5192" /><path
       d="m 15.236031,28.480014 0.01111,-13.432631"
       style="clip-rule:evenodd;fill:none;fill-rule:evenodd;stroke:#000000;stroke-width:0.351896px;stroke-linecap:butt;stroke-linejoin:round;stroke-miterlimit:1.5"
       id="path5194" /><path
       d="m 17.986639,127.09551 c 0.05054,8e-4 0.124884,10e-4 0.223044,8e-4 l 0.427567,-0.72523 h -8.035131 c -0.144727,0.2675 -0.26035,0.51568 -0.34634,0.74428 l 7.73086,-0.0198 m -0.03889,-1.38297 c -0.06773,0.11244 -0.135996,0.2323 -0.204523,0.3593 l 1.063096,7.9e-4 c 0.09022,-0.14261 0.216164,-0.31697 0.378089,-0.52255 0.161396,-0.20505 0.309563,-0.28628 0.443706,-0.24315 0.12065,0.041 0.238125,0.0331 0.352161,-0.0238 0.113771,-0.0564 0.191558,-0.14447 0.232833,-0.26459 0.04048,-0.12065 0.03254,-0.23786 -0.02381,-0.35189 -0.05662,-0.11404 -0.144992,-0.19156 -0.264584,-0.23284 -0.633941,-0.28283 -1.293018,0.14341 -1.976966,1.27874 m -0.745332,-0.21141 c -0.02619,-0.0574 -0.0553,-0.11244 -0.08731,-0.16563 -0.343429,-0.5707 -1.012561,-0.86915 -2.007658,-0.89482 v -1.32529 c -0.417248,0.34872 -0.939536,0.78475 -1.567392,1.30783 v -1.30783 c -0.587375,0.38391 -1.101725,0.7948 -1.543579,1.23295 -0.03916,0.0384 -0.07779,0.0773 -0.115888,0.11669 -0.393964,0.40587 -0.72681,0.83423 -0.998537,1.28534 -0.01746,0.0278 -0.0672,0.13494 -0.149754,0.32147 h 6.501077 l 0.100541,-0.006 c -0.0069,-0.17092 -0.04048,-0.33125 -0.100541,-0.48101 -0.01111,-0.0349 -0.02143,-0.0627 -0.03096,-0.0836 m -5.066241,-0.0532 c -0.03069,-0.0312 -0.05212,-0.0664 -0.06456,-0.10504 -0.0085,-0.0265 -0.0127,-0.0545 -0.0127,-0.0841 0,-0.0736 0.02567,-0.13626 0.07726,-0.18839 0.05212,-0.0516 0.115094,-0.0773 0.189177,-0.0773 0.07329,0 0.135996,0.0257 0.188119,0.0773 0.0011,0.001 0.0019,0.002 0.0029,0.003 0.05001,0.0516 0.07488,0.11324 0.07488,0.18521 0,0.0738 -0.02593,0.13705 -0.07779,0.18917 -0.05212,0.0513 -0.11483,0.0773 -0.188119,0.0773 -0.07408,0 -0.137054,-0.0259 -0.189177,-0.0773 m 1.655233,-0.45587 c 0.07408,0 0.137054,0.0262 0.189177,0.0783 0.05159,0.0516 0.07726,0.1143 0.07726,0.18839 0,0.0733 -0.02566,0.13599 -0.07726,0.18811 -0.05212,0.0521 -0.115094,0.0783 -0.189177,0.0783 -0.07329,0 -0.135996,-0.0262 -0.188119,-0.0783 -0.05186,-0.0521 -0.07779,-0.11482 -0.07779,-0.18811 0,-0.0741 0.02593,-0.13679 0.07779,-0.18839 0.05212,-0.0521 0.114829,-0.0783 0.188119,-0.0783 z"
       style="clip-rule:evenodd;fill:#000000;fill-rule:nonzero;stroke-width:0.264583;stroke-linecap:round;stroke-linejoin:round;stroke-miterlimit:1.5"
       id="path5196" /><path
       d="M 12.049919,3.475302 H 11.720512 L 11.075458,2.7339395 V 3.475302 H 10.835746 V 1.5279687 h 0.239712 V 2.72415 l 0.621506,-0.6323542 h 0.316971 l -0.649023,0.6379104 z"
       style="clip-rule:evenodd;fill:#000000;fill-rule:nonzero;stroke-width:0.264583;stroke-linecap:round;stroke-linejoin:round;stroke-miterlimit:1.5"
       id="path5199" /><path
       d="M 12.828323,2.2902333 H 12.419277 V 2.0917958 h 0.651669 v 1.1837458 h 0.411956 V 3.475302 H 12.373769 V 3.2755416 h 0.454554 z m 0.08414,-0.7786687 c 0.02672,0 0.05159,0.00476 0.07435,0.014552 0.02302,0.00953 0.04313,0.023019 0.06006,0.040481 0.01693,0.017462 0.03043,0.037571 0.03995,0.06006 0.0095,0.02249 0.01455,0.047096 0.01455,0.073819 0,0.025664 -0.005,0.050006 -0.01455,0.073025 -0.0095,0.022754 -0.02302,0.043127 -0.03995,0.06059 -0.01693,0.017462 -0.03704,0.030956 -0.06006,0.040481 -0.02275,0.00979 -0.04763,0.014552 -0.07435,0.014552 -0.02672,0 -0.05133,-0.00476 -0.07435,-0.014552 -0.02302,-0.00953 -0.04286,-0.023019 -0.06006,-0.040481 -0.01693,-0.017462 -0.03016,-0.037835 -0.03995,-0.06059 -0.0095,-0.023019 -0.01429,-0.04736 -0.01429,-0.073025 0,-0.026723 0.0048,-0.051329 0.01429,-0.073819 0.0098,-0.02249 0.02302,-0.042598 0.03995,-0.06006 0.0172,-0.017463 0.03704,-0.030956 0.06006,-0.040481 0.02302,-0.00979 0.04763,-0.014552 0.07435,-0.014552 z"
       style="clip-rule:evenodd;fill:#000000;fill-rule:nonzero;stroke-width:0.264583;stroke-linecap:round;stroke-linejoin:round;stroke-miterlimit:1.5"
       id="path5201" /><path
       d="m 14.380104,1.7250833 h -0.40931 V 1.5279687 h 0.651933 v 1.7475729 h 0.411956 V 3.475302 H 13.925285 V 3.2755416 h 0.454819 z"
       style="clip-rule:evenodd;fill:#000000;fill-rule:nonzero;stroke-width:0.264583;stroke-linecap:round;stroke-linejoin:round;stroke-miterlimit:1.5"
       id="path5203" /><path
       d="m 16.575352,3.4559875 c -0.05424,0.013758 -0.110331,0.023548 -0.168275,0.029633 -0.05768,0.00582 -0.116681,0.009 -0.176213,0.009 -0.173566,0 -0.303212,-0.039423 -0.388673,-0.1180041 C 15.756731,3.2982958 15.714133,3.1776458 15.714133,3.014927 V 2.2928791 h -0.38735 V 2.0917958 h 0.38735 V 1.711325 l 0.239713,-0.061913 v 0.4423833 h 0.621506 V 2.2928786 H 15.953846 V 2.995612 c 0,0.099219 0.02646,0.1735666 0.07911,0.2227791 0.05292,0.048948 0.130704,0.073554 0.233627,0.073554 0.04419,0 0.09234,-0.00344 0.144727,-0.010319 0.05239,-0.00688 0.107156,-0.017727 0.164042,-0.032279 z"
       style="clip-rule:evenodd;fill:#000000;fill-rule:nonzero;stroke-width:0.264583;stroke-linecap:round;stroke-linejoin:round;stroke-miterlimit:1.5"
       id="path5205" /><path
       d="m 18.180844,2.7103916 c 0,0.034131 -5.3e-4,0.062442 -0.0016,0.08546 -7.94e-4,0.023019 -0.0021,0.044715 -0.004,0.064823 h -0.97155 c 0,0.141552 0.03942,0.2500312 0.118534,0.3259666 0.07884,0.075671 0.192881,0.1135063 0.341577,0.1135063 0.04048,0 0.08096,-0.00159 0.121443,-0.00476 0.04048,-0.00317 0.07937,-0.00741 0.117211,-0.012965 0.03757,-0.00556 0.07355,-0.011906 0.10795,-0.018785 0.03466,-0.00688 0.06641,-0.014288 0.09578,-0.022754 v 0.1971146 c -0.06509,0.018521 -0.138906,0.033338 -0.221192,0.044979 -0.08202,0.011377 -0.167216,0.017198 -0.255587,0.017198 -0.118533,0 -0.220398,-0.01614 -0.305858,-0.048419 -0.08546,-0.032015 -0.155575,-0.078581 -0.21008,-0.1397 -0.05477,-0.061119 -0.09525,-0.1359958 -0.121443,-0.2246312 -0.02619,-0.088635 -0.03916,-0.1891771 -0.03916,-0.3010959 0,-0.097367 0.01402,-0.1894416 0.04207,-0.2764895 0.02805,-0.086783 0.06879,-0.1629834 0.122502,-0.2286 0.05371,-0.065617 0.119856,-0.1177396 0.197908,-0.1563688 0.07805,-0.038629 0.166688,-0.057944 0.265907,-0.057944 0.09657,0 0.181768,0.015081 0.256381,0.045508 0.07435,0.030162 0.137054,0.07329 0.188119,0.1288521 0.0508,0.055562 0.08943,0.1230312 0.115623,0.2024062 0.02619,0.07964 0.03942,0.1685396 0.03942,0.2667 z m -0.249503,-0.034396 c 0.0026,-0.061648 -0.0032,-0.1177396 -0.01799,-0.1688042 -0.01455,-0.051065 -0.03731,-0.094721 -0.06826,-0.1314979 -0.03069,-0.036777 -0.06906,-0.065617 -0.115093,-0.086254 -0.04577,-0.020638 -0.09922,-0.030956 -0.159809,-0.030956 -0.05239,0 -0.100012,0.010054 -0.143139,0.030162 -0.04339,0.020373 -0.08043,0.048948 -0.111655,0.08546 -0.03122,0.036777 -0.05662,0.080963 -0.07594,0.1322917 -0.01931,0.051594 -0.03122,0.10795 -0.03572,0.1695979 z"
       style="clip-rule:evenodd;fill:#000000;fill-rule:nonzero;stroke-width:0.264583;stroke-linecap:round;stroke-linejoin:round;stroke-miterlimit:1.5"
       id="path5207" /><path
       d="m 18.620316,2.0917958 h 0.219075 l 0.0069,0.2547938 c 0.08176,-0.098161 0.162454,-0.1693334 0.241829,-0.2135188 0.07964,-0.044185 0.159808,-0.066146 0.240506,-0.066146 0.143404,0 0.251883,0.046302 0.325967,0.1391708 0.07382,0.092869 0.108214,0.2307167 0.102658,0.4132792 h -0.242623 c 0.0029,-0.1211792 -0.01482,-0.2090209 -0.05292,-0.2637896 -0.0381,-0.054769 -0.09393,-0.082021 -0.167481,-0.082021 -0.03228,0 -0.06456,0.00582 -0.0971,0.017198 -0.03281,0.011642 -0.06615,0.029898 -0.100542,0.055298 -0.03466,0.025135 -0.07117,0.057679 -0.109802,0.097102 -0.03836,0.039423 -0.0799,0.087312 -0.123825,0.1431396 V 3.475302 h -0.242623 z"
       style="clip-rule:evenodd;fill:#000000;fill-rule:nonzero;stroke-width:0.264583;stroke-linecap:round;stroke-linejoin:round;stroke-miterlimit:1.5"
       id="path5209" /><path
       d="M 3.1752645,84.075586 H 2.9352875 L 2.8995687,82.95243 2.8844875,82.521159 2.80035,82.771984 2.5344437,83.488476 H 2.3648458 L 2.111375,82.799501 2.027238,82.521159 2.021678,82.971745 1.989928,84.075586 H 1.7584208 l 0.088371,-1.801018 h 0.2907771 l 0.2423584,0.677862 0.078581,0.228865 0.075935,-0.228865 0.2547938,-0.677862 h 0.2989791 z"
       style="clip-rule:evenodd;fill:#000000;fill-rule:nonzero;stroke-width:0.264583;stroke-linecap:round;stroke-linejoin:round;stroke-miterlimit:1.5"
       id="path5212" /><path
       d="M 3.894402,82.481207 H 3.4798 v -0.206639 h 1.0773833 v 0.206639 H 4.1425812 v 1.384829 h 0.4146021 v 0.20955 H 3.4798 v -0.20955 h 0.414602 z"
       style="clip-rule:evenodd;fill:#000000;fill-rule:nonzero;stroke-width:0.264583;stroke-linecap:round;stroke-linejoin:round;stroke-miterlimit:1.5"
       id="path5214" /><path
       d="M 6.3129583,84.075586 H 6.0028666 l -0.43815,-0.727604 -0.4397375,0.727604 H 4.8191208 L 5.4186666,83.155101 4.8672749,82.274568 H 5.158052 l 0.4122208,0.677862 0.4146021,-0.677862 h 0.282575 l -0.5527146,0.869421 z"
       style="clip-rule:evenodd;fill:#000000;fill-rule:nonzero;stroke-width:0.264583;stroke-linecap:round;stroke-linejoin:round;stroke-miterlimit:1.5"
       id="path5216" /><path
       d="M 8.5494811,82.481207 H 8.1346145 v -0.206639 h 1.0776479 v 0.206639 H 8.7976603 v 1.384829 h 0.4146021 v 0.20955 H 8.1346145 v -0.20955 h 0.4148666 z"
       style="clip-rule:evenodd;fill:#000000;fill-rule:nonzero;stroke-width:0.264583;stroke-linecap:round;stroke-linejoin:round;stroke-miterlimit:1.5"
       id="path5218" /><path
       d="M 10.838392,84.075586 H 10.518775 L 9.993577,82.95243 9.8419707,82.591539 v 1.484047 h -0.2286 v -1.801018 h 0.3156479 l 0.5000624,1.063889 0.180446,0.411957 v -1.475846 h 0.228865 z"
       style="clip-rule:evenodd;fill:#000000;fill-rule:nonzero;stroke-width:0.264583;stroke-linecap:round;stroke-linejoin:round;stroke-miterlimit:1.5"
       id="path5220" /><path
       d="m 23.158714,64.530287 c -0.144198,0.0598 -0.295275,0.08943 -0.453231,0.08943 -0.254529,0 -0.450056,-0.07594 -0.586581,-0.228071 -0.136261,-0.151871 -0.204523,-0.376767 -0.204523,-0.674423 0,-0.144198 0.01879,-0.274637 0.05636,-0.391319 0.03784,-0.116681 0.09155,-0.215635 0.161396,-0.297127 0.06985,-0.08123 0.154252,-0.143933 0.253471,-0.188118 0.09922,-0.04392 0.210344,-0.06615 0.333639,-0.06615 0.08361,0 0.161132,0.0071 0.232834,0.02143 0.0717,0.01429 0.140493,0.03625 0.206639,0.06562 v 0.241035 c -0.06509,-0.03572 -0.132821,-0.06323 -0.202671,-0.08202 -0.06959,-0.01879 -0.14605,-0.02831 -0.2286,-0.02831 -0.08467,0 -0.161131,0.01588 -0.229393,0.04763 -0.06853,0.03175 -0.126736,0.07779 -0.174361,0.137848 -0.04789,0.06006 -0.08467,0.133614 -0.110331,0.220398 -0.02567,0.08678 -0.03863,0.186002 -0.03863,0.297127 0,0.233362 0.04736,0.40931 0.142081,0.527579 0.09446,0.118533 0.233363,0.1778 0.41619,0.1778 0.07699,0 0.151077,-0.009 0.221721,-0.02672 0.07091,-0.01799 0.138906,-0.04313 0.203993,-0.07514 z"
       style="clip-rule:evenodd;fill:#000000;fill-rule:nonzero;stroke-width:0.264583;stroke-linecap:round;stroke-linejoin:round;stroke-miterlimit:1.5"
       id="path5222" /><path
       d="m 24.885385,62.796737 -0.611717,1.801018 h -0.330729 l -0.598223,-1.801018 h 0.277019 l 0.388673,1.213908 0.110067,0.3556 0.113241,-0.3556 0.389996,-1.213908 z"
       style="clip-rule:evenodd;fill:#000000;fill-rule:nonzero;stroke-width:0.264583;stroke-linecap:round;stroke-linejoin:round;stroke-miterlimit:1.5"
       id="path5224" /><path
       d="m 26.264923,64.597755 h -1.131359 v -0.223308 h 0.463021 v -1.31445 l -0.431535,0.234156 -0.08811,-0.203993 0.573353,-0.301625 h 0.212195 v 1.585912 h 0.402432 z"
       style="clip-rule:evenodd;fill:#000000;fill-rule:nonzero;stroke-width:0.264583;stroke-linecap:round;stroke-linejoin:round;stroke-miterlimit:1.5"
       id="path5226" /><path
       d="m 23.173531,50.989441 c -0.144198,0.0598 -0.295275,0.08969 -0.453231,0.08969 -0.254529,0 -0.450057,-0.0762 -0.586317,-0.228071 -0.136525,-0.152135 -0.204787,-0.377031 -0.204787,-0.674688 0,-0.144197 0.01878,-0.274637 0.05662,-0.391318 0.03757,-0.116682 0.09128,-0.215636 0.161132,-0.296863 0.06985,-0.08149 0.154516,-0.144198 0.253735,-0.188119 0.09922,-0.04418 0.210344,-0.06614 0.333375,-0.06614 0.08361,0 0.161131,0.0071 0.232833,0.02117 0.0717,0.01429 0.140494,0.03625 0.20664,0.06562 v 0.241035 c -0.06509,-0.03572 -0.132556,-0.06323 -0.202406,-0.08202 -0.06985,-0.01879 -0.14605,-0.02805 -0.228865,-0.02805 -0.0844,0 -0.160867,0.01561 -0.229394,0.04736 -0.06853,0.03175 -0.12647,0.07779 -0.17436,0.137848 -0.04763,0.06006 -0.0844,0.133615 -0.110331,0.220398 -0.02567,0.08705 -0.03836,0.186002 -0.03836,0.297127 0,0.233363 0.0471,0.40931 0.141817,0.527844 0.09472,0.118533 0.233362,0.177535 0.416189,0.177535 0.07726,0 0.151077,-0.0087 0.221986,-0.02672 0.07064,-0.01799 0.138641,-0.04286 0.203729,-0.07514 z"
       style="clip-rule:evenodd;fill:#000000;fill-rule:nonzero;stroke-width:0.264583;stroke-linecap:round;stroke-linejoin:round;stroke-miterlimit:1.5"
       id="path5228" /><path
       d="m 24.900202,49.255891 -0.611717,1.801019 h -0.330729 l -0.597958,-1.801019 h 0.276754 l 0.388673,1.214173 0.110331,0.355335 0.112977,-0.355335 0.389996,-1.214173 z"
       style="clip-rule:evenodd;fill:#000000;fill-rule:nonzero;stroke-width:0.264583;stroke-linecap:round;stroke-linejoin:round;stroke-miterlimit:1.5"
       id="path5230" /><path
       d="m 26.294821,51.05691 h -1.186392 v -0.214842 l 0.465667,-0.463021 c 0.07646,-0.07541 0.138377,-0.140493 0.186002,-0.195791 0.04789,-0.05503 0.0852,-0.105305 0.111654,-0.150813 0.02672,-0.04551 0.04471,-0.08837 0.05371,-0.128852 0.0093,-0.04048 0.01402,-0.08414 0.01402,-0.130969 0,-0.04418 -0.0061,-0.08599 -0.01799,-0.125941 -0.01191,-0.04022 -0.03043,-0.07514 -0.0553,-0.105569 -0.02461,-0.03016 -0.05689,-0.05424 -0.09631,-0.0717 -0.03942,-0.01746 -0.08678,-0.02619 -0.142081,-0.02619 -0.0762,0 -0.145521,0.0172 -0.207963,0.05107 -0.06244,0.03387 -0.119856,0.07805 -0.172243,0.132291 l -0.132292,-0.158485 c 0.068,-0.0717 0.146315,-0.129117 0.23495,-0.172244 0.08864,-0.04313 0.191823,-0.06482 0.309298,-0.06482 0.0799,0 0.152929,0.01191 0.218546,0.03598 0.06562,0.02381 0.122237,0.05821 0.170127,0.103187 0.04789,0.04498 0.08467,0.100277 0.11086,0.165365 0.02619,0.06535 0.03942,0.138906 0.03942,0.220662 0,0.06879 -0.0093,0.132556 -0.02752,0.191558 -0.01852,0.05874 -0.0463,0.117211 -0.08361,0.175684 -0.03704,0.05821 -0.08387,0.118533 -0.140494,0.181239 -0.05636,0.06244 -0.123295,0.130705 -0.200554,0.205317 L 25.41983,50.82832 h 0.874978 z"
       style="clip-rule:evenodd;fill:#000000;fill-rule:nonzero;stroke-width:0.264583;stroke-linecap:round;stroke-linejoin:round;stroke-miterlimit:1.5"
       id="path5232" /><path
       d="M 8.7577082,33.02635 C 8.6621932,33.01259 8.5791145,32.98216 8.5082061,32.93533 8.4375621,32.8885 8.3788249,32.826851 8.3319936,32.750122 c -0.046831,-0.07673 -0.081756,-0.167217 -0.104775,-0.271463 -0.023019,-0.104246 -0.034396,-0.219869 -0.034396,-0.346604 0,-0.163513 0.018785,-0.305065 0.056356,-0.424392 0.037571,-0.119591 0.0889,-0.218016 0.1537229,-0.295539 0.064823,-0.07779 0.1402291,-0.135202 0.2267479,-0.172509 0.086254,-0.03704 0.1778,-0.05556 0.2741083,-0.05556 0.1158875,0 0.2166938,0.0209 0.3024188,0.06271 0.08599,0.04154 0.157427,0.101865 0.2143125,0.180446 0.056885,0.07858 0.099483,0.173567 0.1275291,0.285221 0.028046,0.111654 0.042069,0.237331 0.042069,0.376766 0,0.147109 -0.01561,0.275961 -0.046831,0.386557 -0.031221,0.11086 -0.074083,0.204787 -0.1283229,0.281781 -0.053975,0.07726 -0.1180042,0.137848 -0.1915583,0.182033 -0.07329,0.04419 -0.1524,0.07303 -0.2368021,0.08678 0.013758,0.08096 0.045773,0.145785 0.096308,0.194997 0.050536,0.04921 0.1217084,0.07382 0.2135188,0.07382 0.044185,0 0.087577,-0.0074 0.1304396,-0.02222 0.042598,-0.01455 0.08599,-0.03942 0.130175,-0.07435 l 0.1087437,0.169598 c -0.06059,0.04948 -0.1230312,0.08493 -0.187325,0.106098 -0.064294,0.02117 -0.1304396,0.03175 -0.1984375,0.03175 -0.073554,0 -0.1410229,-0.01032 -0.2026708,-0.03043 -0.061383,-0.02011 -0.1150938,-0.05027 -0.1603375,-0.09022 -0.045508,-0.03995 -0.082021,-0.08996 -0.1095375,-0.150283 -0.027781,-0.06006 -0.044185,-0.129646 -0.049742,-0.208756 z M 9.335029,32.1183 c 0,-0.106627 -0.00794,-0.20373 -0.024077,-0.291571 -0.01614,-0.08758 -0.042069,-0.162984 -0.077787,-0.225954 -0.035983,-0.06297 -0.082021,-0.111919 -0.1386417,-0.146844 -0.056356,-0.03493 -0.1246187,-0.05239 -0.2045229,-0.05239 -0.077258,0 -0.1436688,0.01852 -0.1992313,0.0553 -0.055563,0.03678 -0.1010708,0.08652 -0.1370541,0.14949 -0.035719,0.06297 -0.062442,0.136525 -0.079904,0.220398 -0.017463,0.08414 -0.026194,0.173566 -0.026194,0.268023 0,0.109273 0.0082,0.208491 0.024871,0.297127 0.016404,0.08863 0.042333,0.164571 0.077787,0.228071 0.035454,0.06323 0.081227,0.112183 0.1370542,0.146579 0.056092,0.03466 0.1235604,0.05186 0.2026708,0.05186 0.077258,0 0.1436687,-0.01852 0.1997604,-0.0553 0.056092,-0.03678 0.1021292,-0.08678 0.1386417,-0.150019 0.036248,-0.0635 0.062971,-0.137583 0.080433,-0.222779 0.017463,-0.08493 0.026194,-0.175683 0.026194,-0.271991 z"
       style="clip-rule:evenodd;fill:#000000;fill-rule:nonzero;stroke-width:0.264583;stroke-linecap:round;stroke-linejoin:round;stroke-miterlimit:1.5"
       id="path5234" /><path
       d="m 17.239985,56.852608 h 2.383896"
       style="clip-rule:evenodd;fill:none;fill-rule:evenodd;stroke:#000000;stroke-width:0.351896px;stroke-linecap:square;stroke-linejoin:round;stroke-miterlimit:1.5"
       id="path5236" /><path
       d="m 16.756591,42.363495 h 2.86729"
       style="clip-rule:evenodd;fill:none;fill-rule:evenodd;stroke:#000000;stroke-width:0.346604px;stroke-linecap:butt;stroke-linejoin:round;stroke-miterlimit:1.5"
       id="path5238" /><path
       d="m 16.756591,70.305876 h 2.86729"
       style="clip-rule:evenodd;fill:none;fill-rule:evenodd;stroke:#000000;stroke-width:0.346604px;stroke-linecap:butt;stroke-linejoin:round;stroke-miterlimit:1.5"
       id="path5240" /><path
       d="m 17.239985,30.48 h 2.383896"
       style="clip-rule:evenodd;fill:none;fill-rule:evenodd;stroke:#000000;stroke-width:0.351896px;stroke-linecap:square;stroke-linejoin:round;stroke-miterlimit:1.5"
       id="path5242" /><path
       id="dial2"
       serif:id="dial"
       d="m 8.5955186,93.85247 c 1.3898563,-0.802217 2.2457834,-2.284942 2.2457834,-3.88964 0,-2.478881 -2.0124209,-4.491302 -4.4913021,-4.491302 -2.4788812,0 -4.491302,2.012421 -4.491302,4.491302 0,1.604698 0.8559271,3.087423 2.2457833,3.88964 -1.3898562,-0.802217 -2.2457833,-2.284942 -2.2457833,-3.88964 0,-2.478881 2.0124208,-4.491302 4.491302,-4.491302 2.4788812,0 4.4913021,2.012421 4.4913021,4.491302 0,1.604698 -0.8559271,3.087423 -2.2457834,3.88964 z"
       style="clip-rule:evenodd;fill:none;fill-rule:evenodd;stroke:#000000;stroke-width:0.351896px;stroke-linecap:butt;stroke-linejoin:round;stroke-miterlimit:1.5" /><path
       id="dial3"
       serif:id="dial"
       d="m 26.360702,34.672322 c 1.389591,-0.802216 2.245518,-2.284941 2.245518,-3.889639 0,-2.478881 -2.01242,-4.491302 -4.491037,-4.491302 -2.478881,0 -4.491302,2.012421 -4.491302,4.491302 0,1.604698 0.855927,3.087423 2.245519,3.889639 -1.389592,-0.802216 -2.245519,-2.284941 -2.245519,-3.889639 0,-2.478881 2.012421,-4.491302 4.491302,-4.491302 2.478617,0 4.491037,2.012421 4.491037,4.491302 0,1.604698 -0.855927,3.087423 -2.245518,3.889639 z"
       style="clip-rule:evenodd;fill:none;fill-rule:evenodd;stroke:#000000;stroke-width:0.351896px;stroke-linecap:butt;stroke-linejoin:round;stroke-miterlimit:1.5" /><path
       d="m 8.6002811,101.00733 -0.00476,-7.15486"
       style="clip-rule:evenodd;fill:none;fill-rule:evenodd;stroke:#000000;stroke-width:0.351896px;stroke-linecap:butt;stroke-linejoin:bevel;stroke-miterlimit:1.5"
       id="path5248" /><path
       d="m 4.0999833,101.00733 0.0045,-7.15486"
       style="clip-rule:evenodd;fill:none;fill-rule:evenodd;stroke:#000000;stroke-width:0.351896px;stroke-linecap:butt;stroke-linejoin:bevel;stroke-miterlimit:1.5"
       id="path5250" /><path
       d="m 8.5513332,108.79667 v 2.37251"
       style="clip-rule:evenodd;fill:none;fill-rule:evenodd;stroke:#000000;stroke-width:0.346604px;stroke-linecap:butt;stroke-linejoin:round;stroke-miterlimit:1.5"
       id="path5252" /><circle
       id="border"
       cx="24.115183"
       cy="42.363495"
       r="4.491302"
       style="clip-rule:evenodd;fill:none;fill-rule:evenodd;stroke:#000000;stroke-width:0.351896px;stroke-linecap:square;stroke-linejoin:round;stroke-miterlimit:1.5" /><circle
       id="border1"
       serif:id="border"
       cx="24.119946"
       cy="56.854458"
       r="4.491302"
       style="clip-rule:evenodd;fill:none;fill-rule:evenodd;stroke:#000000;stroke-width:0.351896px;stroke-linecap:square;stroke-linejoin:round;stroke-miterlimit:1.5" /><circle
       id="border2"
       serif:id="border"
       cx="24.119946"
       cy="70.392395"
       r="4.491302"
       style="clip-rule:evenodd;fill:none;fill-rule:evenodd;stroke:#000000;stroke-width:0.351896px;stroke-linecap:square;stroke-linejoin:round;stroke-miterlimit:1.5" /><circle
       id="border3"
       serif:id="border"
       cx="6.3460312"
       cy="104.89988"
       r="4.491302"
       style="clip-rule:evenodd;fill:none;fill-rule:evenodd;stroke:#000000;stroke-width:0.351896px;stroke-linecap:square;stroke-linejoin:round;stroke-miterlimit:1.5" /><circle
       id="border4"
       serif:id="border"
       cx="6.3460312"
       cy="115.07999"
       r="4.491302"
       style="clip-rule:evenodd;fill:none;fill-rule:evenodd;stroke:#000000;stroke-width:0.351896px;stroke-linecap:square;stroke-linejoin:round;stroke-miterlimit:1.5" /><circle
       id="border5"
       serif:id="border"
       cx="15.236031"
       cy="30.48"
       r="1.9999853"
       style="clip-rule:evenodd;fill:none;fill-rule:evenodd;stroke:#000000;stroke-width:0.706438px;stroke-linecap:butt;stroke-linejoin:round;stroke-miterlimit:1.5" /><circle
       id="border6"
       serif:id="border"
       cx="15.24"
       cy="56.854458"
       r="1.9999853"
       style="clip-rule:evenodd;fill:none;fill-rule:evenodd;stroke:#000000;stroke-width:0.706438px;stroke-linecap:butt;stroke-linejoin:round;stroke-miterlimit:1.5" /><circle
       id="border7"
       serif:id="border"
       cx="15.240265"
       cy="87.071724"
       r="1.9999853"
       style="clip-rule:evenodd;fill:none;fill-rule:evenodd;stroke:#000000;stroke-width:0.706438px;stroke-linecap:butt;stroke-linejoin:round;stroke-miterlimit:1.5" /><circle
       id="border8"
       serif:id="border"
       cx="15.239735"
       cy="97.231201"
       r="1.9999853"
       style="clip-rule:evenodd;fill:none;fill-rule:evenodd;stroke:#000000;stroke-width:0.706438px;stroke-linecap:butt;stroke-linejoin:round;stroke-miterlimit:1.5" /><circle
       id="border9"
       serif:id="border"
       cx="15.239735"
       cy="107.39331"
       r="1.9999853"
       style="clip-rule:evenodd;fill:none;fill-rule:evenodd;stroke:#000000;stroke-width:0.706438px;stroke-linecap:butt;stroke-linejoin:round;stroke-miterlimit:1.5" /><circle
       id="border10"
       serif:id="border"
       cx="15.239735"
       cy="117.5684"
       r="1.9999853"
       style="clip-rule:evenodd;fill:none;fill-rule:evenodd;stroke:#000000;stroke-width:0.706438px;stroke-linecap:butt;stroke-linejoin:round;stroke-miterlimit:1.5" /><path
       id="fill"
       d="m 24.119946,79.738007 h 0.009 c 2.669382,0.0048 4.834996,2.173552 4.834996,4.843992 0,2.673614 -2.170377,4.843992 -4.843991,4.843992 l -8.880211,-0.0013 c -1.296194,0 -2.348971,-1.050396 -2.352939,-2.345532 v -0.0074 l 5.29e-4,-4.981046 c 0,-1.298575 1.0541,-2.352675 2.352675,-2.352675 z m -2.171171,1.3208 c 0,0 0.896143,-0.615421 2.171171,-0.615421 2.284147,0 4.138612,1.854465 4.138612,4.138613 0,2.284148 -1.854465,4.138612 -4.138612,4.138612 l -8.880211,-0.0016 c -0.907785,0 -1.645179,-0.735806 -1.647296,-1.643063 7.94e-4,-0.581554 0.303742,-1.092729 0.759884,-1.385358 0.0019,-0.0013 7.596452,-4.631796 7.596452,-4.631796 z m -7.977188,2.262452 c 0.163777,-0.0011 0.305859,-0.0725 0.429684,-0.200818 0.144462,-0.14949 0.265641,-0.386821 0.380735,-0.652727 0.128323,-0.296334 0.252148,-0.629973 0.41566,-0.889 0.133086,-0.210609 0.288396,-0.374121 0.518848,-0.374121 h 0.970227 v -0.35269 h -0.970227 c -0.299508,0 -0.532341,0.154517 -0.720195,0.398727 -0.160603,0.209021 -0.288132,0.486569 -0.4064,0.765175 -0.108215,0.255588 -0.208228,0.511704 -0.326232,0.704056 -0.08467,0.138113 -0.167746,0.24765 -0.294481,0.248709 l -0.176477,0.0011 0.0024,0.352954 z"
       style="clip-rule:evenodd;fill:#000000;fill-rule:evenodd;stroke-width:0.264583;stroke-linecap:round;stroke-linejoin:round;stroke-miterlimit:1.5" /><path
       id="fill1"
       serif:id="fill"
       d="m 24.119946,89.895891 h 0.009 c 2.669382,0.0048 4.834996,2.173552 4.834996,4.843991 0,2.673615 -2.170377,4.844256 -4.843991,4.844256 l -8.880211,-0.0016 c -1.296194,0 -2.348971,-1.050131 -2.352939,-2.345531 v -0.0074 l 5.29e-4,-4.980781 c 0,-1.298575 1.0541,-2.352939 2.352675,-2.352939 z m -2.171171,1.321064 c 0,0 0.896143,-0.615421 2.171171,-0.615421 2.284147,0 4.138612,1.854465 4.138612,4.138348 0,2.284148 -1.854465,4.138613 -4.138612,4.138613 l -8.880211,-0.0016 c -0.907785,0 -1.645179,-0.735806 -1.647296,-1.643062 7.94e-4,-0.58129 0.303742,-1.092465 0.759884,-1.385094 0.0019,-0.0013 7.596452,-4.631796 7.596452,-4.631796 z m -5.476611,1.913731 c -0.07144,-0.0011 -0.120385,-0.068 -0.17727,-0.14896 -0.138642,-0.19685 -0.259821,-0.503767 -0.398728,-0.80936 -0.153722,-0.338403 -0.328877,-0.673894 -0.553508,-0.889794 -0.17436,-0.167746 -0.377825,-0.268552 -0.619389,-0.268552 h -0.970228 v 0.352954 h 0.970228 c 0.233891,0 0.401108,0.1651 0.546364,0.378089 0.175419,0.257705 0.312208,0.589757 0.444765,0.885032 0.11721,0.261673 0.233362,0.496093 0.361156,0.643995 0.11721,0.135732 0.248973,0.207169 0.391054,0.209286 l 0.176213,0.0029 0.0056,-0.352689 z"
       style="clip-rule:evenodd;fill:#000000;fill-rule:evenodd;stroke-width:0.264583;stroke-linecap:round;stroke-linejoin:round;stroke-miterlimit:1.5" /><path
       id="fill2"
       serif:id="fill"
       d="m 24.119946,100.06012 h 0.009 c 2.669382,0.005 4.834996,2.17356 4.834996,4.844 0,2.67361 -2.170377,4.84425 -4.843991,4.84425 l -8.880211,-0.002 c -1.296194,0 -2.348971,-1.05013 -2.352939,-2.34553 v -0.007 l 5.29e-4,-4.98104 c 0,-1.29831 1.0541,-2.35268 2.352675,-2.35268 z m -2.171171,1.32107 c 0,0 0.896143,-0.61542 2.171171,-0.61542 2.284147,0 4.138612,1.8542 4.138612,4.13835 0,2.28414 -1.854465,4.13861 -4.138612,4.13861 l -8.880211,-0.002 c -0.907785,0 -1.645179,-0.73581 -1.647296,-1.64306 7.94e-4,-0.58156 0.303742,-1.09247 0.759884,-1.3851 0.0019,-10e-4 7.596452,-4.63179 7.596452,-4.63179 z m -8.018727,2.26642 c 0.157956,-5.3e-4 0.282575,-0.0794 0.37756,-0.22728 0.09657,-0.15055 0.161396,-0.39079 0.21934,-0.65908 0.06323,-0.29315 0.121443,-0.62362 0.237066,-0.88 0.08996,-0.19923 0.213519,-0.35348 0.43524,-0.35348 0.221721,0 0.345017,0.15398 0.43471,0.35269 0.115359,0.25611 0.173302,0.58605 0.236273,0.87921 0.05768,0.26828 0.122502,0.50853 0.219869,0.6596 0.09472,0.14764 0.21934,0.22702 0.37756,0.22834 l 0.176478,0.002 0.0032,-0.35295 -0.176213,-0.002 c -0.03413,-2.7e-4 -0.05583,-0.0251 -0.07699,-0.0556 -0.03016,-0.0429 -0.05424,-0.0979 -0.07646,-0.16061 -0.06826,-0.19314 -0.112713,-0.45058 -0.169598,-0.70776 -0.06271,-0.28389 -0.140759,-0.56647 -0.2667,-0.77919 -0.150548,-0.25374 -0.365125,-0.41699 -0.682096,-0.41699 -0.316706,0 -0.531548,0.16352 -0.68236,0.41725 -0.126471,0.21299 -0.204788,0.49609 -0.267759,0.78026 -0.05689,0.25717 -0.1016,0.51488 -0.169598,0.70802 -0.02223,0.0627 -0.0463,0.11774 -0.0762,0.16034 -0.02064,0.0296 -0.04154,0.0542 -0.07461,0.0542 l -0.176477,7.9e-4 0.0013,0.35269 z"
       style="clip-rule:evenodd;fill:#000000;fill-rule:evenodd;stroke-width:0.264583;stroke-linecap:round;stroke-linejoin:round;stroke-miterlimit:1.5" /><path
       id="fill3"
       serif:id="fill"
       d="m 24.119946,110.23309 h 0.009 c 2.669382,0.005 4.834996,2.17355 4.834996,4.84399 0,2.67361 -2.170377,4.84426 -4.843991,4.84426 l -8.880211,-0.002 c -1.296194,0 -2.348971,-1.05013 -2.352939,-2.34553 v -0.007 l 5.29e-4,-4.98105 c 0,-1.29831 1.0541,-2.35267 2.352675,-2.35267 z m -2.171171,1.32106 c 0,0 0.896143,-0.61542 2.171171,-0.61542 2.284147,0 4.138612,1.8542 4.138612,4.13835 0,2.28415 -1.854465,4.13861 -4.138612,4.13861 l -8.880211,-0.002 c -0.907785,0 -1.645179,-0.7358 -1.647296,-1.64306 7.94e-4,-0.58155 0.303742,-1.09246 0.759884,-1.38509 0.0019,-0.001 7.596452,-4.6318 7.596452,-4.6318 z m -7.97904,0.13124 c 0.23204,7.9e-4 0.368565,0.15742 0.468313,0.36089 0.125412,0.25532 0.191823,0.58393 0.255852,0.8755 0.05821,0.26379 0.116416,0.50007 0.198437,0.6477 0.08811,0.15822 0.206904,0.23601 0.347927,0.23601 0.141288,0 0.260086,-0.0778 0.347927,-0.23601 0.08229,-0.14763 0.140494,-0.38391 0.198438,-0.6477 0.06403,-0.29157 0.13044,-0.62018 0.255587,-0.8755 0.09975,-0.20347 0.236538,-0.3601 0.468842,-0.36089 l 0.176213,-5.3e-4 -0.0011,-0.35269 -0.176477,5.3e-4 c -0.308504,10e-4 -0.526785,0.15187 -0.6858,0.38682 -0.199496,0.29501 -0.296862,0.73898 -0.381794,1.12659 -0.04207,0.1913 -0.08096,0.36698 -0.134672,0.49451 -0.01561,0.0376 -0.03201,0.0701 -0.05159,0.0947 -0.0058,0.007 -0.0074,0.0175 -0.01561,0.0175 -0.0079,0 -0.0095,-0.0103 -0.01534,-0.0175 -0.01958,-0.0249 -0.03598,-0.0571 -0.05159,-0.0947 -0.05371,-0.12753 -0.0926,-0.30321 -0.134938,-0.49477 -0.0852,-0.38735 -0.182562,-0.83132 -0.381793,-1.12633 -0.159015,-0.23522 -0.377296,-0.38577 -0.685536,-0.38682 l -0.176477,-5.3e-4 -0.0011,0.35269 z"
       style="clip-rule:evenodd;fill:#000000;fill-rule:evenodd;stroke-width:0.264583;stroke-linecap:round;stroke-linejoin:round;stroke-miterlimit:1.5" /><circle
       id="border11"
       serif:id="border"
       cx="24.119946"
       cy="84.582001"
       r="4.491302"
       style="clip-rule:evenodd;fill:none;fill-rule:evenodd;stroke:#000000;stroke-width:0.706438px;stroke-linecap:square;stroke-linejoin:round;stroke-miterlimit:1.5" /><circle
       id="border12"
       serif:id="border"
       cx="24.119946"
       cy="94.739883"
       r="4.491302"
       style="clip-rule:evenodd;fill:none;fill-rule:evenodd;stroke:#000000;stroke-width:0.706438px;stroke-linecap:square;stroke-linejoin:round;stroke-miterlimit:1.5" /><circle
       id="border13"
       serif:id="border"
       cx="24.119946"
       cy="104.90411"
       r="4.491302"
       style="clip-rule:evenodd;fill:none;fill-rule:evenodd;stroke:#000000;stroke-width:0.706438px;stroke-linecap:square;stroke-linejoin:round;stroke-miterlimit:1.5" /><circle
       id="border14"
       serif:id="border"
       cx="24.115183"
       cy="115.07999"
       r="4.491302"
       style="clip-rule:evenodd;fill:none;fill-rule:evenodd;stroke:#000000;stroke-width:0.706438px;stroke-linecap:square;stroke-linejoin:round;stroke-miterlimit:1.5" /><path
       d="m 13.313039,22.087681 -0.2286,0.18706 -0.454025,0.43815 -1.037166,1.022086 -0.522817,0.45376 -0.397669,0.300038 -0.387879,0.243946 -0.246062,0.123031 -0.2312461,0.08599 -0.2114021,0.04472 -0.1878542,7.94e-4 -0.160602,-0.04524 -0.1293813,-0.09207 -0.096044,-0.138377 -0.060854,-0.183356 -0.024606,-0.225425 0.010848,-0.262996 0.045244,-0.29554 0.075935,-0.321204 0.1629834,-0.513027 0.2026708,-0.524933 0.6222995,-1.527969 0.01032,-0.141552 -0.01455,-0.05027 -0.04048,-0.04445 -0.032015,-0.01402 -0.059267,-0.0077 -0.1664229,0.02619 -0.231775,0.07911 -0.4661958,0.206375 -2.0055416,0.950384 -0.7151688,0.289983 -0.4373562,0.148696 -0.3833813,0.09975 -0.3114145,0.0418 -0.123825,-0.0026 -0.1002771,-0.01905 -0.092075,-0.04948 -0.032808,-0.03942 -0.022754,-0.06959 0.00423,-0.08599 0.031485,-0.1016 0.142875,-0.247121 0.2423584,-0.297391 0.3278187,-0.336021 0.6072187,-0.543454 0.8800042,-0.711994 0.8511646,-0.690298 0.1635125,-0.173831 0.031221,-0.06165 -0.00714,-0.04683 -0.040746,-0.02381 -0.081492,-0.0098 -0.1201208,0.0064 -0.3529541,0.05715 -0.7797271,0.173303 -1.3469938,0.309297 -0.7085541,0.145521 -0.6641042,0.1143 -0.5685895,0.06747 -0.2333625,0.01191 -0.1928813,-0.004 -0.1476375,-0.02064 -0.098954,-0.03757 -0.04154,-0.04127 -0.00106,-0.0852 0.058473,-0.08731 0.1105959,-0.102129 0.3690937,-0.242888 0.5389563,-0.280987 0.6601354,-0.300832 1.0771187,-0.445029 1.4157854,-0.575468 0.238125,-0.137055 0.023813,-0.05001 -0.040481,-0.0291 -0.1087438,-0.01905 -0.1743604,-0.0074 -0.5320771,0.01482 -2.4989895,0.124354 -0.8355542,0.0098 -0.6701896,-0.02884 -0.2455333,-0.03069 -0.1740958,-0.04233 -0.096573,-0.05318 -0.017992,-0.03175 0.071967,-0.104775 0.1505479,-0.08096 0.2288646,-0.08731 0.300302,-0.09208 0.7760229,-0.1905 0.923396,-0.186531 L 6.8310151,16.08912 6.9246781,16.0288 6.9066861,16.00631 6.7984716,15.97006 6.5947424,15.93487 5.9306382,15.86343 3.962932,15.680603 2.9636008,15.560747 2.5333883,15.495127 2.1748779,15.426597 1.9047383,15.357277 1.735405,15.288487 l -0.059267,-0.07064 0.05424,-0.05847 0.1677458,-0.05662 0.2749021,-0.05001 0.3717396,-0.0418 0.4529666,-0.03334 1.069975,-0.04286 1.6470312,-0.02223 0.829998,-0.01402 0.268552,-0.01561 L 6.96463,14.857757 6.995322,14.835527 6.8865749,14.768512 6.6590332,14.701044 5.8803645,14.517687 4.2272479,14.14436 3.1358416,13.869194 2.6849916,13.738225 2.3333604,13.618898 2.10185,13.51571 2.004219,13.412787 l 0.04736,-0.03731 0.1889125,-0.03202 0.3227917,-0.0048 0.4407958,0.02064 0.5355167,0.04366 1.2324291,0.136789 2.1269854,0.270404 0.2725209,0.02011 0.1307041,-0.01905 -0.037835,-0.0426 L 7.078927,13.680546 6.3026395,13.392414 4.5555958,12.766675 3.4541354,12.335404 3.0421791,12.150725 2.765425,12.0015 2.644775,11.86815 2.694252,11.84196 2.9109458,11.84006 3.2837437,11.89033 3.7885687,11.9877 5.0548645,12.284562 7.6514853,12.9402 7.7644624,12.9376 7.6972582,12.86801 7.4562228,12.730427 6.545527,12.276667 5.3276499,11.67421 4.2031708,11.079162 l -0.4037542,-0.24077 -0.2457979,-0.17833 -0.061913,-0.105568 0.1246188,-0.01508 0.3108854,0.06588 0.4725458,0.143404 0.5969,0.206639 1.3689541,0.519377 1.6525875,0.643996 0.2521479,0.07805 0.059267,-2.64e-4 -0.1431396,-0.1397 L 7.3929874,11.53451 5.6067853,10.374048 5.0889958,10.012627 4.7056145,9.7189395 4.497652,9.5202374 4.474633,9.4432434 l 0.2151062,0.027781 0.3897313,0.1526646 0.5461,0.252677 1.3459354,0.687387 1.690952,0.894027 0.2505604,0.110067 0.048948,0.004 L 8.7886645,11.377612 7.9417332,10.682552 6.7714812,9.7260832 6.2359645,9.266502 5.8224208,8.8847082 5.5827083,8.6222416 5.5448728,8.510852 5.7321978,8.5545082 6.1147853,8.7558561 6.6579749,9.0876436 7.9816853,9.9679124 9.490604,10.988146 9.6363895,11.050058 9.5652165,10.930467 9.2924311,10.636514 7.7684312,9.0865853 7.2633416,8.5476291 6.882077,8.1084207 6.6801999,7.8242582 6.6674999,7.7358872 6.9172666,7.843308 7.3368957,8.1436101 7.8993999,8.5915497 9.1688707,9.6691976 10.116608,10.478558 10.33436,10.619052 10.30367,10.535182 10.084329,10.23276 8.7071728,8.482277 8.2579103,7.879027 7.9401457,7.4101853 7.8173791,7.0998291 l 0.069321,0.017462 0.2860146,0.2196041 0.4566708,0.4323292 1.1636375,1.2139083 0.967581,1.0376953 0.28231,0.247385 -0.0069,-0.05265 L 10.870142,9.9144665 9.6676103,7.9808916 9.2831707,7.3218145 9.0323457,6.8349812 l -0.056356,-0.24765 0.1227666,0.069056 0.320675,0.3394604 0.4619625,0.5656792 1.0570102,1.3988521 0.721254,0.9487958 0.09287,0.079375 -0.08573,-0.2629959 -1.307835,-2.7765374 -0.202671,-0.5275792 -0.02672,-0.2375958 0.139964,0.1121833 0.311415,0.4273021 0.425715,0.6691312 1.448858,2.3796625 -0.0077,-0.1018646 L 12.305506,9.2313124 11.75041,7.6734457 11.475508,6.8519145 11.293475,6.2182374 l -0.02593,-0.3402541 0.0971,0.085196 0.256116,0.4336521 0.355336,0.7170208 1.170252,2.4979312 -0.0085,-0.1658937 -0.319881,-1.3589 -0.214842,-0.9144 -0.170391,-0.8180917 -0.07647,-0.5434541 0.02646,-0.1524 0.182828,0.2897187 0.257439,0.6548438 0.598223,1.7848791 0.23495,0.7212542 0.1651,0.392377 0.01191,-0.103452 -0.05556,-0.5127625 -0.237067,-1.7981083 -0.08996,-0.8678334 -0.0209,-0.5648854 0.03889,-0.1381125 0.167217,0.3640667 0.197115,0.7421562 0.411691,1.8883313 0.147638,0.6773333 0.08493,0.2479146 0.02381,-0.2497667 -0.06668,-2.6389541 0.01614,-0.7617354 0.07117,-0.3426355 0.0844,0.187325 0.118798,0.6548438 0.122238,0.9593791 0.192616,1.8020771 0.0717,0.3640667 0.04101,-0.1883834 0.194733,-2.684727 0.09234,-0.7847542 0.09869,-0.3212041 0.06959,0.2410354 0.04974,0.7360708 0.02196,1.0279062 0.01323,1.7586854 0.03016,0.225425 0.09022,-0.3611562 0.30824,-1.9012958 0.181769,-0.9834563 0.1524,-0.6037791 0.06059,-0.096044 0.03942,0.6043084 -0.06032,0.9686395 -0.178329,1.9936354 -0.0069,0.4214813 0.08176,-0.2108729 0.750358,-2.8643792 0.224896,-0.6834187 0.08678,-0.1367896 -0.01482,0.5646208 -0.153194,0.9850438 -0.372533,2.0319999 -0.04101,0.384175 0.123032,-0.2701396 0.673893,-1.9351624 0.375444,-1.0107083 0.306123,-0.6135688 0.01085,0.1309688 -0.143669,0.7077604 -0.285485,1.0959041 -0.505884,1.8430875 -0.01746,0.1479021 0.296333,-0.6016625 0.949854,-2.13995 0.397405,-0.8014229 0.152929,-0.2071687 -0.108479,0.5212291 -0.34634,1.0167938 -0.753269,2.0473458 -0.07726,0.2831041 0.261408,-0.4315354 1.128713,-2.1044958 0.502179,-0.8633354 0.206375,-0.2590271 -0.1397,0.4770438 -0.43815,1.0152062 -0.944563,2.0515791 -0.09049,0.2532063 0.343165,-0.4955646 1.353343,-2.1349229 0.537104,-0.7744354 0.150813,-0.1510771 -0.284956,0.6768042 -0.592402,1.1046354 -1.046957,1.9309291 0.0979,-0.1031875 2.108465,-2.8474458 0.447939,-0.4934479 -0.116152,0.2786063 -0.558271,0.9199562 -1.37795,2.1193125 -0.167216,0.2981852 0.428096,-0.476779 1.7653,-2.1087291 0.715168,-0.7379229 -0.05424,0.1362604 -0.538427,0.7881938 -1.905794,2.5852438 0.377296,-0.368829 1.940189,-2.0555482 0.829734,-0.771525 -0.06032,0.1256771 -0.610394,0.7791979 -2.091267,2.4892002 0.487627,-0.432859 2.158471,-2.0359683 0.724958,-0.5926666 -0.156633,0.2288646 -0.812006,0.8911166 -1.901825,1.9796127 -0.139171,0.170656 0.839523,-0.687917 1.230842,-1.0498663 1.09802,-0.9030229 0.411692,-0.2809875 -0.475456,0.5262563 -1.106488,1.0498666 -1.66026,1.5639518 0.407987,-0.287866 2.499255,-1.907117 0.867304,-0.5823479 -0.211138,0.233627 -1.013883,0.8837084 -2.234406,1.8859495 0.201083,-0.119327 2.528888,-1.7443975 1.052512,-0.6847417 0.172508,-0.080169 -1.063095,0.884502 -2.445015,1.8415002 -0.154517,0.135731 1.194594,-0.726545 1.552575,-0.9691695 1.166019,-0.6900333 0.209021,-0.091017 -1.115219,0.8363479 -2.736056,1.8790709 0.179387,-0.08493 2.830513,-1.59385 1.266031,-0.6432014 -0.200554,0.1653646 -1.218407,0.7821078 -2.607204,1.617663 0.373327,-0.171715 3.144309,-1.596231 0.899054,-0.3968748 -0.500856,0.3325808 -1.534319,0.870744 -1.57824,0.871008 -0.574146,0.337873 0.865188,-0.379677 1.762919,-0.813594 1.538816,-0.681566 0.37809,-0.131498 -1.18401,0.658812 -3.151717,1.597554 0.301096,-0.108214 3.397779,-1.396471 0.962554,-0.341313 -0.623094,0.333111 -1.749954,0.804862 -1.657614,0.744802 -0.440532,0.2159 1.271059,-0.454289 1.983581,-0.732631 1.5113,-0.498475 -0.326231,0.171185 -1.628246,0.685006 -1.88304,0.759884 -0.756973,0.32332 0.963877,-0.301095 2.015861,-0.664634 1.623483,-0.505089 0.256381,-0.05318 -1.76821,0.701146 -2.937933,1.077913 0.875241,-0.238654 2.063221,-0.600869 1.718469,-0.471752 0.285221,-0.05133 -1.826419,0.646112 -2.072217,0.664633 -0.907521,0.307182 0.995098,-0.237332 2.160588,-0.54901 1.858698,-0.415131 -0.326232,0.126206 -1.822714,0.540015 -2.066396,0.582612 -0.679714,0.207698 1.361281,-0.283369 2.266156,-0.492654 1.448858,-0.264583 -0.647964,0.201612 -2.110581,0.534988 -1.890448,0.465137 -0.32438,0.0934 4.288896,-0.768879 0.839788,-0.111919 -1.304925,0.326231 -3.736181,0.807773 0.782372,-0.104775 2.279121,-0.348456 2.110052,-0.268552 -0.36195,0.09604 -2.032,0.38391 -2.171964,0.384969 -0.533136,0.108744 4.258734,-0.492919 0.946679,-0.07144 -1.360223,0.246327 -3.787246,0.568061 0.990336,-0.07567 2.443427,-0.220133 1.79705,-0.112448 -0.67019,0.1143 -4.516437,0.541602 0.45667,-0.01482 2.249752,-0.136525 2.176992,-0.109537 0.364067,0.0071 -2.398448,0.251355 -2.309548,0.192087 -0.508529,0.0553 4.604543,-0.116681 0.651669,0.01561 -1.999191,0.156369 -2.482321,0.13335 -0.756973,0.05371 4.422775,0.0127 0.83476,0.03678 -1.823773,0.09207 -2.559843,0.0635 -0.868098,0.03413 4.392083,0.137054 0.859102,0.06085 -1.865842,0.03916 -2.580481,-0.01032 -0.811212,0.0093 4.5212,0.269346 0.71702,0.07461 -2.13016,-0.02196 -2.525448,-0.08255 -0.600075,-0.0071 4.770702,0.421217 0.447411,0.06641 -2.628107,-0.111389 -2.618316,-0.147638 0.465137,0.06324 2.472532,0.271198 2.253985,0.294481 -0.711994,-0.02805 -4.518554,-0.375973 1.017323,0.152135 2.706687,0.374915 1.4351,0.240506 -1.450975,-0.125677 -2.737114,-0.315119 -1.019704,-0.106097 4.53046,0.773377 0.590021,0.130175 -2.557463,-0.321205 -2.621227,-0.365918 0.561446,0.120385 2.596092,0.500856 1.918494,0.415396 -1.087438,-0.147108 -4.055798,-0.677333 4.373033,0.989012 0.653521,0.178065 -2.54635,-0.461169 -2.556139,-0.498211 0.656696,0.175684 2.662237,0.663575 1.652852,0.455348 -1.396206,-0.274902 -2.764896,-0.625211 -0.894821,-0.191294 4.91199,1.419225 -0.602721,-0.121443 -4.401344,-1.099079 4.075906,1.268412 0.77179,0.272521 -2.466446,-0.65405 -2.480733,-0.693208 0.76835,0.270139 2.69531,0.906198 1.315244,0.483394 -1.819804,-0.52414 -2.607469,-0.814652 -0.458523,-0.131762 2.931584,1.082145 1.77456,0.693209 -1.367102,-0.425186 -2.722827,-0.928423 -0.729456,-0.237331 2.537354,1.014413 2.091531,0.873389 -1.090612,-0.365125 -2.740819,-1.014148 -0.917311,-0.328877 2.299494,0.991394 2.248694,1.005681 -0.962554,-0.347927 -2.724679,-1.089554 -0.986896,-0.384969 2.21615,1.026319 2.247635,1.077119 -0.962819,-0.377561 -2.702718,-1.165225 -0.930011,-0.390789 2.280444,1.1303 2.095764,1.07606 -1.087966,-0.464344 -2.666471,-1.236662 -0.75909,-0.340519 2.483115,1.313656 1.802342,0.992982 -1.348052,-0.627063 -2.573338,-1.279789 -0.506412,-0.239977 2.804848,1.581679 1.386681,0.82206 -1.755511,-0.886619 -2.583127,-1.362075 0.690034,0.423598 2.512748,1.500188 0.89191,0.573616 -2.304256,-1.257564 -1.942042,-1.089819 3.995208,2.588154 -0.46302,-0.245798 -3.688292,-2.197364 3.893344,2.675731 -1.073944,-0.642938 -2.465652,-1.576387 -0.513821,-0.316177 2.65721,1.906323 1.131888,0.85381 -1.935427,-1.264973 -2.017448,-1.359958 3.682735,2.841625 -0.490537,-0.316706 -2.384161,-1.704711 -0.975518,-0.690033 2.02221,1.627452 1.55231,1.292754 -1.413404,-1.027906 -2.331773,-1.766623 0.715698,0.619125 2.234671,1.899444 0.513821,0.476779 -3.637756,-2.874698 1.808691,1.630892 1.54358,1.436687 -1.329796,-1.084527 -2.198952,-1.867429 0.735277,0.7112 2.1082,2.01004 0.395023,0.41566 -3.417359,-3.025775 1.961886,1.981465 1.161521,1.221581 -1.615017,-1.490398 -1.689894,-1.606286 3.00699,3.266282 -0.77814,-0.737394 -2.412471,-2.427288 0.407194,0.474398 1.940719,2.19075 0.541602,0.661459 -3.074988,-3.229769 1.698361,2.04179 1.072356,1.342495 -1.508919,-1.656027 -1.449123,-1.635918 2.651125,3.438789 -0.93927,-1.07315 -1.900767,-2.277798 2.530475,3.490384 -0.521229,-0.613569 -1.821127,-2.325952 -0.378619,-0.467784 1.977231,2.860675 0.432065,0.678657 -1.97485,-2.624932 -0.626004,-0.835554 1.64121,2.528623 0.646112,1.056746 -2.479939,-3.511021 1.352021,2.225411 0.8128,1.40335 -2.358496,-3.558911 1.124215,1.983581 0.917839,1.685925 -1.164167,-1.84732 -1.072356,-1.756569 0.95885,1.81901 0.959908,1.888596 -1.02182,-1.729052 -1.091936,-1.917171 0.849577,1.738313 0.945621,2.004483 -0.935302,-1.694656 -1.055158,-1.99099 0.7874,1.744663 0.883973,2.030941 -0.895879,-1.747837 -0.971286,-1.974586 0.764646,1.840971 0.782902,1.964796 -0.895085,-1.891506 -0.848519,-1.865313 0.772054,2.029619 0.651669,1.803665 -1.619779,-3.788305 0.79957,2.310871 0.500328,1.547548 -1.495955,-3.817408 0.834496,2.674673 0.341842,1.2065 -1.01944,-2.84824 -0.352689,-0.995891"
       style="clip-rule:evenodd;fill:none;fill-rule:nonzero;stroke:#000000;stroke-width:0.150812px;stroke-linecap:round;stroke-linejoin:round;stroke-miterlimit:10"
       id="path5292" /><path
       d="M 0,2.6154062 H 3.4641895"
       style="clip-rule:evenodd;fill:none;fill-rule:evenodd;stroke:#000000;stroke-width:0.346604px;stroke-linecap:butt;stroke-linejoin:round;stroke-miterlimit:1.5"
       id="path5295" /><path
       d="M 0,3.38455 H 3.4641895"
       style="clip-rule:evenodd;fill:none;fill-rule:evenodd;stroke:#000000;stroke-width:0.346604px;stroke-linecap:butt;stroke-linejoin:round;stroke-miterlimit:1.5"
       id="path5297" /><path
       d="M 27.001523,2.6154062 H 30.48"
       style="clip-rule:evenodd;fill:none;fill-rule:evenodd;stroke:#000000;stroke-width:0.346604px;stroke-linecap:butt;stroke-linejoin:round;stroke-miterlimit:1.5"
       id="path5301" /><path
       d="M 27.001523,3.38455 H 30.48"
       style="clip-rule:evenodd;fill:none;fill-rule:evenodd;stroke:#000000;stroke-width:0.346604px;stroke-linecap:butt;stroke-linejoin:round;stroke-miterlimit:1.5"
       id="path5303" /></g><g
     inkscape:label="Drill"
     inkscape:groupmode="layer"
     id="g255"
     sodipodi:insensitive="true"><circle
       cx="15.24"
       cy="56.854458"
       r="1.5999354"
       id="circle5309"
       style="clip-rule:evenodd;fill-rule:evenodd;stroke-width:0.264583;stroke-linecap:round;stroke-linejoin:round;stroke-miterlimit:1.5" /><circle
       cx="15.24"
       cy="30.48"
       r="1.5999354"
       id="circle5311"
       style="clip-rule:evenodd;fill-rule:evenodd;stroke-width:0.264583;stroke-linecap:round;stroke-linejoin:round;stroke-miterlimit:1.5" /><circle
       cx="15.240265"
       cy="117.5684"
       r="1.5999354"
       id="circle5313"
       style="clip-rule:evenodd;fill-rule:evenodd;stroke-width:0.264583;stroke-linecap:round;stroke-linejoin:round;stroke-miterlimit:1.5" /><circle
       cx="15.239735"
       cy="97.231201"
       r="1.5999354"
       id="circle5315"
       style="clip-rule:evenodd;fill-rule:evenodd;stroke-width:0.264583;stroke-linecap:round;stroke-linejoin:round;stroke-miterlimit:1.5" /><circle
       cx="15.239735"
       cy="107.39331"
       r="1.5999354"
       id="circle5317"
       style="clip-rule:evenodd;fill-rule:evenodd;stroke-width:0.264583;stroke-linecap:round;stroke-linejoin:round;stroke-miterlimit:1.5" /><circle
       cx="15.24"
       cy="87.071724"
       r="1.5999354"
       id="circle5319"
       style="clip-rule:evenodd;fill-rule:evenodd;stroke-width:0.264583;stroke-linecap:round;stroke-linejoin:round;stroke-miterlimit:1.5" /><circle
       id="potentiometer-hole1"
       serif:id="potentiometer hole"
       cx="24.120001"
       cy="30.780001"
       style="clip-rule:evenodd;fill-rule:evenodd;stroke-width:0.246949;stroke-linecap:round;stroke-linejoin:round;stroke-miterlimit:1.5"
       r="3.5" /><circle
       id="potentiometer-hole3"
       serif:id="potentiometer hole"
       cx="15.24"
       cy="15.55988"
       r="3.7499397"
       style="clip-rule:evenodd;fill-rule:evenodd;stroke-width:0.264583;stroke-linecap:round;stroke-linejoin:round;stroke-miterlimit:1.5" /><circle
       id="potentiometer-hole5"
       serif:id="potentiometer hole"
       cx="8.8899994"
       cy="42.360054"
       r="3.7499397"
       style="clip-rule:evenodd;fill-rule:evenodd;stroke-width:0.264583;stroke-linecap:round;stroke-linejoin:round;stroke-miterlimit:1.5" /><circle
       id="potentiometer-hole7"
       serif:id="potentiometer hole"
       cx="8.8899994"
       cy="70.390007"
       r="3.7499397"
       style="clip-rule:evenodd;fill-rule:evenodd;stroke-width:0.264583;stroke-linecap:round;stroke-linejoin:round;stroke-miterlimit:1.5" /><circle
       id="potentiometer-hole9"
       serif:id="potentiometer hole"
       cx="6.3499999"
       cy="89.959999"
       style="clip-rule:evenodd;fill-rule:evenodd;stroke-width:0.246949;stroke-linecap:round;stroke-linejoin:round;stroke-miterlimit:1.5"
       r="3.5" /><circle
       cx="24.119946"
       cy="84.57988"
       r="3.0501165"
       id="circle5331"
       style="clip-rule:evenodd;fill-rule:evenodd;stroke-width:0.264583;stroke-linecap:round;stroke-linejoin:round;stroke-miterlimit:1.5" /><circle
       cx="24.119946"
       cy="70.390007"
       r="3.0501165"
       id="circle5334"
       style="clip-rule:evenodd;fill-rule:evenodd;stroke-width:0.264583;stroke-linecap:round;stroke-linejoin:round;stroke-miterlimit:1.5" /><circle
       cx="24.119946"
       cy="56.854458"
       r="3.0501165"
       id="circle5337"
       style="clip-rule:evenodd;fill-rule:evenodd;stroke-width:0.264583;stroke-linecap:round;stroke-linejoin:round;stroke-miterlimit:1.5" /><circle
       cx="24.119946"
       cy="42.360054"
       r="3.0501165"
       id="circle5340"
       style="clip-rule:evenodd;fill-rule:evenodd;stroke-width:0.264583;stroke-linecap:round;stroke-linejoin:round;stroke-miterlimit:1.5" /><circle
       cx="24.119946"
       cy="94.741997"
       r="3.0501165"
       id="circle5343"
       style="clip-rule:evenodd;fill-rule:evenodd;stroke-width:0.264583;stroke-linecap:round;stroke-linejoin:round;stroke-miterlimit:1.5" /><circle
       cx="24.119946"
       cy="104.90411"
       r="3.0501165"
       id="circle5346"
       style="clip-rule:evenodd;fill-rule:evenodd;stroke-width:0.264583;stroke-linecap:round;stroke-linejoin:round;stroke-miterlimit:1.5" /><circle
       cx="24.119946"
       cy="115.07708"
       r="3.0501165"
       id="circle5349"
       style="clip-rule:evenodd;fill-rule:evenodd;stroke-width:0.264583;stroke-linecap:round;stroke-linejoin:round;stroke-miterlimit:1.5" /><circle
       cx="6.3499999"
       cy="115.07708"
       r="3.0501165"
       id="circle5352"
       style="clip-rule:evenodd;fill-rule:evenodd;stroke-width:0.264583;stroke-linecap:round;stroke-linejoin:round;stroke-miterlimit:1.5" /><circle
       cx="6.3499999"
       cy="104.902"
       r="3.0501165"
       id="circle5355"
       style="clip-rule:evenodd;fill-rule:evenodd;stroke-width:0.264583;stroke-linecap:round;stroke-linejoin:round;stroke-miterlimit:1.5" /></g></svg>
