%TF.GenerationSoftware,KiCad,Pcbnew,(6.0.9)*%
%TF.CreationDate,2022-12-28T20:00:02-08:00*%
%TF.ProjectId,kilter,6b696c74-6572-42e6-9b69-6361645f7063,rev?*%
%TF.SameCoordinates,Original*%
%TF.FileFunction,Other,Comment*%
%FSLAX46Y46*%
G04 Gerber Fmt 4.6, Leading zero omitted, Abs format (unit mm)*
G04 Created by KiCad (PCBNEW (6.0.9)) date 2022-12-28 20:00:02*
%MOMM*%
%LPD*%
G01*
G04 APERTURE LIST*
%ADD10C,0.020000*%
G04 APERTURE END LIST*
D10*
%TO.C,RV1*%
X5911957Y-94500600D02*
X6061957Y-94464885D01*
X5954814Y-94436314D01*
X6061957Y-94407742D01*
X5911957Y-94372028D01*
X6061957Y-94314885D02*
X5961957Y-94314885D01*
X5911957Y-94314885D02*
X5919100Y-94322028D01*
X5926242Y-94314885D01*
X5919100Y-94307742D01*
X5911957Y-94314885D01*
X5926242Y-94314885D01*
X5961957Y-94243457D02*
X6111957Y-94243457D01*
X5969100Y-94243457D02*
X5961957Y-94229171D01*
X5961957Y-94200600D01*
X5969100Y-94186314D01*
X5976242Y-94179171D01*
X5990528Y-94172028D01*
X6033385Y-94172028D01*
X6047671Y-94179171D01*
X6054814Y-94186314D01*
X6061957Y-94200600D01*
X6061957Y-94229171D01*
X6054814Y-94243457D01*
X6054814Y-94050600D02*
X6061957Y-94064885D01*
X6061957Y-94093457D01*
X6054814Y-94107742D01*
X6040528Y-94114885D01*
X5983385Y-94114885D01*
X5969100Y-94107742D01*
X5961957Y-94093457D01*
X5961957Y-94064885D01*
X5969100Y-94050600D01*
X5983385Y-94043457D01*
X5997671Y-94043457D01*
X6011957Y-94114885D01*
X6061957Y-93979171D02*
X5961957Y-93979171D01*
X5990528Y-93979171D02*
X5976242Y-93972028D01*
X5969100Y-93964885D01*
X5961957Y-93950600D01*
X5961957Y-93936314D01*
X6061957Y-93772028D02*
X5961957Y-93772028D01*
X5976242Y-93772028D02*
X5969100Y-93764885D01*
X5961957Y-93750600D01*
X5961957Y-93729171D01*
X5969100Y-93714885D01*
X5983385Y-93707742D01*
X6061957Y-93707742D01*
X5983385Y-93707742D02*
X5969100Y-93700600D01*
X5961957Y-93686314D01*
X5961957Y-93664885D01*
X5969100Y-93650600D01*
X5983385Y-93643457D01*
X6061957Y-93643457D01*
X6061957Y-93507742D02*
X5983385Y-93507742D01*
X5969100Y-93514885D01*
X5961957Y-93529171D01*
X5961957Y-93557742D01*
X5969100Y-93572028D01*
X6054814Y-93507742D02*
X6061957Y-93522028D01*
X6061957Y-93557742D01*
X6054814Y-93572028D01*
X6040528Y-93579171D01*
X6026242Y-93579171D01*
X6011957Y-93572028D01*
X6004814Y-93557742D01*
X6004814Y-93522028D01*
X5997671Y-93507742D01*
X5961957Y-93450600D02*
X6061957Y-93414885D01*
X5961957Y-93379171D02*
X6061957Y-93414885D01*
X6097671Y-93429171D01*
X6104814Y-93436314D01*
X6111957Y-93450600D01*
X6061957Y-93207742D02*
X5911957Y-93207742D01*
X5969100Y-93207742D02*
X5961957Y-93193457D01*
X5961957Y-93164885D01*
X5969100Y-93150600D01*
X5976242Y-93143457D01*
X5990528Y-93136314D01*
X6033385Y-93136314D01*
X6047671Y-93143457D01*
X6054814Y-93150600D01*
X6061957Y-93164885D01*
X6061957Y-93193457D01*
X6054814Y-93207742D01*
X6054814Y-93014885D02*
X6061957Y-93029171D01*
X6061957Y-93057742D01*
X6054814Y-93072028D01*
X6040528Y-93079171D01*
X5983385Y-93079171D01*
X5969100Y-93072028D01*
X5961957Y-93057742D01*
X5961957Y-93029171D01*
X5969100Y-93014885D01*
X5983385Y-93007742D01*
X5997671Y-93007742D01*
X6011957Y-93079171D01*
X6303457Y-94550600D02*
X6224885Y-94550600D01*
X6210600Y-94557742D01*
X6203457Y-94572028D01*
X6203457Y-94600600D01*
X6210600Y-94614885D01*
X6296314Y-94550600D02*
X6303457Y-94564885D01*
X6303457Y-94600600D01*
X6296314Y-94614885D01*
X6282028Y-94622028D01*
X6267742Y-94622028D01*
X6253457Y-94614885D01*
X6246314Y-94600600D01*
X6246314Y-94564885D01*
X6239171Y-94550600D01*
X6203457Y-94479171D02*
X6303457Y-94479171D01*
X6217742Y-94479171D02*
X6210600Y-94472028D01*
X6203457Y-94457742D01*
X6203457Y-94436314D01*
X6210600Y-94422028D01*
X6224885Y-94414885D01*
X6303457Y-94414885D01*
X6203457Y-94357742D02*
X6303457Y-94322028D01*
X6203457Y-94286314D02*
X6303457Y-94322028D01*
X6339171Y-94336314D01*
X6346314Y-94343457D01*
X6353457Y-94357742D01*
X6203457Y-94243457D02*
X6303457Y-94214885D01*
X6232028Y-94186314D01*
X6303457Y-94157742D01*
X6203457Y-94129171D01*
X6303457Y-94072028D02*
X6153457Y-94072028D01*
X6303457Y-94007742D02*
X6224885Y-94007742D01*
X6210600Y-94014885D01*
X6203457Y-94029171D01*
X6203457Y-94050600D01*
X6210600Y-94064885D01*
X6217742Y-94072028D01*
X6296314Y-93879171D02*
X6303457Y-93893457D01*
X6303457Y-93922028D01*
X6296314Y-93936314D01*
X6282028Y-93943457D01*
X6224885Y-93943457D01*
X6210600Y-93936314D01*
X6203457Y-93922028D01*
X6203457Y-93893457D01*
X6210600Y-93879171D01*
X6224885Y-93872028D01*
X6239171Y-93872028D01*
X6253457Y-93943457D01*
X6303457Y-93807742D02*
X6203457Y-93807742D01*
X6232028Y-93807742D02*
X6217742Y-93800600D01*
X6210600Y-93793457D01*
X6203457Y-93779171D01*
X6203457Y-93764885D01*
X6296314Y-93657742D02*
X6303457Y-93672028D01*
X6303457Y-93700600D01*
X6296314Y-93714885D01*
X6282028Y-93722028D01*
X6224885Y-93722028D01*
X6210600Y-93714885D01*
X6203457Y-93700600D01*
X6203457Y-93672028D01*
X6210600Y-93657742D01*
X6224885Y-93650600D01*
X6239171Y-93650600D01*
X6253457Y-93722028D01*
X6203457Y-93486314D02*
X6303457Y-93457742D01*
X6232028Y-93429171D01*
X6303457Y-93400600D01*
X6203457Y-93372028D01*
X6303457Y-93314885D02*
X6203457Y-93314885D01*
X6153457Y-93314885D02*
X6160600Y-93322028D01*
X6167742Y-93314885D01*
X6160600Y-93307742D01*
X6153457Y-93314885D01*
X6167742Y-93314885D01*
X6203457Y-93264885D02*
X6203457Y-93207742D01*
X6153457Y-93243457D02*
X6282028Y-93243457D01*
X6296314Y-93236314D01*
X6303457Y-93222028D01*
X6303457Y-93207742D01*
X6303457Y-93157742D02*
X6153457Y-93157742D01*
X6303457Y-93093457D02*
X6224885Y-93093457D01*
X6210600Y-93100600D01*
X6203457Y-93114885D01*
X6203457Y-93136314D01*
X6210600Y-93150600D01*
X6217742Y-93157742D01*
X6303457Y-93022028D02*
X6203457Y-93022028D01*
X6153457Y-93022028D02*
X6160600Y-93029171D01*
X6167742Y-93022028D01*
X6160600Y-93014885D01*
X6153457Y-93022028D01*
X6167742Y-93022028D01*
X6203457Y-92950600D02*
X6303457Y-92950600D01*
X6217742Y-92950600D02*
X6210600Y-92943457D01*
X6203457Y-92929171D01*
X6203457Y-92907742D01*
X6210600Y-92893457D01*
X6224885Y-92886314D01*
X6303457Y-92886314D01*
X6537814Y-94364885D02*
X6544957Y-94379171D01*
X6544957Y-94407742D01*
X6537814Y-94422028D01*
X6530671Y-94429171D01*
X6516385Y-94436314D01*
X6473528Y-94436314D01*
X6459242Y-94429171D01*
X6452100Y-94422028D01*
X6444957Y-94407742D01*
X6444957Y-94379171D01*
X6452100Y-94364885D01*
X6544957Y-94300600D02*
X6444957Y-94300600D01*
X6394957Y-94300600D02*
X6402100Y-94307742D01*
X6409242Y-94300600D01*
X6402100Y-94293457D01*
X6394957Y-94300600D01*
X6409242Y-94300600D01*
X6544957Y-94229171D02*
X6444957Y-94229171D01*
X6473528Y-94229171D02*
X6459242Y-94222028D01*
X6452100Y-94214885D01*
X6444957Y-94200600D01*
X6444957Y-94186314D01*
X6537814Y-94072028D02*
X6544957Y-94086314D01*
X6544957Y-94114885D01*
X6537814Y-94129171D01*
X6530671Y-94136314D01*
X6516385Y-94143457D01*
X6473528Y-94143457D01*
X6459242Y-94136314D01*
X6452100Y-94129171D01*
X6444957Y-94114885D01*
X6444957Y-94086314D01*
X6452100Y-94072028D01*
X6544957Y-93986314D02*
X6537814Y-94000600D01*
X6523528Y-94007742D01*
X6394957Y-94007742D01*
X6537814Y-93872028D02*
X6544957Y-93886314D01*
X6544957Y-93914885D01*
X6537814Y-93929171D01*
X6523528Y-93936314D01*
X6466385Y-93936314D01*
X6452100Y-93929171D01*
X6444957Y-93914885D01*
X6444957Y-93886314D01*
X6452100Y-93872028D01*
X6466385Y-93864885D01*
X6480671Y-93864885D01*
X6494957Y-93936314D01*
X6537814Y-93693457D02*
X6544957Y-93679171D01*
X6544957Y-93650600D01*
X6537814Y-93636314D01*
X6523528Y-93629171D01*
X6516385Y-93629171D01*
X6502100Y-93636314D01*
X6494957Y-93650600D01*
X6494957Y-93672028D01*
X6487814Y-93686314D01*
X6473528Y-93693457D01*
X6466385Y-93693457D01*
X6452100Y-93686314D01*
X6444957Y-93672028D01*
X6444957Y-93650600D01*
X6452100Y-93636314D01*
X6544957Y-93564885D02*
X6394957Y-93564885D01*
X6544957Y-93500600D02*
X6466385Y-93500600D01*
X6452100Y-93507742D01*
X6444957Y-93522028D01*
X6444957Y-93543457D01*
X6452100Y-93557742D01*
X6459242Y-93564885D01*
X6544957Y-93407742D02*
X6537814Y-93422028D01*
X6530671Y-93429171D01*
X6516385Y-93436314D01*
X6473528Y-93436314D01*
X6459242Y-93429171D01*
X6452100Y-93422028D01*
X6444957Y-93407742D01*
X6444957Y-93386314D01*
X6452100Y-93372028D01*
X6459242Y-93364885D01*
X6473528Y-93357742D01*
X6516385Y-93357742D01*
X6530671Y-93364885D01*
X6537814Y-93372028D01*
X6544957Y-93386314D01*
X6544957Y-93407742D01*
X6444957Y-93307742D02*
X6544957Y-93279171D01*
X6473528Y-93250600D01*
X6544957Y-93222028D01*
X6444957Y-93193457D01*
X6444957Y-93136314D02*
X6544957Y-93136314D01*
X6459242Y-93136314D02*
X6452100Y-93129171D01*
X6444957Y-93114885D01*
X6444957Y-93093457D01*
X6452100Y-93079171D01*
X6466385Y-93072028D01*
X6544957Y-93072028D01*
%TO.C,RV8*%
X22971200Y-80029357D02*
X23006914Y-80179357D01*
X23035485Y-80072214D01*
X23064057Y-80179357D01*
X23099771Y-80029357D01*
X23156914Y-80179357D02*
X23156914Y-80079357D01*
X23156914Y-80029357D02*
X23149771Y-80036500D01*
X23156914Y-80043642D01*
X23164057Y-80036500D01*
X23156914Y-80029357D01*
X23156914Y-80043642D01*
X23228342Y-80079357D02*
X23228342Y-80229357D01*
X23228342Y-80086500D02*
X23242628Y-80079357D01*
X23271200Y-80079357D01*
X23285485Y-80086500D01*
X23292628Y-80093642D01*
X23299771Y-80107928D01*
X23299771Y-80150785D01*
X23292628Y-80165071D01*
X23285485Y-80172214D01*
X23271200Y-80179357D01*
X23242628Y-80179357D01*
X23228342Y-80172214D01*
X23421200Y-80172214D02*
X23406914Y-80179357D01*
X23378342Y-80179357D01*
X23364057Y-80172214D01*
X23356914Y-80157928D01*
X23356914Y-80100785D01*
X23364057Y-80086500D01*
X23378342Y-80079357D01*
X23406914Y-80079357D01*
X23421200Y-80086500D01*
X23428342Y-80100785D01*
X23428342Y-80115071D01*
X23356914Y-80129357D01*
X23492628Y-80179357D02*
X23492628Y-80079357D01*
X23492628Y-80107928D02*
X23499771Y-80093642D01*
X23506914Y-80086500D01*
X23521200Y-80079357D01*
X23535485Y-80079357D01*
X23699771Y-80179357D02*
X23699771Y-80079357D01*
X23699771Y-80093642D02*
X23706914Y-80086500D01*
X23721200Y-80079357D01*
X23742628Y-80079357D01*
X23756914Y-80086500D01*
X23764057Y-80100785D01*
X23764057Y-80179357D01*
X23764057Y-80100785D02*
X23771200Y-80086500D01*
X23785485Y-80079357D01*
X23806914Y-80079357D01*
X23821200Y-80086500D01*
X23828342Y-80100785D01*
X23828342Y-80179357D01*
X23964057Y-80179357D02*
X23964057Y-80100785D01*
X23956914Y-80086500D01*
X23942628Y-80079357D01*
X23914057Y-80079357D01*
X23899771Y-80086500D01*
X23964057Y-80172214D02*
X23949771Y-80179357D01*
X23914057Y-80179357D01*
X23899771Y-80172214D01*
X23892628Y-80157928D01*
X23892628Y-80143642D01*
X23899771Y-80129357D01*
X23914057Y-80122214D01*
X23949771Y-80122214D01*
X23964057Y-80115071D01*
X24021200Y-80079357D02*
X24056914Y-80179357D01*
X24092628Y-80079357D02*
X24056914Y-80179357D01*
X24042628Y-80215071D01*
X24035485Y-80222214D01*
X24021200Y-80229357D01*
X24264057Y-80179357D02*
X24264057Y-80029357D01*
X24264057Y-80086500D02*
X24278342Y-80079357D01*
X24306914Y-80079357D01*
X24321200Y-80086500D01*
X24328342Y-80093642D01*
X24335485Y-80107928D01*
X24335485Y-80150785D01*
X24328342Y-80165071D01*
X24321200Y-80172214D01*
X24306914Y-80179357D01*
X24278342Y-80179357D01*
X24264057Y-80172214D01*
X24456914Y-80172214D02*
X24442628Y-80179357D01*
X24414057Y-80179357D01*
X24399771Y-80172214D01*
X24392628Y-80157928D01*
X24392628Y-80100785D01*
X24399771Y-80086500D01*
X24414057Y-80079357D01*
X24442628Y-80079357D01*
X24456914Y-80086500D01*
X24464057Y-80100785D01*
X24464057Y-80115071D01*
X24392628Y-80129357D01*
X22921200Y-80420857D02*
X22921200Y-80342285D01*
X22914057Y-80328000D01*
X22899771Y-80320857D01*
X22871200Y-80320857D01*
X22856914Y-80328000D01*
X22921200Y-80413714D02*
X22906914Y-80420857D01*
X22871200Y-80420857D01*
X22856914Y-80413714D01*
X22849771Y-80399428D01*
X22849771Y-80385142D01*
X22856914Y-80370857D01*
X22871200Y-80363714D01*
X22906914Y-80363714D01*
X22921200Y-80356571D01*
X22992628Y-80320857D02*
X22992628Y-80420857D01*
X22992628Y-80335142D02*
X22999771Y-80328000D01*
X23014057Y-80320857D01*
X23035485Y-80320857D01*
X23049771Y-80328000D01*
X23056914Y-80342285D01*
X23056914Y-80420857D01*
X23114057Y-80320857D02*
X23149771Y-80420857D01*
X23185485Y-80320857D02*
X23149771Y-80420857D01*
X23135485Y-80456571D01*
X23128342Y-80463714D01*
X23114057Y-80470857D01*
X23228342Y-80320857D02*
X23256914Y-80420857D01*
X23285485Y-80349428D01*
X23314057Y-80420857D01*
X23342628Y-80320857D01*
X23399771Y-80420857D02*
X23399771Y-80270857D01*
X23464057Y-80420857D02*
X23464057Y-80342285D01*
X23456914Y-80328000D01*
X23442628Y-80320857D01*
X23421200Y-80320857D01*
X23406914Y-80328000D01*
X23399771Y-80335142D01*
X23592628Y-80413714D02*
X23578342Y-80420857D01*
X23549771Y-80420857D01*
X23535485Y-80413714D01*
X23528342Y-80399428D01*
X23528342Y-80342285D01*
X23535485Y-80328000D01*
X23549771Y-80320857D01*
X23578342Y-80320857D01*
X23592628Y-80328000D01*
X23599771Y-80342285D01*
X23599771Y-80356571D01*
X23528342Y-80370857D01*
X23664057Y-80420857D02*
X23664057Y-80320857D01*
X23664057Y-80349428D02*
X23671200Y-80335142D01*
X23678342Y-80328000D01*
X23692628Y-80320857D01*
X23706914Y-80320857D01*
X23814057Y-80413714D02*
X23799771Y-80420857D01*
X23771200Y-80420857D01*
X23756914Y-80413714D01*
X23749771Y-80399428D01*
X23749771Y-80342285D01*
X23756914Y-80328000D01*
X23771200Y-80320857D01*
X23799771Y-80320857D01*
X23814057Y-80328000D01*
X23821200Y-80342285D01*
X23821200Y-80356571D01*
X23749771Y-80370857D01*
X23985485Y-80320857D02*
X24014057Y-80420857D01*
X24042628Y-80349428D01*
X24071200Y-80420857D01*
X24099771Y-80320857D01*
X24156914Y-80420857D02*
X24156914Y-80320857D01*
X24156914Y-80270857D02*
X24149771Y-80278000D01*
X24156914Y-80285142D01*
X24164057Y-80278000D01*
X24156914Y-80270857D01*
X24156914Y-80285142D01*
X24206914Y-80320857D02*
X24264057Y-80320857D01*
X24228342Y-80270857D02*
X24228342Y-80399428D01*
X24235485Y-80413714D01*
X24249771Y-80420857D01*
X24264057Y-80420857D01*
X24314057Y-80420857D02*
X24314057Y-80270857D01*
X24378342Y-80420857D02*
X24378342Y-80342285D01*
X24371200Y-80328000D01*
X24356914Y-80320857D01*
X24335485Y-80320857D01*
X24321200Y-80328000D01*
X24314057Y-80335142D01*
X24449771Y-80420857D02*
X24449771Y-80320857D01*
X24449771Y-80270857D02*
X24442628Y-80278000D01*
X24449771Y-80285142D01*
X24456914Y-80278000D01*
X24449771Y-80270857D01*
X24449771Y-80285142D01*
X24521200Y-80320857D02*
X24521200Y-80420857D01*
X24521200Y-80335142D02*
X24528342Y-80328000D01*
X24542628Y-80320857D01*
X24564057Y-80320857D01*
X24578342Y-80328000D01*
X24585485Y-80342285D01*
X24585485Y-80420857D01*
X23106914Y-80655214D02*
X23092628Y-80662357D01*
X23064057Y-80662357D01*
X23049771Y-80655214D01*
X23042628Y-80648071D01*
X23035485Y-80633785D01*
X23035485Y-80590928D01*
X23042628Y-80576642D01*
X23049771Y-80569500D01*
X23064057Y-80562357D01*
X23092628Y-80562357D01*
X23106914Y-80569500D01*
X23171200Y-80662357D02*
X23171200Y-80562357D01*
X23171200Y-80512357D02*
X23164057Y-80519500D01*
X23171200Y-80526642D01*
X23178342Y-80519500D01*
X23171200Y-80512357D01*
X23171200Y-80526642D01*
X23242628Y-80662357D02*
X23242628Y-80562357D01*
X23242628Y-80590928D02*
X23249771Y-80576642D01*
X23256914Y-80569500D01*
X23271200Y-80562357D01*
X23285485Y-80562357D01*
X23399771Y-80655214D02*
X23385485Y-80662357D01*
X23356914Y-80662357D01*
X23342628Y-80655214D01*
X23335485Y-80648071D01*
X23328342Y-80633785D01*
X23328342Y-80590928D01*
X23335485Y-80576642D01*
X23342628Y-80569500D01*
X23356914Y-80562357D01*
X23385485Y-80562357D01*
X23399771Y-80569500D01*
X23485485Y-80662357D02*
X23471200Y-80655214D01*
X23464057Y-80640928D01*
X23464057Y-80512357D01*
X23599771Y-80655214D02*
X23585485Y-80662357D01*
X23556914Y-80662357D01*
X23542628Y-80655214D01*
X23535485Y-80640928D01*
X23535485Y-80583785D01*
X23542628Y-80569500D01*
X23556914Y-80562357D01*
X23585485Y-80562357D01*
X23599771Y-80569500D01*
X23606914Y-80583785D01*
X23606914Y-80598071D01*
X23535485Y-80612357D01*
X23778342Y-80655214D02*
X23792628Y-80662357D01*
X23821200Y-80662357D01*
X23835485Y-80655214D01*
X23842628Y-80640928D01*
X23842628Y-80633785D01*
X23835485Y-80619500D01*
X23821200Y-80612357D01*
X23799771Y-80612357D01*
X23785485Y-80605214D01*
X23778342Y-80590928D01*
X23778342Y-80583785D01*
X23785485Y-80569500D01*
X23799771Y-80562357D01*
X23821200Y-80562357D01*
X23835485Y-80569500D01*
X23906914Y-80662357D02*
X23906914Y-80512357D01*
X23971200Y-80662357D02*
X23971200Y-80583785D01*
X23964057Y-80569500D01*
X23949771Y-80562357D01*
X23928342Y-80562357D01*
X23914057Y-80569500D01*
X23906914Y-80576642D01*
X24064057Y-80662357D02*
X24049771Y-80655214D01*
X24042628Y-80648071D01*
X24035485Y-80633785D01*
X24035485Y-80590928D01*
X24042628Y-80576642D01*
X24049771Y-80569500D01*
X24064057Y-80562357D01*
X24085485Y-80562357D01*
X24099771Y-80569500D01*
X24106914Y-80576642D01*
X24114057Y-80590928D01*
X24114057Y-80633785D01*
X24106914Y-80648071D01*
X24099771Y-80655214D01*
X24085485Y-80662357D01*
X24064057Y-80662357D01*
X24164057Y-80562357D02*
X24192628Y-80662357D01*
X24221200Y-80590928D01*
X24249771Y-80662357D01*
X24278342Y-80562357D01*
X24335485Y-80562357D02*
X24335485Y-80662357D01*
X24335485Y-80576642D02*
X24342628Y-80569500D01*
X24356914Y-80562357D01*
X24378342Y-80562357D01*
X24392628Y-80569500D01*
X24399771Y-80583785D01*
X24399771Y-80662357D01*
%TO.C,RV3*%
X19656500Y-98126857D02*
X19692214Y-98276857D01*
X19720785Y-98169714D01*
X19749357Y-98276857D01*
X19785071Y-98126857D01*
X19842214Y-98276857D02*
X19842214Y-98176857D01*
X19842214Y-98126857D02*
X19835071Y-98134000D01*
X19842214Y-98141142D01*
X19849357Y-98134000D01*
X19842214Y-98126857D01*
X19842214Y-98141142D01*
X19913642Y-98176857D02*
X19913642Y-98326857D01*
X19913642Y-98184000D02*
X19927928Y-98176857D01*
X19956500Y-98176857D01*
X19970785Y-98184000D01*
X19977928Y-98191142D01*
X19985071Y-98205428D01*
X19985071Y-98248285D01*
X19977928Y-98262571D01*
X19970785Y-98269714D01*
X19956500Y-98276857D01*
X19927928Y-98276857D01*
X19913642Y-98269714D01*
X20106500Y-98269714D02*
X20092214Y-98276857D01*
X20063642Y-98276857D01*
X20049357Y-98269714D01*
X20042214Y-98255428D01*
X20042214Y-98198285D01*
X20049357Y-98184000D01*
X20063642Y-98176857D01*
X20092214Y-98176857D01*
X20106500Y-98184000D01*
X20113642Y-98198285D01*
X20113642Y-98212571D01*
X20042214Y-98226857D01*
X20177928Y-98276857D02*
X20177928Y-98176857D01*
X20177928Y-98205428D02*
X20185071Y-98191142D01*
X20192214Y-98184000D01*
X20206500Y-98176857D01*
X20220785Y-98176857D01*
X20385071Y-98276857D02*
X20385071Y-98176857D01*
X20385071Y-98191142D02*
X20392214Y-98184000D01*
X20406500Y-98176857D01*
X20427928Y-98176857D01*
X20442214Y-98184000D01*
X20449357Y-98198285D01*
X20449357Y-98276857D01*
X20449357Y-98198285D02*
X20456500Y-98184000D01*
X20470785Y-98176857D01*
X20492214Y-98176857D01*
X20506500Y-98184000D01*
X20513642Y-98198285D01*
X20513642Y-98276857D01*
X20649357Y-98276857D02*
X20649357Y-98198285D01*
X20642214Y-98184000D01*
X20627928Y-98176857D01*
X20599357Y-98176857D01*
X20585071Y-98184000D01*
X20649357Y-98269714D02*
X20635071Y-98276857D01*
X20599357Y-98276857D01*
X20585071Y-98269714D01*
X20577928Y-98255428D01*
X20577928Y-98241142D01*
X20585071Y-98226857D01*
X20599357Y-98219714D01*
X20635071Y-98219714D01*
X20649357Y-98212571D01*
X20706500Y-98176857D02*
X20742214Y-98276857D01*
X20777928Y-98176857D02*
X20742214Y-98276857D01*
X20727928Y-98312571D01*
X20720785Y-98319714D01*
X20706500Y-98326857D01*
X20949357Y-98276857D02*
X20949357Y-98126857D01*
X20949357Y-98184000D02*
X20963642Y-98176857D01*
X20992214Y-98176857D01*
X21006500Y-98184000D01*
X21013642Y-98191142D01*
X21020785Y-98205428D01*
X21020785Y-98248285D01*
X21013642Y-98262571D01*
X21006500Y-98269714D01*
X20992214Y-98276857D01*
X20963642Y-98276857D01*
X20949357Y-98269714D01*
X21142214Y-98269714D02*
X21127928Y-98276857D01*
X21099357Y-98276857D01*
X21085071Y-98269714D01*
X21077928Y-98255428D01*
X21077928Y-98198285D01*
X21085071Y-98184000D01*
X21099357Y-98176857D01*
X21127928Y-98176857D01*
X21142214Y-98184000D01*
X21149357Y-98198285D01*
X21149357Y-98212571D01*
X21077928Y-98226857D01*
X19606500Y-98518357D02*
X19606500Y-98439785D01*
X19599357Y-98425500D01*
X19585071Y-98418357D01*
X19556500Y-98418357D01*
X19542214Y-98425500D01*
X19606500Y-98511214D02*
X19592214Y-98518357D01*
X19556500Y-98518357D01*
X19542214Y-98511214D01*
X19535071Y-98496928D01*
X19535071Y-98482642D01*
X19542214Y-98468357D01*
X19556500Y-98461214D01*
X19592214Y-98461214D01*
X19606500Y-98454071D01*
X19677928Y-98418357D02*
X19677928Y-98518357D01*
X19677928Y-98432642D02*
X19685071Y-98425500D01*
X19699357Y-98418357D01*
X19720785Y-98418357D01*
X19735071Y-98425500D01*
X19742214Y-98439785D01*
X19742214Y-98518357D01*
X19799357Y-98418357D02*
X19835071Y-98518357D01*
X19870785Y-98418357D02*
X19835071Y-98518357D01*
X19820785Y-98554071D01*
X19813642Y-98561214D01*
X19799357Y-98568357D01*
X19913642Y-98418357D02*
X19942214Y-98518357D01*
X19970785Y-98446928D01*
X19999357Y-98518357D01*
X20027928Y-98418357D01*
X20085071Y-98518357D02*
X20085071Y-98368357D01*
X20149357Y-98518357D02*
X20149357Y-98439785D01*
X20142214Y-98425500D01*
X20127928Y-98418357D01*
X20106500Y-98418357D01*
X20092214Y-98425500D01*
X20085071Y-98432642D01*
X20277928Y-98511214D02*
X20263642Y-98518357D01*
X20235071Y-98518357D01*
X20220785Y-98511214D01*
X20213642Y-98496928D01*
X20213642Y-98439785D01*
X20220785Y-98425500D01*
X20235071Y-98418357D01*
X20263642Y-98418357D01*
X20277928Y-98425500D01*
X20285071Y-98439785D01*
X20285071Y-98454071D01*
X20213642Y-98468357D01*
X20349357Y-98518357D02*
X20349357Y-98418357D01*
X20349357Y-98446928D02*
X20356500Y-98432642D01*
X20363642Y-98425500D01*
X20377928Y-98418357D01*
X20392214Y-98418357D01*
X20499357Y-98511214D02*
X20485071Y-98518357D01*
X20456500Y-98518357D01*
X20442214Y-98511214D01*
X20435071Y-98496928D01*
X20435071Y-98439785D01*
X20442214Y-98425500D01*
X20456500Y-98418357D01*
X20485071Y-98418357D01*
X20499357Y-98425500D01*
X20506500Y-98439785D01*
X20506500Y-98454071D01*
X20435071Y-98468357D01*
X20670785Y-98418357D02*
X20699357Y-98518357D01*
X20727928Y-98446928D01*
X20756500Y-98518357D01*
X20785071Y-98418357D01*
X20842214Y-98518357D02*
X20842214Y-98418357D01*
X20842214Y-98368357D02*
X20835071Y-98375500D01*
X20842214Y-98382642D01*
X20849357Y-98375500D01*
X20842214Y-98368357D01*
X20842214Y-98382642D01*
X20892214Y-98418357D02*
X20949357Y-98418357D01*
X20913642Y-98368357D02*
X20913642Y-98496928D01*
X20920785Y-98511214D01*
X20935071Y-98518357D01*
X20949357Y-98518357D01*
X20999357Y-98518357D02*
X20999357Y-98368357D01*
X21063642Y-98518357D02*
X21063642Y-98439785D01*
X21056500Y-98425500D01*
X21042214Y-98418357D01*
X21020785Y-98418357D01*
X21006500Y-98425500D01*
X20999357Y-98432642D01*
X21135071Y-98518357D02*
X21135071Y-98418357D01*
X21135071Y-98368357D02*
X21127928Y-98375500D01*
X21135071Y-98382642D01*
X21142214Y-98375500D01*
X21135071Y-98368357D01*
X21135071Y-98382642D01*
X21206500Y-98418357D02*
X21206500Y-98518357D01*
X21206500Y-98432642D02*
X21213642Y-98425500D01*
X21227928Y-98418357D01*
X21249357Y-98418357D01*
X21263642Y-98425500D01*
X21270785Y-98439785D01*
X21270785Y-98518357D01*
X19792214Y-98752714D02*
X19777928Y-98759857D01*
X19749357Y-98759857D01*
X19735071Y-98752714D01*
X19727928Y-98745571D01*
X19720785Y-98731285D01*
X19720785Y-98688428D01*
X19727928Y-98674142D01*
X19735071Y-98667000D01*
X19749357Y-98659857D01*
X19777928Y-98659857D01*
X19792214Y-98667000D01*
X19856500Y-98759857D02*
X19856500Y-98659857D01*
X19856500Y-98609857D02*
X19849357Y-98617000D01*
X19856500Y-98624142D01*
X19863642Y-98617000D01*
X19856500Y-98609857D01*
X19856500Y-98624142D01*
X19927928Y-98759857D02*
X19927928Y-98659857D01*
X19927928Y-98688428D02*
X19935071Y-98674142D01*
X19942214Y-98667000D01*
X19956500Y-98659857D01*
X19970785Y-98659857D01*
X20085071Y-98752714D02*
X20070785Y-98759857D01*
X20042214Y-98759857D01*
X20027928Y-98752714D01*
X20020785Y-98745571D01*
X20013642Y-98731285D01*
X20013642Y-98688428D01*
X20020785Y-98674142D01*
X20027928Y-98667000D01*
X20042214Y-98659857D01*
X20070785Y-98659857D01*
X20085071Y-98667000D01*
X20170785Y-98759857D02*
X20156500Y-98752714D01*
X20149357Y-98738428D01*
X20149357Y-98609857D01*
X20285071Y-98752714D02*
X20270785Y-98759857D01*
X20242214Y-98759857D01*
X20227928Y-98752714D01*
X20220785Y-98738428D01*
X20220785Y-98681285D01*
X20227928Y-98667000D01*
X20242214Y-98659857D01*
X20270785Y-98659857D01*
X20285071Y-98667000D01*
X20292214Y-98681285D01*
X20292214Y-98695571D01*
X20220785Y-98709857D01*
X20463642Y-98752714D02*
X20477928Y-98759857D01*
X20506500Y-98759857D01*
X20520785Y-98752714D01*
X20527928Y-98738428D01*
X20527928Y-98731285D01*
X20520785Y-98717000D01*
X20506500Y-98709857D01*
X20485071Y-98709857D01*
X20470785Y-98702714D01*
X20463642Y-98688428D01*
X20463642Y-98681285D01*
X20470785Y-98667000D01*
X20485071Y-98659857D01*
X20506500Y-98659857D01*
X20520785Y-98667000D01*
X20592214Y-98759857D02*
X20592214Y-98609857D01*
X20656500Y-98759857D02*
X20656500Y-98681285D01*
X20649357Y-98667000D01*
X20635071Y-98659857D01*
X20613642Y-98659857D01*
X20599357Y-98667000D01*
X20592214Y-98674142D01*
X20749357Y-98759857D02*
X20735071Y-98752714D01*
X20727928Y-98745571D01*
X20720785Y-98731285D01*
X20720785Y-98688428D01*
X20727928Y-98674142D01*
X20735071Y-98667000D01*
X20749357Y-98659857D01*
X20770785Y-98659857D01*
X20785071Y-98667000D01*
X20792214Y-98674142D01*
X20799357Y-98688428D01*
X20799357Y-98731285D01*
X20792214Y-98745571D01*
X20785071Y-98752714D01*
X20770785Y-98759857D01*
X20749357Y-98759857D01*
X20849357Y-98659857D02*
X20877928Y-98759857D01*
X20906500Y-98688428D01*
X20935071Y-98759857D01*
X20963642Y-98659857D01*
X21020785Y-98659857D02*
X21020785Y-98759857D01*
X21020785Y-98674142D02*
X21027928Y-98667000D01*
X21042214Y-98659857D01*
X21063642Y-98659857D01*
X21077928Y-98667000D01*
X21085071Y-98681285D01*
X21085071Y-98759857D01*
%TO.C,RV5*%
X23818957Y-30338600D02*
X23968957Y-30302885D01*
X23861814Y-30274314D01*
X23968957Y-30245742D01*
X23818957Y-30210028D01*
X23968957Y-30152885D02*
X23868957Y-30152885D01*
X23818957Y-30152885D02*
X23826100Y-30160028D01*
X23833242Y-30152885D01*
X23826100Y-30145742D01*
X23818957Y-30152885D01*
X23833242Y-30152885D01*
X23868957Y-30081457D02*
X24018957Y-30081457D01*
X23876100Y-30081457D02*
X23868957Y-30067171D01*
X23868957Y-30038600D01*
X23876100Y-30024314D01*
X23883242Y-30017171D01*
X23897528Y-30010028D01*
X23940385Y-30010028D01*
X23954671Y-30017171D01*
X23961814Y-30024314D01*
X23968957Y-30038600D01*
X23968957Y-30067171D01*
X23961814Y-30081457D01*
X23961814Y-29888600D02*
X23968957Y-29902885D01*
X23968957Y-29931457D01*
X23961814Y-29945742D01*
X23947528Y-29952885D01*
X23890385Y-29952885D01*
X23876100Y-29945742D01*
X23868957Y-29931457D01*
X23868957Y-29902885D01*
X23876100Y-29888600D01*
X23890385Y-29881457D01*
X23904671Y-29881457D01*
X23918957Y-29952885D01*
X23968957Y-29817171D02*
X23868957Y-29817171D01*
X23897528Y-29817171D02*
X23883242Y-29810028D01*
X23876100Y-29802885D01*
X23868957Y-29788600D01*
X23868957Y-29774314D01*
X23968957Y-29610028D02*
X23868957Y-29610028D01*
X23883242Y-29610028D02*
X23876100Y-29602885D01*
X23868957Y-29588600D01*
X23868957Y-29567171D01*
X23876100Y-29552885D01*
X23890385Y-29545742D01*
X23968957Y-29545742D01*
X23890385Y-29545742D02*
X23876100Y-29538600D01*
X23868957Y-29524314D01*
X23868957Y-29502885D01*
X23876100Y-29488600D01*
X23890385Y-29481457D01*
X23968957Y-29481457D01*
X23968957Y-29345742D02*
X23890385Y-29345742D01*
X23876100Y-29352885D01*
X23868957Y-29367171D01*
X23868957Y-29395742D01*
X23876100Y-29410028D01*
X23961814Y-29345742D02*
X23968957Y-29360028D01*
X23968957Y-29395742D01*
X23961814Y-29410028D01*
X23947528Y-29417171D01*
X23933242Y-29417171D01*
X23918957Y-29410028D01*
X23911814Y-29395742D01*
X23911814Y-29360028D01*
X23904671Y-29345742D01*
X23868957Y-29288600D02*
X23968957Y-29252885D01*
X23868957Y-29217171D02*
X23968957Y-29252885D01*
X24004671Y-29267171D01*
X24011814Y-29274314D01*
X24018957Y-29288600D01*
X23968957Y-29045742D02*
X23818957Y-29045742D01*
X23876100Y-29045742D02*
X23868957Y-29031457D01*
X23868957Y-29002885D01*
X23876100Y-28988600D01*
X23883242Y-28981457D01*
X23897528Y-28974314D01*
X23940385Y-28974314D01*
X23954671Y-28981457D01*
X23961814Y-28988600D01*
X23968957Y-29002885D01*
X23968957Y-29031457D01*
X23961814Y-29045742D01*
X23961814Y-28852885D02*
X23968957Y-28867171D01*
X23968957Y-28895742D01*
X23961814Y-28910028D01*
X23947528Y-28917171D01*
X23890385Y-28917171D01*
X23876100Y-28910028D01*
X23868957Y-28895742D01*
X23868957Y-28867171D01*
X23876100Y-28852885D01*
X23890385Y-28845742D01*
X23904671Y-28845742D01*
X23918957Y-28917171D01*
X24210457Y-30388600D02*
X24131885Y-30388600D01*
X24117600Y-30395742D01*
X24110457Y-30410028D01*
X24110457Y-30438600D01*
X24117600Y-30452885D01*
X24203314Y-30388600D02*
X24210457Y-30402885D01*
X24210457Y-30438600D01*
X24203314Y-30452885D01*
X24189028Y-30460028D01*
X24174742Y-30460028D01*
X24160457Y-30452885D01*
X24153314Y-30438600D01*
X24153314Y-30402885D01*
X24146171Y-30388600D01*
X24110457Y-30317171D02*
X24210457Y-30317171D01*
X24124742Y-30317171D02*
X24117600Y-30310028D01*
X24110457Y-30295742D01*
X24110457Y-30274314D01*
X24117600Y-30260028D01*
X24131885Y-30252885D01*
X24210457Y-30252885D01*
X24110457Y-30195742D02*
X24210457Y-30160028D01*
X24110457Y-30124314D02*
X24210457Y-30160028D01*
X24246171Y-30174314D01*
X24253314Y-30181457D01*
X24260457Y-30195742D01*
X24110457Y-30081457D02*
X24210457Y-30052885D01*
X24139028Y-30024314D01*
X24210457Y-29995742D01*
X24110457Y-29967171D01*
X24210457Y-29910028D02*
X24060457Y-29910028D01*
X24210457Y-29845742D02*
X24131885Y-29845742D01*
X24117600Y-29852885D01*
X24110457Y-29867171D01*
X24110457Y-29888600D01*
X24117600Y-29902885D01*
X24124742Y-29910028D01*
X24203314Y-29717171D02*
X24210457Y-29731457D01*
X24210457Y-29760028D01*
X24203314Y-29774314D01*
X24189028Y-29781457D01*
X24131885Y-29781457D01*
X24117600Y-29774314D01*
X24110457Y-29760028D01*
X24110457Y-29731457D01*
X24117600Y-29717171D01*
X24131885Y-29710028D01*
X24146171Y-29710028D01*
X24160457Y-29781457D01*
X24210457Y-29645742D02*
X24110457Y-29645742D01*
X24139028Y-29645742D02*
X24124742Y-29638600D01*
X24117600Y-29631457D01*
X24110457Y-29617171D01*
X24110457Y-29602885D01*
X24203314Y-29495742D02*
X24210457Y-29510028D01*
X24210457Y-29538600D01*
X24203314Y-29552885D01*
X24189028Y-29560028D01*
X24131885Y-29560028D01*
X24117600Y-29552885D01*
X24110457Y-29538600D01*
X24110457Y-29510028D01*
X24117600Y-29495742D01*
X24131885Y-29488600D01*
X24146171Y-29488600D01*
X24160457Y-29560028D01*
X24110457Y-29324314D02*
X24210457Y-29295742D01*
X24139028Y-29267171D01*
X24210457Y-29238600D01*
X24110457Y-29210028D01*
X24210457Y-29152885D02*
X24110457Y-29152885D01*
X24060457Y-29152885D02*
X24067600Y-29160028D01*
X24074742Y-29152885D01*
X24067600Y-29145742D01*
X24060457Y-29152885D01*
X24074742Y-29152885D01*
X24110457Y-29102885D02*
X24110457Y-29045742D01*
X24060457Y-29081457D02*
X24189028Y-29081457D01*
X24203314Y-29074314D01*
X24210457Y-29060028D01*
X24210457Y-29045742D01*
X24210457Y-28995742D02*
X24060457Y-28995742D01*
X24210457Y-28931457D02*
X24131885Y-28931457D01*
X24117600Y-28938600D01*
X24110457Y-28952885D01*
X24110457Y-28974314D01*
X24117600Y-28988600D01*
X24124742Y-28995742D01*
X24210457Y-28860028D02*
X24110457Y-28860028D01*
X24060457Y-28860028D02*
X24067600Y-28867171D01*
X24074742Y-28860028D01*
X24067600Y-28852885D01*
X24060457Y-28860028D01*
X24074742Y-28860028D01*
X24110457Y-28788600D02*
X24210457Y-28788600D01*
X24124742Y-28788600D02*
X24117600Y-28781457D01*
X24110457Y-28767171D01*
X24110457Y-28745742D01*
X24117600Y-28731457D01*
X24131885Y-28724314D01*
X24210457Y-28724314D01*
X24444814Y-30202885D02*
X24451957Y-30217171D01*
X24451957Y-30245742D01*
X24444814Y-30260028D01*
X24437671Y-30267171D01*
X24423385Y-30274314D01*
X24380528Y-30274314D01*
X24366242Y-30267171D01*
X24359100Y-30260028D01*
X24351957Y-30245742D01*
X24351957Y-30217171D01*
X24359100Y-30202885D01*
X24451957Y-30138600D02*
X24351957Y-30138600D01*
X24301957Y-30138600D02*
X24309100Y-30145742D01*
X24316242Y-30138600D01*
X24309100Y-30131457D01*
X24301957Y-30138600D01*
X24316242Y-30138600D01*
X24451957Y-30067171D02*
X24351957Y-30067171D01*
X24380528Y-30067171D02*
X24366242Y-30060028D01*
X24359100Y-30052885D01*
X24351957Y-30038600D01*
X24351957Y-30024314D01*
X24444814Y-29910028D02*
X24451957Y-29924314D01*
X24451957Y-29952885D01*
X24444814Y-29967171D01*
X24437671Y-29974314D01*
X24423385Y-29981457D01*
X24380528Y-29981457D01*
X24366242Y-29974314D01*
X24359100Y-29967171D01*
X24351957Y-29952885D01*
X24351957Y-29924314D01*
X24359100Y-29910028D01*
X24451957Y-29824314D02*
X24444814Y-29838600D01*
X24430528Y-29845742D01*
X24301957Y-29845742D01*
X24444814Y-29710028D02*
X24451957Y-29724314D01*
X24451957Y-29752885D01*
X24444814Y-29767171D01*
X24430528Y-29774314D01*
X24373385Y-29774314D01*
X24359100Y-29767171D01*
X24351957Y-29752885D01*
X24351957Y-29724314D01*
X24359100Y-29710028D01*
X24373385Y-29702885D01*
X24387671Y-29702885D01*
X24401957Y-29774314D01*
X24444814Y-29531457D02*
X24451957Y-29517171D01*
X24451957Y-29488600D01*
X24444814Y-29474314D01*
X24430528Y-29467171D01*
X24423385Y-29467171D01*
X24409100Y-29474314D01*
X24401957Y-29488600D01*
X24401957Y-29510028D01*
X24394814Y-29524314D01*
X24380528Y-29531457D01*
X24373385Y-29531457D01*
X24359100Y-29524314D01*
X24351957Y-29510028D01*
X24351957Y-29488600D01*
X24359100Y-29474314D01*
X24451957Y-29402885D02*
X24301957Y-29402885D01*
X24451957Y-29338600D02*
X24373385Y-29338600D01*
X24359100Y-29345742D01*
X24351957Y-29360028D01*
X24351957Y-29381457D01*
X24359100Y-29395742D01*
X24366242Y-29402885D01*
X24451957Y-29245742D02*
X24444814Y-29260028D01*
X24437671Y-29267171D01*
X24423385Y-29274314D01*
X24380528Y-29274314D01*
X24366242Y-29267171D01*
X24359100Y-29260028D01*
X24351957Y-29245742D01*
X24351957Y-29224314D01*
X24359100Y-29210028D01*
X24366242Y-29202885D01*
X24380528Y-29195742D01*
X24423385Y-29195742D01*
X24437671Y-29202885D01*
X24444814Y-29210028D01*
X24451957Y-29224314D01*
X24451957Y-29245742D01*
X24351957Y-29145742D02*
X24451957Y-29117171D01*
X24380528Y-29088600D01*
X24451957Y-29060028D01*
X24351957Y-29031457D01*
X24351957Y-28974314D02*
X24451957Y-28974314D01*
X24366242Y-28974314D02*
X24359100Y-28967171D01*
X24351957Y-28952885D01*
X24351957Y-28931457D01*
X24359100Y-28917171D01*
X24373385Y-28910028D01*
X24451957Y-28910028D01*
%TD*%
M02*
