%TF.GenerationSoftware,KiCad,Pcbnew,(6.0.9)*%
%TF.CreationDate,2023-02-25T22:16:02-08:00*%
%TF.ProjectId,kilter,6b696c74-6572-42e6-9b69-6361645f7063,rev?*%
%TF.SameCoordinates,Original*%
%TF.FileFunction,Legend,Bot*%
%TF.FilePolarity,Positive*%
%FSLAX46Y46*%
G04 Gerber Fmt 4.6, Leading zero omitted, Abs format (unit mm)*
G04 Created by KiCad (PCBNEW (6.0.9)) date 2023-02-25 22:16:02*
%MOMM*%
%LPD*%
G01*
G04 APERTURE LIST*
G04 Aperture macros list*
%AMRoundRect*
0 Rectangle with rounded corners*
0 $1 Rounding radius*
0 $2 $3 $4 $5 $6 $7 $8 $9 X,Y pos of 4 corners*
0 Add a 4 corners polygon primitive as box body*
4,1,4,$2,$3,$4,$5,$6,$7,$8,$9,$2,$3,0*
0 Add four circle primitives for the rounded corners*
1,1,$1+$1,$2,$3*
1,1,$1+$1,$4,$5*
1,1,$1+$1,$6,$7*
1,1,$1+$1,$8,$9*
0 Add four rect primitives between the rounded corners*
20,1,$1+$1,$2,$3,$4,$5,0*
20,1,$1+$1,$4,$5,$6,$7,0*
20,1,$1+$1,$6,$7,$8,$9,0*
20,1,$1+$1,$8,$9,$2,$3,0*%
G04 Aperture macros list end*
%ADD10C,0.100000*%
%ADD11C,0.150000*%
%ADD12C,0.120000*%
%ADD13RoundRect,0.251000X0.200000X0.275000X-0.200000X0.275000X-0.200000X-0.275000X0.200000X-0.275000X0*%
%ADD14RoundRect,0.151000X0.100000X-0.637500X0.100000X0.637500X-0.100000X0.637500X-0.100000X-0.637500X0*%
%ADD15RoundRect,0.051000X0.600000X-0.600000X0.600000X0.600000X-0.600000X0.600000X-0.600000X-0.600000X0*%
%ADD16RoundRect,0.051000X0.800000X-0.750000X0.800000X0.750000X-0.800000X0.750000X-0.800000X-0.750000X0*%
%ADD17RoundRect,0.251000X-0.200000X-0.275000X0.200000X-0.275000X0.200000X0.275000X-0.200000X0.275000X0*%
%ADD18RoundRect,0.051000X-0.900000X-0.900000X0.900000X-0.900000X0.900000X0.900000X-0.900000X0.900000X0*%
%ADD19C,1.902000*%
%ADD20C,2.302000*%
%ADD21RoundRect,0.051000X-0.900000X0.900000X-0.900000X-0.900000X0.900000X-0.900000X0.900000X0.900000X0*%
%ADD22O,2.822000X3.342000*%
%ADD23RoundRect,0.051000X0.900000X0.900000X-0.900000X0.900000X-0.900000X-0.900000X0.900000X-0.900000X0*%
%ADD24RoundRect,0.276000X0.225000X0.250000X-0.225000X0.250000X-0.225000X-0.250000X0.225000X-0.250000X0*%
%ADD25RoundRect,0.301000X-1.250000X-0.550000X1.250000X-0.550000X1.250000X0.550000X-1.250000X0.550000X0*%
%ADD26RoundRect,0.301000X-0.550000X1.250000X-0.550000X-1.250000X0.550000X-1.250000X0.550000X1.250000X0*%
%ADD27RoundRect,0.301000X-0.600000X-0.600000X0.600000X-0.600000X0.600000X0.600000X-0.600000X0.600000X0*%
%ADD28C,1.802000*%
%ADD29RoundRect,0.276000X-0.250000X0.225000X-0.250000X-0.225000X0.250000X-0.225000X0.250000X0.225000X0*%
%ADD30RoundRect,0.276000X-0.225000X-0.250000X0.225000X-0.250000X0.225000X0.250000X-0.225000X0.250000X0*%
%ADD31RoundRect,0.276000X0.250000X-0.225000X0.250000X0.225000X-0.250000X0.225000X-0.250000X-0.225000X0*%
%ADD32RoundRect,0.051000X-0.325000X-0.200000X0.325000X-0.200000X0.325000X0.200000X-0.325000X0.200000X0*%
%ADD33RoundRect,0.201000X-0.587500X-0.150000X0.587500X-0.150000X0.587500X0.150000X-0.587500X0.150000X0*%
%ADD34RoundRect,0.251000X0.275000X-0.200000X0.275000X0.200000X-0.275000X0.200000X-0.275000X-0.200000X0*%
%ADD35RoundRect,0.251000X-0.275000X0.200000X-0.275000X-0.200000X0.275000X-0.200000X0.275000X0.200000X0*%
%ADD36RoundRect,0.051000X0.600000X0.600000X-0.600000X0.600000X-0.600000X-0.600000X0.600000X-0.600000X0*%
%ADD37RoundRect,0.051000X0.750000X0.800000X-0.750000X0.800000X-0.750000X-0.800000X0.750000X-0.800000X0*%
%ADD38RoundRect,0.151000X0.637500X0.100000X-0.637500X0.100000X-0.637500X-0.100000X0.637500X-0.100000X0*%
%ADD39RoundRect,0.201000X0.150000X-0.825000X0.150000X0.825000X-0.150000X0.825000X-0.150000X-0.825000X0*%
%ADD40RoundRect,0.151000X-0.100000X0.637500X-0.100000X-0.637500X0.100000X-0.637500X0.100000X0.637500X0*%
G04 APERTURE END LIST*
D10*
G36*
X9906000Y-26162000D02*
G01*
X127000Y-26162000D01*
X127000Y-24892000D01*
X9906000Y-24892000D01*
X9906000Y-26162000D01*
G37*
X9906000Y-26162000D02*
X127000Y-26162000D01*
X127000Y-24892000D01*
X9906000Y-24892000D01*
X9906000Y-26162000D01*
D11*
X29033333Y-50678500D02*
X29066666Y-50611833D01*
X29066666Y-50478500D01*
X29033333Y-50411833D01*
X29000000Y-50378500D01*
X28933333Y-50345166D01*
X28733333Y-50345166D01*
X28666666Y-50378500D01*
X28633333Y-50411833D01*
X28600000Y-50478500D01*
X28600000Y-50611833D01*
X28633333Y-50678500D01*
X29066666Y-51278500D02*
X28700000Y-51278500D01*
X28633333Y-51245166D01*
X28600000Y-51178500D01*
X28600000Y-51045166D01*
X28633333Y-50978500D01*
X29033333Y-51278500D02*
X29066666Y-51211833D01*
X29066666Y-51045166D01*
X29033333Y-50978500D01*
X28966666Y-50945166D01*
X28900000Y-50945166D01*
X28833333Y-50978500D01*
X28800000Y-51045166D01*
X28800000Y-51211833D01*
X28766666Y-51278500D01*
X28600000Y-51511833D02*
X28600000Y-51778500D01*
X28366666Y-51611833D02*
X28966666Y-51611833D01*
X29033333Y-51645166D01*
X29066666Y-51711833D01*
X29066666Y-51778500D01*
X29066666Y-52011833D02*
X28600000Y-52011833D01*
X28733333Y-52011833D02*
X28666666Y-52045166D01*
X28633333Y-52078500D01*
X28600000Y-52145166D01*
X28600000Y-52211833D01*
X29066666Y-52745166D02*
X28700000Y-52745166D01*
X28633333Y-52711833D01*
X28600000Y-52645166D01*
X28600000Y-52511833D01*
X28633333Y-52445166D01*
X29033333Y-52745166D02*
X29066666Y-52678500D01*
X29066666Y-52511833D01*
X29033333Y-52445166D01*
X28966666Y-52411833D01*
X28900000Y-52411833D01*
X28833333Y-52445166D01*
X28800000Y-52511833D01*
X28800000Y-52678500D01*
X28766666Y-52745166D01*
X29066666Y-53011833D02*
X28600000Y-53378500D01*
X28600000Y-53011833D02*
X29066666Y-53378500D01*
X29000000Y-53645166D02*
X29033333Y-53678500D01*
X29066666Y-53645166D01*
X29033333Y-53611833D01*
X29000000Y-53645166D01*
X29066666Y-53645166D01*
X29066666Y-54278500D02*
X28366666Y-54278500D01*
X29033333Y-54278500D02*
X29066666Y-54211833D01*
X29066666Y-54078500D01*
X29033333Y-54011833D01*
X29000000Y-53978500D01*
X28933333Y-53945166D01*
X28733333Y-53945166D01*
X28666666Y-53978500D01*
X28633333Y-54011833D01*
X28600000Y-54078500D01*
X28600000Y-54211833D01*
X28633333Y-54278500D01*
X29033333Y-54878500D02*
X29066666Y-54811833D01*
X29066666Y-54678500D01*
X29033333Y-54611833D01*
X28966666Y-54578500D01*
X28700000Y-54578500D01*
X28633333Y-54611833D01*
X28600000Y-54678500D01*
X28600000Y-54811833D01*
X28633333Y-54878500D01*
X28700000Y-54911833D01*
X28766666Y-54911833D01*
X28833333Y-54578500D01*
X28600000Y-55145166D02*
X29066666Y-55311833D01*
X28600000Y-55478500D01*
X28333333Y-56245166D02*
X29233333Y-55645166D01*
X29066666Y-56478500D02*
X28366666Y-56478500D01*
X28800000Y-56545166D02*
X29066666Y-56745166D01*
X28600000Y-56745166D02*
X28866666Y-56478500D01*
X29066666Y-57045166D02*
X28600000Y-57045166D01*
X28366666Y-57045166D02*
X28400000Y-57011833D01*
X28433333Y-57045166D01*
X28400000Y-57078500D01*
X28366666Y-57045166D01*
X28433333Y-57045166D01*
X29066666Y-57478500D02*
X29033333Y-57411833D01*
X28966666Y-57378500D01*
X28366666Y-57378500D01*
X28600000Y-57645166D02*
X28600000Y-57911833D01*
X28366666Y-57745166D02*
X28966666Y-57745166D01*
X29033333Y-57778500D01*
X29066666Y-57845166D01*
X29066666Y-57911833D01*
X29033333Y-58411833D02*
X29066666Y-58345166D01*
X29066666Y-58211833D01*
X29033333Y-58145166D01*
X28966666Y-58111833D01*
X28700000Y-58111833D01*
X28633333Y-58145166D01*
X28600000Y-58211833D01*
X28600000Y-58345166D01*
X28633333Y-58411833D01*
X28700000Y-58445166D01*
X28766666Y-58445166D01*
X28833333Y-58111833D01*
X29066666Y-58745166D02*
X28600000Y-58745166D01*
X28733333Y-58745166D02*
X28666666Y-58778500D01*
X28633333Y-58811833D01*
X28600000Y-58878500D01*
X28600000Y-58945166D01*
X28333333Y-59678500D02*
X29233333Y-59078500D01*
X28600000Y-59845166D02*
X29066666Y-60011833D01*
X28600000Y-60178500D01*
X29066666Y-60811833D02*
X29066666Y-60411833D01*
X29066666Y-60611833D02*
X28366666Y-60611833D01*
X28466666Y-60545166D01*
X28533333Y-60478500D01*
X28566666Y-60411833D01*
X29000000Y-61111833D02*
X29033333Y-61145166D01*
X29066666Y-61111833D01*
X29033333Y-61078500D01*
X29000000Y-61111833D01*
X29066666Y-61111833D01*
X28366666Y-61578500D02*
X28366666Y-61645166D01*
X28400000Y-61711833D01*
X28433333Y-61745166D01*
X28500000Y-61778500D01*
X28633333Y-61811833D01*
X28800000Y-61811833D01*
X28933333Y-61778500D01*
X29000000Y-61745166D01*
X29033333Y-61711833D01*
X29066666Y-61645166D01*
X29066666Y-61578500D01*
X29033333Y-61511833D01*
X29000000Y-61478500D01*
X28933333Y-61445166D01*
X28800000Y-61411833D01*
X28633333Y-61411833D01*
X28500000Y-61445166D01*
X28433333Y-61478500D01*
X28400000Y-61511833D01*
X28366666Y-61578500D01*
X29000000Y-62111833D02*
X29033333Y-62145166D01*
X29066666Y-62111833D01*
X29033333Y-62078500D01*
X29000000Y-62111833D01*
X29066666Y-62111833D01*
X29066666Y-62811833D02*
X29066666Y-62411833D01*
X29066666Y-62611833D02*
X28366666Y-62611833D01*
X28466666Y-62545166D01*
X28533333Y-62478500D01*
X28566666Y-62411833D01*
D10*
%TO.C,R7*%
X18557066Y-35648066D02*
X18790400Y-35314733D01*
X18957066Y-35648066D02*
X18957066Y-34948066D01*
X18690400Y-34948066D01*
X18623733Y-34981400D01*
X18590400Y-35014733D01*
X18557066Y-35081400D01*
X18557066Y-35181400D01*
X18590400Y-35248066D01*
X18623733Y-35281400D01*
X18690400Y-35314733D01*
X18957066Y-35314733D01*
X18323733Y-34948066D02*
X17857066Y-34948066D01*
X18157066Y-35648066D01*
%TO.C,U9*%
X8215733Y-92809266D02*
X8215733Y-93375933D01*
X8182400Y-93442600D01*
X8149066Y-93475933D01*
X8082400Y-93509266D01*
X7949066Y-93509266D01*
X7882400Y-93475933D01*
X7849066Y-93442600D01*
X7815733Y-93375933D01*
X7815733Y-92809266D01*
X7449066Y-93509266D02*
X7315733Y-93509266D01*
X7249066Y-93475933D01*
X7215733Y-93442600D01*
X7149066Y-93342600D01*
X7115733Y-93209266D01*
X7115733Y-92942600D01*
X7149066Y-92875933D01*
X7182400Y-92842600D01*
X7249066Y-92809266D01*
X7382400Y-92809266D01*
X7449066Y-92842600D01*
X7482400Y-92875933D01*
X7515733Y-92942600D01*
X7515733Y-93109266D01*
X7482400Y-93175933D01*
X7449066Y-93209266D01*
X7382400Y-93242600D01*
X7249066Y-93242600D01*
X7182400Y-93209266D01*
X7149066Y-93175933D01*
X7115733Y-93109266D01*
%TO.C,RV6*%
X3693266Y-77227866D02*
X3926600Y-76894533D01*
X4093266Y-77227866D02*
X4093266Y-76527866D01*
X3826600Y-76527866D01*
X3759933Y-76561200D01*
X3726600Y-76594533D01*
X3693266Y-76661200D01*
X3693266Y-76761200D01*
X3726600Y-76827866D01*
X3759933Y-76861200D01*
X3826600Y-76894533D01*
X4093266Y-76894533D01*
X3493266Y-76527866D02*
X3259933Y-77227866D01*
X3026600Y-76527866D01*
X2493266Y-76527866D02*
X2626600Y-76527866D01*
X2693266Y-76561200D01*
X2726600Y-76594533D01*
X2793266Y-76694533D01*
X2826600Y-76827866D01*
X2826600Y-77094533D01*
X2793266Y-77161200D01*
X2759933Y-77194533D01*
X2693266Y-77227866D01*
X2559933Y-77227866D01*
X2493266Y-77194533D01*
X2459933Y-77161200D01*
X2426600Y-77094533D01*
X2426600Y-76927866D01*
X2459933Y-76861200D01*
X2493266Y-76827866D01*
X2559933Y-76794533D01*
X2693266Y-76794533D01*
X2759933Y-76827866D01*
X2793266Y-76861200D01*
X2826600Y-76927866D01*
%TO.C,R1*%
X25186466Y-28891666D02*
X25419800Y-28558333D01*
X25586466Y-28891666D02*
X25586466Y-28191666D01*
X25319800Y-28191666D01*
X25253133Y-28225000D01*
X25219800Y-28258333D01*
X25186466Y-28325000D01*
X25186466Y-28425000D01*
X25219800Y-28491666D01*
X25253133Y-28525000D01*
X25319800Y-28558333D01*
X25586466Y-28558333D01*
X24519800Y-28891666D02*
X24919800Y-28891666D01*
X24719800Y-28891666D02*
X24719800Y-28191666D01*
X24786466Y-28291666D01*
X24853133Y-28358333D01*
X24919800Y-28391666D01*
%TO.C,R56*%
X16680600Y-102152866D02*
X16913933Y-101819533D01*
X17080600Y-102152866D02*
X17080600Y-101452866D01*
X16813933Y-101452866D01*
X16747266Y-101486200D01*
X16713933Y-101519533D01*
X16680600Y-101586200D01*
X16680600Y-101686200D01*
X16713933Y-101752866D01*
X16747266Y-101786200D01*
X16813933Y-101819533D01*
X17080600Y-101819533D01*
X16047266Y-101452866D02*
X16380600Y-101452866D01*
X16413933Y-101786200D01*
X16380600Y-101752866D01*
X16313933Y-101719533D01*
X16147266Y-101719533D01*
X16080600Y-101752866D01*
X16047266Y-101786200D01*
X16013933Y-101852866D01*
X16013933Y-102019533D01*
X16047266Y-102086200D01*
X16080600Y-102119533D01*
X16147266Y-102152866D01*
X16313933Y-102152866D01*
X16380600Y-102119533D01*
X16413933Y-102086200D01*
X15413933Y-101452866D02*
X15547266Y-101452866D01*
X15613933Y-101486200D01*
X15647266Y-101519533D01*
X15713933Y-101619533D01*
X15747266Y-101752866D01*
X15747266Y-102019533D01*
X15713933Y-102086200D01*
X15680600Y-102119533D01*
X15613933Y-102152866D01*
X15480600Y-102152866D01*
X15413933Y-102119533D01*
X15380600Y-102086200D01*
X15347266Y-102019533D01*
X15347266Y-101852866D01*
X15380600Y-101786200D01*
X15413933Y-101752866D01*
X15480600Y-101719533D01*
X15613933Y-101719533D01*
X15680600Y-101752866D01*
X15713933Y-101786200D01*
X15747266Y-101852866D01*
%TO.C,C25*%
X17023500Y-90991500D02*
X17056833Y-91024833D01*
X17156833Y-91058166D01*
X17223500Y-91058166D01*
X17323500Y-91024833D01*
X17390166Y-90958166D01*
X17423500Y-90891500D01*
X17456833Y-90758166D01*
X17456833Y-90658166D01*
X17423500Y-90524833D01*
X17390166Y-90458166D01*
X17323500Y-90391500D01*
X17223500Y-90358166D01*
X17156833Y-90358166D01*
X17056833Y-90391500D01*
X17023500Y-90424833D01*
X16756833Y-90424833D02*
X16723500Y-90391500D01*
X16656833Y-90358166D01*
X16490166Y-90358166D01*
X16423500Y-90391500D01*
X16390166Y-90424833D01*
X16356833Y-90491500D01*
X16356833Y-90558166D01*
X16390166Y-90658166D01*
X16790166Y-91058166D01*
X16356833Y-91058166D01*
X15723500Y-90358166D02*
X16056833Y-90358166D01*
X16090166Y-90691500D01*
X16056833Y-90658166D01*
X15990166Y-90624833D01*
X15823500Y-90624833D01*
X15756833Y-90658166D01*
X15723500Y-90691500D01*
X15690166Y-90758166D01*
X15690166Y-90924833D01*
X15723500Y-90991500D01*
X15756833Y-91024833D01*
X15823500Y-91058166D01*
X15990166Y-91058166D01*
X16056833Y-91024833D01*
X16090166Y-90991500D01*
%TO.C,C26*%
X11626000Y-93214000D02*
X11659333Y-93247333D01*
X11759333Y-93280666D01*
X11826000Y-93280666D01*
X11926000Y-93247333D01*
X11992666Y-93180666D01*
X12026000Y-93114000D01*
X12059333Y-92980666D01*
X12059333Y-92880666D01*
X12026000Y-92747333D01*
X11992666Y-92680666D01*
X11926000Y-92614000D01*
X11826000Y-92580666D01*
X11759333Y-92580666D01*
X11659333Y-92614000D01*
X11626000Y-92647333D01*
X11359333Y-92647333D02*
X11326000Y-92614000D01*
X11259333Y-92580666D01*
X11092666Y-92580666D01*
X11026000Y-92614000D01*
X10992666Y-92647333D01*
X10959333Y-92714000D01*
X10959333Y-92780666D01*
X10992666Y-92880666D01*
X11392666Y-93280666D01*
X10959333Y-93280666D01*
X10359333Y-92580666D02*
X10492666Y-92580666D01*
X10559333Y-92614000D01*
X10592666Y-92647333D01*
X10659333Y-92747333D01*
X10692666Y-92880666D01*
X10692666Y-93147333D01*
X10659333Y-93214000D01*
X10626000Y-93247333D01*
X10559333Y-93280666D01*
X10426000Y-93280666D01*
X10359333Y-93247333D01*
X10326000Y-93214000D01*
X10292666Y-93147333D01*
X10292666Y-92980666D01*
X10326000Y-92914000D01*
X10359333Y-92880666D01*
X10426000Y-92847333D01*
X10559333Y-92847333D01*
X10626000Y-92880666D01*
X10659333Y-92914000D01*
X10692666Y-92980666D01*
%TO.C,C29*%
X14039000Y-109787500D02*
X14072333Y-109820833D01*
X14172333Y-109854166D01*
X14239000Y-109854166D01*
X14339000Y-109820833D01*
X14405666Y-109754166D01*
X14439000Y-109687500D01*
X14472333Y-109554166D01*
X14472333Y-109454166D01*
X14439000Y-109320833D01*
X14405666Y-109254166D01*
X14339000Y-109187500D01*
X14239000Y-109154166D01*
X14172333Y-109154166D01*
X14072333Y-109187500D01*
X14039000Y-109220833D01*
X13772333Y-109220833D02*
X13739000Y-109187500D01*
X13672333Y-109154166D01*
X13505666Y-109154166D01*
X13439000Y-109187500D01*
X13405666Y-109220833D01*
X13372333Y-109287500D01*
X13372333Y-109354166D01*
X13405666Y-109454166D01*
X13805666Y-109854166D01*
X13372333Y-109854166D01*
X13039000Y-109854166D02*
X12905666Y-109854166D01*
X12839000Y-109820833D01*
X12805666Y-109787500D01*
X12739000Y-109687500D01*
X12705666Y-109554166D01*
X12705666Y-109287500D01*
X12739000Y-109220833D01*
X12772333Y-109187500D01*
X12839000Y-109154166D01*
X12972333Y-109154166D01*
X13039000Y-109187500D01*
X13072333Y-109220833D01*
X13105666Y-109287500D01*
X13105666Y-109454166D01*
X13072333Y-109520833D01*
X13039000Y-109554166D01*
X12972333Y-109587500D01*
X12839000Y-109587500D01*
X12772333Y-109554166D01*
X12739000Y-109520833D01*
X12705666Y-109454166D01*
%TO.C,C28*%
X27247000Y-102294500D02*
X27280333Y-102327833D01*
X27380333Y-102361166D01*
X27447000Y-102361166D01*
X27547000Y-102327833D01*
X27613666Y-102261166D01*
X27647000Y-102194500D01*
X27680333Y-102061166D01*
X27680333Y-101961166D01*
X27647000Y-101827833D01*
X27613666Y-101761166D01*
X27547000Y-101694500D01*
X27447000Y-101661166D01*
X27380333Y-101661166D01*
X27280333Y-101694500D01*
X27247000Y-101727833D01*
X26980333Y-101727833D02*
X26947000Y-101694500D01*
X26880333Y-101661166D01*
X26713666Y-101661166D01*
X26647000Y-101694500D01*
X26613666Y-101727833D01*
X26580333Y-101794500D01*
X26580333Y-101861166D01*
X26613666Y-101961166D01*
X27013666Y-102361166D01*
X26580333Y-102361166D01*
X26180333Y-101961166D02*
X26247000Y-101927833D01*
X26280333Y-101894500D01*
X26313666Y-101827833D01*
X26313666Y-101794500D01*
X26280333Y-101727833D01*
X26247000Y-101694500D01*
X26180333Y-101661166D01*
X26047000Y-101661166D01*
X25980333Y-101694500D01*
X25947000Y-101727833D01*
X25913666Y-101794500D01*
X25913666Y-101827833D01*
X25947000Y-101894500D01*
X25980333Y-101927833D01*
X26047000Y-101961166D01*
X26180333Y-101961166D01*
X26247000Y-101994500D01*
X26280333Y-102027833D01*
X26313666Y-102094500D01*
X26313666Y-102227833D01*
X26280333Y-102294500D01*
X26247000Y-102327833D01*
X26180333Y-102361166D01*
X26047000Y-102361166D01*
X25980333Y-102327833D01*
X25947000Y-102294500D01*
X25913666Y-102227833D01*
X25913666Y-102094500D01*
X25947000Y-102027833D01*
X25980333Y-101994500D01*
X26047000Y-101961166D01*
%TO.C,C1*%
X29961666Y-11680000D02*
X29995000Y-11713333D01*
X30095000Y-11746666D01*
X30161666Y-11746666D01*
X30261666Y-11713333D01*
X30328333Y-11646666D01*
X30361666Y-11580000D01*
X30395000Y-11446666D01*
X30395000Y-11346666D01*
X30361666Y-11213333D01*
X30328333Y-11146666D01*
X30261666Y-11080000D01*
X30161666Y-11046666D01*
X30095000Y-11046666D01*
X29995000Y-11080000D01*
X29961666Y-11113333D01*
X29295000Y-11746666D02*
X29695000Y-11746666D01*
X29495000Y-11746666D02*
X29495000Y-11046666D01*
X29561666Y-11146666D01*
X29628333Y-11213333D01*
X29695000Y-11246666D01*
%TO.C,C2*%
X17515666Y-20021000D02*
X17549000Y-20054333D01*
X17649000Y-20087666D01*
X17715666Y-20087666D01*
X17815666Y-20054333D01*
X17882333Y-19987666D01*
X17915666Y-19921000D01*
X17949000Y-19787666D01*
X17949000Y-19687666D01*
X17915666Y-19554333D01*
X17882333Y-19487666D01*
X17815666Y-19421000D01*
X17715666Y-19387666D01*
X17649000Y-19387666D01*
X17549000Y-19421000D01*
X17515666Y-19454333D01*
X17249000Y-19454333D02*
X17215666Y-19421000D01*
X17149000Y-19387666D01*
X16982333Y-19387666D01*
X16915666Y-19421000D01*
X16882333Y-19454333D01*
X16849000Y-19521000D01*
X16849000Y-19587666D01*
X16882333Y-19687666D01*
X17282333Y-20087666D01*
X16849000Y-20087666D01*
%TO.C,C3*%
X20627166Y-19554000D02*
X20660500Y-19587333D01*
X20760500Y-19620666D01*
X20827166Y-19620666D01*
X20927166Y-19587333D01*
X20993833Y-19520666D01*
X21027166Y-19454000D01*
X21060500Y-19320666D01*
X21060500Y-19220666D01*
X21027166Y-19087333D01*
X20993833Y-19020666D01*
X20927166Y-18954000D01*
X20827166Y-18920666D01*
X20760500Y-18920666D01*
X20660500Y-18954000D01*
X20627166Y-18987333D01*
X20393833Y-18920666D02*
X19960500Y-18920666D01*
X20193833Y-19187333D01*
X20093833Y-19187333D01*
X20027166Y-19220666D01*
X19993833Y-19254000D01*
X19960500Y-19320666D01*
X19960500Y-19487333D01*
X19993833Y-19554000D01*
X20027166Y-19587333D01*
X20093833Y-19620666D01*
X20293833Y-19620666D01*
X20360500Y-19587333D01*
X20393833Y-19554000D01*
%TO.C,C4*%
X18087166Y-21395500D02*
X18120500Y-21428833D01*
X18220500Y-21462166D01*
X18287166Y-21462166D01*
X18387166Y-21428833D01*
X18453833Y-21362166D01*
X18487166Y-21295500D01*
X18520500Y-21162166D01*
X18520500Y-21062166D01*
X18487166Y-20928833D01*
X18453833Y-20862166D01*
X18387166Y-20795500D01*
X18287166Y-20762166D01*
X18220500Y-20762166D01*
X18120500Y-20795500D01*
X18087166Y-20828833D01*
X17487166Y-20995500D02*
X17487166Y-21462166D01*
X17653833Y-20728833D02*
X17820500Y-21228833D01*
X17387166Y-21228833D01*
%TO.C,FB1*%
X20014333Y-11253000D02*
X20247666Y-11253000D01*
X20247666Y-11619666D02*
X20247666Y-10919666D01*
X19914333Y-10919666D01*
X19414333Y-11253000D02*
X19314333Y-11286333D01*
X19281000Y-11319666D01*
X19247666Y-11386333D01*
X19247666Y-11486333D01*
X19281000Y-11553000D01*
X19314333Y-11586333D01*
X19381000Y-11619666D01*
X19647666Y-11619666D01*
X19647666Y-10919666D01*
X19414333Y-10919666D01*
X19347666Y-10953000D01*
X19314333Y-10986333D01*
X19281000Y-11053000D01*
X19281000Y-11119666D01*
X19314333Y-11186333D01*
X19347666Y-11219666D01*
X19414333Y-11253000D01*
X19647666Y-11253000D01*
X18581000Y-11619666D02*
X18981000Y-11619666D01*
X18781000Y-11619666D02*
X18781000Y-10919666D01*
X18847666Y-11019666D01*
X18914333Y-11086333D01*
X18981000Y-11119666D01*
%TO.C,FB2*%
X11937133Y-19914400D02*
X12170466Y-19914400D01*
X12170466Y-20281066D02*
X12170466Y-19581066D01*
X11837133Y-19581066D01*
X11337133Y-19914400D02*
X11237133Y-19947733D01*
X11203800Y-19981066D01*
X11170466Y-20047733D01*
X11170466Y-20147733D01*
X11203800Y-20214400D01*
X11237133Y-20247733D01*
X11303800Y-20281066D01*
X11570466Y-20281066D01*
X11570466Y-19581066D01*
X11337133Y-19581066D01*
X11270466Y-19614400D01*
X11237133Y-19647733D01*
X11203800Y-19714400D01*
X11203800Y-19781066D01*
X11237133Y-19847733D01*
X11270466Y-19881066D01*
X11337133Y-19914400D01*
X11570466Y-19914400D01*
X10903800Y-19647733D02*
X10870466Y-19614400D01*
X10803800Y-19581066D01*
X10637133Y-19581066D01*
X10570466Y-19614400D01*
X10537133Y-19647733D01*
X10503800Y-19714400D01*
X10503800Y-19781066D01*
X10537133Y-19881066D01*
X10937133Y-20281066D01*
X10503800Y-20281066D01*
%TO.C,J10*%
X2141466Y-30985666D02*
X2141466Y-31485666D01*
X2174800Y-31585666D01*
X2241466Y-31652333D01*
X2341466Y-31685666D01*
X2408133Y-31685666D01*
X1441466Y-31685666D02*
X1841466Y-31685666D01*
X1641466Y-31685666D02*
X1641466Y-30985666D01*
X1708133Y-31085666D01*
X1774800Y-31152333D01*
X1841466Y-31185666D01*
X1008133Y-30985666D02*
X941466Y-30985666D01*
X874800Y-31019000D01*
X841466Y-31052333D01*
X808133Y-31119000D01*
X774800Y-31252333D01*
X774800Y-31419000D01*
X808133Y-31552333D01*
X841466Y-31619000D01*
X874800Y-31652333D01*
X941466Y-31685666D01*
X1008133Y-31685666D01*
X1074800Y-31652333D01*
X1108133Y-31619000D01*
X1141466Y-31552333D01*
X1174800Y-31419000D01*
X1174800Y-31252333D01*
X1141466Y-31119000D01*
X1108133Y-31052333D01*
X1074800Y-31019000D01*
X1008133Y-30985666D01*
%TO.C,R48*%
X17023500Y-89216666D02*
X17256833Y-88883333D01*
X17423500Y-89216666D02*
X17423500Y-88516666D01*
X17156833Y-88516666D01*
X17090166Y-88550000D01*
X17056833Y-88583333D01*
X17023500Y-88650000D01*
X17023500Y-88750000D01*
X17056833Y-88816666D01*
X17090166Y-88850000D01*
X17156833Y-88883333D01*
X17423500Y-88883333D01*
X16423500Y-88750000D02*
X16423500Y-89216666D01*
X16590166Y-88483333D02*
X16756833Y-88983333D01*
X16323500Y-88983333D01*
X15956833Y-88816666D02*
X16023500Y-88783333D01*
X16056833Y-88750000D01*
X16090166Y-88683333D01*
X16090166Y-88650000D01*
X16056833Y-88583333D01*
X16023500Y-88550000D01*
X15956833Y-88516666D01*
X15823500Y-88516666D01*
X15756833Y-88550000D01*
X15723500Y-88583333D01*
X15690166Y-88650000D01*
X15690166Y-88683333D01*
X15723500Y-88750000D01*
X15756833Y-88783333D01*
X15823500Y-88816666D01*
X15956833Y-88816666D01*
X16023500Y-88850000D01*
X16056833Y-88883333D01*
X16090166Y-88950000D01*
X16090166Y-89083333D01*
X16056833Y-89150000D01*
X16023500Y-89183333D01*
X15956833Y-89216666D01*
X15823500Y-89216666D01*
X15756833Y-89183333D01*
X15723500Y-89150000D01*
X15690166Y-89083333D01*
X15690166Y-88950000D01*
X15723500Y-88883333D01*
X15756833Y-88850000D01*
X15823500Y-88816666D01*
%TO.C,C27*%
X2355000Y-94509400D02*
X2388333Y-94542733D01*
X2488333Y-94576066D01*
X2555000Y-94576066D01*
X2655000Y-94542733D01*
X2721666Y-94476066D01*
X2755000Y-94409400D01*
X2788333Y-94276066D01*
X2788333Y-94176066D01*
X2755000Y-94042733D01*
X2721666Y-93976066D01*
X2655000Y-93909400D01*
X2555000Y-93876066D01*
X2488333Y-93876066D01*
X2388333Y-93909400D01*
X2355000Y-93942733D01*
X2088333Y-93942733D02*
X2054999Y-93909400D01*
X1988333Y-93876066D01*
X1821666Y-93876066D01*
X1755000Y-93909400D01*
X1721666Y-93942733D01*
X1688333Y-94009400D01*
X1688333Y-94076066D01*
X1721666Y-94176066D01*
X2121666Y-94576066D01*
X1688333Y-94576066D01*
X1455000Y-93876066D02*
X988333Y-93876066D01*
X1288333Y-94576066D01*
%TO.C,C24*%
X8349400Y-86394100D02*
X8382733Y-86427433D01*
X8482733Y-86460766D01*
X8549400Y-86460766D01*
X8649400Y-86427433D01*
X8716066Y-86360766D01*
X8749400Y-86294100D01*
X8782733Y-86160766D01*
X8782733Y-86060766D01*
X8749400Y-85927433D01*
X8716066Y-85860766D01*
X8649400Y-85794100D01*
X8549400Y-85760766D01*
X8482733Y-85760766D01*
X8382733Y-85794100D01*
X8349400Y-85827433D01*
X8082733Y-85827433D02*
X8049400Y-85794100D01*
X7982733Y-85760766D01*
X7816066Y-85760766D01*
X7749400Y-85794100D01*
X7716066Y-85827433D01*
X7682733Y-85894100D01*
X7682733Y-85960766D01*
X7716066Y-86060766D01*
X8116066Y-86460766D01*
X7682733Y-86460766D01*
X7082733Y-85994100D02*
X7082733Y-86460766D01*
X7249400Y-85727433D02*
X7416066Y-86227433D01*
X6982733Y-86227433D01*
%TO.C,C19*%
X18357000Y-65528000D02*
X18390333Y-65561333D01*
X18490333Y-65594666D01*
X18557000Y-65594666D01*
X18657000Y-65561333D01*
X18723666Y-65494666D01*
X18757000Y-65428000D01*
X18790333Y-65294666D01*
X18790333Y-65194666D01*
X18757000Y-65061333D01*
X18723666Y-64994666D01*
X18657000Y-64928000D01*
X18557000Y-64894666D01*
X18490333Y-64894666D01*
X18390333Y-64928000D01*
X18357000Y-64961333D01*
X17690333Y-65594666D02*
X18090333Y-65594666D01*
X17890333Y-65594666D02*
X17890333Y-64894666D01*
X17957000Y-64994666D01*
X18023666Y-65061333D01*
X18090333Y-65094666D01*
X17357000Y-65594666D02*
X17223666Y-65594666D01*
X17157000Y-65561333D01*
X17123666Y-65528000D01*
X17057000Y-65428000D01*
X17023666Y-65294666D01*
X17023666Y-65028000D01*
X17057000Y-64961333D01*
X17090333Y-64928000D01*
X17157000Y-64894666D01*
X17290333Y-64894666D01*
X17357000Y-64928000D01*
X17390333Y-64961333D01*
X17423666Y-65028000D01*
X17423666Y-65194666D01*
X17390333Y-65261333D01*
X17357000Y-65294666D01*
X17290333Y-65328000D01*
X17157000Y-65328000D01*
X17090333Y-65294666D01*
X17057000Y-65261333D01*
X17023666Y-65194666D01*
%TO.C,C21*%
X26358000Y-76424600D02*
X26391333Y-76457933D01*
X26491333Y-76491266D01*
X26558000Y-76491266D01*
X26658000Y-76457933D01*
X26724666Y-76391266D01*
X26758000Y-76324600D01*
X26791333Y-76191266D01*
X26791333Y-76091266D01*
X26758000Y-75957933D01*
X26724666Y-75891266D01*
X26658000Y-75824600D01*
X26558000Y-75791266D01*
X26491333Y-75791266D01*
X26391333Y-75824600D01*
X26358000Y-75857933D01*
X26091333Y-75857933D02*
X26058000Y-75824600D01*
X25991333Y-75791266D01*
X25824666Y-75791266D01*
X25758000Y-75824600D01*
X25724666Y-75857933D01*
X25691333Y-75924600D01*
X25691333Y-75991266D01*
X25724666Y-76091266D01*
X26124666Y-76491266D01*
X25691333Y-76491266D01*
X25024666Y-76491266D02*
X25424666Y-76491266D01*
X25224666Y-76491266D02*
X25224666Y-75791266D01*
X25291333Y-75891266D01*
X25358000Y-75957933D01*
X25424666Y-75991266D01*
%TO.C,C17*%
X2101000Y-60003500D02*
X2134333Y-60036833D01*
X2234333Y-60070166D01*
X2301000Y-60070166D01*
X2401000Y-60036833D01*
X2467666Y-59970166D01*
X2501000Y-59903500D01*
X2534333Y-59770166D01*
X2534333Y-59670166D01*
X2501000Y-59536833D01*
X2467666Y-59470166D01*
X2401000Y-59403500D01*
X2301000Y-59370166D01*
X2234333Y-59370166D01*
X2134333Y-59403500D01*
X2101000Y-59436833D01*
X1434333Y-60070166D02*
X1834333Y-60070166D01*
X1634333Y-60070166D02*
X1634333Y-59370166D01*
X1701000Y-59470166D01*
X1767666Y-59536833D01*
X1834333Y-59570166D01*
X1201000Y-59370166D02*
X734333Y-59370166D01*
X1034333Y-60070166D01*
%TO.C,C12*%
X17341000Y-47113000D02*
X17374333Y-47146333D01*
X17474333Y-47179666D01*
X17541000Y-47179666D01*
X17641000Y-47146333D01*
X17707666Y-47079666D01*
X17741000Y-47013000D01*
X17774333Y-46879666D01*
X17774333Y-46779666D01*
X17741000Y-46646333D01*
X17707666Y-46579666D01*
X17641000Y-46513000D01*
X17541000Y-46479666D01*
X17474333Y-46479666D01*
X17374333Y-46513000D01*
X17341000Y-46546333D01*
X16674333Y-47179666D02*
X17074333Y-47179666D01*
X16874333Y-47179666D02*
X16874333Y-46479666D01*
X16941000Y-46579666D01*
X17007666Y-46646333D01*
X17074333Y-46679666D01*
X16407666Y-46546333D02*
X16374333Y-46513000D01*
X16307666Y-46479666D01*
X16141000Y-46479666D01*
X16074333Y-46513000D01*
X16041000Y-46546333D01*
X16007666Y-46613000D01*
X16007666Y-46679666D01*
X16041000Y-46779666D01*
X16441000Y-47179666D01*
X16007666Y-47179666D01*
%TO.C,C16*%
X1529500Y-54136000D02*
X1562833Y-54169333D01*
X1662833Y-54202666D01*
X1729500Y-54202666D01*
X1829500Y-54169333D01*
X1896166Y-54102666D01*
X1929499Y-54036000D01*
X1962833Y-53902666D01*
X1962833Y-53802666D01*
X1929499Y-53669333D01*
X1896166Y-53602666D01*
X1829500Y-53536000D01*
X1729500Y-53502666D01*
X1662833Y-53502666D01*
X1562833Y-53536000D01*
X1529500Y-53569333D01*
X862833Y-54202666D02*
X1262833Y-54202666D01*
X1062833Y-54202666D02*
X1062833Y-53502666D01*
X1129500Y-53602666D01*
X1196166Y-53669333D01*
X1262833Y-53702666D01*
X262833Y-53502666D02*
X396166Y-53502666D01*
X462833Y-53536000D01*
X496166Y-53569333D01*
X562833Y-53669333D01*
X596166Y-53802666D01*
X596166Y-54069333D01*
X562833Y-54136000D01*
X529499Y-54169333D01*
X462833Y-54202666D01*
X329499Y-54202666D01*
X262833Y-54169333D01*
X229500Y-54136000D01*
X196166Y-54069333D01*
X196166Y-53902666D01*
X229500Y-53836000D01*
X262833Y-53802666D01*
X329499Y-53769333D01*
X462833Y-53769333D01*
X529499Y-53802666D01*
X562833Y-53836000D01*
X596166Y-53902666D01*
%TO.C,C5*%
X21706666Y-22678200D02*
X21740000Y-22711533D01*
X21840000Y-22744866D01*
X21906666Y-22744866D01*
X22006666Y-22711533D01*
X22073333Y-22644866D01*
X22106666Y-22578200D01*
X22140000Y-22444866D01*
X22140000Y-22344866D01*
X22106666Y-22211533D01*
X22073333Y-22144866D01*
X22006666Y-22078200D01*
X21906666Y-22044866D01*
X21840000Y-22044866D01*
X21740000Y-22078200D01*
X21706666Y-22111533D01*
X21073333Y-22044866D02*
X21406666Y-22044866D01*
X21440000Y-22378200D01*
X21406666Y-22344866D01*
X21340000Y-22311533D01*
X21173333Y-22311533D01*
X21106666Y-22344866D01*
X21073333Y-22378200D01*
X21040000Y-22444866D01*
X21040000Y-22611533D01*
X21073333Y-22678200D01*
X21106666Y-22711533D01*
X21173333Y-22744866D01*
X21340000Y-22744866D01*
X21406666Y-22711533D01*
X21440000Y-22678200D01*
%TO.C,C20*%
X1402500Y-67623500D02*
X1435833Y-67656833D01*
X1535833Y-67690166D01*
X1602500Y-67690166D01*
X1702500Y-67656833D01*
X1769166Y-67590166D01*
X1802499Y-67523500D01*
X1835833Y-67390166D01*
X1835833Y-67290166D01*
X1802499Y-67156833D01*
X1769166Y-67090166D01*
X1702500Y-67023500D01*
X1602500Y-66990166D01*
X1535833Y-66990166D01*
X1435833Y-67023500D01*
X1402500Y-67056833D01*
X1135833Y-67056833D02*
X1102499Y-67023500D01*
X1035833Y-66990166D01*
X869166Y-66990166D01*
X802499Y-67023500D01*
X769166Y-67056833D01*
X735833Y-67123500D01*
X735833Y-67190166D01*
X769166Y-67290166D01*
X1169166Y-67690166D01*
X735833Y-67690166D01*
X302499Y-66990166D02*
X235833Y-66990166D01*
X169166Y-67023500D01*
X135833Y-67056833D01*
X102500Y-67123500D01*
X69166Y-67256833D01*
X69166Y-67423500D01*
X102500Y-67556833D01*
X135833Y-67623500D01*
X169166Y-67656833D01*
X235833Y-67690166D01*
X302499Y-67690166D01*
X369166Y-67656833D01*
X402499Y-67623500D01*
X435833Y-67556833D01*
X469166Y-67423500D01*
X469166Y-67256833D01*
X435833Y-67123500D01*
X402499Y-67056833D01*
X369166Y-67023500D01*
X302499Y-66990166D01*
%TO.C,C15*%
X12896000Y-56193500D02*
X12929333Y-56226833D01*
X13029333Y-56260166D01*
X13096000Y-56260166D01*
X13196000Y-56226833D01*
X13262666Y-56160166D01*
X13296000Y-56093500D01*
X13329333Y-55960166D01*
X13329333Y-55860166D01*
X13296000Y-55726833D01*
X13262666Y-55660166D01*
X13196000Y-55593500D01*
X13096000Y-55560166D01*
X13029333Y-55560166D01*
X12929333Y-55593500D01*
X12896000Y-55626833D01*
X12229333Y-56260166D02*
X12629333Y-56260166D01*
X12429333Y-56260166D02*
X12429333Y-55560166D01*
X12496000Y-55660166D01*
X12562666Y-55726833D01*
X12629333Y-55760166D01*
X11596000Y-55560166D02*
X11929333Y-55560166D01*
X11962666Y-55893500D01*
X11929333Y-55860166D01*
X11862666Y-55826833D01*
X11696000Y-55826833D01*
X11629333Y-55860166D01*
X11596000Y-55893500D01*
X11562666Y-55960166D01*
X11562666Y-56126833D01*
X11596000Y-56193500D01*
X11629333Y-56226833D01*
X11696000Y-56260166D01*
X11862666Y-56260166D01*
X11929333Y-56226833D01*
X11962666Y-56193500D01*
%TO.C,C6*%
X19496866Y-27478700D02*
X19530200Y-27512033D01*
X19630200Y-27545366D01*
X19696866Y-27545366D01*
X19796866Y-27512033D01*
X19863533Y-27445366D01*
X19896866Y-27378700D01*
X19930200Y-27245366D01*
X19930200Y-27145366D01*
X19896866Y-27012033D01*
X19863533Y-26945366D01*
X19796866Y-26878700D01*
X19696866Y-26845366D01*
X19630200Y-26845366D01*
X19530200Y-26878700D01*
X19496866Y-26912033D01*
X18896866Y-26845366D02*
X19030200Y-26845366D01*
X19096866Y-26878700D01*
X19130200Y-26912033D01*
X19196866Y-27012033D01*
X19230200Y-27145366D01*
X19230200Y-27412033D01*
X19196866Y-27478700D01*
X19163533Y-27512033D01*
X19096866Y-27545366D01*
X18963533Y-27545366D01*
X18896866Y-27512033D01*
X18863533Y-27478700D01*
X18830200Y-27412033D01*
X18830200Y-27245366D01*
X18863533Y-27178700D01*
X18896866Y-27145366D01*
X18963533Y-27112033D01*
X19096866Y-27112033D01*
X19163533Y-27145366D01*
X19196866Y-27178700D01*
X19230200Y-27245366D01*
%TO.C,C18*%
X1466000Y-62861000D02*
X1499333Y-62894333D01*
X1599333Y-62927666D01*
X1666000Y-62927666D01*
X1766000Y-62894333D01*
X1832666Y-62827666D01*
X1865999Y-62761000D01*
X1899333Y-62627666D01*
X1899333Y-62527666D01*
X1865999Y-62394333D01*
X1832666Y-62327666D01*
X1766000Y-62261000D01*
X1666000Y-62227666D01*
X1599333Y-62227666D01*
X1499333Y-62261000D01*
X1466000Y-62294333D01*
X799333Y-62927666D02*
X1199333Y-62927666D01*
X999333Y-62927666D02*
X999333Y-62227666D01*
X1066000Y-62327666D01*
X1132666Y-62394333D01*
X1199333Y-62427666D01*
X399333Y-62527666D02*
X465999Y-62494333D01*
X499333Y-62461000D01*
X532666Y-62394333D01*
X532666Y-62361000D01*
X499333Y-62294333D01*
X465999Y-62261000D01*
X399333Y-62227666D01*
X265999Y-62227666D01*
X199333Y-62261000D01*
X166000Y-62294333D01*
X132666Y-62361000D01*
X132666Y-62394333D01*
X166000Y-62461000D01*
X199333Y-62494333D01*
X265999Y-62527666D01*
X399333Y-62527666D01*
X465999Y-62561000D01*
X499333Y-62594333D01*
X532666Y-62661000D01*
X532666Y-62794333D01*
X499333Y-62861000D01*
X465999Y-62894333D01*
X399333Y-62927666D01*
X265999Y-62927666D01*
X199333Y-62894333D01*
X166000Y-62861000D01*
X132666Y-62794333D01*
X132666Y-62661000D01*
X166000Y-62594333D01*
X199333Y-62561000D01*
X265999Y-62527666D01*
%TO.C,C22*%
X20134900Y-78024800D02*
X20168233Y-78058133D01*
X20268233Y-78091466D01*
X20334900Y-78091466D01*
X20434900Y-78058133D01*
X20501566Y-77991466D01*
X20534900Y-77924800D01*
X20568233Y-77791466D01*
X20568233Y-77691466D01*
X20534900Y-77558133D01*
X20501566Y-77491466D01*
X20434900Y-77424800D01*
X20334900Y-77391466D01*
X20268233Y-77391466D01*
X20168233Y-77424800D01*
X20134900Y-77458133D01*
X19868233Y-77458133D02*
X19834900Y-77424800D01*
X19768233Y-77391466D01*
X19601566Y-77391466D01*
X19534900Y-77424800D01*
X19501566Y-77458133D01*
X19468233Y-77524800D01*
X19468233Y-77591466D01*
X19501566Y-77691466D01*
X19901566Y-78091466D01*
X19468233Y-78091466D01*
X19201566Y-77458133D02*
X19168233Y-77424800D01*
X19101566Y-77391466D01*
X18934900Y-77391466D01*
X18868233Y-77424800D01*
X18834900Y-77458133D01*
X18801566Y-77524800D01*
X18801566Y-77591466D01*
X18834900Y-77691466D01*
X19234900Y-78091466D01*
X18801566Y-78091466D01*
%TO.C,C23*%
X14623200Y-84476400D02*
X14656533Y-84509733D01*
X14756533Y-84543066D01*
X14823200Y-84543066D01*
X14923200Y-84509733D01*
X14989866Y-84443066D01*
X15023200Y-84376400D01*
X15056533Y-84243066D01*
X15056533Y-84143066D01*
X15023200Y-84009733D01*
X14989866Y-83943066D01*
X14923200Y-83876400D01*
X14823200Y-83843066D01*
X14756533Y-83843066D01*
X14656533Y-83876400D01*
X14623200Y-83909733D01*
X14356533Y-83909733D02*
X14323200Y-83876400D01*
X14256533Y-83843066D01*
X14089866Y-83843066D01*
X14023200Y-83876400D01*
X13989866Y-83909733D01*
X13956533Y-83976400D01*
X13956533Y-84043066D01*
X13989866Y-84143066D01*
X14389866Y-84543066D01*
X13956533Y-84543066D01*
X13723200Y-83843066D02*
X13289866Y-83843066D01*
X13523200Y-84109733D01*
X13423200Y-84109733D01*
X13356533Y-84143066D01*
X13323200Y-84176400D01*
X13289866Y-84243066D01*
X13289866Y-84409733D01*
X13323200Y-84476400D01*
X13356533Y-84509733D01*
X13423200Y-84543066D01*
X13623200Y-84543066D01*
X13689866Y-84509733D01*
X13723200Y-84476400D01*
%TO.C,D7*%
X27140866Y-17080666D02*
X27140866Y-16380666D01*
X26974200Y-16380666D01*
X26874200Y-16414000D01*
X26807533Y-16480666D01*
X26774200Y-16547333D01*
X26740866Y-16680666D01*
X26740866Y-16780666D01*
X26774200Y-16914000D01*
X26807533Y-16980666D01*
X26874200Y-17047333D01*
X26974200Y-17080666D01*
X27140866Y-17080666D01*
X26507533Y-16380666D02*
X26040866Y-16380666D01*
X26340866Y-17080666D01*
%TO.C,Q2*%
X19472266Y-76652933D02*
X19538933Y-76619600D01*
X19605600Y-76552933D01*
X19705600Y-76452933D01*
X19772266Y-76419600D01*
X19838933Y-76419600D01*
X19805600Y-76586266D02*
X19872266Y-76552933D01*
X19938933Y-76486266D01*
X19972266Y-76352933D01*
X19972266Y-76119600D01*
X19938933Y-75986266D01*
X19872266Y-75919600D01*
X19805600Y-75886266D01*
X19672266Y-75886266D01*
X19605600Y-75919600D01*
X19538933Y-75986266D01*
X19505600Y-76119600D01*
X19505600Y-76352933D01*
X19538933Y-76486266D01*
X19605600Y-76552933D01*
X19672266Y-76586266D01*
X19805600Y-76586266D01*
X19238933Y-75952933D02*
X19205600Y-75919600D01*
X19138933Y-75886266D01*
X18972266Y-75886266D01*
X18905600Y-75919600D01*
X18872266Y-75952933D01*
X18838933Y-76019600D01*
X18838933Y-76086266D01*
X18872266Y-76186266D01*
X19272266Y-76586266D01*
X18838933Y-76586266D01*
%TO.C,Q1*%
X25542866Y-33047733D02*
X25609533Y-33014400D01*
X25676200Y-32947733D01*
X25776200Y-32847733D01*
X25842866Y-32814400D01*
X25909533Y-32814400D01*
X25876200Y-32981066D02*
X25942866Y-32947733D01*
X26009533Y-32881066D01*
X26042866Y-32747733D01*
X26042866Y-32514400D01*
X26009533Y-32381066D01*
X25942866Y-32314400D01*
X25876200Y-32281066D01*
X25742866Y-32281066D01*
X25676200Y-32314400D01*
X25609533Y-32381066D01*
X25576200Y-32514400D01*
X25576200Y-32747733D01*
X25609533Y-32881066D01*
X25676200Y-32947733D01*
X25742866Y-32981066D01*
X25876200Y-32981066D01*
X24909533Y-32981066D02*
X25309533Y-32981066D01*
X25109533Y-32981066D02*
X25109533Y-32281066D01*
X25176200Y-32381066D01*
X25242866Y-32447733D01*
X25309533Y-32481066D01*
%TO.C,R55*%
X5911000Y-99757666D02*
X6144333Y-99424333D01*
X6311000Y-99757666D02*
X6311000Y-99057666D01*
X6044333Y-99057666D01*
X5977666Y-99091000D01*
X5944333Y-99124333D01*
X5911000Y-99191000D01*
X5911000Y-99291000D01*
X5944333Y-99357666D01*
X5977666Y-99391000D01*
X6044333Y-99424333D01*
X6311000Y-99424333D01*
X5277666Y-99057666D02*
X5611000Y-99057666D01*
X5644333Y-99391000D01*
X5611000Y-99357666D01*
X5544333Y-99324333D01*
X5377666Y-99324333D01*
X5311000Y-99357666D01*
X5277666Y-99391000D01*
X5244333Y-99457666D01*
X5244333Y-99624333D01*
X5277666Y-99691000D01*
X5311000Y-99724333D01*
X5377666Y-99757666D01*
X5544333Y-99757666D01*
X5611000Y-99724333D01*
X5644333Y-99691000D01*
X4611000Y-99057666D02*
X4944333Y-99057666D01*
X4977666Y-99391000D01*
X4944333Y-99357666D01*
X4877666Y-99324333D01*
X4711000Y-99324333D01*
X4644333Y-99357666D01*
X4611000Y-99391000D01*
X4577666Y-99457666D01*
X4577666Y-99624333D01*
X4611000Y-99691000D01*
X4644333Y-99724333D01*
X4711000Y-99757666D01*
X4877666Y-99757666D01*
X4944333Y-99724333D01*
X4977666Y-99691000D01*
%TO.C,R57*%
X5911000Y-103059666D02*
X6144333Y-102726333D01*
X6311000Y-103059666D02*
X6311000Y-102359666D01*
X6044333Y-102359666D01*
X5977666Y-102393000D01*
X5944333Y-102426333D01*
X5911000Y-102493000D01*
X5911000Y-102593000D01*
X5944333Y-102659666D01*
X5977666Y-102693000D01*
X6044333Y-102726333D01*
X6311000Y-102726333D01*
X5277666Y-102359666D02*
X5611000Y-102359666D01*
X5644333Y-102693000D01*
X5611000Y-102659666D01*
X5544333Y-102626333D01*
X5377666Y-102626333D01*
X5311000Y-102659666D01*
X5277666Y-102693000D01*
X5244333Y-102759666D01*
X5244333Y-102926333D01*
X5277666Y-102993000D01*
X5311000Y-103026333D01*
X5377666Y-103059666D01*
X5544333Y-103059666D01*
X5611000Y-103026333D01*
X5644333Y-102993000D01*
X5011000Y-102359666D02*
X4544333Y-102359666D01*
X4844333Y-103059666D01*
%TO.C,R45*%
X3879000Y-83831866D02*
X4112333Y-83498533D01*
X4279000Y-83831866D02*
X4279000Y-83131866D01*
X4012333Y-83131866D01*
X3945666Y-83165200D01*
X3912333Y-83198533D01*
X3879000Y-83265200D01*
X3879000Y-83365200D01*
X3912333Y-83431866D01*
X3945666Y-83465200D01*
X4012333Y-83498533D01*
X4279000Y-83498533D01*
X3279000Y-83365200D02*
X3279000Y-83831866D01*
X3445666Y-83098533D02*
X3612333Y-83598533D01*
X3179000Y-83598533D01*
X2579000Y-83131866D02*
X2912333Y-83131866D01*
X2945666Y-83465200D01*
X2912333Y-83431866D01*
X2845666Y-83398533D01*
X2679000Y-83398533D01*
X2612333Y-83431866D01*
X2579000Y-83465200D01*
X2545666Y-83531866D01*
X2545666Y-83698533D01*
X2579000Y-83765200D01*
X2612333Y-83798533D01*
X2679000Y-83831866D01*
X2845666Y-83831866D01*
X2912333Y-83798533D01*
X2945666Y-83765200D01*
%TO.C,R47*%
X3854200Y-85584466D02*
X4087533Y-85251133D01*
X4254200Y-85584466D02*
X4254200Y-84884466D01*
X3987533Y-84884466D01*
X3920866Y-84917800D01*
X3887533Y-84951133D01*
X3854200Y-85017800D01*
X3854200Y-85117800D01*
X3887533Y-85184466D01*
X3920866Y-85217800D01*
X3987533Y-85251133D01*
X4254200Y-85251133D01*
X3254200Y-85117800D02*
X3254200Y-85584466D01*
X3420866Y-84851133D02*
X3587533Y-85351133D01*
X3154200Y-85351133D01*
X2954200Y-84884466D02*
X2487533Y-84884466D01*
X2787533Y-85584466D01*
%TO.C,R46*%
X26332600Y-85940066D02*
X26565933Y-85606733D01*
X26732600Y-85940066D02*
X26732600Y-85240066D01*
X26465933Y-85240066D01*
X26399266Y-85273400D01*
X26365933Y-85306733D01*
X26332600Y-85373400D01*
X26332600Y-85473400D01*
X26365933Y-85540066D01*
X26399266Y-85573400D01*
X26465933Y-85606733D01*
X26732600Y-85606733D01*
X25732600Y-85473400D02*
X25732600Y-85940066D01*
X25899266Y-85206733D02*
X26065933Y-85706733D01*
X25632600Y-85706733D01*
X25065933Y-85240066D02*
X25199266Y-85240066D01*
X25265933Y-85273400D01*
X25299266Y-85306733D01*
X25365933Y-85406733D01*
X25399266Y-85540066D01*
X25399266Y-85806733D01*
X25365933Y-85873400D01*
X25332600Y-85906733D01*
X25265933Y-85940066D01*
X25132600Y-85940066D01*
X25065933Y-85906733D01*
X25032600Y-85873400D01*
X24999266Y-85806733D01*
X24999266Y-85640066D01*
X25032600Y-85573400D01*
X25065933Y-85540066D01*
X25132600Y-85506733D01*
X25265933Y-85506733D01*
X25332600Y-85540066D01*
X25365933Y-85573400D01*
X25399266Y-85640066D01*
%TO.C,R49*%
X26612000Y-93153666D02*
X26845333Y-92820333D01*
X27012000Y-93153666D02*
X27012000Y-92453666D01*
X26745333Y-92453666D01*
X26678666Y-92487000D01*
X26645333Y-92520333D01*
X26612000Y-92587000D01*
X26612000Y-92687000D01*
X26645333Y-92753666D01*
X26678666Y-92787000D01*
X26745333Y-92820333D01*
X27012000Y-92820333D01*
X26012000Y-92687000D02*
X26012000Y-93153666D01*
X26178666Y-92420333D02*
X26345333Y-92920333D01*
X25912000Y-92920333D01*
X25612000Y-93153666D02*
X25478666Y-93153666D01*
X25412000Y-93120333D01*
X25378666Y-93087000D01*
X25312000Y-92987000D01*
X25278666Y-92853666D01*
X25278666Y-92587000D01*
X25312000Y-92520333D01*
X25345333Y-92487000D01*
X25412000Y-92453666D01*
X25545333Y-92453666D01*
X25612000Y-92487000D01*
X25645333Y-92520333D01*
X25678666Y-92587000D01*
X25678666Y-92753666D01*
X25645333Y-92820333D01*
X25612000Y-92853666D01*
X25545333Y-92887000D01*
X25412000Y-92887000D01*
X25345333Y-92853666D01*
X25312000Y-92820333D01*
X25278666Y-92753666D01*
%TO.C,R59*%
X27310500Y-108203166D02*
X27543833Y-107869833D01*
X27710500Y-108203166D02*
X27710500Y-107503166D01*
X27443833Y-107503166D01*
X27377166Y-107536500D01*
X27343833Y-107569833D01*
X27310500Y-107636500D01*
X27310500Y-107736500D01*
X27343833Y-107803166D01*
X27377166Y-107836500D01*
X27443833Y-107869833D01*
X27710500Y-107869833D01*
X26677166Y-107503166D02*
X27010500Y-107503166D01*
X27043833Y-107836500D01*
X27010500Y-107803166D01*
X26943833Y-107769833D01*
X26777166Y-107769833D01*
X26710500Y-107803166D01*
X26677166Y-107836500D01*
X26643833Y-107903166D01*
X26643833Y-108069833D01*
X26677166Y-108136500D01*
X26710500Y-108169833D01*
X26777166Y-108203166D01*
X26943833Y-108203166D01*
X27010500Y-108169833D01*
X27043833Y-108136500D01*
X26310500Y-108203166D02*
X26177166Y-108203166D01*
X26110500Y-108169833D01*
X26077166Y-108136500D01*
X26010500Y-108036500D01*
X25977166Y-107903166D01*
X25977166Y-107636500D01*
X26010500Y-107569833D01*
X26043833Y-107536500D01*
X26110500Y-107503166D01*
X26243833Y-107503166D01*
X26310500Y-107536500D01*
X26343833Y-107569833D01*
X26377166Y-107636500D01*
X26377166Y-107803166D01*
X26343833Y-107869833D01*
X26310500Y-107903166D01*
X26243833Y-107936500D01*
X26110500Y-107936500D01*
X26043833Y-107903166D01*
X26010500Y-107869833D01*
X25977166Y-107803166D01*
%TO.C,R63*%
X27056500Y-117093166D02*
X27289833Y-116759833D01*
X27456500Y-117093166D02*
X27456500Y-116393166D01*
X27189833Y-116393166D01*
X27123166Y-116426500D01*
X27089833Y-116459833D01*
X27056500Y-116526500D01*
X27056500Y-116626500D01*
X27089833Y-116693166D01*
X27123166Y-116726500D01*
X27189833Y-116759833D01*
X27456500Y-116759833D01*
X26456500Y-116393166D02*
X26589833Y-116393166D01*
X26656500Y-116426500D01*
X26689833Y-116459833D01*
X26756500Y-116559833D01*
X26789833Y-116693166D01*
X26789833Y-116959833D01*
X26756500Y-117026500D01*
X26723166Y-117059833D01*
X26656500Y-117093166D01*
X26523166Y-117093166D01*
X26456500Y-117059833D01*
X26423166Y-117026500D01*
X26389833Y-116959833D01*
X26389833Y-116793166D01*
X26423166Y-116726500D01*
X26456500Y-116693166D01*
X26523166Y-116659833D01*
X26656500Y-116659833D01*
X26723166Y-116693166D01*
X26756500Y-116726500D01*
X26789833Y-116793166D01*
X26156500Y-116393166D02*
X25723166Y-116393166D01*
X25956500Y-116659833D01*
X25856500Y-116659833D01*
X25789833Y-116693166D01*
X25756500Y-116726500D01*
X25723166Y-116793166D01*
X25723166Y-116959833D01*
X25756500Y-117026500D01*
X25789833Y-117059833D01*
X25856500Y-117093166D01*
X26056500Y-117093166D01*
X26123166Y-117059833D01*
X26156500Y-117026500D01*
%TO.C,R50*%
X12959500Y-95757166D02*
X13192833Y-95423833D01*
X13359500Y-95757166D02*
X13359500Y-95057166D01*
X13092833Y-95057166D01*
X13026166Y-95090500D01*
X12992833Y-95123833D01*
X12959500Y-95190500D01*
X12959500Y-95290500D01*
X12992833Y-95357166D01*
X13026166Y-95390500D01*
X13092833Y-95423833D01*
X13359500Y-95423833D01*
X12326166Y-95057166D02*
X12659500Y-95057166D01*
X12692833Y-95390500D01*
X12659500Y-95357166D01*
X12592833Y-95323833D01*
X12426166Y-95323833D01*
X12359500Y-95357166D01*
X12326166Y-95390500D01*
X12292833Y-95457166D01*
X12292833Y-95623833D01*
X12326166Y-95690500D01*
X12359500Y-95723833D01*
X12426166Y-95757166D01*
X12592833Y-95757166D01*
X12659500Y-95723833D01*
X12692833Y-95690500D01*
X11859500Y-95057166D02*
X11792833Y-95057166D01*
X11726166Y-95090500D01*
X11692833Y-95123833D01*
X11659500Y-95190500D01*
X11626166Y-95323833D01*
X11626166Y-95490500D01*
X11659500Y-95623833D01*
X11692833Y-95690500D01*
X11726166Y-95723833D01*
X11792833Y-95757166D01*
X11859500Y-95757166D01*
X11926166Y-95723833D01*
X11959500Y-95690500D01*
X11992833Y-95623833D01*
X12026166Y-95490500D01*
X12026166Y-95323833D01*
X11992833Y-95190500D01*
X11959500Y-95123833D01*
X11926166Y-95090500D01*
X11859500Y-95057166D01*
%TO.C,R60*%
X9213000Y-107885666D02*
X9446333Y-107552333D01*
X9613000Y-107885666D02*
X9613000Y-107185666D01*
X9346333Y-107185666D01*
X9279666Y-107219000D01*
X9246333Y-107252333D01*
X9213000Y-107319000D01*
X9213000Y-107419000D01*
X9246333Y-107485666D01*
X9279666Y-107519000D01*
X9346333Y-107552333D01*
X9613000Y-107552333D01*
X8613000Y-107185666D02*
X8746333Y-107185666D01*
X8813000Y-107219000D01*
X8846333Y-107252333D01*
X8913000Y-107352333D01*
X8946333Y-107485666D01*
X8946333Y-107752333D01*
X8913000Y-107819000D01*
X8879666Y-107852333D01*
X8813000Y-107885666D01*
X8679666Y-107885666D01*
X8613000Y-107852333D01*
X8579666Y-107819000D01*
X8546333Y-107752333D01*
X8546333Y-107585666D01*
X8579666Y-107519000D01*
X8613000Y-107485666D01*
X8679666Y-107452333D01*
X8813000Y-107452333D01*
X8879666Y-107485666D01*
X8913000Y-107519000D01*
X8946333Y-107585666D01*
X8113000Y-107185666D02*
X8046333Y-107185666D01*
X7979666Y-107219000D01*
X7946333Y-107252333D01*
X7913000Y-107319000D01*
X7879666Y-107452333D01*
X7879666Y-107619000D01*
X7913000Y-107752333D01*
X7946333Y-107819000D01*
X7979666Y-107852333D01*
X8046333Y-107885666D01*
X8113000Y-107885666D01*
X8179666Y-107852333D01*
X8213000Y-107819000D01*
X8246333Y-107752333D01*
X8279666Y-107619000D01*
X8279666Y-107452333D01*
X8246333Y-107319000D01*
X8213000Y-107252333D01*
X8179666Y-107219000D01*
X8113000Y-107185666D01*
%TO.C,R64*%
X9276500Y-118045666D02*
X9509833Y-117712333D01*
X9676500Y-118045666D02*
X9676500Y-117345666D01*
X9409833Y-117345666D01*
X9343166Y-117379000D01*
X9309833Y-117412333D01*
X9276500Y-117479000D01*
X9276500Y-117579000D01*
X9309833Y-117645666D01*
X9343166Y-117679000D01*
X9409833Y-117712333D01*
X9676500Y-117712333D01*
X8676500Y-117345666D02*
X8809833Y-117345666D01*
X8876500Y-117379000D01*
X8909833Y-117412333D01*
X8976500Y-117512333D01*
X9009833Y-117645666D01*
X9009833Y-117912333D01*
X8976500Y-117979000D01*
X8943166Y-118012333D01*
X8876500Y-118045666D01*
X8743166Y-118045666D01*
X8676500Y-118012333D01*
X8643166Y-117979000D01*
X8609833Y-117912333D01*
X8609833Y-117745666D01*
X8643166Y-117679000D01*
X8676500Y-117645666D01*
X8743166Y-117612333D01*
X8876500Y-117612333D01*
X8943166Y-117645666D01*
X8976500Y-117679000D01*
X9009833Y-117745666D01*
X8009833Y-117579000D02*
X8009833Y-118045666D01*
X8176500Y-117312333D02*
X8343166Y-117812333D01*
X7909833Y-117812333D01*
%TO.C,R35*%
X7879500Y-70865166D02*
X8112833Y-70531833D01*
X8279500Y-70865166D02*
X8279500Y-70165166D01*
X8012833Y-70165166D01*
X7946166Y-70198500D01*
X7912833Y-70231833D01*
X7879500Y-70298500D01*
X7879500Y-70398500D01*
X7912833Y-70465166D01*
X7946166Y-70498500D01*
X8012833Y-70531833D01*
X8279500Y-70531833D01*
X7646166Y-70165166D02*
X7212833Y-70165166D01*
X7446166Y-70431833D01*
X7346166Y-70431833D01*
X7279500Y-70465166D01*
X7246166Y-70498500D01*
X7212833Y-70565166D01*
X7212833Y-70731833D01*
X7246166Y-70798500D01*
X7279500Y-70831833D01*
X7346166Y-70865166D01*
X7546166Y-70865166D01*
X7612833Y-70831833D01*
X7646166Y-70798500D01*
X6579500Y-70165166D02*
X6912833Y-70165166D01*
X6946166Y-70498500D01*
X6912833Y-70465166D01*
X6846166Y-70431833D01*
X6679500Y-70431833D01*
X6612833Y-70465166D01*
X6579500Y-70498500D01*
X6546166Y-70565166D01*
X6546166Y-70731833D01*
X6579500Y-70798500D01*
X6612833Y-70831833D01*
X6679500Y-70865166D01*
X6846166Y-70865166D01*
X6912833Y-70831833D01*
X6946166Y-70798500D01*
%TO.C,R30*%
X24135500Y-65594666D02*
X24368833Y-65261333D01*
X24535500Y-65594666D02*
X24535500Y-64894666D01*
X24268833Y-64894666D01*
X24202166Y-64928000D01*
X24168833Y-64961333D01*
X24135500Y-65028000D01*
X24135500Y-65128000D01*
X24168833Y-65194666D01*
X24202166Y-65228000D01*
X24268833Y-65261333D01*
X24535500Y-65261333D01*
X23902166Y-64894666D02*
X23468833Y-64894666D01*
X23702166Y-65161333D01*
X23602166Y-65161333D01*
X23535500Y-65194666D01*
X23502166Y-65228000D01*
X23468833Y-65294666D01*
X23468833Y-65461333D01*
X23502166Y-65528000D01*
X23535500Y-65561333D01*
X23602166Y-65594666D01*
X23802166Y-65594666D01*
X23868833Y-65561333D01*
X23902166Y-65528000D01*
X23035500Y-64894666D02*
X22968833Y-64894666D01*
X22902166Y-64928000D01*
X22868833Y-64961333D01*
X22835500Y-65028000D01*
X22802166Y-65161333D01*
X22802166Y-65328000D01*
X22835500Y-65461333D01*
X22868833Y-65528000D01*
X22902166Y-65561333D01*
X22968833Y-65594666D01*
X23035500Y-65594666D01*
X23102166Y-65561333D01*
X23135500Y-65528000D01*
X23168833Y-65461333D01*
X23202166Y-65328000D01*
X23202166Y-65161333D01*
X23168833Y-65028000D01*
X23135500Y-64961333D01*
X23102166Y-64928000D01*
X23035500Y-64894666D01*
%TO.C,R41*%
X7968400Y-75602266D02*
X8201733Y-75268933D01*
X8368400Y-75602266D02*
X8368400Y-74902266D01*
X8101733Y-74902266D01*
X8035066Y-74935600D01*
X8001733Y-74968933D01*
X7968400Y-75035600D01*
X7968400Y-75135600D01*
X8001733Y-75202266D01*
X8035066Y-75235600D01*
X8101733Y-75268933D01*
X8368400Y-75268933D01*
X7368400Y-75135600D02*
X7368400Y-75602266D01*
X7535066Y-74868933D02*
X7701733Y-75368933D01*
X7268400Y-75368933D01*
X6635066Y-75602266D02*
X7035066Y-75602266D01*
X6835066Y-75602266D02*
X6835066Y-74902266D01*
X6901733Y-75002266D01*
X6968400Y-75068933D01*
X7035066Y-75102266D01*
%TO.C,R25*%
X2101000Y-58482666D02*
X2334333Y-58149333D01*
X2501000Y-58482666D02*
X2501000Y-57782666D01*
X2234333Y-57782666D01*
X2167666Y-57816000D01*
X2134333Y-57849333D01*
X2101000Y-57916000D01*
X2101000Y-58016000D01*
X2134333Y-58082666D01*
X2167666Y-58116000D01*
X2234333Y-58149333D01*
X2501000Y-58149333D01*
X1834333Y-57849333D02*
X1800999Y-57816000D01*
X1734333Y-57782666D01*
X1567666Y-57782666D01*
X1501000Y-57816000D01*
X1467666Y-57849333D01*
X1434333Y-57916000D01*
X1434333Y-57982666D01*
X1467666Y-58082666D01*
X1867666Y-58482666D01*
X1434333Y-58482666D01*
X801000Y-57782666D02*
X1134333Y-57782666D01*
X1167666Y-58116000D01*
X1134333Y-58082666D01*
X1067666Y-58049333D01*
X900999Y-58049333D01*
X834333Y-58082666D01*
X801000Y-58116000D01*
X767666Y-58182666D01*
X767666Y-58349333D01*
X801000Y-58416000D01*
X834333Y-58449333D01*
X900999Y-58482666D01*
X1067666Y-58482666D01*
X1134333Y-58449333D01*
X1167666Y-58416000D01*
%TO.C,R20*%
X17087000Y-51434166D02*
X17320333Y-51100833D01*
X17487000Y-51434166D02*
X17487000Y-50734166D01*
X17220333Y-50734166D01*
X17153666Y-50767500D01*
X17120333Y-50800833D01*
X17087000Y-50867500D01*
X17087000Y-50967500D01*
X17120333Y-51034166D01*
X17153666Y-51067500D01*
X17220333Y-51100833D01*
X17487000Y-51100833D01*
X16820333Y-50800833D02*
X16787000Y-50767500D01*
X16720333Y-50734166D01*
X16553666Y-50734166D01*
X16487000Y-50767500D01*
X16453666Y-50800833D01*
X16420333Y-50867500D01*
X16420333Y-50934166D01*
X16453666Y-51034166D01*
X16853666Y-51434166D01*
X16420333Y-51434166D01*
X15987000Y-50734166D02*
X15920333Y-50734166D01*
X15853666Y-50767500D01*
X15820333Y-50800833D01*
X15787000Y-50867500D01*
X15753666Y-51000833D01*
X15753666Y-51167500D01*
X15787000Y-51300833D01*
X15820333Y-51367500D01*
X15853666Y-51400833D01*
X15920333Y-51434166D01*
X15987000Y-51434166D01*
X16053666Y-51400833D01*
X16087000Y-51367500D01*
X16120333Y-51300833D01*
X16153666Y-51167500D01*
X16153666Y-51000833D01*
X16120333Y-50867500D01*
X16087000Y-50800833D01*
X16053666Y-50767500D01*
X15987000Y-50734166D01*
%TO.C,R18*%
X17087000Y-49910166D02*
X17320333Y-49576833D01*
X17487000Y-49910166D02*
X17487000Y-49210166D01*
X17220333Y-49210166D01*
X17153666Y-49243500D01*
X17120333Y-49276833D01*
X17087000Y-49343500D01*
X17087000Y-49443500D01*
X17120333Y-49510166D01*
X17153666Y-49543500D01*
X17220333Y-49576833D01*
X17487000Y-49576833D01*
X16420333Y-49910166D02*
X16820333Y-49910166D01*
X16620333Y-49910166D02*
X16620333Y-49210166D01*
X16687000Y-49310166D01*
X16753666Y-49376833D01*
X16820333Y-49410166D01*
X16020333Y-49510166D02*
X16087000Y-49476833D01*
X16120333Y-49443500D01*
X16153666Y-49376833D01*
X16153666Y-49343500D01*
X16120333Y-49276833D01*
X16087000Y-49243500D01*
X16020333Y-49210166D01*
X15887000Y-49210166D01*
X15820333Y-49243500D01*
X15787000Y-49276833D01*
X15753666Y-49343500D01*
X15753666Y-49376833D01*
X15787000Y-49443500D01*
X15820333Y-49476833D01*
X15887000Y-49510166D01*
X16020333Y-49510166D01*
X16087000Y-49543500D01*
X16120333Y-49576833D01*
X16153666Y-49643500D01*
X16153666Y-49776833D01*
X16120333Y-49843500D01*
X16087000Y-49876833D01*
X16020333Y-49910166D01*
X15887000Y-49910166D01*
X15820333Y-49876833D01*
X15787000Y-49843500D01*
X15753666Y-49776833D01*
X15753666Y-49643500D01*
X15787000Y-49576833D01*
X15820333Y-49543500D01*
X15887000Y-49510166D01*
%TO.C,R40*%
X13404000Y-76770666D02*
X13637333Y-76437333D01*
X13804000Y-76770666D02*
X13804000Y-76070666D01*
X13537333Y-76070666D01*
X13470666Y-76104000D01*
X13437333Y-76137333D01*
X13404000Y-76204000D01*
X13404000Y-76304000D01*
X13437333Y-76370666D01*
X13470666Y-76404000D01*
X13537333Y-76437333D01*
X13804000Y-76437333D01*
X12804000Y-76304000D02*
X12804000Y-76770666D01*
X12970666Y-76037333D02*
X13137333Y-76537333D01*
X12704000Y-76537333D01*
X12304000Y-76070666D02*
X12237333Y-76070666D01*
X12170666Y-76104000D01*
X12137333Y-76137333D01*
X12104000Y-76204000D01*
X12070666Y-76337333D01*
X12070666Y-76504000D01*
X12104000Y-76637333D01*
X12137333Y-76704000D01*
X12170666Y-76737333D01*
X12237333Y-76770666D01*
X12304000Y-76770666D01*
X12370666Y-76737333D01*
X12404000Y-76704000D01*
X12437333Y-76637333D01*
X12470666Y-76504000D01*
X12470666Y-76337333D01*
X12437333Y-76204000D01*
X12404000Y-76137333D01*
X12370666Y-76104000D01*
X12304000Y-76070666D01*
%TO.C,R39*%
X8006500Y-74040166D02*
X8239833Y-73706833D01*
X8406500Y-74040166D02*
X8406500Y-73340166D01*
X8139833Y-73340166D01*
X8073166Y-73373500D01*
X8039833Y-73406833D01*
X8006500Y-73473500D01*
X8006500Y-73573500D01*
X8039833Y-73640166D01*
X8073166Y-73673500D01*
X8139833Y-73706833D01*
X8406500Y-73706833D01*
X7773166Y-73340166D02*
X7339833Y-73340166D01*
X7573166Y-73606833D01*
X7473166Y-73606833D01*
X7406500Y-73640166D01*
X7373166Y-73673500D01*
X7339833Y-73740166D01*
X7339833Y-73906833D01*
X7373166Y-73973500D01*
X7406500Y-74006833D01*
X7473166Y-74040166D01*
X7673166Y-74040166D01*
X7739833Y-74006833D01*
X7773166Y-73973500D01*
X7006500Y-74040166D02*
X6873166Y-74040166D01*
X6806500Y-74006833D01*
X6773166Y-73973500D01*
X6706500Y-73873500D01*
X6673166Y-73740166D01*
X6673166Y-73473500D01*
X6706500Y-73406833D01*
X6739833Y-73373500D01*
X6806500Y-73340166D01*
X6939833Y-73340166D01*
X7006500Y-73373500D01*
X7039833Y-73406833D01*
X7073166Y-73473500D01*
X7073166Y-73640166D01*
X7039833Y-73706833D01*
X7006500Y-73740166D01*
X6939833Y-73773500D01*
X6806500Y-73773500D01*
X6739833Y-73740166D01*
X6706500Y-73706833D01*
X6673166Y-73640166D01*
%TO.C,R31*%
X24135500Y-67182166D02*
X24368833Y-66848833D01*
X24535500Y-67182166D02*
X24535500Y-66482166D01*
X24268833Y-66482166D01*
X24202166Y-66515500D01*
X24168833Y-66548833D01*
X24135500Y-66615500D01*
X24135500Y-66715500D01*
X24168833Y-66782166D01*
X24202166Y-66815500D01*
X24268833Y-66848833D01*
X24535500Y-66848833D01*
X23902166Y-66482166D02*
X23468833Y-66482166D01*
X23702166Y-66748833D01*
X23602166Y-66748833D01*
X23535500Y-66782166D01*
X23502166Y-66815500D01*
X23468833Y-66882166D01*
X23468833Y-67048833D01*
X23502166Y-67115500D01*
X23535500Y-67148833D01*
X23602166Y-67182166D01*
X23802166Y-67182166D01*
X23868833Y-67148833D01*
X23902166Y-67115500D01*
X22802166Y-67182166D02*
X23202166Y-67182166D01*
X23002166Y-67182166D02*
X23002166Y-66482166D01*
X23068833Y-66582166D01*
X23135500Y-66648833D01*
X23202166Y-66682166D01*
%TO.C,R38*%
X13404000Y-72909866D02*
X13637333Y-72576533D01*
X13804000Y-72909866D02*
X13804000Y-72209866D01*
X13537333Y-72209866D01*
X13470666Y-72243200D01*
X13437333Y-72276533D01*
X13404000Y-72343200D01*
X13404000Y-72443200D01*
X13437333Y-72509866D01*
X13470666Y-72543200D01*
X13537333Y-72576533D01*
X13804000Y-72576533D01*
X13170666Y-72209866D02*
X12737333Y-72209866D01*
X12970666Y-72476533D01*
X12870666Y-72476533D01*
X12804000Y-72509866D01*
X12770666Y-72543200D01*
X12737333Y-72609866D01*
X12737333Y-72776533D01*
X12770666Y-72843200D01*
X12804000Y-72876533D01*
X12870666Y-72909866D01*
X13070666Y-72909866D01*
X13137333Y-72876533D01*
X13170666Y-72843200D01*
X12337333Y-72509866D02*
X12404000Y-72476533D01*
X12437333Y-72443200D01*
X12470666Y-72376533D01*
X12470666Y-72343200D01*
X12437333Y-72276533D01*
X12404000Y-72243200D01*
X12337333Y-72209866D01*
X12204000Y-72209866D01*
X12137333Y-72243200D01*
X12104000Y-72276533D01*
X12070666Y-72343200D01*
X12070666Y-72376533D01*
X12104000Y-72443200D01*
X12137333Y-72476533D01*
X12204000Y-72509866D01*
X12337333Y-72509866D01*
X12404000Y-72543200D01*
X12437333Y-72576533D01*
X12470666Y-72643200D01*
X12470666Y-72776533D01*
X12437333Y-72843200D01*
X12404000Y-72876533D01*
X12337333Y-72909866D01*
X12204000Y-72909866D01*
X12137333Y-72876533D01*
X12104000Y-72843200D01*
X12070666Y-72776533D01*
X12070666Y-72643200D01*
X12104000Y-72576533D01*
X12137333Y-72543200D01*
X12204000Y-72509866D01*
%TO.C,R34*%
X7879500Y-72452666D02*
X8112833Y-72119333D01*
X8279500Y-72452666D02*
X8279500Y-71752666D01*
X8012833Y-71752666D01*
X7946166Y-71786000D01*
X7912833Y-71819333D01*
X7879500Y-71886000D01*
X7879500Y-71986000D01*
X7912833Y-72052666D01*
X7946166Y-72086000D01*
X8012833Y-72119333D01*
X8279500Y-72119333D01*
X7646166Y-71752666D02*
X7212833Y-71752666D01*
X7446166Y-72019333D01*
X7346166Y-72019333D01*
X7279500Y-72052666D01*
X7246166Y-72086000D01*
X7212833Y-72152666D01*
X7212833Y-72319333D01*
X7246166Y-72386000D01*
X7279500Y-72419333D01*
X7346166Y-72452666D01*
X7546166Y-72452666D01*
X7612833Y-72419333D01*
X7646166Y-72386000D01*
X6612833Y-71986000D02*
X6612833Y-72452666D01*
X6779500Y-71719333D02*
X6946166Y-72219333D01*
X6512833Y-72219333D01*
%TO.C,R33*%
X7905000Y-69277666D02*
X8138333Y-68944333D01*
X8305000Y-69277666D02*
X8305000Y-68577666D01*
X8038333Y-68577666D01*
X7971666Y-68611000D01*
X7938333Y-68644333D01*
X7905000Y-68711000D01*
X7905000Y-68811000D01*
X7938333Y-68877666D01*
X7971666Y-68911000D01*
X8038333Y-68944333D01*
X8305000Y-68944333D01*
X7671666Y-68577666D02*
X7238333Y-68577666D01*
X7471666Y-68844333D01*
X7371666Y-68844333D01*
X7305000Y-68877666D01*
X7271666Y-68911000D01*
X7238333Y-68977666D01*
X7238333Y-69144333D01*
X7271666Y-69211000D01*
X7305000Y-69244333D01*
X7371666Y-69277666D01*
X7571666Y-69277666D01*
X7638333Y-69244333D01*
X7671666Y-69211000D01*
X7005000Y-68577666D02*
X6571666Y-68577666D01*
X6805000Y-68844333D01*
X6705000Y-68844333D01*
X6638333Y-68877666D01*
X6605000Y-68911000D01*
X6571666Y-68977666D01*
X6571666Y-69144333D01*
X6605000Y-69211000D01*
X6638333Y-69244333D01*
X6705000Y-69277666D01*
X6905000Y-69277666D01*
X6971666Y-69244333D01*
X7005000Y-69211000D01*
%TO.C,R36*%
X26358000Y-73316266D02*
X26591333Y-72982933D01*
X26758000Y-73316266D02*
X26758000Y-72616266D01*
X26491333Y-72616266D01*
X26424666Y-72649600D01*
X26391333Y-72682933D01*
X26358000Y-72749600D01*
X26358000Y-72849600D01*
X26391333Y-72916266D01*
X26424666Y-72949600D01*
X26491333Y-72982933D01*
X26758000Y-72982933D01*
X26124666Y-72616266D02*
X25691333Y-72616266D01*
X25924666Y-72882933D01*
X25824666Y-72882933D01*
X25758000Y-72916266D01*
X25724666Y-72949600D01*
X25691333Y-73016266D01*
X25691333Y-73182933D01*
X25724666Y-73249600D01*
X25758000Y-73282933D01*
X25824666Y-73316266D01*
X26024666Y-73316266D01*
X26091333Y-73282933D01*
X26124666Y-73249600D01*
X25091333Y-72616266D02*
X25224666Y-72616266D01*
X25291333Y-72649600D01*
X25324666Y-72682933D01*
X25391333Y-72782933D01*
X25424666Y-72916266D01*
X25424666Y-73182933D01*
X25391333Y-73249600D01*
X25358000Y-73282933D01*
X25291333Y-73316266D01*
X25158000Y-73316266D01*
X25091333Y-73282933D01*
X25058000Y-73249600D01*
X25024666Y-73182933D01*
X25024666Y-73016266D01*
X25058000Y-72949600D01*
X25091333Y-72916266D01*
X25158000Y-72882933D01*
X25291333Y-72882933D01*
X25358000Y-72916266D01*
X25391333Y-72949600D01*
X25424666Y-73016266D01*
%TO.C,R42*%
X26358000Y-78091466D02*
X26591333Y-77758133D01*
X26758000Y-78091466D02*
X26758000Y-77391466D01*
X26491333Y-77391466D01*
X26424666Y-77424800D01*
X26391333Y-77458133D01*
X26358000Y-77524800D01*
X26358000Y-77624800D01*
X26391333Y-77691466D01*
X26424666Y-77724800D01*
X26491333Y-77758133D01*
X26758000Y-77758133D01*
X25758000Y-77624800D02*
X25758000Y-78091466D01*
X25924666Y-77358133D02*
X26091333Y-77858133D01*
X25658000Y-77858133D01*
X25424666Y-77458133D02*
X25391333Y-77424800D01*
X25324666Y-77391466D01*
X25158000Y-77391466D01*
X25091333Y-77424800D01*
X25058000Y-77458133D01*
X25024666Y-77524800D01*
X25024666Y-77591466D01*
X25058000Y-77691466D01*
X25458000Y-78091466D01*
X25024666Y-78091466D01*
%TO.C,R32*%
X18382500Y-67055166D02*
X18615833Y-66721833D01*
X18782500Y-67055166D02*
X18782500Y-66355166D01*
X18515833Y-66355166D01*
X18449166Y-66388500D01*
X18415833Y-66421833D01*
X18382500Y-66488500D01*
X18382500Y-66588500D01*
X18415833Y-66655166D01*
X18449166Y-66688500D01*
X18515833Y-66721833D01*
X18782500Y-66721833D01*
X18149166Y-66355166D02*
X17715833Y-66355166D01*
X17949166Y-66621833D01*
X17849166Y-66621833D01*
X17782500Y-66655166D01*
X17749166Y-66688500D01*
X17715833Y-66755166D01*
X17715833Y-66921833D01*
X17749166Y-66988500D01*
X17782500Y-67021833D01*
X17849166Y-67055166D01*
X18049166Y-67055166D01*
X18115833Y-67021833D01*
X18149166Y-66988500D01*
X17449166Y-66421833D02*
X17415833Y-66388500D01*
X17349166Y-66355166D01*
X17182500Y-66355166D01*
X17115833Y-66388500D01*
X17082500Y-66421833D01*
X17049166Y-66488500D01*
X17049166Y-66555166D01*
X17082500Y-66655166D01*
X17482500Y-67055166D01*
X17049166Y-67055166D01*
%TO.C,R37*%
X26358100Y-74891066D02*
X26591433Y-74557733D01*
X26758100Y-74891066D02*
X26758100Y-74191066D01*
X26491433Y-74191066D01*
X26424766Y-74224400D01*
X26391433Y-74257733D01*
X26358100Y-74324400D01*
X26358100Y-74424400D01*
X26391433Y-74491066D01*
X26424766Y-74524400D01*
X26491433Y-74557733D01*
X26758100Y-74557733D01*
X26124766Y-74191066D02*
X25691433Y-74191066D01*
X25924766Y-74457733D01*
X25824766Y-74457733D01*
X25758100Y-74491066D01*
X25724766Y-74524400D01*
X25691433Y-74591066D01*
X25691433Y-74757733D01*
X25724766Y-74824400D01*
X25758100Y-74857733D01*
X25824766Y-74891066D01*
X26024766Y-74891066D01*
X26091433Y-74857733D01*
X26124766Y-74824400D01*
X25458100Y-74191066D02*
X24991433Y-74191066D01*
X25291433Y-74891066D01*
%TO.C,R28*%
X12515000Y-58927166D02*
X12748333Y-58593833D01*
X12915000Y-58927166D02*
X12915000Y-58227166D01*
X12648333Y-58227166D01*
X12581666Y-58260500D01*
X12548333Y-58293833D01*
X12515000Y-58360500D01*
X12515000Y-58460500D01*
X12548333Y-58527166D01*
X12581666Y-58560500D01*
X12648333Y-58593833D01*
X12915000Y-58593833D01*
X12248333Y-58293833D02*
X12215000Y-58260500D01*
X12148333Y-58227166D01*
X11981666Y-58227166D01*
X11915000Y-58260500D01*
X11881666Y-58293833D01*
X11848333Y-58360500D01*
X11848333Y-58427166D01*
X11881666Y-58527166D01*
X12281666Y-58927166D01*
X11848333Y-58927166D01*
X11448333Y-58527166D02*
X11515000Y-58493833D01*
X11548333Y-58460500D01*
X11581666Y-58393833D01*
X11581666Y-58360500D01*
X11548333Y-58293833D01*
X11515000Y-58260500D01*
X11448333Y-58227166D01*
X11315000Y-58227166D01*
X11248333Y-58260500D01*
X11215000Y-58293833D01*
X11181666Y-58360500D01*
X11181666Y-58393833D01*
X11215000Y-58460500D01*
X11248333Y-58493833D01*
X11315000Y-58527166D01*
X11448333Y-58527166D01*
X11515000Y-58560500D01*
X11548333Y-58593833D01*
X11581666Y-58660500D01*
X11581666Y-58793833D01*
X11548333Y-58860500D01*
X11515000Y-58893833D01*
X11448333Y-58927166D01*
X11315000Y-58927166D01*
X11248333Y-58893833D01*
X11215000Y-58860500D01*
X11181666Y-58793833D01*
X11181666Y-58660500D01*
X11215000Y-58593833D01*
X11248333Y-58560500D01*
X11315000Y-58527166D01*
%TO.C,R2*%
X16194866Y-26427866D02*
X16428200Y-26094533D01*
X16594866Y-26427866D02*
X16594866Y-25727866D01*
X16328200Y-25727866D01*
X16261533Y-25761200D01*
X16228200Y-25794533D01*
X16194866Y-25861200D01*
X16194866Y-25961200D01*
X16228200Y-26027866D01*
X16261533Y-26061200D01*
X16328200Y-26094533D01*
X16594866Y-26094533D01*
X15928200Y-25794533D02*
X15894866Y-25761200D01*
X15828200Y-25727866D01*
X15661533Y-25727866D01*
X15594866Y-25761200D01*
X15561533Y-25794533D01*
X15528200Y-25861200D01*
X15528200Y-25927866D01*
X15561533Y-26027866D01*
X15961533Y-26427866D01*
X15528200Y-26427866D01*
%TO.C,R29*%
X7054000Y-60133666D02*
X7287333Y-59800333D01*
X7454000Y-60133666D02*
X7454000Y-59433666D01*
X7187333Y-59433666D01*
X7120666Y-59467000D01*
X7087333Y-59500333D01*
X7054000Y-59567000D01*
X7054000Y-59667000D01*
X7087333Y-59733666D01*
X7120666Y-59767000D01*
X7187333Y-59800333D01*
X7454000Y-59800333D01*
X6787333Y-59500333D02*
X6754000Y-59467000D01*
X6687333Y-59433666D01*
X6520666Y-59433666D01*
X6454000Y-59467000D01*
X6420666Y-59500333D01*
X6387333Y-59567000D01*
X6387333Y-59633666D01*
X6420666Y-59733666D01*
X6820666Y-60133666D01*
X6387333Y-60133666D01*
X6054000Y-60133666D02*
X5920666Y-60133666D01*
X5854000Y-60100333D01*
X5820666Y-60067000D01*
X5754000Y-59967000D01*
X5720666Y-59833666D01*
X5720666Y-59567000D01*
X5754000Y-59500333D01*
X5787333Y-59467000D01*
X5854000Y-59433666D01*
X5987333Y-59433666D01*
X6054000Y-59467000D01*
X6087333Y-59500333D01*
X6120666Y-59567000D01*
X6120666Y-59733666D01*
X6087333Y-59800333D01*
X6054000Y-59833666D01*
X5987333Y-59867000D01*
X5854000Y-59867000D01*
X5787333Y-59833666D01*
X5754000Y-59800333D01*
X5720666Y-59733666D01*
%TO.C,R24*%
X7054000Y-58482666D02*
X7287333Y-58149333D01*
X7454000Y-58482666D02*
X7454000Y-57782666D01*
X7187333Y-57782666D01*
X7120666Y-57816000D01*
X7087333Y-57849333D01*
X7054000Y-57916000D01*
X7054000Y-58016000D01*
X7087333Y-58082666D01*
X7120666Y-58116000D01*
X7187333Y-58149333D01*
X7454000Y-58149333D01*
X6787333Y-57849333D02*
X6754000Y-57816000D01*
X6687333Y-57782666D01*
X6520666Y-57782666D01*
X6454000Y-57816000D01*
X6420666Y-57849333D01*
X6387333Y-57916000D01*
X6387333Y-57982666D01*
X6420666Y-58082666D01*
X6820666Y-58482666D01*
X6387333Y-58482666D01*
X5787333Y-58016000D02*
X5787333Y-58482666D01*
X5954000Y-57749333D02*
X6120666Y-58249333D01*
X5687333Y-58249333D01*
%TO.C,R17*%
X17087000Y-48259166D02*
X17320333Y-47925833D01*
X17487000Y-48259166D02*
X17487000Y-47559166D01*
X17220333Y-47559166D01*
X17153666Y-47592500D01*
X17120333Y-47625833D01*
X17087000Y-47692500D01*
X17087000Y-47792500D01*
X17120333Y-47859166D01*
X17153666Y-47892500D01*
X17220333Y-47925833D01*
X17487000Y-47925833D01*
X16420333Y-48259166D02*
X16820333Y-48259166D01*
X16620333Y-48259166D02*
X16620333Y-47559166D01*
X16687000Y-47659166D01*
X16753666Y-47725833D01*
X16820333Y-47759166D01*
X16187000Y-47559166D02*
X15720333Y-47559166D01*
X16020333Y-48259166D01*
%TO.C,R10*%
X21963800Y-39839066D02*
X22197133Y-39505733D01*
X22363800Y-39839066D02*
X22363800Y-39139066D01*
X22097133Y-39139066D01*
X22030466Y-39172400D01*
X21997133Y-39205733D01*
X21963800Y-39272400D01*
X21963800Y-39372400D01*
X21997133Y-39439066D01*
X22030466Y-39472400D01*
X22097133Y-39505733D01*
X22363800Y-39505733D01*
X21297133Y-39839066D02*
X21697133Y-39839066D01*
X21497133Y-39839066D02*
X21497133Y-39139066D01*
X21563800Y-39239066D01*
X21630466Y-39305733D01*
X21697133Y-39339066D01*
X20863800Y-39139066D02*
X20797133Y-39139066D01*
X20730466Y-39172400D01*
X20697133Y-39205733D01*
X20663800Y-39272400D01*
X20630466Y-39405733D01*
X20630466Y-39572400D01*
X20663800Y-39705733D01*
X20697133Y-39772400D01*
X20730466Y-39805733D01*
X20797133Y-39839066D01*
X20863800Y-39839066D01*
X20930466Y-39805733D01*
X20963800Y-39772400D01*
X20997133Y-39705733D01*
X21030466Y-39572400D01*
X21030466Y-39405733D01*
X20997133Y-39272400D01*
X20963800Y-39205733D01*
X20930466Y-39172400D01*
X20863800Y-39139066D01*
%TO.C,R6*%
X18150666Y-33971666D02*
X18384000Y-33638333D01*
X18550666Y-33971666D02*
X18550666Y-33271666D01*
X18284000Y-33271666D01*
X18217333Y-33305000D01*
X18184000Y-33338333D01*
X18150666Y-33405000D01*
X18150666Y-33505000D01*
X18184000Y-33571666D01*
X18217333Y-33605000D01*
X18284000Y-33638333D01*
X18550666Y-33638333D01*
X17550666Y-33271666D02*
X17684000Y-33271666D01*
X17750666Y-33305000D01*
X17784000Y-33338333D01*
X17850666Y-33438333D01*
X17884000Y-33571666D01*
X17884000Y-33838333D01*
X17850666Y-33905000D01*
X17817333Y-33938333D01*
X17750666Y-33971666D01*
X17617333Y-33971666D01*
X17550666Y-33938333D01*
X17517333Y-33905000D01*
X17484000Y-33838333D01*
X17484000Y-33671666D01*
X17517333Y-33605000D01*
X17550666Y-33571666D01*
X17617333Y-33538333D01*
X17750666Y-33538333D01*
X17817333Y-33571666D01*
X17850666Y-33605000D01*
X17884000Y-33671666D01*
%TO.C,R9*%
X26659666Y-39839066D02*
X26893000Y-39505733D01*
X27059666Y-39839066D02*
X27059666Y-39139066D01*
X26793000Y-39139066D01*
X26726333Y-39172400D01*
X26693000Y-39205733D01*
X26659666Y-39272400D01*
X26659666Y-39372400D01*
X26693000Y-39439066D01*
X26726333Y-39472400D01*
X26793000Y-39505733D01*
X27059666Y-39505733D01*
X26326333Y-39839066D02*
X26193000Y-39839066D01*
X26126333Y-39805733D01*
X26093000Y-39772400D01*
X26026333Y-39672400D01*
X25993000Y-39539066D01*
X25993000Y-39272400D01*
X26026333Y-39205733D01*
X26059666Y-39172400D01*
X26126333Y-39139066D01*
X26259666Y-39139066D01*
X26326333Y-39172400D01*
X26359666Y-39205733D01*
X26393000Y-39272400D01*
X26393000Y-39439066D01*
X26359666Y-39505733D01*
X26326333Y-39539066D01*
X26259666Y-39572400D01*
X26126333Y-39572400D01*
X26059666Y-39539066D01*
X26026333Y-39505733D01*
X25993000Y-39439066D01*
%TO.C,R27*%
X15880500Y-61022666D02*
X16113833Y-60689333D01*
X16280500Y-61022666D02*
X16280500Y-60322666D01*
X16013833Y-60322666D01*
X15947166Y-60356000D01*
X15913833Y-60389333D01*
X15880500Y-60456000D01*
X15880500Y-60556000D01*
X15913833Y-60622666D01*
X15947166Y-60656000D01*
X16013833Y-60689333D01*
X16280500Y-60689333D01*
X15613833Y-60389333D02*
X15580500Y-60356000D01*
X15513833Y-60322666D01*
X15347166Y-60322666D01*
X15280500Y-60356000D01*
X15247166Y-60389333D01*
X15213833Y-60456000D01*
X15213833Y-60522666D01*
X15247166Y-60622666D01*
X15647166Y-61022666D01*
X15213833Y-61022666D01*
X14980500Y-60322666D02*
X14513833Y-60322666D01*
X14813833Y-61022666D01*
%TO.C,R3*%
X13451666Y-28701166D02*
X13685000Y-28367833D01*
X13851666Y-28701166D02*
X13851666Y-28001166D01*
X13585000Y-28001166D01*
X13518333Y-28034500D01*
X13485000Y-28067833D01*
X13451666Y-28134500D01*
X13451666Y-28234500D01*
X13485000Y-28301166D01*
X13518333Y-28334500D01*
X13585000Y-28367833D01*
X13851666Y-28367833D01*
X13218333Y-28001166D02*
X12785000Y-28001166D01*
X13018333Y-28267833D01*
X12918333Y-28267833D01*
X12851666Y-28301166D01*
X12818333Y-28334500D01*
X12785000Y-28401166D01*
X12785000Y-28567833D01*
X12818333Y-28634500D01*
X12851666Y-28667833D01*
X12918333Y-28701166D01*
X13118333Y-28701166D01*
X13185000Y-28667833D01*
X13218333Y-28634500D01*
%TO.C,R4*%
X13451666Y-30288666D02*
X13685000Y-29955333D01*
X13851666Y-30288666D02*
X13851666Y-29588666D01*
X13585000Y-29588666D01*
X13518333Y-29622000D01*
X13485000Y-29655333D01*
X13451666Y-29722000D01*
X13451666Y-29822000D01*
X13485000Y-29888666D01*
X13518333Y-29922000D01*
X13585000Y-29955333D01*
X13851666Y-29955333D01*
X12851666Y-29822000D02*
X12851666Y-30288666D01*
X13018333Y-29555333D02*
X13185000Y-30055333D01*
X12751666Y-30055333D01*
%TO.C,R5*%
X11965666Y-31939666D02*
X12199000Y-31606333D01*
X12365666Y-31939666D02*
X12365666Y-31239666D01*
X12099000Y-31239666D01*
X12032333Y-31273000D01*
X11999000Y-31306333D01*
X11965666Y-31373000D01*
X11965666Y-31473000D01*
X11999000Y-31539666D01*
X12032333Y-31573000D01*
X12099000Y-31606333D01*
X12365666Y-31606333D01*
X11332333Y-31239666D02*
X11665666Y-31239666D01*
X11699000Y-31573000D01*
X11665666Y-31539666D01*
X11599000Y-31506333D01*
X11432333Y-31506333D01*
X11365666Y-31539666D01*
X11332333Y-31573000D01*
X11299000Y-31639666D01*
X11299000Y-31806333D01*
X11332333Y-31873000D01*
X11365666Y-31906333D01*
X11432333Y-31939666D01*
X11599000Y-31939666D01*
X11665666Y-31906333D01*
X11699000Y-31873000D01*
%TO.C,R14*%
X25215000Y-45528666D02*
X25448333Y-45195333D01*
X25615000Y-45528666D02*
X25615000Y-44828666D01*
X25348333Y-44828666D01*
X25281666Y-44862000D01*
X25248333Y-44895333D01*
X25215000Y-44962000D01*
X25215000Y-45062000D01*
X25248333Y-45128666D01*
X25281666Y-45162000D01*
X25348333Y-45195333D01*
X25615000Y-45195333D01*
X24548333Y-45528666D02*
X24948333Y-45528666D01*
X24748333Y-45528666D02*
X24748333Y-44828666D01*
X24815000Y-44928666D01*
X24881666Y-44995333D01*
X24948333Y-45028666D01*
X23948333Y-45062000D02*
X23948333Y-45528666D01*
X24115000Y-44795333D02*
X24281666Y-45295333D01*
X23848333Y-45295333D01*
%TO.C,R15*%
X17341000Y-45465166D02*
X17574333Y-45131833D01*
X17741000Y-45465166D02*
X17741000Y-44765166D01*
X17474333Y-44765166D01*
X17407666Y-44798500D01*
X17374333Y-44831833D01*
X17341000Y-44898500D01*
X17341000Y-44998500D01*
X17374333Y-45065166D01*
X17407666Y-45098500D01*
X17474333Y-45131833D01*
X17741000Y-45131833D01*
X16674333Y-45465166D02*
X17074333Y-45465166D01*
X16874333Y-45465166D02*
X16874333Y-44765166D01*
X16941000Y-44865166D01*
X17007666Y-44931833D01*
X17074333Y-44965166D01*
X16041000Y-44765166D02*
X16374333Y-44765166D01*
X16407666Y-45098500D01*
X16374333Y-45065166D01*
X16307666Y-45031833D01*
X16141000Y-45031833D01*
X16074333Y-45065166D01*
X16041000Y-45098500D01*
X16007666Y-45165166D01*
X16007666Y-45331833D01*
X16041000Y-45398500D01*
X16074333Y-45431833D01*
X16141000Y-45465166D01*
X16307666Y-45465166D01*
X16374333Y-45431833D01*
X16407666Y-45398500D01*
%TO.C,RV7*%
X23987866Y-83908066D02*
X24221200Y-83574733D01*
X24387866Y-83908066D02*
X24387866Y-83208066D01*
X24121200Y-83208066D01*
X24054533Y-83241400D01*
X24021200Y-83274733D01*
X23987866Y-83341400D01*
X23987866Y-83441400D01*
X24021200Y-83508066D01*
X24054533Y-83541400D01*
X24121200Y-83574733D01*
X24387866Y-83574733D01*
X23787866Y-83208066D02*
X23554533Y-83908066D01*
X23321200Y-83208066D01*
X23154533Y-83208066D02*
X22687866Y-83208066D01*
X22987866Y-83908066D01*
%TO.C,U8*%
X20827933Y-92098066D02*
X20827933Y-92664733D01*
X20794600Y-92731400D01*
X20761266Y-92764733D01*
X20694600Y-92798066D01*
X20561266Y-92798066D01*
X20494600Y-92764733D01*
X20461266Y-92731400D01*
X20427933Y-92664733D01*
X20427933Y-92098066D01*
X19994600Y-92398066D02*
X20061266Y-92364733D01*
X20094600Y-92331400D01*
X20127933Y-92264733D01*
X20127933Y-92231400D01*
X20094600Y-92164733D01*
X20061266Y-92131400D01*
X19994600Y-92098066D01*
X19861266Y-92098066D01*
X19794600Y-92131400D01*
X19761266Y-92164733D01*
X19727933Y-92231400D01*
X19727933Y-92264733D01*
X19761266Y-92331400D01*
X19794600Y-92364733D01*
X19861266Y-92398066D01*
X19994600Y-92398066D01*
X20061266Y-92431400D01*
X20094600Y-92464733D01*
X20127933Y-92531400D01*
X20127933Y-92664733D01*
X20094600Y-92731400D01*
X20061266Y-92764733D01*
X19994600Y-92798066D01*
X19861266Y-92798066D01*
X19794600Y-92764733D01*
X19761266Y-92731400D01*
X19727933Y-92664733D01*
X19727933Y-92531400D01*
X19761266Y-92464733D01*
X19794600Y-92431400D01*
X19861266Y-92398066D01*
%TO.C,U1*%
X27660533Y-22476666D02*
X27660533Y-23043333D01*
X27627200Y-23110000D01*
X27593866Y-23143333D01*
X27527200Y-23176666D01*
X27393866Y-23176666D01*
X27327200Y-23143333D01*
X27293866Y-23110000D01*
X27260533Y-23043333D01*
X27260533Y-22476666D01*
X26560533Y-23176666D02*
X26960533Y-23176666D01*
X26760533Y-23176666D02*
X26760533Y-22476666D01*
X26827200Y-22576666D01*
X26893866Y-22643333D01*
X26960533Y-22676666D01*
%TO.C,U7*%
X17170333Y-82166666D02*
X17170333Y-82733333D01*
X17137000Y-82800000D01*
X17103666Y-82833333D01*
X17037000Y-82866666D01*
X16903666Y-82866666D01*
X16837000Y-82833333D01*
X16803666Y-82800000D01*
X16770333Y-82733333D01*
X16770333Y-82166666D01*
X16503666Y-82166666D02*
X16037000Y-82166666D01*
X16337000Y-82866666D01*
%TO.C,U6*%
X15201833Y-63180166D02*
X15201833Y-63746833D01*
X15168500Y-63813500D01*
X15135166Y-63846833D01*
X15068500Y-63880166D01*
X14935166Y-63880166D01*
X14868500Y-63846833D01*
X14835166Y-63813500D01*
X14801833Y-63746833D01*
X14801833Y-63180166D01*
X14168500Y-63180166D02*
X14301833Y-63180166D01*
X14368500Y-63213500D01*
X14401833Y-63246833D01*
X14468500Y-63346833D01*
X14501833Y-63480166D01*
X14501833Y-63746833D01*
X14468500Y-63813500D01*
X14435166Y-63846833D01*
X14368500Y-63880166D01*
X14235166Y-63880166D01*
X14168500Y-63846833D01*
X14135166Y-63813500D01*
X14101833Y-63746833D01*
X14101833Y-63580166D01*
X14135166Y-63513500D01*
X14168500Y-63480166D01*
X14235166Y-63446833D01*
X14368500Y-63446833D01*
X14435166Y-63480166D01*
X14468500Y-63513500D01*
X14501833Y-63580166D01*
%TO.C,U3*%
X15036733Y-44955666D02*
X15036733Y-45522333D01*
X15003400Y-45589000D01*
X14970066Y-45622333D01*
X14903400Y-45655666D01*
X14770066Y-45655666D01*
X14703400Y-45622333D01*
X14670066Y-45589000D01*
X14636733Y-45522333D01*
X14636733Y-44955666D01*
X14370066Y-44955666D02*
X13936733Y-44955666D01*
X14170066Y-45222333D01*
X14070066Y-45222333D01*
X14003400Y-45255666D01*
X13970066Y-45289000D01*
X13936733Y-45355666D01*
X13936733Y-45522333D01*
X13970066Y-45589000D01*
X14003400Y-45622333D01*
X14070066Y-45655666D01*
X14270066Y-45655666D01*
X14336733Y-45622333D01*
X14370066Y-45589000D01*
%TO.C,R21*%
X18865000Y-56831666D02*
X19098333Y-56498333D01*
X19265000Y-56831666D02*
X19265000Y-56131666D01*
X18998333Y-56131666D01*
X18931666Y-56165000D01*
X18898333Y-56198333D01*
X18865000Y-56265000D01*
X18865000Y-56365000D01*
X18898333Y-56431666D01*
X18931666Y-56465000D01*
X18998333Y-56498333D01*
X19265000Y-56498333D01*
X18598333Y-56198333D02*
X18565000Y-56165000D01*
X18498333Y-56131666D01*
X18331666Y-56131666D01*
X18265000Y-56165000D01*
X18231666Y-56198333D01*
X18198333Y-56265000D01*
X18198333Y-56331666D01*
X18231666Y-56431666D01*
X18631666Y-56831666D01*
X18198333Y-56831666D01*
X17531666Y-56831666D02*
X17931666Y-56831666D01*
X17731666Y-56831666D02*
X17731666Y-56131666D01*
X17798333Y-56231666D01*
X17865000Y-56298333D01*
X17931666Y-56331666D01*
%TO.C,R19*%
X9403500Y-48259166D02*
X9636833Y-47925833D01*
X9803500Y-48259166D02*
X9803500Y-47559166D01*
X9536833Y-47559166D01*
X9470166Y-47592500D01*
X9436833Y-47625833D01*
X9403500Y-47692500D01*
X9403500Y-47792500D01*
X9436833Y-47859166D01*
X9470166Y-47892500D01*
X9536833Y-47925833D01*
X9803500Y-47925833D01*
X8736833Y-48259166D02*
X9136833Y-48259166D01*
X8936833Y-48259166D02*
X8936833Y-47559166D01*
X9003500Y-47659166D01*
X9070166Y-47725833D01*
X9136833Y-47759166D01*
X8403500Y-48259166D02*
X8270166Y-48259166D01*
X8203500Y-48225833D01*
X8170166Y-48192500D01*
X8103500Y-48092500D01*
X8070166Y-47959166D01*
X8070166Y-47692500D01*
X8103500Y-47625833D01*
X8136833Y-47592500D01*
X8203500Y-47559166D01*
X8336833Y-47559166D01*
X8403500Y-47592500D01*
X8436833Y-47625833D01*
X8470166Y-47692500D01*
X8470166Y-47859166D01*
X8436833Y-47925833D01*
X8403500Y-47959166D01*
X8336833Y-47992500D01*
X8203500Y-47992500D01*
X8136833Y-47959166D01*
X8103500Y-47925833D01*
X8070166Y-47859166D01*
%TO.C,U10*%
X22618166Y-112456166D02*
X22618166Y-113022833D01*
X22584833Y-113089500D01*
X22551500Y-113122833D01*
X22484833Y-113156166D01*
X22351500Y-113156166D01*
X22284833Y-113122833D01*
X22251500Y-113089500D01*
X22218166Y-113022833D01*
X22218166Y-112456166D01*
X21518166Y-113156166D02*
X21918166Y-113156166D01*
X21718166Y-113156166D02*
X21718166Y-112456166D01*
X21784833Y-112556166D01*
X21851500Y-112622833D01*
X21918166Y-112656166D01*
X21084833Y-112456166D02*
X21018166Y-112456166D01*
X20951500Y-112489500D01*
X20918166Y-112522833D01*
X20884833Y-112589500D01*
X20851500Y-112722833D01*
X20851500Y-112889500D01*
X20884833Y-113022833D01*
X20918166Y-113089500D01*
X20951500Y-113122833D01*
X21018166Y-113156166D01*
X21084833Y-113156166D01*
X21151500Y-113122833D01*
X21184833Y-113089500D01*
X21218166Y-113022833D01*
X21251500Y-112889500D01*
X21251500Y-112722833D01*
X21218166Y-112589500D01*
X21184833Y-112522833D01*
X21151500Y-112489500D01*
X21084833Y-112456166D01*
%TO.C,U5*%
X4851333Y-51242166D02*
X4851333Y-51808833D01*
X4818000Y-51875500D01*
X4784666Y-51908833D01*
X4718000Y-51942166D01*
X4584666Y-51942166D01*
X4518000Y-51908833D01*
X4484666Y-51875500D01*
X4451333Y-51808833D01*
X4451333Y-51242166D01*
X3784666Y-51242166D02*
X4118000Y-51242166D01*
X4151333Y-51575500D01*
X4118000Y-51542166D01*
X4051333Y-51508833D01*
X3884666Y-51508833D01*
X3818000Y-51542166D01*
X3784666Y-51575500D01*
X3751333Y-51642166D01*
X3751333Y-51808833D01*
X3784666Y-51875500D01*
X3818000Y-51908833D01*
X3884666Y-51942166D01*
X4051333Y-51942166D01*
X4118000Y-51908833D01*
X4151333Y-51875500D01*
%TO.C,C13*%
X4895000Y-48192500D02*
X4928333Y-48225833D01*
X5028333Y-48259166D01*
X5095000Y-48259166D01*
X5195000Y-48225833D01*
X5261666Y-48159166D01*
X5295000Y-48092500D01*
X5328333Y-47959166D01*
X5328333Y-47859166D01*
X5295000Y-47725833D01*
X5261666Y-47659166D01*
X5195000Y-47592500D01*
X5095000Y-47559166D01*
X5028333Y-47559166D01*
X4928333Y-47592500D01*
X4895000Y-47625833D01*
X4228333Y-48259166D02*
X4628333Y-48259166D01*
X4428333Y-48259166D02*
X4428333Y-47559166D01*
X4495000Y-47659166D01*
X4561666Y-47725833D01*
X4628333Y-47759166D01*
X3995000Y-47559166D02*
X3561666Y-47559166D01*
X3795000Y-47825833D01*
X3695000Y-47825833D01*
X3628333Y-47859166D01*
X3595000Y-47892500D01*
X3561666Y-47959166D01*
X3561666Y-48125833D01*
X3595000Y-48192500D01*
X3628333Y-48225833D01*
X3695000Y-48259166D01*
X3895000Y-48259166D01*
X3961666Y-48225833D01*
X3995000Y-48192500D01*
%TO.C,C9*%
X18150666Y-37270500D02*
X18184000Y-37303833D01*
X18284000Y-37337166D01*
X18350666Y-37337166D01*
X18450666Y-37303833D01*
X18517333Y-37237166D01*
X18550666Y-37170500D01*
X18584000Y-37037166D01*
X18584000Y-36937166D01*
X18550666Y-36803833D01*
X18517333Y-36737166D01*
X18450666Y-36670500D01*
X18350666Y-36637166D01*
X18284000Y-36637166D01*
X18184000Y-36670500D01*
X18150666Y-36703833D01*
X17817333Y-37337166D02*
X17684000Y-37337166D01*
X17617333Y-37303833D01*
X17584000Y-37270500D01*
X17517333Y-37170500D01*
X17484000Y-37037166D01*
X17484000Y-36770500D01*
X17517333Y-36703833D01*
X17550666Y-36670500D01*
X17617333Y-36637166D01*
X17750666Y-36637166D01*
X17817333Y-36670500D01*
X17850666Y-36703833D01*
X17884000Y-36770500D01*
X17884000Y-36937166D01*
X17850666Y-37003833D01*
X17817333Y-37037166D01*
X17750666Y-37070500D01*
X17617333Y-37070500D01*
X17550666Y-37037166D01*
X17517333Y-37003833D01*
X17484000Y-36937166D01*
%TO.C,R51*%
X7866800Y-95769866D02*
X8100133Y-95436533D01*
X8266800Y-95769866D02*
X8266800Y-95069866D01*
X8000133Y-95069866D01*
X7933466Y-95103200D01*
X7900133Y-95136533D01*
X7866800Y-95203200D01*
X7866800Y-95303200D01*
X7900133Y-95369866D01*
X7933466Y-95403200D01*
X8000133Y-95436533D01*
X8266800Y-95436533D01*
X7233466Y-95069866D02*
X7566800Y-95069866D01*
X7600133Y-95403200D01*
X7566800Y-95369866D01*
X7500133Y-95336533D01*
X7333466Y-95336533D01*
X7266800Y-95369866D01*
X7233466Y-95403200D01*
X7200133Y-95469866D01*
X7200133Y-95636533D01*
X7233466Y-95703200D01*
X7266800Y-95736533D01*
X7333466Y-95769866D01*
X7500133Y-95769866D01*
X7566800Y-95736533D01*
X7600133Y-95703200D01*
X6533466Y-95769866D02*
X6933466Y-95769866D01*
X6733466Y-95769866D02*
X6733466Y-95069866D01*
X6800133Y-95169866D01*
X6866800Y-95236533D01*
X6933466Y-95269866D01*
%TO.C,R53*%
X27374000Y-98551166D02*
X27607333Y-98217833D01*
X27774000Y-98551166D02*
X27774000Y-97851166D01*
X27507333Y-97851166D01*
X27440666Y-97884500D01*
X27407333Y-97917833D01*
X27374000Y-97984500D01*
X27374000Y-98084500D01*
X27407333Y-98151166D01*
X27440666Y-98184500D01*
X27507333Y-98217833D01*
X27774000Y-98217833D01*
X26740666Y-97851166D02*
X27074000Y-97851166D01*
X27107333Y-98184500D01*
X27074000Y-98151166D01*
X27007333Y-98117833D01*
X26840666Y-98117833D01*
X26774000Y-98151166D01*
X26740666Y-98184500D01*
X26707333Y-98251166D01*
X26707333Y-98417833D01*
X26740666Y-98484500D01*
X26774000Y-98517833D01*
X26840666Y-98551166D01*
X27007333Y-98551166D01*
X27074000Y-98517833D01*
X27107333Y-98484500D01*
X26474000Y-97851166D02*
X26040666Y-97851166D01*
X26274000Y-98117833D01*
X26174000Y-98117833D01*
X26107333Y-98151166D01*
X26074000Y-98184500D01*
X26040666Y-98251166D01*
X26040666Y-98417833D01*
X26074000Y-98484500D01*
X26107333Y-98517833D01*
X26174000Y-98551166D01*
X26374000Y-98551166D01*
X26440666Y-98517833D01*
X26474000Y-98484500D01*
%TO.C,R52*%
X27374000Y-99757666D02*
X27607333Y-99424333D01*
X27774000Y-99757666D02*
X27774000Y-99057666D01*
X27507333Y-99057666D01*
X27440666Y-99091000D01*
X27407333Y-99124333D01*
X27374000Y-99191000D01*
X27374000Y-99291000D01*
X27407333Y-99357666D01*
X27440666Y-99391000D01*
X27507333Y-99424333D01*
X27774000Y-99424333D01*
X26740666Y-99057666D02*
X27074000Y-99057666D01*
X27107333Y-99391000D01*
X27074000Y-99357666D01*
X27007333Y-99324333D01*
X26840666Y-99324333D01*
X26774000Y-99357666D01*
X26740666Y-99391000D01*
X26707333Y-99457666D01*
X26707333Y-99624333D01*
X26740666Y-99691000D01*
X26774000Y-99724333D01*
X26840666Y-99757666D01*
X27007333Y-99757666D01*
X27074000Y-99724333D01*
X27107333Y-99691000D01*
X26440666Y-99124333D02*
X26407333Y-99091000D01*
X26340666Y-99057666D01*
X26174000Y-99057666D01*
X26107333Y-99091000D01*
X26074000Y-99124333D01*
X26040666Y-99191000D01*
X26040666Y-99257666D01*
X26074000Y-99357666D01*
X26474000Y-99757666D01*
X26040666Y-99757666D01*
%TO.C,RV8*%
X20736666Y-97281166D02*
X20970000Y-96947833D01*
X21136666Y-97281166D02*
X21136666Y-96581166D01*
X20870000Y-96581166D01*
X20803333Y-96614500D01*
X20770000Y-96647833D01*
X20736666Y-96714500D01*
X20736666Y-96814500D01*
X20770000Y-96881166D01*
X20803333Y-96914500D01*
X20870000Y-96947833D01*
X21136666Y-96947833D01*
X20536666Y-96581166D02*
X20303333Y-97281166D01*
X20070000Y-96581166D01*
X19736666Y-96881166D02*
X19803333Y-96847833D01*
X19836666Y-96814500D01*
X19870000Y-96747833D01*
X19870000Y-96714500D01*
X19836666Y-96647833D01*
X19803333Y-96614500D01*
X19736666Y-96581166D01*
X19603333Y-96581166D01*
X19536666Y-96614500D01*
X19503333Y-96647833D01*
X19470000Y-96714500D01*
X19470000Y-96747833D01*
X19503333Y-96814500D01*
X19536666Y-96847833D01*
X19603333Y-96881166D01*
X19736666Y-96881166D01*
X19803333Y-96914500D01*
X19836666Y-96947833D01*
X19870000Y-97014500D01*
X19870000Y-97147833D01*
X19836666Y-97214500D01*
X19803333Y-97247833D01*
X19736666Y-97281166D01*
X19603333Y-97281166D01*
X19536666Y-97247833D01*
X19503333Y-97214500D01*
X19470000Y-97147833D01*
X19470000Y-97014500D01*
X19503333Y-96947833D01*
X19536666Y-96914500D01*
X19603333Y-96881166D01*
%TO.C,R11*%
X7181000Y-41020166D02*
X7414333Y-40686833D01*
X7581000Y-41020166D02*
X7581000Y-40320166D01*
X7314333Y-40320166D01*
X7247666Y-40353500D01*
X7214333Y-40386833D01*
X7181000Y-40453500D01*
X7181000Y-40553500D01*
X7214333Y-40620166D01*
X7247666Y-40653500D01*
X7314333Y-40686833D01*
X7581000Y-40686833D01*
X6514333Y-41020166D02*
X6914333Y-41020166D01*
X6714333Y-41020166D02*
X6714333Y-40320166D01*
X6781000Y-40420166D01*
X6847666Y-40486833D01*
X6914333Y-40520166D01*
X5847666Y-41020166D02*
X6247666Y-41020166D01*
X6047666Y-41020166D02*
X6047666Y-40320166D01*
X6114333Y-40420166D01*
X6181000Y-40486833D01*
X6247666Y-40520166D01*
%TO.C,R8*%
X18150666Y-38924666D02*
X18384000Y-38591333D01*
X18550666Y-38924666D02*
X18550666Y-38224666D01*
X18284000Y-38224666D01*
X18217333Y-38258000D01*
X18184000Y-38291333D01*
X18150666Y-38358000D01*
X18150666Y-38458000D01*
X18184000Y-38524666D01*
X18217333Y-38558000D01*
X18284000Y-38591333D01*
X18550666Y-38591333D01*
X17750666Y-38524666D02*
X17817333Y-38491333D01*
X17850666Y-38458000D01*
X17884000Y-38391333D01*
X17884000Y-38358000D01*
X17850666Y-38291333D01*
X17817333Y-38258000D01*
X17750666Y-38224666D01*
X17617333Y-38224666D01*
X17550666Y-38258000D01*
X17517333Y-38291333D01*
X17484000Y-38358000D01*
X17484000Y-38391333D01*
X17517333Y-38458000D01*
X17550666Y-38491333D01*
X17617333Y-38524666D01*
X17750666Y-38524666D01*
X17817333Y-38558000D01*
X17850666Y-38591333D01*
X17884000Y-38658000D01*
X17884000Y-38791333D01*
X17850666Y-38858000D01*
X17817333Y-38891333D01*
X17750666Y-38924666D01*
X17617333Y-38924666D01*
X17550666Y-38891333D01*
X17517333Y-38858000D01*
X17484000Y-38791333D01*
X17484000Y-38658000D01*
X17517333Y-38591333D01*
X17550666Y-38558000D01*
X17617333Y-38524666D01*
%TO.C,R13*%
X6431600Y-44322166D02*
X6664933Y-43988833D01*
X6831600Y-44322166D02*
X6831600Y-43622166D01*
X6564933Y-43622166D01*
X6498266Y-43655500D01*
X6464933Y-43688833D01*
X6431600Y-43755500D01*
X6431600Y-43855500D01*
X6464933Y-43922166D01*
X6498266Y-43955500D01*
X6564933Y-43988833D01*
X6831600Y-43988833D01*
X5764933Y-44322166D02*
X6164933Y-44322166D01*
X5964933Y-44322166D02*
X5964933Y-43622166D01*
X6031600Y-43722166D01*
X6098266Y-43788833D01*
X6164933Y-43822166D01*
X5531600Y-43622166D02*
X5098266Y-43622166D01*
X5331600Y-43888833D01*
X5231600Y-43888833D01*
X5164933Y-43922166D01*
X5131600Y-43955500D01*
X5098266Y-44022166D01*
X5098266Y-44188833D01*
X5131600Y-44255500D01*
X5164933Y-44288833D01*
X5231600Y-44322166D01*
X5431600Y-44322166D01*
X5498266Y-44288833D01*
X5531600Y-44255500D01*
%TO.C,R12*%
X7181000Y-42607666D02*
X7414333Y-42274333D01*
X7581000Y-42607666D02*
X7581000Y-41907666D01*
X7314333Y-41907666D01*
X7247666Y-41941000D01*
X7214333Y-41974333D01*
X7181000Y-42041000D01*
X7181000Y-42141000D01*
X7214333Y-42207666D01*
X7247666Y-42241000D01*
X7314333Y-42274333D01*
X7581000Y-42274333D01*
X6514333Y-42607666D02*
X6914333Y-42607666D01*
X6714333Y-42607666D02*
X6714333Y-41907666D01*
X6781000Y-42007666D01*
X6847666Y-42074333D01*
X6914333Y-42107666D01*
X6247666Y-41974333D02*
X6214333Y-41941000D01*
X6147666Y-41907666D01*
X5981000Y-41907666D01*
X5914333Y-41941000D01*
X5881000Y-41974333D01*
X5847666Y-42041000D01*
X5847666Y-42107666D01*
X5881000Y-42207666D01*
X6281000Y-42607666D01*
X5847666Y-42607666D01*
%TO.C,R26*%
X18865000Y-61594166D02*
X19098333Y-61260833D01*
X19265000Y-61594166D02*
X19265000Y-60894166D01*
X18998333Y-60894166D01*
X18931666Y-60927500D01*
X18898333Y-60960833D01*
X18865000Y-61027500D01*
X18865000Y-61127500D01*
X18898333Y-61194166D01*
X18931666Y-61227500D01*
X18998333Y-61260833D01*
X19265000Y-61260833D01*
X18598333Y-60960833D02*
X18565000Y-60927500D01*
X18498333Y-60894166D01*
X18331666Y-60894166D01*
X18265000Y-60927500D01*
X18231666Y-60960833D01*
X18198333Y-61027500D01*
X18198333Y-61094166D01*
X18231666Y-61194166D01*
X18631666Y-61594166D01*
X18198333Y-61594166D01*
X17598333Y-60894166D02*
X17731666Y-60894166D01*
X17798333Y-60927500D01*
X17831666Y-60960833D01*
X17898333Y-61060833D01*
X17931666Y-61194166D01*
X17931666Y-61460833D01*
X17898333Y-61527500D01*
X17865000Y-61560833D01*
X17798333Y-61594166D01*
X17665000Y-61594166D01*
X17598333Y-61560833D01*
X17565000Y-61527500D01*
X17531666Y-61460833D01*
X17531666Y-61294166D01*
X17565000Y-61227500D01*
X17598333Y-61194166D01*
X17665000Y-61160833D01*
X17798333Y-61160833D01*
X17865000Y-61194166D01*
X17898333Y-61227500D01*
X17931666Y-61294166D01*
%TO.C,R22*%
X18865000Y-58419166D02*
X19098333Y-58085833D01*
X19265000Y-58419166D02*
X19265000Y-57719166D01*
X18998333Y-57719166D01*
X18931666Y-57752500D01*
X18898333Y-57785833D01*
X18865000Y-57852500D01*
X18865000Y-57952500D01*
X18898333Y-58019166D01*
X18931666Y-58052500D01*
X18998333Y-58085833D01*
X19265000Y-58085833D01*
X18598333Y-57785833D02*
X18565000Y-57752500D01*
X18498333Y-57719166D01*
X18331666Y-57719166D01*
X18265000Y-57752500D01*
X18231666Y-57785833D01*
X18198333Y-57852500D01*
X18198333Y-57919166D01*
X18231666Y-58019166D01*
X18631666Y-58419166D01*
X18198333Y-58419166D01*
X17931666Y-57785833D02*
X17898333Y-57752500D01*
X17831666Y-57719166D01*
X17665000Y-57719166D01*
X17598333Y-57752500D01*
X17565000Y-57785833D01*
X17531666Y-57852500D01*
X17531666Y-57919166D01*
X17565000Y-58019166D01*
X17965000Y-58419166D01*
X17531666Y-58419166D01*
%TO.C,R23*%
X18865000Y-60006666D02*
X19098333Y-59673333D01*
X19265000Y-60006666D02*
X19265000Y-59306666D01*
X18998333Y-59306666D01*
X18931666Y-59340000D01*
X18898333Y-59373333D01*
X18865000Y-59440000D01*
X18865000Y-59540000D01*
X18898333Y-59606666D01*
X18931666Y-59640000D01*
X18998333Y-59673333D01*
X19265000Y-59673333D01*
X18598333Y-59373333D02*
X18565000Y-59340000D01*
X18498333Y-59306666D01*
X18331666Y-59306666D01*
X18265000Y-59340000D01*
X18231666Y-59373333D01*
X18198333Y-59440000D01*
X18198333Y-59506666D01*
X18231666Y-59606666D01*
X18631666Y-60006666D01*
X18198333Y-60006666D01*
X17965000Y-59306666D02*
X17531666Y-59306666D01*
X17765000Y-59573333D01*
X17665000Y-59573333D01*
X17598333Y-59606666D01*
X17565000Y-59640000D01*
X17531666Y-59706666D01*
X17531666Y-59873333D01*
X17565000Y-59940000D01*
X17598333Y-59973333D01*
X17665000Y-60006666D01*
X17865000Y-60006666D01*
X17931666Y-59973333D01*
X17965000Y-59940000D01*
%TO.C,C10*%
X1656500Y-37270500D02*
X1689833Y-37303833D01*
X1789833Y-37337166D01*
X1856500Y-37337166D01*
X1956500Y-37303833D01*
X2023166Y-37237166D01*
X2056499Y-37170500D01*
X2089833Y-37037166D01*
X2089833Y-36937166D01*
X2056499Y-36803833D01*
X2023166Y-36737166D01*
X1956500Y-36670500D01*
X1856500Y-36637166D01*
X1789833Y-36637166D01*
X1689833Y-36670500D01*
X1656500Y-36703833D01*
X989833Y-37337166D02*
X1389833Y-37337166D01*
X1189833Y-37337166D02*
X1189833Y-36637166D01*
X1256500Y-36737166D01*
X1323166Y-36803833D01*
X1389833Y-36837166D01*
X556499Y-36637166D02*
X489833Y-36637166D01*
X423166Y-36670500D01*
X389833Y-36703833D01*
X356500Y-36770500D01*
X323166Y-36903833D01*
X323166Y-37070500D01*
X356500Y-37203833D01*
X389833Y-37270500D01*
X423166Y-37303833D01*
X489833Y-37337166D01*
X556499Y-37337166D01*
X623166Y-37303833D01*
X656499Y-37270500D01*
X689833Y-37203833D01*
X723166Y-37070500D01*
X723166Y-36903833D01*
X689833Y-36770500D01*
X656499Y-36703833D01*
X623166Y-36670500D01*
X556499Y-36637166D01*
%TO.C,C8*%
X1323166Y-33905000D02*
X1356500Y-33938333D01*
X1456500Y-33971666D01*
X1523166Y-33971666D01*
X1623166Y-33938333D01*
X1689833Y-33871666D01*
X1723166Y-33805000D01*
X1756500Y-33671666D01*
X1756500Y-33571666D01*
X1723166Y-33438333D01*
X1689833Y-33371666D01*
X1623166Y-33305000D01*
X1523166Y-33271666D01*
X1456500Y-33271666D01*
X1356500Y-33305000D01*
X1323166Y-33338333D01*
X923166Y-33571666D02*
X989833Y-33538333D01*
X1023166Y-33505000D01*
X1056500Y-33438333D01*
X1056500Y-33405000D01*
X1023166Y-33338333D01*
X989833Y-33305000D01*
X923166Y-33271666D01*
X789833Y-33271666D01*
X723166Y-33305000D01*
X689833Y-33338333D01*
X656500Y-33405000D01*
X656500Y-33438333D01*
X689833Y-33505000D01*
X723166Y-33538333D01*
X789833Y-33571666D01*
X923166Y-33571666D01*
X989833Y-33605000D01*
X1023166Y-33638333D01*
X1056500Y-33705000D01*
X1056500Y-33838333D01*
X1023166Y-33905000D01*
X989833Y-33938333D01*
X923166Y-33971666D01*
X789833Y-33971666D01*
X723166Y-33938333D01*
X689833Y-33905000D01*
X656500Y-33838333D01*
X656500Y-33705000D01*
X689833Y-33638333D01*
X723166Y-33605000D01*
X789833Y-33571666D01*
%TO.C,U2*%
X15201833Y-35430666D02*
X15201833Y-35997333D01*
X15168500Y-36064000D01*
X15135166Y-36097333D01*
X15068500Y-36130666D01*
X14935166Y-36130666D01*
X14868500Y-36097333D01*
X14835166Y-36064000D01*
X14801833Y-35997333D01*
X14801833Y-35430666D01*
X14501833Y-35497333D02*
X14468500Y-35464000D01*
X14401833Y-35430666D01*
X14235166Y-35430666D01*
X14168500Y-35464000D01*
X14135166Y-35497333D01*
X14101833Y-35564000D01*
X14101833Y-35630666D01*
X14135166Y-35730666D01*
X14535166Y-36130666D01*
X14101833Y-36130666D01*
%TO.C,C7*%
X4180666Y-31873000D02*
X4214000Y-31906333D01*
X4314000Y-31939666D01*
X4380666Y-31939666D01*
X4480666Y-31906333D01*
X4547333Y-31839666D01*
X4580666Y-31773000D01*
X4614000Y-31639666D01*
X4614000Y-31539666D01*
X4580666Y-31406333D01*
X4547333Y-31339666D01*
X4480666Y-31273000D01*
X4380666Y-31239666D01*
X4314000Y-31239666D01*
X4214000Y-31273000D01*
X4180666Y-31306333D01*
X3947333Y-31239666D02*
X3480666Y-31239666D01*
X3780666Y-31939666D01*
%TO.C,R16*%
X6393600Y-45909666D02*
X6626933Y-45576333D01*
X6793600Y-45909666D02*
X6793600Y-45209666D01*
X6526933Y-45209666D01*
X6460266Y-45243000D01*
X6426933Y-45276333D01*
X6393600Y-45343000D01*
X6393600Y-45443000D01*
X6426933Y-45509666D01*
X6460266Y-45543000D01*
X6526933Y-45576333D01*
X6793600Y-45576333D01*
X5726933Y-45909666D02*
X6126933Y-45909666D01*
X5926933Y-45909666D02*
X5926933Y-45209666D01*
X5993600Y-45309666D01*
X6060266Y-45376333D01*
X6126933Y-45409666D01*
X5126933Y-45209666D02*
X5260266Y-45209666D01*
X5326933Y-45243000D01*
X5360266Y-45276333D01*
X5426933Y-45376333D01*
X5460266Y-45509666D01*
X5460266Y-45776333D01*
X5426933Y-45843000D01*
X5393600Y-45876333D01*
X5326933Y-45909666D01*
X5193600Y-45909666D01*
X5126933Y-45876333D01*
X5093600Y-45843000D01*
X5060266Y-45776333D01*
X5060266Y-45609666D01*
X5093600Y-45543000D01*
X5126933Y-45509666D01*
X5193600Y-45476333D01*
X5326933Y-45476333D01*
X5393600Y-45509666D01*
X5426933Y-45543000D01*
X5460266Y-45609666D01*
%TO.C,R58*%
X5911000Y-101408666D02*
X6144333Y-101075333D01*
X6311000Y-101408666D02*
X6311000Y-100708666D01*
X6044333Y-100708666D01*
X5977666Y-100742000D01*
X5944333Y-100775333D01*
X5911000Y-100842000D01*
X5911000Y-100942000D01*
X5944333Y-101008666D01*
X5977666Y-101042000D01*
X6044333Y-101075333D01*
X6311000Y-101075333D01*
X5277666Y-100708666D02*
X5611000Y-100708666D01*
X5644333Y-101042000D01*
X5611000Y-101008666D01*
X5544333Y-100975333D01*
X5377666Y-100975333D01*
X5311000Y-101008666D01*
X5277666Y-101042000D01*
X5244333Y-101108666D01*
X5244333Y-101275333D01*
X5277666Y-101342000D01*
X5311000Y-101375333D01*
X5377666Y-101408666D01*
X5544333Y-101408666D01*
X5611000Y-101375333D01*
X5644333Y-101342000D01*
X4844333Y-101008666D02*
X4911000Y-100975333D01*
X4944333Y-100942000D01*
X4977666Y-100875333D01*
X4977666Y-100842000D01*
X4944333Y-100775333D01*
X4911000Y-100742000D01*
X4844333Y-100708666D01*
X4711000Y-100708666D01*
X4644333Y-100742000D01*
X4611000Y-100775333D01*
X4577666Y-100842000D01*
X4577666Y-100875333D01*
X4611000Y-100942000D01*
X4644333Y-100975333D01*
X4711000Y-101008666D01*
X4844333Y-101008666D01*
X4911000Y-101042000D01*
X4944333Y-101075333D01*
X4977666Y-101142000D01*
X4977666Y-101275333D01*
X4944333Y-101342000D01*
X4911000Y-101375333D01*
X4844333Y-101408666D01*
X4711000Y-101408666D01*
X4644333Y-101375333D01*
X4611000Y-101342000D01*
X4577666Y-101275333D01*
X4577666Y-101142000D01*
X4611000Y-101075333D01*
X4644333Y-101042000D01*
X4711000Y-101008666D01*
%TO.C,C11*%
X25215000Y-47113000D02*
X25248333Y-47146333D01*
X25348333Y-47179666D01*
X25415000Y-47179666D01*
X25515000Y-47146333D01*
X25581666Y-47079666D01*
X25615000Y-47013000D01*
X25648333Y-46879666D01*
X25648333Y-46779666D01*
X25615000Y-46646333D01*
X25581666Y-46579666D01*
X25515000Y-46513000D01*
X25415000Y-46479666D01*
X25348333Y-46479666D01*
X25248333Y-46513000D01*
X25215000Y-46546333D01*
X24548333Y-47179666D02*
X24948333Y-47179666D01*
X24748333Y-47179666D02*
X24748333Y-46479666D01*
X24815000Y-46579666D01*
X24881666Y-46646333D01*
X24948333Y-46679666D01*
X23881666Y-47179666D02*
X24281666Y-47179666D01*
X24081666Y-47179666D02*
X24081666Y-46479666D01*
X24148333Y-46579666D01*
X24215000Y-46646333D01*
X24281666Y-46679666D01*
%TO.C,C14*%
X16325000Y-53945500D02*
X16358333Y-53978833D01*
X16458333Y-54012166D01*
X16525000Y-54012166D01*
X16625000Y-53978833D01*
X16691666Y-53912166D01*
X16725000Y-53845500D01*
X16758333Y-53712166D01*
X16758333Y-53612166D01*
X16725000Y-53478833D01*
X16691666Y-53412166D01*
X16625000Y-53345500D01*
X16525000Y-53312166D01*
X16458333Y-53312166D01*
X16358333Y-53345500D01*
X16325000Y-53378833D01*
X15658333Y-54012166D02*
X16058333Y-54012166D01*
X15858333Y-54012166D02*
X15858333Y-53312166D01*
X15925000Y-53412166D01*
X15991666Y-53478833D01*
X16058333Y-53512166D01*
X15058333Y-53545500D02*
X15058333Y-54012166D01*
X15225000Y-53278833D02*
X15391666Y-53778833D01*
X14958333Y-53778833D01*
%TO.C,U4*%
X22758333Y-48257666D02*
X22758333Y-48824333D01*
X22725000Y-48891000D01*
X22691666Y-48924333D01*
X22625000Y-48957666D01*
X22491666Y-48957666D01*
X22425000Y-48924333D01*
X22391666Y-48891000D01*
X22358333Y-48824333D01*
X22358333Y-48257666D01*
X21725000Y-48491000D02*
X21725000Y-48957666D01*
X21891666Y-48224333D02*
X22058333Y-48724333D01*
X21625000Y-48724333D01*
%TO.C,R61*%
X25532500Y-113029166D02*
X25765833Y-112695833D01*
X25932500Y-113029166D02*
X25932500Y-112329166D01*
X25665833Y-112329166D01*
X25599166Y-112362500D01*
X25565833Y-112395833D01*
X25532500Y-112462500D01*
X25532500Y-112562500D01*
X25565833Y-112629166D01*
X25599166Y-112662500D01*
X25665833Y-112695833D01*
X25932500Y-112695833D01*
X24932500Y-112329166D02*
X25065833Y-112329166D01*
X25132500Y-112362500D01*
X25165833Y-112395833D01*
X25232500Y-112495833D01*
X25265833Y-112629166D01*
X25265833Y-112895833D01*
X25232500Y-112962500D01*
X25199166Y-112995833D01*
X25132500Y-113029166D01*
X24999166Y-113029166D01*
X24932500Y-112995833D01*
X24899166Y-112962500D01*
X24865833Y-112895833D01*
X24865833Y-112729166D01*
X24899166Y-112662500D01*
X24932500Y-112629166D01*
X24999166Y-112595833D01*
X25132500Y-112595833D01*
X25199166Y-112629166D01*
X25232500Y-112662500D01*
X25265833Y-112729166D01*
X24199166Y-113029166D02*
X24599166Y-113029166D01*
X24399166Y-113029166D02*
X24399166Y-112329166D01*
X24465833Y-112429166D01*
X24532500Y-112495833D01*
X24599166Y-112529166D01*
%TO.C,R62*%
X27818500Y-110425666D02*
X28051833Y-110092333D01*
X28218500Y-110425666D02*
X28218500Y-109725666D01*
X27951833Y-109725666D01*
X27885166Y-109759000D01*
X27851833Y-109792333D01*
X27818500Y-109859000D01*
X27818500Y-109959000D01*
X27851833Y-110025666D01*
X27885166Y-110059000D01*
X27951833Y-110092333D01*
X28218500Y-110092333D01*
X27218500Y-109725666D02*
X27351833Y-109725666D01*
X27418500Y-109759000D01*
X27451833Y-109792333D01*
X27518500Y-109892333D01*
X27551833Y-110025666D01*
X27551833Y-110292333D01*
X27518500Y-110359000D01*
X27485166Y-110392333D01*
X27418500Y-110425666D01*
X27285166Y-110425666D01*
X27218500Y-110392333D01*
X27185166Y-110359000D01*
X27151833Y-110292333D01*
X27151833Y-110125666D01*
X27185166Y-110059000D01*
X27218500Y-110025666D01*
X27285166Y-109992333D01*
X27418500Y-109992333D01*
X27485166Y-110025666D01*
X27518500Y-110059000D01*
X27551833Y-110125666D01*
X26885166Y-109792333D02*
X26851833Y-109759000D01*
X26785166Y-109725666D01*
X26618500Y-109725666D01*
X26551833Y-109759000D01*
X26518500Y-109792333D01*
X26485166Y-109859000D01*
X26485166Y-109925666D01*
X26518500Y-110025666D01*
X26918500Y-110425666D01*
X26485166Y-110425666D01*
%TO.C,R54*%
X10635400Y-99757666D02*
X10868733Y-99424333D01*
X11035400Y-99757666D02*
X11035400Y-99057666D01*
X10768733Y-99057666D01*
X10702066Y-99091000D01*
X10668733Y-99124333D01*
X10635400Y-99191000D01*
X10635400Y-99291000D01*
X10668733Y-99357666D01*
X10702066Y-99391000D01*
X10768733Y-99424333D01*
X11035400Y-99424333D01*
X10002066Y-99057666D02*
X10335400Y-99057666D01*
X10368733Y-99391000D01*
X10335400Y-99357666D01*
X10268733Y-99324333D01*
X10102066Y-99324333D01*
X10035400Y-99357666D01*
X10002066Y-99391000D01*
X9968733Y-99457666D01*
X9968733Y-99624333D01*
X10002066Y-99691000D01*
X10035400Y-99724333D01*
X10102066Y-99757666D01*
X10268733Y-99757666D01*
X10335400Y-99724333D01*
X10368733Y-99691000D01*
X9368733Y-99291000D02*
X9368733Y-99757666D01*
X9535400Y-99024333D02*
X9702066Y-99524333D01*
X9268733Y-99524333D01*
%TO.C,R43*%
X9035200Y-80504466D02*
X9268533Y-80171133D01*
X9435200Y-80504466D02*
X9435200Y-79804466D01*
X9168533Y-79804466D01*
X9101866Y-79837800D01*
X9068533Y-79871133D01*
X9035200Y-79937800D01*
X9035200Y-80037800D01*
X9068533Y-80104466D01*
X9101866Y-80137800D01*
X9168533Y-80171133D01*
X9435200Y-80171133D01*
X8435200Y-80037800D02*
X8435200Y-80504466D01*
X8601866Y-79771133D02*
X8768533Y-80271133D01*
X8335200Y-80271133D01*
X8135200Y-79804466D02*
X7701866Y-79804466D01*
X7935200Y-80071133D01*
X7835200Y-80071133D01*
X7768533Y-80104466D01*
X7735200Y-80137800D01*
X7701866Y-80204466D01*
X7701866Y-80371133D01*
X7735200Y-80437800D01*
X7768533Y-80471133D01*
X7835200Y-80504466D01*
X8035200Y-80504466D01*
X8101866Y-80471133D01*
X8135200Y-80437800D01*
%TO.C,R44*%
X9035200Y-82130066D02*
X9268533Y-81796733D01*
X9435200Y-82130066D02*
X9435200Y-81430066D01*
X9168533Y-81430066D01*
X9101866Y-81463400D01*
X9068533Y-81496733D01*
X9035200Y-81563400D01*
X9035200Y-81663400D01*
X9068533Y-81730066D01*
X9101866Y-81763400D01*
X9168533Y-81796733D01*
X9435200Y-81796733D01*
X8435200Y-81663400D02*
X8435200Y-82130066D01*
X8601866Y-81396733D02*
X8768533Y-81896733D01*
X8335200Y-81896733D01*
X7768533Y-81663400D02*
X7768533Y-82130066D01*
X7935200Y-81396733D02*
X8101866Y-81896733D01*
X7668533Y-81896733D01*
D12*
%TO.C,R7*%
X21001258Y-35853900D02*
X20526742Y-35853900D01*
X21001258Y-34808900D02*
X20526742Y-34808900D01*
%TO.C,U9*%
X3622400Y-90271600D02*
X3622400Y-88071600D01*
X6842400Y-90271600D02*
X6842400Y-93871600D01*
X3622400Y-90271600D02*
X3622400Y-92471600D01*
X6842400Y-90271600D02*
X6842400Y-88071600D01*
%TO.C,RV6*%
X3467200Y-81859400D02*
X3067200Y-81859400D01*
X1667200Y-80759400D02*
X1667200Y-77859400D01*
X1667200Y-77859400D02*
X2267200Y-77859400D01*
X5067200Y-82359400D02*
X4367200Y-82359400D01*
X4867200Y-77859400D02*
X4267200Y-77859400D01*
X5067200Y-81659400D02*
X5067200Y-82359400D01*
X4867200Y-80759400D02*
X4867200Y-77859400D01*
%TO.C,R1*%
X22521142Y-29097500D02*
X22995658Y-29097500D01*
X22521142Y-28052500D02*
X22995658Y-28052500D01*
%TO.C,R56*%
X15993342Y-99883700D02*
X16467858Y-99883700D01*
X15993342Y-100928700D02*
X16467858Y-100928700D01*
%TO.C,C25*%
X14656580Y-90231500D02*
X14375420Y-90231500D01*
X14656580Y-91251500D02*
X14375420Y-91251500D01*
%TO.C,C26*%
X13323080Y-93474000D02*
X13041920Y-93474000D01*
X13323080Y-92454000D02*
X13041920Y-92454000D01*
%TO.C,C29*%
X16117080Y-109027500D02*
X15835920Y-109027500D01*
X16117080Y-110047500D02*
X15835920Y-110047500D01*
%TO.C,C28*%
X24626080Y-101534500D02*
X24344920Y-101534500D01*
X24626080Y-102554500D02*
X24344920Y-102554500D01*
%TO.C,C1*%
X24570937Y-15841000D02*
X29026500Y-15841000D01*
X29026500Y-15841000D02*
X29026500Y-14141000D01*
X23506500Y-14776563D02*
X23506500Y-14141000D01*
X22641500Y-14766000D02*
X23266500Y-14766000D01*
X22954000Y-15078500D02*
X22954000Y-14453500D01*
X23506500Y-14776563D02*
X24570937Y-15841000D01*
X29026500Y-10321000D02*
X29026500Y-12021000D01*
X24570937Y-10321000D02*
X29026500Y-10321000D01*
X23506500Y-11385437D02*
X24570937Y-10321000D01*
X23506500Y-11385437D02*
X23506500Y-12021000D01*
%TO.C,C2*%
X13555000Y-12717000D02*
X13555000Y-13342000D01*
X16935563Y-13582000D02*
X18000000Y-14646437D01*
X12480000Y-14646437D02*
X12480000Y-19102000D01*
X13242500Y-13029500D02*
X13867500Y-13029500D01*
X12480000Y-19102000D02*
X14180000Y-19102000D01*
X13544437Y-13582000D02*
X14180000Y-13582000D01*
X13544437Y-13582000D02*
X12480000Y-14646437D01*
X18000000Y-14646437D02*
X18000000Y-19102000D01*
X18000000Y-19102000D02*
X16300000Y-19102000D01*
X16935563Y-13582000D02*
X16300000Y-13582000D01*
%TO.C,C3*%
X20651080Y-19810000D02*
X20369920Y-19810000D01*
X20651080Y-20830000D02*
X20369920Y-20830000D01*
%TO.C,C4*%
X16142580Y-21655500D02*
X15861420Y-21655500D01*
X16142580Y-20635500D02*
X15861420Y-20635500D01*
%TO.C,FB1*%
X19168242Y-12968500D02*
X19642758Y-12968500D01*
X19168242Y-11923500D02*
X19642758Y-11923500D01*
%TO.C,FB2*%
X11675242Y-20623000D02*
X12149758Y-20623000D01*
X11675242Y-21668000D02*
X12149758Y-21668000D01*
%TO.C,J10*%
X8076000Y-29437000D02*
X8076000Y-11457000D01*
X266000Y-30737000D02*
X9386000Y-30737000D01*
X1576000Y-18397000D02*
X1576000Y-18397000D01*
X9386000Y-30737000D02*
X9386000Y-10157000D01*
X9386000Y-10157000D02*
X266000Y-10157000D01*
X1576000Y-11457000D02*
X1576000Y-18397000D01*
X266000Y-10157000D02*
X266000Y-30737000D01*
X1576000Y-18397000D02*
X266000Y-18397000D01*
X1576000Y-29437000D02*
X8076000Y-29437000D01*
X8076000Y-11457000D02*
X1576000Y-11457000D01*
X1576000Y-22497000D02*
X1576000Y-29437000D01*
X266000Y-22497000D02*
X1576000Y-22497000D01*
X-1124000Y-25027000D02*
X-124000Y-25527000D01*
X-1124000Y-26027000D02*
X-1124000Y-25027000D01*
X-124000Y-25527000D02*
X-1124000Y-26027000D01*
%TO.C,R48*%
X14304242Y-88568000D02*
X14778758Y-88568000D01*
X14304242Y-89613000D02*
X14778758Y-89613000D01*
%TO.C,C27*%
X2057980Y-93626400D02*
X1776820Y-93626400D01*
X2057980Y-92606400D02*
X1776820Y-92606400D01*
%TO.C,C24*%
X7389400Y-87819520D02*
X7389400Y-88100680D01*
X8409400Y-87819520D02*
X8409400Y-88100680D01*
%TO.C,C19*%
X15378920Y-65788000D02*
X15660080Y-65788000D01*
X15378920Y-64768000D02*
X15660080Y-64768000D01*
%TO.C,C21*%
X23481420Y-75664600D02*
X23762580Y-75664600D01*
X23481420Y-76684600D02*
X23762580Y-76684600D01*
%TO.C,C17*%
X4204580Y-59243500D02*
X3923420Y-59243500D01*
X4204580Y-60263500D02*
X3923420Y-60263500D01*
%TO.C,C12*%
X19163420Y-46353000D02*
X19444580Y-46353000D01*
X19163420Y-47373000D02*
X19444580Y-47373000D01*
%TO.C,C16*%
X2093500Y-54788580D02*
X2093500Y-54507420D01*
X3113500Y-54788580D02*
X3113500Y-54507420D01*
%TO.C,C5*%
X24092780Y-21918200D02*
X23811620Y-21918200D01*
X24092780Y-22938200D02*
X23811620Y-22938200D01*
%TO.C,C20*%
X3050000Y-66726580D02*
X3050000Y-66445420D01*
X2030000Y-66726580D02*
X2030000Y-66445420D01*
%TO.C,C15*%
X11936000Y-54306080D02*
X11936000Y-54024920D01*
X12956000Y-54306080D02*
X12956000Y-54024920D01*
%TO.C,C6*%
X19890200Y-25208620D02*
X19890200Y-25489780D01*
X18870200Y-25208620D02*
X18870200Y-25489780D01*
%TO.C,C18*%
X3050000Y-63257920D02*
X3050000Y-63539080D01*
X2030000Y-63257920D02*
X2030000Y-63539080D01*
%TO.C,C22*%
X17387080Y-77264800D02*
X17105920Y-77264800D01*
X17387080Y-78284800D02*
X17105920Y-78284800D01*
%TO.C,C23*%
X14288280Y-82548000D02*
X14007120Y-82548000D01*
X14288280Y-83568000D02*
X14007120Y-83568000D01*
%TO.C,D7*%
X28184200Y-18195000D02*
X28184200Y-18351000D01*
X28184200Y-20511000D02*
X28184200Y-20667000D01*
X24951865Y-20509608D02*
G75*
G03*
X28184200Y-20666516I1672335J1078608D01*
G01*
X27665161Y-18351000D02*
G75*
G03*
X25583070Y-18351163I-1040961J-1080000D01*
G01*
X28184200Y-18195484D02*
G75*
G03*
X24951865Y-18352392I-1560000J-1235516D01*
G01*
X25583070Y-20510837D02*
G75*
G03*
X27665161Y-20511000I1041130J1079837D01*
G01*
%TO.C,Q2*%
X18705600Y-73109600D02*
X20105600Y-73109600D01*
X20105600Y-75429600D02*
X18205600Y-75429600D01*
%TO.C,Q1*%
X22783800Y-34224400D02*
X23433800Y-34224400D01*
X22783800Y-34224400D02*
X21108800Y-34224400D01*
X22783800Y-31104400D02*
X23433800Y-31104400D01*
X22783800Y-31104400D02*
X22133800Y-31104400D01*
%TO.C,R55*%
X3166242Y-99963500D02*
X3640758Y-99963500D01*
X3166242Y-98918500D02*
X3640758Y-98918500D01*
%TO.C,R57*%
X3166242Y-102220500D02*
X3640758Y-102220500D01*
X3166242Y-103265500D02*
X3640758Y-103265500D01*
%TO.C,R45*%
X5223742Y-84037700D02*
X5698258Y-84037700D01*
X5223742Y-82992700D02*
X5698258Y-82992700D01*
%TO.C,R47*%
X5236942Y-84745300D02*
X5711458Y-84745300D01*
X5236942Y-85790300D02*
X5711458Y-85790300D01*
%TO.C,R46*%
X24062458Y-85100900D02*
X23587942Y-85100900D01*
X24062458Y-86145900D02*
X23587942Y-86145900D01*
%TO.C,R49*%
X23587942Y-92314500D02*
X24062458Y-92314500D01*
X23587942Y-93359500D02*
X24062458Y-93359500D01*
%TO.C,R59*%
X29034000Y-108123758D02*
X29034000Y-107649242D01*
X27989000Y-108123758D02*
X27989000Y-107649242D01*
%TO.C,R63*%
X26084000Y-114824742D02*
X26084000Y-115299258D01*
X27129000Y-114824742D02*
X27129000Y-115299258D01*
%TO.C,R50*%
X14278742Y-95963000D02*
X14753258Y-95963000D01*
X14278742Y-94918000D02*
X14753258Y-94918000D01*
%TO.C,R60*%
X10913242Y-108091500D02*
X11387758Y-108091500D01*
X10913242Y-107046500D02*
X11387758Y-107046500D01*
%TO.C,R64*%
X10913242Y-118251500D02*
X11387758Y-118251500D01*
X10913242Y-117206500D02*
X11387758Y-117206500D01*
%TO.C,R35*%
X9605242Y-70026000D02*
X10079758Y-70026000D01*
X9605242Y-71071000D02*
X10079758Y-71071000D01*
%TO.C,R30*%
X21522458Y-65787800D02*
X21047942Y-65787800D01*
X21522458Y-64742800D02*
X21047942Y-64742800D01*
%TO.C,R41*%
X9605242Y-75808100D02*
X10079758Y-75808100D01*
X9605242Y-74763100D02*
X10079758Y-74763100D01*
%TO.C,R25*%
X4301258Y-57643500D02*
X3826742Y-57643500D01*
X4301258Y-58688500D02*
X3826742Y-58688500D01*
%TO.C,R20*%
X14075742Y-51640000D02*
X14550258Y-51640000D01*
X14075742Y-50595000D02*
X14550258Y-50595000D01*
%TO.C,R18*%
X14562758Y-50052500D02*
X14088242Y-50052500D01*
X14562758Y-49007500D02*
X14088242Y-49007500D01*
%TO.C,R40*%
X12716742Y-74763100D02*
X13191258Y-74763100D01*
X12716742Y-75808100D02*
X13191258Y-75808100D01*
%TO.C,R39*%
X9605242Y-73201000D02*
X10079758Y-73201000D01*
X9605242Y-74246000D02*
X10079758Y-74246000D01*
%TO.C,R31*%
X21522458Y-66317600D02*
X21047942Y-66317600D01*
X21522458Y-67362600D02*
X21047942Y-67362600D01*
%TO.C,R38*%
X12716742Y-73188300D02*
X13191258Y-73188300D01*
X12716742Y-74233300D02*
X13191258Y-74233300D01*
%TO.C,R34*%
X9605242Y-71613500D02*
X10079758Y-71613500D01*
X9605242Y-72658500D02*
X10079758Y-72658500D01*
%TO.C,R33*%
X10079758Y-69483500D02*
X9605242Y-69483500D01*
X10079758Y-68438500D02*
X9605242Y-68438500D01*
%TO.C,R36*%
X23859258Y-73522100D02*
X23384742Y-73522100D01*
X23859258Y-72477100D02*
X23384742Y-72477100D01*
%TO.C,R42*%
X23384742Y-77252300D02*
X23859258Y-77252300D01*
X23384742Y-78297300D02*
X23859258Y-78297300D01*
%TO.C,R32*%
X15282242Y-66343000D02*
X15756758Y-66343000D01*
X15282242Y-67388000D02*
X15756758Y-67388000D01*
%TO.C,R37*%
X23859258Y-75096900D02*
X23384742Y-75096900D01*
X23859258Y-74051900D02*
X23384742Y-74051900D01*
%TO.C,R28*%
X12302258Y-59231000D02*
X11827742Y-59231000D01*
X12302258Y-60276000D02*
X11827742Y-60276000D01*
%TO.C,R2*%
X16315458Y-27802100D02*
X15840942Y-27802100D01*
X16315458Y-26757100D02*
X15840942Y-26757100D01*
%TO.C,R29*%
X8716242Y-59231000D02*
X9190758Y-59231000D01*
X8716242Y-60276000D02*
X9190758Y-60276000D01*
%TO.C,R24*%
X9190758Y-58688500D02*
X8716242Y-58688500D01*
X9190758Y-57643500D02*
X8716242Y-57643500D01*
%TO.C,R17*%
X14562758Y-47420000D02*
X14088242Y-47420000D01*
X14562758Y-48465000D02*
X14088242Y-48465000D01*
%TO.C,R10*%
X22718500Y-40572458D02*
X22718500Y-40097942D01*
X23763500Y-40572458D02*
X23763500Y-40097942D01*
%TO.C,R6*%
X15883758Y-34177500D02*
X15409242Y-34177500D01*
X15883758Y-33132500D02*
X15409242Y-33132500D01*
%TO.C,R9*%
X25363700Y-40097942D02*
X25363700Y-40572458D01*
X24318700Y-40097942D02*
X24318700Y-40572458D01*
%TO.C,R27*%
X15218742Y-61326500D02*
X15693258Y-61326500D01*
X15218742Y-62371500D02*
X15693258Y-62371500D01*
%TO.C,R3*%
X10837242Y-28907000D02*
X11311758Y-28907000D01*
X10837242Y-27862000D02*
X11311758Y-27862000D01*
%TO.C,R4*%
X10837242Y-29449500D02*
X11311758Y-29449500D01*
X10837242Y-30494500D02*
X11311758Y-30494500D01*
%TO.C,R5*%
X9736758Y-31100500D02*
X9262242Y-31100500D01*
X9736758Y-32145500D02*
X9262242Y-32145500D01*
%TO.C,R14*%
X22114742Y-45798000D02*
X22589258Y-45798000D01*
X22114742Y-44753000D02*
X22589258Y-44753000D01*
%TO.C,R15*%
X19541258Y-44753000D02*
X19066742Y-44753000D01*
X19541258Y-45798000D02*
X19066742Y-45798000D01*
%TO.C,RV7*%
X25471200Y-79353000D02*
X26171200Y-79353000D01*
X24571200Y-82753000D02*
X21671200Y-82753000D01*
X25671200Y-80953000D02*
X25671200Y-81353000D01*
X24571200Y-79553000D02*
X21671200Y-79553000D01*
X21671200Y-79553000D02*
X21671200Y-80153000D01*
X21671200Y-82753000D02*
X21671200Y-82153000D01*
X26171200Y-79353000D02*
X26171200Y-80053000D01*
%TO.C,U8*%
X21780500Y-91827500D02*
X19580500Y-91827500D01*
X21780500Y-86607500D02*
X25380500Y-86607500D01*
X21780500Y-91827500D02*
X23980500Y-91827500D01*
X21780500Y-86607500D02*
X19580500Y-86607500D01*
%TO.C,U1*%
X24053800Y-26629000D02*
X21853800Y-26629000D01*
X24053800Y-23409000D02*
X27653800Y-23409000D01*
X24053800Y-23409000D02*
X21853800Y-23409000D01*
X24053800Y-26629000D02*
X26253800Y-26629000D01*
%TO.C,U7*%
X16611600Y-78755600D02*
X20211600Y-78755600D01*
X16611600Y-78755600D02*
X14411600Y-78755600D01*
X16611600Y-81975600D02*
X14411600Y-81975600D01*
X16611600Y-81975600D02*
X18811600Y-81975600D01*
%TO.C,U6*%
X13759500Y-64325500D02*
X13759500Y-62375500D01*
X3639500Y-64325500D02*
X3639500Y-66275500D01*
X3639500Y-64325500D02*
X3639500Y-62375500D01*
X13759500Y-64325500D02*
X13759500Y-67775500D01*
%TO.C,U3*%
X11877000Y-43795000D02*
X11227000Y-43795000D01*
X11877000Y-43795000D02*
X12527000Y-43795000D01*
X11877000Y-46915000D02*
X12527000Y-46915000D01*
X11877000Y-46915000D02*
X10202000Y-46915000D01*
%TO.C,R21*%
X20590742Y-55992500D02*
X21065258Y-55992500D01*
X20590742Y-57037500D02*
X21065258Y-57037500D01*
%TO.C,R19*%
X11451258Y-47420000D02*
X10976742Y-47420000D01*
X11451258Y-48465000D02*
X10976742Y-48465000D01*
%TO.C,U10*%
X21780500Y-112147500D02*
X23980500Y-112147500D01*
X21780500Y-112147500D02*
X19580500Y-112147500D01*
X21780500Y-106927500D02*
X19580500Y-106927500D01*
X21780500Y-106927500D02*
X25380500Y-106927500D01*
%TO.C,U5*%
X7683500Y-51873000D02*
X5483500Y-51873000D01*
X7683500Y-51873000D02*
X11283500Y-51873000D01*
X7683500Y-57093000D02*
X5483500Y-57093000D01*
X7683500Y-57093000D02*
X9883500Y-57093000D01*
%TO.C,C13*%
X6592080Y-48452500D02*
X6310920Y-48452500D01*
X6592080Y-47432500D02*
X6310920Y-47432500D01*
%TO.C,C9*%
X15505920Y-36510500D02*
X15787080Y-36510500D01*
X15505920Y-37530500D02*
X15787080Y-37530500D01*
%TO.C,R51*%
X5596658Y-95975700D02*
X5122142Y-95975700D01*
X5596658Y-94930700D02*
X5122142Y-94930700D01*
%TO.C,R53*%
X24722758Y-97712000D02*
X24248242Y-97712000D01*
X24722758Y-98757000D02*
X24248242Y-98757000D01*
%TO.C,R52*%
X24722758Y-99299500D02*
X24248242Y-99299500D01*
X24722758Y-100344500D02*
X24248242Y-100344500D01*
%TO.C,RV8*%
X21256500Y-97650500D02*
X18356500Y-97650500D01*
X21256500Y-100850500D02*
X18356500Y-100850500D01*
X18356500Y-100850500D02*
X18356500Y-100250500D01*
X22156500Y-97450500D02*
X22856500Y-97450500D01*
X22356500Y-99050500D02*
X22356500Y-99450500D01*
X22856500Y-97450500D02*
X22856500Y-98150500D01*
X18356500Y-97650500D02*
X18356500Y-98250500D01*
%TO.C,R11*%
X9419258Y-41226000D02*
X8944742Y-41226000D01*
X9419258Y-40181000D02*
X8944742Y-40181000D01*
%TO.C,R8*%
X15409242Y-39130500D02*
X15883758Y-39130500D01*
X15409242Y-38085500D02*
X15883758Y-38085500D01*
%TO.C,R13*%
X8119342Y-44528000D02*
X8593858Y-44528000D01*
X8119342Y-43483000D02*
X8593858Y-43483000D01*
%TO.C,R12*%
X8944742Y-42813500D02*
X9419258Y-42813500D01*
X8944742Y-41768500D02*
X9419258Y-41768500D01*
%TO.C,R26*%
X20590742Y-60755000D02*
X21065258Y-60755000D01*
X20590742Y-61800000D02*
X21065258Y-61800000D01*
%TO.C,R22*%
X21065258Y-58625000D02*
X20590742Y-58625000D01*
X21065258Y-57580000D02*
X20590742Y-57580000D01*
%TO.C,R23*%
X20590742Y-59167500D02*
X21065258Y-59167500D01*
X20590742Y-60212500D02*
X21065258Y-60212500D01*
%TO.C,C10*%
X2284000Y-37948580D02*
X2284000Y-37667420D01*
X3304000Y-37948580D02*
X3304000Y-37667420D01*
%TO.C,C8*%
X3304000Y-34301920D02*
X3304000Y-34583080D01*
X2284000Y-34301920D02*
X2284000Y-34583080D01*
%TO.C,U2*%
X3766500Y-36131500D02*
X3766500Y-34181500D01*
X13886500Y-36131500D02*
X13886500Y-39581500D01*
X13886500Y-36131500D02*
X13886500Y-34181500D01*
X3766500Y-36131500D02*
X3766500Y-38081500D01*
%TO.C,C7*%
X6528580Y-31113000D02*
X6247420Y-31113000D01*
X6528580Y-32133000D02*
X6247420Y-32133000D01*
%TO.C,R16*%
X8593858Y-45070500D02*
X8119342Y-45070500D01*
X8593858Y-46115500D02*
X8119342Y-46115500D01*
%TO.C,R58*%
X3166242Y-101614500D02*
X3640758Y-101614500D01*
X3166242Y-100569500D02*
X3640758Y-100569500D01*
%TO.C,C11*%
X22492580Y-47373000D02*
X22211420Y-47373000D01*
X22492580Y-46353000D02*
X22211420Y-46353000D01*
%TO.C,C14*%
X18036000Y-53861580D02*
X18036000Y-53580420D01*
X17016000Y-53861580D02*
X17016000Y-53580420D01*
%TO.C,U4*%
X18519500Y-51625500D02*
X18519500Y-53825500D01*
X18519500Y-51625500D02*
X18519500Y-48025500D01*
X21739500Y-51625500D02*
X21739500Y-49425500D01*
X21739500Y-51625500D02*
X21739500Y-53825500D01*
%TO.C,R61*%
X27605758Y-113235000D02*
X27131242Y-113235000D01*
X27605758Y-112190000D02*
X27131242Y-112190000D01*
%TO.C,R62*%
X27605758Y-110602500D02*
X27131242Y-110602500D01*
X27605758Y-111647500D02*
X27131242Y-111647500D01*
%TO.C,R54*%
X8048258Y-99963500D02*
X7573742Y-99963500D01*
X8048258Y-98918500D02*
X7573742Y-98918500D01*
%TO.C,R43*%
X10684742Y-80710300D02*
X11159258Y-80710300D01*
X10684742Y-79665300D02*
X11159258Y-79665300D01*
%TO.C,R44*%
X10684742Y-82335900D02*
X11159258Y-82335900D01*
X10684742Y-81290900D02*
X11159258Y-81290900D01*
%TD*%
%LPC*%
D11*
X28366666Y-73794600D02*
X28366666Y-74194600D01*
X29066666Y-73994600D02*
X28366666Y-73994600D01*
X29066666Y-74827933D02*
X28733333Y-74594600D01*
X29066666Y-74427933D02*
X28366666Y-74427933D01*
X28366666Y-74694600D01*
X28400000Y-74761266D01*
X28433333Y-74794600D01*
X28500000Y-74827933D01*
X28600000Y-74827933D01*
X28666666Y-74794600D01*
X28700000Y-74761266D01*
X28733333Y-74694600D01*
X28733333Y-74427933D01*
X28866666Y-75094600D02*
X28866666Y-75427933D01*
X29066666Y-75027933D02*
X28366666Y-75261266D01*
X29066666Y-75494600D01*
X29066666Y-75727933D02*
X28366666Y-75727933D01*
X29066666Y-76127933D01*
X28366666Y-76127933D01*
X29033333Y-76427933D02*
X29066666Y-76527933D01*
X29066666Y-76694600D01*
X29033333Y-76761266D01*
X29000000Y-76794600D01*
X28933333Y-76827933D01*
X28866666Y-76827933D01*
X28800000Y-76794600D01*
X28766666Y-76761266D01*
X28733333Y-76694600D01*
X28700000Y-76561266D01*
X28666666Y-76494600D01*
X28633333Y-76461266D01*
X28566666Y-76427933D01*
X28500000Y-76427933D01*
X28433333Y-76461266D01*
X28400000Y-76494600D01*
X28366666Y-76561266D01*
X28366666Y-76727933D01*
X28400000Y-76827933D01*
X29066666Y-78061266D02*
X28733333Y-77827933D01*
X29066666Y-77661266D02*
X28366666Y-77661266D01*
X28366666Y-77927933D01*
X28400000Y-77994600D01*
X28433333Y-78027933D01*
X28500000Y-78061266D01*
X28600000Y-78061266D01*
X28666666Y-78027933D01*
X28700000Y-77994600D01*
X28733333Y-77927933D01*
X28733333Y-77661266D01*
X29066666Y-78361266D02*
X28366666Y-78361266D01*
X28400000Y-79061266D02*
X28366666Y-78994600D01*
X28366666Y-78894600D01*
X28400000Y-78794600D01*
X28466666Y-78727933D01*
X28533333Y-78694600D01*
X28666666Y-78661266D01*
X28766666Y-78661266D01*
X28900000Y-78694600D01*
X28966666Y-78727933D01*
X29033333Y-78794600D01*
X29066666Y-78894600D01*
X29066666Y-78961266D01*
X29033333Y-79061266D01*
X29000000Y-79094600D01*
X28766666Y-79094600D01*
X28766666Y-78961266D01*
X29066666Y-79394600D02*
X28366666Y-79394600D01*
X28700000Y-79394600D02*
X28700000Y-79794600D01*
X29066666Y-79794600D02*
X28366666Y-79794600D01*
X28366666Y-80027933D02*
X28366666Y-80427933D01*
X29066666Y-80227933D02*
X28366666Y-80227933D01*
X29033333Y-80627933D02*
X29066666Y-80727933D01*
X29066666Y-80894600D01*
X29033333Y-80961266D01*
X29000000Y-80994600D01*
X28933333Y-81027933D01*
X28866666Y-81027933D01*
X28800000Y-80994600D01*
X28766666Y-80961266D01*
X28733333Y-80894600D01*
X28700000Y-80761266D01*
X28666666Y-80694600D01*
X28633333Y-80661266D01*
X28566666Y-80627933D01*
X28500000Y-80627933D01*
X28433333Y-80661266D01*
X28400000Y-80694600D01*
X28366666Y-80761266D01*
X28366666Y-80927933D01*
X28400000Y-81027933D01*
D13*
%TO.C,R7*%
X21589000Y-35331400D03*
X19939000Y-35331400D03*
%TD*%
D14*
%TO.C,U9*%
X6207400Y-93134100D03*
X5557400Y-93134100D03*
X4907400Y-93134100D03*
X4257400Y-93134100D03*
X4257400Y-87409100D03*
X4907400Y-87409100D03*
X5557400Y-87409100D03*
X6207400Y-87409100D03*
%TD*%
D15*
%TO.C,RV6*%
X4267200Y-81559400D03*
D16*
X3267200Y-78309400D03*
D15*
X2267200Y-81559400D03*
%TD*%
D17*
%TO.C,R1*%
X23583400Y-28575000D03*
X21933400Y-28575000D03*
%TD*%
%TO.C,R56*%
X15405600Y-100406200D03*
X17055600Y-100406200D03*
%TD*%
D18*
%TO.C,D3*%
X13970000Y-87189000D03*
D19*
X16510000Y-87189000D03*
%TD*%
D20*
%TO.C,J4*%
X17640000Y-84540000D03*
X20740000Y-84540000D03*
X29040000Y-84540000D03*
%TD*%
%TO.C,J8*%
X12830000Y-115080000D03*
X9730000Y-115080000D03*
X1430000Y-115080000D03*
%TD*%
D18*
%TO.C,D4*%
X13970000Y-97369000D03*
D19*
X16510000Y-97369000D03*
%TD*%
D18*
%TO.C,D5*%
X13970000Y-107549000D03*
D19*
X16510000Y-107549000D03*
%TD*%
D18*
%TO.C,D6*%
X13970000Y-117729000D03*
D19*
X16510000Y-117729000D03*
%TD*%
D21*
%TO.C,D1*%
X15240000Y-29210000D03*
D19*
X15240000Y-31750000D03*
%TD*%
D20*
%TO.C,J6*%
X12830000Y-104900000D03*
X9730000Y-104900000D03*
X1430000Y-104900000D03*
%TD*%
%TO.C,J5*%
X17640000Y-94720000D03*
X20740000Y-94720000D03*
X29040000Y-94720000D03*
%TD*%
%TO.C,J7*%
X17640000Y-104900000D03*
X20740000Y-104900000D03*
X29040000Y-104900000D03*
%TD*%
%TO.C,J9*%
X17640000Y-115080000D03*
X20740000Y-115080000D03*
X29040000Y-115080000D03*
%TD*%
%TO.C,J1*%
X17640000Y-42360000D03*
X20740000Y-42360000D03*
X29040000Y-42360000D03*
%TD*%
%TO.C,J3*%
X17640000Y-70390000D03*
X20740000Y-70390000D03*
X29040000Y-70390000D03*
%TD*%
%TO.C,J2*%
X24120000Y-50370000D03*
X24120000Y-53470000D03*
X24120000Y-61770000D03*
%TD*%
D22*
%TO.C,RV5*%
X1550000Y-90460000D03*
X11150000Y-90460000D03*
D23*
X3850000Y-97460000D03*
D19*
X6350000Y-97460000D03*
X8850000Y-97460000D03*
%TD*%
D22*
%TO.C,RV4*%
X4090000Y-70390400D03*
X13690000Y-70390400D03*
D23*
X6390000Y-77890400D03*
D19*
X8890000Y-77890400D03*
X11390000Y-77890400D03*
%TD*%
D22*
%TO.C,RV1*%
X20040000Y-15559800D03*
X10440000Y-15559800D03*
D23*
X12740000Y-23059800D03*
D19*
X15240000Y-23059800D03*
X17740000Y-23059800D03*
%TD*%
D22*
%TO.C,RV2*%
X28904000Y-30480000D03*
X19304000Y-30480000D03*
D23*
X21604000Y-37480000D03*
D19*
X24104000Y-37480000D03*
X26604000Y-37480000D03*
%TD*%
D22*
%TO.C,RV3*%
X4090000Y-42360000D03*
X13690000Y-42360000D03*
D23*
X6390000Y-49860000D03*
D19*
X8890000Y-49860000D03*
X11390000Y-49860000D03*
%TD*%
D21*
%TO.C,D2*%
X15240000Y-55575200D03*
D19*
X15240000Y-58115200D03*
%TD*%
D24*
%TO.C,C25*%
X15291000Y-90741500D03*
X13741000Y-90741500D03*
%TD*%
%TO.C,C26*%
X13957500Y-92964000D03*
X12407500Y-92964000D03*
%TD*%
%TO.C,C29*%
X16751500Y-109537500D03*
X15201500Y-109537500D03*
%TD*%
%TO.C,C28*%
X25260500Y-102044500D03*
X23710500Y-102044500D03*
%TD*%
D25*
%TO.C,C1*%
X24066500Y-13081000D03*
X28466500Y-13081000D03*
%TD*%
D26*
%TO.C,C2*%
X15240000Y-14142000D03*
X15240000Y-18542000D03*
%TD*%
D24*
%TO.C,C3*%
X21285500Y-20320000D03*
X19735500Y-20320000D03*
%TD*%
%TO.C,C4*%
X16777000Y-21145500D03*
X15227000Y-21145500D03*
%TD*%
D17*
%TO.C,FB1*%
X18580500Y-12446000D03*
X20230500Y-12446000D03*
%TD*%
%TO.C,FB2*%
X11087500Y-21145500D03*
X12737500Y-21145500D03*
%TD*%
D27*
%TO.C,J10*%
X3556000Y-25527000D03*
D28*
X6096000Y-25527000D03*
X3556000Y-22987000D03*
X6096000Y-22987000D03*
X3556000Y-20447000D03*
X6096000Y-20447000D03*
X3556000Y-17907000D03*
X6096000Y-17907000D03*
X3556000Y-15367000D03*
X6096000Y-15367000D03*
%TD*%
D17*
%TO.C,R48*%
X13716500Y-89090500D03*
X15366500Y-89090500D03*
%TD*%
D24*
%TO.C,C27*%
X2692400Y-93116400D03*
X1142400Y-93116400D03*
%TD*%
D29*
%TO.C,C24*%
X7899400Y-87185100D03*
X7899400Y-88735100D03*
%TD*%
D30*
%TO.C,C19*%
X16294500Y-65278000D03*
X14744500Y-65278000D03*
%TD*%
%TO.C,C21*%
X24397000Y-76174600D03*
X22847000Y-76174600D03*
%TD*%
D24*
%TO.C,C17*%
X3289000Y-59753500D03*
X4839000Y-59753500D03*
%TD*%
D30*
%TO.C,C12*%
X18529000Y-46863000D03*
X20079000Y-46863000D03*
%TD*%
D31*
%TO.C,C16*%
X2603500Y-53873000D03*
X2603500Y-55423000D03*
%TD*%
D24*
%TO.C,C5*%
X23177200Y-22428200D03*
X24727200Y-22428200D03*
%TD*%
D31*
%TO.C,C20*%
X2540000Y-65811000D03*
X2540000Y-67361000D03*
%TD*%
%TO.C,C15*%
X12446000Y-53390500D03*
X12446000Y-54940500D03*
%TD*%
D29*
%TO.C,C6*%
X19380200Y-26124200D03*
X19380200Y-24574200D03*
%TD*%
%TO.C,C18*%
X2540000Y-64173500D03*
X2540000Y-62623500D03*
%TD*%
D24*
%TO.C,C22*%
X16471500Y-77774800D03*
X18021500Y-77774800D03*
%TD*%
%TO.C,C23*%
X13372700Y-83058000D03*
X14922700Y-83058000D03*
%TD*%
D23*
%TO.C,D7*%
X27894200Y-19431000D03*
D19*
X25354200Y-19431000D03*
%TD*%
D32*
%TO.C,Q2*%
X18455600Y-74919600D03*
X18455600Y-74269600D03*
X18455600Y-73619600D03*
X20355600Y-73619600D03*
X20355600Y-74269600D03*
X20355600Y-74919600D03*
%TD*%
D33*
%TO.C,Q1*%
X23721300Y-32664400D03*
X21846300Y-31714400D03*
X21846300Y-33614400D03*
%TD*%
D17*
%TO.C,R55*%
X2578500Y-99441000D03*
X4228500Y-99441000D03*
%TD*%
%TO.C,R57*%
X2578500Y-102743000D03*
X4228500Y-102743000D03*
%TD*%
%TO.C,R45*%
X4636000Y-83515200D03*
X6286000Y-83515200D03*
%TD*%
%TO.C,R47*%
X4649200Y-85267800D03*
X6299200Y-85267800D03*
%TD*%
D13*
%TO.C,R46*%
X24650200Y-85623400D03*
X23000200Y-85623400D03*
%TD*%
D17*
%TO.C,R49*%
X23000200Y-92837000D03*
X24650200Y-92837000D03*
%TD*%
D34*
%TO.C,R59*%
X28511500Y-108711500D03*
X28511500Y-107061500D03*
%TD*%
D35*
%TO.C,R63*%
X26606500Y-114237000D03*
X26606500Y-115887000D03*
%TD*%
D17*
%TO.C,R50*%
X13691000Y-95440500D03*
X15341000Y-95440500D03*
%TD*%
%TO.C,R60*%
X10325500Y-107569000D03*
X11975500Y-107569000D03*
%TD*%
%TO.C,R64*%
X10325500Y-117729000D03*
X11975500Y-117729000D03*
%TD*%
%TO.C,R35*%
X10667500Y-70548500D03*
X9017500Y-70548500D03*
%TD*%
D13*
%TO.C,R30*%
X20460200Y-65265300D03*
X22110200Y-65265300D03*
%TD*%
D17*
%TO.C,R41*%
X10667500Y-75285600D03*
X9017500Y-75285600D03*
%TD*%
D13*
%TO.C,R25*%
X3239000Y-58166000D03*
X4889000Y-58166000D03*
%TD*%
D17*
%TO.C,R20*%
X15138000Y-51117500D03*
X13488000Y-51117500D03*
%TD*%
D13*
%TO.C,R18*%
X13500500Y-49530000D03*
X15150500Y-49530000D03*
%TD*%
D17*
%TO.C,R40*%
X12129000Y-75285600D03*
X13779000Y-75285600D03*
%TD*%
%TO.C,R39*%
X10667500Y-73723500D03*
X9017500Y-73723500D03*
%TD*%
D13*
%TO.C,R31*%
X20460200Y-66840100D03*
X22110200Y-66840100D03*
%TD*%
D17*
%TO.C,R38*%
X12129000Y-73710800D03*
X13779000Y-73710800D03*
%TD*%
%TO.C,R34*%
X10667500Y-72136000D03*
X9017500Y-72136000D03*
%TD*%
D13*
%TO.C,R33*%
X9017500Y-68961000D03*
X10667500Y-68961000D03*
%TD*%
%TO.C,R36*%
X22797000Y-72999600D03*
X24447000Y-72999600D03*
%TD*%
D17*
%TO.C,R42*%
X24447000Y-77774800D03*
X22797000Y-77774800D03*
%TD*%
%TO.C,R32*%
X16344500Y-66865500D03*
X14694500Y-66865500D03*
%TD*%
D13*
%TO.C,R37*%
X22797000Y-74574400D03*
X24447000Y-74574400D03*
%TD*%
%TO.C,R28*%
X11240000Y-59753500D03*
X12890000Y-59753500D03*
%TD*%
%TO.C,R2*%
X15253200Y-27279600D03*
X16903200Y-27279600D03*
%TD*%
D17*
%TO.C,R29*%
X9778500Y-59753500D03*
X8128500Y-59753500D03*
%TD*%
D13*
%TO.C,R24*%
X8128500Y-58166000D03*
X9778500Y-58166000D03*
%TD*%
%TO.C,R17*%
X13500500Y-47942500D03*
X15150500Y-47942500D03*
%TD*%
D34*
%TO.C,R10*%
X23241000Y-39510200D03*
X23241000Y-41160200D03*
%TD*%
D13*
%TO.C,R6*%
X14821500Y-33655000D03*
X16471500Y-33655000D03*
%TD*%
D35*
%TO.C,R9*%
X24841200Y-41160200D03*
X24841200Y-39510200D03*
%TD*%
D17*
%TO.C,R27*%
X16281000Y-61849000D03*
X14631000Y-61849000D03*
%TD*%
%TO.C,R3*%
X11899500Y-28384500D03*
X10249500Y-28384500D03*
%TD*%
%TO.C,R4*%
X11899500Y-29972000D03*
X10249500Y-29972000D03*
%TD*%
D13*
%TO.C,R5*%
X8674500Y-31623000D03*
X10324500Y-31623000D03*
%TD*%
D17*
%TO.C,R14*%
X21527000Y-45275500D03*
X23177000Y-45275500D03*
%TD*%
D13*
%TO.C,R15*%
X18479000Y-45275500D03*
X20129000Y-45275500D03*
%TD*%
D36*
%TO.C,RV7*%
X25371200Y-80153000D03*
D37*
X22121200Y-81153000D03*
D36*
X25371200Y-82153000D03*
%TD*%
D38*
%TO.C,U8*%
X24643000Y-87267500D03*
X24643000Y-87917500D03*
X24643000Y-88567500D03*
X24643000Y-89217500D03*
X24643000Y-89867500D03*
X24643000Y-90517500D03*
X24643000Y-91167500D03*
X18918000Y-91167500D03*
X18918000Y-90517500D03*
X18918000Y-89867500D03*
X18918000Y-89217500D03*
X18918000Y-88567500D03*
X18918000Y-87917500D03*
X18918000Y-87267500D03*
%TD*%
%TO.C,U1*%
X26916300Y-24044000D03*
X26916300Y-24694000D03*
X26916300Y-25344000D03*
X26916300Y-25994000D03*
X21191300Y-25994000D03*
X21191300Y-25344000D03*
X21191300Y-24694000D03*
X21191300Y-24044000D03*
%TD*%
%TO.C,U7*%
X19474100Y-79390600D03*
X19474100Y-80040600D03*
X19474100Y-80690600D03*
X19474100Y-81340600D03*
X13749100Y-81340600D03*
X13749100Y-80690600D03*
X13749100Y-80040600D03*
X13749100Y-79390600D03*
%TD*%
D39*
%TO.C,U6*%
X13144500Y-66800500D03*
X11874500Y-66800500D03*
X10604500Y-66800500D03*
X9334500Y-66800500D03*
X8064500Y-66800500D03*
X6794500Y-66800500D03*
X5524500Y-66800500D03*
X4254500Y-66800500D03*
X4254500Y-61850500D03*
X5524500Y-61850500D03*
X6794500Y-61850500D03*
X8064500Y-61850500D03*
X9334500Y-61850500D03*
X10604500Y-61850500D03*
X11874500Y-61850500D03*
X13144500Y-61850500D03*
%TD*%
D33*
%TO.C,U3*%
X10939500Y-46305000D03*
X10939500Y-44405000D03*
X12814500Y-45355000D03*
%TD*%
D17*
%TO.C,R21*%
X21653000Y-56515000D03*
X20003000Y-56515000D03*
%TD*%
D13*
%TO.C,R19*%
X12039000Y-47942500D03*
X10389000Y-47942500D03*
%TD*%
D38*
%TO.C,U10*%
X24643000Y-107587500D03*
X24643000Y-108237500D03*
X24643000Y-108887500D03*
X24643000Y-109537500D03*
X24643000Y-110187500D03*
X24643000Y-110837500D03*
X24643000Y-111487500D03*
X18918000Y-111487500D03*
X18918000Y-110837500D03*
X18918000Y-110187500D03*
X18918000Y-109537500D03*
X18918000Y-108887500D03*
X18918000Y-108237500D03*
X18918000Y-107587500D03*
%TD*%
%TO.C,U5*%
X10546000Y-52533000D03*
X10546000Y-53183000D03*
X10546000Y-53833000D03*
X10546000Y-54483000D03*
X10546000Y-55133000D03*
X10546000Y-55783000D03*
X10546000Y-56433000D03*
X4821000Y-56433000D03*
X4821000Y-55783000D03*
X4821000Y-55133000D03*
X4821000Y-54483000D03*
X4821000Y-53833000D03*
X4821000Y-53183000D03*
X4821000Y-52533000D03*
%TD*%
D24*
%TO.C,C13*%
X7226500Y-47942500D03*
X5676500Y-47942500D03*
%TD*%
D30*
%TO.C,C9*%
X16421500Y-37020500D03*
X14871500Y-37020500D03*
%TD*%
D13*
%TO.C,R51*%
X6184400Y-95453200D03*
X4534400Y-95453200D03*
%TD*%
%TO.C,R53*%
X25310500Y-98234500D03*
X23660500Y-98234500D03*
%TD*%
%TO.C,R52*%
X25310500Y-99822000D03*
X23660500Y-99822000D03*
%TD*%
D36*
%TO.C,RV8*%
X22056500Y-98250500D03*
D37*
X18806500Y-99250500D03*
D36*
X22056500Y-100250500D03*
%TD*%
D13*
%TO.C,R11*%
X8357000Y-40703500D03*
X10007000Y-40703500D03*
%TD*%
D17*
%TO.C,R8*%
X16471500Y-38608000D03*
X14821500Y-38608000D03*
%TD*%
%TO.C,R13*%
X9181600Y-44005500D03*
X7531600Y-44005500D03*
%TD*%
%TO.C,R12*%
X10007000Y-42291000D03*
X8357000Y-42291000D03*
%TD*%
%TO.C,R26*%
X20003000Y-61277500D03*
X21653000Y-61277500D03*
%TD*%
D13*
%TO.C,R22*%
X20003000Y-58102500D03*
X21653000Y-58102500D03*
%TD*%
D17*
%TO.C,R23*%
X21653000Y-59690000D03*
X20003000Y-59690000D03*
%TD*%
D31*
%TO.C,C10*%
X2794000Y-37033000D03*
X2794000Y-38583000D03*
%TD*%
D29*
%TO.C,C8*%
X2794000Y-35217500D03*
X2794000Y-33667500D03*
%TD*%
D39*
%TO.C,U2*%
X13271500Y-38606500D03*
X12001500Y-38606500D03*
X10731500Y-38606500D03*
X9461500Y-38606500D03*
X8191500Y-38606500D03*
X6921500Y-38606500D03*
X5651500Y-38606500D03*
X4381500Y-38606500D03*
X4381500Y-33656500D03*
X5651500Y-33656500D03*
X6921500Y-33656500D03*
X8191500Y-33656500D03*
X9461500Y-33656500D03*
X10731500Y-33656500D03*
X12001500Y-33656500D03*
X13271500Y-33656500D03*
%TD*%
D24*
%TO.C,C7*%
X5613000Y-31623000D03*
X7163000Y-31623000D03*
%TD*%
D13*
%TO.C,R16*%
X7531600Y-45593000D03*
X9181600Y-45593000D03*
%TD*%
D17*
%TO.C,R58*%
X2578500Y-101092000D03*
X4228500Y-101092000D03*
%TD*%
D24*
%TO.C,C11*%
X21577000Y-46863000D03*
X23127000Y-46863000D03*
%TD*%
D31*
%TO.C,C14*%
X17526000Y-52946000D03*
X17526000Y-54496000D03*
%TD*%
D40*
%TO.C,U4*%
X19154500Y-48763000D03*
X19804500Y-48763000D03*
X20454500Y-48763000D03*
X21104500Y-48763000D03*
X21104500Y-54488000D03*
X20454500Y-54488000D03*
X19804500Y-54488000D03*
X19154500Y-54488000D03*
%TD*%
D13*
%TO.C,R61*%
X28193500Y-112712500D03*
X26543500Y-112712500D03*
%TD*%
%TO.C,R62*%
X28193500Y-111125000D03*
X26543500Y-111125000D03*
%TD*%
%TO.C,R54*%
X8636000Y-99441000D03*
X6986000Y-99441000D03*
%TD*%
D17*
%TO.C,R43*%
X11747000Y-80187800D03*
X10097000Y-80187800D03*
%TD*%
%TO.C,R44*%
X11747000Y-81813400D03*
X10097000Y-81813400D03*
%TD*%
M02*
