%TF.GenerationSoftware,KiCad,Pcbnew,(6.0.9)*%
%TF.CreationDate,2023-02-25T22:16:02-08:00*%
%TF.ProjectId,kilter,6b696c74-6572-42e6-9b69-6361645f7063,rev?*%
%TF.SameCoordinates,Original*%
%TF.FileFunction,Other,Comment*%
%FSLAX46Y46*%
G04 Gerber Fmt 4.6, Leading zero omitted, Abs format (unit mm)*
G04 Created by KiCad (PCBNEW (6.0.9)) date 2023-02-25 22:16:02*
%MOMM*%
%LPD*%
G01*
G04 APERTURE LIST*
%ADD10C,0.020000*%
G04 APERTURE END LIST*
D10*
%TO.C,RV6*%
X3743557Y-80659400D02*
X3893557Y-80623685D01*
X3786414Y-80595114D01*
X3893557Y-80566542D01*
X3743557Y-80530828D01*
X3893557Y-80473685D02*
X3793557Y-80473685D01*
X3743557Y-80473685D02*
X3750700Y-80480828D01*
X3757842Y-80473685D01*
X3750700Y-80466542D01*
X3743557Y-80473685D01*
X3757842Y-80473685D01*
X3793557Y-80402257D02*
X3943557Y-80402257D01*
X3800700Y-80402257D02*
X3793557Y-80387971D01*
X3793557Y-80359400D01*
X3800700Y-80345114D01*
X3807842Y-80337971D01*
X3822128Y-80330828D01*
X3864985Y-80330828D01*
X3879271Y-80337971D01*
X3886414Y-80345114D01*
X3893557Y-80359400D01*
X3893557Y-80387971D01*
X3886414Y-80402257D01*
X3886414Y-80209400D02*
X3893557Y-80223685D01*
X3893557Y-80252257D01*
X3886414Y-80266542D01*
X3872128Y-80273685D01*
X3814985Y-80273685D01*
X3800700Y-80266542D01*
X3793557Y-80252257D01*
X3793557Y-80223685D01*
X3800700Y-80209400D01*
X3814985Y-80202257D01*
X3829271Y-80202257D01*
X3843557Y-80273685D01*
X3893557Y-80137971D02*
X3793557Y-80137971D01*
X3822128Y-80137971D02*
X3807842Y-80130828D01*
X3800700Y-80123685D01*
X3793557Y-80109400D01*
X3793557Y-80095114D01*
X3893557Y-79930828D02*
X3793557Y-79930828D01*
X3807842Y-79930828D02*
X3800700Y-79923685D01*
X3793557Y-79909400D01*
X3793557Y-79887971D01*
X3800700Y-79873685D01*
X3814985Y-79866542D01*
X3893557Y-79866542D01*
X3814985Y-79866542D02*
X3800700Y-79859400D01*
X3793557Y-79845114D01*
X3793557Y-79823685D01*
X3800700Y-79809400D01*
X3814985Y-79802257D01*
X3893557Y-79802257D01*
X3893557Y-79666542D02*
X3814985Y-79666542D01*
X3800700Y-79673685D01*
X3793557Y-79687971D01*
X3793557Y-79716542D01*
X3800700Y-79730828D01*
X3886414Y-79666542D02*
X3893557Y-79680828D01*
X3893557Y-79716542D01*
X3886414Y-79730828D01*
X3872128Y-79737971D01*
X3857842Y-79737971D01*
X3843557Y-79730828D01*
X3836414Y-79716542D01*
X3836414Y-79680828D01*
X3829271Y-79666542D01*
X3793557Y-79609400D02*
X3893557Y-79573685D01*
X3793557Y-79537971D02*
X3893557Y-79573685D01*
X3929271Y-79587971D01*
X3936414Y-79595114D01*
X3943557Y-79609400D01*
X3893557Y-79366542D02*
X3743557Y-79366542D01*
X3800700Y-79366542D02*
X3793557Y-79352257D01*
X3793557Y-79323685D01*
X3800700Y-79309400D01*
X3807842Y-79302257D01*
X3822128Y-79295114D01*
X3864985Y-79295114D01*
X3879271Y-79302257D01*
X3886414Y-79309400D01*
X3893557Y-79323685D01*
X3893557Y-79352257D01*
X3886414Y-79366542D01*
X3886414Y-79173685D02*
X3893557Y-79187971D01*
X3893557Y-79216542D01*
X3886414Y-79230828D01*
X3872128Y-79237971D01*
X3814985Y-79237971D01*
X3800700Y-79230828D01*
X3793557Y-79216542D01*
X3793557Y-79187971D01*
X3800700Y-79173685D01*
X3814985Y-79166542D01*
X3829271Y-79166542D01*
X3843557Y-79237971D01*
X4135057Y-80709400D02*
X4056485Y-80709400D01*
X4042200Y-80716542D01*
X4035057Y-80730828D01*
X4035057Y-80759400D01*
X4042200Y-80773685D01*
X4127914Y-80709400D02*
X4135057Y-80723685D01*
X4135057Y-80759400D01*
X4127914Y-80773685D01*
X4113628Y-80780828D01*
X4099342Y-80780828D01*
X4085057Y-80773685D01*
X4077914Y-80759400D01*
X4077914Y-80723685D01*
X4070771Y-80709400D01*
X4035057Y-80637971D02*
X4135057Y-80637971D01*
X4049342Y-80637971D02*
X4042200Y-80630828D01*
X4035057Y-80616542D01*
X4035057Y-80595114D01*
X4042200Y-80580828D01*
X4056485Y-80573685D01*
X4135057Y-80573685D01*
X4035057Y-80516542D02*
X4135057Y-80480828D01*
X4035057Y-80445114D02*
X4135057Y-80480828D01*
X4170771Y-80495114D01*
X4177914Y-80502257D01*
X4185057Y-80516542D01*
X4035057Y-80402257D02*
X4135057Y-80373685D01*
X4063628Y-80345114D01*
X4135057Y-80316542D01*
X4035057Y-80287971D01*
X4135057Y-80230828D02*
X3985057Y-80230828D01*
X4135057Y-80166542D02*
X4056485Y-80166542D01*
X4042200Y-80173685D01*
X4035057Y-80187971D01*
X4035057Y-80209400D01*
X4042200Y-80223685D01*
X4049342Y-80230828D01*
X4127914Y-80037971D02*
X4135057Y-80052257D01*
X4135057Y-80080828D01*
X4127914Y-80095114D01*
X4113628Y-80102257D01*
X4056485Y-80102257D01*
X4042200Y-80095114D01*
X4035057Y-80080828D01*
X4035057Y-80052257D01*
X4042200Y-80037971D01*
X4056485Y-80030828D01*
X4070771Y-80030828D01*
X4085057Y-80102257D01*
X4135057Y-79966542D02*
X4035057Y-79966542D01*
X4063628Y-79966542D02*
X4049342Y-79959400D01*
X4042200Y-79952257D01*
X4035057Y-79937971D01*
X4035057Y-79923685D01*
X4127914Y-79816542D02*
X4135057Y-79830828D01*
X4135057Y-79859400D01*
X4127914Y-79873685D01*
X4113628Y-79880828D01*
X4056485Y-79880828D01*
X4042200Y-79873685D01*
X4035057Y-79859400D01*
X4035057Y-79830828D01*
X4042200Y-79816542D01*
X4056485Y-79809400D01*
X4070771Y-79809400D01*
X4085057Y-79880828D01*
X4035057Y-79645114D02*
X4135057Y-79616542D01*
X4063628Y-79587971D01*
X4135057Y-79559400D01*
X4035057Y-79530828D01*
X4135057Y-79473685D02*
X4035057Y-79473685D01*
X3985057Y-79473685D02*
X3992200Y-79480828D01*
X3999342Y-79473685D01*
X3992200Y-79466542D01*
X3985057Y-79473685D01*
X3999342Y-79473685D01*
X4035057Y-79423685D02*
X4035057Y-79366542D01*
X3985057Y-79402257D02*
X4113628Y-79402257D01*
X4127914Y-79395114D01*
X4135057Y-79380828D01*
X4135057Y-79366542D01*
X4135057Y-79316542D02*
X3985057Y-79316542D01*
X4135057Y-79252257D02*
X4056485Y-79252257D01*
X4042200Y-79259400D01*
X4035057Y-79273685D01*
X4035057Y-79295114D01*
X4042200Y-79309400D01*
X4049342Y-79316542D01*
X4135057Y-79180828D02*
X4035057Y-79180828D01*
X3985057Y-79180828D02*
X3992200Y-79187971D01*
X3999342Y-79180828D01*
X3992200Y-79173685D01*
X3985057Y-79180828D01*
X3999342Y-79180828D01*
X4035057Y-79109400D02*
X4135057Y-79109400D01*
X4049342Y-79109400D02*
X4042200Y-79102257D01*
X4035057Y-79087971D01*
X4035057Y-79066542D01*
X4042200Y-79052257D01*
X4056485Y-79045114D01*
X4135057Y-79045114D01*
X4369414Y-80523685D02*
X4376557Y-80537971D01*
X4376557Y-80566542D01*
X4369414Y-80580828D01*
X4362271Y-80587971D01*
X4347985Y-80595114D01*
X4305128Y-80595114D01*
X4290842Y-80587971D01*
X4283700Y-80580828D01*
X4276557Y-80566542D01*
X4276557Y-80537971D01*
X4283700Y-80523685D01*
X4376557Y-80459400D02*
X4276557Y-80459400D01*
X4226557Y-80459400D02*
X4233700Y-80466542D01*
X4240842Y-80459400D01*
X4233700Y-80452257D01*
X4226557Y-80459400D01*
X4240842Y-80459400D01*
X4376557Y-80387971D02*
X4276557Y-80387971D01*
X4305128Y-80387971D02*
X4290842Y-80380828D01*
X4283700Y-80373685D01*
X4276557Y-80359400D01*
X4276557Y-80345114D01*
X4369414Y-80230828D02*
X4376557Y-80245114D01*
X4376557Y-80273685D01*
X4369414Y-80287971D01*
X4362271Y-80295114D01*
X4347985Y-80302257D01*
X4305128Y-80302257D01*
X4290842Y-80295114D01*
X4283700Y-80287971D01*
X4276557Y-80273685D01*
X4276557Y-80245114D01*
X4283700Y-80230828D01*
X4376557Y-80145114D02*
X4369414Y-80159400D01*
X4355128Y-80166542D01*
X4226557Y-80166542D01*
X4369414Y-80030828D02*
X4376557Y-80045114D01*
X4376557Y-80073685D01*
X4369414Y-80087971D01*
X4355128Y-80095114D01*
X4297985Y-80095114D01*
X4283700Y-80087971D01*
X4276557Y-80073685D01*
X4276557Y-80045114D01*
X4283700Y-80030828D01*
X4297985Y-80023685D01*
X4312271Y-80023685D01*
X4326557Y-80095114D01*
X4369414Y-79852257D02*
X4376557Y-79837971D01*
X4376557Y-79809400D01*
X4369414Y-79795114D01*
X4355128Y-79787971D01*
X4347985Y-79787971D01*
X4333700Y-79795114D01*
X4326557Y-79809400D01*
X4326557Y-79830828D01*
X4319414Y-79845114D01*
X4305128Y-79852257D01*
X4297985Y-79852257D01*
X4283700Y-79845114D01*
X4276557Y-79830828D01*
X4276557Y-79809400D01*
X4283700Y-79795114D01*
X4376557Y-79723685D02*
X4226557Y-79723685D01*
X4376557Y-79659400D02*
X4297985Y-79659400D01*
X4283700Y-79666542D01*
X4276557Y-79680828D01*
X4276557Y-79702257D01*
X4283700Y-79716542D01*
X4290842Y-79723685D01*
X4376557Y-79566542D02*
X4369414Y-79580828D01*
X4362271Y-79587971D01*
X4347985Y-79595114D01*
X4305128Y-79595114D01*
X4290842Y-79587971D01*
X4283700Y-79580828D01*
X4276557Y-79566542D01*
X4276557Y-79545114D01*
X4283700Y-79530828D01*
X4290842Y-79523685D01*
X4305128Y-79516542D01*
X4347985Y-79516542D01*
X4362271Y-79523685D01*
X4369414Y-79530828D01*
X4376557Y-79545114D01*
X4376557Y-79566542D01*
X4276557Y-79466542D02*
X4376557Y-79437971D01*
X4305128Y-79409400D01*
X4376557Y-79380828D01*
X4276557Y-79352257D01*
X4276557Y-79295114D02*
X4376557Y-79295114D01*
X4290842Y-79295114D02*
X4283700Y-79287971D01*
X4276557Y-79273685D01*
X4276557Y-79252257D01*
X4283700Y-79237971D01*
X4297985Y-79230828D01*
X4376557Y-79230828D01*
%TO.C,RV7*%
X22971200Y-80029357D02*
X23006914Y-80179357D01*
X23035485Y-80072214D01*
X23064057Y-80179357D01*
X23099771Y-80029357D01*
X23156914Y-80179357D02*
X23156914Y-80079357D01*
X23156914Y-80029357D02*
X23149771Y-80036500D01*
X23156914Y-80043642D01*
X23164057Y-80036500D01*
X23156914Y-80029357D01*
X23156914Y-80043642D01*
X23228342Y-80079357D02*
X23228342Y-80229357D01*
X23228342Y-80086500D02*
X23242628Y-80079357D01*
X23271200Y-80079357D01*
X23285485Y-80086500D01*
X23292628Y-80093642D01*
X23299771Y-80107928D01*
X23299771Y-80150785D01*
X23292628Y-80165071D01*
X23285485Y-80172214D01*
X23271200Y-80179357D01*
X23242628Y-80179357D01*
X23228342Y-80172214D01*
X23421200Y-80172214D02*
X23406914Y-80179357D01*
X23378342Y-80179357D01*
X23364057Y-80172214D01*
X23356914Y-80157928D01*
X23356914Y-80100785D01*
X23364057Y-80086500D01*
X23378342Y-80079357D01*
X23406914Y-80079357D01*
X23421200Y-80086500D01*
X23428342Y-80100785D01*
X23428342Y-80115071D01*
X23356914Y-80129357D01*
X23492628Y-80179357D02*
X23492628Y-80079357D01*
X23492628Y-80107928D02*
X23499771Y-80093642D01*
X23506914Y-80086500D01*
X23521200Y-80079357D01*
X23535485Y-80079357D01*
X23699771Y-80179357D02*
X23699771Y-80079357D01*
X23699771Y-80093642D02*
X23706914Y-80086500D01*
X23721200Y-80079357D01*
X23742628Y-80079357D01*
X23756914Y-80086500D01*
X23764057Y-80100785D01*
X23764057Y-80179357D01*
X23764057Y-80100785D02*
X23771200Y-80086500D01*
X23785485Y-80079357D01*
X23806914Y-80079357D01*
X23821200Y-80086500D01*
X23828342Y-80100785D01*
X23828342Y-80179357D01*
X23964057Y-80179357D02*
X23964057Y-80100785D01*
X23956914Y-80086500D01*
X23942628Y-80079357D01*
X23914057Y-80079357D01*
X23899771Y-80086500D01*
X23964057Y-80172214D02*
X23949771Y-80179357D01*
X23914057Y-80179357D01*
X23899771Y-80172214D01*
X23892628Y-80157928D01*
X23892628Y-80143642D01*
X23899771Y-80129357D01*
X23914057Y-80122214D01*
X23949771Y-80122214D01*
X23964057Y-80115071D01*
X24021200Y-80079357D02*
X24056914Y-80179357D01*
X24092628Y-80079357D02*
X24056914Y-80179357D01*
X24042628Y-80215071D01*
X24035485Y-80222214D01*
X24021200Y-80229357D01*
X24264057Y-80179357D02*
X24264057Y-80029357D01*
X24264057Y-80086500D02*
X24278342Y-80079357D01*
X24306914Y-80079357D01*
X24321200Y-80086500D01*
X24328342Y-80093642D01*
X24335485Y-80107928D01*
X24335485Y-80150785D01*
X24328342Y-80165071D01*
X24321200Y-80172214D01*
X24306914Y-80179357D01*
X24278342Y-80179357D01*
X24264057Y-80172214D01*
X24456914Y-80172214D02*
X24442628Y-80179357D01*
X24414057Y-80179357D01*
X24399771Y-80172214D01*
X24392628Y-80157928D01*
X24392628Y-80100785D01*
X24399771Y-80086500D01*
X24414057Y-80079357D01*
X24442628Y-80079357D01*
X24456914Y-80086500D01*
X24464057Y-80100785D01*
X24464057Y-80115071D01*
X24392628Y-80129357D01*
X22921200Y-80420857D02*
X22921200Y-80342285D01*
X22914057Y-80328000D01*
X22899771Y-80320857D01*
X22871200Y-80320857D01*
X22856914Y-80328000D01*
X22921200Y-80413714D02*
X22906914Y-80420857D01*
X22871200Y-80420857D01*
X22856914Y-80413714D01*
X22849771Y-80399428D01*
X22849771Y-80385142D01*
X22856914Y-80370857D01*
X22871200Y-80363714D01*
X22906914Y-80363714D01*
X22921200Y-80356571D01*
X22992628Y-80320857D02*
X22992628Y-80420857D01*
X22992628Y-80335142D02*
X22999771Y-80328000D01*
X23014057Y-80320857D01*
X23035485Y-80320857D01*
X23049771Y-80328000D01*
X23056914Y-80342285D01*
X23056914Y-80420857D01*
X23114057Y-80320857D02*
X23149771Y-80420857D01*
X23185485Y-80320857D02*
X23149771Y-80420857D01*
X23135485Y-80456571D01*
X23128342Y-80463714D01*
X23114057Y-80470857D01*
X23228342Y-80320857D02*
X23256914Y-80420857D01*
X23285485Y-80349428D01*
X23314057Y-80420857D01*
X23342628Y-80320857D01*
X23399771Y-80420857D02*
X23399771Y-80270857D01*
X23464057Y-80420857D02*
X23464057Y-80342285D01*
X23456914Y-80328000D01*
X23442628Y-80320857D01*
X23421200Y-80320857D01*
X23406914Y-80328000D01*
X23399771Y-80335142D01*
X23592628Y-80413714D02*
X23578342Y-80420857D01*
X23549771Y-80420857D01*
X23535485Y-80413714D01*
X23528342Y-80399428D01*
X23528342Y-80342285D01*
X23535485Y-80328000D01*
X23549771Y-80320857D01*
X23578342Y-80320857D01*
X23592628Y-80328000D01*
X23599771Y-80342285D01*
X23599771Y-80356571D01*
X23528342Y-80370857D01*
X23664057Y-80420857D02*
X23664057Y-80320857D01*
X23664057Y-80349428D02*
X23671200Y-80335142D01*
X23678342Y-80328000D01*
X23692628Y-80320857D01*
X23706914Y-80320857D01*
X23814057Y-80413714D02*
X23799771Y-80420857D01*
X23771200Y-80420857D01*
X23756914Y-80413714D01*
X23749771Y-80399428D01*
X23749771Y-80342285D01*
X23756914Y-80328000D01*
X23771200Y-80320857D01*
X23799771Y-80320857D01*
X23814057Y-80328000D01*
X23821200Y-80342285D01*
X23821200Y-80356571D01*
X23749771Y-80370857D01*
X23985485Y-80320857D02*
X24014057Y-80420857D01*
X24042628Y-80349428D01*
X24071200Y-80420857D01*
X24099771Y-80320857D01*
X24156914Y-80420857D02*
X24156914Y-80320857D01*
X24156914Y-80270857D02*
X24149771Y-80278000D01*
X24156914Y-80285142D01*
X24164057Y-80278000D01*
X24156914Y-80270857D01*
X24156914Y-80285142D01*
X24206914Y-80320857D02*
X24264057Y-80320857D01*
X24228342Y-80270857D02*
X24228342Y-80399428D01*
X24235485Y-80413714D01*
X24249771Y-80420857D01*
X24264057Y-80420857D01*
X24314057Y-80420857D02*
X24314057Y-80270857D01*
X24378342Y-80420857D02*
X24378342Y-80342285D01*
X24371200Y-80328000D01*
X24356914Y-80320857D01*
X24335485Y-80320857D01*
X24321200Y-80328000D01*
X24314057Y-80335142D01*
X24449771Y-80420857D02*
X24449771Y-80320857D01*
X24449771Y-80270857D02*
X24442628Y-80278000D01*
X24449771Y-80285142D01*
X24456914Y-80278000D01*
X24449771Y-80270857D01*
X24449771Y-80285142D01*
X24521200Y-80320857D02*
X24521200Y-80420857D01*
X24521200Y-80335142D02*
X24528342Y-80328000D01*
X24542628Y-80320857D01*
X24564057Y-80320857D01*
X24578342Y-80328000D01*
X24585485Y-80342285D01*
X24585485Y-80420857D01*
X23106914Y-80655214D02*
X23092628Y-80662357D01*
X23064057Y-80662357D01*
X23049771Y-80655214D01*
X23042628Y-80648071D01*
X23035485Y-80633785D01*
X23035485Y-80590928D01*
X23042628Y-80576642D01*
X23049771Y-80569500D01*
X23064057Y-80562357D01*
X23092628Y-80562357D01*
X23106914Y-80569500D01*
X23171200Y-80662357D02*
X23171200Y-80562357D01*
X23171200Y-80512357D02*
X23164057Y-80519500D01*
X23171200Y-80526642D01*
X23178342Y-80519500D01*
X23171200Y-80512357D01*
X23171200Y-80526642D01*
X23242628Y-80662357D02*
X23242628Y-80562357D01*
X23242628Y-80590928D02*
X23249771Y-80576642D01*
X23256914Y-80569500D01*
X23271200Y-80562357D01*
X23285485Y-80562357D01*
X23399771Y-80655214D02*
X23385485Y-80662357D01*
X23356914Y-80662357D01*
X23342628Y-80655214D01*
X23335485Y-80648071D01*
X23328342Y-80633785D01*
X23328342Y-80590928D01*
X23335485Y-80576642D01*
X23342628Y-80569500D01*
X23356914Y-80562357D01*
X23385485Y-80562357D01*
X23399771Y-80569500D01*
X23485485Y-80662357D02*
X23471200Y-80655214D01*
X23464057Y-80640928D01*
X23464057Y-80512357D01*
X23599771Y-80655214D02*
X23585485Y-80662357D01*
X23556914Y-80662357D01*
X23542628Y-80655214D01*
X23535485Y-80640928D01*
X23535485Y-80583785D01*
X23542628Y-80569500D01*
X23556914Y-80562357D01*
X23585485Y-80562357D01*
X23599771Y-80569500D01*
X23606914Y-80583785D01*
X23606914Y-80598071D01*
X23535485Y-80612357D01*
X23778342Y-80655214D02*
X23792628Y-80662357D01*
X23821200Y-80662357D01*
X23835485Y-80655214D01*
X23842628Y-80640928D01*
X23842628Y-80633785D01*
X23835485Y-80619500D01*
X23821200Y-80612357D01*
X23799771Y-80612357D01*
X23785485Y-80605214D01*
X23778342Y-80590928D01*
X23778342Y-80583785D01*
X23785485Y-80569500D01*
X23799771Y-80562357D01*
X23821200Y-80562357D01*
X23835485Y-80569500D01*
X23906914Y-80662357D02*
X23906914Y-80512357D01*
X23971200Y-80662357D02*
X23971200Y-80583785D01*
X23964057Y-80569500D01*
X23949771Y-80562357D01*
X23928342Y-80562357D01*
X23914057Y-80569500D01*
X23906914Y-80576642D01*
X24064057Y-80662357D02*
X24049771Y-80655214D01*
X24042628Y-80648071D01*
X24035485Y-80633785D01*
X24035485Y-80590928D01*
X24042628Y-80576642D01*
X24049771Y-80569500D01*
X24064057Y-80562357D01*
X24085485Y-80562357D01*
X24099771Y-80569500D01*
X24106914Y-80576642D01*
X24114057Y-80590928D01*
X24114057Y-80633785D01*
X24106914Y-80648071D01*
X24099771Y-80655214D01*
X24085485Y-80662357D01*
X24064057Y-80662357D01*
X24164057Y-80562357D02*
X24192628Y-80662357D01*
X24221200Y-80590928D01*
X24249771Y-80662357D01*
X24278342Y-80562357D01*
X24335485Y-80562357D02*
X24335485Y-80662357D01*
X24335485Y-80576642D02*
X24342628Y-80569500D01*
X24356914Y-80562357D01*
X24378342Y-80562357D01*
X24392628Y-80569500D01*
X24399771Y-80583785D01*
X24399771Y-80662357D01*
%TO.C,RV8*%
X19656500Y-98126857D02*
X19692214Y-98276857D01*
X19720785Y-98169714D01*
X19749357Y-98276857D01*
X19785071Y-98126857D01*
X19842214Y-98276857D02*
X19842214Y-98176857D01*
X19842214Y-98126857D02*
X19835071Y-98134000D01*
X19842214Y-98141142D01*
X19849357Y-98134000D01*
X19842214Y-98126857D01*
X19842214Y-98141142D01*
X19913642Y-98176857D02*
X19913642Y-98326857D01*
X19913642Y-98184000D02*
X19927928Y-98176857D01*
X19956500Y-98176857D01*
X19970785Y-98184000D01*
X19977928Y-98191142D01*
X19985071Y-98205428D01*
X19985071Y-98248285D01*
X19977928Y-98262571D01*
X19970785Y-98269714D01*
X19956500Y-98276857D01*
X19927928Y-98276857D01*
X19913642Y-98269714D01*
X20106500Y-98269714D02*
X20092214Y-98276857D01*
X20063642Y-98276857D01*
X20049357Y-98269714D01*
X20042214Y-98255428D01*
X20042214Y-98198285D01*
X20049357Y-98184000D01*
X20063642Y-98176857D01*
X20092214Y-98176857D01*
X20106500Y-98184000D01*
X20113642Y-98198285D01*
X20113642Y-98212571D01*
X20042214Y-98226857D01*
X20177928Y-98276857D02*
X20177928Y-98176857D01*
X20177928Y-98205428D02*
X20185071Y-98191142D01*
X20192214Y-98184000D01*
X20206500Y-98176857D01*
X20220785Y-98176857D01*
X20385071Y-98276857D02*
X20385071Y-98176857D01*
X20385071Y-98191142D02*
X20392214Y-98184000D01*
X20406500Y-98176857D01*
X20427928Y-98176857D01*
X20442214Y-98184000D01*
X20449357Y-98198285D01*
X20449357Y-98276857D01*
X20449357Y-98198285D02*
X20456500Y-98184000D01*
X20470785Y-98176857D01*
X20492214Y-98176857D01*
X20506500Y-98184000D01*
X20513642Y-98198285D01*
X20513642Y-98276857D01*
X20649357Y-98276857D02*
X20649357Y-98198285D01*
X20642214Y-98184000D01*
X20627928Y-98176857D01*
X20599357Y-98176857D01*
X20585071Y-98184000D01*
X20649357Y-98269714D02*
X20635071Y-98276857D01*
X20599357Y-98276857D01*
X20585071Y-98269714D01*
X20577928Y-98255428D01*
X20577928Y-98241142D01*
X20585071Y-98226857D01*
X20599357Y-98219714D01*
X20635071Y-98219714D01*
X20649357Y-98212571D01*
X20706500Y-98176857D02*
X20742214Y-98276857D01*
X20777928Y-98176857D02*
X20742214Y-98276857D01*
X20727928Y-98312571D01*
X20720785Y-98319714D01*
X20706500Y-98326857D01*
X20949357Y-98276857D02*
X20949357Y-98126857D01*
X20949357Y-98184000D02*
X20963642Y-98176857D01*
X20992214Y-98176857D01*
X21006500Y-98184000D01*
X21013642Y-98191142D01*
X21020785Y-98205428D01*
X21020785Y-98248285D01*
X21013642Y-98262571D01*
X21006500Y-98269714D01*
X20992214Y-98276857D01*
X20963642Y-98276857D01*
X20949357Y-98269714D01*
X21142214Y-98269714D02*
X21127928Y-98276857D01*
X21099357Y-98276857D01*
X21085071Y-98269714D01*
X21077928Y-98255428D01*
X21077928Y-98198285D01*
X21085071Y-98184000D01*
X21099357Y-98176857D01*
X21127928Y-98176857D01*
X21142214Y-98184000D01*
X21149357Y-98198285D01*
X21149357Y-98212571D01*
X21077928Y-98226857D01*
X19606500Y-98518357D02*
X19606500Y-98439785D01*
X19599357Y-98425500D01*
X19585071Y-98418357D01*
X19556500Y-98418357D01*
X19542214Y-98425500D01*
X19606500Y-98511214D02*
X19592214Y-98518357D01*
X19556500Y-98518357D01*
X19542214Y-98511214D01*
X19535071Y-98496928D01*
X19535071Y-98482642D01*
X19542214Y-98468357D01*
X19556500Y-98461214D01*
X19592214Y-98461214D01*
X19606500Y-98454071D01*
X19677928Y-98418357D02*
X19677928Y-98518357D01*
X19677928Y-98432642D02*
X19685071Y-98425500D01*
X19699357Y-98418357D01*
X19720785Y-98418357D01*
X19735071Y-98425500D01*
X19742214Y-98439785D01*
X19742214Y-98518357D01*
X19799357Y-98418357D02*
X19835071Y-98518357D01*
X19870785Y-98418357D02*
X19835071Y-98518357D01*
X19820785Y-98554071D01*
X19813642Y-98561214D01*
X19799357Y-98568357D01*
X19913642Y-98418357D02*
X19942214Y-98518357D01*
X19970785Y-98446928D01*
X19999357Y-98518357D01*
X20027928Y-98418357D01*
X20085071Y-98518357D02*
X20085071Y-98368357D01*
X20149357Y-98518357D02*
X20149357Y-98439785D01*
X20142214Y-98425500D01*
X20127928Y-98418357D01*
X20106500Y-98418357D01*
X20092214Y-98425500D01*
X20085071Y-98432642D01*
X20277928Y-98511214D02*
X20263642Y-98518357D01*
X20235071Y-98518357D01*
X20220785Y-98511214D01*
X20213642Y-98496928D01*
X20213642Y-98439785D01*
X20220785Y-98425500D01*
X20235071Y-98418357D01*
X20263642Y-98418357D01*
X20277928Y-98425500D01*
X20285071Y-98439785D01*
X20285071Y-98454071D01*
X20213642Y-98468357D01*
X20349357Y-98518357D02*
X20349357Y-98418357D01*
X20349357Y-98446928D02*
X20356500Y-98432642D01*
X20363642Y-98425500D01*
X20377928Y-98418357D01*
X20392214Y-98418357D01*
X20499357Y-98511214D02*
X20485071Y-98518357D01*
X20456500Y-98518357D01*
X20442214Y-98511214D01*
X20435071Y-98496928D01*
X20435071Y-98439785D01*
X20442214Y-98425500D01*
X20456500Y-98418357D01*
X20485071Y-98418357D01*
X20499357Y-98425500D01*
X20506500Y-98439785D01*
X20506500Y-98454071D01*
X20435071Y-98468357D01*
X20670785Y-98418357D02*
X20699357Y-98518357D01*
X20727928Y-98446928D01*
X20756500Y-98518357D01*
X20785071Y-98418357D01*
X20842214Y-98518357D02*
X20842214Y-98418357D01*
X20842214Y-98368357D02*
X20835071Y-98375500D01*
X20842214Y-98382642D01*
X20849357Y-98375500D01*
X20842214Y-98368357D01*
X20842214Y-98382642D01*
X20892214Y-98418357D02*
X20949357Y-98418357D01*
X20913642Y-98368357D02*
X20913642Y-98496928D01*
X20920785Y-98511214D01*
X20935071Y-98518357D01*
X20949357Y-98518357D01*
X20999357Y-98518357D02*
X20999357Y-98368357D01*
X21063642Y-98518357D02*
X21063642Y-98439785D01*
X21056500Y-98425500D01*
X21042214Y-98418357D01*
X21020785Y-98418357D01*
X21006500Y-98425500D01*
X20999357Y-98432642D01*
X21135071Y-98518357D02*
X21135071Y-98418357D01*
X21135071Y-98368357D02*
X21127928Y-98375500D01*
X21135071Y-98382642D01*
X21142214Y-98375500D01*
X21135071Y-98368357D01*
X21135071Y-98382642D01*
X21206500Y-98418357D02*
X21206500Y-98518357D01*
X21206500Y-98432642D02*
X21213642Y-98425500D01*
X21227928Y-98418357D01*
X21249357Y-98418357D01*
X21263642Y-98425500D01*
X21270785Y-98439785D01*
X21270785Y-98518357D01*
X19792214Y-98752714D02*
X19777928Y-98759857D01*
X19749357Y-98759857D01*
X19735071Y-98752714D01*
X19727928Y-98745571D01*
X19720785Y-98731285D01*
X19720785Y-98688428D01*
X19727928Y-98674142D01*
X19735071Y-98667000D01*
X19749357Y-98659857D01*
X19777928Y-98659857D01*
X19792214Y-98667000D01*
X19856500Y-98759857D02*
X19856500Y-98659857D01*
X19856500Y-98609857D02*
X19849357Y-98617000D01*
X19856500Y-98624142D01*
X19863642Y-98617000D01*
X19856500Y-98609857D01*
X19856500Y-98624142D01*
X19927928Y-98759857D02*
X19927928Y-98659857D01*
X19927928Y-98688428D02*
X19935071Y-98674142D01*
X19942214Y-98667000D01*
X19956500Y-98659857D01*
X19970785Y-98659857D01*
X20085071Y-98752714D02*
X20070785Y-98759857D01*
X20042214Y-98759857D01*
X20027928Y-98752714D01*
X20020785Y-98745571D01*
X20013642Y-98731285D01*
X20013642Y-98688428D01*
X20020785Y-98674142D01*
X20027928Y-98667000D01*
X20042214Y-98659857D01*
X20070785Y-98659857D01*
X20085071Y-98667000D01*
X20170785Y-98759857D02*
X20156500Y-98752714D01*
X20149357Y-98738428D01*
X20149357Y-98609857D01*
X20285071Y-98752714D02*
X20270785Y-98759857D01*
X20242214Y-98759857D01*
X20227928Y-98752714D01*
X20220785Y-98738428D01*
X20220785Y-98681285D01*
X20227928Y-98667000D01*
X20242214Y-98659857D01*
X20270785Y-98659857D01*
X20285071Y-98667000D01*
X20292214Y-98681285D01*
X20292214Y-98695571D01*
X20220785Y-98709857D01*
X20463642Y-98752714D02*
X20477928Y-98759857D01*
X20506500Y-98759857D01*
X20520785Y-98752714D01*
X20527928Y-98738428D01*
X20527928Y-98731285D01*
X20520785Y-98717000D01*
X20506500Y-98709857D01*
X20485071Y-98709857D01*
X20470785Y-98702714D01*
X20463642Y-98688428D01*
X20463642Y-98681285D01*
X20470785Y-98667000D01*
X20485071Y-98659857D01*
X20506500Y-98659857D01*
X20520785Y-98667000D01*
X20592214Y-98759857D02*
X20592214Y-98609857D01*
X20656500Y-98759857D02*
X20656500Y-98681285D01*
X20649357Y-98667000D01*
X20635071Y-98659857D01*
X20613642Y-98659857D01*
X20599357Y-98667000D01*
X20592214Y-98674142D01*
X20749357Y-98759857D02*
X20735071Y-98752714D01*
X20727928Y-98745571D01*
X20720785Y-98731285D01*
X20720785Y-98688428D01*
X20727928Y-98674142D01*
X20735071Y-98667000D01*
X20749357Y-98659857D01*
X20770785Y-98659857D01*
X20785071Y-98667000D01*
X20792214Y-98674142D01*
X20799357Y-98688428D01*
X20799357Y-98731285D01*
X20792214Y-98745571D01*
X20785071Y-98752714D01*
X20770785Y-98759857D01*
X20749357Y-98759857D01*
X20849357Y-98659857D02*
X20877928Y-98759857D01*
X20906500Y-98688428D01*
X20935071Y-98759857D01*
X20963642Y-98659857D01*
X21020785Y-98659857D02*
X21020785Y-98759857D01*
X21020785Y-98674142D02*
X21027928Y-98667000D01*
X21042214Y-98659857D01*
X21063642Y-98659857D01*
X21077928Y-98667000D01*
X21085071Y-98681285D01*
X21085071Y-98759857D01*
%TD*%
M02*
