%TF.GenerationSoftware,KiCad,Pcbnew,(6.0.9)*%
%TF.CreationDate,2023-02-25T22:16:02-08:00*%
%TF.ProjectId,kilter,6b696c74-6572-42e6-9b69-6361645f7063,rev?*%
%TF.SameCoordinates,Original*%
%TF.FileFunction,Soldermask,Bot*%
%TF.FilePolarity,Negative*%
%FSLAX46Y46*%
G04 Gerber Fmt 4.6, Leading zero omitted, Abs format (unit mm)*
G04 Created by KiCad (PCBNEW (6.0.9)) date 2023-02-25 22:16:02*
%MOMM*%
%LPD*%
G01*
G04 APERTURE LIST*
G04 Aperture macros list*
%AMRoundRect*
0 Rectangle with rounded corners*
0 $1 Rounding radius*
0 $2 $3 $4 $5 $6 $7 $8 $9 X,Y pos of 4 corners*
0 Add a 4 corners polygon primitive as box body*
4,1,4,$2,$3,$4,$5,$6,$7,$8,$9,$2,$3,0*
0 Add four circle primitives for the rounded corners*
1,1,$1+$1,$2,$3*
1,1,$1+$1,$4,$5*
1,1,$1+$1,$6,$7*
1,1,$1+$1,$8,$9*
0 Add four rect primitives between the rounded corners*
20,1,$1+$1,$2,$3,$4,$5,0*
20,1,$1+$1,$4,$5,$6,$7,0*
20,1,$1+$1,$6,$7,$8,$9,0*
20,1,$1+$1,$8,$9,$2,$3,0*%
G04 Aperture macros list end*
%ADD10C,0.150000*%
%ADD11RoundRect,0.251000X0.200000X0.275000X-0.200000X0.275000X-0.200000X-0.275000X0.200000X-0.275000X0*%
%ADD12RoundRect,0.151000X0.100000X-0.637500X0.100000X0.637500X-0.100000X0.637500X-0.100000X-0.637500X0*%
%ADD13RoundRect,0.051000X0.600000X-0.600000X0.600000X0.600000X-0.600000X0.600000X-0.600000X-0.600000X0*%
%ADD14RoundRect,0.051000X0.800000X-0.750000X0.800000X0.750000X-0.800000X0.750000X-0.800000X-0.750000X0*%
%ADD15RoundRect,0.251000X-0.200000X-0.275000X0.200000X-0.275000X0.200000X0.275000X-0.200000X0.275000X0*%
%ADD16RoundRect,0.051000X-0.900000X-0.900000X0.900000X-0.900000X0.900000X0.900000X-0.900000X0.900000X0*%
%ADD17C,1.902000*%
%ADD18C,2.302000*%
%ADD19RoundRect,0.051000X-0.900000X0.900000X-0.900000X-0.900000X0.900000X-0.900000X0.900000X0.900000X0*%
%ADD20O,2.822000X3.342000*%
%ADD21RoundRect,0.051000X0.900000X0.900000X-0.900000X0.900000X-0.900000X-0.900000X0.900000X-0.900000X0*%
%ADD22RoundRect,0.276000X0.225000X0.250000X-0.225000X0.250000X-0.225000X-0.250000X0.225000X-0.250000X0*%
%ADD23RoundRect,0.301000X-1.250000X-0.550000X1.250000X-0.550000X1.250000X0.550000X-1.250000X0.550000X0*%
%ADD24RoundRect,0.301000X-0.550000X1.250000X-0.550000X-1.250000X0.550000X-1.250000X0.550000X1.250000X0*%
%ADD25RoundRect,0.301000X-0.600000X-0.600000X0.600000X-0.600000X0.600000X0.600000X-0.600000X0.600000X0*%
%ADD26C,1.802000*%
%ADD27RoundRect,0.276000X-0.250000X0.225000X-0.250000X-0.225000X0.250000X-0.225000X0.250000X0.225000X0*%
%ADD28RoundRect,0.276000X-0.225000X-0.250000X0.225000X-0.250000X0.225000X0.250000X-0.225000X0.250000X0*%
%ADD29RoundRect,0.276000X0.250000X-0.225000X0.250000X0.225000X-0.250000X0.225000X-0.250000X-0.225000X0*%
%ADD30RoundRect,0.051000X-0.325000X-0.200000X0.325000X-0.200000X0.325000X0.200000X-0.325000X0.200000X0*%
%ADD31RoundRect,0.201000X-0.587500X-0.150000X0.587500X-0.150000X0.587500X0.150000X-0.587500X0.150000X0*%
%ADD32RoundRect,0.251000X0.275000X-0.200000X0.275000X0.200000X-0.275000X0.200000X-0.275000X-0.200000X0*%
%ADD33RoundRect,0.251000X-0.275000X0.200000X-0.275000X-0.200000X0.275000X-0.200000X0.275000X0.200000X0*%
%ADD34RoundRect,0.051000X0.600000X0.600000X-0.600000X0.600000X-0.600000X-0.600000X0.600000X-0.600000X0*%
%ADD35RoundRect,0.051000X0.750000X0.800000X-0.750000X0.800000X-0.750000X-0.800000X0.750000X-0.800000X0*%
%ADD36RoundRect,0.151000X0.637500X0.100000X-0.637500X0.100000X-0.637500X-0.100000X0.637500X-0.100000X0*%
%ADD37RoundRect,0.201000X0.150000X-0.825000X0.150000X0.825000X-0.150000X0.825000X-0.150000X-0.825000X0*%
%ADD38RoundRect,0.151000X-0.100000X0.637500X-0.100000X-0.637500X0.100000X-0.637500X0.100000X0.637500X0*%
G04 APERTURE END LIST*
D10*
X28366666Y-73794600D02*
X28366666Y-74194600D01*
X29066666Y-73994600D02*
X28366666Y-73994600D01*
X29066666Y-74827933D02*
X28733333Y-74594600D01*
X29066666Y-74427933D02*
X28366666Y-74427933D01*
X28366666Y-74694600D01*
X28400000Y-74761266D01*
X28433333Y-74794600D01*
X28500000Y-74827933D01*
X28600000Y-74827933D01*
X28666666Y-74794600D01*
X28700000Y-74761266D01*
X28733333Y-74694600D01*
X28733333Y-74427933D01*
X28866666Y-75094600D02*
X28866666Y-75427933D01*
X29066666Y-75027933D02*
X28366666Y-75261266D01*
X29066666Y-75494600D01*
X29066666Y-75727933D02*
X28366666Y-75727933D01*
X29066666Y-76127933D01*
X28366666Y-76127933D01*
X29033333Y-76427933D02*
X29066666Y-76527933D01*
X29066666Y-76694600D01*
X29033333Y-76761266D01*
X29000000Y-76794600D01*
X28933333Y-76827933D01*
X28866666Y-76827933D01*
X28800000Y-76794600D01*
X28766666Y-76761266D01*
X28733333Y-76694600D01*
X28700000Y-76561266D01*
X28666666Y-76494600D01*
X28633333Y-76461266D01*
X28566666Y-76427933D01*
X28500000Y-76427933D01*
X28433333Y-76461266D01*
X28400000Y-76494600D01*
X28366666Y-76561266D01*
X28366666Y-76727933D01*
X28400000Y-76827933D01*
X29066666Y-78061266D02*
X28733333Y-77827933D01*
X29066666Y-77661266D02*
X28366666Y-77661266D01*
X28366666Y-77927933D01*
X28400000Y-77994600D01*
X28433333Y-78027933D01*
X28500000Y-78061266D01*
X28600000Y-78061266D01*
X28666666Y-78027933D01*
X28700000Y-77994600D01*
X28733333Y-77927933D01*
X28733333Y-77661266D01*
X29066666Y-78361266D02*
X28366666Y-78361266D01*
X28400000Y-79061266D02*
X28366666Y-78994600D01*
X28366666Y-78894600D01*
X28400000Y-78794600D01*
X28466666Y-78727933D01*
X28533333Y-78694600D01*
X28666666Y-78661266D01*
X28766666Y-78661266D01*
X28900000Y-78694600D01*
X28966666Y-78727933D01*
X29033333Y-78794600D01*
X29066666Y-78894600D01*
X29066666Y-78961266D01*
X29033333Y-79061266D01*
X29000000Y-79094600D01*
X28766666Y-79094600D01*
X28766666Y-78961266D01*
X29066666Y-79394600D02*
X28366666Y-79394600D01*
X28700000Y-79394600D02*
X28700000Y-79794600D01*
X29066666Y-79794600D02*
X28366666Y-79794600D01*
X28366666Y-80027933D02*
X28366666Y-80427933D01*
X29066666Y-80227933D02*
X28366666Y-80227933D01*
X29033333Y-80627933D02*
X29066666Y-80727933D01*
X29066666Y-80894600D01*
X29033333Y-80961266D01*
X29000000Y-80994600D01*
X28933333Y-81027933D01*
X28866666Y-81027933D01*
X28800000Y-80994600D01*
X28766666Y-80961266D01*
X28733333Y-80894600D01*
X28700000Y-80761266D01*
X28666666Y-80694600D01*
X28633333Y-80661266D01*
X28566666Y-80627933D01*
X28500000Y-80627933D01*
X28433333Y-80661266D01*
X28400000Y-80694600D01*
X28366666Y-80761266D01*
X28366666Y-80927933D01*
X28400000Y-81027933D01*
X28366666Y-73794600D02*
X28366666Y-74194600D01*
X29066666Y-73994600D02*
X28366666Y-73994600D01*
X29066666Y-74827933D02*
X28733333Y-74594600D01*
X29066666Y-74427933D02*
X28366666Y-74427933D01*
X28366666Y-74694600D01*
X28400000Y-74761266D01*
X28433333Y-74794600D01*
X28500000Y-74827933D01*
X28600000Y-74827933D01*
X28666666Y-74794600D01*
X28700000Y-74761266D01*
X28733333Y-74694600D01*
X28733333Y-74427933D01*
X28866666Y-75094600D02*
X28866666Y-75427933D01*
X29066666Y-75027933D02*
X28366666Y-75261266D01*
X29066666Y-75494600D01*
X29066666Y-75727933D02*
X28366666Y-75727933D01*
X29066666Y-76127933D01*
X28366666Y-76127933D01*
X29033333Y-76427933D02*
X29066666Y-76527933D01*
X29066666Y-76694600D01*
X29033333Y-76761266D01*
X29000000Y-76794600D01*
X28933333Y-76827933D01*
X28866666Y-76827933D01*
X28800000Y-76794600D01*
X28766666Y-76761266D01*
X28733333Y-76694600D01*
X28700000Y-76561266D01*
X28666666Y-76494600D01*
X28633333Y-76461266D01*
X28566666Y-76427933D01*
X28500000Y-76427933D01*
X28433333Y-76461266D01*
X28400000Y-76494600D01*
X28366666Y-76561266D01*
X28366666Y-76727933D01*
X28400000Y-76827933D01*
X29066666Y-78061266D02*
X28733333Y-77827933D01*
X29066666Y-77661266D02*
X28366666Y-77661266D01*
X28366666Y-77927933D01*
X28400000Y-77994600D01*
X28433333Y-78027933D01*
X28500000Y-78061266D01*
X28600000Y-78061266D01*
X28666666Y-78027933D01*
X28700000Y-77994600D01*
X28733333Y-77927933D01*
X28733333Y-77661266D01*
X29066666Y-78361266D02*
X28366666Y-78361266D01*
X28400000Y-79061266D02*
X28366666Y-78994600D01*
X28366666Y-78894600D01*
X28400000Y-78794600D01*
X28466666Y-78727933D01*
X28533333Y-78694600D01*
X28666666Y-78661266D01*
X28766666Y-78661266D01*
X28900000Y-78694600D01*
X28966666Y-78727933D01*
X29033333Y-78794600D01*
X29066666Y-78894600D01*
X29066666Y-78961266D01*
X29033333Y-79061266D01*
X29000000Y-79094600D01*
X28766666Y-79094600D01*
X28766666Y-78961266D01*
X29066666Y-79394600D02*
X28366666Y-79394600D01*
X28700000Y-79394600D02*
X28700000Y-79794600D01*
X29066666Y-79794600D02*
X28366666Y-79794600D01*
X28366666Y-80027933D02*
X28366666Y-80427933D01*
X29066666Y-80227933D02*
X28366666Y-80227933D01*
X29033333Y-80627933D02*
X29066666Y-80727933D01*
X29066666Y-80894600D01*
X29033333Y-80961266D01*
X29000000Y-80994600D01*
X28933333Y-81027933D01*
X28866666Y-81027933D01*
X28800000Y-80994600D01*
X28766666Y-80961266D01*
X28733333Y-80894600D01*
X28700000Y-80761266D01*
X28666666Y-80694600D01*
X28633333Y-80661266D01*
X28566666Y-80627933D01*
X28500000Y-80627933D01*
X28433333Y-80661266D01*
X28400000Y-80694600D01*
X28366666Y-80761266D01*
X28366666Y-80927933D01*
X28400000Y-81027933D01*
D11*
%TO.C,R7*%
X21589000Y-35331400D03*
X19939000Y-35331400D03*
%TD*%
D12*
%TO.C,U9*%
X6207400Y-93134100D03*
X5557400Y-93134100D03*
X4907400Y-93134100D03*
X4257400Y-93134100D03*
X4257400Y-87409100D03*
X4907400Y-87409100D03*
X5557400Y-87409100D03*
X6207400Y-87409100D03*
%TD*%
D13*
%TO.C,RV6*%
X4267200Y-81559400D03*
D14*
X3267200Y-78309400D03*
D13*
X2267200Y-81559400D03*
%TD*%
D15*
%TO.C,R1*%
X23583400Y-28575000D03*
X21933400Y-28575000D03*
%TD*%
%TO.C,R56*%
X15405600Y-100406200D03*
X17055600Y-100406200D03*
%TD*%
D16*
%TO.C,D3*%
X13970000Y-87189000D03*
D17*
X16510000Y-87189000D03*
%TD*%
D18*
%TO.C,J4*%
X17640000Y-84540000D03*
X20740000Y-84540000D03*
X29040000Y-84540000D03*
%TD*%
%TO.C,J8*%
X12830000Y-115080000D03*
X9730000Y-115080000D03*
X1430000Y-115080000D03*
%TD*%
D16*
%TO.C,D4*%
X13970000Y-97369000D03*
D17*
X16510000Y-97369000D03*
%TD*%
D16*
%TO.C,D5*%
X13970000Y-107549000D03*
D17*
X16510000Y-107549000D03*
%TD*%
D16*
%TO.C,D6*%
X13970000Y-117729000D03*
D17*
X16510000Y-117729000D03*
%TD*%
D19*
%TO.C,D1*%
X15240000Y-29210000D03*
D17*
X15240000Y-31750000D03*
%TD*%
D18*
%TO.C,J6*%
X12830000Y-104900000D03*
X9730000Y-104900000D03*
X1430000Y-104900000D03*
%TD*%
%TO.C,J5*%
X17640000Y-94720000D03*
X20740000Y-94720000D03*
X29040000Y-94720000D03*
%TD*%
%TO.C,J7*%
X17640000Y-104900000D03*
X20740000Y-104900000D03*
X29040000Y-104900000D03*
%TD*%
%TO.C,J9*%
X17640000Y-115080000D03*
X20740000Y-115080000D03*
X29040000Y-115080000D03*
%TD*%
%TO.C,J1*%
X17640000Y-42360000D03*
X20740000Y-42360000D03*
X29040000Y-42360000D03*
%TD*%
%TO.C,J3*%
X17640000Y-70390000D03*
X20740000Y-70390000D03*
X29040000Y-70390000D03*
%TD*%
%TO.C,J2*%
X24120000Y-50370000D03*
X24120000Y-53470000D03*
X24120000Y-61770000D03*
%TD*%
D20*
%TO.C,RV5*%
X1550000Y-90460000D03*
X11150000Y-90460000D03*
D21*
X3850000Y-97460000D03*
D17*
X6350000Y-97460000D03*
X8850000Y-97460000D03*
%TD*%
D20*
%TO.C,RV4*%
X4090000Y-70390400D03*
X13690000Y-70390400D03*
D21*
X6390000Y-77890400D03*
D17*
X8890000Y-77890400D03*
X11390000Y-77890400D03*
%TD*%
D20*
%TO.C,RV1*%
X20040000Y-15559800D03*
X10440000Y-15559800D03*
D21*
X12740000Y-23059800D03*
D17*
X15240000Y-23059800D03*
X17740000Y-23059800D03*
%TD*%
D20*
%TO.C,RV2*%
X28904000Y-30480000D03*
X19304000Y-30480000D03*
D21*
X21604000Y-37480000D03*
D17*
X24104000Y-37480000D03*
X26604000Y-37480000D03*
%TD*%
D20*
%TO.C,RV3*%
X4090000Y-42360000D03*
X13690000Y-42360000D03*
D21*
X6390000Y-49860000D03*
D17*
X8890000Y-49860000D03*
X11390000Y-49860000D03*
%TD*%
D19*
%TO.C,D2*%
X15240000Y-55575200D03*
D17*
X15240000Y-58115200D03*
%TD*%
D22*
%TO.C,C25*%
X15291000Y-90741500D03*
X13741000Y-90741500D03*
%TD*%
%TO.C,C26*%
X13957500Y-92964000D03*
X12407500Y-92964000D03*
%TD*%
%TO.C,C29*%
X16751500Y-109537500D03*
X15201500Y-109537500D03*
%TD*%
%TO.C,C28*%
X25260500Y-102044500D03*
X23710500Y-102044500D03*
%TD*%
D23*
%TO.C,C1*%
X24066500Y-13081000D03*
X28466500Y-13081000D03*
%TD*%
D24*
%TO.C,C2*%
X15240000Y-14142000D03*
X15240000Y-18542000D03*
%TD*%
D22*
%TO.C,C3*%
X21285500Y-20320000D03*
X19735500Y-20320000D03*
%TD*%
%TO.C,C4*%
X16777000Y-21145500D03*
X15227000Y-21145500D03*
%TD*%
D15*
%TO.C,FB1*%
X18580500Y-12446000D03*
X20230500Y-12446000D03*
%TD*%
%TO.C,FB2*%
X11087500Y-21145500D03*
X12737500Y-21145500D03*
%TD*%
D25*
%TO.C,J10*%
X3556000Y-25527000D03*
D26*
X6096000Y-25527000D03*
X3556000Y-22987000D03*
X6096000Y-22987000D03*
X3556000Y-20447000D03*
X6096000Y-20447000D03*
X3556000Y-17907000D03*
X6096000Y-17907000D03*
X3556000Y-15367000D03*
X6096000Y-15367000D03*
%TD*%
D15*
%TO.C,R48*%
X13716500Y-89090500D03*
X15366500Y-89090500D03*
%TD*%
D22*
%TO.C,C27*%
X2692400Y-93116400D03*
X1142400Y-93116400D03*
%TD*%
D27*
%TO.C,C24*%
X7899400Y-87185100D03*
X7899400Y-88735100D03*
%TD*%
D28*
%TO.C,C19*%
X16294500Y-65278000D03*
X14744500Y-65278000D03*
%TD*%
%TO.C,C21*%
X24397000Y-76174600D03*
X22847000Y-76174600D03*
%TD*%
D22*
%TO.C,C17*%
X3289000Y-59753500D03*
X4839000Y-59753500D03*
%TD*%
D28*
%TO.C,C12*%
X18529000Y-46863000D03*
X20079000Y-46863000D03*
%TD*%
D29*
%TO.C,C16*%
X2603500Y-53873000D03*
X2603500Y-55423000D03*
%TD*%
D22*
%TO.C,C5*%
X23177200Y-22428200D03*
X24727200Y-22428200D03*
%TD*%
D29*
%TO.C,C20*%
X2540000Y-65811000D03*
X2540000Y-67361000D03*
%TD*%
%TO.C,C15*%
X12446000Y-53390500D03*
X12446000Y-54940500D03*
%TD*%
D27*
%TO.C,C6*%
X19380200Y-26124200D03*
X19380200Y-24574200D03*
%TD*%
%TO.C,C18*%
X2540000Y-64173500D03*
X2540000Y-62623500D03*
%TD*%
D22*
%TO.C,C22*%
X16471500Y-77774800D03*
X18021500Y-77774800D03*
%TD*%
%TO.C,C23*%
X13372700Y-83058000D03*
X14922700Y-83058000D03*
%TD*%
D21*
%TO.C,D7*%
X27894200Y-19431000D03*
D17*
X25354200Y-19431000D03*
%TD*%
D30*
%TO.C,Q2*%
X18455600Y-74919600D03*
X18455600Y-74269600D03*
X18455600Y-73619600D03*
X20355600Y-73619600D03*
X20355600Y-74269600D03*
X20355600Y-74919600D03*
%TD*%
D31*
%TO.C,Q1*%
X23721300Y-32664400D03*
X21846300Y-31714400D03*
X21846300Y-33614400D03*
%TD*%
D15*
%TO.C,R55*%
X2578500Y-99441000D03*
X4228500Y-99441000D03*
%TD*%
%TO.C,R57*%
X2578500Y-102743000D03*
X4228500Y-102743000D03*
%TD*%
%TO.C,R45*%
X4636000Y-83515200D03*
X6286000Y-83515200D03*
%TD*%
%TO.C,R47*%
X4649200Y-85267800D03*
X6299200Y-85267800D03*
%TD*%
D11*
%TO.C,R46*%
X24650200Y-85623400D03*
X23000200Y-85623400D03*
%TD*%
D15*
%TO.C,R49*%
X23000200Y-92837000D03*
X24650200Y-92837000D03*
%TD*%
D32*
%TO.C,R59*%
X28511500Y-108711500D03*
X28511500Y-107061500D03*
%TD*%
D33*
%TO.C,R63*%
X26606500Y-114237000D03*
X26606500Y-115887000D03*
%TD*%
D15*
%TO.C,R50*%
X13691000Y-95440500D03*
X15341000Y-95440500D03*
%TD*%
%TO.C,R60*%
X10325500Y-107569000D03*
X11975500Y-107569000D03*
%TD*%
%TO.C,R64*%
X10325500Y-117729000D03*
X11975500Y-117729000D03*
%TD*%
%TO.C,R35*%
X10667500Y-70548500D03*
X9017500Y-70548500D03*
%TD*%
D11*
%TO.C,R30*%
X20460200Y-65265300D03*
X22110200Y-65265300D03*
%TD*%
D15*
%TO.C,R41*%
X10667500Y-75285600D03*
X9017500Y-75285600D03*
%TD*%
D11*
%TO.C,R25*%
X3239000Y-58166000D03*
X4889000Y-58166000D03*
%TD*%
D15*
%TO.C,R20*%
X15138000Y-51117500D03*
X13488000Y-51117500D03*
%TD*%
D11*
%TO.C,R18*%
X13500500Y-49530000D03*
X15150500Y-49530000D03*
%TD*%
D15*
%TO.C,R40*%
X12129000Y-75285600D03*
X13779000Y-75285600D03*
%TD*%
%TO.C,R39*%
X10667500Y-73723500D03*
X9017500Y-73723500D03*
%TD*%
D11*
%TO.C,R31*%
X20460200Y-66840100D03*
X22110200Y-66840100D03*
%TD*%
D15*
%TO.C,R38*%
X12129000Y-73710800D03*
X13779000Y-73710800D03*
%TD*%
%TO.C,R34*%
X10667500Y-72136000D03*
X9017500Y-72136000D03*
%TD*%
D11*
%TO.C,R33*%
X9017500Y-68961000D03*
X10667500Y-68961000D03*
%TD*%
%TO.C,R36*%
X22797000Y-72999600D03*
X24447000Y-72999600D03*
%TD*%
D15*
%TO.C,R42*%
X24447000Y-77774800D03*
X22797000Y-77774800D03*
%TD*%
%TO.C,R32*%
X16344500Y-66865500D03*
X14694500Y-66865500D03*
%TD*%
D11*
%TO.C,R37*%
X22797000Y-74574400D03*
X24447000Y-74574400D03*
%TD*%
%TO.C,R28*%
X11240000Y-59753500D03*
X12890000Y-59753500D03*
%TD*%
%TO.C,R2*%
X15253200Y-27279600D03*
X16903200Y-27279600D03*
%TD*%
D15*
%TO.C,R29*%
X9778500Y-59753500D03*
X8128500Y-59753500D03*
%TD*%
D11*
%TO.C,R24*%
X8128500Y-58166000D03*
X9778500Y-58166000D03*
%TD*%
%TO.C,R17*%
X13500500Y-47942500D03*
X15150500Y-47942500D03*
%TD*%
D32*
%TO.C,R10*%
X23241000Y-39510200D03*
X23241000Y-41160200D03*
%TD*%
D11*
%TO.C,R6*%
X14821500Y-33655000D03*
X16471500Y-33655000D03*
%TD*%
D33*
%TO.C,R9*%
X24841200Y-41160200D03*
X24841200Y-39510200D03*
%TD*%
D15*
%TO.C,R27*%
X16281000Y-61849000D03*
X14631000Y-61849000D03*
%TD*%
%TO.C,R3*%
X11899500Y-28384500D03*
X10249500Y-28384500D03*
%TD*%
%TO.C,R4*%
X11899500Y-29972000D03*
X10249500Y-29972000D03*
%TD*%
D11*
%TO.C,R5*%
X8674500Y-31623000D03*
X10324500Y-31623000D03*
%TD*%
D15*
%TO.C,R14*%
X21527000Y-45275500D03*
X23177000Y-45275500D03*
%TD*%
D11*
%TO.C,R15*%
X18479000Y-45275500D03*
X20129000Y-45275500D03*
%TD*%
D34*
%TO.C,RV7*%
X25371200Y-80153000D03*
D35*
X22121200Y-81153000D03*
D34*
X25371200Y-82153000D03*
%TD*%
D36*
%TO.C,U8*%
X24643000Y-87267500D03*
X24643000Y-87917500D03*
X24643000Y-88567500D03*
X24643000Y-89217500D03*
X24643000Y-89867500D03*
X24643000Y-90517500D03*
X24643000Y-91167500D03*
X18918000Y-91167500D03*
X18918000Y-90517500D03*
X18918000Y-89867500D03*
X18918000Y-89217500D03*
X18918000Y-88567500D03*
X18918000Y-87917500D03*
X18918000Y-87267500D03*
%TD*%
%TO.C,U1*%
X26916300Y-24044000D03*
X26916300Y-24694000D03*
X26916300Y-25344000D03*
X26916300Y-25994000D03*
X21191300Y-25994000D03*
X21191300Y-25344000D03*
X21191300Y-24694000D03*
X21191300Y-24044000D03*
%TD*%
%TO.C,U7*%
X19474100Y-79390600D03*
X19474100Y-80040600D03*
X19474100Y-80690600D03*
X19474100Y-81340600D03*
X13749100Y-81340600D03*
X13749100Y-80690600D03*
X13749100Y-80040600D03*
X13749100Y-79390600D03*
%TD*%
D37*
%TO.C,U6*%
X13144500Y-66800500D03*
X11874500Y-66800500D03*
X10604500Y-66800500D03*
X9334500Y-66800500D03*
X8064500Y-66800500D03*
X6794500Y-66800500D03*
X5524500Y-66800500D03*
X4254500Y-66800500D03*
X4254500Y-61850500D03*
X5524500Y-61850500D03*
X6794500Y-61850500D03*
X8064500Y-61850500D03*
X9334500Y-61850500D03*
X10604500Y-61850500D03*
X11874500Y-61850500D03*
X13144500Y-61850500D03*
%TD*%
D31*
%TO.C,U3*%
X10939500Y-46305000D03*
X10939500Y-44405000D03*
X12814500Y-45355000D03*
%TD*%
D15*
%TO.C,R21*%
X21653000Y-56515000D03*
X20003000Y-56515000D03*
%TD*%
D11*
%TO.C,R19*%
X12039000Y-47942500D03*
X10389000Y-47942500D03*
%TD*%
D36*
%TO.C,U10*%
X24643000Y-107587500D03*
X24643000Y-108237500D03*
X24643000Y-108887500D03*
X24643000Y-109537500D03*
X24643000Y-110187500D03*
X24643000Y-110837500D03*
X24643000Y-111487500D03*
X18918000Y-111487500D03*
X18918000Y-110837500D03*
X18918000Y-110187500D03*
X18918000Y-109537500D03*
X18918000Y-108887500D03*
X18918000Y-108237500D03*
X18918000Y-107587500D03*
%TD*%
%TO.C,U5*%
X10546000Y-52533000D03*
X10546000Y-53183000D03*
X10546000Y-53833000D03*
X10546000Y-54483000D03*
X10546000Y-55133000D03*
X10546000Y-55783000D03*
X10546000Y-56433000D03*
X4821000Y-56433000D03*
X4821000Y-55783000D03*
X4821000Y-55133000D03*
X4821000Y-54483000D03*
X4821000Y-53833000D03*
X4821000Y-53183000D03*
X4821000Y-52533000D03*
%TD*%
D22*
%TO.C,C13*%
X7226500Y-47942500D03*
X5676500Y-47942500D03*
%TD*%
D28*
%TO.C,C9*%
X16421500Y-37020500D03*
X14871500Y-37020500D03*
%TD*%
D11*
%TO.C,R51*%
X6184400Y-95453200D03*
X4534400Y-95453200D03*
%TD*%
%TO.C,R53*%
X25310500Y-98234500D03*
X23660500Y-98234500D03*
%TD*%
%TO.C,R52*%
X25310500Y-99822000D03*
X23660500Y-99822000D03*
%TD*%
D34*
%TO.C,RV8*%
X22056500Y-98250500D03*
D35*
X18806500Y-99250500D03*
D34*
X22056500Y-100250500D03*
%TD*%
D11*
%TO.C,R11*%
X8357000Y-40703500D03*
X10007000Y-40703500D03*
%TD*%
D15*
%TO.C,R8*%
X16471500Y-38608000D03*
X14821500Y-38608000D03*
%TD*%
%TO.C,R13*%
X9181600Y-44005500D03*
X7531600Y-44005500D03*
%TD*%
%TO.C,R12*%
X10007000Y-42291000D03*
X8357000Y-42291000D03*
%TD*%
%TO.C,R26*%
X20003000Y-61277500D03*
X21653000Y-61277500D03*
%TD*%
D11*
%TO.C,R22*%
X20003000Y-58102500D03*
X21653000Y-58102500D03*
%TD*%
D15*
%TO.C,R23*%
X21653000Y-59690000D03*
X20003000Y-59690000D03*
%TD*%
D29*
%TO.C,C10*%
X2794000Y-37033000D03*
X2794000Y-38583000D03*
%TD*%
D27*
%TO.C,C8*%
X2794000Y-35217500D03*
X2794000Y-33667500D03*
%TD*%
D37*
%TO.C,U2*%
X13271500Y-38606500D03*
X12001500Y-38606500D03*
X10731500Y-38606500D03*
X9461500Y-38606500D03*
X8191500Y-38606500D03*
X6921500Y-38606500D03*
X5651500Y-38606500D03*
X4381500Y-38606500D03*
X4381500Y-33656500D03*
X5651500Y-33656500D03*
X6921500Y-33656500D03*
X8191500Y-33656500D03*
X9461500Y-33656500D03*
X10731500Y-33656500D03*
X12001500Y-33656500D03*
X13271500Y-33656500D03*
%TD*%
D22*
%TO.C,C7*%
X5613000Y-31623000D03*
X7163000Y-31623000D03*
%TD*%
D11*
%TO.C,R16*%
X7531600Y-45593000D03*
X9181600Y-45593000D03*
%TD*%
D15*
%TO.C,R58*%
X2578500Y-101092000D03*
X4228500Y-101092000D03*
%TD*%
D22*
%TO.C,C11*%
X21577000Y-46863000D03*
X23127000Y-46863000D03*
%TD*%
D29*
%TO.C,C14*%
X17526000Y-52946000D03*
X17526000Y-54496000D03*
%TD*%
D38*
%TO.C,U4*%
X19154500Y-48763000D03*
X19804500Y-48763000D03*
X20454500Y-48763000D03*
X21104500Y-48763000D03*
X21104500Y-54488000D03*
X20454500Y-54488000D03*
X19804500Y-54488000D03*
X19154500Y-54488000D03*
%TD*%
D11*
%TO.C,R61*%
X28193500Y-112712500D03*
X26543500Y-112712500D03*
%TD*%
%TO.C,R62*%
X28193500Y-111125000D03*
X26543500Y-111125000D03*
%TD*%
%TO.C,R54*%
X8636000Y-99441000D03*
X6986000Y-99441000D03*
%TD*%
D15*
%TO.C,R43*%
X11747000Y-80187800D03*
X10097000Y-80187800D03*
%TD*%
%TO.C,R44*%
X11747000Y-81813400D03*
X10097000Y-81813400D03*
%TD*%
G36*
X25358087Y-111064977D02*
G01*
X25357626Y-111066391D01*
X25318303Y-111113444D01*
X25309670Y-111182160D01*
X25339633Y-111244789D01*
X25348303Y-111252300D01*
X25348957Y-111254190D01*
X25347647Y-111255702D01*
X25345882Y-111255475D01*
X25337506Y-111249879D01*
X25280301Y-111238500D01*
X24005699Y-111238500D01*
X23948494Y-111249879D01*
X23931020Y-111261555D01*
X23929024Y-111261686D01*
X23927913Y-111260023D01*
X23928374Y-111258609D01*
X23967697Y-111211556D01*
X23976330Y-111142840D01*
X23946367Y-111080211D01*
X23937697Y-111072700D01*
X23937043Y-111070810D01*
X23938353Y-111069298D01*
X23940118Y-111069525D01*
X23948494Y-111075121D01*
X24005699Y-111086500D01*
X25280301Y-111086500D01*
X25337506Y-111075121D01*
X25354980Y-111063445D01*
X25356976Y-111063314D01*
X25358087Y-111064977D01*
G37*
G36*
X19633087Y-111064977D02*
G01*
X19632626Y-111066391D01*
X19593303Y-111113444D01*
X19584670Y-111182160D01*
X19614633Y-111244789D01*
X19623303Y-111252300D01*
X19623957Y-111254190D01*
X19622647Y-111255702D01*
X19620882Y-111255475D01*
X19612506Y-111249879D01*
X19555301Y-111238500D01*
X18280699Y-111238500D01*
X18223494Y-111249879D01*
X18206020Y-111261555D01*
X18204024Y-111261686D01*
X18202913Y-111260023D01*
X18203374Y-111258609D01*
X18242697Y-111211556D01*
X18251330Y-111142840D01*
X18221367Y-111080211D01*
X18212697Y-111072700D01*
X18212043Y-111070810D01*
X18213353Y-111069298D01*
X18215118Y-111069525D01*
X18223494Y-111075121D01*
X18280699Y-111086500D01*
X19555301Y-111086500D01*
X19612506Y-111075121D01*
X19629980Y-111063445D01*
X19631976Y-111063314D01*
X19633087Y-111064977D01*
G37*
G36*
X19633087Y-110414977D02*
G01*
X19632626Y-110416391D01*
X19593303Y-110463444D01*
X19584670Y-110532160D01*
X19614633Y-110594789D01*
X19623303Y-110602300D01*
X19623957Y-110604190D01*
X19622647Y-110605702D01*
X19620882Y-110605475D01*
X19612506Y-110599879D01*
X19555301Y-110588500D01*
X18280699Y-110588500D01*
X18223494Y-110599879D01*
X18206020Y-110611555D01*
X18204024Y-110611686D01*
X18202913Y-110610023D01*
X18203374Y-110608609D01*
X18242697Y-110561556D01*
X18251330Y-110492840D01*
X18221367Y-110430211D01*
X18212697Y-110422700D01*
X18212043Y-110420810D01*
X18213353Y-110419298D01*
X18215118Y-110419525D01*
X18223494Y-110425121D01*
X18280699Y-110436500D01*
X19555301Y-110436500D01*
X19612506Y-110425121D01*
X19629980Y-110413445D01*
X19631976Y-110413314D01*
X19633087Y-110414977D01*
G37*
G36*
X25358087Y-110414977D02*
G01*
X25357626Y-110416391D01*
X25318303Y-110463444D01*
X25309670Y-110532160D01*
X25339633Y-110594789D01*
X25348303Y-110602300D01*
X25348957Y-110604190D01*
X25347647Y-110605702D01*
X25345882Y-110605475D01*
X25337506Y-110599879D01*
X25280301Y-110588500D01*
X24005699Y-110588500D01*
X23948494Y-110599879D01*
X23931020Y-110611555D01*
X23929024Y-110611686D01*
X23927913Y-110610023D01*
X23928374Y-110608609D01*
X23967697Y-110561556D01*
X23976330Y-110492840D01*
X23946367Y-110430211D01*
X23937697Y-110422700D01*
X23937043Y-110420810D01*
X23938353Y-110419298D01*
X23940118Y-110419525D01*
X23948494Y-110425121D01*
X24005699Y-110436500D01*
X25280301Y-110436500D01*
X25337506Y-110425121D01*
X25354980Y-110413445D01*
X25356976Y-110413314D01*
X25358087Y-110414977D01*
G37*
G36*
X25358087Y-109764977D02*
G01*
X25357626Y-109766391D01*
X25318303Y-109813444D01*
X25309670Y-109882160D01*
X25339633Y-109944789D01*
X25348303Y-109952300D01*
X25348957Y-109954190D01*
X25347647Y-109955702D01*
X25345882Y-109955475D01*
X25337506Y-109949879D01*
X25280301Y-109938500D01*
X24005699Y-109938500D01*
X23948494Y-109949879D01*
X23931020Y-109961555D01*
X23929024Y-109961686D01*
X23927913Y-109960023D01*
X23928374Y-109958609D01*
X23967697Y-109911556D01*
X23976330Y-109842840D01*
X23946367Y-109780211D01*
X23937697Y-109772700D01*
X23937043Y-109770810D01*
X23938353Y-109769298D01*
X23940118Y-109769525D01*
X23948494Y-109775121D01*
X24005699Y-109786500D01*
X25280301Y-109786500D01*
X25337506Y-109775121D01*
X25354980Y-109763445D01*
X25356976Y-109763314D01*
X25358087Y-109764977D01*
G37*
G36*
X19633087Y-109764977D02*
G01*
X19632626Y-109766391D01*
X19593303Y-109813444D01*
X19584670Y-109882160D01*
X19614633Y-109944789D01*
X19623303Y-109952300D01*
X19623957Y-109954190D01*
X19622647Y-109955702D01*
X19620882Y-109955475D01*
X19612506Y-109949879D01*
X19555301Y-109938500D01*
X18280699Y-109938500D01*
X18223494Y-109949879D01*
X18206020Y-109961555D01*
X18204024Y-109961686D01*
X18202913Y-109960023D01*
X18203374Y-109958609D01*
X18242697Y-109911556D01*
X18251330Y-109842840D01*
X18221367Y-109780211D01*
X18212697Y-109772700D01*
X18212043Y-109770810D01*
X18213353Y-109769298D01*
X18215118Y-109769525D01*
X18223494Y-109775121D01*
X18280699Y-109786500D01*
X19555301Y-109786500D01*
X19612506Y-109775121D01*
X19629980Y-109763445D01*
X19631976Y-109763314D01*
X19633087Y-109764977D01*
G37*
G36*
X25358087Y-109114977D02*
G01*
X25357626Y-109116391D01*
X25318303Y-109163444D01*
X25309670Y-109232160D01*
X25339633Y-109294789D01*
X25348303Y-109302300D01*
X25348957Y-109304190D01*
X25347647Y-109305702D01*
X25345882Y-109305475D01*
X25337506Y-109299879D01*
X25280301Y-109288500D01*
X24005699Y-109288500D01*
X23948494Y-109299879D01*
X23931020Y-109311555D01*
X23929024Y-109311686D01*
X23927913Y-109310023D01*
X23928374Y-109308609D01*
X23967697Y-109261556D01*
X23976330Y-109192840D01*
X23946367Y-109130211D01*
X23937697Y-109122700D01*
X23937043Y-109120810D01*
X23938353Y-109119298D01*
X23940118Y-109119525D01*
X23948494Y-109125121D01*
X24005699Y-109136500D01*
X25280301Y-109136500D01*
X25337506Y-109125121D01*
X25354980Y-109113445D01*
X25356976Y-109113314D01*
X25358087Y-109114977D01*
G37*
G36*
X19633087Y-109114977D02*
G01*
X19632626Y-109116391D01*
X19593303Y-109163444D01*
X19584670Y-109232160D01*
X19614633Y-109294789D01*
X19623303Y-109302300D01*
X19623957Y-109304190D01*
X19622647Y-109305702D01*
X19620882Y-109305475D01*
X19612506Y-109299879D01*
X19555301Y-109288500D01*
X18280699Y-109288500D01*
X18223494Y-109299879D01*
X18206020Y-109311555D01*
X18204024Y-109311686D01*
X18202913Y-109310023D01*
X18203374Y-109308609D01*
X18242697Y-109261556D01*
X18251330Y-109192840D01*
X18221367Y-109130211D01*
X18212697Y-109122700D01*
X18212043Y-109120810D01*
X18213353Y-109119298D01*
X18215118Y-109119525D01*
X18223494Y-109125121D01*
X18280699Y-109136500D01*
X19555301Y-109136500D01*
X19612506Y-109125121D01*
X19629980Y-109113445D01*
X19631976Y-109113314D01*
X19633087Y-109114977D01*
G37*
G36*
X25358087Y-108464977D02*
G01*
X25357626Y-108466391D01*
X25318303Y-108513444D01*
X25309670Y-108582160D01*
X25339633Y-108644789D01*
X25348303Y-108652300D01*
X25348957Y-108654190D01*
X25347647Y-108655702D01*
X25345882Y-108655475D01*
X25337506Y-108649879D01*
X25280301Y-108638500D01*
X24005699Y-108638500D01*
X23948494Y-108649879D01*
X23931020Y-108661555D01*
X23929024Y-108661686D01*
X23927913Y-108660023D01*
X23928374Y-108658609D01*
X23967697Y-108611556D01*
X23976330Y-108542840D01*
X23946367Y-108480211D01*
X23937697Y-108472700D01*
X23937043Y-108470810D01*
X23938353Y-108469298D01*
X23940118Y-108469525D01*
X23948494Y-108475121D01*
X24005699Y-108486500D01*
X25280301Y-108486500D01*
X25337506Y-108475121D01*
X25354980Y-108463445D01*
X25356976Y-108463314D01*
X25358087Y-108464977D01*
G37*
G36*
X19633087Y-108464977D02*
G01*
X19632626Y-108466391D01*
X19593303Y-108513444D01*
X19584670Y-108582160D01*
X19614633Y-108644789D01*
X19623303Y-108652300D01*
X19623957Y-108654190D01*
X19622647Y-108655702D01*
X19620882Y-108655475D01*
X19612506Y-108649879D01*
X19555301Y-108638500D01*
X18280699Y-108638500D01*
X18223494Y-108649879D01*
X18206020Y-108661555D01*
X18204024Y-108661686D01*
X18202913Y-108660023D01*
X18203374Y-108658609D01*
X18242697Y-108611556D01*
X18251330Y-108542840D01*
X18221367Y-108480211D01*
X18212697Y-108472700D01*
X18212043Y-108470810D01*
X18213353Y-108469298D01*
X18215118Y-108469525D01*
X18223494Y-108475121D01*
X18280699Y-108486500D01*
X19555301Y-108486500D01*
X19612506Y-108475121D01*
X19629980Y-108463445D01*
X19631976Y-108463314D01*
X19633087Y-108464977D01*
G37*
G36*
X19633087Y-107814977D02*
G01*
X19632626Y-107816391D01*
X19593303Y-107863444D01*
X19584670Y-107932160D01*
X19614633Y-107994789D01*
X19623303Y-108002300D01*
X19623957Y-108004190D01*
X19622647Y-108005702D01*
X19620882Y-108005475D01*
X19612506Y-107999879D01*
X19555301Y-107988500D01*
X18280699Y-107988500D01*
X18223494Y-107999879D01*
X18206020Y-108011555D01*
X18204024Y-108011686D01*
X18202913Y-108010023D01*
X18203374Y-108008609D01*
X18242697Y-107961556D01*
X18251330Y-107892840D01*
X18221367Y-107830211D01*
X18212697Y-107822700D01*
X18212043Y-107820810D01*
X18213353Y-107819298D01*
X18215118Y-107819525D01*
X18223494Y-107825121D01*
X18280699Y-107836500D01*
X19555301Y-107836500D01*
X19612506Y-107825121D01*
X19629980Y-107813445D01*
X19631976Y-107813314D01*
X19633087Y-107814977D01*
G37*
G36*
X25358087Y-107814977D02*
G01*
X25357626Y-107816391D01*
X25318303Y-107863444D01*
X25309670Y-107932160D01*
X25339633Y-107994789D01*
X25348303Y-108002300D01*
X25348957Y-108004190D01*
X25347647Y-108005702D01*
X25345882Y-108005475D01*
X25337506Y-107999879D01*
X25280301Y-107988500D01*
X24005699Y-107988500D01*
X23948494Y-107999879D01*
X23931020Y-108011555D01*
X23929024Y-108011686D01*
X23927913Y-108010023D01*
X23928374Y-108008609D01*
X23967697Y-107961556D01*
X23976330Y-107892840D01*
X23946367Y-107830211D01*
X23937697Y-107822700D01*
X23937043Y-107820810D01*
X23938353Y-107819298D01*
X23940118Y-107819525D01*
X23948494Y-107825121D01*
X24005699Y-107836500D01*
X25280301Y-107836500D01*
X25337506Y-107825121D01*
X25354980Y-107813445D01*
X25356976Y-107813314D01*
X25358087Y-107814977D01*
G37*
G36*
X5136291Y-92419474D02*
G01*
X5183344Y-92458797D01*
X5252060Y-92467430D01*
X5314689Y-92437467D01*
X5322200Y-92428797D01*
X5324090Y-92428143D01*
X5325602Y-92429453D01*
X5325375Y-92431218D01*
X5319779Y-92439594D01*
X5308400Y-92496799D01*
X5308400Y-93771401D01*
X5319779Y-93828606D01*
X5331455Y-93846080D01*
X5331586Y-93848076D01*
X5329923Y-93849187D01*
X5328509Y-93848726D01*
X5281456Y-93809403D01*
X5212740Y-93800770D01*
X5150111Y-93830733D01*
X5142600Y-93839403D01*
X5140710Y-93840057D01*
X5139198Y-93838747D01*
X5139425Y-93836982D01*
X5145021Y-93828606D01*
X5156400Y-93771401D01*
X5156400Y-92496799D01*
X5145021Y-92439594D01*
X5133345Y-92422120D01*
X5133214Y-92420124D01*
X5134877Y-92419013D01*
X5136291Y-92419474D01*
G37*
G36*
X5786291Y-92419474D02*
G01*
X5833344Y-92458797D01*
X5902060Y-92467430D01*
X5964689Y-92437467D01*
X5972200Y-92428797D01*
X5974090Y-92428143D01*
X5975602Y-92429453D01*
X5975375Y-92431218D01*
X5969779Y-92439594D01*
X5958400Y-92496799D01*
X5958400Y-93771401D01*
X5969779Y-93828606D01*
X5981455Y-93846080D01*
X5981586Y-93848076D01*
X5979923Y-93849187D01*
X5978509Y-93848726D01*
X5931456Y-93809403D01*
X5862740Y-93800770D01*
X5800111Y-93830733D01*
X5792600Y-93839403D01*
X5790710Y-93840057D01*
X5789198Y-93838747D01*
X5789425Y-93836982D01*
X5795021Y-93828606D01*
X5806400Y-93771401D01*
X5806400Y-92496799D01*
X5795021Y-92439594D01*
X5783345Y-92422120D01*
X5783214Y-92420124D01*
X5784877Y-92419013D01*
X5786291Y-92419474D01*
G37*
G36*
X4486291Y-92419474D02*
G01*
X4533344Y-92458797D01*
X4602060Y-92467430D01*
X4664689Y-92437467D01*
X4672200Y-92428797D01*
X4674090Y-92428143D01*
X4675602Y-92429453D01*
X4675375Y-92431218D01*
X4669779Y-92439594D01*
X4658400Y-92496799D01*
X4658400Y-93771401D01*
X4669779Y-93828606D01*
X4681455Y-93846080D01*
X4681586Y-93848076D01*
X4679923Y-93849187D01*
X4678509Y-93848726D01*
X4631456Y-93809403D01*
X4562740Y-93800770D01*
X4500111Y-93830733D01*
X4492600Y-93839403D01*
X4490710Y-93840057D01*
X4489198Y-93838747D01*
X4489425Y-93836982D01*
X4495021Y-93828606D01*
X4506400Y-93771401D01*
X4506400Y-92496799D01*
X4495021Y-92439594D01*
X4483345Y-92422120D01*
X4483214Y-92420124D01*
X4484877Y-92419013D01*
X4486291Y-92419474D01*
G37*
G36*
X25358087Y-90744977D02*
G01*
X25357626Y-90746391D01*
X25318303Y-90793444D01*
X25309670Y-90862160D01*
X25339633Y-90924789D01*
X25348303Y-90932300D01*
X25348957Y-90934190D01*
X25347647Y-90935702D01*
X25345882Y-90935475D01*
X25337506Y-90929879D01*
X25280301Y-90918500D01*
X24005699Y-90918500D01*
X23948494Y-90929879D01*
X23931020Y-90941555D01*
X23929024Y-90941686D01*
X23927913Y-90940023D01*
X23928374Y-90938609D01*
X23967697Y-90891556D01*
X23976330Y-90822840D01*
X23946367Y-90760211D01*
X23937697Y-90752700D01*
X23937043Y-90750810D01*
X23938353Y-90749298D01*
X23940118Y-90749525D01*
X23948494Y-90755121D01*
X24005699Y-90766500D01*
X25280301Y-90766500D01*
X25337506Y-90755121D01*
X25354980Y-90743445D01*
X25356976Y-90743314D01*
X25358087Y-90744977D01*
G37*
G36*
X19633087Y-90744977D02*
G01*
X19632626Y-90746391D01*
X19593303Y-90793444D01*
X19584670Y-90862160D01*
X19614633Y-90924789D01*
X19623303Y-90932300D01*
X19623957Y-90934190D01*
X19622647Y-90935702D01*
X19620882Y-90935475D01*
X19612506Y-90929879D01*
X19555301Y-90918500D01*
X18280699Y-90918500D01*
X18223494Y-90929879D01*
X18206020Y-90941555D01*
X18204024Y-90941686D01*
X18202913Y-90940023D01*
X18203374Y-90938609D01*
X18242697Y-90891556D01*
X18251330Y-90822840D01*
X18221367Y-90760211D01*
X18212697Y-90752700D01*
X18212043Y-90750810D01*
X18213353Y-90749298D01*
X18215118Y-90749525D01*
X18223494Y-90755121D01*
X18280699Y-90766500D01*
X19555301Y-90766500D01*
X19612506Y-90755121D01*
X19629980Y-90743445D01*
X19631976Y-90743314D01*
X19633087Y-90744977D01*
G37*
G36*
X25358087Y-90094977D02*
G01*
X25357626Y-90096391D01*
X25318303Y-90143444D01*
X25309670Y-90212160D01*
X25339633Y-90274789D01*
X25348303Y-90282300D01*
X25348957Y-90284190D01*
X25347647Y-90285702D01*
X25345882Y-90285475D01*
X25337506Y-90279879D01*
X25280301Y-90268500D01*
X24005699Y-90268500D01*
X23948494Y-90279879D01*
X23931020Y-90291555D01*
X23929024Y-90291686D01*
X23927913Y-90290023D01*
X23928374Y-90288609D01*
X23967697Y-90241556D01*
X23976330Y-90172840D01*
X23946367Y-90110211D01*
X23937697Y-90102700D01*
X23937043Y-90100810D01*
X23938353Y-90099298D01*
X23940118Y-90099525D01*
X23948494Y-90105121D01*
X24005699Y-90116500D01*
X25280301Y-90116500D01*
X25337506Y-90105121D01*
X25354980Y-90093445D01*
X25356976Y-90093314D01*
X25358087Y-90094977D01*
G37*
G36*
X19633087Y-90094977D02*
G01*
X19632626Y-90096391D01*
X19593303Y-90143444D01*
X19584670Y-90212160D01*
X19614633Y-90274789D01*
X19623303Y-90282300D01*
X19623957Y-90284190D01*
X19622647Y-90285702D01*
X19620882Y-90285475D01*
X19612506Y-90279879D01*
X19555301Y-90268500D01*
X18280699Y-90268500D01*
X18223494Y-90279879D01*
X18206020Y-90291555D01*
X18204024Y-90291686D01*
X18202913Y-90290023D01*
X18203374Y-90288609D01*
X18242697Y-90241556D01*
X18251330Y-90172840D01*
X18221367Y-90110211D01*
X18212697Y-90102700D01*
X18212043Y-90100810D01*
X18213353Y-90099298D01*
X18215118Y-90099525D01*
X18223494Y-90105121D01*
X18280699Y-90116500D01*
X19555301Y-90116500D01*
X19612506Y-90105121D01*
X19629980Y-90093445D01*
X19631976Y-90093314D01*
X19633087Y-90094977D01*
G37*
G36*
X25358087Y-89444977D02*
G01*
X25357626Y-89446391D01*
X25318303Y-89493444D01*
X25309670Y-89562160D01*
X25339633Y-89624789D01*
X25348303Y-89632300D01*
X25348957Y-89634190D01*
X25347647Y-89635702D01*
X25345882Y-89635475D01*
X25337506Y-89629879D01*
X25280301Y-89618500D01*
X24005699Y-89618500D01*
X23948494Y-89629879D01*
X23931020Y-89641555D01*
X23929024Y-89641686D01*
X23927913Y-89640023D01*
X23928374Y-89638609D01*
X23967697Y-89591556D01*
X23976330Y-89522840D01*
X23946367Y-89460211D01*
X23937697Y-89452700D01*
X23937043Y-89450810D01*
X23938353Y-89449298D01*
X23940118Y-89449525D01*
X23948494Y-89455121D01*
X24005699Y-89466500D01*
X25280301Y-89466500D01*
X25337506Y-89455121D01*
X25354980Y-89443445D01*
X25356976Y-89443314D01*
X25358087Y-89444977D01*
G37*
G36*
X19633087Y-89444977D02*
G01*
X19632626Y-89446391D01*
X19593303Y-89493444D01*
X19584670Y-89562160D01*
X19614633Y-89624789D01*
X19623303Y-89632300D01*
X19623957Y-89634190D01*
X19622647Y-89635702D01*
X19620882Y-89635475D01*
X19612506Y-89629879D01*
X19555301Y-89618500D01*
X18280699Y-89618500D01*
X18223494Y-89629879D01*
X18206020Y-89641555D01*
X18204024Y-89641686D01*
X18202913Y-89640023D01*
X18203374Y-89638609D01*
X18242697Y-89591556D01*
X18251330Y-89522840D01*
X18221367Y-89460211D01*
X18212697Y-89452700D01*
X18212043Y-89450810D01*
X18213353Y-89449298D01*
X18215118Y-89449525D01*
X18223494Y-89455121D01*
X18280699Y-89466500D01*
X19555301Y-89466500D01*
X19612506Y-89455121D01*
X19629980Y-89443445D01*
X19631976Y-89443314D01*
X19633087Y-89444977D01*
G37*
G36*
X25358087Y-88794977D02*
G01*
X25357626Y-88796391D01*
X25318303Y-88843444D01*
X25309670Y-88912160D01*
X25339633Y-88974789D01*
X25348303Y-88982300D01*
X25348957Y-88984190D01*
X25347647Y-88985702D01*
X25345882Y-88985475D01*
X25337506Y-88979879D01*
X25280301Y-88968500D01*
X24005699Y-88968500D01*
X23948494Y-88979879D01*
X23931020Y-88991555D01*
X23929024Y-88991686D01*
X23927913Y-88990023D01*
X23928374Y-88988609D01*
X23967697Y-88941556D01*
X23976330Y-88872840D01*
X23946367Y-88810211D01*
X23937697Y-88802700D01*
X23937043Y-88800810D01*
X23938353Y-88799298D01*
X23940118Y-88799525D01*
X23948494Y-88805121D01*
X24005699Y-88816500D01*
X25280301Y-88816500D01*
X25337506Y-88805121D01*
X25354980Y-88793445D01*
X25356976Y-88793314D01*
X25358087Y-88794977D01*
G37*
G36*
X19633087Y-88794977D02*
G01*
X19632626Y-88796391D01*
X19593303Y-88843444D01*
X19584670Y-88912160D01*
X19614633Y-88974789D01*
X19623303Y-88982300D01*
X19623957Y-88984190D01*
X19622647Y-88985702D01*
X19620882Y-88985475D01*
X19612506Y-88979879D01*
X19555301Y-88968500D01*
X18280699Y-88968500D01*
X18223494Y-88979879D01*
X18206020Y-88991555D01*
X18204024Y-88991686D01*
X18202913Y-88990023D01*
X18203374Y-88988609D01*
X18242697Y-88941556D01*
X18251330Y-88872840D01*
X18221367Y-88810211D01*
X18212697Y-88802700D01*
X18212043Y-88800810D01*
X18213353Y-88799298D01*
X18215118Y-88799525D01*
X18223494Y-88805121D01*
X18280699Y-88816500D01*
X19555301Y-88816500D01*
X19612506Y-88805121D01*
X19629980Y-88793445D01*
X19631976Y-88793314D01*
X19633087Y-88794977D01*
G37*
G36*
X25358087Y-88144977D02*
G01*
X25357626Y-88146391D01*
X25318303Y-88193444D01*
X25309670Y-88262160D01*
X25339633Y-88324789D01*
X25348303Y-88332300D01*
X25348957Y-88334190D01*
X25347647Y-88335702D01*
X25345882Y-88335475D01*
X25337506Y-88329879D01*
X25280301Y-88318500D01*
X24005699Y-88318500D01*
X23948494Y-88329879D01*
X23931020Y-88341555D01*
X23929024Y-88341686D01*
X23927913Y-88340023D01*
X23928374Y-88338609D01*
X23967697Y-88291556D01*
X23976330Y-88222840D01*
X23946367Y-88160211D01*
X23937697Y-88152700D01*
X23937043Y-88150810D01*
X23938353Y-88149298D01*
X23940118Y-88149525D01*
X23948494Y-88155121D01*
X24005699Y-88166500D01*
X25280301Y-88166500D01*
X25337506Y-88155121D01*
X25354980Y-88143445D01*
X25356976Y-88143314D01*
X25358087Y-88144977D01*
G37*
G36*
X19633087Y-88144977D02*
G01*
X19632626Y-88146391D01*
X19593303Y-88193444D01*
X19584670Y-88262160D01*
X19614633Y-88324789D01*
X19623303Y-88332300D01*
X19623957Y-88334190D01*
X19622647Y-88335702D01*
X19620882Y-88335475D01*
X19612506Y-88329879D01*
X19555301Y-88318500D01*
X18280699Y-88318500D01*
X18223494Y-88329879D01*
X18206020Y-88341555D01*
X18204024Y-88341686D01*
X18202913Y-88340023D01*
X18203374Y-88338609D01*
X18242697Y-88291556D01*
X18251330Y-88222840D01*
X18221367Y-88160211D01*
X18212697Y-88152700D01*
X18212043Y-88150810D01*
X18213353Y-88149298D01*
X18215118Y-88149525D01*
X18223494Y-88155121D01*
X18280699Y-88166500D01*
X19555301Y-88166500D01*
X19612506Y-88155121D01*
X19629980Y-88143445D01*
X19631976Y-88143314D01*
X19633087Y-88144977D01*
G37*
G36*
X5136291Y-86694474D02*
G01*
X5183344Y-86733797D01*
X5252060Y-86742430D01*
X5314689Y-86712467D01*
X5322199Y-86703799D01*
X5324089Y-86703145D01*
X5325601Y-86704455D01*
X5325374Y-86706220D01*
X5319779Y-86714594D01*
X5308400Y-86771799D01*
X5308400Y-88046401D01*
X5319779Y-88103606D01*
X5331455Y-88121080D01*
X5331586Y-88123076D01*
X5329923Y-88124187D01*
X5328509Y-88123726D01*
X5281456Y-88084403D01*
X5212740Y-88075770D01*
X5150111Y-88105733D01*
X5142600Y-88114403D01*
X5140710Y-88115057D01*
X5139198Y-88113747D01*
X5139425Y-88111982D01*
X5145021Y-88103606D01*
X5156400Y-88046401D01*
X5156400Y-86771799D01*
X5145021Y-86714594D01*
X5133345Y-86697120D01*
X5133214Y-86695124D01*
X5134877Y-86694013D01*
X5136291Y-86694474D01*
G37*
G36*
X4486291Y-86694474D02*
G01*
X4533344Y-86733797D01*
X4602060Y-86742430D01*
X4664689Y-86712467D01*
X4672199Y-86703799D01*
X4674089Y-86703145D01*
X4675601Y-86704455D01*
X4675374Y-86706220D01*
X4669779Y-86714594D01*
X4658400Y-86771799D01*
X4658400Y-88046401D01*
X4669779Y-88103606D01*
X4681455Y-88121080D01*
X4681586Y-88123076D01*
X4679923Y-88124187D01*
X4678509Y-88123726D01*
X4631456Y-88084403D01*
X4562740Y-88075770D01*
X4500111Y-88105733D01*
X4492600Y-88114403D01*
X4490710Y-88115057D01*
X4489198Y-88113747D01*
X4489425Y-88111982D01*
X4495021Y-88103606D01*
X4506400Y-88046401D01*
X4506400Y-86771799D01*
X4495021Y-86714594D01*
X4483345Y-86697120D01*
X4483214Y-86695124D01*
X4484877Y-86694013D01*
X4486291Y-86694474D01*
G37*
G36*
X5786291Y-86694474D02*
G01*
X5833344Y-86733797D01*
X5902060Y-86742430D01*
X5964689Y-86712467D01*
X5972199Y-86703799D01*
X5974089Y-86703145D01*
X5975601Y-86704455D01*
X5975374Y-86706220D01*
X5969779Y-86714594D01*
X5958400Y-86771799D01*
X5958400Y-88046401D01*
X5969779Y-88103606D01*
X5981455Y-88121080D01*
X5981586Y-88123076D01*
X5979923Y-88124187D01*
X5978509Y-88123726D01*
X5931456Y-88084403D01*
X5862740Y-88075770D01*
X5800111Y-88105733D01*
X5792600Y-88114403D01*
X5790710Y-88115057D01*
X5789198Y-88113747D01*
X5789425Y-88111982D01*
X5795021Y-88103606D01*
X5806400Y-88046401D01*
X5806400Y-86771799D01*
X5795021Y-86714594D01*
X5783345Y-86697120D01*
X5783214Y-86695124D01*
X5784877Y-86694013D01*
X5786291Y-86694474D01*
G37*
G36*
X25358087Y-87494977D02*
G01*
X25357626Y-87496391D01*
X25318303Y-87543444D01*
X25309670Y-87612160D01*
X25339633Y-87674789D01*
X25348303Y-87682300D01*
X25348957Y-87684190D01*
X25347647Y-87685702D01*
X25345882Y-87685475D01*
X25337506Y-87679879D01*
X25280301Y-87668500D01*
X24005699Y-87668500D01*
X23948494Y-87679879D01*
X23931020Y-87691555D01*
X23929024Y-87691686D01*
X23927913Y-87690023D01*
X23928374Y-87688609D01*
X23967697Y-87641556D01*
X23976330Y-87572840D01*
X23946367Y-87510211D01*
X23937697Y-87502700D01*
X23937043Y-87500810D01*
X23938353Y-87499298D01*
X23940118Y-87499525D01*
X23948494Y-87505121D01*
X24005699Y-87516500D01*
X25280301Y-87516500D01*
X25337506Y-87505121D01*
X25354980Y-87493445D01*
X25356976Y-87493314D01*
X25358087Y-87494977D01*
G37*
G36*
X19633087Y-87494977D02*
G01*
X19632626Y-87496391D01*
X19593303Y-87543444D01*
X19584670Y-87612160D01*
X19614633Y-87674789D01*
X19623303Y-87682300D01*
X19623957Y-87684190D01*
X19622647Y-87685702D01*
X19620882Y-87685475D01*
X19612506Y-87679879D01*
X19555301Y-87668500D01*
X18280699Y-87668500D01*
X18223494Y-87679879D01*
X18206020Y-87691555D01*
X18204024Y-87691686D01*
X18202913Y-87690023D01*
X18203374Y-87688609D01*
X18242697Y-87641556D01*
X18251330Y-87572840D01*
X18221367Y-87510211D01*
X18212697Y-87502700D01*
X18212043Y-87500810D01*
X18213353Y-87499298D01*
X18215118Y-87499525D01*
X18223494Y-87505121D01*
X18280699Y-87516500D01*
X19555301Y-87516500D01*
X19612506Y-87505121D01*
X19629980Y-87493445D01*
X19631976Y-87493314D01*
X19633087Y-87494977D01*
G37*
G36*
X14464187Y-80918077D02*
G01*
X14463726Y-80919491D01*
X14424403Y-80966544D01*
X14415770Y-81035260D01*
X14445733Y-81097889D01*
X14454403Y-81105400D01*
X14455057Y-81107290D01*
X14453747Y-81108802D01*
X14451982Y-81108575D01*
X14443606Y-81102979D01*
X14386401Y-81091600D01*
X13111799Y-81091600D01*
X13054594Y-81102979D01*
X13037120Y-81114655D01*
X13035124Y-81114786D01*
X13034013Y-81113123D01*
X13034474Y-81111709D01*
X13073797Y-81064656D01*
X13082430Y-80995940D01*
X13052467Y-80933311D01*
X13043797Y-80925800D01*
X13043143Y-80923910D01*
X13044453Y-80922398D01*
X13046218Y-80922625D01*
X13054594Y-80928221D01*
X13111799Y-80939600D01*
X14386401Y-80939600D01*
X14443606Y-80928221D01*
X14461080Y-80916545D01*
X14463076Y-80916414D01*
X14464187Y-80918077D01*
G37*
G36*
X20189187Y-80918077D02*
G01*
X20188726Y-80919491D01*
X20149403Y-80966544D01*
X20140770Y-81035260D01*
X20170733Y-81097889D01*
X20179403Y-81105400D01*
X20180057Y-81107290D01*
X20178747Y-81108802D01*
X20176982Y-81108575D01*
X20168606Y-81102979D01*
X20111401Y-81091600D01*
X18836799Y-81091600D01*
X18779594Y-81102979D01*
X18762120Y-81114655D01*
X18760124Y-81114786D01*
X18759013Y-81113123D01*
X18759474Y-81111709D01*
X18798797Y-81064656D01*
X18807430Y-80995940D01*
X18777467Y-80933311D01*
X18768797Y-80925800D01*
X18768143Y-80923910D01*
X18769453Y-80922398D01*
X18771218Y-80922625D01*
X18779594Y-80928221D01*
X18836799Y-80939600D01*
X20111401Y-80939600D01*
X20168606Y-80928221D01*
X20186080Y-80916545D01*
X20188076Y-80916414D01*
X20189187Y-80918077D01*
G37*
G36*
X14464187Y-80268077D02*
G01*
X14463726Y-80269491D01*
X14424403Y-80316544D01*
X14415770Y-80385260D01*
X14445733Y-80447889D01*
X14454403Y-80455400D01*
X14455057Y-80457290D01*
X14453747Y-80458802D01*
X14451982Y-80458575D01*
X14443606Y-80452979D01*
X14386401Y-80441600D01*
X13111799Y-80441600D01*
X13054594Y-80452979D01*
X13037120Y-80464655D01*
X13035124Y-80464786D01*
X13034013Y-80463123D01*
X13034474Y-80461709D01*
X13073797Y-80414656D01*
X13082430Y-80345940D01*
X13052467Y-80283311D01*
X13043797Y-80275800D01*
X13043143Y-80273910D01*
X13044453Y-80272398D01*
X13046218Y-80272625D01*
X13054594Y-80278221D01*
X13111799Y-80289600D01*
X14386401Y-80289600D01*
X14443606Y-80278221D01*
X14461080Y-80266545D01*
X14463076Y-80266414D01*
X14464187Y-80268077D01*
G37*
G36*
X20189187Y-80268077D02*
G01*
X20188726Y-80269491D01*
X20149403Y-80316544D01*
X20140770Y-80385260D01*
X20170733Y-80447889D01*
X20179403Y-80455400D01*
X20180057Y-80457290D01*
X20178747Y-80458802D01*
X20176982Y-80458575D01*
X20168606Y-80452979D01*
X20111401Y-80441600D01*
X18836799Y-80441600D01*
X18779594Y-80452979D01*
X18762120Y-80464655D01*
X18760124Y-80464786D01*
X18759013Y-80463123D01*
X18759474Y-80461709D01*
X18798797Y-80414656D01*
X18807430Y-80345940D01*
X18777467Y-80283311D01*
X18768797Y-80275800D01*
X18768143Y-80273910D01*
X18769453Y-80272398D01*
X18771218Y-80272625D01*
X18779594Y-80278221D01*
X18836799Y-80289600D01*
X20111401Y-80289600D01*
X20168606Y-80278221D01*
X20186080Y-80266545D01*
X20188076Y-80266414D01*
X20189187Y-80268077D01*
G37*
G36*
X14464187Y-79618077D02*
G01*
X14463726Y-79619491D01*
X14424403Y-79666544D01*
X14415770Y-79735260D01*
X14445733Y-79797889D01*
X14454403Y-79805400D01*
X14455057Y-79807290D01*
X14453747Y-79808802D01*
X14451982Y-79808575D01*
X14443606Y-79802979D01*
X14386401Y-79791600D01*
X13111799Y-79791600D01*
X13054594Y-79802979D01*
X13037120Y-79814655D01*
X13035124Y-79814786D01*
X13034013Y-79813123D01*
X13034474Y-79811709D01*
X13073797Y-79764656D01*
X13082430Y-79695940D01*
X13052467Y-79633311D01*
X13043797Y-79625800D01*
X13043143Y-79623910D01*
X13044453Y-79622398D01*
X13046218Y-79622625D01*
X13054594Y-79628221D01*
X13111799Y-79639600D01*
X14386401Y-79639600D01*
X14443606Y-79628221D01*
X14461080Y-79616545D01*
X14463076Y-79616414D01*
X14464187Y-79618077D01*
G37*
G36*
X20189187Y-79618077D02*
G01*
X20188726Y-79619491D01*
X20149403Y-79666544D01*
X20140770Y-79735260D01*
X20170733Y-79797889D01*
X20179403Y-79805400D01*
X20180057Y-79807290D01*
X20178747Y-79808802D01*
X20176982Y-79808575D01*
X20168606Y-79802979D01*
X20111401Y-79791600D01*
X18836799Y-79791600D01*
X18779594Y-79802979D01*
X18762120Y-79814655D01*
X18760124Y-79814786D01*
X18759013Y-79813123D01*
X18759474Y-79811709D01*
X18798797Y-79764656D01*
X18807430Y-79695940D01*
X18777467Y-79633311D01*
X18768797Y-79625800D01*
X18768143Y-79623910D01*
X18769453Y-79622398D01*
X18771218Y-79622625D01*
X18779594Y-79628221D01*
X18836799Y-79639600D01*
X20111401Y-79639600D01*
X20168606Y-79628221D01*
X20186080Y-79616545D01*
X20188076Y-79616414D01*
X20189187Y-79618077D01*
G37*
G36*
X18100867Y-74507486D02*
G01*
X18111862Y-74514833D01*
X18130799Y-74518600D01*
X18780401Y-74518600D01*
X18799338Y-74514833D01*
X18810333Y-74507486D01*
X18812329Y-74507355D01*
X18813440Y-74509018D01*
X18813107Y-74510260D01*
X18803891Y-74524052D01*
X18805631Y-74525215D01*
X18806516Y-74527009D01*
X18806055Y-74528160D01*
X18791522Y-74545552D01*
X18782896Y-74614270D01*
X18805682Y-74661888D01*
X18805528Y-74663882D01*
X18804989Y-74664414D01*
X18803891Y-74665148D01*
X18813107Y-74678940D01*
X18813238Y-74680936D01*
X18811575Y-74682047D01*
X18810333Y-74681714D01*
X18799338Y-74674367D01*
X18780401Y-74670600D01*
X18130799Y-74670600D01*
X18111862Y-74674367D01*
X18100867Y-74681714D01*
X18098871Y-74681845D01*
X18097760Y-74680182D01*
X18098093Y-74678940D01*
X18107309Y-74665148D01*
X18105569Y-74663985D01*
X18104684Y-74662191D01*
X18105145Y-74661040D01*
X18119678Y-74643648D01*
X18128304Y-74574930D01*
X18105518Y-74527312D01*
X18105672Y-74525318D01*
X18106211Y-74524786D01*
X18107309Y-74524052D01*
X18098093Y-74510260D01*
X18097962Y-74508264D01*
X18099625Y-74507153D01*
X18100867Y-74507486D01*
G37*
G36*
X20000867Y-74507486D02*
G01*
X20011862Y-74514833D01*
X20030799Y-74518600D01*
X20680401Y-74518600D01*
X20699338Y-74514833D01*
X20710333Y-74507486D01*
X20712329Y-74507355D01*
X20713440Y-74509018D01*
X20713107Y-74510260D01*
X20703891Y-74524052D01*
X20705631Y-74525215D01*
X20706516Y-74527009D01*
X20706055Y-74528160D01*
X20691522Y-74545552D01*
X20682896Y-74614270D01*
X20705682Y-74661888D01*
X20705528Y-74663882D01*
X20704989Y-74664414D01*
X20703891Y-74665148D01*
X20713107Y-74678940D01*
X20713238Y-74680936D01*
X20711575Y-74682047D01*
X20710333Y-74681714D01*
X20699338Y-74674367D01*
X20680401Y-74670600D01*
X20030799Y-74670600D01*
X20011862Y-74674367D01*
X20000867Y-74681714D01*
X19998871Y-74681845D01*
X19997760Y-74680182D01*
X19998093Y-74678940D01*
X20007309Y-74665148D01*
X20005569Y-74663985D01*
X20004684Y-74662191D01*
X20005145Y-74661040D01*
X20019678Y-74643648D01*
X20028304Y-74574930D01*
X20005518Y-74527312D01*
X20005672Y-74525318D01*
X20006211Y-74524786D01*
X20007309Y-74524052D01*
X19998093Y-74510260D01*
X19997962Y-74508264D01*
X19999625Y-74507153D01*
X20000867Y-74507486D01*
G37*
G36*
X18100867Y-73857486D02*
G01*
X18111862Y-73864833D01*
X18130799Y-73868600D01*
X18780401Y-73868600D01*
X18799338Y-73864833D01*
X18810333Y-73857486D01*
X18812329Y-73857355D01*
X18813440Y-73859018D01*
X18813107Y-73860260D01*
X18803891Y-73874052D01*
X18805631Y-73875215D01*
X18806516Y-73877009D01*
X18806055Y-73878160D01*
X18791522Y-73895552D01*
X18782896Y-73964270D01*
X18805682Y-74011888D01*
X18805528Y-74013882D01*
X18804989Y-74014414D01*
X18803891Y-74015148D01*
X18813107Y-74028940D01*
X18813238Y-74030936D01*
X18811575Y-74032047D01*
X18810333Y-74031714D01*
X18799338Y-74024367D01*
X18780401Y-74020600D01*
X18130799Y-74020600D01*
X18111862Y-74024367D01*
X18100867Y-74031714D01*
X18098871Y-74031845D01*
X18097760Y-74030182D01*
X18098093Y-74028940D01*
X18107309Y-74015148D01*
X18105569Y-74013985D01*
X18104684Y-74012191D01*
X18105145Y-74011040D01*
X18119678Y-73993648D01*
X18128304Y-73924930D01*
X18105518Y-73877312D01*
X18105672Y-73875318D01*
X18106211Y-73874786D01*
X18107309Y-73874052D01*
X18098093Y-73860260D01*
X18097962Y-73858264D01*
X18099625Y-73857153D01*
X18100867Y-73857486D01*
G37*
G36*
X20000867Y-73857486D02*
G01*
X20011862Y-73864833D01*
X20030799Y-73868600D01*
X20680401Y-73868600D01*
X20699338Y-73864833D01*
X20710333Y-73857486D01*
X20712329Y-73857355D01*
X20713440Y-73859018D01*
X20713107Y-73860260D01*
X20703891Y-73874052D01*
X20705631Y-73875215D01*
X20706516Y-73877009D01*
X20706055Y-73878160D01*
X20691522Y-73895552D01*
X20682896Y-73964270D01*
X20705682Y-74011888D01*
X20705528Y-74013882D01*
X20704989Y-74014414D01*
X20703891Y-74015148D01*
X20713107Y-74028940D01*
X20713238Y-74030936D01*
X20711575Y-74032047D01*
X20710333Y-74031714D01*
X20699338Y-74024367D01*
X20680401Y-74020600D01*
X20030799Y-74020600D01*
X20011862Y-74024367D01*
X20000867Y-74031714D01*
X19998871Y-74031845D01*
X19997760Y-74030182D01*
X19998093Y-74028940D01*
X20007309Y-74015148D01*
X20005569Y-74013985D01*
X20004684Y-74012191D01*
X20005145Y-74011040D01*
X20019678Y-73993648D01*
X20028304Y-73924930D01*
X20005518Y-73877312D01*
X20005672Y-73875318D01*
X20006211Y-73874786D01*
X20007309Y-73874052D01*
X19998093Y-73860260D01*
X19997962Y-73858264D01*
X19999625Y-73857153D01*
X20000867Y-73857486D01*
G37*
G36*
X11261087Y-56010477D02*
G01*
X11260626Y-56011891D01*
X11221303Y-56058944D01*
X11212670Y-56127660D01*
X11242633Y-56190289D01*
X11251303Y-56197800D01*
X11251957Y-56199690D01*
X11250647Y-56201202D01*
X11248882Y-56200975D01*
X11240506Y-56195379D01*
X11183301Y-56184000D01*
X9908699Y-56184000D01*
X9851494Y-56195379D01*
X9834020Y-56207055D01*
X9832024Y-56207186D01*
X9830913Y-56205523D01*
X9831374Y-56204109D01*
X9870697Y-56157056D01*
X9879330Y-56088340D01*
X9849367Y-56025711D01*
X9840697Y-56018200D01*
X9840043Y-56016310D01*
X9841353Y-56014798D01*
X9843118Y-56015025D01*
X9851494Y-56020621D01*
X9908699Y-56032000D01*
X11183301Y-56032000D01*
X11240506Y-56020621D01*
X11257980Y-56008945D01*
X11259976Y-56008814D01*
X11261087Y-56010477D01*
G37*
G36*
X5536087Y-56010477D02*
G01*
X5535626Y-56011891D01*
X5496303Y-56058944D01*
X5487670Y-56127660D01*
X5517633Y-56190289D01*
X5526303Y-56197800D01*
X5526957Y-56199690D01*
X5525647Y-56201202D01*
X5523882Y-56200975D01*
X5515506Y-56195379D01*
X5458301Y-56184000D01*
X4183699Y-56184000D01*
X4126494Y-56195379D01*
X4109020Y-56207055D01*
X4107024Y-56207186D01*
X4105913Y-56205523D01*
X4106374Y-56204109D01*
X4145697Y-56157056D01*
X4154330Y-56088340D01*
X4124367Y-56025711D01*
X4115697Y-56018200D01*
X4115043Y-56016310D01*
X4116353Y-56014798D01*
X4118118Y-56015025D01*
X4126494Y-56020621D01*
X4183699Y-56032000D01*
X5458301Y-56032000D01*
X5515506Y-56020621D01*
X5532980Y-56008945D01*
X5534976Y-56008814D01*
X5536087Y-56010477D01*
G37*
G36*
X11261087Y-55360477D02*
G01*
X11260626Y-55361891D01*
X11221303Y-55408944D01*
X11212670Y-55477660D01*
X11242633Y-55540289D01*
X11251303Y-55547800D01*
X11251957Y-55549690D01*
X11250647Y-55551202D01*
X11248882Y-55550975D01*
X11240506Y-55545379D01*
X11183301Y-55534000D01*
X9908699Y-55534000D01*
X9851494Y-55545379D01*
X9834020Y-55557055D01*
X9832024Y-55557186D01*
X9830913Y-55555523D01*
X9831374Y-55554109D01*
X9870697Y-55507056D01*
X9879330Y-55438340D01*
X9849367Y-55375711D01*
X9840697Y-55368200D01*
X9840043Y-55366310D01*
X9841353Y-55364798D01*
X9843118Y-55365025D01*
X9851494Y-55370621D01*
X9908699Y-55382000D01*
X11183301Y-55382000D01*
X11240506Y-55370621D01*
X11257980Y-55358945D01*
X11259976Y-55358814D01*
X11261087Y-55360477D01*
G37*
G36*
X5536087Y-55360477D02*
G01*
X5535626Y-55361891D01*
X5496303Y-55408944D01*
X5487670Y-55477660D01*
X5517633Y-55540289D01*
X5526303Y-55547800D01*
X5526957Y-55549690D01*
X5525647Y-55551202D01*
X5523882Y-55550975D01*
X5515506Y-55545379D01*
X5458301Y-55534000D01*
X4183699Y-55534000D01*
X4126494Y-55545379D01*
X4109020Y-55557055D01*
X4107024Y-55557186D01*
X4105913Y-55555523D01*
X4106374Y-55554109D01*
X4145697Y-55507056D01*
X4154330Y-55438340D01*
X4124367Y-55375711D01*
X4115697Y-55368200D01*
X4115043Y-55366310D01*
X4116353Y-55364798D01*
X4118118Y-55365025D01*
X4126494Y-55370621D01*
X4183699Y-55382000D01*
X5458301Y-55382000D01*
X5515506Y-55370621D01*
X5532980Y-55358945D01*
X5534976Y-55358814D01*
X5536087Y-55360477D01*
G37*
G36*
X20033391Y-53773374D02*
G01*
X20080444Y-53812697D01*
X20149160Y-53821330D01*
X20211789Y-53791367D01*
X20219300Y-53782697D01*
X20221190Y-53782043D01*
X20222702Y-53783353D01*
X20222475Y-53785118D01*
X20216879Y-53793494D01*
X20205500Y-53850699D01*
X20205500Y-55125301D01*
X20216879Y-55182506D01*
X20228555Y-55199980D01*
X20228686Y-55201976D01*
X20227023Y-55203087D01*
X20225609Y-55202626D01*
X20178556Y-55163303D01*
X20109840Y-55154670D01*
X20047211Y-55184633D01*
X20039700Y-55193303D01*
X20037810Y-55193957D01*
X20036298Y-55192647D01*
X20036525Y-55190882D01*
X20042121Y-55182506D01*
X20053500Y-55125301D01*
X20053500Y-53850699D01*
X20042121Y-53793494D01*
X20030445Y-53776020D01*
X20030314Y-53774024D01*
X20031977Y-53772913D01*
X20033391Y-53773374D01*
G37*
G36*
X19383391Y-53773374D02*
G01*
X19430444Y-53812697D01*
X19499160Y-53821330D01*
X19561789Y-53791367D01*
X19569300Y-53782697D01*
X19571190Y-53782043D01*
X19572702Y-53783353D01*
X19572475Y-53785118D01*
X19566879Y-53793494D01*
X19555500Y-53850699D01*
X19555500Y-55125301D01*
X19566879Y-55182506D01*
X19578555Y-55199980D01*
X19578686Y-55201976D01*
X19577023Y-55203087D01*
X19575609Y-55202626D01*
X19528556Y-55163303D01*
X19459840Y-55154670D01*
X19397211Y-55184633D01*
X19389700Y-55193303D01*
X19387810Y-55193957D01*
X19386298Y-55192647D01*
X19386525Y-55190882D01*
X19392121Y-55182506D01*
X19403500Y-55125301D01*
X19403500Y-53850699D01*
X19392121Y-53793494D01*
X19380445Y-53776020D01*
X19380314Y-53774024D01*
X19381977Y-53772913D01*
X19383391Y-53773374D01*
G37*
G36*
X20683391Y-53773374D02*
G01*
X20730444Y-53812697D01*
X20799160Y-53821330D01*
X20861789Y-53791367D01*
X20869300Y-53782697D01*
X20871190Y-53782043D01*
X20872702Y-53783353D01*
X20872475Y-53785118D01*
X20866879Y-53793494D01*
X20855500Y-53850699D01*
X20855500Y-55125301D01*
X20866879Y-55182506D01*
X20878555Y-55199980D01*
X20878686Y-55201976D01*
X20877023Y-55203087D01*
X20875609Y-55202626D01*
X20828556Y-55163303D01*
X20759840Y-55154670D01*
X20697211Y-55184633D01*
X20689700Y-55193303D01*
X20687810Y-55193957D01*
X20686298Y-55192647D01*
X20686525Y-55190882D01*
X20692121Y-55182506D01*
X20703500Y-55125301D01*
X20703500Y-53850699D01*
X20692121Y-53793494D01*
X20680445Y-53776020D01*
X20680314Y-53774024D01*
X20681977Y-53772913D01*
X20683391Y-53773374D01*
G37*
G36*
X5536087Y-54710477D02*
G01*
X5535626Y-54711891D01*
X5496303Y-54758944D01*
X5487670Y-54827660D01*
X5517633Y-54890289D01*
X5526303Y-54897800D01*
X5526957Y-54899690D01*
X5525647Y-54901202D01*
X5523882Y-54900975D01*
X5515506Y-54895379D01*
X5458301Y-54884000D01*
X4183699Y-54884000D01*
X4126494Y-54895379D01*
X4109020Y-54907055D01*
X4107024Y-54907186D01*
X4105913Y-54905523D01*
X4106374Y-54904109D01*
X4145697Y-54857056D01*
X4154330Y-54788340D01*
X4124367Y-54725711D01*
X4115697Y-54718200D01*
X4115043Y-54716310D01*
X4116353Y-54714798D01*
X4118118Y-54715025D01*
X4126494Y-54720621D01*
X4183699Y-54732000D01*
X5458301Y-54732000D01*
X5515506Y-54720621D01*
X5532980Y-54708945D01*
X5534976Y-54708814D01*
X5536087Y-54710477D01*
G37*
G36*
X11261087Y-54710477D02*
G01*
X11260626Y-54711891D01*
X11221303Y-54758944D01*
X11212670Y-54827660D01*
X11242633Y-54890289D01*
X11251303Y-54897800D01*
X11251957Y-54899690D01*
X11250647Y-54901202D01*
X11248882Y-54900975D01*
X11240506Y-54895379D01*
X11183301Y-54884000D01*
X9908699Y-54884000D01*
X9851494Y-54895379D01*
X9834020Y-54907055D01*
X9832024Y-54907186D01*
X9830913Y-54905523D01*
X9831374Y-54904109D01*
X9870697Y-54857056D01*
X9879330Y-54788340D01*
X9849367Y-54725711D01*
X9840697Y-54718200D01*
X9840043Y-54716310D01*
X9841353Y-54714798D01*
X9843118Y-54715025D01*
X9851494Y-54720621D01*
X9908699Y-54732000D01*
X11183301Y-54732000D01*
X11240506Y-54720621D01*
X11257980Y-54708945D01*
X11259976Y-54708814D01*
X11261087Y-54710477D01*
G37*
G36*
X5536087Y-54060477D02*
G01*
X5535626Y-54061891D01*
X5496303Y-54108944D01*
X5487670Y-54177660D01*
X5517633Y-54240289D01*
X5526303Y-54247800D01*
X5526957Y-54249690D01*
X5525647Y-54251202D01*
X5523882Y-54250975D01*
X5515506Y-54245379D01*
X5458301Y-54234000D01*
X4183699Y-54234000D01*
X4126494Y-54245379D01*
X4109020Y-54257055D01*
X4107024Y-54257186D01*
X4105913Y-54255523D01*
X4106374Y-54254109D01*
X4145697Y-54207056D01*
X4154330Y-54138340D01*
X4124367Y-54075711D01*
X4115697Y-54068200D01*
X4115043Y-54066310D01*
X4116353Y-54064798D01*
X4118118Y-54065025D01*
X4126494Y-54070621D01*
X4183699Y-54082000D01*
X5458301Y-54082000D01*
X5515506Y-54070621D01*
X5532980Y-54058945D01*
X5534976Y-54058814D01*
X5536087Y-54060477D01*
G37*
G36*
X11261087Y-54060477D02*
G01*
X11260626Y-54061891D01*
X11221303Y-54108944D01*
X11212670Y-54177660D01*
X11242633Y-54240289D01*
X11251303Y-54247800D01*
X11251957Y-54249690D01*
X11250647Y-54251202D01*
X11248882Y-54250975D01*
X11240506Y-54245379D01*
X11183301Y-54234000D01*
X9908699Y-54234000D01*
X9851494Y-54245379D01*
X9834020Y-54257055D01*
X9832024Y-54257186D01*
X9830913Y-54255523D01*
X9831374Y-54254109D01*
X9870697Y-54207056D01*
X9879330Y-54138340D01*
X9849367Y-54075711D01*
X9840697Y-54068200D01*
X9840043Y-54066310D01*
X9841353Y-54064798D01*
X9843118Y-54065025D01*
X9851494Y-54070621D01*
X9908699Y-54082000D01*
X11183301Y-54082000D01*
X11240506Y-54070621D01*
X11257980Y-54058945D01*
X11259976Y-54058814D01*
X11261087Y-54060477D01*
G37*
G36*
X5536087Y-53410477D02*
G01*
X5535626Y-53411891D01*
X5496303Y-53458944D01*
X5487670Y-53527660D01*
X5517633Y-53590289D01*
X5526303Y-53597800D01*
X5526957Y-53599690D01*
X5525647Y-53601202D01*
X5523882Y-53600975D01*
X5515506Y-53595379D01*
X5458301Y-53584000D01*
X4183699Y-53584000D01*
X4126494Y-53595379D01*
X4109020Y-53607055D01*
X4107024Y-53607186D01*
X4105913Y-53605523D01*
X4106374Y-53604109D01*
X4145697Y-53557056D01*
X4154330Y-53488340D01*
X4124367Y-53425711D01*
X4115697Y-53418200D01*
X4115043Y-53416310D01*
X4116353Y-53414798D01*
X4118118Y-53415025D01*
X4126494Y-53420621D01*
X4183699Y-53432000D01*
X5458301Y-53432000D01*
X5515506Y-53420621D01*
X5532980Y-53408945D01*
X5534976Y-53408814D01*
X5536087Y-53410477D01*
G37*
G36*
X11261087Y-53410477D02*
G01*
X11260626Y-53411891D01*
X11221303Y-53458944D01*
X11212670Y-53527660D01*
X11242633Y-53590289D01*
X11251303Y-53597800D01*
X11251957Y-53599690D01*
X11250647Y-53601202D01*
X11248882Y-53600975D01*
X11240506Y-53595379D01*
X11183301Y-53584000D01*
X9908699Y-53584000D01*
X9851494Y-53595379D01*
X9834020Y-53607055D01*
X9832024Y-53607186D01*
X9830913Y-53605523D01*
X9831374Y-53604109D01*
X9870697Y-53557056D01*
X9879330Y-53488340D01*
X9849367Y-53425711D01*
X9840697Y-53418200D01*
X9840043Y-53416310D01*
X9841353Y-53414798D01*
X9843118Y-53415025D01*
X9851494Y-53420621D01*
X9908699Y-53432000D01*
X11183301Y-53432000D01*
X11240506Y-53420621D01*
X11257980Y-53408945D01*
X11259976Y-53408814D01*
X11261087Y-53410477D01*
G37*
G36*
X5536087Y-52760477D02*
G01*
X5535626Y-52761891D01*
X5496303Y-52808944D01*
X5487670Y-52877660D01*
X5517633Y-52940289D01*
X5526303Y-52947800D01*
X5526957Y-52949690D01*
X5525647Y-52951202D01*
X5523882Y-52950975D01*
X5515506Y-52945379D01*
X5458301Y-52934000D01*
X4183699Y-52934000D01*
X4126494Y-52945379D01*
X4109020Y-52957055D01*
X4107024Y-52957186D01*
X4105913Y-52955523D01*
X4106374Y-52954109D01*
X4145697Y-52907056D01*
X4154330Y-52838340D01*
X4124367Y-52775711D01*
X4115697Y-52768200D01*
X4115043Y-52766310D01*
X4116353Y-52764798D01*
X4118118Y-52765025D01*
X4126494Y-52770621D01*
X4183699Y-52782000D01*
X5458301Y-52782000D01*
X5515506Y-52770621D01*
X5532980Y-52758945D01*
X5534976Y-52758814D01*
X5536087Y-52760477D01*
G37*
G36*
X11261087Y-52760477D02*
G01*
X11260626Y-52761891D01*
X11221303Y-52808944D01*
X11212670Y-52877660D01*
X11242633Y-52940289D01*
X11251303Y-52947800D01*
X11251957Y-52949690D01*
X11250647Y-52951202D01*
X11248882Y-52950975D01*
X11240506Y-52945379D01*
X11183301Y-52934000D01*
X9908699Y-52934000D01*
X9851494Y-52945379D01*
X9834020Y-52957055D01*
X9832024Y-52957186D01*
X9830913Y-52955523D01*
X9831374Y-52954109D01*
X9870697Y-52907056D01*
X9879330Y-52838340D01*
X9849367Y-52775711D01*
X9840697Y-52768200D01*
X9840043Y-52766310D01*
X9841353Y-52764798D01*
X9843118Y-52765025D01*
X9851494Y-52770621D01*
X9908699Y-52782000D01*
X11183301Y-52782000D01*
X11240506Y-52770621D01*
X11257980Y-52758945D01*
X11259976Y-52758814D01*
X11261087Y-52760477D01*
G37*
G36*
X19383391Y-48048374D02*
G01*
X19430444Y-48087697D01*
X19499160Y-48096330D01*
X19561789Y-48066367D01*
X19569300Y-48057697D01*
X19571190Y-48057043D01*
X19572702Y-48058353D01*
X19572475Y-48060118D01*
X19566879Y-48068494D01*
X19555500Y-48125699D01*
X19555500Y-49400301D01*
X19566879Y-49457506D01*
X19578555Y-49474980D01*
X19578686Y-49476976D01*
X19577023Y-49478087D01*
X19575609Y-49477626D01*
X19528556Y-49438303D01*
X19459840Y-49429670D01*
X19397211Y-49459633D01*
X19389700Y-49468303D01*
X19387810Y-49468957D01*
X19386298Y-49467647D01*
X19386525Y-49465882D01*
X19392121Y-49457506D01*
X19403500Y-49400301D01*
X19403500Y-48125699D01*
X19392121Y-48068494D01*
X19380445Y-48051020D01*
X19380314Y-48049024D01*
X19381977Y-48047913D01*
X19383391Y-48048374D01*
G37*
G36*
X20683391Y-48048374D02*
G01*
X20730444Y-48087697D01*
X20799160Y-48096330D01*
X20861789Y-48066367D01*
X20869300Y-48057697D01*
X20871190Y-48057043D01*
X20872702Y-48058353D01*
X20872475Y-48060118D01*
X20866879Y-48068494D01*
X20855500Y-48125699D01*
X20855500Y-49400301D01*
X20866879Y-49457506D01*
X20878555Y-49474980D01*
X20878686Y-49476976D01*
X20877023Y-49478087D01*
X20875609Y-49477626D01*
X20828556Y-49438303D01*
X20759840Y-49429670D01*
X20697211Y-49459633D01*
X20689700Y-49468303D01*
X20687810Y-49468957D01*
X20686298Y-49467647D01*
X20686525Y-49465882D01*
X20692121Y-49457506D01*
X20703500Y-49400301D01*
X20703500Y-48125699D01*
X20692121Y-48068494D01*
X20680445Y-48051020D01*
X20680314Y-48049024D01*
X20681977Y-48047913D01*
X20683391Y-48048374D01*
G37*
G36*
X20033391Y-48048374D02*
G01*
X20080444Y-48087697D01*
X20149160Y-48096330D01*
X20211789Y-48066367D01*
X20219300Y-48057697D01*
X20221190Y-48057043D01*
X20222702Y-48058353D01*
X20222475Y-48060118D01*
X20216879Y-48068494D01*
X20205500Y-48125699D01*
X20205500Y-49400301D01*
X20216879Y-49457506D01*
X20228555Y-49474980D01*
X20228686Y-49476976D01*
X20227023Y-49478087D01*
X20225609Y-49477626D01*
X20178556Y-49438303D01*
X20109840Y-49429670D01*
X20047211Y-49459633D01*
X20039700Y-49468303D01*
X20037810Y-49468957D01*
X20036298Y-49467647D01*
X20036525Y-49465882D01*
X20042121Y-49457506D01*
X20053500Y-49400301D01*
X20053500Y-48125699D01*
X20042121Y-48068494D01*
X20030445Y-48051020D01*
X20030314Y-48049024D01*
X20031977Y-48047913D01*
X20033391Y-48048374D01*
G37*
G36*
X27631387Y-25571477D02*
G01*
X27630926Y-25572891D01*
X27591603Y-25619944D01*
X27582970Y-25688660D01*
X27612933Y-25751289D01*
X27621603Y-25758800D01*
X27622257Y-25760690D01*
X27620947Y-25762202D01*
X27619182Y-25761975D01*
X27610806Y-25756379D01*
X27553601Y-25745000D01*
X26278999Y-25745000D01*
X26221794Y-25756379D01*
X26204320Y-25768055D01*
X26202324Y-25768186D01*
X26201213Y-25766523D01*
X26201674Y-25765109D01*
X26240997Y-25718056D01*
X26249630Y-25649340D01*
X26219667Y-25586711D01*
X26210997Y-25579200D01*
X26210343Y-25577310D01*
X26211653Y-25575798D01*
X26213418Y-25576025D01*
X26221794Y-25581621D01*
X26278999Y-25593000D01*
X27553601Y-25593000D01*
X27610806Y-25581621D01*
X27628280Y-25569945D01*
X27630276Y-25569814D01*
X27631387Y-25571477D01*
G37*
G36*
X21906387Y-25571477D02*
G01*
X21905926Y-25572891D01*
X21866603Y-25619944D01*
X21857970Y-25688660D01*
X21887933Y-25751289D01*
X21896603Y-25758800D01*
X21897257Y-25760690D01*
X21895947Y-25762202D01*
X21894182Y-25761975D01*
X21885806Y-25756379D01*
X21828601Y-25745000D01*
X20553999Y-25745000D01*
X20496794Y-25756379D01*
X20479320Y-25768055D01*
X20477324Y-25768186D01*
X20476213Y-25766523D01*
X20476674Y-25765109D01*
X20515997Y-25718056D01*
X20524630Y-25649340D01*
X20494667Y-25586711D01*
X20485997Y-25579200D01*
X20485343Y-25577310D01*
X20486653Y-25575798D01*
X20488418Y-25576025D01*
X20496794Y-25581621D01*
X20553999Y-25593000D01*
X21828601Y-25593000D01*
X21885806Y-25581621D01*
X21903280Y-25569945D01*
X21905276Y-25569814D01*
X21906387Y-25571477D01*
G37*
G36*
X27631387Y-24921477D02*
G01*
X27630926Y-24922891D01*
X27591603Y-24969944D01*
X27582970Y-25038660D01*
X27612933Y-25101289D01*
X27621603Y-25108800D01*
X27622257Y-25110690D01*
X27620947Y-25112202D01*
X27619182Y-25111975D01*
X27610806Y-25106379D01*
X27553601Y-25095000D01*
X26278999Y-25095000D01*
X26221794Y-25106379D01*
X26204320Y-25118055D01*
X26202324Y-25118186D01*
X26201213Y-25116523D01*
X26201674Y-25115109D01*
X26240997Y-25068056D01*
X26249630Y-24999340D01*
X26219667Y-24936711D01*
X26210997Y-24929200D01*
X26210343Y-24927310D01*
X26211653Y-24925798D01*
X26213418Y-24926025D01*
X26221794Y-24931621D01*
X26278999Y-24943000D01*
X27553601Y-24943000D01*
X27610806Y-24931621D01*
X27628280Y-24919945D01*
X27630276Y-24919814D01*
X27631387Y-24921477D01*
G37*
G36*
X21906387Y-24921477D02*
G01*
X21905926Y-24922891D01*
X21866603Y-24969944D01*
X21857970Y-25038660D01*
X21887933Y-25101289D01*
X21896603Y-25108800D01*
X21897257Y-25110690D01*
X21895947Y-25112202D01*
X21894182Y-25111975D01*
X21885806Y-25106379D01*
X21828601Y-25095000D01*
X20553999Y-25095000D01*
X20496794Y-25106379D01*
X20479320Y-25118055D01*
X20477324Y-25118186D01*
X20476213Y-25116523D01*
X20476674Y-25115109D01*
X20515997Y-25068056D01*
X20524630Y-24999340D01*
X20494667Y-24936711D01*
X20485997Y-24929200D01*
X20485343Y-24927310D01*
X20486653Y-24925798D01*
X20488418Y-24926025D01*
X20496794Y-24931621D01*
X20553999Y-24943000D01*
X21828601Y-24943000D01*
X21885806Y-24931621D01*
X21903280Y-24919945D01*
X21905276Y-24919814D01*
X21906387Y-24921477D01*
G37*
G36*
X27631387Y-24271477D02*
G01*
X27630926Y-24272891D01*
X27591603Y-24319944D01*
X27582970Y-24388660D01*
X27612933Y-24451289D01*
X27621603Y-24458800D01*
X27622257Y-24460690D01*
X27620947Y-24462202D01*
X27619182Y-24461975D01*
X27610806Y-24456379D01*
X27553601Y-24445000D01*
X26278999Y-24445000D01*
X26221794Y-24456379D01*
X26204320Y-24468055D01*
X26202324Y-24468186D01*
X26201213Y-24466523D01*
X26201674Y-24465109D01*
X26240997Y-24418056D01*
X26249630Y-24349340D01*
X26219667Y-24286711D01*
X26210997Y-24279200D01*
X26210343Y-24277310D01*
X26211653Y-24275798D01*
X26213418Y-24276025D01*
X26221794Y-24281621D01*
X26278999Y-24293000D01*
X27553601Y-24293000D01*
X27610806Y-24281621D01*
X27628280Y-24269945D01*
X27630276Y-24269814D01*
X27631387Y-24271477D01*
G37*
G36*
X21906387Y-24271477D02*
G01*
X21905926Y-24272891D01*
X21866603Y-24319944D01*
X21857970Y-24388660D01*
X21887933Y-24451289D01*
X21896603Y-24458800D01*
X21897257Y-24460690D01*
X21895947Y-24462202D01*
X21894182Y-24461975D01*
X21885806Y-24456379D01*
X21828601Y-24445000D01*
X20553999Y-24445000D01*
X20496794Y-24456379D01*
X20479320Y-24468055D01*
X20477324Y-24468186D01*
X20476213Y-24466523D01*
X20476674Y-24465109D01*
X20515997Y-24418056D01*
X20524630Y-24349340D01*
X20494667Y-24286711D01*
X20485997Y-24279200D01*
X20485343Y-24277310D01*
X20486653Y-24275798D01*
X20488418Y-24276025D01*
X20496794Y-24281621D01*
X20553999Y-24293000D01*
X21828601Y-24293000D01*
X21885806Y-24281621D01*
X21903280Y-24269945D01*
X21905276Y-24269814D01*
X21906387Y-24271477D01*
G37*
M02*
