M48
; DRILL file {KiCad (6.0.9)} date Sat 25 Feb 2023 10:16:02 PM
; FORMAT={-:-/ absolute / inch / decimal}
; #@! TF.CreationDate,2023-02-25T22:16:02-08:00
; #@! TF.GenerationSoftware,Kicad,Pcbnew,(6.0.9)
; #@! TF.FileFunction,Plated,1,2,PTH
FMAT,2
INCH
; #@! TA.AperFunction,Plated,PTH,ViaDrill
T1C0.0157
; #@! TA.AperFunction,Plated,PTH,ComponentDrill
T2C0.0354
; #@! TA.AperFunction,Plated,PTH,ComponentDrill
T3C0.0394
; #@! TA.AperFunction,Plated,PTH,ComponentDrill
T4C0.0472
; #@! TA.AperFunction,Plated,PTH,ComponentDrill
T5C0.0512
; #@! TA.AperFunction,Plated,PTH,ComponentDrill
T6C0.0551
; #@! TA.AperFunction,Plated,PTH,ComponentDrill
T7C0.0630
%
G90
G05
T1
X0.0246Y-3.4832
X0.0246Y-1.2475
X0.035Y-0.425
X0.035Y-0.55
X0.035Y-0.675
X0.035Y-0.8
X0.035Y-0.925
X0.035Y-1.05
X0.035Y-1.175
X0.035Y-3.725
X0.035Y-3.8525
X0.035Y-3.975
X0.035Y-4.275
X0.035Y-4.4
X0.035Y-4.6875
X0.0525Y-3.266
X0.0525Y-3.399
X0.078Y-3.1264
X0.09Y-2.07
X0.1Y-2.4075
X0.1Y-2.6975
X0.102Y-2.94
X0.1025Y-2.2275
X0.11Y-1.565
X0.11Y-1.775
X0.1125Y-1.8975
X0.12Y-1.275
X0.12Y-1.975
X0.1281Y-1.8375
X0.1413Y-3.4003
X0.1533Y-3.5407
X0.1575Y-0.425
X0.16Y-4.6875
X0.1675Y-2.535
X0.1819Y-3.6151
X0.21Y-1.4225
X0.23Y-1.8375
X0.234Y-2.852
X0.245Y-2.1375
X0.245Y-2.205
X0.2525Y-2.025
X0.258Y-3.501
X0.283Y-3.17
X0.285Y-4.6875
X0.2925Y-0.425
X0.299Y-3.58
X0.309Y-3.127
X0.32Y-2.245
X0.3225Y-2.745
X0.3275Y-2.06
X0.3375Y-1.1475
X0.3375Y-1.4225
X0.342Y-3.54
X0.352Y-3.308
X0.385Y-4.6875
X0.3875Y-3.7125
X0.3925Y-2.0357
X0.4075Y-4.29
X0.4225Y-3.455
X0.425Y-0.425
X0.425Y-3.385
X0.4275Y-1.705
X0.43Y-3.1875
X0.435Y-3.877
X0.4425Y-3.95
X0.4625Y-2.8375
X0.4675Y-2.54
X0.475Y-3.272
X0.4784Y-1.8452
X0.4822Y-1.7302
X0.507Y-1.026
X0.5125Y-2.2775
X0.5225Y-2.135
X0.5325Y-2.501
X0.535Y-3.9075
X0.535Y-3.95
X0.54Y-3.6125
X0.55Y-0.425
X0.5506Y-3.067
X0.565Y-2.0925
X0.5675Y-3.7125
X0.5742Y-2.9327
X0.5749Y-2.8498
X0.5925Y-3.63
X0.595Y-4.015
X0.596Y-1.825
X0.598Y-1.7304
X0.611Y-2.893
X0.6144Y-2.5167
X0.63Y-4.3575
X0.6375Y-3.5325
X0.642Y-2.485
X0.646Y-1.409
X0.6475Y-3.2025
X0.648Y-3.016
X0.66Y-2.2
X0.66Y-2.2775
X0.662Y-1.982
X0.6666Y-2.887
X0.669Y-2.371
X0.675Y-0.425
X0.677Y-2.849
X0.6867Y-1.7342
X0.6954Y-2.1828
X0.7Y-2.0425
X0.7006Y-2.5154
X0.711Y-1.063
X0.715Y-0.705
X0.715Y-0.8
X0.722Y-1.903
X0.725Y-2.4475
X0.733Y-2.084
X0.7385Y-2.6554
X0.752Y-2.526
X0.7541Y-2.2581
X0.7705Y-2.6325
X0.7771Y-2.4721
X0.778Y-0.901
X0.788Y-2.038
X0.7925Y-4.2593
X0.795Y-0.425
X0.795Y-4.6875
X0.8075Y-3.515
X0.8325Y-1.825
X0.835Y-3.095
X0.8375Y-4.225
X0.8375Y-4.37
X0.844Y-3.014
X0.847Y-1.177
X0.848Y-2.936
X0.8675Y-2.51
X0.876Y-2.826
X0.8825Y-4.2575
X0.885Y-4.0175
X0.905Y-3.414
X0.906Y-0.939
X0.9175Y-4.3125
X0.92Y-0.425
X0.92Y-4.6875
X0.922Y-4.261
X0.9395Y-3.6266
X0.942Y-3.191
X0.944Y-1.213
X0.947Y-1.07
X0.949Y-1.398
X0.974Y-0.938
X0.9988Y-1.5091
X1.002Y-1.025
X1.01Y-2.35
X1.025Y-2.631
X1.03Y-1.815
X1.03Y-1.94
X1.0325Y-3.9825
X1.0375Y-2.5875
X1.045Y-0.425
X1.045Y-0.625
X1.045Y-1.7725
X1.045Y-4.6875
X1.0473Y-3.9431
X1.063Y-1.061
X1.065Y-2.63
X1.0716Y-1.94
X1.0746Y-1.339
X1.0746Y-1.413
X1.0952Y-2.7013
X1.1199Y-3.9743
X1.12Y-4.3125
X1.1205Y-4.0137
X1.17Y-0.425
X1.17Y-0.625
X1.17Y-1.375
X1.17Y-1.525
X1.17Y-1.9
X1.17Y-2.05
X1.17Y-2.5
X1.17Y-2.65
X1.17Y-2.9275
X1.17Y-3.05
X1.17Y-3.1775
X1.17Y-3.4175
X1.17Y-3.575
X1.17Y-3.85
X1.17Y-3.975
X1.17Y-4.275
X1.17Y-4.4
X1.17Y-4.6875
T2
X0.55Y-3.4326
X0.55Y-3.8334
X0.55Y-4.2342
X0.55Y-4.635
X0.6Y-1.15
X0.6Y-1.25
X0.6Y-2.188
X0.6Y-2.288
X0.65Y-3.4326
X0.65Y-3.8334
X0.65Y-4.2342
X0.65Y-4.635
X0.9982Y-0.765
X1.0982Y-0.765
T3
X0.14Y-0.605
X0.14Y-0.705
X0.14Y-0.805
X0.14Y-0.905
X0.14Y-1.005
X0.1516Y-3.837
X0.24Y-0.605
X0.24Y-0.705
X0.24Y-0.805
X0.24Y-0.905
X0.24Y-1.005
X0.25Y-3.837
X0.2516Y-1.963
X0.2516Y-3.0666
X0.3484Y-3.837
X0.35Y-1.963
X0.35Y-3.0666
X0.4484Y-1.963
X0.4484Y-3.0666
X0.5016Y-0.9079
X0.6Y-0.9079
X0.6984Y-0.9079
X0.8506Y-1.4756
X0.949Y-1.4756
X1.0474Y-1.4756
T4
X0.0563Y-4.1299
X0.0563Y-4.5307
X0.3831Y-4.1299
X0.3831Y-4.5307
X0.5051Y-4.1299
X0.5051Y-4.5307
X0.6945Y-1.6677
X0.6945Y-2.7713
X0.6945Y-3.3283
X0.6945Y-3.7291
X0.6945Y-4.1299
X0.6945Y-4.5307
X0.8165Y-1.6677
X0.8165Y-2.7713
X0.8165Y-3.3283
X0.8165Y-3.7291
X0.8165Y-4.1299
X0.8165Y-4.5307
X0.9496Y-1.9831
X0.9496Y-2.1051
X0.9496Y-2.4319
X1.1433Y-1.6677
X1.1433Y-2.7713
X1.1433Y-3.3283
X1.1433Y-3.7291
X1.1433Y-4.1299
X1.1433Y-4.5307
T5
G00X0.539Y-1.6835
M15
G01X0.539Y-1.652
M16
G05
G00X0.539Y-2.787
M15
G01X0.539Y-2.7555
M16
G05
G00X0.789Y-0.6283
M15
G01X0.789Y-0.5968
M16
G05
T6
G00X0.161Y-1.6815
M15
G01X0.161Y-1.6539
M16
G05
G00X0.161Y-2.7851
M15
G01X0.161Y-2.7575
M16
G05
G00X0.411Y-0.6264
M15
G01X0.411Y-0.5988
M16
G05
T7
G00X0.061Y-3.5732
M15
G01X0.061Y-3.5496
M16
G05
G00X0.439Y-3.5732
M15
G01X0.439Y-3.5496
M16
G05
G00X0.76Y-1.2118
M15
G01X0.76Y-1.1882
M16
G05
G00X1.138Y-1.2118
M15
G01X1.138Y-1.1882
M16
G05
T0
M30
